<?xml version="1.0" encoding="UTF-8" standalone="no"?>
<!DOCTYPE svg PUBLIC "-//W3C//DTD SVG 1.1//EN"
 "http://www.w3.org/Graphics/SVG/1.1/DTD/svg11.dtd">
<!-- Generated by graphviz version 2.36.0 (20140111.2315)
 -->
<!-- Title: com.github.aptd.simulation.elements.passenger.CPassenger.CGenerator.generate Pages: 1 -->
<svg width="722pt" height="36pt"
 viewBox="0.00 0.00 722.00 36.00" xmlns="http://www.w3.org/2000/svg" xmlns:xlink="http://www.w3.org/1999/xlink">
<g id="graph0" class="graph" transform="scale(1 1) rotate(0) translate(4 32)">
<title>com.github.aptd.simulation.elements.passenger.CPassenger.CGenerator.generate</title>
<!-- Node2 -->
<g id="node1" class="node"><title>Node2</title>
<polygon fill="#bfbfbf" stroke="black" points="0,-0 0,-28 214,-28 214,-0 0,-0"/>
<text text-anchor="start" x="8" y="-16.8" font-family="Helvetica,sans-Serif" font-size="9.00">com.github.aptd.simulation.elements.passenger.</text>
<text text-anchor="middle" x="107" y="-6.8" font-family="Helvetica,sans-Serif" font-size="9.00">CPassenger.CGenerator.generate</text>
</g>
<!-- Node3 -->
<g id="node2" class="node"><title>Node3</title>
<g id="a_node2"><a xlink:href="../../d7/da9/classcom_1_1github_1_1aptd_1_1simulation_1_1elements_1_1passenger_1_1CPassenger.htm#a441ee6a32190d36d561ca6fc4e6fe736" target="_top" xlink:title="ctor ">
<polygon fill="none" stroke="black" points="250,-0 250,-28 464,-28 464,-0 250,-0"/>
<text text-anchor="start" x="258" y="-16.8" font-family="Helvetica,sans-Serif" font-size="9.00">com.github.aptd.simulation.elements.passenger.</text>
<text text-anchor="middle" x="357" y="-6.8" font-family="Helvetica,sans-Serif" font-size="9.00">CPassenger.CPassenger</text>
</a>
</g>
</g>
<!-- Node2&#45;&gt;Node3 -->
<g id="edge1" class="edge"><title>Node2&#45;&gt;Node3</title>
<path fill="none" stroke="midnightblue" d="M214.254,-14C222.758,-14 231.376,-14 239.943,-14"/>
<polygon fill="midnightblue" stroke="midnightblue" points="239.967,-17.5001 249.967,-14 239.967,-10.5001 239.967,-17.5001"/>
</g>
<!-- Node4 -->
<g id="node3" class="node"><title>Node4</title>
<g id="a_node3"><a xlink:href="../../d7/da9/classcom_1_1github_1_1aptd_1_1simulation_1_1elements_1_1passenger_1_1CPassenger.htm#aea2564bcacbcadce7a2cc79456cc949b" target="_top" xlink:title="com.github.aptd.simulation.elements.passenger.\lCPassenger.determinenextstatechange">
<polygon fill="none" stroke="black" points="500,-0 500,-28 714,-28 714,-0 500,-0"/>
<text text-anchor="start" x="508" y="-16.8" font-family="Helvetica,sans-Serif" font-size="9.00">com.github.aptd.simulation.elements.passenger.</text>
<text text-anchor="middle" x="607" y="-6.8" font-family="Helvetica,sans-Serif" font-size="9.00">CPassenger.determinenextstatechange</text>
</a>
</g>
</g>
<!-- Node3&#45;&gt;Node4 -->
<g id="edge2" class="edge"><title>Node3&#45;&gt;Node4</title>
<path fill="none" stroke="midnightblue" d="M464.254,-14C472.758,-14 481.376,-14 489.943,-14"/>
<polygon fill="midnightblue" stroke="midnightblue" points="489.967,-17.5001 499.967,-14 489.967,-10.5001 489.967,-17.5001"/>
</g>
</g>
</svg>
