<?xml version="1.0" encoding="UTF-8" standalone="no"?>
<!DOCTYPE svg PUBLIC "-//W3C//DTD SVG 1.1//EN"
 "http://www.w3.org/Graphics/SVG/1.1/DTD/svg11.dtd">
<!-- Generated by graphviz version 2.36.0 (20140111.2315)
 -->
<!-- Title: com.github.aptd.simulation.elements.graph.eventactivitynetwork.INode Pages: 1 -->
<svg width="286pt" height="186pt"
 viewBox="0.00 0.00 286.00 186.00" xmlns="http://www.w3.org/2000/svg" xmlns:xlink="http://www.w3.org/1999/xlink">
<g id="graph0" class="graph" transform="scale(1 1) rotate(0) translate(4 182)">
<title>com.github.aptd.simulation.elements.graph.eventactivitynetwork.INode</title>
<!-- Node3 -->
<g id="node1" class="node"><title>Node3</title>
<polygon fill="#bfbfbf" stroke="black" points="-0.5,-1 -0.5,-65 278.5,-65 278.5,-1 -0.5,-1"/>
<text text-anchor="start" x="7.5" y="-53.8" font-family="Helvetica,sans-Serif" font-size="9.00">com.github.aptd.simulation.elements.graph.eventactivitynetwork.</text>
<text text-anchor="middle" x="139" y="-43.8" font-family="Helvetica,sans-Serif" font-size="9.00">INode</text>
<polyline fill="none" stroke="black" points="-0.5,-37 278.5,-37 "/>
<text text-anchor="middle" x="139" y="-25.8" font-family="Helvetica,sans-Serif" font-size="9.00"> </text>
<polyline fill="none" stroke="black" points="-0.5,-19 278.5,-19 "/>
<text text-anchor="start" x="7.5" y="-7.8" font-family="Helvetica,sans-Serif" font-size="9.00">+ station()</text>
</g>
<!-- Node4 -->
<g id="node2" class="node"><title>Node4</title>
<g id="a_node2"><a xlink:href="../../de/d20/interfacecom_1_1github_1_1aptd_1_1simulation_1_1elements_1_1graph_1_1IVertex.htm" target="_top" xlink:title="interface of graph nodes ">
<polygon fill="none" stroke="black" points="80,-103 80,-177 198,-177 198,-103 80,-103"/>
<text text-anchor="start" x="88" y="-165.8" font-family="Helvetica,sans-Serif" font-size="9.00">com::github::aptd::</text>
<text text-anchor="start" x="88" y="-155.8" font-family="Helvetica,sans-Serif" font-size="9.00">simulation::elements</text>
<text text-anchor="middle" x="139" y="-145.8" font-family="Helvetica,sans-Serif" font-size="9.00">::graph::IVertex&lt; INode &gt;</text>
<polyline fill="none" stroke="black" points="80,-139 198,-139 "/>
<text text-anchor="middle" x="139" y="-127.8" font-family="Helvetica,sans-Serif" font-size="9.00"> </text>
<polyline fill="none" stroke="black" points="80,-121 198,-121 "/>
<text text-anchor="middle" x="139" y="-109.8" font-family="Helvetica,sans-Serif" font-size="9.00"> </text>
</a>
</g>
</g>
<!-- Node4&#45;&gt;Node3 -->
<g id="edge1" class="edge"><title>Node4&#45;&gt;Node3</title>
<path fill="none" stroke="midnightblue" d="M139,-92.6077C139,-83.3716 139,-73.8798 139,-65.2968"/>
<polygon fill="none" stroke="midnightblue" points="135.5,-92.8649 139,-102.865 142.5,-92.865 135.5,-92.8649"/>
</g>
</g>
</svg>
