<?xml version="1.0" encoding="UTF-8" standalone="no"?>
<!DOCTYPE svg PUBLIC "-//W3C//DTD SVG 1.1//EN"
 "http://www.w3.org/Graphics/SVG/1.1/DTD/svg11.dtd">
<!-- Generated by graphviz version 2.36.0 (20140111.2315)
 -->
<!-- Title: com.github.aptd.simulation.elements.train.CTrain Pages: 1 -->
<svg width="655pt" height="1928pt"
 viewBox="0.00 0.00 655.00 1928.00" xmlns="http://www.w3.org/2000/svg" xmlns:xlink="http://www.w3.org/1999/xlink">
<g id="graph0" class="graph" transform="scale(1 1) rotate(0) translate(4 1924)">
<title>com.github.aptd.simulation.elements.train.CTrain</title>
<!-- Node10 -->
<g id="node1" class="node"><title>Node10</title>
<polygon fill="#bfbfbf" stroke="black" points="309,-1 309,-245 497,-245 497,-1 309,-1"/>
<text text-anchor="start" x="317" y="-233.8" font-family="Helvetica,sans-Serif" font-size="9.00">com.github.aptd.simulation.elements.train.</text>
<text text-anchor="middle" x="403" y="-223.8" font-family="Helvetica,sans-Serif" font-size="9.00">CTrain</text>
<polyline fill="none" stroke="black" points="309,-217 497,-217 "/>
<text text-anchor="start" x="317" y="-205.8" font-family="Helvetica,sans-Serif" font-size="9.00">&#45; m_doorsclosedlocked</text>
<text text-anchor="start" x="317" y="-195.8" font-family="Helvetica,sans-Serif" font-size="9.00">&#45; m_doorsnotclosedlocked</text>
<text text-anchor="start" x="317" y="-185.8" font-family="Helvetica,sans-Serif" font-size="9.00">&#45; m_passengers</text>
<text text-anchor="start" x="317" y="-175.8" font-family="Helvetica,sans-Serif" font-size="9.00">&#45; m_positionontrack</text>
<text text-anchor="start" x="317" y="-165.8" font-family="Helvetica,sans-Serif" font-size="9.00">&#45; m_timetable</text>
<text text-anchor="start" x="317" y="-155.8" font-family="Helvetica,sans-Serif" font-size="9.00">&#45; m_ttindex</text>
<text text-anchor="start" x="317" y="-145.8" font-family="Helvetica,sans-Serif" font-size="9.00">&#45; m_wagon</text>
<text text-anchor="start" x="317" y="-135.8" font-family="Helvetica,sans-Serif" font-size="9.00">&#45; DRIVING_SPEED</text>
<text text-anchor="start" x="317" y="-125.8" font-family="Helvetica,sans-Serif" font-size="9.00">&#45; FUNCTOR</text>
<text text-anchor="start" x="317" y="-115.8" font-family="Helvetica,sans-Serif" font-size="9.00">&#45; serialVersionUID</text>
<polyline fill="none" stroke="black" points="309,-109 497,-109 "/>
<text text-anchor="start" x="317" y="-97.8" font-family="Helvetica,sans-Serif" font-size="9.00">+ addwagon()</text>
<text text-anchor="start" x="317" y="-87.8" font-family="Helvetica,sans-Serif" font-size="9.00">+ removewagon()</text>
<text text-anchor="start" x="317" y="-77.8" font-family="Helvetica,sans-Serif" font-size="9.00">+ wagon()</text>
<text text-anchor="start" x="317" y="-67.8" font-family="Helvetica,sans-Serif" font-size="9.00"># determinenextstatechange()</text>
<text text-anchor="start" x="317" y="-57.8" font-family="Helvetica,sans-Serif" font-size="9.00"># individualliteral()</text>
<text text-anchor="start" x="317" y="-47.8" font-family="Helvetica,sans-Serif" font-size="9.00"># updatecontinuous()</text>
<text text-anchor="start" x="317" y="-37.8" font-family="Helvetica,sans-Serif" font-size="9.00"># updatestate()</text>
<text text-anchor="start" x="317" y="-27.8" font-family="Helvetica,sans-Serif" font-size="9.00"># writeState()</text>
<text text-anchor="start" x="317" y="-17.8" font-family="Helvetica,sans-Serif" font-size="9.00">&#45; CTrain()</text>
<text text-anchor="start" x="317" y="-7.8" font-family="Helvetica,sans-Serif" font-size="9.00">&#45; debugPrintState()</text>
</g>
<!-- Node11 -->
<g id="node2" class="node"><title>Node11</title>
<g id="a_node2"><a xlink:href="../../d8/d16/classcom_1_1github_1_1aptd_1_1simulation_1_1elements_1_1IStatefulElement.htm" target="_top" xlink:title="stateful base element with internal transitions and output queueing ">
<polygon fill="none" stroke="black" points="162,-293 162,-527 304,-527 304,-293 162,-293"/>
<text text-anchor="start" x="170" y="-515.8" font-family="Helvetica,sans-Serif" font-size="9.00">com::github::aptd::</text>
<text text-anchor="start" x="170" y="-505.8" font-family="Helvetica,sans-Serif" font-size="9.00">simulation::elements</text>
<text text-anchor="middle" x="233" y="-495.8" font-family="Helvetica,sans-Serif" font-size="9.00">::IStatefulElement&lt; ITrain&lt;?&gt; &gt;</text>
<polyline fill="none" stroke="black" points="162,-489 304,-489 "/>
<text text-anchor="start" x="170" y="-477.8" font-family="Helvetica,sans-Serif" font-size="9.00"># m_lastcontinuousupdate</text>
<text text-anchor="start" x="170" y="-467.8" font-family="Helvetica,sans-Serif" font-size="9.00"># m_laststatechange</text>
<text text-anchor="start" x="170" y="-457.8" font-family="Helvetica,sans-Serif" font-size="9.00"># m_nextstatechange</text>
<text text-anchor="start" x="170" y="-447.8" font-family="Helvetica,sans-Serif" font-size="9.00">&#45; m_factory</text>
<text text-anchor="start" x="170" y="-437.8" font-family="Helvetica,sans-Serif" font-size="9.00">&#45; m_output</text>
<text text-anchor="start" x="170" y="-427.8" font-family="Helvetica,sans-Serif" font-size="9.00">&#45; serialVersionUID</text>
<polyline fill="none" stroke="black" points="162,-421 304,-421 "/>
<text text-anchor="start" x="170" y="-409.8" font-family="Helvetica,sans-Serif" font-size="9.00">+ nextstatechange()</text>
<text text-anchor="start" x="170" y="-399.8" font-family="Helvetica,sans-Serif" font-size="9.00">+ output()</text>
<text text-anchor="start" x="170" y="-389.8" font-family="Helvetica,sans-Serif" font-size="9.00">+ getDefaultAsl()</text>
<text text-anchor="start" x="170" y="-379.8" font-family="Helvetica,sans-Serif" font-size="9.00"># IStatefulElement()</text>
<text text-anchor="start" x="170" y="-369.8" font-family="Helvetica,sans-Serif" font-size="9.00"># continuousupdate()</text>
<text text-anchor="start" x="170" y="-359.8" font-family="Helvetica,sans-Serif" font-size="9.00"># determinenextstatechange()</text>
<text text-anchor="start" x="170" y="-349.8" font-family="Helvetica,sans-Serif" font-size="9.00"># flushOutput()</text>
<text text-anchor="start" x="170" y="-339.8" font-family="Helvetica,sans-Serif" font-size="9.00"># output()</text>
<text text-anchor="start" x="170" y="-329.8" font-family="Helvetica,sans-Serif" font-size="9.00"># transition()</text>
<text text-anchor="start" x="170" y="-319.8" font-family="Helvetica,sans-Serif" font-size="9.00"># updatecontinuous()</text>
<text text-anchor="start" x="170" y="-309.8" font-family="Helvetica,sans-Serif" font-size="9.00"># updatestate()</text>
<text text-anchor="start" x="170" y="-299.8" font-family="Helvetica,sans-Serif" font-size="9.00"># writeState()</text>
</a>
</g>
</g>
<!-- Node11&#45;&gt;Node10 -->
<g id="edge1" class="edge"><title>Node11&#45;&gt;Node10</title>
<path fill="none" stroke="midnightblue" d="M307.683,-283.797C315.358,-270.93 323.147,-257.872 330.794,-245.051"/>
<polygon fill="none" stroke="midnightblue" points="304.508,-282.287 302.391,-292.669 310.519,-285.873 304.508,-282.287"/>
</g>
<!-- Node12 -->
<g id="node3" class="node"><title>Node12</title>
<g id="a_node3"><a xlink:href="../../d6/df3/classcom_1_1github_1_1aptd_1_1simulation_1_1elements_1_1IBaseElement.htm" target="_top" xlink:title="{com.github.aptd.simulation.elements.\lIBaseElement\&lt; N \&gt;\n|# m_id\l# m_input\l# m_nextactivation\l# m_time\l&#45; m_environment\l&#45; m_external\l&#45; m_functor\l&#45; m_timezone\l&#45; serialVersionUID\l|+ call()\l+ environment()\l+ equals()\l+ hashCode()\l+ id()\l+ imminent()\l+ input()\l+ literal()\l+ literal()\l+ nextactivation()\l+ output()\l+ toString()\l# IBaseElement()\l# individualliteral()\l&#45; currentTime()\l&#45; getNextActivation()\l&#45; maxTime()\l&#45; setNextActivation()\l}">
<polygon fill="none" stroke="black" points="131,-567 131,-881 299,-881 299,-567 131,-567"/>
<text text-anchor="start" x="139" y="-869.8" font-family="Helvetica,sans-Serif" font-size="9.00">com.github.aptd.simulation.elements.</text>
<text text-anchor="middle" x="215" y="-859.8" font-family="Helvetica,sans-Serif" font-size="9.00">IBaseElement&lt; N &gt;</text>
<polyline fill="none" stroke="black" points="131,-853 299,-853 "/>
<text text-anchor="start" x="139" y="-841.8" font-family="Helvetica,sans-Serif" font-size="9.00"># m_id</text>
<text text-anchor="start" x="139" y="-831.8" font-family="Helvetica,sans-Serif" font-size="9.00"># m_input</text>
<text text-anchor="start" x="139" y="-821.8" font-family="Helvetica,sans-Serif" font-size="9.00"># m_nextactivation</text>
<text text-anchor="start" x="139" y="-811.8" font-family="Helvetica,sans-Serif" font-size="9.00"># m_time</text>
<text text-anchor="start" x="139" y="-801.8" font-family="Helvetica,sans-Serif" font-size="9.00">&#45; m_environment</text>
<text text-anchor="start" x="139" y="-791.8" font-family="Helvetica,sans-Serif" font-size="9.00">&#45; m_external</text>
<text text-anchor="start" x="139" y="-781.8" font-family="Helvetica,sans-Serif" font-size="9.00">&#45; m_functor</text>
<text text-anchor="start" x="139" y="-771.8" font-family="Helvetica,sans-Serif" font-size="9.00">&#45; m_timezone</text>
<text text-anchor="start" x="139" y="-761.8" font-family="Helvetica,sans-Serif" font-size="9.00">&#45; serialVersionUID</text>
<polyline fill="none" stroke="black" points="131,-755 299,-755 "/>
<text text-anchor="start" x="139" y="-743.8" font-family="Helvetica,sans-Serif" font-size="9.00">+ call()</text>
<text text-anchor="start" x="139" y="-733.8" font-family="Helvetica,sans-Serif" font-size="9.00">+ environment()</text>
<text text-anchor="start" x="139" y="-723.8" font-family="Helvetica,sans-Serif" font-size="9.00">+ equals()</text>
<text text-anchor="start" x="139" y="-713.8" font-family="Helvetica,sans-Serif" font-size="9.00">+ hashCode()</text>
<text text-anchor="start" x="139" y="-703.8" font-family="Helvetica,sans-Serif" font-size="9.00">+ id()</text>
<text text-anchor="start" x="139" y="-693.8" font-family="Helvetica,sans-Serif" font-size="9.00">+ imminent()</text>
<text text-anchor="start" x="139" y="-683.8" font-family="Helvetica,sans-Serif" font-size="9.00">+ input()</text>
<text text-anchor="start" x="139" y="-673.8" font-family="Helvetica,sans-Serif" font-size="9.00">+ literal()</text>
<text text-anchor="start" x="139" y="-663.8" font-family="Helvetica,sans-Serif" font-size="9.00">+ literal()</text>
<text text-anchor="start" x="139" y="-653.8" font-family="Helvetica,sans-Serif" font-size="9.00">+ nextactivation()</text>
<text text-anchor="start" x="139" y="-643.8" font-family="Helvetica,sans-Serif" font-size="9.00">+ output()</text>
<text text-anchor="start" x="139" y="-633.8" font-family="Helvetica,sans-Serif" font-size="9.00">+ toString()</text>
<text text-anchor="start" x="139" y="-623.8" font-family="Helvetica,sans-Serif" font-size="9.00"># IBaseElement()</text>
<text text-anchor="start" x="139" y="-613.8" font-family="Helvetica,sans-Serif" font-size="9.00"># individualliteral()</text>
<text text-anchor="start" x="139" y="-603.8" font-family="Helvetica,sans-Serif" font-size="9.00">&#45; currentTime()</text>
<text text-anchor="start" x="139" y="-593.8" font-family="Helvetica,sans-Serif" font-size="9.00">&#45; getNextActivation()</text>
<text text-anchor="start" x="139" y="-583.8" font-family="Helvetica,sans-Serif" font-size="9.00">&#45; maxTime()</text>
<text text-anchor="start" x="139" y="-573.8" font-family="Helvetica,sans-Serif" font-size="9.00">&#45; setNextActivation()</text>
</a>
</g>
</g>
<!-- Node12&#45;&gt;Node11 -->
<g id="edge2" class="edge"><title>Node12&#45;&gt;Node11</title>
<path fill="none" stroke="midnightblue" d="M224.616,-556.319C225.181,-546.522 225.743,-536.781 226.293,-527.253"/>
<polygon fill="none" stroke="midnightblue" points="221.108,-556.358 224.026,-566.543 228.097,-556.761 221.108,-556.358"/>
</g>
<!-- Node13 -->
<g id="node4" class="node"><title>Node13</title>
<g id="a_node4"><a xlink:href="../../d6/df3/classcom_1_1github_1_1aptd_1_1simulation_1_1elements_1_1IBaseElement.htm" target="_top" xlink:title="base simulation element structure ">
<polygon fill="none" stroke="black" points="110,-1005 110,-1309 286,-1309 286,-1005 110,-1005"/>
<text text-anchor="start" x="118" y="-1297.8" font-family="Helvetica,sans-Serif" font-size="9.00">com.github.aptd.simulation.elements.</text>
<text text-anchor="middle" x="198" y="-1287.8" font-family="Helvetica,sans-Serif" font-size="9.00">IBaseElement&lt; N extends IElement&lt;?&gt;</text>
<polyline fill="none" stroke="black" points="110,-1281 286,-1281 "/>
<text text-anchor="start" x="118" y="-1269.8" font-family="Helvetica,sans-Serif" font-size="9.00"># m_id</text>
<text text-anchor="start" x="118" y="-1259.8" font-family="Helvetica,sans-Serif" font-size="9.00"># m_input</text>
<text text-anchor="start" x="118" y="-1249.8" font-family="Helvetica,sans-Serif" font-size="9.00"># m_nextactivation</text>
<text text-anchor="start" x="118" y="-1239.8" font-family="Helvetica,sans-Serif" font-size="9.00">&#45; m_environment</text>
<text text-anchor="start" x="118" y="-1229.8" font-family="Helvetica,sans-Serif" font-size="9.00">&#45; m_external</text>
<text text-anchor="start" x="118" y="-1219.8" font-family="Helvetica,sans-Serif" font-size="9.00">&#45; m_functor</text>
<text text-anchor="start" x="118" y="-1209.8" font-family="Helvetica,sans-Serif" font-size="9.00">&#45; m_timezone</text>
<text text-anchor="start" x="118" y="-1199.8" font-family="Helvetica,sans-Serif" font-size="9.00">&#45; serialVersionUID</text>
<polyline fill="none" stroke="black" points="110,-1193 286,-1193 "/>
<text text-anchor="start" x="118" y="-1181.8" font-family="Helvetica,sans-Serif" font-size="9.00">+ call()</text>
<text text-anchor="start" x="118" y="-1171.8" font-family="Helvetica,sans-Serif" font-size="9.00">+ environment()</text>
<text text-anchor="start" x="118" y="-1161.8" font-family="Helvetica,sans-Serif" font-size="9.00">+ equals()</text>
<text text-anchor="start" x="118" y="-1151.8" font-family="Helvetica,sans-Serif" font-size="9.00">+ hashCode()</text>
<text text-anchor="start" x="118" y="-1141.8" font-family="Helvetica,sans-Serif" font-size="9.00">+ id()</text>
<text text-anchor="start" x="118" y="-1131.8" font-family="Helvetica,sans-Serif" font-size="9.00">+ imminent()</text>
<text text-anchor="start" x="118" y="-1121.8" font-family="Helvetica,sans-Serif" font-size="9.00">+ input()</text>
<text text-anchor="start" x="118" y="-1111.8" font-family="Helvetica,sans-Serif" font-size="9.00">+ literal()</text>
<text text-anchor="start" x="118" y="-1101.8" font-family="Helvetica,sans-Serif" font-size="9.00">+ literal()</text>
<text text-anchor="start" x="118" y="-1091.8" font-family="Helvetica,sans-Serif" font-size="9.00">+ nextactivation()</text>
<text text-anchor="start" x="118" y="-1081.8" font-family="Helvetica,sans-Serif" font-size="9.00">+ output()</text>
<text text-anchor="start" x="118" y="-1071.8" font-family="Helvetica,sans-Serif" font-size="9.00">+ toString()</text>
<text text-anchor="start" x="118" y="-1061.8" font-family="Helvetica,sans-Serif" font-size="9.00"># IBaseElement()</text>
<text text-anchor="start" x="118" y="-1051.8" font-family="Helvetica,sans-Serif" font-size="9.00"># individualliteral()</text>
<text text-anchor="start" x="118" y="-1041.8" font-family="Helvetica,sans-Serif" font-size="9.00">&#45; currentTime()</text>
<text text-anchor="start" x="118" y="-1031.8" font-family="Helvetica,sans-Serif" font-size="9.00">&#45; getNextActivation()</text>
<text text-anchor="start" x="118" y="-1021.8" font-family="Helvetica,sans-Serif" font-size="9.00">&#45; maxTime()</text>
<text text-anchor="start" x="118" y="-1011.8" font-family="Helvetica,sans-Serif" font-size="9.00">&#45; setNextActivation()</text>
</a>
</g>
</g>
<!-- Node13&#45;&gt;Node12 -->
<g id="edge3" class="edge"><title>Node13&#45;&gt;Node12</title>
<path fill="none" stroke="orange" d="M194.112,-994.795C194.072,-991.84 194.034,-988.906 194,-986 193.55,-947.78 191.719,-938.154 194,-900 194.365,-893.891 194.802,-887.668 195.296,-881.387"/>
<polygon fill="orange" stroke="orange" points="190.614,-994.968 194.261,-1004.92 197.613,-994.865 190.614,-994.968"/>
<text text-anchor="middle" x="206.5" y="-940.8" font-family="Helvetica,sans-Serif" font-size="9.00"> &lt; N &gt;</text>
</g>
<!-- Node14 -->
<g id="node5" class="node"><title>Node14</title>
<g id="a_node5"><a xlink:href="../../dd/dd7/interfacecom_1_1github_1_1aptd_1_1simulation_1_1elements_1_1IElement.htm" target="_top" xlink:title="{com.github.aptd.simulation.elements.\lIElement\&lt; N \&gt;\n||+ environment()\l+ id()\l+ imminent()\l+ input()\l+ nextactivation()\l+ output()\l}">
<polygon fill="none" stroke="black" points="0,-1423 0,-1537 168,-1537 168,-1423 0,-1423"/>
<text text-anchor="start" x="8" y="-1525.8" font-family="Helvetica,sans-Serif" font-size="9.00">com.github.aptd.simulation.elements.</text>
<text text-anchor="middle" x="84" y="-1515.8" font-family="Helvetica,sans-Serif" font-size="9.00">IElement&lt; N &gt;</text>
<polyline fill="none" stroke="black" points="0,-1509 168,-1509 "/>
<text text-anchor="middle" x="84" y="-1497.8" font-family="Helvetica,sans-Serif" font-size="9.00"> </text>
<polyline fill="none" stroke="black" points="0,-1491 168,-1491 "/>
<text text-anchor="start" x="8" y="-1479.8" font-family="Helvetica,sans-Serif" font-size="9.00">+ environment()</text>
<text text-anchor="start" x="8" y="-1469.8" font-family="Helvetica,sans-Serif" font-size="9.00">+ id()</text>
<text text-anchor="start" x="8" y="-1459.8" font-family="Helvetica,sans-Serif" font-size="9.00">+ imminent()</text>
<text text-anchor="start" x="8" y="-1449.8" font-family="Helvetica,sans-Serif" font-size="9.00">+ input()</text>
<text text-anchor="start" x="8" y="-1439.8" font-family="Helvetica,sans-Serif" font-size="9.00">+ nextactivation()</text>
<text text-anchor="start" x="8" y="-1429.8" font-family="Helvetica,sans-Serif" font-size="9.00">+ output()</text>
</a>
</g>
</g>
<!-- Node14&#45;&gt;Node13 -->
<g id="edge4" class="edge"><title>Node14&#45;&gt;Node13</title>
<path fill="none" stroke="midnightblue" d="M107.384,-1413.16C118.121,-1382.92 131.336,-1345.71 144.32,-1309.15"/>
<polygon fill="none" stroke="midnightblue" points="104.036,-1412.12 103.988,-1422.72 110.633,-1414.47 104.036,-1412.12"/>
</g>
<!-- Node15 -->
<g id="node6" class="node"><title>Node15</title>
<g id="a_node6"><a xlink:href="../../dd/dd7/interfacecom_1_1github_1_1aptd_1_1simulation_1_1elements_1_1IElement.htm" target="_top" xlink:title="any object interface ">
<polygon fill="none" stroke="black" points="16,-1686 16,-1800 184,-1800 184,-1686 16,-1686"/>
<text text-anchor="start" x="24" y="-1788.8" font-family="Helvetica,sans-Serif" font-size="9.00">com.github.aptd.simulation.elements.</text>
<text text-anchor="middle" x="100" y="-1778.8" font-family="Helvetica,sans-Serif" font-size="9.00">IElement&lt; T extends IAgent&lt;?&gt;</text>
<polyline fill="none" stroke="black" points="16,-1772 184,-1772 "/>
<text text-anchor="middle" x="100" y="-1760.8" font-family="Helvetica,sans-Serif" font-size="9.00"> </text>
<polyline fill="none" stroke="black" points="16,-1754 184,-1754 "/>
<text text-anchor="start" x="24" y="-1742.8" font-family="Helvetica,sans-Serif" font-size="9.00">+ environment()</text>
<text text-anchor="start" x="24" y="-1732.8" font-family="Helvetica,sans-Serif" font-size="9.00">+ id()</text>
<text text-anchor="start" x="24" y="-1722.8" font-family="Helvetica,sans-Serif" font-size="9.00">+ imminent()</text>
<text text-anchor="start" x="24" y="-1712.8" font-family="Helvetica,sans-Serif" font-size="9.00">+ input()</text>
<text text-anchor="start" x="24" y="-1702.8" font-family="Helvetica,sans-Serif" font-size="9.00">+ nextactivation()</text>
<text text-anchor="start" x="24" y="-1692.8" font-family="Helvetica,sans-Serif" font-size="9.00">+ output()</text>
</a>
</g>
</g>
<!-- Node15&#45;&gt;Node14 -->
<g id="edge5" class="edge"><title>Node15&#45;&gt;Node14</title>
<path fill="none" stroke="orange" d="M95.9325,-1675.65C93.3097,-1632.86 89.9363,-1577.84 87.4459,-1537.21"/>
<polygon fill="orange" stroke="orange" points="92.4425,-1675.92 96.5479,-1685.69 99.4294,-1675.49 92.4425,-1675.92"/>
<text text-anchor="middle" x="107.5" y="-1606.8" font-family="Helvetica,sans-Serif" font-size="9.00"> &lt; N &gt;</text>
</g>
<!-- Node16 -->
<g id="node7" class="node"><title>Node16</title>
<g id="a_node7"><a xlink:href="../../d4/d0d/interfacecom_1_1github_1_1aptd_1_1simulation_1_1elements_1_1IPerceiveable.htm" target="_top" xlink:title="any object which be perceived by an agent ">
<polygon fill="none" stroke="black" points="190,-1845 190,-1919 358,-1919 358,-1845 190,-1845"/>
<text text-anchor="start" x="198" y="-1907.8" font-family="Helvetica,sans-Serif" font-size="9.00">com.github.aptd.simulation.elements.</text>
<text text-anchor="middle" x="274" y="-1897.8" font-family="Helvetica,sans-Serif" font-size="9.00">IPerceiveable</text>
<polyline fill="none" stroke="black" points="190,-1891 358,-1891 "/>
<text text-anchor="middle" x="274" y="-1879.8" font-family="Helvetica,sans-Serif" font-size="9.00"> </text>
<polyline fill="none" stroke="black" points="190,-1873 358,-1873 "/>
<text text-anchor="start" x="198" y="-1861.8" font-family="Helvetica,sans-Serif" font-size="9.00">+ literal()</text>
<text text-anchor="start" x="198" y="-1851.8" font-family="Helvetica,sans-Serif" font-size="9.00">+ literal()</text>
</a>
</g>
</g>
<!-- Node16&#45;&gt;Node15 -->
<g id="edge6" class="edge"><title>Node16&#45;&gt;Node15</title>
<path fill="none" stroke="midnightblue" d="M219.945,-1838.44C204.564,-1826.33 187.572,-1812.95 171.333,-1800.16"/>
<polygon fill="none" stroke="midnightblue" points="217.806,-1841.21 227.828,-1844.65 222.136,-1835.71 217.806,-1841.21"/>
</g>
<!-- Node17 -->
<g id="node8" class="node"><title>Node17</title>
<g id="a_node8"><a xlink:href="../../db/d65/interfacecom_1_1github_1_1aptd_1_1simulation_1_1core_1_1time_1_1ITime.htm" target="_top" xlink:title="time interface ">
<polygon fill="none" stroke="black" points="150,-1557 150,-1661 318,-1661 318,-1557 150,-1557"/>
<text text-anchor="start" x="158" y="-1649.8" font-family="Helvetica,sans-Serif" font-size="9.00">com.github.aptd.simulation.core.time.</text>
<text text-anchor="middle" x="234" y="-1639.8" font-family="Helvetica,sans-Serif" font-size="9.00">ITime</text>
<polyline fill="none" stroke="black" points="150,-1633 318,-1633 "/>
<text text-anchor="middle" x="234" y="-1621.8" font-family="Helvetica,sans-Serif" font-size="9.00"> </text>
<polyline fill="none" stroke="black" points="150,-1615 318,-1615 "/>
<text text-anchor="start" x="158" y="-1603.8" font-family="Helvetica,sans-Serif" font-size="9.00">+ active()</text>
<text text-anchor="start" x="158" y="-1593.8" font-family="Helvetica,sans-Serif" font-size="9.00">+ addagent()</text>
<text text-anchor="start" x="158" y="-1583.8" font-family="Helvetica,sans-Serif" font-size="9.00">+ current()</text>
<text text-anchor="start" x="158" y="-1573.8" font-family="Helvetica,sans-Serif" font-size="9.00">+ raw()</text>
<text text-anchor="start" x="158" y="-1563.8" font-family="Helvetica,sans-Serif" font-size="9.00">+ removeagent()</text>
</a>
</g>
</g>
<!-- Node16&#45;&gt;Node17 -->
<g id="edge8" class="edge"><title>Node16&#45;&gt;Node17</title>
<path fill="none" stroke="midnightblue" d="M267.149,-1834.58C260.037,-1786.4 248.943,-1711.24 241.575,-1661.32"/>
<polygon fill="none" stroke="midnightblue" points="263.724,-1835.35 268.647,-1844.73 270.649,-1834.33 263.724,-1835.35"/>
</g>
<!-- Node20 -->
<g id="node11" class="node"><title>Node20</title>
<g id="a_node11"><a xlink:href="../../dd/dd7/interfacecom_1_1github_1_1aptd_1_1simulation_1_1elements_1_1IElement.htm" target="_top" xlink:title="any object interface ">
<polygon fill="none" stroke="black" points="288.5,-1681 288.5,-1805 389.5,-1805 389.5,-1681 288.5,-1681"/>
<text text-anchor="start" x="296.5" y="-1793.8" font-family="Helvetica,sans-Serif" font-size="9.00">com::github::aptd::</text>
<text text-anchor="start" x="296.5" y="-1783.8" font-family="Helvetica,sans-Serif" font-size="9.00">simulation::elements</text>
<text text-anchor="middle" x="339" y="-1773.8" font-family="Helvetica,sans-Serif" font-size="9.00">::IElement&lt; T &gt;</text>
<polyline fill="none" stroke="black" points="288.5,-1767 389.5,-1767 "/>
<text text-anchor="middle" x="339" y="-1755.8" font-family="Helvetica,sans-Serif" font-size="9.00"> </text>
<polyline fill="none" stroke="black" points="288.5,-1749 389.5,-1749 "/>
<text text-anchor="start" x="296.5" y="-1737.8" font-family="Helvetica,sans-Serif" font-size="9.00">+ environment()</text>
<text text-anchor="start" x="296.5" y="-1727.8" font-family="Helvetica,sans-Serif" font-size="9.00">+ id()</text>
<text text-anchor="start" x="296.5" y="-1717.8" font-family="Helvetica,sans-Serif" font-size="9.00">+ imminent()</text>
<text text-anchor="start" x="296.5" y="-1707.8" font-family="Helvetica,sans-Serif" font-size="9.00">+ input()</text>
<text text-anchor="start" x="296.5" y="-1697.8" font-family="Helvetica,sans-Serif" font-size="9.00">+ nextactivation()</text>
<text text-anchor="start" x="296.5" y="-1687.8" font-family="Helvetica,sans-Serif" font-size="9.00">+ output()</text>
</a>
</g>
</g>
<!-- Node16&#45;&gt;Node20 -->
<g id="edge12" class="edge"><title>Node16&#45;&gt;Node20</title>
<path fill="none" stroke="midnightblue" d="M295.56,-1835.56C300.179,-1825.82 305.131,-1815.38 309.979,-1805.17"/>
<polygon fill="none" stroke="midnightblue" points="292.373,-1834.11 291.248,-1844.65 298.697,-1837.11 292.373,-1834.11"/>
</g>
<!-- Node22 -->
<g id="node13" class="node"><title>Node22</title>
<g id="a_node13"><a xlink:href="../../d8/dc1/interfacecom_1_1github_1_1aptd_1_1simulation_1_1elements_1_1common_1_1IGPS.htm" target="_top" xlink:title="GPS matrix wrapper interface. ">
<polygon fill="none" stroke="black" points="380.5,-1329 380.5,-1403 607.5,-1403 607.5,-1329 380.5,-1329"/>
<text text-anchor="middle" x="494" y="-1391.8" font-family="Helvetica,sans-Serif" font-size="9.00">com.github.aptd.simulation.elements.common.IGPS</text>
<polyline fill="none" stroke="black" points="380.5,-1385 607.5,-1385 "/>
<text text-anchor="middle" x="494" y="-1373.8" font-family="Helvetica,sans-Serif" font-size="9.00"> </text>
<polyline fill="none" stroke="black" points="380.5,-1367 607.5,-1367 "/>
<text text-anchor="start" x="388.5" y="-1355.8" font-family="Helvetica,sans-Serif" font-size="9.00">+ latitude()</text>
<text text-anchor="start" x="388.5" y="-1345.8" font-family="Helvetica,sans-Serif" font-size="9.00">+ longitude()</text>
<text text-anchor="start" x="388.5" y="-1335.8" font-family="Helvetica,sans-Serif" font-size="9.00">+ matrix()</text>
</a>
</g>
</g>
<!-- Node16&#45;&gt;Node22 -->
<g id="edge15" class="edge"><title>Node16&#45;&gt;Node22</title>
<path fill="none" stroke="midnightblue" d="M363.464,-1839.33C376.594,-1829.95 388.777,-1818.87 398,-1806 488.657,-1679.49 496.318,-1483.55 495.283,-1403.22"/>
<polygon fill="none" stroke="midnightblue" points="361.489,-1836.44 355.184,-1844.96 365.423,-1842.23 361.489,-1836.44"/>
</g>
<!-- Node17&#45;&gt;Node13 -->
<g id="edge7" class="edge"><title>Node17&#45;&gt;Node13</title>
<path fill="none" stroke="#404040" d="M217.022,-1556.74C215.425,-1550.48 214.024,-1544.13 213,-1538 201.229,-1467.51 196.73,-1388.68 195.459,-1321.18"/>
<polygon fill="none" stroke="#404040" points="195.459,-1321.15 191.362,-1315.21 195.264,-1309.15 199.361,-1315.08 195.459,-1321.15"/>
<text text-anchor="middle" x="232" y="-1477.8" font-family="Helvetica,sans-Serif" font-size="9.00"> #m_time</text>
</g>
<!-- Node18 -->
<g id="node9" class="node"><title>Node18</title>
<g id="a_node9"><a xlink:href="../../d4/d3c/interfacecom_1_1github_1_1aptd_1_1simulation_1_1elements_1_1train_1_1ITrain.htm" target="_top" xlink:title="{com.github.aptd.simulation.elements.train.\lITrain\&lt; ITrain\&lt;?\&gt; \&gt;\n||+ addwagon()\l+ removewagon()\l+ wagon()\l}">
<polygon fill="none" stroke="black" points="228,-901 228,-985 416,-985 416,-901 228,-901"/>
<text text-anchor="start" x="236" y="-973.8" font-family="Helvetica,sans-Serif" font-size="9.00">com.github.aptd.simulation.elements.train.</text>
<text text-anchor="middle" x="322" y="-963.8" font-family="Helvetica,sans-Serif" font-size="9.00">ITrain&lt; ITrain&lt;?&gt; &gt;</text>
<polyline fill="none" stroke="black" points="228,-957 416,-957 "/>
<text text-anchor="middle" x="322" y="-945.8" font-family="Helvetica,sans-Serif" font-size="9.00"> </text>
<polyline fill="none" stroke="black" points="228,-939 416,-939 "/>
<text text-anchor="start" x="236" y="-927.8" font-family="Helvetica,sans-Serif" font-size="9.00">+ addwagon()</text>
<text text-anchor="start" x="236" y="-917.8" font-family="Helvetica,sans-Serif" font-size="9.00">+ removewagon()</text>
<text text-anchor="start" x="236" y="-907.8" font-family="Helvetica,sans-Serif" font-size="9.00">+ wagon()</text>
</a>
</g>
</g>
<!-- Node18&#45;&gt;Node10 -->
<g id="edge9" class="edge"><title>Node18&#45;&gt;Node10</title>
<path fill="none" stroke="midnightblue" d="M327.092,-890.579C339.767,-762.575 373.007,-426.892 391.007,-245.116"/>
<polygon fill="none" stroke="midnightblue" points="323.575,-890.578 326.072,-900.875 330.541,-891.268 323.575,-890.578"/>
</g>
<!-- Node19 -->
<g id="node10" class="node"><title>Node19</title>
<g id="a_node10"><a xlink:href="../../d4/d3c/interfacecom_1_1github_1_1aptd_1_1simulation_1_1elements_1_1train_1_1ITrain.htm" target="_top" xlink:title="interface of train ">
<polygon fill="none" stroke="black" points="260,-1438 260,-1522 448,-1522 448,-1438 260,-1438"/>
<text text-anchor="start" x="268" y="-1510.8" font-family="Helvetica,sans-Serif" font-size="9.00">com.github.aptd.simulation.elements.train.</text>
<text text-anchor="middle" x="354" y="-1500.8" font-family="Helvetica,sans-Serif" font-size="9.00">ITrain&lt; T extends ITrain&lt;?&gt;</text>
<polyline fill="none" stroke="black" points="260,-1494 448,-1494 "/>
<text text-anchor="middle" x="354" y="-1482.8" font-family="Helvetica,sans-Serif" font-size="9.00"> </text>
<polyline fill="none" stroke="black" points="260,-1476 448,-1476 "/>
<text text-anchor="start" x="268" y="-1464.8" font-family="Helvetica,sans-Serif" font-size="9.00">+ addwagon()</text>
<text text-anchor="start" x="268" y="-1454.8" font-family="Helvetica,sans-Serif" font-size="9.00">+ removewagon()</text>
<text text-anchor="start" x="268" y="-1444.8" font-family="Helvetica,sans-Serif" font-size="9.00">+ wagon()</text>
</a>
</g>
</g>
<!-- Node19&#45;&gt;Node18 -->
<g id="edge10" class="edge"><title>Node19&#45;&gt;Node18</title>
<path fill="none" stroke="orange" d="M322.859,-1428.5C319.209,-1420.55 316.058,-1412.23 314,-1404 294.362,-1325.45 310.848,-1082.78 318.556,-985.232"/>
<polygon fill="orange" stroke="orange" points="319.793,-1430.2 327.337,-1437.64 326.079,-1427.12 319.793,-1430.2"/>
<text text-anchor="middle" x="342.5" y="-1363.8" font-family="Helvetica,sans-Serif" font-size="9.00"> &lt; ITrain&lt;?&gt; &gt;</text>
</g>
<!-- Node20&#45;&gt;Node19 -->
<g id="edge11" class="edge"><title>Node20&#45;&gt;Node19</title>
<path fill="none" stroke="midnightblue" d="M343.106,-1670.55C345.843,-1622.94 349.343,-1562.03 351.627,-1522.29"/>
<polygon fill="none" stroke="midnightblue" points="339.596,-1670.62 342.517,-1680.81 346.585,-1671.02 339.596,-1670.62"/>
</g>
<!-- Node21 -->
<g id="node12" class="node"><title>Node21</title>
<g id="a_node12"><a xlink:href="../../de/de7/enumcom_1_1github_1_1aptd_1_1simulation_1_1elements_1_1train_1_1ETrainState.htm" target="_top" xlink:title="enum of qualitative states for train agents ">
<polygon fill="none" stroke="black" points="459,-373 459,-447 647,-447 647,-373 459,-373"/>
<text text-anchor="start" x="467" y="-435.8" font-family="Helvetica,sans-Serif" font-size="9.00">com.github.aptd.simulation.elements.train.</text>
<text text-anchor="middle" x="553" y="-425.8" font-family="Helvetica,sans-Serif" font-size="9.00">ETrainState</text>
<polyline fill="none" stroke="black" points="459,-419 647,-419 "/>
<text text-anchor="start" x="467" y="-407.8" font-family="Helvetica,sans-Serif" font-size="9.00">+ ARRIVED</text>
<text text-anchor="start" x="467" y="-397.8" font-family="Helvetica,sans-Serif" font-size="9.00">+ WAITING_TO_DRIVE</text>
<polyline fill="none" stroke="black" points="459,-391 647,-391 "/>
<text text-anchor="middle" x="553" y="-379.8" font-family="Helvetica,sans-Serif" font-size="9.00"> </text>
</a>
</g>
</g>
<!-- Node21&#45;&gt;Node10 -->
<g id="edge13" class="edge"><title>Node21&#45;&gt;Node10</title>
<path fill="none" stroke="#404040" d="M534.002,-372.905C518.341,-343.148 495.11,-299.009 472.542,-256.129"/>
<polygon fill="none" stroke="#404040" points="472.412,-255.883 466.078,-252.437 466.823,-245.264 473.158,-248.711 472.412,-255.883"/>
<text text-anchor="middle" x="497" y="-266.8" font-family="Helvetica,sans-Serif" font-size="9.00"> &#45;m_state</text>
</g>
<!-- Node22&#45;&gt;Node10 -->
<g id="edge14" class="edge"><title>Node22&#45;&gt;Node10</title>
<path fill="none" stroke="#404040" d="M484.907,-1328.95C467.46,-1256.52 431,-1087.93 431,-944 431,-944 431,-944 431,-409 431,-359.271 426.726,-304.894 421.517,-257.093"/>
<polygon fill="none" stroke="#404040" points="421.508,-257.014 416.866,-251.496 420.174,-245.088 424.817,-250.606 421.508,-257.014"/>
<text text-anchor="middle" x="456.5" y="-721.8" font-family="Helvetica,sans-Serif" font-size="9.00"> &#45;m_position</text>
</g>
</g>
</svg>
