<?xml version="1.0" encoding="UTF-8" standalone="no"?>
<!DOCTYPE svg PUBLIC "-//W3C//DTD SVG 1.1//EN"
 "http://www.w3.org/Graphics/SVG/1.1/DTD/svg11.dtd">
<!-- Generated by graphviz version 2.36.0 (20140111.2315)
 -->
<!-- Title: com.github.aptd.simulation.elements.passenger.CPassengerSource.itinerary Pages: 1 -->
<svg width="722pt" height="36pt"
 viewBox="0.00 0.00 722.00 36.00" xmlns="http://www.w3.org/2000/svg" xmlns:xlink="http://www.w3.org/1999/xlink">
<g id="graph0" class="graph" transform="scale(1 1) rotate(0) translate(4 32)">
<title>com.github.aptd.simulation.elements.passenger.CPassengerSource.itinerary</title>
<!-- Node17 -->
<g id="node1" class="node"><title>Node17</title>
<polygon fill="#bfbfbf" stroke="black" points="0,-0 0,-28 214,-28 214,-0 0,-0"/>
<text text-anchor="start" x="8" y="-16.8" font-family="Helvetica,sans-Serif" font-size="9.00">com.github.aptd.simulation.elements.passenger.</text>
<text text-anchor="middle" x="107" y="-6.8" font-family="Helvetica,sans-Serif" font-size="9.00">CPassengerSource.itinerary</text>
</g>
<!-- Node18 -->
<g id="node2" class="node"><title>Node18</title>
<g id="a_node2"><a xlink:href="../../d3/d24/classcom_1_1github_1_1aptd_1_1simulation_1_1elements_1_1passenger_1_1CPassengerSource.htm#a9b715cf2c3aa560d7903122056f2846c" target="_top" xlink:title="com.github.aptd.simulation.elements.passenger.\lCPassengerSource.generatepassenger">
<polygon fill="none" stroke="black" points="250,-0 250,-28 464,-28 464,-0 250,-0"/>
<text text-anchor="start" x="258" y="-16.8" font-family="Helvetica,sans-Serif" font-size="9.00">com.github.aptd.simulation.elements.passenger.</text>
<text text-anchor="middle" x="357" y="-6.8" font-family="Helvetica,sans-Serif" font-size="9.00">CPassengerSource.generatepassenger</text>
</a>
</g>
</g>
<!-- Node17&#45;&gt;Node18 -->
<g id="edge1" class="edge"><title>Node17&#45;&gt;Node18</title>
<path fill="none" stroke="midnightblue" d="M224.279,-14C232.847,-14 241.465,-14 249.967,-14"/>
<polygon fill="midnightblue" stroke="midnightblue" points="224.254,-10.5001 214.254,-14 224.254,-17.5001 224.254,-10.5001"/>
</g>
<!-- Node19 -->
<g id="node3" class="node"><title>Node19</title>
<g id="a_node3"><a xlink:href="../../d3/d24/classcom_1_1github_1_1aptd_1_1simulation_1_1elements_1_1passenger_1_1CPassengerSource.htm#a0cfcd5b618729985ded35c5f34ff0f2c" target="_top" xlink:title="com.github.aptd.simulation.elements.passenger.\lCPassengerSource.updatestate">
<polygon fill="none" stroke="black" points="500,-0 500,-28 714,-28 714,-0 500,-0"/>
<text text-anchor="start" x="508" y="-16.8" font-family="Helvetica,sans-Serif" font-size="9.00">com.github.aptd.simulation.elements.passenger.</text>
<text text-anchor="middle" x="607" y="-6.8" font-family="Helvetica,sans-Serif" font-size="9.00">CPassengerSource.updatestate</text>
</a>
</g>
</g>
<!-- Node18&#45;&gt;Node19 -->
<g id="edge2" class="edge"><title>Node18&#45;&gt;Node19</title>
<path fill="none" stroke="midnightblue" d="M474.279,-14C482.847,-14 491.465,-14 499.967,-14"/>
<polygon fill="midnightblue" stroke="midnightblue" points="474.254,-10.5001 464.254,-14 474.254,-17.5001 474.254,-10.5001"/>
</g>
</g>
</svg>
