<?xml version="1.0" encoding="UTF-8" standalone="no"?>
<!DOCTYPE svg PUBLIC "-//W3C//DTD SVG 1.1//EN"
 "http://www.w3.org/Graphics/SVG/1.1/DTD/svg11.dtd">
<!-- Generated by graphviz version 2.36.0 (20140111.2315)
 -->
<!-- Title: com.github.aptd.simulation.elements.passenger.CPassengerSource.updatestate Pages: 1 -->
<svg width="722pt" height="130pt"
 viewBox="0.00 0.00 722.00 130.00" xmlns="http://www.w3.org/2000/svg" xmlns:xlink="http://www.w3.org/1999/xlink">
<g id="graph0" class="graph" transform="scale(1 1) rotate(0) translate(4 126)">
<title>com.github.aptd.simulation.elements.passenger.CPassengerSource.updatestate</title>
<!-- Node22 -->
<g id="node1" class="node"><title>Node22</title>
<polygon fill="#bfbfbf" stroke="black" points="0,-70 0,-98 214,-98 214,-70 0,-70"/>
<text text-anchor="start" x="8" y="-86.8" font-family="Helvetica,sans-Serif" font-size="9.00">com.github.aptd.simulation.elements.passenger.</text>
<text text-anchor="middle" x="107" y="-76.8" font-family="Helvetica,sans-Serif" font-size="9.00">CPassengerSource.updatestate</text>
</g>
<!-- Node23 -->
<g id="node2" class="node"><title>Node23</title>
<g id="a_node2"><a xlink:href="../../db/d65/interfacecom_1_1github_1_1aptd_1_1simulation_1_1core_1_1time_1_1ITime.htm#a5b549eba2607f2e3f2cc9800e5164ea1" target="_top" xlink:title="get the current time ">
<polygon fill="none" stroke="black" points="273,-94 273,-122 441,-122 441,-94 273,-94"/>
<text text-anchor="start" x="281" y="-110.8" font-family="Helvetica,sans-Serif" font-size="9.00">com.github.aptd.simulation.core.time.</text>
<text text-anchor="middle" x="357" y="-100.8" font-family="Helvetica,sans-Serif" font-size="9.00">ITime.current</text>
</a>
</g>
</g>
<!-- Node22&#45;&gt;Node23 -->
<g id="edge1" class="edge"><title>Node22&#45;&gt;Node23</title>
<path fill="none" stroke="midnightblue" d="M214.254,-94.2826C230.322,-95.8377 246.797,-97.432 262.568,-98.9582"/>
<polygon fill="midnightblue" stroke="midnightblue" points="262.529,-102.471 272.819,-99.9503 263.203,-95.5032 262.529,-102.471"/>
</g>
<!-- Node24 -->
<g id="node3" class="node"><title>Node24</title>
<g id="a_node3"><a xlink:href="../../d3/d24/classcom_1_1github_1_1aptd_1_1simulation_1_1elements_1_1passenger_1_1CPassengerSource.htm#a9b715cf2c3aa560d7903122056f2846c" target="_top" xlink:title="com.github.aptd.simulation.elements.passenger.\lCPassengerSource.generatepassenger">
<polygon fill="none" stroke="black" points="250,-47 250,-75 464,-75 464,-47 250,-47"/>
<text text-anchor="start" x="258" y="-63.8" font-family="Helvetica,sans-Serif" font-size="9.00">com.github.aptd.simulation.elements.passenger.</text>
<text text-anchor="middle" x="357" y="-53.8" font-family="Helvetica,sans-Serif" font-size="9.00">CPassengerSource.generatepassenger</text>
</a>
</g>
</g>
<!-- Node22&#45;&gt;Node24 -->
<g id="edge2" class="edge"><title>Node22&#45;&gt;Node24</title>
<path fill="none" stroke="midnightblue" d="M214.254,-74.1458C222.758,-73.3571 231.376,-72.5579 239.943,-71.7633"/>
<polygon fill="midnightblue" stroke="midnightblue" points="240.333,-75.2423 249.967,-70.8337 239.687,-68.2722 240.333,-75.2423"/>
</g>
<!-- Node25 -->
<g id="node4" class="node"><title>Node25</title>
<g id="a_node4"><a xlink:href="../../de/d57/interfacecom_1_1github_1_1aptd_1_1simulation_1_1core_1_1experiment_1_1IExperiment.htm#aa8cce580ba42c870597e5623d57685f1" target="_top" xlink:title="com.github.aptd.simulation.core.experiment.\lIExperiment.addAgent">
<polygon fill="none" stroke="black" points="508.5,-94 508.5,-122 705.5,-122 705.5,-94 508.5,-94"/>
<text text-anchor="start" x="516.5" y="-110.8" font-family="Helvetica,sans-Serif" font-size="9.00">com.github.aptd.simulation.core.experiment.</text>
<text text-anchor="middle" x="607" y="-100.8" font-family="Helvetica,sans-Serif" font-size="9.00">IExperiment.addAgent</text>
</a>
</g>
</g>
<!-- Node24&#45;&gt;Node25 -->
<g id="edge3" class="edge"><title>Node24&#45;&gt;Node25</title>
<path fill="none" stroke="midnightblue" d="M432.072,-75.0379C460.289,-80.3853 492.645,-86.5175 521.739,-92.0311"/>
<polygon fill="midnightblue" stroke="midnightblue" points="521.404,-95.53 531.881,-93.9533 522.708,-88.6524 521.404,-95.53"/>
</g>
<!-- Node26 -->
<g id="node5" class="node"><title>Node26</title>
<g id="a_node5"><a xlink:href="../../dd/dd7/interfacecom_1_1github_1_1aptd_1_1simulation_1_1elements_1_1IElement.htm#a447fe1b1460ce755b30e013aea069b77" target="_top" xlink:title="name of the object ">
<polygon fill="none" stroke="black" points="523,-47 523,-75 691,-75 691,-47 523,-47"/>
<text text-anchor="start" x="531" y="-63.8" font-family="Helvetica,sans-Serif" font-size="9.00">com.github.aptd.simulation.elements.</text>
<text text-anchor="middle" x="607" y="-53.8" font-family="Helvetica,sans-Serif" font-size="9.00">IElement.id</text>
</a>
</g>
</g>
<!-- Node24&#45;&gt;Node26 -->
<g id="edge4" class="edge"><title>Node24&#45;&gt;Node26</title>
<path fill="none" stroke="midnightblue" d="M464.254,-61C480.322,-61 496.797,-61 512.568,-61"/>
<polygon fill="midnightblue" stroke="midnightblue" points="512.819,-64.5001 522.819,-61 512.819,-57.5001 512.819,-64.5001"/>
</g>
<!-- Node27 -->
<g id="node6" class="node"><title>Node27</title>
<g id="a_node6"><a xlink:href="../../d3/d24/classcom_1_1github_1_1aptd_1_1simulation_1_1elements_1_1passenger_1_1CPassengerSource.htm#a29453958b80306016aaf1b98bd4817db" target="_top" xlink:title="com.github.aptd.simulation.elements.passenger.\lCPassengerSource.itinerary">
<polygon fill="none" stroke="black" points="500,-0 500,-28 714,-28 714,-0 500,-0"/>
<text text-anchor="start" x="508" y="-16.8" font-family="Helvetica,sans-Serif" font-size="9.00">com.github.aptd.simulation.elements.passenger.</text>
<text text-anchor="middle" x="607" y="-6.8" font-family="Helvetica,sans-Serif" font-size="9.00">CPassengerSource.itinerary</text>
</a>
</g>
</g>
<!-- Node24&#45;&gt;Node27 -->
<g id="edge5" class="edge"><title>Node24&#45;&gt;Node27</title>
<path fill="none" stroke="midnightblue" d="M432.072,-46.9621C460.289,-41.6147 492.645,-35.4825 521.739,-29.9689"/>
<polygon fill="midnightblue" stroke="midnightblue" points="522.708,-33.3476 531.881,-28.0467 521.404,-26.47 522.708,-33.3476"/>
</g>
</g>
</svg>
