<?xml version="1.0" encoding="UTF-8" standalone="no"?>
<!DOCTYPE svg PUBLIC "-//W3C//DTD SVG 1.1//EN"
 "http://www.w3.org/Graphics/SVG/1.1/DTD/svg11.dtd">
<!-- Generated by graphviz version 2.36.0 (20140111.2315)
 -->
<!-- Title: com.github.aptd.simulation.elements.passenger.CPassengerSource.generatepassenger Pages: 1 -->
<svg width="472pt" height="130pt"
 viewBox="0.00 0.00 472.00 130.00" xmlns="http://www.w3.org/2000/svg" xmlns:xlink="http://www.w3.org/1999/xlink">
<g id="graph0" class="graph" transform="scale(1 1) rotate(0) translate(4 126)">
<title>com.github.aptd.simulation.elements.passenger.CPassengerSource.generatepassenger</title>
<!-- Node8 -->
<g id="node1" class="node"><title>Node8</title>
<polygon fill="#bfbfbf" stroke="black" points="0,-47 0,-75 214,-75 214,-47 0,-47"/>
<text text-anchor="start" x="8" y="-63.8" font-family="Helvetica,sans-Serif" font-size="9.00">com.github.aptd.simulation.elements.passenger.</text>
<text text-anchor="middle" x="107" y="-53.8" font-family="Helvetica,sans-Serif" font-size="9.00">CPassengerSource.generatepassenger</text>
</g>
<!-- Node9 -->
<g id="node2" class="node"><title>Node9</title>
<g id="a_node2"><a xlink:href="../../de/d57/interfacecom_1_1github_1_1aptd_1_1simulation_1_1core_1_1experiment_1_1IExperiment.htm#aa8cce580ba42c870597e5623d57685f1" target="_top" xlink:title="com.github.aptd.simulation.core.experiment.\lIExperiment.addAgent">
<polygon fill="none" stroke="black" points="258.5,-94 258.5,-122 455.5,-122 455.5,-94 258.5,-94"/>
<text text-anchor="start" x="266.5" y="-110.8" font-family="Helvetica,sans-Serif" font-size="9.00">com.github.aptd.simulation.core.experiment.</text>
<text text-anchor="middle" x="357" y="-100.8" font-family="Helvetica,sans-Serif" font-size="9.00">IExperiment.addAgent</text>
</a>
</g>
</g>
<!-- Node8&#45;&gt;Node9 -->
<g id="edge1" class="edge"><title>Node8&#45;&gt;Node9</title>
<path fill="none" stroke="midnightblue" d="M182.072,-75.0379C210.289,-80.3853 242.645,-86.5175 271.739,-92.0311"/>
<polygon fill="midnightblue" stroke="midnightblue" points="271.404,-95.53 281.881,-93.9533 272.708,-88.6524 271.404,-95.53"/>
</g>
<!-- Node10 -->
<g id="node3" class="node"><title>Node10</title>
<g id="a_node3"><a xlink:href="../../dd/dd7/interfacecom_1_1github_1_1aptd_1_1simulation_1_1elements_1_1IElement.htm#a447fe1b1460ce755b30e013aea069b77" target="_top" xlink:title="name of the object ">
<polygon fill="none" stroke="black" points="273,-47 273,-75 441,-75 441,-47 273,-47"/>
<text text-anchor="start" x="281" y="-63.8" font-family="Helvetica,sans-Serif" font-size="9.00">com.github.aptd.simulation.elements.</text>
<text text-anchor="middle" x="357" y="-53.8" font-family="Helvetica,sans-Serif" font-size="9.00">IElement.id</text>
</a>
</g>
</g>
<!-- Node8&#45;&gt;Node10 -->
<g id="edge2" class="edge"><title>Node8&#45;&gt;Node10</title>
<path fill="none" stroke="midnightblue" d="M214.254,-61C230.322,-61 246.797,-61 262.568,-61"/>
<polygon fill="midnightblue" stroke="midnightblue" points="262.819,-64.5001 272.819,-61 262.819,-57.5001 262.819,-64.5001"/>
</g>
<!-- Node11 -->
<g id="node4" class="node"><title>Node11</title>
<g id="a_node4"><a xlink:href="../../d3/d24/classcom_1_1github_1_1aptd_1_1simulation_1_1elements_1_1passenger_1_1CPassengerSource.htm#a29453958b80306016aaf1b98bd4817db" target="_top" xlink:title="com.github.aptd.simulation.elements.passenger.\lCPassengerSource.itinerary">
<polygon fill="none" stroke="black" points="250,-0 250,-28 464,-28 464,-0 250,-0"/>
<text text-anchor="start" x="258" y="-16.8" font-family="Helvetica,sans-Serif" font-size="9.00">com.github.aptd.simulation.elements.passenger.</text>
<text text-anchor="middle" x="357" y="-6.8" font-family="Helvetica,sans-Serif" font-size="9.00">CPassengerSource.itinerary</text>
</a>
</g>
</g>
<!-- Node8&#45;&gt;Node11 -->
<g id="edge3" class="edge"><title>Node8&#45;&gt;Node11</title>
<path fill="none" stroke="midnightblue" d="M182.072,-46.9621C210.289,-41.6147 242.645,-35.4825 271.739,-29.9689"/>
<polygon fill="midnightblue" stroke="midnightblue" points="272.708,-33.3476 281.881,-28.0467 271.404,-26.47 272.708,-33.3476"/>
</g>
</g>
</svg>
