<?xml version="1.0" encoding="UTF-8" standalone="no"?>
<!DOCTYPE svg PUBLIC "-//W3C//DTD SVG 1.1//EN"
 "http://www.w3.org/Graphics/SVG/1.1/DTD/svg11.dtd">
<!-- Generated by graphviz version 2.36.0 (20140111.2315)
 -->
<!-- Title: com.github.aptd.simulation.factory.IFactory.station Pages: 1 -->
<svg width="796pt" height="36pt"
 viewBox="0.00 0.00 796.00 36.00" xmlns="http://www.w3.org/2000/svg" xmlns:xlink="http://www.w3.org/1999/xlink">
<g id="graph0" class="graph" transform="scale(1 1) rotate(0) translate(4 32)">
<title>com.github.aptd.simulation.factory.IFactory.station</title>
<!-- Node21 -->
<g id="node1" class="node"><title>Node21</title>
<polygon fill="#bfbfbf" stroke="black" points="0,-0 0,-28 158,-28 158,-0 0,-0"/>
<text text-anchor="start" x="8" y="-16.8" font-family="Helvetica,sans-Serif" font-size="9.00">com.github.aptd.simulation.factory.</text>
<text text-anchor="middle" x="79" y="-6.8" font-family="Helvetica,sans-Serif" font-size="9.00">IFactory.station</text>
</g>
<!-- Node22 -->
<g id="node2" class="node"><title>Node22</title>
<g id="a_node2"><a xlink:href="../../d0/dfe/classcom_1_1github_1_1aptd_1_1simulation_1_1datamodel_1_1CXMLReader.htm#a54e11b48323b77041f2644ddaf3f9f2a" target="_top" xlink:title="creates a station agent generator ">
<polygon fill="none" stroke="black" points="194,-0 194,-28 368,-28 368,-0 194,-0"/>
<text text-anchor="start" x="202" y="-16.8" font-family="Helvetica,sans-Serif" font-size="9.00">com.github.aptd.simulation.datamodel.</text>
<text text-anchor="middle" x="281" y="-6.8" font-family="Helvetica,sans-Serif" font-size="9.00">CXMLReader.stationgenerator</text>
</a>
</g>
</g>
<!-- Node21&#45;&gt;Node22 -->
<g id="edge1" class="edge"><title>Node21&#45;&gt;Node22</title>
<path fill="none" stroke="midnightblue" d="M168.439,-14C176.905,-14 185.483,-14 193.927,-14"/>
<polygon fill="midnightblue" stroke="midnightblue" points="168.185,-10.5001 158.185,-14 168.184,-17.5001 168.185,-10.5001"/>
</g>
<!-- Node23 -->
<g id="node3" class="node"><title>Node23</title>
<g id="a_node3"><a xlink:href="../../d0/dfe/classcom_1_1github_1_1aptd_1_1simulation_1_1datamodel_1_1CXMLReader.htm#a2437d80acd49b6cf6ecb2fddf3cc8b39" target="_top" xlink:title="create the station list ">
<polygon fill="none" stroke="black" points="404,-0 404,-28 578,-28 578,-0 404,-0"/>
<text text-anchor="start" x="412" y="-16.8" font-family="Helvetica,sans-Serif" font-size="9.00">com.github.aptd.simulation.datamodel.</text>
<text text-anchor="middle" x="491" y="-6.8" font-family="Helvetica,sans-Serif" font-size="9.00">CXMLReader.station</text>
</a>
</g>
</g>
<!-- Node22&#45;&gt;Node23 -->
<g id="edge2" class="edge"><title>Node22&#45;&gt;Node23</title>
<path fill="none" stroke="midnightblue" d="M378.16,-14C386.768,-14 395.448,-14 403.962,-14"/>
<polygon fill="midnightblue" stroke="midnightblue" points="378.103,-10.5001 368.103,-14 378.103,-17.5001 378.103,-10.5001"/>
</g>
<!-- Node24 -->
<g id="node4" class="node"><title>Node24</title>
<g id="a_node4"><a xlink:href="../../d0/dfe/classcom_1_1github_1_1aptd_1_1simulation_1_1datamodel_1_1CXMLReader.htm#a9245292c78062330cc2b46caf7338fb7" target="_top" xlink:title="transfer the data&#45;model into an experiment based on given factory ">
<polygon fill="none" stroke="black" points="614,-0 614,-28 788,-28 788,-0 614,-0"/>
<text text-anchor="start" x="622" y="-16.8" font-family="Helvetica,sans-Serif" font-size="9.00">com.github.aptd.simulation.datamodel.</text>
<text text-anchor="middle" x="701" y="-6.8" font-family="Helvetica,sans-Serif" font-size="9.00">CXMLReader.get</text>
</a>
</g>
</g>
<!-- Node23&#45;&gt;Node24 -->
<g id="edge3" class="edge"><title>Node23&#45;&gt;Node24</title>
<path fill="none" stroke="midnightblue" d="M588.16,-14C596.768,-14 605.448,-14 613.962,-14"/>
<polygon fill="midnightblue" stroke="midnightblue" points="588.103,-10.5001 578.103,-14 588.103,-17.5001 588.103,-10.5001"/>
</g>
</g>
</svg>
