<?xml version="1.0" encoding="UTF-8" standalone="no"?>
<!DOCTYPE svg PUBLIC "-//W3C//DTD SVG 1.1//EN"
 "http://www.w3.org/Graphics/SVG/1.1/DTD/svg11.dtd">
<!-- Generated by graphviz version 2.36.0 (20140111.2315)
 -->
<!-- Title: com.github.aptd.simulation.factory.IFactory.train Pages: 1 -->
<svg width="796pt" height="36pt"
 viewBox="0.00 0.00 796.00 36.00" xmlns="http://www.w3.org/2000/svg" xmlns:xlink="http://www.w3.org/1999/xlink">
<g id="graph0" class="graph" transform="scale(1 1) rotate(0) translate(4 32)">
<title>com.github.aptd.simulation.factory.IFactory.train</title>
<!-- Node26 -->
<g id="node1" class="node"><title>Node26</title>
<polygon fill="#bfbfbf" stroke="black" points="0,-0 0,-28 158,-28 158,-0 0,-0"/>
<text text-anchor="start" x="8" y="-16.8" font-family="Helvetica,sans-Serif" font-size="9.00">com.github.aptd.simulation.factory.</text>
<text text-anchor="middle" x="79" y="-6.8" font-family="Helvetica,sans-Serif" font-size="9.00">IFactory.train</text>
</g>
<!-- Node27 -->
<g id="node2" class="node"><title>Node27</title>
<g id="a_node2"><a xlink:href="../../d0/dfe/classcom_1_1github_1_1aptd_1_1simulation_1_1datamodel_1_1CXMLReader.htm#a3bf3d9ff4ce36fec7dfae2ae4c999d96" target="_top" xlink:title="creates a train agent generator ">
<polygon fill="none" stroke="black" points="194,-0 194,-28 368,-28 368,-0 194,-0"/>
<text text-anchor="start" x="202" y="-16.8" font-family="Helvetica,sans-Serif" font-size="9.00">com.github.aptd.simulation.datamodel.</text>
<text text-anchor="middle" x="281" y="-6.8" font-family="Helvetica,sans-Serif" font-size="9.00">CXMLReader.traingenerator</text>
</a>
</g>
</g>
<!-- Node26&#45;&gt;Node27 -->
<g id="edge1" class="edge"><title>Node26&#45;&gt;Node27</title>
<path fill="none" stroke="midnightblue" d="M168.439,-14C176.905,-14 185.483,-14 193.927,-14"/>
<polygon fill="midnightblue" stroke="midnightblue" points="168.185,-10.5001 158.185,-14 168.184,-17.5001 168.185,-10.5001"/>
</g>
<!-- Node28 -->
<g id="node3" class="node"><title>Node28</title>
<g id="a_node3"><a xlink:href="../../d0/dfe/classcom_1_1github_1_1aptd_1_1simulation_1_1datamodel_1_1CXMLReader.htm#aa11c2b9e49aa088d189a3cad2276107d" target="_top" xlink:title="create the train list ">
<polygon fill="none" stroke="black" points="404,-0 404,-28 578,-28 578,-0 404,-0"/>
<text text-anchor="start" x="412" y="-16.8" font-family="Helvetica,sans-Serif" font-size="9.00">com.github.aptd.simulation.datamodel.</text>
<text text-anchor="middle" x="491" y="-6.8" font-family="Helvetica,sans-Serif" font-size="9.00">CXMLReader.train</text>
</a>
</g>
</g>
<!-- Node27&#45;&gt;Node28 -->
<g id="edge2" class="edge"><title>Node27&#45;&gt;Node28</title>
<path fill="none" stroke="midnightblue" d="M378.16,-14C386.768,-14 395.448,-14 403.962,-14"/>
<polygon fill="midnightblue" stroke="midnightblue" points="378.103,-10.5001 368.103,-14 378.103,-17.5001 378.103,-10.5001"/>
</g>
<!-- Node29 -->
<g id="node4" class="node"><title>Node29</title>
<g id="a_node4"><a xlink:href="../../d0/dfe/classcom_1_1github_1_1aptd_1_1simulation_1_1datamodel_1_1CXMLReader.htm#a9245292c78062330cc2b46caf7338fb7" target="_top" xlink:title="transfer the data&#45;model into an experiment based on given factory ">
<polygon fill="none" stroke="black" points="614,-0 614,-28 788,-28 788,-0 614,-0"/>
<text text-anchor="start" x="622" y="-16.8" font-family="Helvetica,sans-Serif" font-size="9.00">com.github.aptd.simulation.datamodel.</text>
<text text-anchor="middle" x="701" y="-6.8" font-family="Helvetica,sans-Serif" font-size="9.00">CXMLReader.get</text>
</a>
</g>
</g>
<!-- Node28&#45;&gt;Node29 -->
<g id="edge3" class="edge"><title>Node28&#45;&gt;Node29</title>
<path fill="none" stroke="midnightblue" d="M588.16,-14C596.768,-14 605.448,-14 613.962,-14"/>
<polygon fill="midnightblue" stroke="midnightblue" points="588.103,-10.5001 578.103,-14 588.103,-17.5001 588.103,-10.5001"/>
</g>
</g>
</svg>
