<?xml version="1.0" encoding="UTF-8" standalone="no"?>
<!DOCTYPE svg PUBLIC "-//W3C//DTD SVG 1.1//EN"
 "http://www.w3.org/Graphics/SVG/1.1/DTD/svg11.dtd">
<!-- Generated by graphviz version 2.36.0 (20140111.2315)
 -->
<!-- Title: com.github.aptd.simulation.factory.IFactory.passenger Pages: 1 -->
<svg width="586pt" height="36pt"
 viewBox="0.00 0.00 586.00 36.00" xmlns="http://www.w3.org/2000/svg" xmlns:xlink="http://www.w3.org/1999/xlink">
<g id="graph0" class="graph" transform="scale(1 1) rotate(0) translate(4 32)">
<title>com.github.aptd.simulation.factory.IFactory.passenger</title>
<!-- Node8 -->
<g id="node1" class="node"><title>Node8</title>
<polygon fill="#bfbfbf" stroke="black" points="0,-0 0,-28 158,-28 158,-0 0,-0"/>
<text text-anchor="start" x="8" y="-16.8" font-family="Helvetica,sans-Serif" font-size="9.00">com.github.aptd.simulation.factory.</text>
<text text-anchor="middle" x="79" y="-6.8" font-family="Helvetica,sans-Serif" font-size="9.00">IFactory.passenger</text>
</g>
<!-- Node9 -->
<g id="node2" class="node"><title>Node9</title>
<g id="a_node2"><a xlink:href="../../d0/dfe/classcom_1_1github_1_1aptd_1_1simulation_1_1datamodel_1_1CXMLReader.htm#adbd358d05f2204387a22d8e837b0c03a" target="_top" xlink:title="creates a Passenger agent generator ">
<polygon fill="none" stroke="black" points="194,-0 194,-28 368,-28 368,-0 194,-0"/>
<text text-anchor="start" x="202" y="-16.8" font-family="Helvetica,sans-Serif" font-size="9.00">com.github.aptd.simulation.datamodel.</text>
<text text-anchor="middle" x="281" y="-6.8" font-family="Helvetica,sans-Serif" font-size="9.00">CXMLReader.passengergenerator</text>
</a>
</g>
</g>
<!-- Node8&#45;&gt;Node9 -->
<g id="edge1" class="edge"><title>Node8&#45;&gt;Node9</title>
<path fill="none" stroke="midnightblue" d="M168.439,-14C176.905,-14 185.483,-14 193.927,-14"/>
<polygon fill="midnightblue" stroke="midnightblue" points="168.185,-10.5001 158.185,-14 168.184,-17.5001 168.185,-10.5001"/>
</g>
<!-- Node10 -->
<g id="node3" class="node"><title>Node10</title>
<g id="a_node3"><a xlink:href="../../d0/dfe/classcom_1_1github_1_1aptd_1_1simulation_1_1datamodel_1_1CXMLReader.htm#a9245292c78062330cc2b46caf7338fb7" target="_top" xlink:title="transfer the data&#45;model into an experiment based on given factory ">
<polygon fill="none" stroke="black" points="404,-0 404,-28 578,-28 578,-0 404,-0"/>
<text text-anchor="start" x="412" y="-16.8" font-family="Helvetica,sans-Serif" font-size="9.00">com.github.aptd.simulation.datamodel.</text>
<text text-anchor="middle" x="491" y="-6.8" font-family="Helvetica,sans-Serif" font-size="9.00">CXMLReader.get</text>
</a>
</g>
</g>
<!-- Node9&#45;&gt;Node10 -->
<g id="edge2" class="edge"><title>Node9&#45;&gt;Node10</title>
<path fill="none" stroke="midnightblue" d="M378.16,-14C386.768,-14 395.448,-14 403.962,-14"/>
<polygon fill="midnightblue" stroke="midnightblue" points="378.103,-10.5001 368.103,-14 378.103,-17.5001 378.103,-10.5001"/>
</g>
</g>
</svg>
