<?xml version="1.0" encoding="UTF-8" standalone="no"?>
<!DOCTYPE svg PUBLIC "-//W3C//DTD SVG 1.1//EN"
 "http://www.w3.org/Graphics/SVG/1.1/DTD/svg11.dtd">
<!-- Generated by graphviz version 2.36.0 (20140111.2315)
 -->
<!-- Title: com.github.aptd.simulation.datamodel.EDataModel Pages: 1 -->
<svg width="182pt" height="206pt"
 viewBox="0.00 0.00 182.00 206.00" xmlns="http://www.w3.org/2000/svg" xmlns:xlink="http://www.w3.org/1999/xlink">
<g id="graph0" class="graph" transform="scale(1 1) rotate(0) translate(4 202)">
<title>com.github.aptd.simulation.datamodel.EDataModel</title>
<!-- Node1 -->
<g id="node1" class="node"><title>Node1</title>
<polygon fill="#bfbfbf" stroke="black" points="0,-1 0,-85 174,-85 174,-1 0,-1"/>
<text text-anchor="start" x="8" y="-73.8" font-family="Helvetica,sans-Serif" font-size="9.00">com.github.aptd.simulation.datamodel.</text>
<text text-anchor="middle" x="87" y="-63.8" font-family="Helvetica,sans-Serif" font-size="9.00">EDataModel</text>
<polyline fill="none" stroke="black" points="0,-57 174,-57 "/>
<text text-anchor="start" x="8" y="-45.8" font-family="Helvetica,sans-Serif" font-size="9.00">+ XML</text>
<polyline fill="none" stroke="black" points="0,-39 174,-39 "/>
<text text-anchor="start" x="8" y="-27.8" font-family="Helvetica,sans-Serif" font-size="9.00">+ EDataModel()</text>
<text text-anchor="start" x="8" y="-17.8" font-family="Helvetica,sans-Serif" font-size="9.00">+ model()</text>
<text text-anchor="start" x="8" y="-7.8" font-family="Helvetica,sans-Serif" font-size="9.00">+ from()</text>
</g>
<!-- Node2 -->
<g id="node2" class="node"><title>Node2</title>
<g id="a_node2"><a xlink:href="../../df/d4d/interfacecom_1_1github_1_1aptd_1_1simulation_1_1datamodel_1_1IDataModel.htm" target="_top" xlink:title="data model components ">
<polygon fill="none" stroke="black" points="0,-133 0,-197 174,-197 174,-133 0,-133"/>
<text text-anchor="start" x="8" y="-185.8" font-family="Helvetica,sans-Serif" font-size="9.00">com.github.aptd.simulation.datamodel.</text>
<text text-anchor="middle" x="87" y="-175.8" font-family="Helvetica,sans-Serif" font-size="9.00">IDataModel</text>
<polyline fill="none" stroke="black" points="0,-169 174,-169 "/>
<text text-anchor="middle" x="87" y="-157.8" font-family="Helvetica,sans-Serif" font-size="9.00"> </text>
<polyline fill="none" stroke="black" points="0,-151 174,-151 "/>
<text text-anchor="start" x="8" y="-139.8" font-family="Helvetica,sans-Serif" font-size="9.00">+ get()</text>
</a>
</g>
</g>
<!-- Node2&#45;&gt;Node1 -->
<g id="edge1" class="edge"><title>Node2&#45;&gt;Node1</title>
<path fill="none" stroke="#404040" d="M87,-132.785C87,-121.847 87,-109.237 87,-97.0189"/>
<polygon fill="none" stroke="#404040" points="87.0001,-97.0074 83,-91.0074 87,-85.0074 91,-91.0074 87.0001,-97.0074"/>
<text text-anchor="middle" x="109" y="-106.8" font-family="Helvetica,sans-Serif" font-size="9.00"> &#45;m_model</text>
</g>
</g>
</svg>
