<?xml version="1.0" encoding="UTF-8" standalone="no"?>
<!DOCTYPE svg PUBLIC "-//W3C//DTD SVG 1.1//EN"
 "http://www.w3.org/Graphics/SVG/1.1/DTD/svg11.dtd">
<!-- Generated by graphviz version 2.36.0 (20140111.2315)
 -->
<!-- Title: com.github.aptd.simulation.core.runtime.local.CRuntime.execute Pages: 1 -->
<svg width="452pt" height="271pt"
 viewBox="0.00 0.00 452.00 271.00" xmlns="http://www.w3.org/2000/svg" xmlns:xlink="http://www.w3.org/1999/xlink">
<g id="graph0" class="graph" transform="scale(1 1) rotate(0) translate(4 267)">
<title>com.github.aptd.simulation.core.runtime.local.CRuntime.execute</title>
<!-- Node0 -->
<g id="node1" class="node"><title>Node0</title>
<polygon fill="#bfbfbf" stroke="black" points="0.5,-117 0.5,-145 203.5,-145 203.5,-117 0.5,-117"/>
<text text-anchor="start" x="8.5" y="-133.8" font-family="Helvetica,sans-Serif" font-size="9.00">com.github.aptd.simulation.core.runtime.local.</text>
<text text-anchor="middle" x="102" y="-123.8" font-family="Helvetica,sans-Serif" font-size="9.00">CRuntime.execute</text>
</g>
<!-- Node1 -->
<g id="node2" class="node"><title>Node1</title>
<g id="a_node2"><a xlink:href="../../db/d65/interfacecom_1_1github_1_1aptd_1_1simulation_1_1core_1_1time_1_1ITime.htm#a413ceddfeb6c145bbd149d3ed9375544" target="_top" xlink:title="indicates whether the experiment is not over yet ">
<polygon fill="none" stroke="black" points="258,-235 258,-263 426,-263 426,-235 258,-235"/>
<text text-anchor="start" x="266" y="-251.8" font-family="Helvetica,sans-Serif" font-size="9.00">com.github.aptd.simulation.core.time.</text>
<text text-anchor="middle" x="342" y="-241.8" font-family="Helvetica,sans-Serif" font-size="9.00">ITime.active</text>
</a>
</g>
</g>
<!-- Node0&#45;&gt;Node1 -->
<g id="edge1" class="edge"><title>Node0&#45;&gt;Node1</title>
<path fill="none" stroke="midnightblue" d="M119.097,-145.028C143.549,-165.611 192.271,-203.839 240,-225 245.731,-227.541 251.768,-229.834 257.924,-231.901"/>
<polygon fill="midnightblue" stroke="midnightblue" points="257.078,-235.303 267.667,-234.964 259.177,-228.626 257.078,-235.303"/>
</g>
<!-- Node2 -->
<g id="node3" class="node"><title>Node2</title>
<g id="a_node3"><a xlink:href="../../de/d57/interfacecom_1_1github_1_1aptd_1_1simulation_1_1core_1_1experiment_1_1IExperiment.htm#a505ca5d6926a5f898ecaac449376c0c9" target="_top" xlink:title="returns a stream of all executable objects ">
<polygon fill="none" stroke="black" points="243.5,-188 243.5,-216 440.5,-216 440.5,-188 243.5,-188"/>
<text text-anchor="start" x="251.5" y="-204.8" font-family="Helvetica,sans-Serif" font-size="9.00">com.github.aptd.simulation.core.experiment.</text>
<text text-anchor="middle" x="342" y="-194.8" font-family="Helvetica,sans-Serif" font-size="9.00">IExperiment.objects</text>
</a>
</g>
</g>
<!-- Node0&#45;&gt;Node2 -->
<g id="edge2" class="edge"><title>Node0&#45;&gt;Node2</title>
<path fill="none" stroke="midnightblue" d="M140.775,-145.067C168.113,-154.975 206.065,-168.172 240,-178 248.994,-180.605 258.497,-183.141 267.932,-185.528"/>
<polygon fill="midnightblue" stroke="midnightblue" points="267.167,-188.945 277.716,-187.96 268.856,-182.151 267.167,-188.945"/>
</g>
<!-- Node3 -->
<g id="node4" class="node"><title>Node3</title>
<g id="a_node4"><a xlink:href="../../d8/d22/classcom_1_1github_1_1aptd_1_1simulation_1_1core_1_1runtime_1_1local_1_1CRuntime.htm#a37908318f5ee355fe042f54bcdf9bdf1" target="_top" xlink:title="creates an optional parallel stream ">
<polygon fill="none" stroke="black" points="240.5,-141 240.5,-169 443.5,-169 443.5,-141 240.5,-141"/>
<text text-anchor="start" x="248.5" y="-157.8" font-family="Helvetica,sans-Serif" font-size="9.00">com.github.aptd.simulation.core.runtime.local.</text>
<text text-anchor="middle" x="342" y="-147.8" font-family="Helvetica,sans-Serif" font-size="9.00">CRuntime.optionalparallelstream</text>
</a>
</g>
</g>
<!-- Node0&#45;&gt;Node3 -->
<g id="edge3" class="edge"><title>Node0&#45;&gt;Node3</title>
<path fill="none" stroke="midnightblue" d="M203.588,-141.143C212.437,-142.036 221.426,-142.942 230.351,-143.842"/>
<polygon fill="midnightblue" stroke="midnightblue" points="230.089,-147.333 240.39,-144.854 230.792,-140.369 230.089,-147.333"/>
</g>
<!-- Node4 -->
<g id="node5" class="node"><title>Node4</title>
<g id="a_node5"><a xlink:href="../../de/d57/interfacecom_1_1github_1_1aptd_1_1simulation_1_1core_1_1experiment_1_1IExperiment.htm#a0d4c7cc9ba14bae2f29f331fef20db3e" target="_top" xlink:title="execute agents in parallel ">
<polygon fill="none" stroke="black" points="243.5,-94 243.5,-122 440.5,-122 440.5,-94 243.5,-94"/>
<text text-anchor="start" x="251.5" y="-110.8" font-family="Helvetica,sans-Serif" font-size="9.00">com.github.aptd.simulation.core.experiment.</text>
<text text-anchor="middle" x="342" y="-100.8" font-family="Helvetica,sans-Serif" font-size="9.00">IExperiment.parallel</text>
</a>
</g>
</g>
<!-- Node0&#45;&gt;Node4 -->
<g id="edge4" class="edge"><title>Node0&#45;&gt;Node4</title>
<path fill="none" stroke="midnightblue" d="M203.588,-121.279C213.381,-120.333 223.344,-119.37 233.203,-118.417"/>
<polygon fill="midnightblue" stroke="midnightblue" points="233.812,-121.875 243.429,-117.429 233.139,-114.907 233.812,-121.875"/>
</g>
<!-- Node5 -->
<g id="node6" class="node"><title>Node5</title>
<g id="a_node6"><a xlink:href="../../de/d57/interfacecom_1_1github_1_1aptd_1_1simulation_1_1core_1_1experiment_1_1IExperiment.htm#aa2f3cfa059b16a16e17182ad11777c49" target="_top" xlink:title="preprocessing objects ">
<polygon fill="none" stroke="black" points="243.5,-47 243.5,-75 440.5,-75 440.5,-47 243.5,-47"/>
<text text-anchor="start" x="251.5" y="-63.8" font-family="Helvetica,sans-Serif" font-size="9.00">com.github.aptd.simulation.core.experiment.</text>
<text text-anchor="middle" x="342" y="-53.8" font-family="Helvetica,sans-Serif" font-size="9.00">IExperiment.preprocess</text>
</a>
</g>
</g>
<!-- Node0&#45;&gt;Node5 -->
<g id="edge5" class="edge"><title>Node0&#45;&gt;Node5</title>
<path fill="none" stroke="midnightblue" d="M141.681,-116.968C168.962,-107.329 206.47,-94.5915 240,-85 249.067,-82.4064 258.646,-79.8704 268.151,-77.4768"/>
<polygon fill="midnightblue" stroke="midnightblue" points="269.138,-80.8382 278.003,-75.0375 267.455,-74.0434 269.138,-80.8382"/>
</g>
<!-- Node6 -->
<g id="node7" class="node"><title>Node6</title>
<g id="a_node7"><a xlink:href="../../de/d57/interfacecom_1_1github_1_1aptd_1_1simulation_1_1core_1_1experiment_1_1IExperiment.htm#a5cbb6a83c69d516d17a5609f4a4c9af5" target="_top" xlink:title="get the time object ">
<polygon fill="none" stroke="black" points="243.5,-0 243.5,-28 440.5,-28 440.5,-0 243.5,-0"/>
<text text-anchor="start" x="251.5" y="-16.8" font-family="Helvetica,sans-Serif" font-size="9.00">com.github.aptd.simulation.core.experiment.</text>
<text text-anchor="middle" x="342" y="-6.8" font-family="Helvetica,sans-Serif" font-size="9.00">IExperiment.time</text>
</a>
</g>
</g>
<!-- Node0&#45;&gt;Node6 -->
<g id="edge6" class="edge"><title>Node0&#45;&gt;Node6</title>
<path fill="none" stroke="midnightblue" d="M119.533,-116.791C144.152,-96.3606 192.644,-58.8553 240,-38 245.737,-35.4735 251.779,-33.1905 257.938,-31.1315"/>
<polygon fill="midnightblue" stroke="midnightblue" points="259.189,-34.4073 267.686,-28.0774 257.096,-27.7275 259.189,-34.4073"/>
</g>
</g>
</svg>
