<?xml version="1.0" encoding="UTF-8" standalone="no"?>
<!DOCTYPE svg PUBLIC "-//W3C//DTD SVG 1.1//EN"
 "http://www.w3.org/Graphics/SVG/1.1/DTD/svg11.dtd">
<!-- Generated by graphviz version 2.36.0 (20140111.2315)
 -->
<!-- Title: com.github.aptd.simulation.elements.linearprogram.CCombinedSolver Pages: 1 -->
<svg width="236pt" height="320pt"
 viewBox="0.00 0.00 236.00 320.00" xmlns="http://www.w3.org/2000/svg" xmlns:xlink="http://www.w3.org/1999/xlink">
<g id="graph0" class="graph" transform="scale(1 1) rotate(0) translate(4 316)">
<title>com.github.aptd.simulation.elements.linearprogram.CCombinedSolver</title>
<!-- Node3 -->
<g id="node1" class="node"><title>Node3</title>
<polygon fill="#bfbfbf" stroke="black" points="0,-1 0,-75 228,-75 228,-1 0,-1"/>
<text text-anchor="start" x="8" y="-63.8" font-family="Helvetica,sans-Serif" font-size="9.00">com.github.aptd.simulation.elements.linearprogram.</text>
<text text-anchor="middle" x="114" y="-53.8" font-family="Helvetica,sans-Serif" font-size="9.00">CCombinedSolver</text>
<polyline fill="none" stroke="black" points="0,-47 228,-47 "/>
<text text-anchor="middle" x="114" y="-35.8" font-family="Helvetica,sans-Serif" font-size="9.00"> </text>
<polyline fill="none" stroke="black" points="0,-29 228,-29 "/>
<text text-anchor="start" x="8" y="-17.8" font-family="Helvetica,sans-Serif" font-size="9.00">+ solve()</text>
<text text-anchor="start" x="8" y="-7.8" font-family="Helvetica,sans-Serif" font-size="9.00">+ typespecific()</text>
</g>
<!-- Node4 -->
<g id="node2" class="node"><title>Node4</title>
<g id="a_node2"><a xlink:href="../../d7/d34/interfacecom_1_1github_1_1aptd_1_1simulation_1_1elements_1_1linearprogram_1_1ISolver.htm" target="_top" xlink:title="{com.github.aptd.simulation.elements.linearprogram.\lISolver\&lt; MpVariable.Type \&gt;\n||+ solve()\l+ typespecific()\l}">
<polygon fill="none" stroke="black" points="0,-115 0,-189 228,-189 228,-115 0,-115"/>
<text text-anchor="start" x="8" y="-177.8" font-family="Helvetica,sans-Serif" font-size="9.00">com.github.aptd.simulation.elements.linearprogram.</text>
<text text-anchor="middle" x="114" y="-167.8" font-family="Helvetica,sans-Serif" font-size="9.00">ISolver&lt; MpVariable.Type &gt;</text>
<polyline fill="none" stroke="black" points="0,-161 228,-161 "/>
<text text-anchor="middle" x="114" y="-149.8" font-family="Helvetica,sans-Serif" font-size="9.00"> </text>
<polyline fill="none" stroke="black" points="0,-143 228,-143 "/>
<text text-anchor="start" x="8" y="-131.8" font-family="Helvetica,sans-Serif" font-size="9.00">+ solve()</text>
<text text-anchor="start" x="8" y="-121.8" font-family="Helvetica,sans-Serif" font-size="9.00">+ typespecific()</text>
</a>
</g>
</g>
<!-- Node4&#45;&gt;Node3 -->
<g id="edge1" class="edge"><title>Node4&#45;&gt;Node3</title>
<path fill="none" stroke="midnightblue" d="M114,-104.894C114,-95.0511 114,-84.7869 114,-75.3704"/>
<polygon fill="none" stroke="midnightblue" points="110.5,-104.946 114,-114.946 117.5,-104.946 110.5,-104.946"/>
</g>
<!-- Node5 -->
<g id="node3" class="node"><title>Node5</title>
<g id="a_node3"><a xlink:href="../../d7/d34/interfacecom_1_1github_1_1aptd_1_1simulation_1_1elements_1_1linearprogram_1_1ISolver.htm" target="_top" xlink:title="interface of a LP solver (external) ">
<polygon fill="none" stroke="black" points="0,-237 0,-311 228,-311 228,-237 0,-237"/>
<text text-anchor="start" x="8" y="-299.8" font-family="Helvetica,sans-Serif" font-size="9.00">com.github.aptd.simulation.elements.linearprogram.</text>
<text text-anchor="middle" x="114" y="-289.8" font-family="Helvetica,sans-Serif" font-size="9.00">ISolver&lt; V &gt;</text>
<polyline fill="none" stroke="black" points="0,-283 228,-283 "/>
<text text-anchor="middle" x="114" y="-271.8" font-family="Helvetica,sans-Serif" font-size="9.00"> </text>
<polyline fill="none" stroke="black" points="0,-265 228,-265 "/>
<text text-anchor="start" x="8" y="-253.8" font-family="Helvetica,sans-Serif" font-size="9.00">+ solve()</text>
<text text-anchor="start" x="8" y="-243.8" font-family="Helvetica,sans-Serif" font-size="9.00">+ typespecific()</text>
</a>
</g>
</g>
<!-- Node5&#45;&gt;Node4 -->
<g id="edge2" class="edge"><title>Node5&#45;&gt;Node4</title>
<path fill="none" stroke="orange" d="M114,-226.823C114,-214.42 114,-201.183 114,-189.393"/>
<polygon fill="orange" stroke="orange" points="110.5,-226.996 114,-236.996 117.5,-226.996 110.5,-226.996"/>
<text text-anchor="middle" x="158" y="-210.8" font-family="Helvetica,sans-Serif" font-size="9.00"> &lt; MpVariable.Type &gt;</text>
</g>
</g>
</svg>
