<?xml version="1.0" encoding="UTF-8" standalone="no"?>
<!DOCTYPE svg PUBLIC "-//W3C//DTD SVG 1.1//EN"
 "http://www.w3.org/Graphics/SVG/1.1/DTD/svg11.dtd">
<!-- Generated by graphviz version 2.36.0 (20140111.2315)
 -->
<!-- Title: com.github.aptd.simulation.core.time.local.CStepTime Pages: 1 -->
<svg width="198pt" height="580pt"
 viewBox="0.00 0.00 198.00 580.00" xmlns="http://www.w3.org/2000/svg" xmlns:xlink="http://www.w3.org/1999/xlink">
<g id="graph0" class="graph" transform="scale(1 1) rotate(0) translate(4 576)">
<title>com.github.aptd.simulation.core.time.local.CStepTime</title>
<!-- Node4 -->
<g id="node1" class="node"><title>Node4</title>
<polygon fill="#bfbfbf" stroke="black" points="0,-1 0,-105 190,-105 190,-1 0,-1"/>
<text text-anchor="start" x="8" y="-93.8" font-family="Helvetica,sans-Serif" font-size="9.00">com.github.aptd.simulation.core.time.local.</text>
<text text-anchor="middle" x="95" y="-83.8" font-family="Helvetica,sans-Serif" font-size="9.00">CStepTime</text>
<polyline fill="none" stroke="black" points="0,-77 190,-77 "/>
<text text-anchor="start" x="8" y="-65.8" font-family="Helvetica,sans-Serif" font-size="9.00">&#45; m_stepsize</text>
<polyline fill="none" stroke="black" points="0,-59 190,-59 "/>
<text text-anchor="start" x="8" y="-47.8" font-family="Helvetica,sans-Serif" font-size="9.00">+ CStepTime()</text>
<text text-anchor="start" x="8" y="-37.8" font-family="Helvetica,sans-Serif" font-size="9.00">+ CStepTime()</text>
<text text-anchor="start" x="8" y="-27.8" font-family="Helvetica,sans-Serif" font-size="9.00">+ call()</text>
<text text-anchor="start" x="8" y="-17.8" font-family="Helvetica,sans-Serif" font-size="9.00">+ stepsize()</text>
<text text-anchor="start" x="8" y="-7.8" font-family="Helvetica,sans-Serif" font-size="9.00">+ stepsize()</text>
</g>
<!-- Node5 -->
<g id="node2" class="node"><title>Node5</title>
<g id="a_node2"><a xlink:href="../../df/dd8/classcom_1_1github_1_1aptd_1_1simulation_1_1core_1_1time_1_1IBaseTime.htm" target="_top" xlink:title="Base implementation of time mechanism with member variable and literal representation. ">
<polygon fill="none" stroke="black" points="11,-143 11,-317 179,-317 179,-143 11,-143"/>
<text text-anchor="start" x="19" y="-305.8" font-family="Helvetica,sans-Serif" font-size="9.00">com.github.aptd.simulation.core.time.</text>
<text text-anchor="middle" x="95" y="-295.8" font-family="Helvetica,sans-Serif" font-size="9.00">IBaseTime</text>
<polyline fill="none" stroke="black" points="11,-289 179,-289 "/>
<text text-anchor="start" x="19" y="-277.8" font-family="Helvetica,sans-Serif" font-size="9.00"># m_currenttime</text>
<text text-anchor="start" x="19" y="-267.8" font-family="Helvetica,sans-Serif" font-size="9.00"># m_stepcount</text>
<text text-anchor="start" x="19" y="-257.8" font-family="Helvetica,sans-Serif" font-size="9.00"># m_steplimit</text>
<text text-anchor="start" x="19" y="-247.8" font-family="Helvetica,sans-Serif" font-size="9.00">&#45; m_zone</text>
<polyline fill="none" stroke="black" points="11,-241 179,-241 "/>
<text text-anchor="start" x="19" y="-229.8" font-family="Helvetica,sans-Serif" font-size="9.00">+ active()</text>
<text text-anchor="start" x="19" y="-219.8" font-family="Helvetica,sans-Serif" font-size="9.00">+ addagent()</text>
<text text-anchor="start" x="19" y="-209.8" font-family="Helvetica,sans-Serif" font-size="9.00">+ call()</text>
<text text-anchor="start" x="19" y="-199.8" font-family="Helvetica,sans-Serif" font-size="9.00">+ current()</text>
<text text-anchor="start" x="19" y="-189.8" font-family="Helvetica,sans-Serif" font-size="9.00">+ literal()</text>
<text text-anchor="start" x="19" y="-179.8" font-family="Helvetica,sans-Serif" font-size="9.00">+ literal()</text>
<text text-anchor="start" x="19" y="-169.8" font-family="Helvetica,sans-Serif" font-size="9.00">+ raw()</text>
<text text-anchor="start" x="19" y="-159.8" font-family="Helvetica,sans-Serif" font-size="9.00">+ removeagent()</text>
<text text-anchor="start" x="19" y="-149.8" font-family="Helvetica,sans-Serif" font-size="9.00"># IBaseTime()</text>
</a>
</g>
</g>
<!-- Node5&#45;&gt;Node4 -->
<g id="edge1" class="edge"><title>Node5&#45;&gt;Node4</title>
<path fill="none" stroke="midnightblue" d="M95,-132.619C95,-123.284 95,-114.086 95,-105.454"/>
<polygon fill="none" stroke="midnightblue" points="91.5001,-132.782 95,-142.782 98.5001,-132.782 91.5001,-132.782"/>
</g>
<!-- Node6 -->
<g id="node3" class="node"><title>Node6</title>
<g id="a_node3"><a xlink:href="../../db/d65/interfacecom_1_1github_1_1aptd_1_1simulation_1_1core_1_1time_1_1ITime.htm" target="_top" xlink:title="time interface ">
<polygon fill="none" stroke="black" points="11,-355 11,-459 179,-459 179,-355 11,-355"/>
<text text-anchor="start" x="19" y="-447.8" font-family="Helvetica,sans-Serif" font-size="9.00">com.github.aptd.simulation.core.time.</text>
<text text-anchor="middle" x="95" y="-437.8" font-family="Helvetica,sans-Serif" font-size="9.00">ITime</text>
<polyline fill="none" stroke="black" points="11,-431 179,-431 "/>
<text text-anchor="middle" x="95" y="-419.8" font-family="Helvetica,sans-Serif" font-size="9.00"> </text>
<polyline fill="none" stroke="black" points="11,-413 179,-413 "/>
<text text-anchor="start" x="19" y="-401.8" font-family="Helvetica,sans-Serif" font-size="9.00">+ active()</text>
<text text-anchor="start" x="19" y="-391.8" font-family="Helvetica,sans-Serif" font-size="9.00">+ addagent()</text>
<text text-anchor="start" x="19" y="-381.8" font-family="Helvetica,sans-Serif" font-size="9.00">+ current()</text>
<text text-anchor="start" x="19" y="-371.8" font-family="Helvetica,sans-Serif" font-size="9.00">+ raw()</text>
<text text-anchor="start" x="19" y="-361.8" font-family="Helvetica,sans-Serif" font-size="9.00">+ removeagent()</text>
</a>
</g>
</g>
<!-- Node6&#45;&gt;Node5 -->
<g id="edge2" class="edge"><title>Node6&#45;&gt;Node5</title>
<path fill="none" stroke="midnightblue" d="M95,-344.633C95,-335.699 95,-326.365 95,-317.052"/>
<polygon fill="none" stroke="midnightblue" points="91.5001,-344.912 95,-354.912 98.5001,-344.912 91.5001,-344.912"/>
</g>
<!-- Node7 -->
<g id="node4" class="node"><title>Node7</title>
<g id="a_node4"><a xlink:href="../../d4/d0d/interfacecom_1_1github_1_1aptd_1_1simulation_1_1elements_1_1IPerceiveable.htm" target="_top" xlink:title="any object which be perceived by an agent ">
<polygon fill="none" stroke="black" points="11,-497 11,-571 179,-571 179,-497 11,-497"/>
<text text-anchor="start" x="19" y="-559.8" font-family="Helvetica,sans-Serif" font-size="9.00">com.github.aptd.simulation.elements.</text>
<text text-anchor="middle" x="95" y="-549.8" font-family="Helvetica,sans-Serif" font-size="9.00">IPerceiveable</text>
<polyline fill="none" stroke="black" points="11,-543 179,-543 "/>
<text text-anchor="middle" x="95" y="-531.8" font-family="Helvetica,sans-Serif" font-size="9.00"> </text>
<polyline fill="none" stroke="black" points="11,-525 179,-525 "/>
<text text-anchor="start" x="19" y="-513.8" font-family="Helvetica,sans-Serif" font-size="9.00">+ literal()</text>
<text text-anchor="start" x="19" y="-503.8" font-family="Helvetica,sans-Serif" font-size="9.00">+ literal()</text>
</a>
</g>
</g>
<!-- Node7&#45;&gt;Node6 -->
<g id="edge3" class="edge"><title>Node7&#45;&gt;Node6</title>
<path fill="none" stroke="midnightblue" d="M95,-486.68C95,-477.797 95,-468.446 95,-459.414"/>
<polygon fill="none" stroke="midnightblue" points="91.5001,-486.845 95,-496.845 98.5001,-486.845 91.5001,-486.845"/>
</g>
</g>
</svg>
