<?xml version="1.0" encoding="UTF-8" standalone="no"?>
<!DOCTYPE svg PUBLIC "-//W3C//DTD SVG 1.1//EN"
 "http://www.w3.org/Graphics/SVG/1.1/DTD/svg11.dtd">
<!-- Generated by graphviz version 2.36.0 (20140111.2315)
 -->
<!-- Title: com.github.aptd.simulation.elements.graph.eventactivitynetwork.local.CNode Pages: 1 -->
<svg width="586pt" height="616pt"
 viewBox="0.00 0.00 586.00 616.00" xmlns="http://www.w3.org/2000/svg" xmlns:xlink="http://www.w3.org/1999/xlink">
<g id="graph0" class="graph" transform="scale(1 1) rotate(0) translate(4 612)">
<title>com.github.aptd.simulation.elements.graph.eventactivitynetwork.local.CNode</title>
<!-- Node3 -->
<g id="node1" class="node"><title>Node3</title>
<polygon fill="#bfbfbf" stroke="black" points="153.5,-1 153.5,-95 454.5,-95 454.5,-1 153.5,-1"/>
<text text-anchor="start" x="161.5" y="-83.8" font-family="Helvetica,sans-Serif" font-size="9.00">com.github.aptd.simulation.elements.graph.eventactivitynetwork.local.</text>
<text text-anchor="middle" x="304" y="-73.8" font-family="Helvetica,sans-Serif" font-size="9.00">CNode</text>
<polyline fill="none" stroke="black" points="153.5,-67 454.5,-67 "/>
<text text-anchor="middle" x="304" y="-55.8" font-family="Helvetica,sans-Serif" font-size="9.00"> </text>
<polyline fill="none" stroke="black" points="153.5,-49 454.5,-49 "/>
<text text-anchor="start" x="161.5" y="-37.8" font-family="Helvetica,sans-Serif" font-size="9.00">+ CNode()</text>
<text text-anchor="start" x="161.5" y="-27.8" font-family="Helvetica,sans-Serif" font-size="9.00">+ equals()</text>
<text text-anchor="start" x="161.5" y="-17.8" font-family="Helvetica,sans-Serif" font-size="9.00">+ hashCode()</text>
<text text-anchor="start" x="161.5" y="-7.8" font-family="Helvetica,sans-Serif" font-size="9.00">+ station()</text>
</g>
<!-- Node4 -->
<g id="node2" class="node"><title>Node4</title>
<g id="a_node2"><a xlink:href="../../d3/db3/interfacecom_1_1github_1_1aptd_1_1simulation_1_1elements_1_1graph_1_1eventactivitynetwork_1_1INode.htm" target="_top" xlink:title="interface of a node ">
<polygon fill="none" stroke="black" points="-0.5,-143 -0.5,-207 278.5,-207 278.5,-143 -0.5,-143"/>
<text text-anchor="start" x="7.5" y="-195.8" font-family="Helvetica,sans-Serif" font-size="9.00">com.github.aptd.simulation.elements.graph.eventactivitynetwork.</text>
<text text-anchor="middle" x="139" y="-185.8" font-family="Helvetica,sans-Serif" font-size="9.00">INode</text>
<polyline fill="none" stroke="black" points="-0.5,-179 278.5,-179 "/>
<text text-anchor="middle" x="139" y="-167.8" font-family="Helvetica,sans-Serif" font-size="9.00"> </text>
<polyline fill="none" stroke="black" points="-0.5,-161 278.5,-161 "/>
<text text-anchor="start" x="7.5" y="-149.8" font-family="Helvetica,sans-Serif" font-size="9.00">+ station()</text>
</a>
</g>
</g>
<!-- Node4&#45;&gt;Node3 -->
<g id="edge1" class="edge"><title>Node4&#45;&gt;Node3</title>
<path fill="none" stroke="midnightblue" d="M188.441,-136.544C205.616,-123.534 225.08,-108.788 243.072,-95.1577"/>
<polygon fill="none" stroke="midnightblue" points="186.068,-133.951 180.211,-142.78 190.295,-139.531 186.068,-133.951"/>
</g>
<!-- Node5 -->
<g id="node3" class="node"><title>Node5</title>
<g id="a_node3"><a xlink:href="../../de/d20/interfacecom_1_1github_1_1aptd_1_1simulation_1_1elements_1_1graph_1_1IVertex.htm" target="_top" xlink:title="interface of graph nodes ">
<polygon fill="none" stroke="black" points="80,-255 80,-329 198,-329 198,-255 80,-255"/>
<text text-anchor="start" x="88" y="-317.8" font-family="Helvetica,sans-Serif" font-size="9.00">com::github::aptd::</text>
<text text-anchor="start" x="88" y="-307.8" font-family="Helvetica,sans-Serif" font-size="9.00">simulation::elements</text>
<text text-anchor="middle" x="139" y="-297.8" font-family="Helvetica,sans-Serif" font-size="9.00">::graph::IVertex&lt; INode &gt;</text>
<polyline fill="none" stroke="black" points="80,-291 198,-291 "/>
<text text-anchor="middle" x="139" y="-279.8" font-family="Helvetica,sans-Serif" font-size="9.00"> </text>
<polyline fill="none" stroke="black" points="80,-273 198,-273 "/>
<text text-anchor="middle" x="139" y="-261.8" font-family="Helvetica,sans-Serif" font-size="9.00"> </text>
</a>
</g>
</g>
<!-- Node5&#45;&gt;Node4 -->
<g id="edge2" class="edge"><title>Node5&#45;&gt;Node4</title>
<path fill="none" stroke="midnightblue" d="M139,-244.617C139,-232.07 139,-218.788 139,-207.287"/>
<polygon fill="none" stroke="midnightblue" points="135.5,-244.929 139,-254.929 142.5,-244.929 135.5,-244.929"/>
</g>
<!-- Node6 -->
<g id="node4" class="node"><title>Node6</title>
<g id="a_node4"><a xlink:href="../../d7/d7a/interfacecom_1_1github_1_1aptd_1_1simulation_1_1elements_1_1graph_1_1network_1_1IStation.htm" target="_top" xlink:title="{com.github.aptd.simulation.elements.graph.network.\lIStation\&lt;?\&gt;\n||+ gps()\l}">
<polygon fill="none" stroke="black" points="296.5,-143 296.5,-207 525.5,-207 525.5,-143 296.5,-143"/>
<text text-anchor="start" x="304.5" y="-195.8" font-family="Helvetica,sans-Serif" font-size="9.00">com.github.aptd.simulation.elements.graph.network.</text>
<text text-anchor="middle" x="411" y="-185.8" font-family="Helvetica,sans-Serif" font-size="9.00">IStation&lt;?&gt;</text>
<polyline fill="none" stroke="black" points="296.5,-179 525.5,-179 "/>
<text text-anchor="middle" x="411" y="-167.8" font-family="Helvetica,sans-Serif" font-size="9.00"> </text>
<polyline fill="none" stroke="black" points="296.5,-161 525.5,-161 "/>
<text text-anchor="start" x="304.5" y="-149.8" font-family="Helvetica,sans-Serif" font-size="9.00">+ gps()</text>
</a>
</g>
</g>
<!-- Node6&#45;&gt;Node3 -->
<g id="edge3" class="edge"><title>Node6&#45;&gt;Node3</title>
<path fill="none" stroke="#404040" d="M384.275,-142.78C374.413,-131.258 362.915,-117.826 351.755,-104.788"/>
<polygon fill="none" stroke="#404040" points="351.519,-104.513 344.579,-102.556 343.716,-95.3969 350.656,-97.3538 351.519,-104.513"/>
<text text-anchor="middle" x="390" y="-116.8" font-family="Helvetica,sans-Serif" font-size="9.00"> &#45;m_station</text>
</g>
<!-- Node7 -->
<g id="node5" class="node"><title>Node7</title>
<g id="a_node5"><a xlink:href="../../d7/d7a/interfacecom_1_1github_1_1aptd_1_1simulation_1_1elements_1_1graph_1_1network_1_1IStation.htm" target="_top" xlink:title="interface of a node, which is a train station ">
<polygon fill="none" stroke="black" points="296.5,-260 296.5,-324 525.5,-324 525.5,-260 296.5,-260"/>
<text text-anchor="start" x="304.5" y="-312.8" font-family="Helvetica,sans-Serif" font-size="9.00">com.github.aptd.simulation.elements.graph.network.</text>
<text text-anchor="middle" x="411" y="-302.8" font-family="Helvetica,sans-Serif" font-size="9.00">IStation&lt; T extends IStation&lt;?&gt;</text>
<polyline fill="none" stroke="black" points="296.5,-296 525.5,-296 "/>
<text text-anchor="middle" x="411" y="-284.8" font-family="Helvetica,sans-Serif" font-size="9.00"> </text>
<polyline fill="none" stroke="black" points="296.5,-278 525.5,-278 "/>
<text text-anchor="start" x="304.5" y="-266.8" font-family="Helvetica,sans-Serif" font-size="9.00">+ gps()</text>
</a>
</g>
</g>
<!-- Node7&#45;&gt;Node6 -->
<g id="edge4" class="edge"><title>Node7&#45;&gt;Node6</title>
<path fill="none" stroke="orange" d="M411,-249.518C411,-235.54 411,-220.188 411,-207.146"/>
<polygon fill="orange" stroke="orange" points="407.5,-249.879 411,-259.879 414.5,-249.879 407.5,-249.879"/>
<text text-anchor="middle" x="420.5" y="-228.8" font-family="Helvetica,sans-Serif" font-size="9.00"> &lt;?&gt;</text>
</g>
<!-- Node8 -->
<g id="node6" class="node"><title>Node8</title>
<g id="a_node6"><a xlink:href="../../de/d20/interfacecom_1_1github_1_1aptd_1_1simulation_1_1elements_1_1graph_1_1IVertex.htm" target="_top" xlink:title="interface of graph nodes ">
<polygon fill="none" stroke="black" points="324.5,-394 324.5,-468 425.5,-468 425.5,-394 324.5,-394"/>
<text text-anchor="start" x="332.5" y="-456.8" font-family="Helvetica,sans-Serif" font-size="9.00">com::github::aptd::</text>
<text text-anchor="start" x="332.5" y="-446.8" font-family="Helvetica,sans-Serif" font-size="9.00">simulation::elements</text>
<text text-anchor="middle" x="375" y="-436.8" font-family="Helvetica,sans-Serif" font-size="9.00">::graph::IVertex&lt; T &gt;</text>
<polyline fill="none" stroke="black" points="324.5,-430 425.5,-430 "/>
<text text-anchor="middle" x="375" y="-418.8" font-family="Helvetica,sans-Serif" font-size="9.00"> </text>
<polyline fill="none" stroke="black" points="324.5,-412 425.5,-412 "/>
<text text-anchor="middle" x="375" y="-400.8" font-family="Helvetica,sans-Serif" font-size="9.00"> </text>
</a>
</g>
</g>
<!-- Node8&#45;&gt;Node7 -->
<g id="edge5" class="edge"><title>Node8&#45;&gt;Node7</title>
<path fill="none" stroke="midnightblue" d="M387.161,-383.72C392.292,-364.193 398.133,-341.965 402.749,-324.398"/>
<polygon fill="none" stroke="midnightblue" points="383.709,-383.085 384.553,-393.646 390.479,-384.864 383.709,-383.085"/>
</g>
<!-- Node9 -->
<g id="node7" class="node"><title>Node9</title>
<g id="a_node7"><a xlink:href="../../dd/dd7/interfacecom_1_1github_1_1aptd_1_1simulation_1_1elements_1_1IElement.htm" target="_top" xlink:title="any object interface ">
<polygon fill="none" stroke="black" points="443.5,-369 443.5,-493 544.5,-493 544.5,-369 443.5,-369"/>
<text text-anchor="start" x="451.5" y="-481.8" font-family="Helvetica,sans-Serif" font-size="9.00">com::github::aptd::</text>
<text text-anchor="start" x="451.5" y="-471.8" font-family="Helvetica,sans-Serif" font-size="9.00">simulation::elements</text>
<text text-anchor="middle" x="494" y="-461.8" font-family="Helvetica,sans-Serif" font-size="9.00">::IElement&lt; T &gt;</text>
<polyline fill="none" stroke="black" points="443.5,-455 544.5,-455 "/>
<text text-anchor="middle" x="494" y="-443.8" font-family="Helvetica,sans-Serif" font-size="9.00"> </text>
<polyline fill="none" stroke="black" points="443.5,-437 544.5,-437 "/>
<text text-anchor="start" x="451.5" y="-425.8" font-family="Helvetica,sans-Serif" font-size="9.00">+ environment()</text>
<text text-anchor="start" x="451.5" y="-415.8" font-family="Helvetica,sans-Serif" font-size="9.00">+ id()</text>
<text text-anchor="start" x="451.5" y="-405.8" font-family="Helvetica,sans-Serif" font-size="9.00">+ imminent()</text>
<text text-anchor="start" x="451.5" y="-395.8" font-family="Helvetica,sans-Serif" font-size="9.00">+ input()</text>
<text text-anchor="start" x="451.5" y="-385.8" font-family="Helvetica,sans-Serif" font-size="9.00">+ nextactivation()</text>
<text text-anchor="start" x="451.5" y="-375.8" font-family="Helvetica,sans-Serif" font-size="9.00">+ output()</text>
</a>
</g>
</g>
<!-- Node9&#45;&gt;Node7 -->
<g id="edge6" class="edge"><title>Node9&#45;&gt;Node7</title>
<path fill="none" stroke="midnightblue" d="M451.607,-360.026C443.996,-347.463 436.425,-334.966 429.918,-324.227"/>
<polygon fill="none" stroke="midnightblue" points="448.695,-361.973 456.87,-368.713 454.682,-358.346 448.695,-361.973"/>
</g>
<!-- Node10 -->
<g id="node8" class="node"><title>Node10</title>
<g id="a_node8"><a xlink:href="../../d4/d0d/interfacecom_1_1github_1_1aptd_1_1simulation_1_1elements_1_1IPerceiveable.htm" target="_top" xlink:title="any object which be perceived by an agent ">
<polygon fill="none" stroke="black" points="410,-533 410,-607 578,-607 578,-533 410,-533"/>
<text text-anchor="start" x="418" y="-595.8" font-family="Helvetica,sans-Serif" font-size="9.00">com.github.aptd.simulation.elements.</text>
<text text-anchor="middle" x="494" y="-585.8" font-family="Helvetica,sans-Serif" font-size="9.00">IPerceiveable</text>
<polyline fill="none" stroke="black" points="410,-579 578,-579 "/>
<text text-anchor="middle" x="494" y="-567.8" font-family="Helvetica,sans-Serif" font-size="9.00"> </text>
<polyline fill="none" stroke="black" points="410,-561 578,-561 "/>
<text text-anchor="start" x="418" y="-549.8" font-family="Helvetica,sans-Serif" font-size="9.00">+ literal()</text>
<text text-anchor="start" x="418" y="-539.8" font-family="Helvetica,sans-Serif" font-size="9.00">+ literal()</text>
</a>
</g>
</g>
<!-- Node10&#45;&gt;Node9 -->
<g id="edge7" class="edge"><title>Node10&#45;&gt;Node9</title>
<path fill="none" stroke="midnightblue" d="M494,-522.35C494,-512.963 494,-502.963 494,-493.166"/>
<polygon fill="none" stroke="midnightblue" points="490.5,-522.646 494,-532.646 497.5,-522.646 490.5,-522.646"/>
</g>
</g>
</svg>
