<?xml version="1.0" encoding="UTF-8" standalone="no"?>
<!DOCTYPE svg PUBLIC "-//W3C//DTD SVG 1.1//EN"
 "http://www.w3.org/Graphics/SVG/1.1/DTD/svg11.dtd">
<!-- Generated by graphviz version 2.36.0 (20140111.2315)
 -->
<!-- Title: com.github.aptd.simulation.elements.IElement&lt; T extends IAgent&lt;?&gt; Pages: 1 -->
<svg width="174pt" height="236pt"
 viewBox="0.00 0.00 174.00 236.00" xmlns="http://www.w3.org/2000/svg" xmlns:xlink="http://www.w3.org/1999/xlink">
<g id="graph0" class="graph" transform="scale(1 1) rotate(0) translate(4 232)">
<title>com.github.aptd.simulation.elements.IElement&lt; T extends IAgent&lt;?&gt;</title>
<!-- Node56 -->
<g id="node1" class="node"><title>Node56</title>
<polygon fill="#bfbfbf" stroke="black" points="-1,-1 -1,-115 167,-115 167,-1 -1,-1"/>
<text text-anchor="start" x="7" y="-103.8" font-family="Helvetica,sans-Serif" font-size="9.00">com.github.aptd.simulation.elements.</text>
<text text-anchor="middle" x="83" y="-93.8" font-family="Helvetica,sans-Serif" font-size="9.00">IElement&lt; T extends IAgent&lt;?&gt;</text>
<polyline fill="none" stroke="black" points="-1,-87 167,-87 "/>
<text text-anchor="middle" x="83" y="-75.8" font-family="Helvetica,sans-Serif" font-size="9.00"> </text>
<polyline fill="none" stroke="black" points="-1,-69 167,-69 "/>
<text text-anchor="start" x="7" y="-57.8" font-family="Helvetica,sans-Serif" font-size="9.00">+ environment()</text>
<text text-anchor="start" x="7" y="-47.8" font-family="Helvetica,sans-Serif" font-size="9.00">+ id()</text>
<text text-anchor="start" x="7" y="-37.8" font-family="Helvetica,sans-Serif" font-size="9.00">+ imminent()</text>
<text text-anchor="start" x="7" y="-27.8" font-family="Helvetica,sans-Serif" font-size="9.00">+ input()</text>
<text text-anchor="start" x="7" y="-17.8" font-family="Helvetica,sans-Serif" font-size="9.00">+ nextactivation()</text>
<text text-anchor="start" x="7" y="-7.8" font-family="Helvetica,sans-Serif" font-size="9.00">+ output()</text>
</g>
<!-- Node57 -->
<g id="node2" class="node"><title>Node57</title>
<g id="a_node2"><a xlink:href="../../d4/d0d/interfacecom_1_1github_1_1aptd_1_1simulation_1_1elements_1_1IPerceiveable.htm" target="_top" xlink:title="any object which be perceived by an agent ">
<polygon fill="none" stroke="black" points="-1,-153 -1,-227 167,-227 167,-153 -1,-153"/>
<text text-anchor="start" x="7" y="-215.8" font-family="Helvetica,sans-Serif" font-size="9.00">com.github.aptd.simulation.elements.</text>
<text text-anchor="middle" x="83" y="-205.8" font-family="Helvetica,sans-Serif" font-size="9.00">IPerceiveable</text>
<polyline fill="none" stroke="black" points="-1,-199 167,-199 "/>
<text text-anchor="middle" x="83" y="-187.8" font-family="Helvetica,sans-Serif" font-size="9.00"> </text>
<polyline fill="none" stroke="black" points="-1,-181 167,-181 "/>
<text text-anchor="start" x="7" y="-169.8" font-family="Helvetica,sans-Serif" font-size="9.00">+ literal()</text>
<text text-anchor="start" x="7" y="-159.8" font-family="Helvetica,sans-Serif" font-size="9.00">+ literal()</text>
</a>
</g>
</g>
<!-- Node57&#45;&gt;Node56 -->
<g id="edge1" class="edge"><title>Node57&#45;&gt;Node56</title>
<path fill="none" stroke="midnightblue" d="M83,-142.708C83,-133.887 83,-124.564 83,-115.467"/>
<polygon fill="none" stroke="midnightblue" points="79.5001,-142.788 83,-152.788 86.5001,-142.788 79.5001,-142.788"/>
</g>
</g>
</svg>
