<?xml version="1.0" encoding="UTF-8" standalone="no"?>
<!DOCTYPE svg PUBLIC "-//W3C//DTD SVG 1.1//EN"
 "http://www.w3.org/Graphics/SVG/1.1/DTD/svg11.dtd">
<!-- Generated by graphviz version 2.36.0 (20140111.2315)
 -->
<!-- Title: com.github.aptd.simulation.core.writer.IWriter.value Pages: 1 -->
<svg width="662pt" height="36pt"
 viewBox="0.00 0.00 662.00 36.00" xmlns="http://www.w3.org/2000/svg" xmlns:xlink="http://www.w3.org/1999/xlink">
<g id="graph0" class="graph" transform="scale(1 1) rotate(0) translate(4 32)">
<title>com.github.aptd.simulation.core.writer.IWriter.value</title>
<!-- Node7 -->
<g id="node1" class="node"><title>Node7</title>
<polygon fill="#bfbfbf" stroke="black" points="0.5,-0 0.5,-28 173.5,-28 173.5,-0 0.5,-0"/>
<text text-anchor="start" x="8.5" y="-16.8" font-family="Helvetica,sans-Serif" font-size="9.00">com.github.aptd.simulation.core.writer.</text>
<text text-anchor="middle" x="87" y="-6.8" font-family="Helvetica,sans-Serif" font-size="9.00">IWriter.value</text>
</g>
<!-- Node8 -->
<g id="node2" class="node"><title>Node8</title>
<g id="a_node2"><a xlink:href="../../de/d3a/classcom_1_1github_1_1aptd_1_1simulation_1_1core_1_1statistic_1_1local_1_1CStatistic.htm#a2b412f2fbd71f943d2b4b3d25d39c14c" target="_top" xlink:title="write data ">
<polygon fill="none" stroke="black" points="210.5,-0 210.5,-28 413.5,-28 413.5,-0 210.5,-0"/>
<text text-anchor="start" x="218.5" y="-16.8" font-family="Helvetica,sans-Serif" font-size="9.00">com.github.aptd.simulation.core.statistic.local.</text>
<text text-anchor="middle" x="312" y="-6.8" font-family="Helvetica,sans-Serif" font-size="9.00">CStatistic.apply</text>
</a>
</g>
</g>
<!-- Node7&#45;&gt;Node8 -->
<g id="edge1" class="edge"><title>Node7&#45;&gt;Node8</title>
<path fill="none" stroke="midnightblue" d="M183.824,-14C192.614,-14 201.536,-14 210.367,-14"/>
<polygon fill="midnightblue" stroke="midnightblue" points="183.58,-10.5001 173.58,-14 183.58,-17.5001 183.58,-10.5001"/>
</g>
<!-- Node9 -->
<g id="node3" class="node"><title>Node9</title>
<g id="a_node3"><a xlink:href="../../de/d3a/classcom_1_1github_1_1aptd_1_1simulation_1_1core_1_1statistic_1_1local_1_1CStatistic.htm#a1c4fc071c9aa39881c50db715631d327" target="_top" xlink:title="export statistic data ">
<polygon fill="none" stroke="black" points="450.5,-0 450.5,-28 653.5,-28 653.5,-0 450.5,-0"/>
<text text-anchor="start" x="458.5" y="-16.8" font-family="Helvetica,sans-Serif" font-size="9.00">com.github.aptd.simulation.core.statistic.local.</text>
<text text-anchor="middle" x="552" y="-6.8" font-family="Helvetica,sans-Serif" font-size="9.00">CStatistic.write</text>
</a>
</g>
</g>
<!-- Node8&#45;&gt;Node9 -->
<g id="edge2" class="edge"><title>Node8&#45;&gt;Node9</title>
<path fill="none" stroke="midnightblue" d="M423.628,-14C432.553,-14 441.541,-14 450.39,-14"/>
<polygon fill="midnightblue" stroke="midnightblue" points="423.588,-10.5001 413.588,-14 423.588,-17.5001 423.588,-10.5001"/>
</g>
</g>
</svg>
