<?xml version="1.0" encoding="UTF-8" standalone="no"?>
<!DOCTYPE svg PUBLIC "-//W3C//DTD SVG 1.1//EN"
 "http://www.w3.org/Graphics/SVG/1.1/DTD/svg11.dtd">
<!-- Generated by graphviz version 2.36.0 (20140111.2315)
 -->
<!-- Title: com.github.aptd.simulation.TestCLanguageLabels.CJavaVistor.visit Pages: 1 -->
<svg width="652pt" height="36pt"
 viewBox="0.00 0.00 652.00 36.00" xmlns="http://www.w3.org/2000/svg" xmlns:xlink="http://www.w3.org/1999/xlink">
<g id="graph0" class="graph" transform="scale(1 1) rotate(0) translate(4 32)">
<title>com.github.aptd.simulation.TestCLanguageLabels.CJavaVistor.visit</title>
<!-- Node18 -->
<g id="node1" class="node"><title>Node18</title>
<polygon fill="#bfbfbf" stroke="black" points="0,-0 0,-28 180,-28 180,-0 0,-0"/>
<text text-anchor="start" x="8" y="-16.8" font-family="Helvetica,sans-Serif" font-size="9.00">com.github.aptd.simulation.</text>
<text text-anchor="middle" x="90" y="-6.8" font-family="Helvetica,sans-Serif" font-size="9.00">TestCLanguageLabels.CJavaVistor.visit</text>
</g>
<!-- Node19 -->
<g id="node2" class="node"><title>Node19</title>
<g id="a_node2"><a xlink:href="../../d1/d29/classcom_1_1github_1_1aptd_1_1simulation_1_1TestCLanguageLabels_1_1CJavaVistor.htm#a68458cacbc131396798b3b2abce8bc53" target="_top" xlink:title="gets the class name and label name ">
<polygon fill="none" stroke="black" points="216.5,-0 216.5,-28 401.5,-28 401.5,-0 216.5,-0"/>
<text text-anchor="start" x="224.5" y="-16.8" font-family="Helvetica,sans-Serif" font-size="9.00">com.github.aptd.simulation.</text>
<text text-anchor="middle" x="309" y="-6.8" font-family="Helvetica,sans-Serif" font-size="9.00">TestCLanguageLabels.CJavaVistor.label</text>
</a>
</g>
</g>
<!-- Node18&#45;&gt;Node19 -->
<g id="edge1" class="edge"><title>Node18&#45;&gt;Node19</title>
<path fill="none" stroke="midnightblue" d="M180.202,-14C188.772,-14 197.508,-14 206.186,-14"/>
<polygon fill="midnightblue" stroke="midnightblue" points="206.335,-17.5001 216.335,-14 206.335,-10.5001 206.335,-17.5001"/>
</g>
<!-- Node20 -->
<g id="node3" class="node"><title>Node20</title>
<g id="a_node3"><a xlink:href="../../d1/d29/classcom_1_1github_1_1aptd_1_1simulation_1_1TestCLanguageLabels_1_1CJavaVistor.htm#a73b561d0f0051556c6da16008963fa46" target="_top" xlink:title="returns full qualified class name (inner &amp; outer class) ">
<polygon fill="none" stroke="black" points="438.5,-0 438.5,-28 643.5,-28 643.5,-0 438.5,-0"/>
<text text-anchor="start" x="446.5" y="-16.8" font-family="Helvetica,sans-Serif" font-size="9.00">com.github.aptd.simulation.</text>
<text text-anchor="middle" x="541" y="-6.8" font-family="Helvetica,sans-Serif" font-size="9.00">TestCLanguageLabels.CJavaVistor.buildlabel</text>
</a>
</g>
</g>
<!-- Node19&#45;&gt;Node20 -->
<g id="edge2" class="edge"><title>Node19&#45;&gt;Node20</title>
<path fill="none" stroke="midnightblue" d="M401.563,-14C410.301,-14 419.227,-14 428.128,-14"/>
<polygon fill="midnightblue" stroke="midnightblue" points="428.156,-17.5001 438.156,-14 428.156,-10.5001 428.156,-17.5001"/>
</g>
</g>
</svg>
