<?xml version="1.0" encoding="UTF-8" standalone="no"?>
<!DOCTYPE svg PUBLIC "-//W3C//DTD SVG 1.1//EN"
 "http://www.w3.org/Graphics/SVG/1.1/DTD/svg11.dtd">
<!-- Generated by graphviz version 2.36.0 (20140111.2315)
 -->
<!-- Title: com.github.aptd.simulation.core.messaging.IMessage.sender Pages: 1 -->
<svg width="652pt" height="36pt"
 viewBox="0.00 0.00 652.00 36.00" xmlns="http://www.w3.org/2000/svg" xmlns:xlink="http://www.w3.org/1999/xlink">
<g id="graph0" class="graph" transform="scale(1 1) rotate(0) translate(4 32)">
<title>com.github.aptd.simulation.core.messaging.IMessage.sender</title>
<!-- Node5 -->
<g id="node1" class="node"><title>Node5</title>
<polygon fill="#bfbfbf" stroke="black" points="0,-0 0,-28 196,-28 196,-0 0,-0"/>
<text text-anchor="start" x="8" y="-16.8" font-family="Helvetica,sans-Serif" font-size="9.00">com.github.aptd.simulation.core.messaging.</text>
<text text-anchor="middle" x="98" y="-6.8" font-family="Helvetica,sans-Serif" font-size="9.00">IMessage.sender</text>
</g>
<!-- Node6 -->
<g id="node2" class="node"><title>Node6</title>
<g id="a_node2"><a xlink:href="../../d1/d3a/classcom_1_1github_1_1aptd_1_1simulation_1_1elements_1_1train_1_1CDoor.htm#a3b7a4e4d9b0b5d0aae227d73de077539" target="_top" xlink:title="com.github.aptd.simulation.elements.train.\lCDoor.passengerfinished">
<polygon fill="none" stroke="black" points="232,-0 232,-28 420,-28 420,-0 232,-0"/>
<text text-anchor="start" x="240" y="-16.8" font-family="Helvetica,sans-Serif" font-size="9.00">com.github.aptd.simulation.elements.train.</text>
<text text-anchor="middle" x="326" y="-6.8" font-family="Helvetica,sans-Serif" font-size="9.00">CDoor.passengerfinished</text>
</a>
</g>
</g>
<!-- Node5&#45;&gt;Node6 -->
<g id="edge1" class="edge"><title>Node5&#45;&gt;Node6</title>
<path fill="none" stroke="midnightblue" d="M206.194,-14C214.772,-14 223.395,-14 231.864,-14"/>
<polygon fill="midnightblue" stroke="midnightblue" points="206.156,-10.5001 196.156,-14 206.156,-17.5001 206.156,-10.5001"/>
</g>
<!-- Node7 -->
<g id="node3" class="node"><title>Node7</title>
<g id="a_node3"><a xlink:href="../../d1/d3a/classcom_1_1github_1_1aptd_1_1simulation_1_1elements_1_1train_1_1CDoor.htm#a340a49abfb1fb1f4103395e8acd90409" target="_top" xlink:title="com.github.aptd.simulation.elements.train.\lCDoor.updatestate">
<polygon fill="none" stroke="black" points="456,-0 456,-28 644,-28 644,-0 456,-0"/>
<text text-anchor="start" x="464" y="-16.8" font-family="Helvetica,sans-Serif" font-size="9.00">com.github.aptd.simulation.elements.train.</text>
<text text-anchor="middle" x="550" y="-6.8" font-family="Helvetica,sans-Serif" font-size="9.00">CDoor.updatestate</text>
</a>
</g>
</g>
<!-- Node6&#45;&gt;Node7 -->
<g id="edge2" class="edge"><title>Node6&#45;&gt;Node7</title>
<path fill="none" stroke="midnightblue" d="M430.425,-14C438.857,-14 447.347,-14 455.7,-14"/>
<polygon fill="midnightblue" stroke="midnightblue" points="430.183,-10.5001 420.183,-14 430.183,-17.5001 430.183,-10.5001"/>
</g>
</g>
</svg>
