<?xml version="1.0" encoding="UTF-8" standalone="no"?>
<!DOCTYPE svg PUBLIC "-//W3C//DTD SVG 1.1//EN"
 "http://www.w3.org/Graphics/SVG/1.1/DTD/svg11.dtd">
<!-- Generated by graphviz version 2.36.0 (20140111.2315)
 -->
<!-- Title: com.github.aptd.simulation.core.time.IBaseTime Pages: 1 -->
<svg width="406pt" height="610pt"
 viewBox="0.00 0.00 406.00 610.00" xmlns="http://www.w3.org/2000/svg" xmlns:xlink="http://www.w3.org/1999/xlink">
<g id="graph0" class="graph" transform="scale(1 1) rotate(0) translate(4 606)">
<title>com.github.aptd.simulation.core.time.IBaseTime</title>
<!-- Node0 -->
<g id="node1" class="node"><title>Node0</title>
<polygon fill="#bfbfbf" stroke="black" points="115,-173 115,-347 283,-347 283,-173 115,-173"/>
<text text-anchor="start" x="123" y="-335.8" font-family="Helvetica,sans-Serif" font-size="9.00">com.github.aptd.simulation.core.time.</text>
<text text-anchor="middle" x="199" y="-325.8" font-family="Helvetica,sans-Serif" font-size="9.00">IBaseTime</text>
<polyline fill="none" stroke="black" points="115,-319 283,-319 "/>
<text text-anchor="start" x="123" y="-307.8" font-family="Helvetica,sans-Serif" font-size="9.00"># m_currenttime</text>
<text text-anchor="start" x="123" y="-297.8" font-family="Helvetica,sans-Serif" font-size="9.00"># m_stepcount</text>
<text text-anchor="start" x="123" y="-287.8" font-family="Helvetica,sans-Serif" font-size="9.00"># m_steplimit</text>
<text text-anchor="start" x="123" y="-277.8" font-family="Helvetica,sans-Serif" font-size="9.00">&#45; m_zone</text>
<polyline fill="none" stroke="black" points="115,-271 283,-271 "/>
<text text-anchor="start" x="123" y="-259.8" font-family="Helvetica,sans-Serif" font-size="9.00">+ active()</text>
<text text-anchor="start" x="123" y="-249.8" font-family="Helvetica,sans-Serif" font-size="9.00">+ addagent()</text>
<text text-anchor="start" x="123" y="-239.8" font-family="Helvetica,sans-Serif" font-size="9.00">+ call()</text>
<text text-anchor="start" x="123" y="-229.8" font-family="Helvetica,sans-Serif" font-size="9.00">+ current()</text>
<text text-anchor="start" x="123" y="-219.8" font-family="Helvetica,sans-Serif" font-size="9.00">+ literal()</text>
<text text-anchor="start" x="123" y="-209.8" font-family="Helvetica,sans-Serif" font-size="9.00">+ literal()</text>
<text text-anchor="start" x="123" y="-199.8" font-family="Helvetica,sans-Serif" font-size="9.00">+ raw()</text>
<text text-anchor="start" x="123" y="-189.8" font-family="Helvetica,sans-Serif" font-size="9.00">+ removeagent()</text>
<text text-anchor="start" x="123" y="-179.8" font-family="Helvetica,sans-Serif" font-size="9.00"># IBaseTime()</text>
</g>
<!-- Node3 -->
<g id="node4" class="node"><title>Node3</title>
<g id="a_node4"><a xlink:href="../../dd/d49/classcom_1_1github_1_1aptd_1_1simulation_1_1core_1_1time_1_1local_1_1CJumpTime.htm" target="_top" xlink:title="Time mechanism for discrete time advancing to the minimum next activation time of all agents (may rem...">
<polygon fill="none" stroke="black" points="0,-1 0,-135 190,-135 190,-1 0,-1"/>
<text text-anchor="start" x="8" y="-123.8" font-family="Helvetica,sans-Serif" font-size="9.00">com.github.aptd.simulation.core.time.local.</text>
<text text-anchor="middle" x="95" y="-113.8" font-family="Helvetica,sans-Serif" font-size="9.00">CJumpTime</text>
<polyline fill="none" stroke="black" points="0,-107 190,-107 "/>
<text text-anchor="start" x="8" y="-95.8" font-family="Helvetica,sans-Serif" font-size="9.00">&#45; m_active</text>
<text text-anchor="start" x="8" y="-85.8" font-family="Helvetica,sans-Serif" font-size="9.00">&#45; m_elements</text>
<text text-anchor="start" x="8" y="-75.8" font-family="Helvetica,sans-Serif" font-size="9.00">&#45; m_factory</text>
<polyline fill="none" stroke="black" points="0,-69 190,-69 "/>
<text text-anchor="start" x="8" y="-57.8" font-family="Helvetica,sans-Serif" font-size="9.00">+ CJumpTime()</text>
<text text-anchor="start" x="8" y="-47.8" font-family="Helvetica,sans-Serif" font-size="9.00">+ CJumpTime()</text>
<text text-anchor="start" x="8" y="-37.8" font-family="Helvetica,sans-Serif" font-size="9.00">+ active()</text>
<text text-anchor="start" x="8" y="-27.8" font-family="Helvetica,sans-Serif" font-size="9.00">+ addagent()</text>
<text text-anchor="start" x="8" y="-17.8" font-family="Helvetica,sans-Serif" font-size="9.00">+ call()</text>
<text text-anchor="start" x="8" y="-7.8" font-family="Helvetica,sans-Serif" font-size="9.00">+ removeagent()</text>
</a>
</g>
</g>
<!-- Node0&#45;&gt;Node3 -->
<g id="edge3" class="edge"><title>Node0&#45;&gt;Node3</title>
<path fill="none" stroke="midnightblue" d="M146.981,-163.965C141.652,-154.23 136.324,-144.495 131.219,-135.169"/>
<polygon fill="none" stroke="midnightblue" points="143.997,-165.803 151.869,-172.895 150.137,-162.442 143.997,-165.803"/>
</g>
<!-- Node4 -->
<g id="node5" class="node"><title>Node4</title>
<g id="a_node5"><a xlink:href="../../d9/dca/classcom_1_1github_1_1aptd_1_1simulation_1_1core_1_1time_1_1local_1_1CStepTime.htm" target="_top" xlink:title="Time mechanism for discrete time advancing with simulation steps (one advance per &quot;call()&quot; invocation...">
<polygon fill="none" stroke="black" points="208,-16 208,-120 398,-120 398,-16 208,-16"/>
<text text-anchor="start" x="216" y="-108.8" font-family="Helvetica,sans-Serif" font-size="9.00">com.github.aptd.simulation.core.time.local.</text>
<text text-anchor="middle" x="303" y="-98.8" font-family="Helvetica,sans-Serif" font-size="9.00">CStepTime</text>
<polyline fill="none" stroke="black" points="208,-92 398,-92 "/>
<text text-anchor="start" x="216" y="-80.8" font-family="Helvetica,sans-Serif" font-size="9.00">&#45; m_stepsize</text>
<polyline fill="none" stroke="black" points="208,-74 398,-74 "/>
<text text-anchor="start" x="216" y="-62.8" font-family="Helvetica,sans-Serif" font-size="9.00">+ CStepTime()</text>
<text text-anchor="start" x="216" y="-52.8" font-family="Helvetica,sans-Serif" font-size="9.00">+ CStepTime()</text>
<text text-anchor="start" x="216" y="-42.8" font-family="Helvetica,sans-Serif" font-size="9.00">+ call()</text>
<text text-anchor="start" x="216" y="-32.8" font-family="Helvetica,sans-Serif" font-size="9.00">+ stepsize()</text>
<text text-anchor="start" x="216" y="-22.8" font-family="Helvetica,sans-Serif" font-size="9.00">+ stepsize()</text>
</a>
</g>
</g>
<!-- Node0&#45;&gt;Node4 -->
<g id="edge4" class="edge"><title>Node0&#45;&gt;Node4</title>
<path fill="none" stroke="midnightblue" d="M251.011,-163.979C259.31,-148.818 267.609,-133.657 275.062,-120.041"/>
<polygon fill="none" stroke="midnightblue" points="247.863,-162.442 246.131,-172.895 254.003,-165.803 247.863,-162.442"/>
</g>
<!-- Node1 -->
<g id="node2" class="node"><title>Node1</title>
<g id="a_node2"><a xlink:href="../../db/d65/interfacecom_1_1github_1_1aptd_1_1simulation_1_1core_1_1time_1_1ITime.htm" target="_top" xlink:title="time interface ">
<polygon fill="none" stroke="black" points="115,-385 115,-489 283,-489 283,-385 115,-385"/>
<text text-anchor="start" x="123" y="-477.8" font-family="Helvetica,sans-Serif" font-size="9.00">com.github.aptd.simulation.core.time.</text>
<text text-anchor="middle" x="199" y="-467.8" font-family="Helvetica,sans-Serif" font-size="9.00">ITime</text>
<polyline fill="none" stroke="black" points="115,-461 283,-461 "/>
<text text-anchor="middle" x="199" y="-449.8" font-family="Helvetica,sans-Serif" font-size="9.00"> </text>
<polyline fill="none" stroke="black" points="115,-443 283,-443 "/>
<text text-anchor="start" x="123" y="-431.8" font-family="Helvetica,sans-Serif" font-size="9.00">+ active()</text>
<text text-anchor="start" x="123" y="-421.8" font-family="Helvetica,sans-Serif" font-size="9.00">+ addagent()</text>
<text text-anchor="start" x="123" y="-411.8" font-family="Helvetica,sans-Serif" font-size="9.00">+ current()</text>
<text text-anchor="start" x="123" y="-401.8" font-family="Helvetica,sans-Serif" font-size="9.00">+ raw()</text>
<text text-anchor="start" x="123" y="-391.8" font-family="Helvetica,sans-Serif" font-size="9.00">+ removeagent()</text>
</a>
</g>
</g>
<!-- Node1&#45;&gt;Node0 -->
<g id="edge1" class="edge"><title>Node1&#45;&gt;Node0</title>
<path fill="none" stroke="midnightblue" d="M199,-374.633C199,-365.699 199,-356.365 199,-347.052"/>
<polygon fill="none" stroke="midnightblue" points="195.5,-374.912 199,-384.912 202.5,-374.912 195.5,-374.912"/>
</g>
<!-- Node2 -->
<g id="node3" class="node"><title>Node2</title>
<g id="a_node3"><a xlink:href="../../d4/d0d/interfacecom_1_1github_1_1aptd_1_1simulation_1_1elements_1_1IPerceiveable.htm" target="_top" xlink:title="any object which be perceived by an agent ">
<polygon fill="none" stroke="black" points="115,-527 115,-601 283,-601 283,-527 115,-527"/>
<text text-anchor="start" x="123" y="-589.8" font-family="Helvetica,sans-Serif" font-size="9.00">com.github.aptd.simulation.elements.</text>
<text text-anchor="middle" x="199" y="-579.8" font-family="Helvetica,sans-Serif" font-size="9.00">IPerceiveable</text>
<polyline fill="none" stroke="black" points="115,-573 283,-573 "/>
<text text-anchor="middle" x="199" y="-561.8" font-family="Helvetica,sans-Serif" font-size="9.00"> </text>
<polyline fill="none" stroke="black" points="115,-555 283,-555 "/>
<text text-anchor="start" x="123" y="-543.8" font-family="Helvetica,sans-Serif" font-size="9.00">+ literal()</text>
<text text-anchor="start" x="123" y="-533.8" font-family="Helvetica,sans-Serif" font-size="9.00">+ literal()</text>
</a>
</g>
</g>
<!-- Node2&#45;&gt;Node1 -->
<g id="edge2" class="edge"><title>Node2&#45;&gt;Node1</title>
<path fill="none" stroke="midnightblue" d="M199,-516.68C199,-507.797 199,-498.446 199,-489.414"/>
<polygon fill="none" stroke="midnightblue" points="195.5,-516.845 199,-526.845 202.5,-516.845 195.5,-516.845"/>
</g>
</g>
</svg>
