<?xml version="1.0" encoding="UTF-8" standalone="no"?>
<!DOCTYPE svg PUBLIC "-//W3C//DTD SVG 1.1//EN"
 "http://www.w3.org/Graphics/SVG/1.1/DTD/svg11.dtd">
<!-- Generated by graphviz version 2.36.0 (20140111.2315)
 -->
<!-- Title: com.github.aptd.simulation.core.messaging.local.CMessenger.call Pages: 1 -->
<svg width="480pt" height="224pt"
 viewBox="0.00 0.00 480.00 224.00" xmlns="http://www.w3.org/2000/svg" xmlns:xlink="http://www.w3.org/1999/xlink">
<g id="graph0" class="graph" transform="scale(1 1) rotate(0) translate(4 220)">
<title>com.github.aptd.simulation.core.messaging.local.CMessenger.call</title>
<!-- Node0 -->
<g id="node1" class="node"><title>Node0</title>
<polygon fill="#bfbfbf" stroke="black" points="0,-94 0,-122 218,-122 218,-94 0,-94"/>
<text text-anchor="start" x="8" y="-110.8" font-family="Helvetica,sans-Serif" font-size="9.00">com.github.aptd.simulation.core.messaging.local.</text>
<text text-anchor="middle" x="109" y="-100.8" font-family="Helvetica,sans-Serif" font-size="9.00">CMessenger.call</text>
</g>
<!-- Node1 -->
<g id="node2" class="node"><title>Node1</title>
<g id="a_node2"><a xlink:href="../../de/d57/interfacecom_1_1github_1_1aptd_1_1simulation_1_1core_1_1experiment_1_1IExperiment.htm#a0b42e540d97b9b94191383ee3181d253" target="_top" xlink:title="com.github.aptd.simulation.core.experiment.\lIExperiment.getAgent">
<polygon fill="none" stroke="black" points="264.5,-188 264.5,-216 461.5,-216 461.5,-188 264.5,-188"/>
<text text-anchor="start" x="272.5" y="-204.8" font-family="Helvetica,sans-Serif" font-size="9.00">com.github.aptd.simulation.core.experiment.</text>
<text text-anchor="middle" x="363" y="-194.8" font-family="Helvetica,sans-Serif" font-size="9.00">IExperiment.getAgent</text>
</a>
</g>
</g>
<!-- Node0&#45;&gt;Node1 -->
<g id="edge1" class="edge"><title>Node0&#45;&gt;Node1</title>
<path fill="none" stroke="midnightblue" d="M134.471,-122.097C162.53,-137.732 210.299,-162.759 254,-178 261.756,-180.705 269.935,-183.176 278.178,-185.416"/>
<polygon fill="midnightblue" stroke="midnightblue" points="277.304,-188.805 287.864,-187.939 279.069,-182.031 277.304,-188.805"/>
</g>
<!-- Node2 -->
<g id="node3" class="node"><title>Node2</title>
<g id="a_node3"><a xlink:href="../../dd/dd7/interfacecom_1_1github_1_1aptd_1_1simulation_1_1elements_1_1IElement.htm#a40a0dd927c6de7a8f061b460c621e301" target="_top" xlink:title="com.github.aptd.simulation.elements.\lIElement.imminent">
<polygon fill="none" stroke="black" points="279,-141 279,-169 447,-169 447,-141 279,-141"/>
<text text-anchor="start" x="287" y="-157.8" font-family="Helvetica,sans-Serif" font-size="9.00">com.github.aptd.simulation.elements.</text>
<text text-anchor="middle" x="363" y="-147.8" font-family="Helvetica,sans-Serif" font-size="9.00">IElement.imminent</text>
</a>
</g>
</g>
<!-- Node0&#45;&gt;Node2 -->
<g id="edge2" class="edge"><title>Node0&#45;&gt;Node2</title>
<path fill="none" stroke="midnightblue" d="M185.267,-122.038C214.064,-127.409 247.104,-133.571 276.767,-139.103"/>
<polygon fill="midnightblue" stroke="midnightblue" points="276.213,-142.56 286.686,-140.953 277.497,-135.679 276.213,-142.56"/>
</g>
<!-- Node3 -->
<g id="node4" class="node"><title>Node3</title>
<g id="a_node4"><a xlink:href="../../de/d57/interfacecom_1_1github_1_1aptd_1_1simulation_1_1core_1_1experiment_1_1IExperiment.htm#a505ca5d6926a5f898ecaac449376c0c9" target="_top" xlink:title="returns a stream of all executable objects ">
<polygon fill="none" stroke="black" points="264.5,-94 264.5,-122 461.5,-122 461.5,-94 264.5,-94"/>
<text text-anchor="start" x="272.5" y="-110.8" font-family="Helvetica,sans-Serif" font-size="9.00">com.github.aptd.simulation.core.experiment.</text>
<text text-anchor="middle" x="363" y="-100.8" font-family="Helvetica,sans-Serif" font-size="9.00">IExperiment.objects</text>
</a>
</g>
</g>
<!-- Node0&#45;&gt;Node3 -->
<g id="edge3" class="edge"><title>Node0&#45;&gt;Node3</title>
<path fill="none" stroke="midnightblue" d="M218.333,-108C230.198,-108 242.277,-108 254.137,-108"/>
<polygon fill="midnightblue" stroke="midnightblue" points="254.491,-111.5 264.491,-108 254.491,-104.5 254.491,-111.5"/>
</g>
<!-- Node4 -->
<g id="node5" class="node"><title>Node4</title>
<g id="a_node5"><a xlink:href="../../d7/dff/classcom_1_1github_1_1aptd_1_1simulation_1_1core_1_1messaging_1_1local_1_1CMessenger.htm#a1ff0775a689f70efe8313822849d958a" target="_top" xlink:title="com.github.aptd.simulation.core.messaging.local.\lCMessenger.optionalfilteredstream">
<polygon fill="none" stroke="black" points="254,-47 254,-75 472,-75 472,-47 254,-47"/>
<text text-anchor="start" x="262" y="-63.8" font-family="Helvetica,sans-Serif" font-size="9.00">com.github.aptd.simulation.core.messaging.local.</text>
<text text-anchor="middle" x="363" y="-53.8" font-family="Helvetica,sans-Serif" font-size="9.00">CMessenger.optionalfilteredstream</text>
</a>
</g>
</g>
<!-- Node0&#45;&gt;Node4 -->
<g id="edge4" class="edge"><title>Node0&#45;&gt;Node4</title>
<path fill="none" stroke="midnightblue" d="M185.267,-93.9621C214.064,-88.5913 247.104,-82.4289 276.767,-76.8967"/>
<polygon fill="midnightblue" stroke="midnightblue" points="277.497,-80.3209 286.686,-75.0467 276.213,-73.4396 277.497,-80.3209"/>
</g>
<!-- Node5 -->
<g id="node6" class="node"><title>Node5</title>
<g id="a_node6"><a xlink:href="../../dd/dd7/interfacecom_1_1github_1_1aptd_1_1simulation_1_1elements_1_1IElement.htm#a48a8bcbd1c60f4a8054ce409cc49feb4" target="_top" xlink:title="get pending output messages ">
<polygon fill="none" stroke="black" points="279,-0 279,-28 447,-28 447,-0 279,-0"/>
<text text-anchor="start" x="287" y="-16.8" font-family="Helvetica,sans-Serif" font-size="9.00">com.github.aptd.simulation.elements.</text>
<text text-anchor="middle" x="363" y="-6.8" font-family="Helvetica,sans-Serif" font-size="9.00">IElement.output</text>
</a>
</g>
</g>
<!-- Node0&#45;&gt;Node5 -->
<g id="edge5" class="edge"><title>Node0&#45;&gt;Node5</title>
<path fill="none" stroke="midnightblue" d="M134.471,-93.9035C162.53,-78.2675 210.299,-53.2413 254,-38 261.756,-35.295 269.935,-32.824 278.178,-30.5843"/>
<polygon fill="midnightblue" stroke="midnightblue" points="279.069,-33.9691 287.864,-28.0612 277.304,-27.1952 279.069,-33.9691"/>
</g>
</g>
</svg>
