<?xml version="1.0" encoding="UTF-8" standalone="no"?>
<!DOCTYPE svg PUBLIC "-//W3C//DTD SVG 1.1//EN"
 "http://www.w3.org/Graphics/SVG/1.1/DTD/svg11.dtd">
<!-- Generated by graphviz version 2.36.0 (20140111.2315)
 -->
<!-- Title: com.github.aptd.simulation.elements.train.IWagon&lt; T extends IWagon&lt;?&gt; Pages: 1 -->
<svg width="196pt" height="768pt"
 viewBox="0.00 0.00 196.00 768.00" xmlns="http://www.w3.org/2000/svg" xmlns:xlink="http://www.w3.org/1999/xlink">
<g id="graph0" class="graph" transform="scale(1 1) rotate(0) translate(4 764)">
<title>com.github.aptd.simulation.elements.train.IWagon&lt; T extends IWagon&lt;?&gt;</title>
<!-- Node0 -->
<g id="node1" class="node"><title>Node0</title>
<polygon fill="#bfbfbf" stroke="black" points="0,-367 0,-481 188,-481 188,-367 0,-367"/>
<text text-anchor="start" x="8" y="-469.8" font-family="Helvetica,sans-Serif" font-size="9.00">com.github.aptd.simulation.elements.train.</text>
<text text-anchor="middle" x="94" y="-459.8" font-family="Helvetica,sans-Serif" font-size="9.00">IWagon&lt; T extends IWagon&lt;?&gt;</text>
<polyline fill="none" stroke="black" points="0,-453 188,-453 "/>
<text text-anchor="middle" x="94" y="-441.8" font-family="Helvetica,sans-Serif" font-size="9.00"> </text>
<polyline fill="none" stroke="black" points="0,-435 188,-435 "/>
<text text-anchor="start" x="8" y="-423.8" font-family="Helvetica,sans-Serif" font-size="9.00">+ add()</text>
<text text-anchor="start" x="8" y="-413.8" font-family="Helvetica,sans-Serif" font-size="9.00">+ announcement()</text>
<text text-anchor="start" x="8" y="-403.8" font-family="Helvetica,sans-Serif" font-size="9.00">+ free()</text>
<text text-anchor="start" x="8" y="-393.8" font-family="Helvetica,sans-Serif" font-size="9.00">+ passenger()</text>
<text text-anchor="start" x="8" y="-383.8" font-family="Helvetica,sans-Serif" font-size="9.00">+ remove()</text>
<text text-anchor="start" x="8" y="-373.8" font-family="Helvetica,sans-Serif" font-size="9.00">+ size()</text>
</g>
<!-- Node3 -->
<g id="node4" class="node"><title>Node3</title>
<g id="a_node4"><a xlink:href="../../d6/d59/interfacecom_1_1github_1_1aptd_1_1simulation_1_1elements_1_1train_1_1IWagon.htm" target="_top" xlink:title="{com.github.aptd.simulation.elements.train.\lIWagon\&lt; IWagon\&lt;?\&gt; \&gt;\n||+ add()\l+ announcement()\l+ free()\l+ passenger()\l+ remove()\l+ size()\l}">
<polygon fill="none" stroke="black" points="0,-205 0,-319 188,-319 188,-205 0,-205"/>
<text text-anchor="start" x="8" y="-307.8" font-family="Helvetica,sans-Serif" font-size="9.00">com.github.aptd.simulation.elements.train.</text>
<text text-anchor="middle" x="94" y="-297.8" font-family="Helvetica,sans-Serif" font-size="9.00">IWagon&lt; IWagon&lt;?&gt; &gt;</text>
<polyline fill="none" stroke="black" points="0,-291 188,-291 "/>
<text text-anchor="middle" x="94" y="-279.8" font-family="Helvetica,sans-Serif" font-size="9.00"> </text>
<polyline fill="none" stroke="black" points="0,-273 188,-273 "/>
<text text-anchor="start" x="8" y="-261.8" font-family="Helvetica,sans-Serif" font-size="9.00">+ add()</text>
<text text-anchor="start" x="8" y="-251.8" font-family="Helvetica,sans-Serif" font-size="9.00">+ announcement()</text>
<text text-anchor="start" x="8" y="-241.8" font-family="Helvetica,sans-Serif" font-size="9.00">+ free()</text>
<text text-anchor="start" x="8" y="-231.8" font-family="Helvetica,sans-Serif" font-size="9.00">+ passenger()</text>
<text text-anchor="start" x="8" y="-221.8" font-family="Helvetica,sans-Serif" font-size="9.00">+ remove()</text>
<text text-anchor="start" x="8" y="-211.8" font-family="Helvetica,sans-Serif" font-size="9.00">+ size()</text>
</a>
</g>
</g>
<!-- Node0&#45;&gt;Node3 -->
<g id="edge3" class="edge"><title>Node0&#45;&gt;Node3</title>
<path fill="none" stroke="orange" d="M94,-356.337C94,-343.977 94,-331.179 94,-319.17"/>
<polygon fill="orange" stroke="orange" points="90.5001,-356.59 94,-366.59 97.5001,-356.59 90.5001,-356.59"/>
<text text-anchor="middle" x="126.5" y="-340.8" font-family="Helvetica,sans-Serif" font-size="9.00"> &lt; IWagon&lt;?&gt; &gt;</text>
</g>
<!-- Node1 -->
<g id="node2" class="node"><title>Node1</title>
<g id="a_node2"><a xlink:href="../../dd/dd7/interfacecom_1_1github_1_1aptd_1_1simulation_1_1elements_1_1IElement.htm" target="_top" xlink:title="any object interface ">
<polygon fill="none" stroke="black" points="43.5,-521 43.5,-645 144.5,-645 144.5,-521 43.5,-521"/>
<text text-anchor="start" x="51.5" y="-633.8" font-family="Helvetica,sans-Serif" font-size="9.00">com::github::aptd::</text>
<text text-anchor="start" x="51.5" y="-623.8" font-family="Helvetica,sans-Serif" font-size="9.00">simulation::elements</text>
<text text-anchor="middle" x="94" y="-613.8" font-family="Helvetica,sans-Serif" font-size="9.00">::IElement&lt; T &gt;</text>
<polyline fill="none" stroke="black" points="43.5,-607 144.5,-607 "/>
<text text-anchor="middle" x="94" y="-595.8" font-family="Helvetica,sans-Serif" font-size="9.00"> </text>
<polyline fill="none" stroke="black" points="43.5,-589 144.5,-589 "/>
<text text-anchor="start" x="51.5" y="-577.8" font-family="Helvetica,sans-Serif" font-size="9.00">+ environment()</text>
<text text-anchor="start" x="51.5" y="-567.8" font-family="Helvetica,sans-Serif" font-size="9.00">+ id()</text>
<text text-anchor="start" x="51.5" y="-557.8" font-family="Helvetica,sans-Serif" font-size="9.00">+ imminent()</text>
<text text-anchor="start" x="51.5" y="-547.8" font-family="Helvetica,sans-Serif" font-size="9.00">+ input()</text>
<text text-anchor="start" x="51.5" y="-537.8" font-family="Helvetica,sans-Serif" font-size="9.00">+ nextactivation()</text>
<text text-anchor="start" x="51.5" y="-527.8" font-family="Helvetica,sans-Serif" font-size="9.00">+ output()</text>
</a>
</g>
</g>
<!-- Node1&#45;&gt;Node0 -->
<g id="edge1" class="edge"><title>Node1&#45;&gt;Node0</title>
<path fill="none" stroke="midnightblue" d="M94,-510.62C94,-500.724 94,-490.676 94,-481.113"/>
<polygon fill="none" stroke="midnightblue" points="90.5001,-510.85 94,-520.85 97.5001,-510.85 90.5001,-510.85"/>
</g>
<!-- Node2 -->
<g id="node3" class="node"><title>Node2</title>
<g id="a_node3"><a xlink:href="../../d4/d0d/interfacecom_1_1github_1_1aptd_1_1simulation_1_1elements_1_1IPerceiveable.htm" target="_top" xlink:title="any object which be perceived by an agent ">
<polygon fill="none" stroke="black" points="10,-685 10,-759 178,-759 178,-685 10,-685"/>
<text text-anchor="start" x="18" y="-747.8" font-family="Helvetica,sans-Serif" font-size="9.00">com.github.aptd.simulation.elements.</text>
<text text-anchor="middle" x="94" y="-737.8" font-family="Helvetica,sans-Serif" font-size="9.00">IPerceiveable</text>
<polyline fill="none" stroke="black" points="10,-731 178,-731 "/>
<text text-anchor="middle" x="94" y="-719.8" font-family="Helvetica,sans-Serif" font-size="9.00"> </text>
<polyline fill="none" stroke="black" points="10,-713 178,-713 "/>
<text text-anchor="start" x="18" y="-701.8" font-family="Helvetica,sans-Serif" font-size="9.00">+ literal()</text>
<text text-anchor="start" x="18" y="-691.8" font-family="Helvetica,sans-Serif" font-size="9.00">+ literal()</text>
</a>
</g>
</g>
<!-- Node2&#45;&gt;Node1 -->
<g id="edge2" class="edge"><title>Node2&#45;&gt;Node1</title>
<path fill="none" stroke="midnightblue" d="M94,-674.35C94,-664.963 94,-654.963 94,-645.166"/>
<polygon fill="none" stroke="midnightblue" points="90.5001,-674.646 94,-684.646 97.5001,-674.646 90.5001,-674.646"/>
</g>
<!-- Node4 -->
<g id="node5" class="node"><title>Node4</title>
<g id="a_node5"><a xlink:href="../../d1/d69/classcom_1_1github_1_1aptd_1_1simulation_1_1elements_1_1train_1_1CWagon.htm" target="_top" xlink:title="wagon class ">
<polygon fill="none" stroke="black" points="0,-1 0,-165 188,-165 188,-1 0,-1"/>
<text text-anchor="start" x="8" y="-153.8" font-family="Helvetica,sans-Serif" font-size="9.00">com.github.aptd.simulation.elements.train.</text>
<text text-anchor="middle" x="94" y="-143.8" font-family="Helvetica,sans-Serif" font-size="9.00">CWagon</text>
<polyline fill="none" stroke="black" points="0,-137 188,-137 "/>
<text text-anchor="start" x="8" y="-125.8" font-family="Helvetica,sans-Serif" font-size="9.00">&#45; m_maximum</text>
<text text-anchor="start" x="8" y="-115.8" font-family="Helvetica,sans-Serif" font-size="9.00">&#45; m_passanger</text>
<text text-anchor="start" x="8" y="-105.8" font-family="Helvetica,sans-Serif" font-size="9.00">&#45; FUNCTOR</text>
<text text-anchor="start" x="8" y="-95.8" font-family="Helvetica,sans-Serif" font-size="9.00">&#45; serialVersionUID</text>
<polyline fill="none" stroke="black" points="0,-89 188,-89 "/>
<text text-anchor="start" x="8" y="-77.8" font-family="Helvetica,sans-Serif" font-size="9.00">+ add()</text>
<text text-anchor="start" x="8" y="-67.8" font-family="Helvetica,sans-Serif" font-size="9.00">+ announcement()</text>
<text text-anchor="start" x="8" y="-57.8" font-family="Helvetica,sans-Serif" font-size="9.00">+ free()</text>
<text text-anchor="start" x="8" y="-47.8" font-family="Helvetica,sans-Serif" font-size="9.00">+ passenger()</text>
<text text-anchor="start" x="8" y="-37.8" font-family="Helvetica,sans-Serif" font-size="9.00">+ remove()</text>
<text text-anchor="start" x="8" y="-27.8" font-family="Helvetica,sans-Serif" font-size="9.00">+ size()</text>
<text text-anchor="start" x="8" y="-17.8" font-family="Helvetica,sans-Serif" font-size="9.00"># individualliteral()</text>
<text text-anchor="start" x="8" y="-7.8" font-family="Helvetica,sans-Serif" font-size="9.00">&#45; CWagon()</text>
</a>
</g>
</g>
<!-- Node3&#45;&gt;Node4 -->
<g id="edge4" class="edge"><title>Node3&#45;&gt;Node4</title>
<path fill="none" stroke="midnightblue" d="M94,-194.713C94,-185.079 94,-175.07 94,-165.183"/>
<polygon fill="none" stroke="midnightblue" points="90.5001,-194.996 94,-204.996 97.5001,-194.996 90.5001,-194.996"/>
</g>
</g>
</svg>
