<?xml version="1.0" encoding="UTF-8" standalone="no"?>
<!DOCTYPE svg PUBLIC "-//W3C//DTD SVG 1.1//EN"
 "http://www.w3.org/Graphics/SVG/1.1/DTD/svg11.dtd">
<!-- Generated by graphviz version 2.36.0 (20140111.2315)
 -->
<!-- Title: com.github.aptd.simulation.elements.graph.network.local.CPlatform Pages: 1 -->
<svg width="461pt" height="1772pt"
 viewBox="0.00 0.00 461.00 1772.00" xmlns="http://www.w3.org/2000/svg" xmlns:xlink="http://www.w3.org/1999/xlink">
<g id="graph0" class="graph" transform="scale(1 1) rotate(0) translate(4 1768)">
<title>com.github.aptd.simulation.elements.graph.network.local.CPlatform</title>
<!-- Node9 -->
<g id="node1" class="node"><title>Node9</title>
<polygon fill="#bfbfbf" stroke="black" points="111.5,-1 111.5,-165 362.5,-165 362.5,-1 111.5,-1"/>
<text text-anchor="start" x="119.5" y="-153.8" font-family="Helvetica,sans-Serif" font-size="9.00">com.github.aptd.simulation.elements.graph.network.local.</text>
<text text-anchor="middle" x="237" y="-143.8" font-family="Helvetica,sans-Serif" font-size="9.00">CPlatform</text>
<polyline fill="none" stroke="black" points="111.5,-137 362.5,-137 "/>
<text text-anchor="start" x="119.5" y="-125.8" font-family="Helvetica,sans-Serif" font-size="9.00">&#45; m_doors</text>
<text text-anchor="start" x="119.5" y="-115.8" font-family="Helvetica,sans-Serif" font-size="9.00">&#45; m_passengers</text>
<text text-anchor="start" x="119.5" y="-105.8" font-family="Helvetica,sans-Serif" font-size="9.00">&#45; m_stationid</text>
<text text-anchor="start" x="119.5" y="-95.8" font-family="Helvetica,sans-Serif" font-size="9.00">&#45; FUNCTOR</text>
<text text-anchor="start" x="119.5" y="-85.8" font-family="Helvetica,sans-Serif" font-size="9.00">&#45; serialVersionUID</text>
<polyline fill="none" stroke="black" points="111.5,-79 362.5,-79 "/>
<text text-anchor="start" x="119.5" y="-67.8" font-family="Helvetica,sans-Serif" font-size="9.00">+ stationid()</text>
<text text-anchor="start" x="119.5" y="-57.8" font-family="Helvetica,sans-Serif" font-size="9.00"># determinenextstatechange()</text>
<text text-anchor="start" x="119.5" y="-47.8" font-family="Helvetica,sans-Serif" font-size="9.00"># individualliteral()</text>
<text text-anchor="start" x="119.5" y="-37.8" font-family="Helvetica,sans-Serif" font-size="9.00"># updatecontinuous()</text>
<text text-anchor="start" x="119.5" y="-27.8" font-family="Helvetica,sans-Serif" font-size="9.00"># updatestate()</text>
<text text-anchor="start" x="119.5" y="-17.8" font-family="Helvetica,sans-Serif" font-size="9.00"># writeState()</text>
<text text-anchor="start" x="119.5" y="-7.8" font-family="Helvetica,sans-Serif" font-size="9.00">&#45; CPlatform()</text>
</g>
<!-- Node10 -->
<g id="node2" class="node"><title>Node10</title>
<g id="a_node2"><a xlink:href="../../d8/d16/classcom_1_1github_1_1aptd_1_1simulation_1_1elements_1_1IStatefulElement.htm" target="_top" xlink:title="stateful base element with internal transitions and output queueing ">
<polygon fill="none" stroke="black" points="51.5,-213 51.5,-447 206.5,-447 206.5,-213 51.5,-213"/>
<text text-anchor="start" x="59.5" y="-435.8" font-family="Helvetica,sans-Serif" font-size="9.00">com::github::aptd::</text>
<text text-anchor="start" x="59.5" y="-425.8" font-family="Helvetica,sans-Serif" font-size="9.00">simulation::elements</text>
<text text-anchor="middle" x="129" y="-415.8" font-family="Helvetica,sans-Serif" font-size="9.00">::IStatefulElement&lt; IPlatform&lt;?&gt; &gt;</text>
<polyline fill="none" stroke="black" points="51.5,-409 206.5,-409 "/>
<text text-anchor="start" x="59.5" y="-397.8" font-family="Helvetica,sans-Serif" font-size="9.00"># m_lastcontinuousupdate</text>
<text text-anchor="start" x="59.5" y="-387.8" font-family="Helvetica,sans-Serif" font-size="9.00"># m_laststatechange</text>
<text text-anchor="start" x="59.5" y="-377.8" font-family="Helvetica,sans-Serif" font-size="9.00"># m_nextstatechange</text>
<text text-anchor="start" x="59.5" y="-367.8" font-family="Helvetica,sans-Serif" font-size="9.00">&#45; m_factory</text>
<text text-anchor="start" x="59.5" y="-357.8" font-family="Helvetica,sans-Serif" font-size="9.00">&#45; m_output</text>
<text text-anchor="start" x="59.5" y="-347.8" font-family="Helvetica,sans-Serif" font-size="9.00">&#45; serialVersionUID</text>
<polyline fill="none" stroke="black" points="51.5,-341 206.5,-341 "/>
<text text-anchor="start" x="59.5" y="-329.8" font-family="Helvetica,sans-Serif" font-size="9.00">+ nextstatechange()</text>
<text text-anchor="start" x="59.5" y="-319.8" font-family="Helvetica,sans-Serif" font-size="9.00">+ output()</text>
<text text-anchor="start" x="59.5" y="-309.8" font-family="Helvetica,sans-Serif" font-size="9.00">+ getDefaultAsl()</text>
<text text-anchor="start" x="59.5" y="-299.8" font-family="Helvetica,sans-Serif" font-size="9.00"># IStatefulElement()</text>
<text text-anchor="start" x="59.5" y="-289.8" font-family="Helvetica,sans-Serif" font-size="9.00"># continuousupdate()</text>
<text text-anchor="start" x="59.5" y="-279.8" font-family="Helvetica,sans-Serif" font-size="9.00"># determinenextstatechange()</text>
<text text-anchor="start" x="59.5" y="-269.8" font-family="Helvetica,sans-Serif" font-size="9.00"># flushOutput()</text>
<text text-anchor="start" x="59.5" y="-259.8" font-family="Helvetica,sans-Serif" font-size="9.00"># output()</text>
<text text-anchor="start" x="59.5" y="-249.8" font-family="Helvetica,sans-Serif" font-size="9.00"># transition()</text>
<text text-anchor="start" x="59.5" y="-239.8" font-family="Helvetica,sans-Serif" font-size="9.00"># updatecontinuous()</text>
<text text-anchor="start" x="59.5" y="-229.8" font-family="Helvetica,sans-Serif" font-size="9.00"># updatestate()</text>
<text text-anchor="start" x="59.5" y="-219.8" font-family="Helvetica,sans-Serif" font-size="9.00"># writeState()</text>
</a>
</g>
</g>
<!-- Node10&#45;&gt;Node9 -->
<g id="edge1" class="edge"><title>Node10&#45;&gt;Node9</title>
<path fill="none" stroke="midnightblue" d="M184.342,-203.455C190.095,-190.405 195.828,-177.4 201.278,-165.035"/>
<polygon fill="none" stroke="midnightblue" points="180.985,-202.395 180.154,-212.957 187.39,-205.219 180.985,-202.395"/>
</g>
<!-- Node11 -->
<g id="node3" class="node"><title>Node11</title>
<g id="a_node3"><a xlink:href="../../d6/df3/classcom_1_1github_1_1aptd_1_1simulation_1_1elements_1_1IBaseElement.htm" target="_top" xlink:title="{com.github.aptd.simulation.elements.\lIBaseElement\&lt; N \&gt;\n|# m_id\l# m_input\l# m_nextactivation\l# m_time\l&#45; m_environment\l&#45; m_external\l&#45; m_functor\l&#45; m_timezone\l&#45; serialVersionUID\l|+ call()\l+ environment()\l+ equals()\l+ hashCode()\l+ id()\l+ imminent()\l+ input()\l+ literal()\l+ literal()\l+ nextactivation()\l+ output()\l+ toString()\l# IBaseElement()\l# individualliteral()\l&#45; currentTime()\l&#45; getNextActivation()\l&#45; maxTime()\l&#45; setNextActivation()\l}">
<polygon fill="none" stroke="black" points="41,-571 41,-885 209,-885 209,-571 41,-571"/>
<text text-anchor="start" x="49" y="-873.8" font-family="Helvetica,sans-Serif" font-size="9.00">com.github.aptd.simulation.elements.</text>
<text text-anchor="middle" x="125" y="-863.8" font-family="Helvetica,sans-Serif" font-size="9.00">IBaseElement&lt; N &gt;</text>
<polyline fill="none" stroke="black" points="41,-857 209,-857 "/>
<text text-anchor="start" x="49" y="-845.8" font-family="Helvetica,sans-Serif" font-size="9.00"># m_id</text>
<text text-anchor="start" x="49" y="-835.8" font-family="Helvetica,sans-Serif" font-size="9.00"># m_input</text>
<text text-anchor="start" x="49" y="-825.8" font-family="Helvetica,sans-Serif" font-size="9.00"># m_nextactivation</text>
<text text-anchor="start" x="49" y="-815.8" font-family="Helvetica,sans-Serif" font-size="9.00"># m_time</text>
<text text-anchor="start" x="49" y="-805.8" font-family="Helvetica,sans-Serif" font-size="9.00">&#45; m_environment</text>
<text text-anchor="start" x="49" y="-795.8" font-family="Helvetica,sans-Serif" font-size="9.00">&#45; m_external</text>
<text text-anchor="start" x="49" y="-785.8" font-family="Helvetica,sans-Serif" font-size="9.00">&#45; m_functor</text>
<text text-anchor="start" x="49" y="-775.8" font-family="Helvetica,sans-Serif" font-size="9.00">&#45; m_timezone</text>
<text text-anchor="start" x="49" y="-765.8" font-family="Helvetica,sans-Serif" font-size="9.00">&#45; serialVersionUID</text>
<polyline fill="none" stroke="black" points="41,-759 209,-759 "/>
<text text-anchor="start" x="49" y="-747.8" font-family="Helvetica,sans-Serif" font-size="9.00">+ call()</text>
<text text-anchor="start" x="49" y="-737.8" font-family="Helvetica,sans-Serif" font-size="9.00">+ environment()</text>
<text text-anchor="start" x="49" y="-727.8" font-family="Helvetica,sans-Serif" font-size="9.00">+ equals()</text>
<text text-anchor="start" x="49" y="-717.8" font-family="Helvetica,sans-Serif" font-size="9.00">+ hashCode()</text>
<text text-anchor="start" x="49" y="-707.8" font-family="Helvetica,sans-Serif" font-size="9.00">+ id()</text>
<text text-anchor="start" x="49" y="-697.8" font-family="Helvetica,sans-Serif" font-size="9.00">+ imminent()</text>
<text text-anchor="start" x="49" y="-687.8" font-family="Helvetica,sans-Serif" font-size="9.00">+ input()</text>
<text text-anchor="start" x="49" y="-677.8" font-family="Helvetica,sans-Serif" font-size="9.00">+ literal()</text>
<text text-anchor="start" x="49" y="-667.8" font-family="Helvetica,sans-Serif" font-size="9.00">+ literal()</text>
<text text-anchor="start" x="49" y="-657.8" font-family="Helvetica,sans-Serif" font-size="9.00">+ nextactivation()</text>
<text text-anchor="start" x="49" y="-647.8" font-family="Helvetica,sans-Serif" font-size="9.00">+ output()</text>
<text text-anchor="start" x="49" y="-637.8" font-family="Helvetica,sans-Serif" font-size="9.00">+ toString()</text>
<text text-anchor="start" x="49" y="-627.8" font-family="Helvetica,sans-Serif" font-size="9.00"># IBaseElement()</text>
<text text-anchor="start" x="49" y="-617.8" font-family="Helvetica,sans-Serif" font-size="9.00"># individualliteral()</text>
<text text-anchor="start" x="49" y="-607.8" font-family="Helvetica,sans-Serif" font-size="9.00">&#45; currentTime()</text>
<text text-anchor="start" x="49" y="-597.8" font-family="Helvetica,sans-Serif" font-size="9.00">&#45; getNextActivation()</text>
<text text-anchor="start" x="49" y="-587.8" font-family="Helvetica,sans-Serif" font-size="9.00">&#45; maxTime()</text>
<text text-anchor="start" x="49" y="-577.8" font-family="Helvetica,sans-Serif" font-size="9.00">&#45; setNextActivation()</text>
</a>
</g>
</g>
<!-- Node11&#45;&gt;Node10 -->
<g id="edge2" class="edge"><title>Node11&#45;&gt;Node10</title>
<path fill="none" stroke="midnightblue" d="M126.681,-560.587C127.066,-522.425 127.468,-482.657 127.827,-447.151"/>
<polygon fill="none" stroke="midnightblue" points="123.179,-560.74 126.578,-570.775 130.179,-560.81 123.179,-560.74"/>
</g>
<!-- Node12 -->
<g id="node4" class="node"><title>Node12</title>
<g id="a_node4"><a xlink:href="../../d6/df3/classcom_1_1github_1_1aptd_1_1simulation_1_1elements_1_1IBaseElement.htm" target="_top" xlink:title="base simulation element structure ">
<polygon fill="none" stroke="black" points="37,-933 37,-1237 213,-1237 213,-933 37,-933"/>
<text text-anchor="start" x="45" y="-1225.8" font-family="Helvetica,sans-Serif" font-size="9.00">com.github.aptd.simulation.elements.</text>
<text text-anchor="middle" x="125" y="-1215.8" font-family="Helvetica,sans-Serif" font-size="9.00">IBaseElement&lt; N extends IElement&lt;?&gt;</text>
<polyline fill="none" stroke="black" points="37,-1209 213,-1209 "/>
<text text-anchor="start" x="45" y="-1197.8" font-family="Helvetica,sans-Serif" font-size="9.00"># m_id</text>
<text text-anchor="start" x="45" y="-1187.8" font-family="Helvetica,sans-Serif" font-size="9.00"># m_input</text>
<text text-anchor="start" x="45" y="-1177.8" font-family="Helvetica,sans-Serif" font-size="9.00"># m_nextactivation</text>
<text text-anchor="start" x="45" y="-1167.8" font-family="Helvetica,sans-Serif" font-size="9.00">&#45; m_environment</text>
<text text-anchor="start" x="45" y="-1157.8" font-family="Helvetica,sans-Serif" font-size="9.00">&#45; m_external</text>
<text text-anchor="start" x="45" y="-1147.8" font-family="Helvetica,sans-Serif" font-size="9.00">&#45; m_functor</text>
<text text-anchor="start" x="45" y="-1137.8" font-family="Helvetica,sans-Serif" font-size="9.00">&#45; m_timezone</text>
<text text-anchor="start" x="45" y="-1127.8" font-family="Helvetica,sans-Serif" font-size="9.00">&#45; serialVersionUID</text>
<polyline fill="none" stroke="black" points="37,-1121 213,-1121 "/>
<text text-anchor="start" x="45" y="-1109.8" font-family="Helvetica,sans-Serif" font-size="9.00">+ call()</text>
<text text-anchor="start" x="45" y="-1099.8" font-family="Helvetica,sans-Serif" font-size="9.00">+ environment()</text>
<text text-anchor="start" x="45" y="-1089.8" font-family="Helvetica,sans-Serif" font-size="9.00">+ equals()</text>
<text text-anchor="start" x="45" y="-1079.8" font-family="Helvetica,sans-Serif" font-size="9.00">+ hashCode()</text>
<text text-anchor="start" x="45" y="-1069.8" font-family="Helvetica,sans-Serif" font-size="9.00">+ id()</text>
<text text-anchor="start" x="45" y="-1059.8" font-family="Helvetica,sans-Serif" font-size="9.00">+ imminent()</text>
<text text-anchor="start" x="45" y="-1049.8" font-family="Helvetica,sans-Serif" font-size="9.00">+ input()</text>
<text text-anchor="start" x="45" y="-1039.8" font-family="Helvetica,sans-Serif" font-size="9.00">+ literal()</text>
<text text-anchor="start" x="45" y="-1029.8" font-family="Helvetica,sans-Serif" font-size="9.00">+ literal()</text>
<text text-anchor="start" x="45" y="-1019.8" font-family="Helvetica,sans-Serif" font-size="9.00">+ nextactivation()</text>
<text text-anchor="start" x="45" y="-1009.8" font-family="Helvetica,sans-Serif" font-size="9.00">+ output()</text>
<text text-anchor="start" x="45" y="-999.8" font-family="Helvetica,sans-Serif" font-size="9.00">+ toString()</text>
<text text-anchor="start" x="45" y="-989.8" font-family="Helvetica,sans-Serif" font-size="9.00"># IBaseElement()</text>
<text text-anchor="start" x="45" y="-979.8" font-family="Helvetica,sans-Serif" font-size="9.00"># individualliteral()</text>
<text text-anchor="start" x="45" y="-969.8" font-family="Helvetica,sans-Serif" font-size="9.00">&#45; currentTime()</text>
<text text-anchor="start" x="45" y="-959.8" font-family="Helvetica,sans-Serif" font-size="9.00">&#45; getNextActivation()</text>
<text text-anchor="start" x="45" y="-949.8" font-family="Helvetica,sans-Serif" font-size="9.00">&#45; maxTime()</text>
<text text-anchor="start" x="45" y="-939.8" font-family="Helvetica,sans-Serif" font-size="9.00">&#45; setNextActivation()</text>
</a>
</g>
</g>
<!-- Node12&#45;&gt;Node11 -->
<g id="edge3" class="edge"><title>Node12&#45;&gt;Node11</title>
<path fill="none" stroke="orange" d="M125,-922.868C125,-910.283 125,-897.586 125,-885.035"/>
<polygon fill="orange" stroke="orange" points="121.5,-922.933 125,-932.933 128.5,-922.933 121.5,-922.933"/>
<text text-anchor="middle" x="137.5" y="-906.8" font-family="Helvetica,sans-Serif" font-size="9.00"> &lt; N &gt;</text>
</g>
<!-- Node13 -->
<g id="node5" class="node"><title>Node13</title>
<g id="a_node5"><a xlink:href="../../dd/dd7/interfacecom_1_1github_1_1aptd_1_1simulation_1_1elements_1_1IElement.htm" target="_top" xlink:title="{com.github.aptd.simulation.elements.\lIElement\&lt; N \&gt;\n||+ environment()\l+ id()\l+ imminent()\l+ input()\l+ nextactivation()\l+ output()\l}">
<polygon fill="none" stroke="black" points="0,-1277 0,-1391 168,-1391 168,-1277 0,-1277"/>
<text text-anchor="start" x="8" y="-1379.8" font-family="Helvetica,sans-Serif" font-size="9.00">com.github.aptd.simulation.elements.</text>
<text text-anchor="middle" x="84" y="-1369.8" font-family="Helvetica,sans-Serif" font-size="9.00">IElement&lt; N &gt;</text>
<polyline fill="none" stroke="black" points="0,-1363 168,-1363 "/>
<text text-anchor="middle" x="84" y="-1351.8" font-family="Helvetica,sans-Serif" font-size="9.00"> </text>
<polyline fill="none" stroke="black" points="0,-1345 168,-1345 "/>
<text text-anchor="start" x="8" y="-1333.8" font-family="Helvetica,sans-Serif" font-size="9.00">+ environment()</text>
<text text-anchor="start" x="8" y="-1323.8" font-family="Helvetica,sans-Serif" font-size="9.00">+ id()</text>
<text text-anchor="start" x="8" y="-1313.8" font-family="Helvetica,sans-Serif" font-size="9.00">+ imminent()</text>
<text text-anchor="start" x="8" y="-1303.8" font-family="Helvetica,sans-Serif" font-size="9.00">+ input()</text>
<text text-anchor="start" x="8" y="-1293.8" font-family="Helvetica,sans-Serif" font-size="9.00">+ nextactivation()</text>
<text text-anchor="start" x="8" y="-1283.8" font-family="Helvetica,sans-Serif" font-size="9.00">+ output()</text>
</a>
</g>
</g>
<!-- Node13&#45;&gt;Node12 -->
<g id="edge4" class="edge"><title>Node13&#45;&gt;Node12</title>
<path fill="none" stroke="midnightblue" d="M94.9651,-1266.94C96.5332,-1257.5 98.197,-1247.47 99.9058,-1237.18"/>
<polygon fill="none" stroke="midnightblue" points="91.4884,-1266.51 93.3035,-1276.95 98.3939,-1267.66 91.4884,-1266.51"/>
</g>
<!-- Node14 -->
<g id="node6" class="node"><title>Node14</title>
<g id="a_node6"><a xlink:href="../../dd/dd7/interfacecom_1_1github_1_1aptd_1_1simulation_1_1elements_1_1IElement.htm" target="_top" xlink:title="any object interface ">
<polygon fill="none" stroke="black" points="5,-1535 5,-1649 173,-1649 173,-1535 5,-1535"/>
<text text-anchor="start" x="13" y="-1637.8" font-family="Helvetica,sans-Serif" font-size="9.00">com.github.aptd.simulation.elements.</text>
<text text-anchor="middle" x="89" y="-1627.8" font-family="Helvetica,sans-Serif" font-size="9.00">IElement&lt; T extends IAgent&lt;?&gt;</text>
<polyline fill="none" stroke="black" points="5,-1621 173,-1621 "/>
<text text-anchor="middle" x="89" y="-1609.8" font-family="Helvetica,sans-Serif" font-size="9.00"> </text>
<polyline fill="none" stroke="black" points="5,-1603 173,-1603 "/>
<text text-anchor="start" x="13" y="-1591.8" font-family="Helvetica,sans-Serif" font-size="9.00">+ environment()</text>
<text text-anchor="start" x="13" y="-1581.8" font-family="Helvetica,sans-Serif" font-size="9.00">+ id()</text>
<text text-anchor="start" x="13" y="-1571.8" font-family="Helvetica,sans-Serif" font-size="9.00">+ imminent()</text>
<text text-anchor="start" x="13" y="-1561.8" font-family="Helvetica,sans-Serif" font-size="9.00">+ input()</text>
<text text-anchor="start" x="13" y="-1551.8" font-family="Helvetica,sans-Serif" font-size="9.00">+ nextactivation()</text>
<text text-anchor="start" x="13" y="-1541.8" font-family="Helvetica,sans-Serif" font-size="9.00">+ output()</text>
</a>
</g>
</g>
<!-- Node14&#45;&gt;Node13 -->
<g id="edge5" class="edge"><title>Node14&#45;&gt;Node13</title>
<path fill="none" stroke="orange" d="M84.3445,-1524.77C84.2119,-1521.81 84.0957,-1518.87 84,-1516 82.6092,-1474.23 82.6635,-1427.01 83.0368,-1391.27"/>
<polygon fill="orange" stroke="orange" points="80.8565,-1525.1 84.8518,-1534.91 87.8477,-1524.75 80.8565,-1525.1"/>
<text text-anchor="middle" x="96.5" y="-1460.8" font-family="Helvetica,sans-Serif" font-size="9.00"> &lt; N &gt;</text>
</g>
<!-- Node15 -->
<g id="node7" class="node"><title>Node15</title>
<g id="a_node7"><a xlink:href="../../d4/d0d/interfacecom_1_1github_1_1aptd_1_1simulation_1_1elements_1_1IPerceiveable.htm" target="_top" xlink:title="any object which be perceived by an agent ">
<polygon fill="none" stroke="black" points="118,-1689 118,-1763 286,-1763 286,-1689 118,-1689"/>
<text text-anchor="start" x="126" y="-1751.8" font-family="Helvetica,sans-Serif" font-size="9.00">com.github.aptd.simulation.elements.</text>
<text text-anchor="middle" x="202" y="-1741.8" font-family="Helvetica,sans-Serif" font-size="9.00">IPerceiveable</text>
<polyline fill="none" stroke="black" points="118,-1735 286,-1735 "/>
<text text-anchor="middle" x="202" y="-1723.8" font-family="Helvetica,sans-Serif" font-size="9.00"> </text>
<polyline fill="none" stroke="black" points="118,-1717 286,-1717 "/>
<text text-anchor="start" x="126" y="-1705.8" font-family="Helvetica,sans-Serif" font-size="9.00">+ literal()</text>
<text text-anchor="start" x="126" y="-1695.8" font-family="Helvetica,sans-Serif" font-size="9.00">+ literal()</text>
</a>
</g>
</g>
<!-- Node15&#45;&gt;Node14 -->
<g id="edge6" class="edge"><title>Node15&#45;&gt;Node14</title>
<path fill="none" stroke="midnightblue" d="M164.542,-1681.24C155.736,-1670.96 146.233,-1659.86 137.035,-1649.11"/>
<polygon fill="none" stroke="midnightblue" points="161.96,-1683.61 171.122,-1688.93 167.278,-1679.06 161.96,-1683.61"/>
</g>
<!-- Node16 -->
<g id="node8" class="node"><title>Node16</title>
<g id="a_node8"><a xlink:href="../../db/d65/interfacecom_1_1github_1_1aptd_1_1simulation_1_1core_1_1time_1_1ITime.htm" target="_top" xlink:title="time interface ">
<polygon fill="none" stroke="black" points="118,-1411 118,-1515 286,-1515 286,-1411 118,-1411"/>
<text text-anchor="start" x="126" y="-1503.8" font-family="Helvetica,sans-Serif" font-size="9.00">com.github.aptd.simulation.core.time.</text>
<text text-anchor="middle" x="202" y="-1493.8" font-family="Helvetica,sans-Serif" font-size="9.00">ITime</text>
<polyline fill="none" stroke="black" points="118,-1487 286,-1487 "/>
<text text-anchor="middle" x="202" y="-1475.8" font-family="Helvetica,sans-Serif" font-size="9.00"> </text>
<polyline fill="none" stroke="black" points="118,-1469 286,-1469 "/>
<text text-anchor="start" x="126" y="-1457.8" font-family="Helvetica,sans-Serif" font-size="9.00">+ active()</text>
<text text-anchor="start" x="126" y="-1447.8" font-family="Helvetica,sans-Serif" font-size="9.00">+ addagent()</text>
<text text-anchor="start" x="126" y="-1437.8" font-family="Helvetica,sans-Serif" font-size="9.00">+ current()</text>
<text text-anchor="start" x="126" y="-1427.8" font-family="Helvetica,sans-Serif" font-size="9.00">+ raw()</text>
<text text-anchor="start" x="126" y="-1417.8" font-family="Helvetica,sans-Serif" font-size="9.00">+ removeagent()</text>
</a>
</g>
</g>
<!-- Node15&#45;&gt;Node16 -->
<g id="edge8" class="edge"><title>Node15&#45;&gt;Node16</title>
<path fill="none" stroke="midnightblue" d="M202,-1678.74C202,-1632.91 202,-1562.88 202,-1515.35"/>
<polygon fill="none" stroke="midnightblue" points="198.5,-1678.98 202,-1688.98 205.5,-1678.98 198.5,-1678.98"/>
</g>
<!-- Node18 -->
<g id="node10" class="node"><title>Node18</title>
<g id="a_node10"><a xlink:href="../../dd/dd7/interfacecom_1_1github_1_1aptd_1_1simulation_1_1elements_1_1IElement.htm" target="_top" xlink:title="any object interface ">
<polygon fill="none" stroke="black" points="250.5,-1023 250.5,-1147 351.5,-1147 351.5,-1023 250.5,-1023"/>
<text text-anchor="start" x="258.5" y="-1135.8" font-family="Helvetica,sans-Serif" font-size="9.00">com::github::aptd::</text>
<text text-anchor="start" x="258.5" y="-1125.8" font-family="Helvetica,sans-Serif" font-size="9.00">simulation::elements</text>
<text text-anchor="middle" x="301" y="-1115.8" font-family="Helvetica,sans-Serif" font-size="9.00">::IElement&lt; T &gt;</text>
<polyline fill="none" stroke="black" points="250.5,-1109 351.5,-1109 "/>
<text text-anchor="middle" x="301" y="-1097.8" font-family="Helvetica,sans-Serif" font-size="9.00"> </text>
<polyline fill="none" stroke="black" points="250.5,-1091 351.5,-1091 "/>
<text text-anchor="start" x="258.5" y="-1079.8" font-family="Helvetica,sans-Serif" font-size="9.00">+ environment()</text>
<text text-anchor="start" x="258.5" y="-1069.8" font-family="Helvetica,sans-Serif" font-size="9.00">+ id()</text>
<text text-anchor="start" x="258.5" y="-1059.8" font-family="Helvetica,sans-Serif" font-size="9.00">+ imminent()</text>
<text text-anchor="start" x="258.5" y="-1049.8" font-family="Helvetica,sans-Serif" font-size="9.00">+ input()</text>
<text text-anchor="start" x="258.5" y="-1039.8" font-family="Helvetica,sans-Serif" font-size="9.00">+ nextactivation()</text>
<text text-anchor="start" x="258.5" y="-1029.8" font-family="Helvetica,sans-Serif" font-size="9.00">+ output()</text>
</a>
</g>
</g>
<!-- Node15&#45;&gt;Node18 -->
<g id="edge11" class="edge"><title>Node15&#45;&gt;Node18</title>
<path fill="none" stroke="midnightblue" d="M225.811,-1679.89C246.298,-1638.54 274.471,-1574.95 287,-1516 314.405,-1387.05 310.676,-1231.51 305.717,-1147.34"/>
<polygon fill="none" stroke="midnightblue" points="222.657,-1678.37 221.305,-1688.88 228.915,-1681.51 222.657,-1678.37"/>
</g>
<!-- Node16&#45;&gt;Node12 -->
<g id="edge7" class="edge"><title>Node16&#45;&gt;Node12</title>
<path fill="none" stroke="#404040" d="M196.565,-1410.79C192.165,-1373.27 185.191,-1321.21 176,-1276 174.182,-1267.06 172.188,-1257.91 170.074,-1248.7"/>
<polygon fill="none" stroke="#404040" points="170.074,-1248.7 164.811,-1243.77 167.338,-1237.02 172.6,-1241.95 170.074,-1248.7"/>
<text text-anchor="middle" x="214" y="-1331.8" font-family="Helvetica,sans-Serif" font-size="9.00"> #m_time</text>
</g>
<!-- Node17 -->
<g id="node9" class="node"><title>Node17</title>
<g id="a_node9"><a xlink:href="../../db/d3d/interfacecom_1_1github_1_1aptd_1_1simulation_1_1elements_1_1graph_1_1network_1_1IPlatform.htm" target="_top" xlink:title="platform interface. ">
<polygon fill="none" stroke="black" points="176,-467 176,-551 298,-551 298,-467 176,-467"/>
<text text-anchor="start" x="184" y="-539.8" font-family="Helvetica,sans-Serif" font-size="9.00">com::github::aptd::</text>
<text text-anchor="start" x="184" y="-529.8" font-family="Helvetica,sans-Serif" font-size="9.00">simulation::elements</text>
<text text-anchor="start" x="184" y="-519.8" font-family="Helvetica,sans-Serif" font-size="9.00">::graph::network::IPlatform</text>
<text text-anchor="middle" x="237" y="-509.8" font-family="Helvetica,sans-Serif" font-size="9.00">&lt; IPlatform&lt;?&gt; &gt;</text>
<polyline fill="none" stroke="black" points="176,-503 298,-503 "/>
<text text-anchor="middle" x="237" y="-491.8" font-family="Helvetica,sans-Serif" font-size="9.00"> </text>
<polyline fill="none" stroke="black" points="176,-485 298,-485 "/>
<text text-anchor="start" x="184" y="-473.8" font-family="Helvetica,sans-Serif" font-size="9.00">+ stationid()</text>
</a>
</g>
</g>
<!-- Node17&#45;&gt;Node9 -->
<g id="edge9" class="edge"><title>Node17&#45;&gt;Node9</title>
<path fill="none" stroke="midnightblue" d="M237,-456.718C237,-384.23 237,-251.073 237,-165.102"/>
<polygon fill="none" stroke="midnightblue" points="233.5,-456.96 237,-466.96 240.5,-456.96 233.5,-456.96"/>
</g>
<!-- Node18&#45;&gt;Node17 -->
<g id="edge10" class="edge"><title>Node18&#45;&gt;Node17</title>
<path fill="none" stroke="midnightblue" d="M281.767,-1013.15C272.384,-975.638 261.877,-928.635 256,-886 239.332,-765.082 236.871,-620.49 236.76,-551.111"/>
<polygon fill="none" stroke="midnightblue" points="278.405,-1014.13 284.252,-1022.96 285.191,-1012.41 278.405,-1014.13"/>
</g>
<!-- Node20 -->
<g id="node12" class="node"><title>Node20</title>
<g id="a_node12"><a xlink:href="../../d4/d3c/interfacecom_1_1github_1_1aptd_1_1simulation_1_1elements_1_1train_1_1ITrain.htm" target="_top" xlink:title="interface of train ">
<polygon fill="none" stroke="black" points="265,-686 265,-770 453,-770 453,-686 265,-686"/>
<text text-anchor="start" x="273" y="-758.8" font-family="Helvetica,sans-Serif" font-size="9.00">com.github.aptd.simulation.elements.train.</text>
<text text-anchor="middle" x="359" y="-748.8" font-family="Helvetica,sans-Serif" font-size="9.00">ITrain&lt; T extends ITrain&lt;?&gt;</text>
<polyline fill="none" stroke="black" points="265,-742 453,-742 "/>
<text text-anchor="middle" x="359" y="-730.8" font-family="Helvetica,sans-Serif" font-size="9.00"> </text>
<polyline fill="none" stroke="black" points="265,-724 453,-724 "/>
<text text-anchor="start" x="273" y="-712.8" font-family="Helvetica,sans-Serif" font-size="9.00">+ addwagon()</text>
<text text-anchor="start" x="273" y="-702.8" font-family="Helvetica,sans-Serif" font-size="9.00">+ removewagon()</text>
<text text-anchor="start" x="273" y="-692.8" font-family="Helvetica,sans-Serif" font-size="9.00">+ wagon()</text>
</a>
</g>
</g>
<!-- Node18&#45;&gt;Node20 -->
<g id="edge14" class="edge"><title>Node18&#45;&gt;Node20</title>
<path fill="none" stroke="midnightblue" d="M312.606,-1012.97C324.495,-940.193 342.572,-829.553 352.278,-770.145"/>
<polygon fill="none" stroke="midnightblue" points="309.129,-1012.54 310.971,-1022.97 316.037,-1013.67 309.129,-1012.54"/>
</g>
<!-- Node19 -->
<g id="node11" class="node"><title>Node19</title>
<g id="a_node11"><a xlink:href="../../d4/d3c/interfacecom_1_1github_1_1aptd_1_1simulation_1_1elements_1_1train_1_1ITrain.htm" target="_top" xlink:title="{com.github.aptd.simulation.elements.train.\lITrain\&lt;?\&gt;\n||+ addwagon()\l+ removewagon()\l+ wagon()\l}">
<polygon fill="none" stroke="black" points="265,-288 265,-372 453,-372 453,-288 265,-288"/>
<text text-anchor="start" x="273" y="-360.8" font-family="Helvetica,sans-Serif" font-size="9.00">com.github.aptd.simulation.elements.train.</text>
<text text-anchor="middle" x="359" y="-350.8" font-family="Helvetica,sans-Serif" font-size="9.00">ITrain&lt;?&gt;</text>
<polyline fill="none" stroke="black" points="265,-344 453,-344 "/>
<text text-anchor="middle" x="359" y="-332.8" font-family="Helvetica,sans-Serif" font-size="9.00"> </text>
<polyline fill="none" stroke="black" points="265,-326 453,-326 "/>
<text text-anchor="start" x="273" y="-314.8" font-family="Helvetica,sans-Serif" font-size="9.00">+ addwagon()</text>
<text text-anchor="start" x="273" y="-304.8" font-family="Helvetica,sans-Serif" font-size="9.00">+ removewagon()</text>
<text text-anchor="start" x="273" y="-294.8" font-family="Helvetica,sans-Serif" font-size="9.00">+ wagon()</text>
</a>
</g>
</g>
<!-- Node19&#45;&gt;Node9 -->
<g id="edge12" class="edge"><title>Node19&#45;&gt;Node9</title>
<path fill="none" stroke="#404040" d="M338.58,-287.993C323.358,-257.424 301.966,-214.465 282.737,-175.849"/>
<polygon fill="none" stroke="#404040" points="282.727,-175.828 276.472,-172.24 277.378,-165.086 283.633,-168.674 282.727,-175.828"/>
<text text-anchor="middle" x="309.5" y="-186.8" font-family="Helvetica,sans-Serif" font-size="9.00"> &#45;m_train</text>
</g>
<!-- Node20&#45;&gt;Node19 -->
<g id="edge13" class="edge"><title>Node20&#45;&gt;Node19</title>
<path fill="none" stroke="orange" d="M359,-675.476C359,-595.951 359,-444.899 359,-372.165"/>
<polygon fill="orange" stroke="orange" points="355.5,-675.742 359,-685.742 362.5,-675.742 355.5,-675.742"/>
<text text-anchor="middle" x="368.5" y="-506.8" font-family="Helvetica,sans-Serif" font-size="9.00"> &lt;?&gt;</text>
</g>
</g>
</svg>
