<?xml version="1.0" encoding="UTF-8" standalone="no"?>
<!DOCTYPE svg PUBLIC "-//W3C//DTD SVG 1.1//EN"
 "http://www.w3.org/Graphics/SVG/1.1/DTD/svg11.dtd">
<!-- Generated by graphviz version 2.36.0 (20140111.2315)
 -->
<!-- Title: com.github.aptd.simulation.elements.grid.local.CJPSPlusStatic.CJumpPoint Pages: 1 -->
<svg width="277pt" height="164pt"
 viewBox="0.00 0.00 277.00 164.00" xmlns="http://www.w3.org/2000/svg" xmlns:xlink="http://www.w3.org/1999/xlink">
<g id="graph0" class="graph" transform="scale(1 1) rotate(0) translate(4 160)">
<title>com.github.aptd.simulation.elements.grid.local.CJPSPlusStatic.CJumpPoint</title>
<!-- Node1 -->
<g id="node1" class="node"><title>Node1</title>
<polygon fill="#bfbfbf" stroke="black" points="0,-1 0,-155 208,-155 208,-1 0,-1"/>
<text text-anchor="start" x="8" y="-143.8" font-family="Helvetica,sans-Serif" font-size="9.00">com.github.aptd.simulation.elements.grid.local.</text>
<text text-anchor="middle" x="104" y="-133.8" font-family="Helvetica,sans-Serif" font-size="9.00">CJPSPlusStatic.CJumpPoint</text>
<polyline fill="none" stroke="black" points="0,-127 208,-127 "/>
<text text-anchor="start" x="8" y="-115.8" font-family="Helvetica,sans-Serif" font-size="9.00">&#45; m_coordinate</text>
<text text-anchor="start" x="8" y="-105.8" font-family="Helvetica,sans-Serif" font-size="9.00">&#45; m_gscore</text>
<text text-anchor="start" x="8" y="-95.8" font-family="Helvetica,sans-Serif" font-size="9.00">&#45; m_hscore</text>
<polyline fill="none" stroke="black" points="0,-89 208,-89 "/>
<text text-anchor="start" x="8" y="-77.8" font-family="Helvetica,sans-Serif" font-size="9.00">~ CJumpPoint()</text>
<text text-anchor="start" x="8" y="-67.8" font-family="Helvetica,sans-Serif" font-size="9.00">~ coordinate()</text>
<text text-anchor="start" x="8" y="-57.8" font-family="Helvetica,sans-Serif" font-size="9.00">~ fscore()</text>
<text text-anchor="start" x="8" y="-47.8" font-family="Helvetica,sans-Serif" font-size="9.00">~ gscore()</text>
<text text-anchor="start" x="8" y="-37.8" font-family="Helvetica,sans-Serif" font-size="9.00">~ gscore()</text>
<text text-anchor="start" x="8" y="-27.8" font-family="Helvetica,sans-Serif" font-size="9.00">~ hscore()</text>
<text text-anchor="start" x="8" y="-17.8" font-family="Helvetica,sans-Serif" font-size="9.00">~ parent()</text>
<text text-anchor="start" x="8" y="-7.8" font-family="Helvetica,sans-Serif" font-size="9.00">&#45; CJumpPoint()</text>
</g>
<!-- Node1&#45;&gt;Node1 -->
<g id="edge1" class="edge"><title>Node1&#45;&gt;Node1</title>
<path fill="none" stroke="#404040" d="M208.125,-101.924C219.019,-97.2541 226,-89.2793 226,-78 226,-70.9504 223.273,-65.1917 218.568,-60.7238"/>
<polygon fill="none" stroke="#404040" points="218.248,-60.5199 211.038,-60.672 208.125,-54.0756 215.335,-53.9234 218.248,-60.5199"/>
<text text-anchor="middle" x="247.5" y="-80.8" font-family="Helvetica,sans-Serif" font-size="9.00"> +ZERO</text>
<text text-anchor="middle" x="247.5" y="-70.8" font-family="Helvetica,sans-Serif" font-size="9.00">&#45;m_parent</text>
</g>
</g>
</svg>
