<?xml version="1.0" encoding="UTF-8" standalone="no"?>
<!DOCTYPE svg PUBLIC "-//W3C//DTD SVG 1.1//EN"
 "http://www.w3.org/Graphics/SVG/1.1/DTD/svg11.dtd">
<!-- Generated by graphviz version 2.36.0 (20140111.2315)
 -->
<!-- Title: com.github.aptd.simulation.elements.graph.TestCNetwork Pages: 1 -->
<svg width="200pt" height="236pt"
 viewBox="0.00 0.00 200.00 236.00" xmlns="http://www.w3.org/2000/svg" xmlns:xlink="http://www.w3.org/1999/xlink">
<g id="graph0" class="graph" transform="scale(1 1) rotate(0) translate(4 232)">
<title>com.github.aptd.simulation.elements.graph.TestCNetwork</title>
<!-- Node0 -->
<g id="node1" class="node"><title>Node0</title>
<polygon fill="#bfbfbf" stroke="black" points="-1,-1 -1,-95 193,-95 193,-1 -1,-1"/>
<text text-anchor="start" x="7" y="-83.8" font-family="Helvetica,sans-Serif" font-size="9.00">com.github.aptd.simulation.elements.graph.</text>
<text text-anchor="middle" x="96" y="-73.8" font-family="Helvetica,sans-Serif" font-size="9.00">TestCNetwork</text>
<polyline fill="none" stroke="black" points="-1,-67 193,-67 "/>
<text text-anchor="start" x="7" y="-55.8" font-family="Helvetica,sans-Serif" font-size="9.00">&#45; m_station</text>
<text text-anchor="start" x="7" y="-45.8" font-family="Helvetica,sans-Serif" font-size="9.00">&#45; m_track</text>
<polyline fill="none" stroke="black" points="-1,-39 193,-39 "/>
<text text-anchor="start" x="7" y="-27.8" font-family="Helvetica,sans-Serif" font-size="9.00">+ ininitialize()</text>
<text text-anchor="start" x="7" y="-17.8" font-family="Helvetica,sans-Serif" font-size="9.00">+ networkbuild()</text>
<text text-anchor="start" x="7" y="-7.8" font-family="Helvetica,sans-Serif" font-size="9.00">+ main()</text>
</g>
<!-- Node1 -->
<g id="node2" class="node"><title>Node1</title>
<g id="a_node2"><a xlink:href="../../d4/dc9/classcom_1_1github_1_1aptd_1_1simulation_1_1IBaseTest.htm" target="_top" xlink:title="base test class with helpers ">
<polygon fill="none" stroke="black" points="32,-133 32,-227 160,-227 160,-133 32,-133"/>
<text text-anchor="start" x="40" y="-215.8" font-family="Helvetica,sans-Serif" font-size="9.00">com.github.aptd.simulation.</text>
<text text-anchor="middle" x="96" y="-205.8" font-family="Helvetica,sans-Serif" font-size="9.00">IBaseTest</text>
<polyline fill="none" stroke="black" points="32,-199 160,-199 "/>
<text text-anchor="start" x="40" y="-187.8" font-family="Helvetica,sans-Serif" font-size="9.00"># PRINTENABLE</text>
<polyline fill="none" stroke="black" points="32,-181 160,-181 "/>
<text text-anchor="start" x="40" y="-169.8" font-family="Helvetica,sans-Serif" font-size="9.00"># invoketest()</text>
<text text-anchor="start" x="40" y="-159.8" font-family="Helvetica,sans-Serif" font-size="9.00">&#45; before()</text>
<text text-anchor="start" x="40" y="-149.8" font-family="Helvetica,sans-Serif" font-size="9.00">&#45; execute()</text>
<text text-anchor="start" x="40" y="-139.8" font-family="Helvetica,sans-Serif" font-size="9.00">&#45; invoke()</text>
</a>
</g>
</g>
<!-- Node1&#45;&gt;Node0 -->
<g id="edge1" class="edge"><title>Node1&#45;&gt;Node0</title>
<path fill="none" stroke="midnightblue" d="M96,-122.564C96,-113.375 96,-103.953 96,-95.0504"/>
<polygon fill="none" stroke="midnightblue" points="92.5001,-122.801 96,-132.801 99.5001,-122.801 92.5001,-122.801"/>
</g>
</g>
</svg>
