<?xml version="1.0" encoding="UTF-8" standalone="no"?>
<!DOCTYPE svg PUBLIC "-//W3C//DTD SVG 1.1//EN"
 "http://www.w3.org/Graphics/SVG/1.1/DTD/svg11.dtd">
<!-- Generated by graphviz version 2.36.0 (20140111.2315)
 -->
<!-- Title: com.github.aptd.simulation.core.messaging.local.CMessage Pages: 1 -->
<svg width="611pt" height="782pt"
 viewBox="0.00 0.00 611.00 782.00" xmlns="http://www.w3.org/2000/svg" xmlns:xlink="http://www.w3.org/1999/xlink">
<g id="graph0" class="graph" transform="scale(1 1) rotate(0) translate(4 778)">
<title>com.github.aptd.simulation.core.messaging.local.CMessage</title>
<!-- Node2 -->
<g id="node1" class="node"><title>Node2</title>
<polygon fill="#bfbfbf" stroke="black" points="206,-1 206,-125 424,-125 424,-1 206,-1"/>
<text text-anchor="start" x="214" y="-113.8" font-family="Helvetica,sans-Serif" font-size="9.00">com.github.aptd.simulation.core.messaging.local.</text>
<text text-anchor="middle" x="315" y="-103.8" font-family="Helvetica,sans-Serif" font-size="9.00">CMessage</text>
<polyline fill="none" stroke="black" points="206,-97 424,-97 "/>
<text text-anchor="start" x="214" y="-85.8" font-family="Helvetica,sans-Serif" font-size="9.00">&#45; m_content</text>
<text text-anchor="start" x="214" y="-75.8" font-family="Helvetica,sans-Serif" font-size="9.00">&#45; m_recipient</text>
<polyline fill="none" stroke="black" points="206,-69 424,-69 "/>
<text text-anchor="start" x="214" y="-57.8" font-family="Helvetica,sans-Serif" font-size="9.00">+ CMessage()</text>
<text text-anchor="start" x="214" y="-47.8" font-family="Helvetica,sans-Serif" font-size="9.00">+ content()</text>
<text text-anchor="start" x="214" y="-37.8" font-family="Helvetica,sans-Serif" font-size="9.00">+ recipient()</text>
<text text-anchor="start" x="214" y="-27.8" font-family="Helvetica,sans-Serif" font-size="9.00">+ sender()</text>
<text text-anchor="start" x="214" y="-17.8" font-family="Helvetica,sans-Serif" font-size="9.00">+ type()</text>
<text text-anchor="start" x="214" y="-7.8" font-family="Helvetica,sans-Serif" font-size="9.00">+ write()</text>
</g>
<!-- Node3 -->
<g id="node2" class="node"><title>Node3</title>
<g id="a_node2"><a xlink:href="../../d2/d30/interfacecom_1_1github_1_1aptd_1_1simulation_1_1core_1_1messaging_1_1IMessage.htm" target="_top" xlink:title="message interface (messages are output from and input to elements/agents used for communication and i...">
<polygon fill="none" stroke="black" points="-1,-283 -1,-387 195,-387 195,-283 -1,-283"/>
<text text-anchor="start" x="7" y="-375.8" font-family="Helvetica,sans-Serif" font-size="9.00">com.github.aptd.simulation.core.messaging.</text>
<text text-anchor="middle" x="97" y="-365.8" font-family="Helvetica,sans-Serif" font-size="9.00">IMessage</text>
<polyline fill="none" stroke="black" points="-1,-359 195,-359 "/>
<text text-anchor="middle" x="97" y="-347.8" font-family="Helvetica,sans-Serif" font-size="9.00"> </text>
<polyline fill="none" stroke="black" points="-1,-341 195,-341 "/>
<text text-anchor="start" x="7" y="-329.8" font-family="Helvetica,sans-Serif" font-size="9.00">+ content()</text>
<text text-anchor="start" x="7" y="-319.8" font-family="Helvetica,sans-Serif" font-size="9.00">+ recipient()</text>
<text text-anchor="start" x="7" y="-309.8" font-family="Helvetica,sans-Serif" font-size="9.00">+ sender()</text>
<text text-anchor="start" x="7" y="-299.8" font-family="Helvetica,sans-Serif" font-size="9.00">+ type()</text>
<text text-anchor="start" x="7" y="-289.8" font-family="Helvetica,sans-Serif" font-size="9.00">+ write()</text>
</a>
</g>
</g>
<!-- Node3&#45;&gt;Node2 -->
<g id="edge1" class="edge"><title>Node3&#45;&gt;Node2</title>
<path fill="none" stroke="midnightblue" d="M132.256,-274.072C151.856,-242.546 177.578,-203.922 204,-172 217.201,-156.051 232.503,-139.926 247.447,-125.173"/>
<polygon fill="none" stroke="midnightblue" points="129.165,-272.416 126.895,-282.765 135.123,-276.091 129.165,-272.416"/>
</g>
<!-- Node4 -->
<g id="node3" class="node"><title>Node4</title>
<g id="a_node3"><a xlink:href="../../d7/d2a/enumcom_1_1github_1_1aptd_1_1simulation_1_1core_1_1messaging_1_1EMessageType.htm" target="_top" xlink:title="types of messages ">
<polygon fill="none" stroke="black" points="212.5,-173 212.5,-497 417.5,-497 417.5,-173 212.5,-173"/>
<text text-anchor="start" x="220.5" y="-485.8" font-family="Helvetica,sans-Serif" font-size="9.00">com.github.aptd.simulation.core.messaging.</text>
<text text-anchor="middle" x="315" y="-475.8" font-family="Helvetica,sans-Serif" font-size="9.00">EMessageType</text>
<polyline fill="none" stroke="black" points="212.5,-469 417.5,-469 "/>
<text text-anchor="start" x="220.5" y="-457.8" font-family="Helvetica,sans-Serif" font-size="9.00">+ DOOR_TO_PASSENGER_YOURTURN</text>
<text text-anchor="start" x="220.5" y="-447.8" font-family="Helvetica,sans-Serif" font-size="9.00">+ DOOR_TO_TRAIN_CLOSED</text>
<text text-anchor="start" x="220.5" y="-437.8" font-family="Helvetica,sans-Serif" font-size="9.00">_LOCKED</text>
<text text-anchor="start" x="220.5" y="-427.8" font-family="Helvetica,sans-Serif" font-size="9.00">+ PASSENGER_TO_DOOR_ENQUEUE</text>
<text text-anchor="start" x="220.5" y="-417.8" font-family="Helvetica,sans-Serif" font-size="9.00">_ENTRANCE</text>
<text text-anchor="start" x="220.5" y="-407.8" font-family="Helvetica,sans-Serif" font-size="9.00">+ PASSENGER_TO_DOOR_ENQUEUE_EXIT</text>
<text text-anchor="start" x="220.5" y="-397.8" font-family="Helvetica,sans-Serif" font-size="9.00">+ PASSENGER_TO_PLATFORM</text>
<text text-anchor="start" x="220.5" y="-387.8" font-family="Helvetica,sans-Serif" font-size="9.00">_SUBSCRIBE</text>
<text text-anchor="start" x="220.5" y="-377.8" font-family="Helvetica,sans-Serif" font-size="9.00">+ PASSENGER_TO_PLATFORM</text>
<text text-anchor="start" x="220.5" y="-367.8" font-family="Helvetica,sans-Serif" font-size="9.00">_UNSUBSCRIBE</text>
<text text-anchor="start" x="220.5" y="-357.8" font-family="Helvetica,sans-Serif" font-size="9.00">+ PASSENGER_TO_TRAIN</text>
<text text-anchor="start" x="220.5" y="-347.8" font-family="Helvetica,sans-Serif" font-size="9.00">_SUBSCRIBE</text>
<text text-anchor="start" x="220.5" y="-337.8" font-family="Helvetica,sans-Serif" font-size="9.00">+ PASSENGER_TO_TRAIN</text>
<text text-anchor="start" x="220.5" y="-327.8" font-family="Helvetica,sans-Serif" font-size="9.00">_UNSUBSCRIBE</text>
<text text-anchor="start" x="220.5" y="-317.8" font-family="Helvetica,sans-Serif" font-size="9.00">+ PLATFORM_TO_PASSENGER</text>
<text text-anchor="start" x="220.5" y="-307.8" font-family="Helvetica,sans-Serif" font-size="9.00">_TRAINARRIVED</text>
<text text-anchor="start" x="220.5" y="-297.8" font-family="Helvetica,sans-Serif" font-size="9.00">+ PLATFORM_TO_PASSENGER</text>
<text text-anchor="start" x="220.5" y="-287.8" font-family="Helvetica,sans-Serif" font-size="9.00">_TRAINDEPARTED</text>
<text text-anchor="start" x="220.5" y="-277.8" font-family="Helvetica,sans-Serif" font-size="9.00">+ TRAIN_TO_DOOR_DEPARTING</text>
<text text-anchor="start" x="220.5" y="-267.8" font-family="Helvetica,sans-Serif" font-size="9.00">+ TRAIN_TO_DOOR_LOCK</text>
<text text-anchor="start" x="220.5" y="-257.8" font-family="Helvetica,sans-Serif" font-size="9.00">+ TRAIN_TO_DOOR_UNLOCK</text>
<text text-anchor="start" x="220.5" y="-247.8" font-family="Helvetica,sans-Serif" font-size="9.00">+ TRAIN_TO_PASSENGER</text>
<text text-anchor="start" x="220.5" y="-237.8" font-family="Helvetica,sans-Serif" font-size="9.00">_ARRIVING</text>
<text text-anchor="start" x="220.5" y="-227.8" font-family="Helvetica,sans-Serif" font-size="9.00">+ TRAIN_TO_PASSENGER</text>
<text text-anchor="start" x="220.5" y="-217.8" font-family="Helvetica,sans-Serif" font-size="9.00">_DEPARTING</text>
<text text-anchor="start" x="220.5" y="-207.8" font-family="Helvetica,sans-Serif" font-size="9.00">+ TRAIN_TO_PLATFORM_ARRIVING</text>
<text text-anchor="start" x="220.5" y="-197.8" font-family="Helvetica,sans-Serif" font-size="9.00">+ TRAIN_TO_PLATFORM_DEPARTING</text>
<polyline fill="none" stroke="black" points="212.5,-191 417.5,-191 "/>
<text text-anchor="middle" x="315" y="-179.8" font-family="Helvetica,sans-Serif" font-size="9.00"> </text>
</a>
</g>
</g>
<!-- Node4&#45;&gt;Node2 -->
<g id="edge2" class="edge"><title>Node4&#45;&gt;Node2</title>
<path fill="none" stroke="#404040" d="M315,-172.652C315,-160.46 315,-148.566 315,-137.39"/>
<polygon fill="none" stroke="#404040" points="315,-137.098 311,-131.098 315,-125.098 319,-131.098 315,-137.098"/>
<text text-anchor="middle" x="333" y="-146.8" font-family="Helvetica,sans-Serif" font-size="9.00"> &#45;m_type</text>
</g>
<!-- Node5 -->
<g id="node4" class="node"><title>Node5</title>
<g id="a_node4"><a xlink:href="../../dd/dd7/interfacecom_1_1github_1_1aptd_1_1simulation_1_1elements_1_1IElement.htm" target="_top" xlink:title="{com.github.aptd.simulation.elements.\lIElement\&lt;?\&gt;\n||+ environment()\l+ id()\l+ imminent()\l+ input()\l+ nextactivation()\l+ output()\l}">
<polygon fill="none" stroke="black" points="435,-278 435,-392 603,-392 603,-278 435,-278"/>
<text text-anchor="start" x="443" y="-380.8" font-family="Helvetica,sans-Serif" font-size="9.00">com.github.aptd.simulation.elements.</text>
<text text-anchor="middle" x="519" y="-370.8" font-family="Helvetica,sans-Serif" font-size="9.00">IElement&lt;?&gt;</text>
<polyline fill="none" stroke="black" points="435,-364 603,-364 "/>
<text text-anchor="middle" x="519" y="-352.8" font-family="Helvetica,sans-Serif" font-size="9.00"> </text>
<polyline fill="none" stroke="black" points="435,-346 603,-346 "/>
<text text-anchor="start" x="443" y="-334.8" font-family="Helvetica,sans-Serif" font-size="9.00">+ environment()</text>
<text text-anchor="start" x="443" y="-324.8" font-family="Helvetica,sans-Serif" font-size="9.00">+ id()</text>
<text text-anchor="start" x="443" y="-314.8" font-family="Helvetica,sans-Serif" font-size="9.00">+ imminent()</text>
<text text-anchor="start" x="443" y="-304.8" font-family="Helvetica,sans-Serif" font-size="9.00">+ input()</text>
<text text-anchor="start" x="443" y="-294.8" font-family="Helvetica,sans-Serif" font-size="9.00">+ nextactivation()</text>
<text text-anchor="start" x="443" y="-284.8" font-family="Helvetica,sans-Serif" font-size="9.00">+ output()</text>
</a>
</g>
</g>
<!-- Node5&#45;&gt;Node2 -->
<g id="edge3" class="edge"><title>Node5&#45;&gt;Node2</title>
<path fill="none" stroke="#404040" d="M491.789,-277.971C474.886,-245.606 451.554,-204.918 426,-172 415.917,-159.011 404.317,-146.065 392.499,-133.882"/>
<polygon fill="none" stroke="#404040" points="392.311,-133.69 385.248,-132.235 383.875,-125.156 390.938,-126.611 392.311,-133.69"/>
<text text-anchor="middle" x="432.5" y="-146.8" font-family="Helvetica,sans-Serif" font-size="9.00"> &#45;m_sender</text>
</g>
<!-- Node6 -->
<g id="node5" class="node"><title>Node6</title>
<g id="a_node5"><a xlink:href="../../dd/dd7/interfacecom_1_1github_1_1aptd_1_1simulation_1_1elements_1_1IElement.htm" target="_top" xlink:title="any object interface ">
<polygon fill="none" stroke="black" points="435,-545 435,-659 603,-659 603,-545 435,-545"/>
<text text-anchor="start" x="443" y="-647.8" font-family="Helvetica,sans-Serif" font-size="9.00">com.github.aptd.simulation.elements.</text>
<text text-anchor="middle" x="519" y="-637.8" font-family="Helvetica,sans-Serif" font-size="9.00">IElement&lt; T extends IAgent&lt;?&gt;</text>
<polyline fill="none" stroke="black" points="435,-631 603,-631 "/>
<text text-anchor="middle" x="519" y="-619.8" font-family="Helvetica,sans-Serif" font-size="9.00"> </text>
<polyline fill="none" stroke="black" points="435,-613 603,-613 "/>
<text text-anchor="start" x="443" y="-601.8" font-family="Helvetica,sans-Serif" font-size="9.00">+ environment()</text>
<text text-anchor="start" x="443" y="-591.8" font-family="Helvetica,sans-Serif" font-size="9.00">+ id()</text>
<text text-anchor="start" x="443" y="-581.8" font-family="Helvetica,sans-Serif" font-size="9.00">+ imminent()</text>
<text text-anchor="start" x="443" y="-571.8" font-family="Helvetica,sans-Serif" font-size="9.00">+ input()</text>
<text text-anchor="start" x="443" y="-561.8" font-family="Helvetica,sans-Serif" font-size="9.00">+ nextactivation()</text>
<text text-anchor="start" x="443" y="-551.8" font-family="Helvetica,sans-Serif" font-size="9.00">+ output()</text>
</a>
</g>
</g>
<!-- Node6&#45;&gt;Node5 -->
<g id="edge4" class="edge"><title>Node6&#45;&gt;Node5</title>
<path fill="none" stroke="orange" d="M519,-534.785C519,-490.851 519,-433.82 519,-392.119"/>
<polygon fill="orange" stroke="orange" points="515.5,-534.8 519,-544.8 522.5,-534.8 515.5,-534.8"/>
<text text-anchor="middle" x="528.5" y="-518.8" font-family="Helvetica,sans-Serif" font-size="9.00"> &lt;?&gt;</text>
</g>
<!-- Node7 -->
<g id="node6" class="node"><title>Node7</title>
<g id="a_node6"><a xlink:href="../../d4/d0d/interfacecom_1_1github_1_1aptd_1_1simulation_1_1elements_1_1IPerceiveable.htm" target="_top" xlink:title="any object which be perceived by an agent ">
<polygon fill="none" stroke="black" points="435,-699 435,-773 603,-773 603,-699 435,-699"/>
<text text-anchor="start" x="443" y="-761.8" font-family="Helvetica,sans-Serif" font-size="9.00">com.github.aptd.simulation.elements.</text>
<text text-anchor="middle" x="519" y="-751.8" font-family="Helvetica,sans-Serif" font-size="9.00">IPerceiveable</text>
<polyline fill="none" stroke="black" points="435,-745 603,-745 "/>
<text text-anchor="middle" x="519" y="-733.8" font-family="Helvetica,sans-Serif" font-size="9.00"> </text>
<polyline fill="none" stroke="black" points="435,-727 603,-727 "/>
<text text-anchor="start" x="443" y="-715.8" font-family="Helvetica,sans-Serif" font-size="9.00">+ literal()</text>
<text text-anchor="start" x="443" y="-705.8" font-family="Helvetica,sans-Serif" font-size="9.00">+ literal()</text>
</a>
</g>
</g>
<!-- Node7&#45;&gt;Node6 -->
<g id="edge5" class="edge"><title>Node7&#45;&gt;Node6</title>
<path fill="none" stroke="midnightblue" d="M519,-688.809C519,-679.218 519,-669.013 519,-659.111"/>
<polygon fill="none" stroke="midnightblue" points="515.5,-688.93 519,-698.93 522.5,-688.93 515.5,-688.93"/>
</g>
</g>
</svg>
