<?xml version="1.0" encoding="UTF-8" standalone="no"?>
<!DOCTYPE svg PUBLIC "-//W3C//DTD SVG 1.1//EN"
 "http://www.w3.org/Graphics/SVG/1.1/DTD/svg11.dtd">
<!-- Generated by graphviz version 2.36.0 (20140111.2315)
 -->
<!-- Title: com.github.aptd.simulation.core.runtime.IRuntime Pages: 1 -->
<svg width="210pt" height="216pt"
 viewBox="0.00 0.00 210.00 216.00" xmlns="http://www.w3.org/2000/svg" xmlns:xlink="http://www.w3.org/1999/xlink">
<g id="graph0" class="graph" transform="scale(1 1) rotate(0) translate(4 212)">
<title>com.github.aptd.simulation.core.runtime.IRuntime</title>
<!-- Node0 -->
<g id="node1" class="node"><title>Node0</title>
<polygon fill="#bfbfbf" stroke="black" points="10,-133 10,-207 192,-207 192,-133 10,-133"/>
<text text-anchor="start" x="18" y="-195.8" font-family="Helvetica,sans-Serif" font-size="9.00">com.github.aptd.simulation.core.runtime.</text>
<text text-anchor="middle" x="101" y="-185.8" font-family="Helvetica,sans-Serif" font-size="9.00">IRuntime</text>
<polyline fill="none" stroke="black" points="10,-179 192,-179 "/>
<text text-anchor="middle" x="101" y="-167.8" font-family="Helvetica,sans-Serif" font-size="9.00"> </text>
<polyline fill="none" stroke="black" points="10,-161 192,-161 "/>
<text text-anchor="start" x="18" y="-149.8" font-family="Helvetica,sans-Serif" font-size="9.00">+ execute()</text>
<text text-anchor="start" x="18" y="-139.8" font-family="Helvetica,sans-Serif" font-size="9.00">+ next()</text>
</g>
<!-- Node1 -->
<g id="node2" class="node"><title>Node1</title>
<g id="a_node2"><a xlink:href="../../d8/d22/classcom_1_1github_1_1aptd_1_1simulation_1_1core_1_1runtime_1_1local_1_1CRuntime.htm" target="_top" xlink:title="local runtime ">
<polygon fill="none" stroke="black" points="-0.5,-1 -0.5,-95 202.5,-95 202.5,-1 -0.5,-1"/>
<text text-anchor="start" x="7.5" y="-83.8" font-family="Helvetica,sans-Serif" font-size="9.00">com.github.aptd.simulation.core.runtime.local.</text>
<text text-anchor="middle" x="101" y="-73.8" font-family="Helvetica,sans-Serif" font-size="9.00">CRuntime</text>
<polyline fill="none" stroke="black" points="-0.5,-67 202.5,-67 "/>
<text text-anchor="middle" x="101" y="-55.8" font-family="Helvetica,sans-Serif" font-size="9.00"> </text>
<polyline fill="none" stroke="black" points="-0.5,-49 202.5,-49 "/>
<text text-anchor="start" x="7.5" y="-37.8" font-family="Helvetica,sans-Serif" font-size="9.00">+ execute()</text>
<text text-anchor="start" x="7.5" y="-27.8" font-family="Helvetica,sans-Serif" font-size="9.00">+ next()</text>
<text text-anchor="start" x="7.5" y="-17.8" font-family="Helvetica,sans-Serif" font-size="9.00">&#45; execute()</text>
<text text-anchor="start" x="7.5" y="-7.8" font-family="Helvetica,sans-Serif" font-size="9.00">&#45; optionalparallelstream()</text>
</a>
</g>
</g>
<!-- Node0&#45;&gt;Node1 -->
<g id="edge1" class="edge"><title>Node0&#45;&gt;Node1</title>
<path fill="none" stroke="midnightblue" d="M101,-122.967C101,-113.87 101,-104.321 101,-95.2181"/>
<polygon fill="none" stroke="midnightblue" points="97.5001,-122.996 101,-132.996 104.5,-122.996 97.5001,-122.996"/>
</g>
</g>
</svg>
