<?xml version="1.0" encoding="UTF-8" standalone="no"?>
<!DOCTYPE svg PUBLIC "-//W3C//DTD SVG 1.1//EN"
 "http://www.w3.org/Graphics/SVG/1.1/DTD/svg11.dtd">
<!-- Generated by graphviz version 2.36.0 (20140111.2315)
 -->
<!-- Title: com.github.aptd.simulation.CMain.datamodel Pages: 1 -->
<svg width="464pt" height="36pt"
 viewBox="0.00 0.00 464.00 36.00" xmlns="http://www.w3.org/2000/svg" xmlns:xlink="http://www.w3.org/1999/xlink">
<g id="graph0" class="graph" transform="scale(1 1) rotate(0) translate(4 32)">
<title>com.github.aptd.simulation.CMain.datamodel</title>
<!-- Node8 -->
<g id="node1" class="node"><title>Node8</title>
<polygon fill="#bfbfbf" stroke="black" points="0,-0 0,-28 128,-28 128,-0 0,-0"/>
<text text-anchor="start" x="8" y="-16.8" font-family="Helvetica,sans-Serif" font-size="9.00">com.github.aptd.simulation.</text>
<text text-anchor="middle" x="64" y="-6.8" font-family="Helvetica,sans-Serif" font-size="9.00">CMain.datamodel</text>
</g>
<!-- Node9 -->
<g id="node2" class="node"><title>Node9</title>
<g id="a_node2"><a xlink:href="../../de/d16/classcom_1_1github_1_1aptd_1_1simulation_1_1CMain.htm#acff2c0efa5c44523efededb50a0f9f31" target="_top" xlink:title="com.github.aptd.simulation.\lCMain.execute">
<polygon fill="none" stroke="black" points="164,-0 164,-28 292,-28 292,-0 164,-0"/>
<text text-anchor="start" x="172" y="-16.8" font-family="Helvetica,sans-Serif" font-size="9.00">com.github.aptd.simulation.</text>
<text text-anchor="middle" x="228" y="-6.8" font-family="Helvetica,sans-Serif" font-size="9.00">CMain.execute</text>
</a>
</g>
</g>
<!-- Node8&#45;&gt;Node9 -->
<g id="edge1" class="edge"><title>Node8&#45;&gt;Node9</title>
<path fill="none" stroke="midnightblue" d="M138.374,-14C146.865,-14 155.469,-14 163.808,-14"/>
<polygon fill="midnightblue" stroke="midnightblue" points="138.097,-10.5001 128.097,-14 138.097,-17.5001 138.097,-10.5001"/>
</g>
<!-- Node10 -->
<g id="node3" class="node"><title>Node10</title>
<g id="a_node3"><a xlink:href="../../de/d16/classcom_1_1github_1_1aptd_1_1simulation_1_1CMain.htm#a93abfa783d7788c0a00b0b1bc107b207" target="_top" xlink:title="main method ">
<polygon fill="none" stroke="black" points="328,-0 328,-28 456,-28 456,-0 328,-0"/>
<text text-anchor="start" x="336" y="-16.8" font-family="Helvetica,sans-Serif" font-size="9.00">com.github.aptd.simulation.</text>
<text text-anchor="middle" x="392" y="-6.8" font-family="Helvetica,sans-Serif" font-size="9.00">CMain.main</text>
</a>
</g>
</g>
<!-- Node9&#45;&gt;Node10 -->
<g id="edge2" class="edge"><title>Node9&#45;&gt;Node10</title>
<path fill="none" stroke="midnightblue" d="M302.374,-14C310.865,-14 319.469,-14 327.808,-14"/>
<polygon fill="midnightblue" stroke="midnightblue" points="302.097,-10.5001 292.097,-14 302.097,-17.5001 302.097,-10.5001"/>
</g>
</g>
</svg>
