<?xml version="1.0" encoding="UTF-8" standalone="no"?>
<!DOCTYPE svg PUBLIC "-//W3C//DTD SVG 1.1//EN"
 "http://www.w3.org/Graphics/SVG/1.1/DTD/svg11.dtd">
<!-- Generated by graphviz version 2.36.0 (20140111.2315)
 -->
<!-- Title: com.github.aptd.simulation.CMain.execute Pages: 1 -->
<!--zoomable 220 -->
<svg id="main" version="1.1" xmlns="http://www.w3.org/2000/svg" xmlns:xlink="http://www.w3.org/1999/xlink" xml:space="preserve" onload="init(evt)">
<style type="text/css"><![CDATA[
.edge:hover path { stroke: red; }
.edge:hover polygon { stroke: red; fill: red; }
]]></style>
<script type="text/javascript"><![CDATA[
var edges = document.getElementsByTagName('g');
if (edges && edges.length) {
  for (var i=0;i<edges.length;i++) {
    if (edges[i].id.substr(0,4)=='edge') {
      edges[i].setAttribute('class','edge');
    }
  }
}
]]></script>
        <defs>
                <circle id="rim" cx="0" cy="0" r="7"/>
                <circle id="rim2" cx="0" cy="0" r="3.5"/>
                <g id="zoomPlus">
                        <use xlink:href="#rim" fill="#404040">
                                <set attributeName="fill" to="#808080" begin="zoomplus.mouseover" end="zoomplus.mouseout"/>
                        </use>
                        <path d="M-4,0h8M0,-4v8" fill="none" stroke="white" stroke-width="1.5" pointer-events="none"/>
                </g>
                <g id="zoomMin">
                        <use xlink:href="#rim" fill="#404040">
                                <set attributeName="fill" to="#808080" begin="zoomminus.mouseover" end="zoomminus.mouseout"/>
                        </use>
                        <path d="M-4,0h8" fill="none" stroke="white" stroke-width="1.5" pointer-events="none"/>
                </g>
                <g id="dirArrow">
                        <path fill="none" stroke="white" stroke-width="1.5" d="M0,-3.0v7 M-2.5,-0.5L0,-3.0L2.5,-0.5"/>
                </g>
               <g id="resetDef">
                       <use xlink:href="#rim2" fill="#404040">
                               <set attributeName="fill" to="#808080" begin="reset.mouseover" end="reset.mouseout"/>
                       </use>
               </g>
        </defs>

<script type="text/javascript">
var viewWidth = 750;
var viewHeight = 220;
var sectionId = 'dynsection-3';
</script>
<script xlink:href="../../svgpan.js"/>
<svg id="graph" class="graph">
<g id="viewport">
<title>com.github.aptd.simulation.CMain.execute</title>
<!-- Node11 -->
<g id="node1" class="node"><title>Node11</title>
<polygon fill="#bfbfbf" stroke="black" points="0,-94 0,-122 128,-122 128,-94 0,-94"/>
<text text-anchor="start" x="8" y="-110.8" font-family="Helvetica,sans-Serif" font-size="9.00">com.github.aptd.simulation.</text>
<text text-anchor="middle" x="64" y="-100.8" font-family="Helvetica,sans-Serif" font-size="9.00">CMain.execute</text>
</g>
<!-- Node12 -->
<g id="node2" class="node"><title>Node12</title>
<g id="a_node2"><a xlink:href="../../de/d16/classcom_1_1github_1_1aptd_1_1simulation_1_1CMain.htm#a6027e3d593fdf784f27ce7f866c89a67" target="_top" xlink:title="returns the experiment data models ">
<polygon fill="none" stroke="black" points="183,-180 183,-208 311,-208 311,-180 183,-180"/>
<text text-anchor="start" x="191" y="-196.8" font-family="Helvetica,sans-Serif" font-size="9.00">com.github.aptd.simulation.</text>
<text text-anchor="middle" x="247" y="-186.8" font-family="Helvetica,sans-Serif" font-size="9.00">CMain.datamodel</text>
</a>
</g>
</g>
<!-- Node11&#45;&gt;Node12 -->
<g id="edge1" class="edge"><title>Node11&#45;&gt;Node12</title>
<path fill="none" stroke="midnightblue" d="M86.7948,-122.098C106.455,-134.435 136.433,-152.318 164,-165 172.858,-169.075 182.464,-172.939 191.878,-176.44"/>
<polygon fill="midnightblue" stroke="midnightblue" points="190.984,-179.838 201.578,-179.95 193.366,-173.256 190.984,-179.838"/>
</g>
<!-- Node14 -->
<g id="node4" class="node"><title>Node14</title>
<g id="a_node4"><a xlink:href="../../da/d54/classcom_1_1github_1_1aptd_1_1simulation_1_1common_1_1CConfiguration.htm#a07954742f75cbc88e0c43ffac52b933e" target="_top" xlink:title="returns a configuration value or on not existing the default value ">
<polygon fill="none" stroke="black" points="370,-137 370,-165 536,-165 536,-137 370,-137"/>
<text text-anchor="start" x="378" y="-153.8" font-family="Helvetica,sans-Serif" font-size="9.00">com.github.aptd.simulation.common.</text>
<text text-anchor="middle" x="453" y="-143.8" font-family="Helvetica,sans-Serif" font-size="9.00">CConfiguration.getOrDefault</text>
</a>
</g>
</g>
<!-- Node11&#45;&gt;Node14 -->
<g id="edge7" class="edge"><title>Node11&#45;&gt;Node14</title>
<path fill="none" stroke="midnightblue" d="M118.393,-122.041C133.083,-125.455 149.08,-128.763 164,-131 228.995,-140.744 302.968,-145.753 359.669,-148.321"/>
<polygon fill="midnightblue" stroke="midnightblue" points="359.547,-151.819 369.69,-148.758 359.852,-144.826 359.547,-151.819"/>
</g>
<!-- Node16 -->
<g id="node6" class="node"><title>Node16</title>
<g id="a_node6"><a xlink:href="../../d6/dee/classcom_1_1github_1_1aptd_1_1simulation_1_1ui_1_1CHTTPServer.htm#a5838de5a6dbcddb63c0a0add8d1583ad" target="_top" xlink:title="execute the server instance ">
<polygon fill="none" stroke="black" points="178,-94 178,-122 316,-122 316,-94 178,-94"/>
<text text-anchor="start" x="186" y="-110.8" font-family="Helvetica,sans-Serif" font-size="9.00">com.github.aptd.simulation.ui.</text>
<text text-anchor="middle" x="247" y="-100.8" font-family="Helvetica,sans-Serif" font-size="9.00">CHTTPServer.execute</text>
</a>
</g>
</g>
<!-- Node11&#45;&gt;Node16 -->
<g id="edge5" class="edge"><title>Node11&#45;&gt;Node16</title>
<path fill="none" stroke="midnightblue" d="M128.051,-108C140.896,-108 154.557,-108 167.855,-108"/>
<polygon fill="midnightblue" stroke="midnightblue" points="167.933,-111.5 177.933,-108 167.933,-104.5 167.933,-111.5"/>
</g>
<!-- Node17 -->
<g id="node7" class="node"><title>Node17</title>
<g id="a_node7"><a xlink:href="../../dc/d6b/enumcom_1_1github_1_1aptd_1_1simulation_1_1factory_1_1EFactory.htm#aa9b7439cd2885991ed1d56af4abaaf36" target="_top" xlink:title="factory ">
<polygon fill="none" stroke="black" points="168,-47 168,-75 326,-75 326,-47 168,-47"/>
<text text-anchor="start" x="176" y="-63.8" font-family="Helvetica,sans-Serif" font-size="9.00">com.github.aptd.simulation.factory.</text>
<text text-anchor="middle" x="247" y="-53.8" font-family="Helvetica,sans-Serif" font-size="9.00">EFactory.from</text>
</a>
</g>
</g>
<!-- Node11&#45;&gt;Node17 -->
<g id="edge6" class="edge"><title>Node11&#45;&gt;Node17</title>
<path fill="none" stroke="midnightblue" d="M119.306,-93.8985C139.083,-88.7631 161.62,-82.9108 182.149,-77.5801"/>
<polygon fill="midnightblue" stroke="midnightblue" points="183.245,-80.9116 192.044,-75.0106 181.486,-74.1363 183.245,-80.9116"/>
</g>
<!-- Node18 -->
<g id="node8" class="node"><title>Node18</title>
<g id="a_node8"><a xlink:href="../../da/d54/classcom_1_1github_1_1aptd_1_1simulation_1_1common_1_1CConfiguration.htm#adcd5d260dd8c1171cba0df2a360b9468" target="_top" xlink:title="loads the configuration ">
<polygon fill="none" stroke="black" points="164,-0 164,-28 330,-28 330,-0 164,-0"/>
<text text-anchor="start" x="172" y="-16.8" font-family="Helvetica,sans-Serif" font-size="9.00">com.github.aptd.simulation.common.</text>
<text text-anchor="middle" x="247" y="-6.8" font-family="Helvetica,sans-Serif" font-size="9.00">CConfiguration.loadfile</text>
</a>
</g>
</g>
<!-- Node11&#45;&gt;Node18 -->
<g id="edge8" class="edge"><title>Node11&#45;&gt;Node18</title>
<path fill="none" stroke="midnightblue" d="M81.0324,-93.7681C99.7324,-77.8483 132.161,-52.294 164,-37 168.084,-35.0384 172.364,-33.2168 176.737,-31.53"/>
<polygon fill="midnightblue" stroke="midnightblue" points="178.188,-34.7276 186.414,-28.05 175.819,-28.1406 178.188,-34.7276"/>
</g>
<!-- Node13 -->
<g id="node3" class="node"><title>Node13</title>
<g id="a_node3"><a xlink:href="../../d4/d5a/enumcom_1_1github_1_1aptd_1_1simulation_1_1datamodel_1_1EDataModel.htm#a1e546ed5887dd6314a5ef1fc5b92207e" target="_top" xlink:title="factory ">
<polygon fill="none" stroke="black" points="366,-184 366,-212 540,-212 540,-184 366,-184"/>
<text text-anchor="start" x="374" y="-200.8" font-family="Helvetica,sans-Serif" font-size="9.00">com.github.aptd.simulation.datamodel.</text>
<text text-anchor="middle" x="453" y="-190.8" font-family="Helvetica,sans-Serif" font-size="9.00">EDataModel.from</text>
</a>
</g>
</g>
<!-- Node12&#45;&gt;Node13 -->
<g id="edge2" class="edge"><title>Node12&#45;&gt;Node13</title>
<path fill="none" stroke="midnightblue" d="M311.15,-195.238C325.221,-195.514 340.452,-195.813 355.522,-196.108"/>
<polygon fill="midnightblue" stroke="midnightblue" points="355.846,-199.615 365.913,-196.312 355.984,-192.617 355.846,-199.615"/>
</g>
<!-- Node12&#45;&gt;Node14 -->
<g id="edge3" class="edge"><title>Node12&#45;&gt;Node14</title>
<path fill="none" stroke="midnightblue" d="M311.15,-180.689C331.455,-176.409 354.174,-171.62 375.34,-167.159"/>
<polygon fill="midnightblue" stroke="midnightblue" points="376.2,-170.554 385.263,-165.067 374.756,-163.705 376.2,-170.554"/>
</g>
<!-- Node15 -->
<g id="node5" class="node"><title>Node15</title>
<g id="a_node5"><a xlink:href="../../da/d54/classcom_1_1github_1_1aptd_1_1simulation_1_1common_1_1CConfiguration.htm#a6ab943cd7081532db9aa482af0e58bd1" target="_top" xlink:title="recursive descent ">
<polygon fill="none" stroke="black" points="576,-137 576,-165 742,-165 742,-137 576,-137"/>
<text text-anchor="start" x="584" y="-153.8" font-family="Helvetica,sans-Serif" font-size="9.00">com.github.aptd.simulation.common.</text>
<text text-anchor="middle" x="659" y="-143.8" font-family="Helvetica,sans-Serif" font-size="9.00">CConfiguration.recursivedescent</text>
</a>
</g>
</g>
<!-- Node14&#45;&gt;Node15 -->
<g id="edge4" class="edge"><title>Node14&#45;&gt;Node15</title>
<path fill="none" stroke="midnightblue" d="M536.093,-151C545.789,-151 555.735,-151 565.562,-151"/>
<polygon fill="midnightblue" stroke="midnightblue" points="565.743,-154.5 575.743,-151 565.743,-147.5 565.743,-154.5"/>
</g>
<!-- Node19 -->
<g id="node9" class="node"><title>Node19</title>
<g id="a_node9"><a xlink:href="../../da/d54/classcom_1_1github_1_1aptd_1_1simulation_1_1common_1_1CConfiguration.htm#ab3fc88b55f994033432f09dc61bbf0fc" target="_top" xlink:title="set default path ">
<polygon fill="none" stroke="black" points="370,-0 370,-28 536,-28 536,-0 370,-0"/>
<text text-anchor="start" x="378" y="-16.8" font-family="Helvetica,sans-Serif" font-size="9.00">com.github.aptd.simulation.common.</text>
<text text-anchor="middle" x="453" y="-6.8" font-family="Helvetica,sans-Serif" font-size="9.00">CConfiguration.orDefaultPath</text>
</a>
</g>
</g>
<!-- Node18&#45;&gt;Node19 -->
<g id="edge9" class="edge"><title>Node18&#45;&gt;Node19</title>
<path fill="none" stroke="midnightblue" d="M330.093,-14C339.789,-14 349.735,-14 359.562,-14"/>
<polygon fill="midnightblue" stroke="midnightblue" points="359.743,-17.5001 369.743,-14 359.743,-10.5001 359.743,-17.5001"/>
</g>
</g>
</svg>
        <g id="navigator" transform="translate(0 0)" fill="#404254">
                <rect fill="#f2f5e9" fill-opacity="0.5" stroke="#606060" stroke-width=".5" x="0" y="0" width="60" height="60"/>
                <use id="zoomplus" xlink:href="#zoomPlus" x="17" y="9" onmousedown="handleZoom(evt,'in')"/>
                <use id="zoomminus" xlink:href="#zoomMin" x="42" y="9" onmousedown="handleZoom(evt,'out')"/>
                <use id="reset" xlink:href="#resetDef" x="30" y="36" onmousedown="handleReset()"/>
                <g id="arrowUp" xlink:href="#dirArrow" transform="translate(30 24)" onmousedown="handlePan(0,-1)">
                  <use xlink:href="#rim" fill="#404040">
                        <set attributeName="fill" to="#808080" begin="arrowUp.mouseover" end="arrowUp.mouseout"/>
                  </use>
                  <path fill="none" stroke="white" stroke-width="1.5" d="M0,-3.0v7 M-2.5,-0.5L0,-3.0L2.5,-0.5"/>
                </g>
                <g id="arrowRight" xlink:href="#dirArrow" transform="rotate(90) translate(36 -43)" onmousedown="handlePan(1,0)">
                  <use xlink:href="#rim" fill="#404040">
                        <set attributeName="fill" to="#808080" begin="arrowRight.mouseover" end="arrowRight.mouseout"/>
                  </use>
                  <path fill="none" stroke="white" stroke-width="1.5" d="M0,-3.0v7 M-2.5,-0.5L0,-3.0L2.5,-0.5"/>
                </g>
                <g id="arrowDown" xlink:href="#dirArrow" transform="rotate(180) translate(-30 -48)" onmousedown="handlePan(0,1)">
                  <use xlink:href="#rim" fill="#404040">
                        <set attributeName="fill" to="#808080" begin="arrowDown.mouseover" end="arrowDown.mouseout"/>
                  </use>
                  <path fill="none" stroke="white" stroke-width="1.5" d="M0,-3.0v7 M-2.5,-0.5L0,-3.0L2.5,-0.5"/>
                </g>
                <g id="arrowLeft" xlink:href="#dirArrow" transform="rotate(270) translate(-36 17)" onmousedown="handlePan(-1,0)">
                  <use xlink:href="#rim" fill="#404040">
                        <set attributeName="fill" to="#808080" begin="arrowLeft.mouseover" end="arrowLeft.mouseout"/>
                  </use>
                  <path fill="none" stroke="white" stroke-width="1.5" d="M0,-3.0v7 M-2.5,-0.5L0,-3.0L2.5,-0.5"/>
                </g>
        </g>
        <svg viewBox="0 0 15 15" width="100%" height="30px" preserveAspectRatio="xMaxYMin meet">
         <g id="arrow_out" transform="scale(0.3 0.3)">
          <a xlink:href="classcom_1_1github_1_1aptd_1_1simulation_1_1CMain_acff2c0efa5c44523efededb50a0f9f31_cgraph_org.svg" target="_base">
           <rect id="button" ry="5" rx="5" y="6" x="6" height="38" width="38"
                fill="#f2f5e9" fill-opacity="0.5" stroke="#606060" stroke-width="1.0"/>
           <path id="arrow"
             d="M 11.500037,31.436501 C 11.940474,20.09759 22.043105,11.32322 32.158766,21.979434 L 37.068811,17.246167 C 37.068811,17.246167 37.088388,32 37.088388,32 L 22.160133,31.978069 C 22.160133,31.978069 26.997745,27.140456 26.997745,27.140456 C 18.528582,18.264221 13.291696,25.230495 11.500037,31.436501 z"
             style="fill:#404040;"/>
          </a>
         </g>
        </svg>
</svg>
