<?xml version="1.0" encoding="UTF-8" standalone="no"?>
<!DOCTYPE svg PUBLIC "-//W3C//DTD SVG 1.1//EN"
 "http://www.w3.org/Graphics/SVG/1.1/DTD/svg11.dtd">
<!-- Generated by graphviz version 2.36.0 (20140111.2315)
 -->
<!-- Title: com.github.aptd.simulation.CMain.datamodel Pages: 1 -->
<svg width="548pt" height="83pt"
 viewBox="0.00 0.00 548.00 83.00" xmlns="http://www.w3.org/2000/svg" xmlns:xlink="http://www.w3.org/1999/xlink">
<g id="graph0" class="graph" transform="scale(1 1) rotate(0) translate(4 79)">
<title>com.github.aptd.simulation.CMain.datamodel</title>
<!-- Node4 -->
<g id="node1" class="node"><title>Node4</title>
<polygon fill="#bfbfbf" stroke="black" points="0,-23 0,-51 128,-51 128,-23 0,-23"/>
<text text-anchor="start" x="8" y="-39.8" font-family="Helvetica,sans-Serif" font-size="9.00">com.github.aptd.simulation.</text>
<text text-anchor="middle" x="64" y="-29.8" font-family="Helvetica,sans-Serif" font-size="9.00">CMain.datamodel</text>
</g>
<!-- Node5 -->
<g id="node2" class="node"><title>Node5</title>
<g id="a_node2"><a xlink:href="../../d4/d5a/enumcom_1_1github_1_1aptd_1_1simulation_1_1datamodel_1_1EDataModel.htm#a1e546ed5887dd6314a5ef1fc5b92207e" target="_top" xlink:title="factory ">
<polygon fill="none" stroke="black" points="164,-47 164,-75 338,-75 338,-47 164,-47"/>
<text text-anchor="start" x="172" y="-63.8" font-family="Helvetica,sans-Serif" font-size="9.00">com.github.aptd.simulation.datamodel.</text>
<text text-anchor="middle" x="251" y="-53.8" font-family="Helvetica,sans-Serif" font-size="9.00">EDataModel.from</text>
</a>
</g>
</g>
<!-- Node4&#45;&gt;Node5 -->
<g id="edge1" class="edge"><title>Node4&#45;&gt;Node5</title>
<path fill="none" stroke="midnightblue" d="M128.149,-45.1923C136.425,-46.2659 145.05,-47.3849 153.72,-48.5096"/>
<polygon fill="midnightblue" stroke="midnightblue" points="153.533,-52.0146 163.9,-49.8303 154.433,-45.0727 153.533,-52.0146"/>
</g>
<!-- Node6 -->
<g id="node3" class="node"><title>Node6</title>
<g id="a_node3"><a xlink:href="../../da/d54/classcom_1_1github_1_1aptd_1_1simulation_1_1common_1_1CConfiguration.htm#a07954742f75cbc88e0c43ffac52b933e" target="_top" xlink:title="returns a configuration value or on not existing the default value ">
<polygon fill="none" stroke="black" points="168,-0 168,-28 334,-28 334,-0 168,-0"/>
<text text-anchor="start" x="176" y="-16.8" font-family="Helvetica,sans-Serif" font-size="9.00">com.github.aptd.simulation.common.</text>
<text text-anchor="middle" x="251" y="-6.8" font-family="Helvetica,sans-Serif" font-size="9.00">CConfiguration.getOrDefault</text>
</a>
</g>
</g>
<!-- Node4&#45;&gt;Node6 -->
<g id="edge2" class="edge"><title>Node4&#45;&gt;Node6</title>
<path fill="none" stroke="midnightblue" d="M128.149,-29.149C137.727,-27.9583 147.773,-26.7093 157.814,-25.461"/>
<polygon fill="midnightblue" stroke="midnightblue" points="158.344,-28.9221 167.836,-24.215 157.48,-21.9756 158.344,-28.9221"/>
</g>
<!-- Node7 -->
<g id="node4" class="node"><title>Node7</title>
<g id="a_node4"><a xlink:href="../../da/d54/classcom_1_1github_1_1aptd_1_1simulation_1_1common_1_1CConfiguration.htm#a6ab943cd7081532db9aa482af0e58bd1" target="_top" xlink:title="recursive descent ">
<polygon fill="none" stroke="black" points="374,-0 374,-28 540,-28 540,-0 374,-0"/>
<text text-anchor="start" x="382" y="-16.8" font-family="Helvetica,sans-Serif" font-size="9.00">com.github.aptd.simulation.common.</text>
<text text-anchor="middle" x="457" y="-6.8" font-family="Helvetica,sans-Serif" font-size="9.00">CConfiguration.recursivedescent</text>
</a>
</g>
</g>
<!-- Node6&#45;&gt;Node7 -->
<g id="edge3" class="edge"><title>Node6&#45;&gt;Node7</title>
<path fill="none" stroke="midnightblue" d="M334.093,-14C343.789,-14 353.735,-14 363.562,-14"/>
<polygon fill="midnightblue" stroke="midnightblue" points="363.743,-17.5001 373.743,-14 363.743,-10.5001 363.743,-17.5001"/>
</g>
</g>
</svg>
