<?xml version="1.0" encoding="UTF-8" standalone="no"?>
<!DOCTYPE svg PUBLIC "-//W3C//DTD SVG 1.1//EN"
 "http://www.w3.org/Graphics/SVG/1.1/DTD/svg11.dtd">
<!-- Generated by graphviz version 2.36.0 (20140111.2315)
 -->
<!-- Title: com.github.aptd.simulation.CMain.main Pages: 1 -->
<!--zoomable 220 -->
<svg id="main" version="1.1" xmlns="http://www.w3.org/2000/svg" xmlns:xlink="http://www.w3.org/1999/xlink" xml:space="preserve" onload="init(evt)">
<style type="text/css"><![CDATA[
.edge:hover path { stroke: red; }
.edge:hover polygon { stroke: red; fill: red; }
]]></style>
<script type="text/javascript"><![CDATA[
var edges = document.getElementsByTagName('g');
if (edges && edges.length) {
  for (var i=0;i<edges.length;i++) {
    if (edges[i].id.substr(0,4)=='edge') {
      edges[i].setAttribute('class','edge');
    }
  }
}
]]></script>
        <defs>
                <circle id="rim" cx="0" cy="0" r="7"/>
                <circle id="rim2" cx="0" cy="0" r="3.5"/>
                <g id="zoomPlus">
                        <use xlink:href="#rim" fill="#404040">
                                <set attributeName="fill" to="#808080" begin="zoomplus.mouseover" end="zoomplus.mouseout"/>
                        </use>
                        <path d="M-4,0h8M0,-4v8" fill="none" stroke="white" stroke-width="1.5" pointer-events="none"/>
                </g>
                <g id="zoomMin">
                        <use xlink:href="#rim" fill="#404040">
                                <set attributeName="fill" to="#808080" begin="zoomminus.mouseover" end="zoomminus.mouseout"/>
                        </use>
                        <path d="M-4,0h8" fill="none" stroke="white" stroke-width="1.5" pointer-events="none"/>
                </g>
                <g id="dirArrow">
                        <path fill="none" stroke="white" stroke-width="1.5" d="M0,-3.0v7 M-2.5,-0.5L0,-3.0L2.5,-0.5"/>
                </g>
               <g id="resetDef">
                       <use xlink:href="#rim2" fill="#404040">
                               <set attributeName="fill" to="#808080" begin="reset.mouseover" end="reset.mouseout"/>
                       </use>
               </g>
        </defs>

<script type="text/javascript">
var viewWidth = 952;
var viewHeight = 220;
var sectionId = 'dynsection-5';
</script>
<script xlink:href="../../svgpan.js"/>
<svg id="graph" class="graph">
<g id="viewport">
<title>com.github.aptd.simulation.CMain.main</title>
<!-- Node22 -->
<g id="node1" class="node"><title>Node22</title>
<polygon fill="#bfbfbf" stroke="black" points="0,-94 0,-122 128,-122 128,-94 0,-94"/>
<text text-anchor="start" x="8" y="-110.8" font-family="Helvetica,sans-Serif" font-size="9.00">com.github.aptd.simulation.</text>
<text text-anchor="middle" x="64" y="-100.8" font-family="Helvetica,sans-Serif" font-size="9.00">CMain.main</text>
</g>
<!-- Node23 -->
<g id="node2" class="node"><title>Node23</title>
<g id="a_node2"><a xlink:href="../../da/d54/classcom_1_1github_1_1aptd_1_1simulation_1_1common_1_1CConfiguration.htm#a32a9e9d71bbd0c412366b4a33ce615d5" target="_top" xlink:title="creates the default configuration ">
<polygon fill="none" stroke="black" points="164,-141 164,-169 330,-169 330,-141 164,-141"/>
<text text-anchor="start" x="172" y="-157.8" font-family="Helvetica,sans-Serif" font-size="9.00">com.github.aptd.simulation.common.</text>
<text text-anchor="middle" x="247" y="-147.8" font-family="Helvetica,sans-Serif" font-size="9.00">CConfiguration.createdefault</text>
</a>
</g>
</g>
<!-- Node22&#45;&gt;Node23 -->
<g id="edge1" class="edge"><title>Node22&#45;&gt;Node23</title>
<path fill="none" stroke="midnightblue" d="M119.306,-122.102C139.083,-127.237 161.62,-133.089 182.149,-138.42"/>
<polygon fill="midnightblue" stroke="midnightblue" points="181.486,-141.864 192.044,-140.989 183.245,-135.088 181.486,-141.864"/>
</g>
<!-- Node24 -->
<g id="node3" class="node"><title>Node24</title>
<g id="a_node3"><a xlink:href="../../de/d16/classcom_1_1github_1_1aptd_1_1simulation_1_1CMain.htm#acff2c0efa5c44523efededb50a0f9f31" target="_top" xlink:title="com.github.aptd.simulation.\lCMain.execute">
<polygon fill="none" stroke="black" points="183,-94 183,-122 311,-122 311,-94 183,-94"/>
<text text-anchor="start" x="191" y="-110.8" font-family="Helvetica,sans-Serif" font-size="9.00">com.github.aptd.simulation.</text>
<text text-anchor="middle" x="247" y="-100.8" font-family="Helvetica,sans-Serif" font-size="9.00">CMain.execute</text>
</a>
</g>
</g>
<!-- Node22&#45;&gt;Node24 -->
<g id="edge2" class="edge"><title>Node22&#45;&gt;Node24</title>
<path fill="none" stroke="midnightblue" d="M128.051,-108C142.475,-108 157.926,-108 172.737,-108"/>
<polygon fill="midnightblue" stroke="midnightblue" points="172.869,-111.5 182.869,-108 172.869,-104.5 172.869,-111.5"/>
</g>
<!-- Node33 -->
<g id="node12" class="node"><title>Node33</title>
<g id="a_node12"><a xlink:href="../../d6/d84/classcom_1_1github_1_1aptd_1_1simulation_1_1common_1_1CCommon.htm#af0447c5c953ea176880a7960e6c69cbe" target="_top" xlink:title="returns the language depend string on any object ">
<polygon fill="none" stroke="black" points="164,-47 164,-75 330,-75 330,-47 164,-47"/>
<text text-anchor="start" x="172" y="-63.8" font-family="Helvetica,sans-Serif" font-size="9.00">com.github.aptd.simulation.common.</text>
<text text-anchor="middle" x="247" y="-53.8" font-family="Helvetica,sans-Serif" font-size="9.00">CCommon.languagestring</text>
</a>
</g>
</g>
<!-- Node22&#45;&gt;Node33 -->
<g id="edge12" class="edge"><title>Node22&#45;&gt;Node33</title>
<path fill="none" stroke="midnightblue" d="M119.306,-93.8985C139.083,-88.7631 161.62,-82.9108 182.149,-77.5801"/>
<polygon fill="midnightblue" stroke="midnightblue" points="183.245,-80.9116 192.044,-75.0106 181.486,-74.1363 183.245,-80.9116"/>
</g>
<!-- Node25 -->
<g id="node4" class="node"><title>Node25</title>
<g id="a_node4"><a xlink:href="../../de/d16/classcom_1_1github_1_1aptd_1_1simulation_1_1CMain.htm#a6027e3d593fdf784f27ce7f866c89a67" target="_top" xlink:title="returns the experiment data models ">
<polygon fill="none" stroke="black" points="385,-180 385,-208 513,-208 513,-180 385,-180"/>
<text text-anchor="start" x="393" y="-196.8" font-family="Helvetica,sans-Serif" font-size="9.00">com.github.aptd.simulation.</text>
<text text-anchor="middle" x="449" y="-186.8" font-family="Helvetica,sans-Serif" font-size="9.00">CMain.datamodel</text>
</a>
</g>
</g>
<!-- Node24&#45;&gt;Node25 -->
<g id="edge3" class="edge"><title>Node24&#45;&gt;Node25</title>
<path fill="none" stroke="midnightblue" d="M307.992,-122.057C315.624,-124.848 323.152,-128.139 330,-132 348.908,-142.659 347.394,-153.823 366,-165 372.994,-169.201 380.688,-172.921 388.476,-176.175"/>
<polygon fill="midnightblue" stroke="midnightblue" points="387.394,-179.51 397.981,-179.915 389.957,-172.997 387.394,-179.51"/>
</g>
<!-- Node27 -->
<g id="node6" class="node"><title>Node27</title>
<g id="a_node6"><a xlink:href="../../da/d54/classcom_1_1github_1_1aptd_1_1simulation_1_1common_1_1CConfiguration.htm#a07954742f75cbc88e0c43ffac52b933e" target="_top" xlink:title="returns a configuration value or on not existing the default value ">
<polygon fill="none" stroke="black" points="572,-137 572,-165 738,-165 738,-137 572,-137"/>
<text text-anchor="start" x="580" y="-153.8" font-family="Helvetica,sans-Serif" font-size="9.00">com.github.aptd.simulation.common.</text>
<text text-anchor="middle" x="655" y="-143.8" font-family="Helvetica,sans-Serif" font-size="9.00">CConfiguration.getOrDefault</text>
</a>
</g>
</g>
<!-- Node24&#45;&gt;Node27 -->
<g id="edge9" class="edge"><title>Node24&#45;&gt;Node27</title>
<path fill="none" stroke="midnightblue" d="M311.147,-121.797C328.825,-125.253 348.101,-128.643 366,-131 431.159,-139.58 505.128,-144.617 561.786,-147.49"/>
<polygon fill="midnightblue" stroke="midnightblue" points="561.639,-150.987 571.799,-147.985 561.984,-143.996 561.639,-150.987"/>
</g>
<!-- Node29 -->
<g id="node8" class="node"><title>Node29</title>
<g id="a_node8"><a xlink:href="../../d6/dee/classcom_1_1github_1_1aptd_1_1simulation_1_1ui_1_1CHTTPServer.htm#a5838de5a6dbcddb63c0a0add8d1583ad" target="_top" xlink:title="execute the server instance ">
<polygon fill="none" stroke="black" points="380,-94 380,-122 518,-122 518,-94 380,-94"/>
<text text-anchor="start" x="388" y="-110.8" font-family="Helvetica,sans-Serif" font-size="9.00">com.github.aptd.simulation.ui.</text>
<text text-anchor="middle" x="449" y="-100.8" font-family="Helvetica,sans-Serif" font-size="9.00">CHTTPServer.execute</text>
</a>
</g>
</g>
<!-- Node24&#45;&gt;Node29 -->
<g id="edge7" class="edge"><title>Node24&#45;&gt;Node29</title>
<path fill="none" stroke="midnightblue" d="M311.007,-108C329.63,-108 350.246,-108 369.709,-108"/>
<polygon fill="midnightblue" stroke="midnightblue" points="369.765,-111.5 379.765,-108 369.765,-104.5 369.765,-111.5"/>
</g>
<!-- Node30 -->
<g id="node9" class="node"><title>Node30</title>
<g id="a_node9"><a xlink:href="../../dc/d6b/enumcom_1_1github_1_1aptd_1_1simulation_1_1factory_1_1EFactory.htm#aa9b7439cd2885991ed1d56af4abaaf36" target="_top" xlink:title="factory ">
<polygon fill="none" stroke="black" points="370,-47 370,-75 528,-75 528,-47 370,-47"/>
<text text-anchor="start" x="378" y="-63.8" font-family="Helvetica,sans-Serif" font-size="9.00">com.github.aptd.simulation.factory.</text>
<text text-anchor="middle" x="449" y="-53.8" font-family="Helvetica,sans-Serif" font-size="9.00">EFactory.from</text>
</a>
</g>
</g>
<!-- Node24&#45;&gt;Node30 -->
<g id="edge8" class="edge"><title>Node24&#45;&gt;Node30</title>
<path fill="none" stroke="midnightblue" d="M307.736,-93.9621C329.895,-88.7548 355.22,-82.8033 378.198,-77.4035"/>
<polygon fill="midnightblue" stroke="midnightblue" points="379.293,-80.7416 388.227,-75.0467 377.691,-73.9273 379.293,-80.7416"/>
</g>
<!-- Node31 -->
<g id="node10" class="node"><title>Node31</title>
<g id="a_node10"><a xlink:href="../../da/d54/classcom_1_1github_1_1aptd_1_1simulation_1_1common_1_1CConfiguration.htm#adcd5d260dd8c1171cba0df2a360b9468" target="_top" xlink:title="loads the configuration ">
<polygon fill="none" stroke="black" points="366,-0 366,-28 532,-28 532,-0 366,-0"/>
<text text-anchor="start" x="374" y="-16.8" font-family="Helvetica,sans-Serif" font-size="9.00">com.github.aptd.simulation.common.</text>
<text text-anchor="middle" x="449" y="-6.8" font-family="Helvetica,sans-Serif" font-size="9.00">CConfiguration.loadfile</text>
</a>
</g>
</g>
<!-- Node24&#45;&gt;Node31 -->
<g id="edge10" class="edge"><title>Node24&#45;&gt;Node31</title>
<path fill="none" stroke="midnightblue" d="M311.225,-94.012C317.847,-91.2454 324.25,-87.9419 330,-84 351.703,-69.1223 344.214,-51.7551 366,-37 368.41,-35.3677 370.935,-33.8504 373.541,-32.4401"/>
<polygon fill="midnightblue" stroke="midnightblue" points="375.182,-35.5349 382.676,-28.0457 372.147,-29.2269 375.182,-35.5349"/>
</g>
<!-- Node26 -->
<g id="node5" class="node"><title>Node26</title>
<g id="a_node5"><a xlink:href="../../d4/d5a/enumcom_1_1github_1_1aptd_1_1simulation_1_1datamodel_1_1EDataModel.htm#a1e546ed5887dd6314a5ef1fc5b92207e" target="_top" xlink:title="factory ">
<polygon fill="none" stroke="black" points="568,-184 568,-212 742,-212 742,-184 568,-184"/>
<text text-anchor="start" x="576" y="-200.8" font-family="Helvetica,sans-Serif" font-size="9.00">com.github.aptd.simulation.datamodel.</text>
<text text-anchor="middle" x="655" y="-190.8" font-family="Helvetica,sans-Serif" font-size="9.00">EDataModel.from</text>
</a>
</g>
</g>
<!-- Node25&#45;&gt;Node26 -->
<g id="edge4" class="edge"><title>Node25&#45;&gt;Node26</title>
<path fill="none" stroke="midnightblue" d="M513.15,-195.238C527.221,-195.514 542.452,-195.813 557.522,-196.108"/>
<polygon fill="midnightblue" stroke="midnightblue" points="557.846,-199.615 567.913,-196.312 557.984,-192.617 557.846,-199.615"/>
</g>
<!-- Node25&#45;&gt;Node27 -->
<g id="edge5" class="edge"><title>Node25&#45;&gt;Node27</title>
<path fill="none" stroke="midnightblue" d="M513.15,-180.689C533.455,-176.409 556.174,-171.62 577.34,-167.159"/>
<polygon fill="midnightblue" stroke="midnightblue" points="578.2,-170.554 587.263,-165.067 576.756,-163.705 578.2,-170.554"/>
</g>
<!-- Node28 -->
<g id="node7" class="node"><title>Node28</title>
<g id="a_node7"><a xlink:href="../../da/d54/classcom_1_1github_1_1aptd_1_1simulation_1_1common_1_1CConfiguration.htm#a6ab943cd7081532db9aa482af0e58bd1" target="_top" xlink:title="recursive descent ">
<polygon fill="none" stroke="black" points="778,-137 778,-165 944,-165 944,-137 778,-137"/>
<text text-anchor="start" x="786" y="-153.8" font-family="Helvetica,sans-Serif" font-size="9.00">com.github.aptd.simulation.common.</text>
<text text-anchor="middle" x="861" y="-143.8" font-family="Helvetica,sans-Serif" font-size="9.00">CConfiguration.recursivedescent</text>
</a>
</g>
</g>
<!-- Node27&#45;&gt;Node28 -->
<g id="edge6" class="edge"><title>Node27&#45;&gt;Node28</title>
<path fill="none" stroke="midnightblue" d="M738.093,-151C747.789,-151 757.735,-151 767.562,-151"/>
<polygon fill="midnightblue" stroke="midnightblue" points="767.743,-154.5 777.743,-151 767.743,-147.5 767.743,-154.5"/>
</g>
<!-- Node32 -->
<g id="node11" class="node"><title>Node32</title>
<g id="a_node11"><a xlink:href="../../da/d54/classcom_1_1github_1_1aptd_1_1simulation_1_1common_1_1CConfiguration.htm#ab3fc88b55f994033432f09dc61bbf0fc" target="_top" xlink:title="set default path ">
<polygon fill="none" stroke="black" points="572,-0 572,-28 738,-28 738,-0 572,-0"/>
<text text-anchor="start" x="580" y="-16.8" font-family="Helvetica,sans-Serif" font-size="9.00">com.github.aptd.simulation.common.</text>
<text text-anchor="middle" x="655" y="-6.8" font-family="Helvetica,sans-Serif" font-size="9.00">CConfiguration.orDefaultPath</text>
</a>
</g>
</g>
<!-- Node31&#45;&gt;Node32 -->
<g id="edge11" class="edge"><title>Node31&#45;&gt;Node32</title>
<path fill="none" stroke="midnightblue" d="M532.093,-14C541.789,-14 551.735,-14 561.562,-14"/>
<polygon fill="midnightblue" stroke="midnightblue" points="561.743,-17.5001 571.743,-14 561.743,-10.5001 561.743,-17.5001"/>
</g>
</g>
</svg>
        <g id="navigator" transform="translate(0 0)" fill="#404254">
                <rect fill="#f2f5e9" fill-opacity="0.5" stroke="#606060" stroke-width=".5" x="0" y="0" width="60" height="60"/>
                <use id="zoomplus" xlink:href="#zoomPlus" x="17" y="9" onmousedown="handleZoom(evt,'in')"/>
                <use id="zoomminus" xlink:href="#zoomMin" x="42" y="9" onmousedown="handleZoom(evt,'out')"/>
                <use id="reset" xlink:href="#resetDef" x="30" y="36" onmousedown="handleReset()"/>
                <g id="arrowUp" xlink:href="#dirArrow" transform="translate(30 24)" onmousedown="handlePan(0,-1)">
                  <use xlink:href="#rim" fill="#404040">
                        <set attributeName="fill" to="#808080" begin="arrowUp.mouseover" end="arrowUp.mouseout"/>
                  </use>
                  <path fill="none" stroke="white" stroke-width="1.5" d="M0,-3.0v7 M-2.5,-0.5L0,-3.0L2.5,-0.5"/>
                </g>
                <g id="arrowRight" xlink:href="#dirArrow" transform="rotate(90) translate(36 -43)" onmousedown="handlePan(1,0)">
                  <use xlink:href="#rim" fill="#404040">
                        <set attributeName="fill" to="#808080" begin="arrowRight.mouseover" end="arrowRight.mouseout"/>
                  </use>
                  <path fill="none" stroke="white" stroke-width="1.5" d="M0,-3.0v7 M-2.5,-0.5L0,-3.0L2.5,-0.5"/>
                </g>
                <g id="arrowDown" xlink:href="#dirArrow" transform="rotate(180) translate(-30 -48)" onmousedown="handlePan(0,1)">
                  <use xlink:href="#rim" fill="#404040">
                        <set attributeName="fill" to="#808080" begin="arrowDown.mouseover" end="arrowDown.mouseout"/>
                  </use>
                  <path fill="none" stroke="white" stroke-width="1.5" d="M0,-3.0v7 M-2.5,-0.5L0,-3.0L2.5,-0.5"/>
                </g>
                <g id="arrowLeft" xlink:href="#dirArrow" transform="rotate(270) translate(-36 17)" onmousedown="handlePan(-1,0)">
                  <use xlink:href="#rim" fill="#404040">
                        <set attributeName="fill" to="#808080" begin="arrowLeft.mouseover" end="arrowLeft.mouseout"/>
                  </use>
                  <path fill="none" stroke="white" stroke-width="1.5" d="M0,-3.0v7 M-2.5,-0.5L0,-3.0L2.5,-0.5"/>
                </g>
        </g>
        <svg viewBox="0 0 15 15" width="100%" height="30px" preserveAspectRatio="xMaxYMin meet">
         <g id="arrow_out" transform="scale(0.3 0.3)">
          <a xlink:href="classcom_1_1github_1_1aptd_1_1simulation_1_1CMain_a93abfa783d7788c0a00b0b1bc107b207_cgraph_org.svg" target="_base">
           <rect id="button" ry="5" rx="5" y="6" x="6" height="38" width="38"
                fill="#f2f5e9" fill-opacity="0.5" stroke="#606060" stroke-width="1.0"/>
           <path id="arrow"
             d="M 11.500037,31.436501 C 11.940474,20.09759 22.043105,11.32322 32.158766,21.979434 L 37.068811,17.246167 C 37.068811,17.246167 37.088388,32 37.088388,32 L 22.160133,31.978069 C 22.160133,31.978069 26.997745,27.140456 26.997745,27.140456 C 18.528582,18.264221 13.291696,25.230495 11.500037,31.436501 z"
             style="fill:#404040;"/>
          </a>
         </g>
        </svg>
</svg>
