<?xml version="1.0" encoding="UTF-8" standalone="no"?>
<!DOCTYPE svg PUBLIC "-//W3C//DTD SVG 1.1//EN"
 "http://www.w3.org/Graphics/SVG/1.1/DTD/svg11.dtd">
<!-- Generated by graphviz version 2.36.0 (20140111.2315)
 -->
<!-- Title: com.github.aptd.simulation.core.statistic.IStatistic Pages: 1 -->
<svg width="245pt" height="84pt"
 viewBox="0.00 0.00 245.00 84.00" xmlns="http://www.w3.org/2000/svg" xmlns:xlink="http://www.w3.org/1999/xlink">
<g id="graph0" class="graph" transform="scale(1 1) rotate(0) translate(4 80)">
<title>com.github.aptd.simulation.core.statistic.IStatistic</title>
<!-- Node2 -->
<g id="node1" class="node"><title>Node2</title>
<polygon fill="#bfbfbf" stroke="black" points="-0.5,-1 -0.5,-75 180.5,-75 180.5,-1 -0.5,-1"/>
<text text-anchor="start" x="7.5" y="-63.8" font-family="Helvetica,sans-Serif" font-size="9.00">com.github.aptd.simulation.core.statistic.</text>
<text text-anchor="middle" x="90" y="-53.8" font-family="Helvetica,sans-Serif" font-size="9.00">IStatistic</text>
<polyline fill="none" stroke="black" points="-0.5,-47 180.5,-47 "/>
<text text-anchor="middle" x="90" y="-35.8" font-family="Helvetica,sans-Serif" font-size="9.00"> </text>
<polyline fill="none" stroke="black" points="-0.5,-29 180.5,-29 "/>
<text text-anchor="start" x="7.5" y="-17.8" font-family="Helvetica,sans-Serif" font-size="9.00">+ action()</text>
<text text-anchor="start" x="7.5" y="-7.8" font-family="Helvetica,sans-Serif" font-size="9.00">+ write()</text>
</g>
<!-- Node2&#45;&gt;Node2 -->
<g id="edge1" class="edge"><title>Node2&#45;&gt;Node2</title>
<path fill="none" stroke="#404040" d="M180.604,-49.8417C191.143,-47.6562 198,-43.709 198,-38 198,-34.7887 195.831,-32.1348 192.056,-30.0384"/>
<polygon fill="none" stroke="#404040" points="191.97,-30.009 185.003,-31.8721 180.604,-26.1583 187.57,-24.2952 191.97,-30.009"/>
<text text-anchor="middle" x="217.5" y="-35.8" font-family="Helvetica,sans-Serif" font-size="9.00"> +EMPTY</text>
</g>
</g>
</svg>
