<?xml version="1.0" encoding="UTF-8" standalone="no"?>
<!DOCTYPE svg PUBLIC "-//W3C//DTD SVG 1.1//EN"
 "http://www.w3.org/Graphics/SVG/1.1/DTD/svg11.dtd">
<!-- Generated by graphviz version 2.36.0 (20140111.2315)
 -->
<!-- Title: com.github.aptd.simulation.elements.grid.IGrid Pages: 1 -->
<svg width="398pt" height="176pt"
 viewBox="0.00 0.00 398.00 176.00" xmlns="http://www.w3.org/2000/svg" xmlns:xlink="http://www.w3.org/1999/xlink">
<g id="graph0" class="graph" transform="scale(1 1) rotate(0) translate(4 172)">
<title>com.github.aptd.simulation.elements.grid.IGrid</title>
<!-- Node0 -->
<g id="node1" class="node"><title>Node0</title>
<polygon fill="#bfbfbf" stroke="black" points="102,-103 102,-167 288,-167 288,-103 102,-103"/>
<text text-anchor="start" x="110" y="-155.8" font-family="Helvetica,sans-Serif" font-size="9.00">com.github.aptd.simulation.elements.grid.</text>
<text text-anchor="middle" x="195" y="-145.8" font-family="Helvetica,sans-Serif" font-size="9.00">IGrid</text>
<polyline fill="none" stroke="black" points="102,-139 288,-139 "/>
<text text-anchor="middle" x="195" y="-127.8" font-family="Helvetica,sans-Serif" font-size="9.00"> </text>
<polyline fill="none" stroke="black" points="102,-121 288,-121 "/>
<text text-anchor="middle" x="195" y="-109.8" font-family="Helvetica,sans-Serif" font-size="9.00"> </text>
</g>
<!-- Node1 -->
<g id="node2" class="node"><title>Node1</title>
<g id="a_node2"><a xlink:href="../../d9/de7/interfacecom_1_1github_1_1aptd_1_1simulation_1_1elements_1_1grid_1_1IGridPhysical.htm" target="_top" xlink:title="grid of physical object ">
<polygon fill="none" stroke="black" points="0,-1 0,-65 186,-65 186,-1 0,-1"/>
<text text-anchor="start" x="8" y="-53.8" font-family="Helvetica,sans-Serif" font-size="9.00">com.github.aptd.simulation.elements.grid.</text>
<text text-anchor="middle" x="93" y="-43.8" font-family="Helvetica,sans-Serif" font-size="9.00">IGridPhysical</text>
<polyline fill="none" stroke="black" points="0,-37 186,-37 "/>
<text text-anchor="middle" x="93" y="-25.8" font-family="Helvetica,sans-Serif" font-size="9.00"> </text>
<polyline fill="none" stroke="black" points="0,-19 186,-19 "/>
<text text-anchor="middle" x="93" y="-7.8" font-family="Helvetica,sans-Serif" font-size="9.00"> </text>
</a>
</g>
</g>
<!-- Node0&#45;&gt;Node1 -->
<g id="edge1" class="edge"><title>Node0&#45;&gt;Node1</title>
<path fill="none" stroke="midnightblue" d="M155.916,-95.682C145.591,-85.5595 134.576,-74.7604 124.695,-65.0732"/>
<polygon fill="none" stroke="midnightblue" points="153.695,-98.4061 163.286,-102.908 158.595,-93.4075 153.695,-98.4061"/>
</g>
<!-- Node2 -->
<g id="node3" class="node"><title>Node2</title>
<g id="a_node3"><a xlink:href="../../d6/d8d/interfacecom_1_1github_1_1aptd_1_1simulation_1_1elements_1_1grid_1_1IGridVirtual.htm" target="_top" xlink:title="grid of virtual objects ">
<polygon fill="none" stroke="black" points="204,-1 204,-65 390,-65 390,-1 204,-1"/>
<text text-anchor="start" x="212" y="-53.8" font-family="Helvetica,sans-Serif" font-size="9.00">com.github.aptd.simulation.elements.grid.</text>
<text text-anchor="middle" x="297" y="-43.8" font-family="Helvetica,sans-Serif" font-size="9.00">IGridVirtual</text>
<polyline fill="none" stroke="black" points="204,-37 390,-37 "/>
<text text-anchor="middle" x="297" y="-25.8" font-family="Helvetica,sans-Serif" font-size="9.00"> </text>
<polyline fill="none" stroke="black" points="204,-19 390,-19 "/>
<text text-anchor="middle" x="297" y="-7.8" font-family="Helvetica,sans-Serif" font-size="9.00"> </text>
</a>
</g>
</g>
<!-- Node0&#45;&gt;Node2 -->
<g id="edge2" class="edge"><title>Node0&#45;&gt;Node2</title>
<path fill="none" stroke="midnightblue" d="M234.084,-95.682C244.409,-85.5595 255.424,-74.7604 265.305,-65.0732"/>
<polygon fill="none" stroke="midnightblue" points="231.405,-93.4075 226.714,-102.908 236.305,-98.4061 231.405,-93.4075"/>
</g>
</g>
</svg>
