<?xml version="1.0" encoding="UTF-8" standalone="no"?>
<!DOCTYPE svg PUBLIC "-//W3C//DTD SVG 1.1//EN"
 "http://www.w3.org/Graphics/SVG/1.1/DTD/svg11.dtd">
<!-- Generated by graphviz version 2.36.0 (20140111.2315)
 -->
<!-- Title: com.github.aptd.simulation.core.experiment.IExperiment Pages: 1 -->
<svg width="261pt" height="154pt"
 viewBox="0.00 0.00 261.00 154.00" xmlns="http://www.w3.org/2000/svg" xmlns:xlink="http://www.w3.org/1999/xlink">
<g id="graph0" class="graph" transform="scale(1 1) rotate(0) translate(4 150)">
<title>com.github.aptd.simulation.core.experiment.IExperiment</title>
<!-- Node3 -->
<g id="node1" class="node"><title>Node3</title>
<polygon fill="#bfbfbf" stroke="black" points="-0.5,-1 -0.5,-145 196.5,-145 196.5,-1 -0.5,-1"/>
<text text-anchor="start" x="7.5" y="-133.8" font-family="Helvetica,sans-Serif" font-size="9.00">com.github.aptd.simulation.core.experiment.</text>
<text text-anchor="middle" x="98" y="-123.8" font-family="Helvetica,sans-Serif" font-size="9.00">IExperiment</text>
<polyline fill="none" stroke="black" points="-0.5,-117 196.5,-117 "/>
<text text-anchor="middle" x="98" y="-105.8" font-family="Helvetica,sans-Serif" font-size="9.00"> </text>
<polyline fill="none" stroke="black" points="-0.5,-99 196.5,-99 "/>
<text text-anchor="start" x="7.5" y="-87.8" font-family="Helvetica,sans-Serif" font-size="9.00">+ actions()</text>
<text text-anchor="start" x="7.5" y="-77.8" font-family="Helvetica,sans-Serif" font-size="9.00">+ addAgent()</text>
<text text-anchor="start" x="7.5" y="-67.8" font-family="Helvetica,sans-Serif" font-size="9.00">+ getAgent()</text>
<text text-anchor="start" x="7.5" y="-57.8" font-family="Helvetica,sans-Serif" font-size="9.00">+ objects()</text>
<text text-anchor="start" x="7.5" y="-47.8" font-family="Helvetica,sans-Serif" font-size="9.00">+ parallel()</text>
<text text-anchor="start" x="7.5" y="-37.8" font-family="Helvetica,sans-Serif" font-size="9.00">+ preprocess()</text>
<text text-anchor="start" x="7.5" y="-27.8" font-family="Helvetica,sans-Serif" font-size="9.00">+ simulationsteps()</text>
<text text-anchor="start" x="7.5" y="-17.8" font-family="Helvetica,sans-Serif" font-size="9.00">+ statistic()</text>
<text text-anchor="start" x="7.5" y="-7.8" font-family="Helvetica,sans-Serif" font-size="9.00">+ time()</text>
</g>
<!-- Node3&#45;&gt;Node3 -->
<g id="edge1" class="edge"><title>Node3&#45;&gt;Node3</title>
<path fill="none" stroke="#404040" d="M196.588,-95.5439C207.184,-91.2021 214,-83.6875 214,-73 214,-66.4873 211.469,-61.1528 207.094,-56.9965"/>
<polygon fill="none" stroke="#404040" points="206.775,-56.7981 199.567,-57.0228 196.588,-50.4561 203.795,-50.2313 206.775,-56.7981"/>
<text text-anchor="middle" x="233.5" y="-70.8" font-family="Helvetica,sans-Serif" font-size="9.00"> +EMPTY</text>
</g>
</g>
</svg>
