<?xml version="1.0" encoding="UTF-8" standalone="no"?>
<!DOCTYPE svg PUBLIC "-//W3C//DTD SVG 1.1//EN"
 "http://www.w3.org/Graphics/SVG/1.1/DTD/svg11.dtd">
<!-- Generated by graphviz version 2.36.0 (20140111.2315)
 -->
<!-- Title: com.github.aptd.simulation.common.CConfiguration.loadfile Pages: 1 -->
<svg width="502pt" height="36pt"
 viewBox="0.00 0.00 502.00 36.00" xmlns="http://www.w3.org/2000/svg" xmlns:xlink="http://www.w3.org/1999/xlink">
<g id="graph0" class="graph" transform="scale(1 1) rotate(0) translate(4 32)">
<title>com.github.aptd.simulation.common.CConfiguration.loadfile</title>
<!-- Node21 -->
<g id="node1" class="node"><title>Node21</title>
<polygon fill="#bfbfbf" stroke="black" points="0,-0 0,-28 166,-28 166,-0 0,-0"/>
<text text-anchor="start" x="8" y="-16.8" font-family="Helvetica,sans-Serif" font-size="9.00">com.github.aptd.simulation.common.</text>
<text text-anchor="middle" x="83" y="-6.8" font-family="Helvetica,sans-Serif" font-size="9.00">CConfiguration.loadfile</text>
</g>
<!-- Node22 -->
<g id="node2" class="node"><title>Node22</title>
<g id="a_node2"><a xlink:href="../../de/d16/classcom_1_1github_1_1aptd_1_1simulation_1_1CMain.htm#acff2c0efa5c44523efededb50a0f9f31" target="_top" xlink:title="com.github.aptd.simulation.\lCMain.execute">
<polygon fill="none" stroke="black" points="202,-0 202,-28 330,-28 330,-0 202,-0"/>
<text text-anchor="start" x="210" y="-16.8" font-family="Helvetica,sans-Serif" font-size="9.00">com.github.aptd.simulation.</text>
<text text-anchor="middle" x="266" y="-6.8" font-family="Helvetica,sans-Serif" font-size="9.00">CMain.execute</text>
</a>
</g>
</g>
<!-- Node21&#45;&gt;Node22 -->
<g id="edge1" class="edge"><title>Node21&#45;&gt;Node22</title>
<path fill="none" stroke="midnightblue" d="M176.236,-14C184.941,-14 193.625,-14 201.965,-14"/>
<polygon fill="midnightblue" stroke="midnightblue" points="176.027,-10.5001 166.027,-14 176.027,-17.5001 176.027,-10.5001"/>
</g>
<!-- Node23 -->
<g id="node3" class="node"><title>Node23</title>
<g id="a_node3"><a xlink:href="../../de/d16/classcom_1_1github_1_1aptd_1_1simulation_1_1CMain.htm#a93abfa783d7788c0a00b0b1bc107b207" target="_top" xlink:title="main method ">
<polygon fill="none" stroke="black" points="366,-0 366,-28 494,-28 494,-0 366,-0"/>
<text text-anchor="start" x="374" y="-16.8" font-family="Helvetica,sans-Serif" font-size="9.00">com.github.aptd.simulation.</text>
<text text-anchor="middle" x="430" y="-6.8" font-family="Helvetica,sans-Serif" font-size="9.00">CMain.main</text>
</a>
</g>
</g>
<!-- Node22&#45;&gt;Node23 -->
<g id="edge2" class="edge"><title>Node22&#45;&gt;Node23</title>
<path fill="none" stroke="midnightblue" d="M340.374,-14C348.865,-14 357.469,-14 365.808,-14"/>
<polygon fill="midnightblue" stroke="midnightblue" points="340.097,-10.5001 330.097,-14 340.097,-17.5001 340.097,-10.5001"/>
</g>
</g>
</svg>
