<?xml version="1.0" encoding="UTF-8" standalone="no"?>
<!DOCTYPE svg PUBLIC "-//W3C//DTD SVG 1.1//EN"
 "http://www.w3.org/Graphics/SVG/1.1/DTD/svg11.dtd">
<!-- Generated by graphviz version 2.36.0 (20140111.2315)
 -->
<!-- Title: com.github.aptd.simulation.common.CConfiguration.getOrDefault Pages: 1 -->
<svg width="666pt" height="59pt"
 viewBox="0.00 0.00 666.00 59.00" xmlns="http://www.w3.org/2000/svg" xmlns:xlink="http://www.w3.org/1999/xlink">
<g id="graph0" class="graph" transform="scale(1 1) rotate(0) translate(4 55)">
<title>com.github.aptd.simulation.common.CConfiguration.getOrDefault</title>
<!-- Node15 -->
<g id="node1" class="node"><title>Node15</title>
<polygon fill="#bfbfbf" stroke="black" points="0,-1 0,-29 166,-29 166,-1 0,-1"/>
<text text-anchor="start" x="8" y="-17.8" font-family="Helvetica,sans-Serif" font-size="9.00">com.github.aptd.simulation.common.</text>
<text text-anchor="middle" x="83" y="-7.8" font-family="Helvetica,sans-Serif" font-size="9.00">CConfiguration.getOrDefault</text>
</g>
<!-- Node16 -->
<g id="node2" class="node"><title>Node16</title>
<g id="a_node2"><a xlink:href="../../de/d16/classcom_1_1github_1_1aptd_1_1simulation_1_1CMain.htm#a6027e3d593fdf784f27ce7f866c89a67" target="_top" xlink:title="returns the experiment data models ">
<polygon fill="none" stroke="black" points="202,-23 202,-51 330,-51 330,-23 202,-23"/>
<text text-anchor="start" x="210" y="-39.8" font-family="Helvetica,sans-Serif" font-size="9.00">com.github.aptd.simulation.</text>
<text text-anchor="middle" x="266" y="-29.8" font-family="Helvetica,sans-Serif" font-size="9.00">CMain.datamodel</text>
</a>
</g>
</g>
<!-- Node15&#45;&gt;Node16 -->
<g id="edge1" class="edge"><title>Node15&#45;&gt;Node16</title>
<path fill="none" stroke="midnightblue" d="M176.236,-26.211C184.941,-27.2691 193.625,-28.3246 201.965,-29.3383"/>
<polygon fill="midnightblue" stroke="midnightblue" points="176.376,-22.7023 166.027,-24.9701 175.531,-29.6512 176.376,-22.7023"/>
</g>
<!-- Node17 -->
<g id="node3" class="node"><title>Node17</title>
<g id="a_node3"><a xlink:href="../../de/d16/classcom_1_1github_1_1aptd_1_1simulation_1_1CMain.htm#acff2c0efa5c44523efededb50a0f9f31" target="_top" xlink:title="com.github.aptd.simulation.\lCMain.execute">
<polygon fill="none" stroke="black" points="366,-1 366,-29 494,-29 494,-1 366,-1"/>
<text text-anchor="start" x="374" y="-17.8" font-family="Helvetica,sans-Serif" font-size="9.00">com.github.aptd.simulation.</text>
<text text-anchor="middle" x="430" y="-7.8" font-family="Helvetica,sans-Serif" font-size="9.00">CMain.execute</text>
</a>
</g>
</g>
<!-- Node15&#45;&gt;Node17 -->
<g id="edge4" class="edge"><title>Node15&#45;&gt;Node17</title>
<path fill="none" stroke="midnightblue" d="M176.366,-14.1424C185.031,-14.0845 193.68,-14.0353 202,-14 258.888,-13.759 273.112,-13.7127 330,-14 341.602,-14.0586 353.969,-14.1558 365.89,-14.2672"/>
<polygon fill="midnightblue" stroke="midnightblue" points="176.18,-10.6435 166.205,-14.214 176.23,-17.6433 176.18,-10.6435"/>
</g>
<!-- Node16&#45;&gt;Node17 -->
<g id="edge2" class="edge"><title>Node16&#45;&gt;Node17</title>
<path fill="none" stroke="midnightblue" d="M340.094,-27.0737C348.676,-25.9082 357.378,-24.7265 365.808,-23.5816"/>
<polygon fill="midnightblue" stroke="midnightblue" points="339.535,-23.6173 330.097,-28.4312 340.477,-30.5536 339.535,-23.6173"/>
</g>
<!-- Node18 -->
<g id="node4" class="node"><title>Node18</title>
<g id="a_node4"><a xlink:href="../../de/d16/classcom_1_1github_1_1aptd_1_1simulation_1_1CMain.htm#a93abfa783d7788c0a00b0b1bc107b207" target="_top" xlink:title="main method ">
<polygon fill="none" stroke="black" points="530,-1 530,-29 658,-29 658,-1 530,-1"/>
<text text-anchor="start" x="538" y="-17.8" font-family="Helvetica,sans-Serif" font-size="9.00">com.github.aptd.simulation.</text>
<text text-anchor="middle" x="594" y="-7.8" font-family="Helvetica,sans-Serif" font-size="9.00">CMain.main</text>
</a>
</g>
</g>
<!-- Node17&#45;&gt;Node18 -->
<g id="edge3" class="edge"><title>Node17&#45;&gt;Node18</title>
<path fill="none" stroke="midnightblue" d="M504.374,-15C512.865,-15 521.469,-15 529.808,-15"/>
<polygon fill="midnightblue" stroke="midnightblue" points="504.097,-11.5001 494.097,-15 504.097,-18.5001 504.097,-11.5001"/>
</g>
</g>
</svg>
