<?xml version="1.0" encoding="UTF-8" standalone="no"?>
<!DOCTYPE svg PUBLIC "-//W3C//DTD SVG 1.1//EN"
 "http://www.w3.org/Graphics/SVG/1.1/DTD/svg11.dtd">
<!-- Generated by graphviz version 2.36.0 (20140111.2315)
 -->
<!-- Title: com.github.aptd.simulation.common.CConfiguration.recursivedescent Pages: 1 -->
<svg width="868pt" height="84pt"
 viewBox="0.00 0.00 868.00 84.00" xmlns="http://www.w3.org/2000/svg" xmlns:xlink="http://www.w3.org/1999/xlink">
<g id="graph0" class="graph" transform="scale(1 1) rotate(0) translate(4 80)">
<title>com.github.aptd.simulation.common.CConfiguration.recursivedescent</title>
<!-- Node33 -->
<g id="node1" class="node"><title>Node33</title>
<polygon fill="#bfbfbf" stroke="black" points="0,-24 0,-52 166,-52 166,-24 0,-24"/>
<text text-anchor="start" x="8" y="-40.8" font-family="Helvetica,sans-Serif" font-size="9.00">com.github.aptd.simulation.common.</text>
<text text-anchor="middle" x="83" y="-30.8" font-family="Helvetica,sans-Serif" font-size="9.00">CConfiguration.recursivedescent</text>
</g>
<!-- Node34 -->
<g id="node2" class="node"><title>Node34</title>
<g id="a_node2"><a xlink:href="../../da/d54/classcom_1_1github_1_1aptd_1_1simulation_1_1common_1_1CConfiguration.htm#a58b1a7ea7ec01597a165d518fbfcc60a" target="_top" xlink:title="returns a configuration value ">
<polygon fill="none" stroke="black" points="202,-48 202,-76 368,-76 368,-48 202,-48"/>
<text text-anchor="start" x="210" y="-64.8" font-family="Helvetica,sans-Serif" font-size="9.00">com.github.aptd.simulation.common.</text>
<text text-anchor="middle" x="285" y="-54.8" font-family="Helvetica,sans-Serif" font-size="9.00">CConfiguration.get</text>
</a>
</g>
</g>
<!-- Node33&#45;&gt;Node34 -->
<g id="edge1" class="edge"><title>Node33&#45;&gt;Node34</title>
<path fill="none" stroke="midnightblue" d="M176.187,-49.0625C184.726,-50.0872 193.342,-51.121 201.783,-52.1339"/>
<polygon fill="midnightblue" stroke="midnightblue" points="176.559,-45.5821 166.213,-47.8656 175.725,-52.5322 176.559,-45.5821"/>
</g>
<!-- Node35 -->
<g id="node3" class="node"><title>Node35</title>
<g id="a_node3"><a xlink:href="../../da/d54/classcom_1_1github_1_1aptd_1_1simulation_1_1common_1_1CConfiguration.htm#a07954742f75cbc88e0c43ffac52b933e" target="_top" xlink:title="returns a configuration value or on not existing the default value ">
<polygon fill="none" stroke="black" points="202,-1 202,-29 368,-29 368,-1 202,-1"/>
<text text-anchor="start" x="210" y="-17.8" font-family="Helvetica,sans-Serif" font-size="9.00">com.github.aptd.simulation.common.</text>
<text text-anchor="middle" x="285" y="-7.8" font-family="Helvetica,sans-Serif" font-size="9.00">CConfiguration.getOrDefault</text>
</a>
</g>
</g>
<!-- Node33&#45;&gt;Node35 -->
<g id="edge2" class="edge"><title>Node33&#45;&gt;Node35</title>
<path fill="none" stroke="midnightblue" d="M176.187,-27.3985C184.726,-26.4165 193.342,-25.4257 201.783,-24.455"/>
<polygon fill="midnightblue" stroke="midnightblue" points="175.748,-23.9258 166.213,-28.5455 176.548,-30.88 175.748,-23.9258"/>
</g>
<!-- Node36 -->
<g id="node4" class="node"><title>Node36</title>
<g id="a_node4"><a xlink:href="../../de/d16/classcom_1_1github_1_1aptd_1_1simulation_1_1CMain.htm#a6027e3d593fdf784f27ce7f866c89a67" target="_top" xlink:title="returns the experiment data models ">
<polygon fill="none" stroke="black" points="404,-23 404,-51 532,-51 532,-23 404,-23"/>
<text text-anchor="start" x="412" y="-39.8" font-family="Helvetica,sans-Serif" font-size="9.00">com.github.aptd.simulation.</text>
<text text-anchor="middle" x="468" y="-29.8" font-family="Helvetica,sans-Serif" font-size="9.00">CMain.datamodel</text>
</a>
</g>
</g>
<!-- Node35&#45;&gt;Node36 -->
<g id="edge3" class="edge"><title>Node35&#45;&gt;Node36</title>
<path fill="none" stroke="midnightblue" d="M378.236,-26.211C386.941,-27.2691 395.625,-28.3246 403.965,-29.3383"/>
<polygon fill="midnightblue" stroke="midnightblue" points="378.376,-22.7023 368.027,-24.9701 377.531,-29.6512 378.376,-22.7023"/>
</g>
<!-- Node37 -->
<g id="node5" class="node"><title>Node37</title>
<g id="a_node5"><a xlink:href="../../de/d16/classcom_1_1github_1_1aptd_1_1simulation_1_1CMain.htm#acff2c0efa5c44523efededb50a0f9f31" target="_top" xlink:title="com.github.aptd.simulation.\lCMain.execute">
<polygon fill="none" stroke="black" points="568,-1 568,-29 696,-29 696,-1 568,-1"/>
<text text-anchor="start" x="576" y="-17.8" font-family="Helvetica,sans-Serif" font-size="9.00">com.github.aptd.simulation.</text>
<text text-anchor="middle" x="632" y="-7.8" font-family="Helvetica,sans-Serif" font-size="9.00">CMain.execute</text>
</a>
</g>
</g>
<!-- Node35&#45;&gt;Node37 -->
<g id="edge6" class="edge"><title>Node35&#45;&gt;Node37</title>
<path fill="none" stroke="midnightblue" d="M378.366,-14.1424C387.031,-14.0845 395.68,-14.0353 404,-14 460.888,-13.759 475.112,-13.7127 532,-14 543.602,-14.0586 555.969,-14.1558 567.89,-14.2672"/>
<polygon fill="midnightblue" stroke="midnightblue" points="378.18,-10.6435 368.205,-14.214 378.23,-17.6433 378.18,-10.6435"/>
</g>
<!-- Node36&#45;&gt;Node37 -->
<g id="edge4" class="edge"><title>Node36&#45;&gt;Node37</title>
<path fill="none" stroke="midnightblue" d="M542.094,-27.0737C550.676,-25.9082 559.378,-24.7265 567.808,-23.5816"/>
<polygon fill="midnightblue" stroke="midnightblue" points="541.535,-23.6173 532.097,-28.4312 542.477,-30.5536 541.535,-23.6173"/>
</g>
<!-- Node38 -->
<g id="node6" class="node"><title>Node38</title>
<g id="a_node6"><a xlink:href="../../de/d16/classcom_1_1github_1_1aptd_1_1simulation_1_1CMain.htm#a93abfa783d7788c0a00b0b1bc107b207" target="_top" xlink:title="main method ">
<polygon fill="none" stroke="black" points="732,-1 732,-29 860,-29 860,-1 732,-1"/>
<text text-anchor="start" x="740" y="-17.8" font-family="Helvetica,sans-Serif" font-size="9.00">com.github.aptd.simulation.</text>
<text text-anchor="middle" x="796" y="-7.8" font-family="Helvetica,sans-Serif" font-size="9.00">CMain.main</text>
</a>
</g>
</g>
<!-- Node37&#45;&gt;Node38 -->
<g id="edge5" class="edge"><title>Node37&#45;&gt;Node38</title>
<path fill="none" stroke="midnightblue" d="M706.374,-15C714.865,-15 723.469,-15 731.808,-15"/>
<polygon fill="midnightblue" stroke="midnightblue" points="706.097,-11.5001 696.097,-15 706.097,-18.5001 706.097,-11.5001"/>
</g>
</g>
</svg>
