<?xml version="1.0" encoding="UTF-8" standalone="no"?>
<!DOCTYPE svg PUBLIC "-//W3C//DTD SVG 1.1//EN"
 "http://www.w3.org/Graphics/SVG/1.1/DTD/svg11.dtd">
<!-- Generated by graphviz version 2.36.0 (20140111.2315)
 -->
<!-- Title: com.github.aptd.simulation.datamodel.CXMLReader.station Pages: 1 -->
<svg width="642pt" height="224pt"
 viewBox="0.00 0.00 642.00 224.00" xmlns="http://www.w3.org/2000/svg" xmlns:xlink="http://www.w3.org/1999/xlink">
<g id="graph0" class="graph" transform="scale(1 1) rotate(0) translate(4 220)">
<title>com.github.aptd.simulation.datamodel.CXMLReader.station</title>
<!-- Node65 -->
<g id="node1" class="node"><title>Node65</title>
<polygon fill="#bfbfbf" stroke="black" points="0,-94 0,-122 174,-122 174,-94 0,-94"/>
<text text-anchor="start" x="8" y="-110.8" font-family="Helvetica,sans-Serif" font-size="9.00">com.github.aptd.simulation.datamodel.</text>
<text text-anchor="middle" x="87" y="-100.8" font-family="Helvetica,sans-Serif" font-size="9.00">CXMLReader.station</text>
</g>
<!-- Node66 -->
<g id="node2" class="node"><title>Node66</title>
<g id="a_node2"><a xlink:href="../../d0/dfe/classcom_1_1github_1_1aptd_1_1simulation_1_1datamodel_1_1CXMLReader.htm#abc0256d1cf55cbe6bfdafa2c735b8e4e" target="_top" xlink:title="get an agent&#45;reference name ">
<polygon fill="none" stroke="black" points="238,-188 238,-216 412,-216 412,-188 238,-188"/>
<text text-anchor="start" x="246" y="-204.8" font-family="Helvetica,sans-Serif" font-size="9.00">com.github.aptd.simulation.datamodel.</text>
<text text-anchor="middle" x="325" y="-194.8" font-family="Helvetica,sans-Serif" font-size="9.00">CXMLReader.agentname</text>
</a>
</g>
</g>
<!-- Node65&#45;&gt;Node66 -->
<g id="edge1" class="edge"><title>Node65&#45;&gt;Node66</title>
<path fill="none" stroke="midnightblue" d="M108.167,-122.232C131.587,-138.111 171.895,-163.474 210,-178 217.109,-180.71 224.591,-183.142 232.181,-185.319"/>
<polygon fill="midnightblue" stroke="midnightblue" points="231.267,-188.697 241.835,-187.942 233.102,-181.942 231.267,-188.697"/>
</g>
<!-- Node67 -->
<g id="node3" class="node"><title>Node67</title>
<g id="a_node3"><a xlink:href="../../d0/dfe/classcom_1_1github_1_1aptd_1_1simulation_1_1datamodel_1_1CXMLReader.htm#ad0b8cadd506525ec3a659613839fe4c9" target="_top" xlink:title="filter an object list ">
<polygon fill="none" stroke="black" points="238,-141 238,-169 412,-169 412,-141 238,-141"/>
<text text-anchor="start" x="246" y="-157.8" font-family="Helvetica,sans-Serif" font-size="9.00">com.github.aptd.simulation.datamodel.</text>
<text text-anchor="middle" x="325" y="-147.8" font-family="Helvetica,sans-Serif" font-size="9.00">CXMLReader.hasagentname</text>
</a>
</g>
</g>
<!-- Node65&#45;&gt;Node67 -->
<g id="edge2" class="edge"><title>Node65&#45;&gt;Node67</title>
<path fill="none" stroke="midnightblue" d="M158.488,-122.038C185.222,-127.362 215.861,-133.464 243.453,-138.959"/>
<polygon fill="midnightblue" stroke="midnightblue" points="242.977,-142.433 253.468,-140.953 244.344,-135.567 242.977,-142.433"/>
</g>
<!-- Node68 -->
<g id="node4" class="node"><title>Node68</title>
<g id="a_node4"><a xlink:href="../../dd/dd7/interfacecom_1_1github_1_1aptd_1_1simulation_1_1elements_1_1IElement.htm#a447fe1b1460ce755b30e013aea069b77" target="_top" xlink:title="name of the object ">
<polygon fill="none" stroke="black" points="241,-94 241,-122 409,-122 409,-94 241,-94"/>
<text text-anchor="start" x="249" y="-110.8" font-family="Helvetica,sans-Serif" font-size="9.00">com.github.aptd.simulation.elements.</text>
<text text-anchor="middle" x="325" y="-100.8" font-family="Helvetica,sans-Serif" font-size="9.00">IElement.id</text>
</a>
</g>
</g>
<!-- Node65&#45;&gt;Node68 -->
<g id="edge3" class="edge"><title>Node65&#45;&gt;Node68</title>
<path fill="none" stroke="midnightblue" d="M174.203,-108C192.535,-108 211.972,-108 230.559,-108"/>
<polygon fill="midnightblue" stroke="midnightblue" points="230.786,-111.5 240.786,-108 230.785,-104.5 230.786,-111.5"/>
</g>
<!-- Node69 -->
<g id="node5" class="node"><title>Node69</title>
<g id="a_node5"><a xlink:href="../../d0/dfe/classcom_1_1github_1_1aptd_1_1simulation_1_1datamodel_1_1CXMLReader.htm#a54e11b48323b77041f2644ddaf3f9f2a" target="_top" xlink:title="creates a station agent generator ">
<polygon fill="none" stroke="black" points="238,-47 238,-75 412,-75 412,-47 238,-47"/>
<text text-anchor="start" x="246" y="-63.8" font-family="Helvetica,sans-Serif" font-size="9.00">com.github.aptd.simulation.datamodel.</text>
<text text-anchor="middle" x="325" y="-53.8" font-family="Helvetica,sans-Serif" font-size="9.00">CXMLReader.stationgenerator</text>
</a>
</g>
</g>
<!-- Node65&#45;&gt;Node69 -->
<g id="edge4" class="edge"><title>Node65&#45;&gt;Node69</title>
<path fill="none" stroke="midnightblue" d="M158.488,-93.9621C185.222,-88.638 215.861,-82.5361 243.453,-77.0411"/>
<polygon fill="midnightblue" stroke="midnightblue" points="244.344,-80.4325 253.468,-75.0467 242.977,-73.5674 244.344,-80.4325"/>
</g>
<!-- Node71 -->
<g id="node7" class="node"><title>Node71</title>
<g id="a_node7"><a xlink:href="../../db/d3d/interfacecom_1_1github_1_1aptd_1_1simulation_1_1elements_1_1graph_1_1network_1_1IPlatform.htm#aa75333863456c4f47be5111dd585ec58" target="_top" xlink:title="returns the ID of the station this platform belongs to ">
<polygon fill="none" stroke="black" points="210.5,-0 210.5,-28 439.5,-28 439.5,-0 210.5,-0"/>
<text text-anchor="start" x="218.5" y="-16.8" font-family="Helvetica,sans-Serif" font-size="9.00">com.github.aptd.simulation.elements.graph.network.</text>
<text text-anchor="middle" x="325" y="-6.8" font-family="Helvetica,sans-Serif" font-size="9.00">IPlatform.stationid</text>
</a>
</g>
</g>
<!-- Node65&#45;&gt;Node71 -->
<g id="edge6" class="edge"><title>Node65&#45;&gt;Node71</title>
<path fill="none" stroke="midnightblue" d="M108.167,-93.7682C131.587,-77.8889 171.895,-52.5262 210,-38 217.109,-35.2899 224.591,-32.858 232.181,-30.6812"/>
<polygon fill="midnightblue" stroke="midnightblue" points="233.102,-34.0579 241.835,-28.0585 231.267,-27.3028 233.102,-34.0579"/>
</g>
<!-- Node70 -->
<g id="node6" class="node"><title>Node70</title>
<g id="a_node6"><a xlink:href="../../d5/dff/interfacecom_1_1github_1_1aptd_1_1simulation_1_1factory_1_1IFactory.htm#a9d61168a1fc922cd02c2169264469fd0" target="_top" xlink:title="creates a full station generator, which is used to simulate also the station in detail ...">
<polygon fill="none" stroke="black" points="476,-47 476,-75 634,-75 634,-47 476,-47"/>
<text text-anchor="start" x="484" y="-63.8" font-family="Helvetica,sans-Serif" font-size="9.00">com.github.aptd.simulation.factory.</text>
<text text-anchor="middle" x="555" y="-53.8" font-family="Helvetica,sans-Serif" font-size="9.00">IFactory.station</text>
</a>
</g>
</g>
<!-- Node69&#45;&gt;Node70 -->
<g id="edge5" class="edge"><title>Node69&#45;&gt;Node70</title>
<path fill="none" stroke="midnightblue" d="M412.197,-61C429.696,-61 448.126,-61 465.697,-61"/>
<polygon fill="midnightblue" stroke="midnightblue" points="465.929,-64.5001 475.929,-61 465.929,-57.5001 465.929,-64.5001"/>
</g>
</g>
</svg>
