<?xml version="1.0" encoding="UTF-8" standalone="no"?>
<!DOCTYPE svg PUBLIC "-//W3C//DTD SVG 1.1//EN"
 "http://www.w3.org/Graphics/SVG/1.1/DTD/svg11.dtd">
<!-- Generated by graphviz version 2.36.0 (20140111.2315)
 -->
<!-- Title: com.github.aptd.simulation.datamodel.CXMLReader.get Pages: 1 -->
<!--zoomable 623 -->
<svg id="main" version="1.1" xmlns="http://www.w3.org/2000/svg" xmlns:xlink="http://www.w3.org/1999/xlink" xml:space="preserve" onload="init(evt)">
<style type="text/css"><![CDATA[
.edge:hover path { stroke: red; }
.edge:hover polygon { stroke: red; fill: red; }
]]></style>
<script type="text/javascript"><![CDATA[
var edges = document.getElementsByTagName('g');
if (edges && edges.length) {
  for (var i=0;i<edges.length;i++) {
    if (edges[i].id.substr(0,4)=='edge') {
      edges[i].setAttribute('class','edge');
    }
  }
}
]]></script>
        <defs>
                <circle id="rim" cx="0" cy="0" r="7"/>
                <circle id="rim2" cx="0" cy="0" r="3.5"/>
                <g id="zoomPlus">
                        <use xlink:href="#rim" fill="#404040">
                                <set attributeName="fill" to="#808080" begin="zoomplus.mouseover" end="zoomplus.mouseout"/>
                        </use>
                        <path d="M-4,0h8M0,-4v8" fill="none" stroke="white" stroke-width="1.5" pointer-events="none"/>
                </g>
                <g id="zoomMin">
                        <use xlink:href="#rim" fill="#404040">
                                <set attributeName="fill" to="#808080" begin="zoomminus.mouseover" end="zoomminus.mouseout"/>
                        </use>
                        <path d="M-4,0h8" fill="none" stroke="white" stroke-width="1.5" pointer-events="none"/>
                </g>
                <g id="dirArrow">
                        <path fill="none" stroke="white" stroke-width="1.5" d="M0,-3.0v7 M-2.5,-0.5L0,-3.0L2.5,-0.5"/>
                </g>
               <g id="resetDef">
                       <use xlink:href="#rim2" fill="#404040">
                               <set attributeName="fill" to="#808080" begin="reset.mouseover" end="reset.mouseout"/>
                       </use>
               </g>
        </defs>

<script type="text/javascript">
var viewWidth = 896;
var viewHeight = 623;
var sectionId = 'dynsection-6';
</script>
<script xlink:href="../../svgpan.js"/>
<svg id="graph" class="graph">
<g id="viewport">
<title>com.github.aptd.simulation.datamodel.CXMLReader.get</title>
<!-- Node15 -->
<g id="node1" class="node"><title>Node15</title>
<polygon fill="#bfbfbf" stroke="black" points="0,-446 0,-474 174,-474 174,-446 0,-446"/>
<text text-anchor="start" x="8" y="-462.8" font-family="Helvetica,sans-Serif" font-size="9.00">com.github.aptd.simulation.datamodel.</text>
<text text-anchor="middle" x="87" y="-452.8" font-family="Helvetica,sans-Serif" font-size="9.00">CXMLReader.get</text>
</g>
<!-- Node16 -->
<g id="node2" class="node"><title>Node16</title>
<g id="a_node2"><a xlink:href="../../d7/d17/classcom_1_1github_1_1aptd_1_1simulation_1_1core_1_1experiment_1_1local_1_1CExperiment.htm#ac3c7e4198ca4aa95e321436b85caa8a9" target="_top" xlink:title="add agent to the experiment ">
<polygon fill="none" stroke="black" points="210,-587 210,-615 428,-615 428,-587 210,-587"/>
<text text-anchor="start" x="218" y="-603.8" font-family="Helvetica,sans-Serif" font-size="9.00">com.github.aptd.simulation.core.experiment.local.</text>
<text text-anchor="middle" x="319" y="-593.8" font-family="Helvetica,sans-Serif" font-size="9.00">CExperiment.addAgent</text>
</a>
</g>
</g>
<!-- Node15&#45;&gt;Node16 -->
<g id="edge1" class="edge"><title>Node15&#45;&gt;Node16</title>
<path fill="none" stroke="midnightblue" d="M98.344,-474.072C117.451,-498.981 160.844,-550.681 210,-577 214.489,-579.403 219.206,-581.566 224.056,-583.513"/>
<polygon fill="midnightblue" stroke="midnightblue" points="222.928,-586.827 233.521,-586.996 225.345,-580.258 222.928,-586.827"/>
</g>
<!-- Node18 -->
<g id="node4" class="node"><title>Node18</title>
<g id="a_node4"><a xlink:href="../../d0/dfe/classcom_1_1github_1_1aptd_1_1simulation_1_1datamodel_1_1CXMLReader.htm#a2192346e59078528bbc2831f60c4374c" target="_top" xlink:title="creates the agent structure ">
<polygon fill="none" stroke="black" points="232,-540 232,-568 406,-568 406,-540 232,-540"/>
<text text-anchor="start" x="240" y="-556.8" font-family="Helvetica,sans-Serif" font-size="9.00">com.github.aptd.simulation.datamodel.</text>
<text text-anchor="middle" x="319" y="-546.8" font-family="Helvetica,sans-Serif" font-size="9.00">CXMLReader.agents</text>
</a>
</g>
</g>
<!-- Node15&#45;&gt;Node18 -->
<g id="edge3" class="edge"><title>Node15&#45;&gt;Node18</title>
<path fill="none" stroke="midnightblue" d="M108.197,-474.155C131.644,-489.963 171.976,-515.261 210,-530 216.833,-532.649 224.029,-535.041 231.327,-537.195"/>
<polygon fill="midnightblue" stroke="midnightblue" points="230.745,-540.666 241.318,-539.985 232.628,-533.924 230.745,-540.666"/>
</g>
<!-- Node19 -->
<g id="node5" class="node"><title>Node19</title>
<g id="a_node5"><a xlink:href="../../d0/dfe/classcom_1_1github_1_1aptd_1_1simulation_1_1datamodel_1_1CXMLReader.htm#adbd358d05f2204387a22d8e837b0c03a" target="_top" xlink:title="creates a Passenger agent generator ">
<polygon fill="none" stroke="black" points="232,-493 232,-521 406,-521 406,-493 232,-493"/>
<text text-anchor="start" x="240" y="-509.8" font-family="Helvetica,sans-Serif" font-size="9.00">com.github.aptd.simulation.datamodel.</text>
<text text-anchor="middle" x="319" y="-499.8" font-family="Helvetica,sans-Serif" font-size="9.00">CXMLReader.passengergenerator</text>
</a>
</g>
</g>
<!-- Node15&#45;&gt;Node19 -->
<g id="edge4" class="edge"><title>Node15&#45;&gt;Node19</title>
<path fill="none" stroke="midnightblue" d="M156.696,-474.038C182.636,-479.339 212.349,-485.41 239.147,-490.887"/>
<polygon fill="midnightblue" stroke="midnightblue" points="238.762,-494.38 249.261,-492.953 240.164,-487.522 238.762,-494.38"/>
</g>
<!-- Node21 -->
<g id="node7" class="node"><title>Node21</title>
<g id="a_node7"><a xlink:href="../../d0/dfe/classcom_1_1github_1_1aptd_1_1simulation_1_1datamodel_1_1CXMLReader.htm#a24c9d59c88a6da679263b8213b59eaac" target="_top" xlink:title="creates a PassengerSource agent generator ">
<polygon fill="none" stroke="black" points="226,-446 226,-474 412,-474 412,-446 226,-446"/>
<text text-anchor="start" x="234" y="-462.8" font-family="Helvetica,sans-Serif" font-size="9.00">com.github.aptd.simulation.datamodel.</text>
<text text-anchor="middle" x="319" y="-452.8" font-family="Helvetica,sans-Serif" font-size="9.00">CXMLReader.passengersourcegenerator</text>
</a>
</g>
</g>
<!-- Node15&#45;&gt;Node21 -->
<g id="edge6" class="edge"><title>Node15&#45;&gt;Node21</title>
<path fill="none" stroke="midnightblue" d="M174.298,-460C187.837,-460 201.944,-460 215.799,-460"/>
<polygon fill="midnightblue" stroke="midnightblue" points="215.832,-463.5 225.832,-460 215.832,-456.5 215.832,-463.5"/>
</g>
<!-- Node23 -->
<g id="node9" class="node"><title>Node23</title>
<g id="a_node9"><a xlink:href="../../d0/dfe/classcom_1_1github_1_1aptd_1_1simulation_1_1datamodel_1_1CXMLReader.htm#af90f1d6c5b061d193bc185891a673426" target="_top" xlink:title="create the platforms of all stations ">
<polygon fill="none" stroke="black" points="232,-399 232,-427 406,-427 406,-399 232,-399"/>
<text text-anchor="start" x="240" y="-415.8" font-family="Helvetica,sans-Serif" font-size="9.00">com.github.aptd.simulation.datamodel.</text>
<text text-anchor="middle" x="319" y="-405.8" font-family="Helvetica,sans-Serif" font-size="9.00">CXMLReader.platform</text>
</a>
</g>
</g>
<!-- Node15&#45;&gt;Node23 -->
<g id="edge8" class="edge"><title>Node15&#45;&gt;Node23</title>
<path fill="none" stroke="midnightblue" d="M156.696,-445.962C182.636,-440.661 212.349,-434.59 239.147,-429.113"/>
<polygon fill="midnightblue" stroke="midnightblue" points="240.164,-432.478 249.261,-427.047 238.762,-425.62 240.164,-432.478"/>
</g>
<!-- Node27 -->
<g id="node13" class="node"><title>Node27</title>
<g id="a_node13"><a xlink:href="../../d0/dfe/classcom_1_1github_1_1aptd_1_1simulation_1_1datamodel_1_1CXMLReader.htm#a2437d80acd49b6cf6ecb2fddf3cc8b39" target="_top" xlink:title="create the station list ">
<polygon fill="none" stroke="black" points="232,-306 232,-334 406,-334 406,-306 232,-306"/>
<text text-anchor="start" x="240" y="-322.8" font-family="Helvetica,sans-Serif" font-size="9.00">com.github.aptd.simulation.datamodel.</text>
<text text-anchor="middle" x="319" y="-312.8" font-family="Helvetica,sans-Serif" font-size="9.00">CXMLReader.station</text>
</a>
</g>
</g>
<!-- Node15&#45;&gt;Node27 -->
<g id="edge12" class="edge"><title>Node15&#45;&gt;Node27</title>
<path fill="none" stroke="midnightblue" d="M111.319,-445.806C152.754,-420.584 239.249,-367.936 286.136,-339.395"/>
<polygon fill="midnightblue" stroke="midnightblue" points="288.239,-342.213 294.961,-334.024 284.599,-336.234 288.239,-342.213"/>
</g>
<!-- Node33 -->
<g id="node19" class="node"><title>Node33</title>
<g id="a_node19"><a xlink:href="../../d0/dfe/classcom_1_1github_1_1aptd_1_1simulation_1_1datamodel_1_1CXMLReader.htm#aa11c2b9e49aa088d189a3cad2276107d" target="_top" xlink:title="create the train list ">
<polygon fill="none" stroke="black" points="232,-165 232,-193 406,-193 406,-165 232,-165"/>
<text text-anchor="start" x="240" y="-181.8" font-family="Helvetica,sans-Serif" font-size="9.00">com.github.aptd.simulation.datamodel.</text>
<text text-anchor="middle" x="319" y="-171.8" font-family="Helvetica,sans-Serif" font-size="9.00">CXMLReader.train</text>
</a>
</g>
</g>
<!-- Node15&#45;&gt;Node33 -->
<g id="edge19" class="edge"><title>Node15&#45;&gt;Node33</title>
<path fill="none" stroke="midnightblue" d="M97.9896,-445.687C118.258,-416.87 166.027,-350.079 210,-297 238.97,-262.031 274.994,-223.592 297.241,-200.383"/>
<polygon fill="midnightblue" stroke="midnightblue" points="299.815,-202.755 304.227,-193.122 294.772,-197.901 299.815,-202.755"/>
</g>
<!-- Node17 -->
<g id="node3" class="node"><title>Node17</title>
<g id="a_node3"><a xlink:href="../../db/d65/interfacecom_1_1github_1_1aptd_1_1simulation_1_1core_1_1time_1_1ITime.htm#a173ee5e0c94e2e4ffbf44c5eeb5a0c46" target="_top" xlink:title="add an agent ">
<polygon fill="none" stroke="black" points="495,-587 495,-615 663,-615 663,-587 495,-587"/>
<text text-anchor="start" x="503" y="-603.8" font-family="Helvetica,sans-Serif" font-size="9.00">com.github.aptd.simulation.core.time.</text>
<text text-anchor="middle" x="579" y="-593.8" font-family="Helvetica,sans-Serif" font-size="9.00">ITime.addagent</text>
</a>
</g>
</g>
<!-- Node16&#45;&gt;Node17 -->
<g id="edge2" class="edge"><title>Node16&#45;&gt;Node17</title>
<path fill="none" stroke="midnightblue" d="M428.294,-601C447.027,-601 466.358,-601 484.651,-601"/>
<polygon fill="midnightblue" stroke="midnightblue" points="484.696,-604.5 494.696,-601 484.696,-597.5 484.696,-604.5"/>
</g>
<!-- Node20 -->
<g id="node6" class="node"><title>Node20</title>
<g id="a_node6"><a xlink:href="../../d5/dff/interfacecom_1_1github_1_1aptd_1_1simulation_1_1factory_1_1IFactory.htm#ad2fa8556fad5410632a4e892f6e44e31" target="_top" xlink:title="creates a passenger generator, which is used to generate passengers ">
<polygon fill="none" stroke="black" points="500,-517 500,-545 658,-545 658,-517 500,-517"/>
<text text-anchor="start" x="508" y="-533.8" font-family="Helvetica,sans-Serif" font-size="9.00">com.github.aptd.simulation.factory.</text>
<text text-anchor="middle" x="579" y="-523.8" font-family="Helvetica,sans-Serif" font-size="9.00">IFactory.passenger</text>
</a>
</g>
</g>
<!-- Node19&#45;&gt;Node20 -->
<g id="edge5" class="edge"><title>Node19&#45;&gt;Node20</title>
<path fill="none" stroke="midnightblue" d="M406.269,-515.025C433.027,-517.514 462.551,-520.261 489.461,-522.764"/>
<polygon fill="midnightblue" stroke="midnightblue" points="489.354,-526.269 499.635,-523.71 490.002,-519.299 489.354,-526.269"/>
</g>
<!-- Node22 -->
<g id="node8" class="node"><title>Node22</title>
<g id="a_node8"><a xlink:href="../../d5/dff/interfacecom_1_1github_1_1aptd_1_1simulation_1_1factory_1_1IFactory.htm#a506c1a88830b1c242915a05df173bc17" target="_top" xlink:title="creates a PassengerSource generator, which is used to generate a passenger source ...">
<polygon fill="none" stroke="black" points="500,-470 500,-498 658,-498 658,-470 500,-470"/>
<text text-anchor="start" x="508" y="-486.8" font-family="Helvetica,sans-Serif" font-size="9.00">com.github.aptd.simulation.factory.</text>
<text text-anchor="middle" x="579" y="-476.8" font-family="Helvetica,sans-Serif" font-size="9.00">IFactory.passengersource</text>
</a>
</g>
</g>
<!-- Node21&#45;&gt;Node22 -->
<g id="edge7" class="edge"><title>Node21&#45;&gt;Node22</title>
<path fill="none" stroke="midnightblue" d="M412.051,-468.563C437.235,-470.906 464.471,-473.439 489.454,-475.763"/>
<polygon fill="midnightblue" stroke="midnightblue" points="489.359,-479.269 499.641,-476.711 490.008,-472.299 489.359,-479.269"/>
</g>
<!-- Node24 -->
<g id="node10" class="node"><title>Node24</title>
<g id="a_node10"><a xlink:href="../../d0/dfe/classcom_1_1github_1_1aptd_1_1simulation_1_1datamodel_1_1CXMLReader.htm#a6ebefd439854ff367a8e86e8550c8320" target="_top" xlink:title="creates a platform agent generator ">
<polygon fill="none" stroke="black" points="492,-423 492,-451 666,-451 666,-423 492,-423"/>
<text text-anchor="start" x="500" y="-439.8" font-family="Helvetica,sans-Serif" font-size="9.00">com.github.aptd.simulation.datamodel.</text>
<text text-anchor="middle" x="579" y="-429.8" font-family="Helvetica,sans-Serif" font-size="9.00">CXMLReader.platformgenerator</text>
</a>
</g>
</g>
<!-- Node23&#45;&gt;Node24 -->
<g id="edge9" class="edge"><title>Node23&#45;&gt;Node24</title>
<path fill="none" stroke="midnightblue" d="M406.269,-421.025C430.474,-423.277 456.942,-425.739 481.691,-428.041"/>
<polygon fill="midnightblue" stroke="midnightblue" points="481.531,-431.541 491.812,-428.983 482.18,-424.571 481.531,-431.541"/>
</g>
<!-- Node26 -->
<g id="node12" class="node"><title>Node26</title>
<g id="a_node12"><a xlink:href="../../dd/dd7/interfacecom_1_1github_1_1aptd_1_1simulation_1_1elements_1_1IElement.htm#a447fe1b1460ce755b30e013aea069b77" target="_top" xlink:title="name of the object ">
<polygon fill="none" stroke="black" points="495,-376 495,-404 663,-404 663,-376 495,-376"/>
<text text-anchor="start" x="503" y="-392.8" font-family="Helvetica,sans-Serif" font-size="9.00">com.github.aptd.simulation.elements.</text>
<text text-anchor="middle" x="579" y="-382.8" font-family="Helvetica,sans-Serif" font-size="9.00">IElement.id</text>
</a>
</g>
</g>
<!-- Node23&#45;&gt;Node26 -->
<g id="edge11" class="edge"><title>Node23&#45;&gt;Node26</title>
<path fill="none" stroke="midnightblue" d="M406.269,-405.309C431.487,-403.061 459.161,-400.594 484.788,-398.31"/>
<polygon fill="midnightblue" stroke="midnightblue" points="485.226,-401.785 494.875,-397.41 484.604,-394.812 485.226,-401.785"/>
</g>
<!-- Node25 -->
<g id="node11" class="node"><title>Node25</title>
<g id="a_node11"><a xlink:href="../../d5/dff/interfacecom_1_1github_1_1aptd_1_1simulation_1_1factory_1_1IFactory.htm#a4c72dcdb11bf9ac5ad66992a662d26b9" target="_top" xlink:title="creates a platform generator, which is used to generate platforms within stations ...">
<polygon fill="none" stroke="black" points="730,-423 730,-451 888,-451 888,-423 730,-423"/>
<text text-anchor="start" x="738" y="-439.8" font-family="Helvetica,sans-Serif" font-size="9.00">com.github.aptd.simulation.factory.</text>
<text text-anchor="middle" x="809" y="-429.8" font-family="Helvetica,sans-Serif" font-size="9.00">IFactory.platform</text>
</a>
</g>
</g>
<!-- Node24&#45;&gt;Node25 -->
<g id="edge10" class="edge"><title>Node24&#45;&gt;Node25</title>
<path fill="none" stroke="midnightblue" d="M666.197,-437C683.696,-437 702.126,-437 719.697,-437"/>
<polygon fill="midnightblue" stroke="midnightblue" points="719.929,-440.5 729.929,-437 719.929,-433.5 719.929,-440.5"/>
</g>
<!-- Node27&#45;&gt;Node26 -->
<g id="edge18" class="edge"><title>Node27&#45;&gt;Node26</title>
<path fill="none" stroke="midnightblue" d="M360.332,-334.097C389.025,-343.828 428.604,-356.646 464,-366 474.33,-368.73 485.251,-371.355 496.08,-373.802"/>
<polygon fill="midnightblue" stroke="midnightblue" points="495.458,-377.25 505.979,-375.998 496.974,-370.416 495.458,-377.25"/>
</g>
<!-- Node28 -->
<g id="node14" class="node"><title>Node28</title>
<g id="a_node14"><a xlink:href="../../db/d3d/interfacecom_1_1github_1_1aptd_1_1simulation_1_1elements_1_1graph_1_1network_1_1IPlatform.htm#aa75333863456c4f47be5111dd585ec58" target="_top" xlink:title="returns the ID of the station this platform belongs to ">
<polygon fill="none" stroke="black" points="464.5,-282 464.5,-310 693.5,-310 693.5,-282 464.5,-282"/>
<text text-anchor="start" x="472.5" y="-298.8" font-family="Helvetica,sans-Serif" font-size="9.00">com.github.aptd.simulation.elements.graph.network.</text>
<text text-anchor="middle" x="579" y="-288.8" font-family="Helvetica,sans-Serif" font-size="9.00">IPlatform.stationid</text>
</a>
</g>
</g>
<!-- Node27&#45;&gt;Node28 -->
<g id="edge13" class="edge"><title>Node27&#45;&gt;Node28</title>
<path fill="none" stroke="midnightblue" d="M406.269,-311.975C421.675,-310.542 437.999,-309.023 454.212,-307.515"/>
<polygon fill="midnightblue" stroke="midnightblue" points="454.651,-310.99 464.284,-306.578 454.003,-304.02 454.651,-310.99"/>
</g>
<!-- Node29 -->
<g id="node15" class="node"><title>Node29</title>
<g id="a_node15"><a xlink:href="../../d0/dfe/classcom_1_1github_1_1aptd_1_1simulation_1_1datamodel_1_1CXMLReader.htm#ad0b8cadd506525ec3a659613839fe4c9" target="_top" xlink:title="filter an object list ">
<polygon fill="none" stroke="black" points="492,-235 492,-263 666,-263 666,-235 492,-235"/>
<text text-anchor="start" x="500" y="-251.8" font-family="Helvetica,sans-Serif" font-size="9.00">com.github.aptd.simulation.datamodel.</text>
<text text-anchor="middle" x="579" y="-241.8" font-family="Helvetica,sans-Serif" font-size="9.00">CXMLReader.hasagentname</text>
</a>
</g>
</g>
<!-- Node27&#45;&gt;Node29 -->
<g id="edge14" class="edge"><title>Node27&#45;&gt;Node29</title>
<path fill="none" stroke="midnightblue" d="M359.079,-305.977C387.85,-295.965 428.053,-282.62 464,-273 474.247,-270.258 485.08,-267.632 495.828,-265.19"/>
<polygon fill="midnightblue" stroke="midnightblue" points="496.657,-268.591 505.657,-263 495.135,-261.758 496.657,-268.591"/>
</g>
<!-- Node30 -->
<g id="node16" class="node"><title>Node30</title>
<g id="a_node16"><a xlink:href="../../d0/dfe/classcom_1_1github_1_1aptd_1_1simulation_1_1datamodel_1_1CXMLReader.htm#abc0256d1cf55cbe6bfdafa2c735b8e4e" target="_top" xlink:title="get an agent&#45;reference name ">
<polygon fill="none" stroke="black" points="492,-188 492,-216 666,-216 666,-188 492,-188"/>
<text text-anchor="start" x="500" y="-204.8" font-family="Helvetica,sans-Serif" font-size="9.00">com.github.aptd.simulation.datamodel.</text>
<text text-anchor="middle" x="579" y="-194.8" font-family="Helvetica,sans-Serif" font-size="9.00">CXMLReader.agentname</text>
</a>
</g>
</g>
<!-- Node27&#45;&gt;Node30 -->
<g id="edge15" class="edge"><title>Node27&#45;&gt;Node30</title>
<path fill="none" stroke="midnightblue" d="M336.508,-305.985C362.084,-285.03 413.607,-245.781 464,-225 469.818,-222.601 475.91,-220.445 482.122,-218.508"/>
<polygon fill="midnightblue" stroke="midnightblue" points="483.339,-221.799 491.962,-215.642 481.382,-215.078 483.339,-221.799"/>
</g>
<!-- Node31 -->
<g id="node17" class="node"><title>Node31</title>
<g id="a_node17"><a xlink:href="../../d0/dfe/classcom_1_1github_1_1aptd_1_1simulation_1_1datamodel_1_1CXMLReader.htm#a54e11b48323b77041f2644ddaf3f9f2a" target="_top" xlink:title="creates a station agent generator ">
<polygon fill="none" stroke="black" points="492,-329 492,-357 666,-357 666,-329 492,-329"/>
<text text-anchor="start" x="500" y="-345.8" font-family="Helvetica,sans-Serif" font-size="9.00">com.github.aptd.simulation.datamodel.</text>
<text text-anchor="middle" x="579" y="-335.8" font-family="Helvetica,sans-Serif" font-size="9.00">CXMLReader.stationgenerator</text>
</a>
</g>
</g>
<!-- Node27&#45;&gt;Node31 -->
<g id="edge16" class="edge"><title>Node27&#45;&gt;Node31</title>
<path fill="none" stroke="midnightblue" d="M406.269,-327.691C430.474,-329.848 456.942,-332.208 481.691,-334.414"/>
<polygon fill="midnightblue" stroke="midnightblue" points="481.541,-337.915 491.812,-335.317 482.163,-330.942 481.541,-337.915"/>
</g>
<!-- Node32 -->
<g id="node18" class="node"><title>Node32</title>
<g id="a_node18"><a xlink:href="../../d5/dff/interfacecom_1_1github_1_1aptd_1_1simulation_1_1factory_1_1IFactory.htm#a9d61168a1fc922cd02c2169264469fd0" target="_top" xlink:title="creates a full station generator, which is used to simulate also the station in detail ...">
<polygon fill="none" stroke="black" points="730,-329 730,-357 888,-357 888,-329 730,-329"/>
<text text-anchor="start" x="738" y="-345.8" font-family="Helvetica,sans-Serif" font-size="9.00">com.github.aptd.simulation.factory.</text>
<text text-anchor="middle" x="809" y="-335.8" font-family="Helvetica,sans-Serif" font-size="9.00">IFactory.station</text>
</a>
</g>
</g>
<!-- Node31&#45;&gt;Node32 -->
<g id="edge17" class="edge"><title>Node31&#45;&gt;Node32</title>
<path fill="none" stroke="midnightblue" d="M666.197,-343C683.696,-343 702.126,-343 719.697,-343"/>
<polygon fill="midnightblue" stroke="midnightblue" points="719.929,-346.5 729.929,-343 719.929,-339.5 719.929,-346.5"/>
</g>
<!-- Node33&#45;&gt;Node26 -->
<g id="edge28" class="edge"><title>Node33&#45;&gt;Node26</title>
<path fill="none" stroke="midnightblue" d="M335.321,-193.199C357.578,-214.353 399.321,-256.057 428,-297 447.845,-325.331 436.437,-345.103 464,-366 470.474,-370.908 477.723,-374.867 485.344,-378.054"/>
<polygon fill="midnightblue" stroke="midnightblue" points="484.205,-381.364 494.798,-381.569 486.645,-374.803 484.205,-381.364"/>
</g>
<!-- Node33&#45;&gt;Node29 -->
<g id="edge23" class="edge"><title>Node33&#45;&gt;Node29</title>
<path fill="none" stroke="midnightblue" d="M360.332,-193.097C389.025,-202.828 428.604,-215.646 464,-225 474.33,-227.73 485.251,-230.355 496.08,-232.802"/>
<polygon fill="midnightblue" stroke="midnightblue" points="495.458,-236.25 505.979,-234.998 496.974,-229.416 495.458,-236.25"/>
</g>
<!-- Node33&#45;&gt;Node30 -->
<g id="edge24" class="edge"><title>Node33&#45;&gt;Node30</title>
<path fill="none" stroke="midnightblue" d="M406.269,-186.691C430.474,-188.848 456.942,-191.208 481.691,-193.414"/>
<polygon fill="midnightblue" stroke="midnightblue" points="481.541,-196.915 491.812,-194.317 482.163,-189.942 481.541,-196.915"/>
</g>
<!-- Node34 -->
<g id="node20" class="node"><title>Node34</title>
<g id="a_node20"><a xlink:href="../../d8/d16/classcom_1_1github_1_1aptd_1_1simulation_1_1elements_1_1IStatefulElement.htm#a88c2c21ca1581704c24d103ddcfdae1a" target="_top" xlink:title="generates a default asl script string calling &quot;state/transition&quot; upon &quot;!activate&quot;, and greeting upon initialisation ">
<polygon fill="none" stroke="black" points="495,-47 495,-75 663,-75 663,-47 495,-47"/>
<text text-anchor="start" x="503" y="-63.8" font-family="Helvetica,sans-Serif" font-size="9.00">com.github.aptd.simulation.elements.</text>
<text text-anchor="middle" x="579" y="-53.8" font-family="Helvetica,sans-Serif" font-size="9.00">IStatefulElement.getDefaultAsl</text>
</a>
</g>
</g>
<!-- Node33&#45;&gt;Node34 -->
<g id="edge20" class="edge"><title>Node33&#45;&gt;Node34</title>
<path fill="none" stroke="midnightblue" d="M336.508,-164.985C362.084,-144.03 413.607,-104.781 464,-84 470.737,-81.2218 477.841,-78.7697 485.073,-76.6071"/>
<polygon fill="midnightblue" stroke="midnightblue" points="486.305,-79.897 494.994,-73.8341 484.421,-73.1555 486.305,-79.897"/>
</g>
<!-- Node35 -->
<g id="node21" class="node"><title>Node35</title>
<g id="a_node21"><a xlink:href="../../d0/dfe/classcom_1_1github_1_1aptd_1_1simulation_1_1datamodel_1_1CXMLReader.htm#a08874fb565b284bb306a701a9f7bc8bf" target="_top" xlink:title="creates a train door agent generator ">
<polygon fill="none" stroke="black" points="492,-0 492,-28 666,-28 666,-0 492,-0"/>
<text text-anchor="start" x="500" y="-16.8" font-family="Helvetica,sans-Serif" font-size="9.00">com.github.aptd.simulation.datamodel.</text>
<text text-anchor="middle" x="579" y="-6.8" font-family="Helvetica,sans-Serif" font-size="9.00">CXMLReader.doorgenerator</text>
</a>
</g>
</g>
<!-- Node33&#45;&gt;Node35 -->
<g id="edge21" class="edge"><title>Node33&#45;&gt;Node35</title>
<path fill="none" stroke="midnightblue" d="M330.01,-164.58C351.109,-135.383 403.24,-69.3107 464,-37 469.674,-33.9828 475.699,-31.3603 481.901,-29.081"/>
<polygon fill="midnightblue" stroke="midnightblue" points="483.396,-32.2711 491.766,-25.7744 481.172,-25.634 483.396,-32.2711"/>
</g>
<!-- Node37 -->
<g id="node23" class="node"><title>Node37</title>
<g id="a_node23"><a xlink:href="../../d0/dfe/classcom_1_1github_1_1aptd_1_1simulation_1_1datamodel_1_1CXMLReader.htm#a3bf3d9ff4ce36fec7dfae2ae4c999d96" target="_top" xlink:title="creates a train agent generator ">
<polygon fill="none" stroke="black" points="492,-141 492,-169 666,-169 666,-141 492,-141"/>
<text text-anchor="start" x="500" y="-157.8" font-family="Helvetica,sans-Serif" font-size="9.00">com.github.aptd.simulation.datamodel.</text>
<text text-anchor="middle" x="579" y="-147.8" font-family="Helvetica,sans-Serif" font-size="9.00">CXMLReader.traingenerator</text>
</a>
</g>
</g>
<!-- Node33&#45;&gt;Node37 -->
<g id="edge25" class="edge"><title>Node33&#45;&gt;Node37</title>
<path fill="none" stroke="midnightblue" d="M406.269,-170.975C430.474,-168.723 456.942,-166.261 481.691,-163.959"/>
<polygon fill="midnightblue" stroke="midnightblue" points="482.18,-167.429 491.812,-163.017 481.531,-160.459 482.18,-167.429"/>
</g>
<!-- Node39 -->
<g id="node25" class="node"><title>Node39</title>
<g id="a_node25"><a xlink:href="../../db/d65/interfacecom_1_1github_1_1aptd_1_1simulation_1_1core_1_1time_1_1ITime.htm#a5b549eba2607f2e3f2cc9800e5164ea1" target="_top" xlink:title="get the current time ">
<polygon fill="none" stroke="black" points="495,-94 495,-122 663,-122 663,-94 495,-94"/>
<text text-anchor="start" x="503" y="-110.8" font-family="Helvetica,sans-Serif" font-size="9.00">com.github.aptd.simulation.core.time.</text>
<text text-anchor="middle" x="579" y="-100.8" font-family="Helvetica,sans-Serif" font-size="9.00">ITime.current</text>
</a>
</g>
</g>
<!-- Node33&#45;&gt;Node39 -->
<g id="edge27" class="edge"><title>Node33&#45;&gt;Node39</title>
<path fill="none" stroke="midnightblue" d="M357.816,-164.979C386.638,-154.64 427.459,-140.737 464,-131 472.978,-128.608 482.411,-126.332 491.846,-124.209"/>
<polygon fill="midnightblue" stroke="midnightblue" points="492.644,-127.617 501.661,-122.053 491.142,-120.78 492.644,-127.617"/>
</g>
<!-- Node36 -->
<g id="node22" class="node"><title>Node36</title>
<g id="a_node22"><a xlink:href="../../d5/dff/interfacecom_1_1github_1_1aptd_1_1simulation_1_1factory_1_1IFactory.htm#a96d272948a49ff51cbd256acf3973370" target="_top" xlink:title="creates a train door generator ">
<polygon fill="none" stroke="black" points="730,-0 730,-28 888,-28 888,-0 730,-0"/>
<text text-anchor="start" x="738" y="-16.8" font-family="Helvetica,sans-Serif" font-size="9.00">com.github.aptd.simulation.factory.</text>
<text text-anchor="middle" x="809" y="-6.8" font-family="Helvetica,sans-Serif" font-size="9.00">IFactory.door</text>
</a>
</g>
</g>
<!-- Node35&#45;&gt;Node36 -->
<g id="edge22" class="edge"><title>Node35&#45;&gt;Node36</title>
<path fill="none" stroke="midnightblue" d="M666.197,-14C683.696,-14 702.126,-14 719.697,-14"/>
<polygon fill="midnightblue" stroke="midnightblue" points="719.929,-17.5001 729.929,-14 719.929,-10.5001 719.929,-17.5001"/>
</g>
<!-- Node38 -->
<g id="node24" class="node"><title>Node38</title>
<g id="a_node24"><a xlink:href="../../d5/dff/interfacecom_1_1github_1_1aptd_1_1simulation_1_1factory_1_1IFactory.htm#ae68583ba1b564024156f8d619bf20a4c" target="_top" xlink:title="creates a train generator ">
<polygon fill="none" stroke="black" points="730,-141 730,-169 888,-169 888,-141 730,-141"/>
<text text-anchor="start" x="738" y="-157.8" font-family="Helvetica,sans-Serif" font-size="9.00">com.github.aptd.simulation.factory.</text>
<text text-anchor="middle" x="809" y="-147.8" font-family="Helvetica,sans-Serif" font-size="9.00">IFactory.train</text>
</a>
</g>
</g>
<!-- Node37&#45;&gt;Node38 -->
<g id="edge26" class="edge"><title>Node37&#45;&gt;Node38</title>
<path fill="none" stroke="midnightblue" d="M666.197,-155C683.696,-155 702.126,-155 719.697,-155"/>
<polygon fill="midnightblue" stroke="midnightblue" points="719.929,-158.5 729.929,-155 719.929,-151.5 719.929,-158.5"/>
</g>
</g>
</svg>
        <g id="navigator" transform="translate(0 0)" fill="#404254">
                <rect fill="#f2f5e9" fill-opacity="0.5" stroke="#606060" stroke-width=".5" x="0" y="0" width="60" height="60"/>
                <use id="zoomplus" xlink:href="#zoomPlus" x="17" y="9" onmousedown="handleZoom(evt,'in')"/>
                <use id="zoomminus" xlink:href="#zoomMin" x="42" y="9" onmousedown="handleZoom(evt,'out')"/>
                <use id="reset" xlink:href="#resetDef" x="30" y="36" onmousedown="handleReset()"/>
                <g id="arrowUp" xlink:href="#dirArrow" transform="translate(30 24)" onmousedown="handlePan(0,-1)">
                  <use xlink:href="#rim" fill="#404040">
                        <set attributeName="fill" to="#808080" begin="arrowUp.mouseover" end="arrowUp.mouseout"/>
                  </use>
                  <path fill="none" stroke="white" stroke-width="1.5" d="M0,-3.0v7 M-2.5,-0.5L0,-3.0L2.5,-0.5"/>
                </g>
                <g id="arrowRight" xlink:href="#dirArrow" transform="rotate(90) translate(36 -43)" onmousedown="handlePan(1,0)">
                  <use xlink:href="#rim" fill="#404040">
                        <set attributeName="fill" to="#808080" begin="arrowRight.mouseover" end="arrowRight.mouseout"/>
                  </use>
                  <path fill="none" stroke="white" stroke-width="1.5" d="M0,-3.0v7 M-2.5,-0.5L0,-3.0L2.5,-0.5"/>
                </g>
                <g id="arrowDown" xlink:href="#dirArrow" transform="rotate(180) translate(-30 -48)" onmousedown="handlePan(0,1)">
                  <use xlink:href="#rim" fill="#404040">
                        <set attributeName="fill" to="#808080" begin="arrowDown.mouseover" end="arrowDown.mouseout"/>
                  </use>
                  <path fill="none" stroke="white" stroke-width="1.5" d="M0,-3.0v7 M-2.5,-0.5L0,-3.0L2.5,-0.5"/>
                </g>
                <g id="arrowLeft" xlink:href="#dirArrow" transform="rotate(270) translate(-36 17)" onmousedown="handlePan(-1,0)">
                  <use xlink:href="#rim" fill="#404040">
                        <set attributeName="fill" to="#808080" begin="arrowLeft.mouseover" end="arrowLeft.mouseout"/>
                  </use>
                  <path fill="none" stroke="white" stroke-width="1.5" d="M0,-3.0v7 M-2.5,-0.5L0,-3.0L2.5,-0.5"/>
                </g>
        </g>
        <svg viewBox="0 0 15 15" width="100%" height="30px" preserveAspectRatio="xMaxYMin meet">
         <g id="arrow_out" transform="scale(0.3 0.3)">
          <a xlink:href="classcom_1_1github_1_1aptd_1_1simulation_1_1datamodel_1_1CXMLReader_a9245292c78062330cc2b46caf7338fb7_cgraph_org.svg" target="_base">
           <rect id="button" ry="5" rx="5" y="6" x="6" height="38" width="38"
                fill="#f2f5e9" fill-opacity="0.5" stroke="#606060" stroke-width="1.0"/>
           <path id="arrow"
             d="M 11.500037,31.436501 C 11.940474,20.09759 22.043105,11.32322 32.158766,21.979434 L 37.068811,17.246167 C 37.068811,17.246167 37.088388,32 37.088388,32 L 22.160133,31.978069 C 22.160133,31.978069 26.997745,27.140456 26.997745,27.140456 C 18.528582,18.264221 13.291696,25.230495 11.500037,31.436501 z"
             style="fill:#404040;"/>
          </a>
         </g>
        </svg>
</svg>
