<?xml version="1.0" encoding="UTF-8" standalone="no"?>
<!DOCTYPE svg PUBLIC "-//W3C//DTD SVG 1.1//EN"
 "http://www.w3.org/Graphics/SVG/1.1/DTD/svg11.dtd">
<!-- Generated by graphviz version 2.36.0 (20140111.2315)
 -->
<!-- Title: com.github.aptd.simulation.datamodel.CXMLReader.train Pages: 1 -->
<!--zoomable 318 -->
<svg id="main" version="1.1" xmlns="http://www.w3.org/2000/svg" xmlns:xlink="http://www.w3.org/1999/xlink" xml:space="preserve" onload="init(evt)">
<style type="text/css"><![CDATA[
.edge:hover path { stroke: red; }
.edge:hover polygon { stroke: red; fill: red; }
]]></style>
<script type="text/javascript"><![CDATA[
var edges = document.getElementsByTagName('g');
if (edges && edges.length) {
  for (var i=0;i<edges.length;i++) {
    if (edges[i].id.substr(0,4)=='edge') {
      edges[i].setAttribute('class','edge');
    }
  }
}
]]></script>
        <defs>
                <circle id="rim" cx="0" cy="0" r="7"/>
                <circle id="rim2" cx="0" cy="0" r="3.5"/>
                <g id="zoomPlus">
                        <use xlink:href="#rim" fill="#404040">
                                <set attributeName="fill" to="#808080" begin="zoomplus.mouseover" end="zoomplus.mouseout"/>
                        </use>
                        <path d="M-4,0h8M0,-4v8" fill="none" stroke="white" stroke-width="1.5" pointer-events="none"/>
                </g>
                <g id="zoomMin">
                        <use xlink:href="#rim" fill="#404040">
                                <set attributeName="fill" to="#808080" begin="zoomminus.mouseover" end="zoomminus.mouseout"/>
                        </use>
                        <path d="M-4,0h8" fill="none" stroke="white" stroke-width="1.5" pointer-events="none"/>
                </g>
                <g id="dirArrow">
                        <path fill="none" stroke="white" stroke-width="1.5" d="M0,-3.0v7 M-2.5,-0.5L0,-3.0L2.5,-0.5"/>
                </g>
               <g id="resetDef">
                       <use xlink:href="#rim2" fill="#404040">
                               <set attributeName="fill" to="#808080" begin="reset.mouseover" end="reset.mouseout"/>
                       </use>
               </g>
        </defs>

<script type="text/javascript">
var viewWidth = 586;
var viewHeight = 318;
var sectionId = 'dynsection-20';
</script>
<script xlink:href="../../svgpan.js"/>
<svg id="graph" class="graph">
<g id="viewport">
<title>com.github.aptd.simulation.datamodel.CXMLReader.train</title>
<!-- Node79 -->
<g id="node1" class="node"><title>Node79</title>
<polygon fill="#bfbfbf" stroke="black" points="0,-141 0,-169 174,-169 174,-141 0,-141"/>
<text text-anchor="start" x="8" y="-157.8" font-family="Helvetica,sans-Serif" font-size="9.00">com.github.aptd.simulation.datamodel.</text>
<text text-anchor="middle" x="87" y="-147.8" font-family="Helvetica,sans-Serif" font-size="9.00">CXMLReader.train</text>
</g>
<!-- Node80 -->
<g id="node2" class="node"><title>Node80</title>
<g id="a_node2"><a xlink:href="../../d0/dfe/classcom_1_1github_1_1aptd_1_1simulation_1_1datamodel_1_1CXMLReader.htm#abc0256d1cf55cbe6bfdafa2c735b8e4e" target="_top" xlink:title="get an agent&#45;reference name ">
<polygon fill="none" stroke="black" points="210,-282 210,-310 384,-310 384,-282 210,-282"/>
<text text-anchor="start" x="218" y="-298.8" font-family="Helvetica,sans-Serif" font-size="9.00">com.github.aptd.simulation.datamodel.</text>
<text text-anchor="middle" x="297" y="-288.8" font-family="Helvetica,sans-Serif" font-size="9.00">CXMLReader.agentname</text>
</a>
</g>
</g>
<!-- Node79&#45;&gt;Node80 -->
<g id="edge1" class="edge"><title>Node79&#45;&gt;Node80</title>
<path fill="none" stroke="midnightblue" d="M98.7952,-169.201C118.284,-193.845 161.82,-244.522 210,-272 213.892,-274.22 218.002,-276.244 222.23,-278.089"/>
<polygon fill="midnightblue" stroke="midnightblue" points="221.054,-281.388 231.639,-281.848 223.651,-274.888 221.054,-281.388"/>
</g>
<!-- Node81 -->
<g id="node3" class="node"><title>Node81</title>
<g id="a_node3"><a xlink:href="../../db/d65/interfacecom_1_1github_1_1aptd_1_1simulation_1_1core_1_1time_1_1ITime.htm#a5b549eba2607f2e3f2cc9800e5164ea1" target="_top" xlink:title="get the current time ">
<polygon fill="none" stroke="black" points="213,-235 213,-263 381,-263 381,-235 213,-235"/>
<text text-anchor="start" x="221" y="-251.8" font-family="Helvetica,sans-Serif" font-size="9.00">com.github.aptd.simulation.core.time.</text>
<text text-anchor="middle" x="297" y="-241.8" font-family="Helvetica,sans-Serif" font-size="9.00">ITime.current</text>
</a>
</g>
</g>
<!-- Node79&#45;&gt;Node81 -->
<g id="edge2" class="edge"><title>Node79&#45;&gt;Node81</title>
<path fill="none" stroke="midnightblue" d="M108.77,-169.067C132.412,-184.559 172.609,-209.344 210,-225 215.818,-227.436 221.958,-229.704 228.173,-231.795"/>
<polygon fill="midnightblue" stroke="midnightblue" points="227.371,-235.214 237.962,-234.936 229.51,-228.549 227.371,-235.214"/>
</g>
<!-- Node82 -->
<g id="node4" class="node"><title>Node82</title>
<g id="a_node4"><a xlink:href="../../d0/dfe/classcom_1_1github_1_1aptd_1_1simulation_1_1datamodel_1_1CXMLReader.htm#a08874fb565b284bb306a701a9f7bc8bf" target="_top" xlink:title="creates a train door agent generator ">
<polygon fill="none" stroke="black" points="210,-188 210,-216 384,-216 384,-188 210,-188"/>
<text text-anchor="start" x="218" y="-204.8" font-family="Helvetica,sans-Serif" font-size="9.00">com.github.aptd.simulation.datamodel.</text>
<text text-anchor="middle" x="297" y="-194.8" font-family="Helvetica,sans-Serif" font-size="9.00">CXMLReader.doorgenerator</text>
</a>
</g>
</g>
<!-- Node79&#45;&gt;Node82 -->
<g id="edge3" class="edge"><title>Node79&#45;&gt;Node82</title>
<path fill="none" stroke="midnightblue" d="M150.125,-169.038C173.377,-174.292 199.981,-180.303 224.048,-185.742"/>
<polygon fill="midnightblue" stroke="midnightblue" points="223.31,-189.163 233.836,-187.953 224.853,-182.335 223.31,-189.163"/>
</g>
<!-- Node84 -->
<g id="node6" class="node"><title>Node84</title>
<g id="a_node6"><a xlink:href="../../d8/d16/classcom_1_1github_1_1aptd_1_1simulation_1_1elements_1_1IStatefulElement.htm#a88c2c21ca1581704c24d103ddcfdae1a" target="_top" xlink:title="generates a default asl script string calling &quot;state/transition&quot; upon &quot;!activate&quot;, and greeting upon initialisation ">
<polygon fill="none" stroke="black" points="213,-141 213,-169 381,-169 381,-141 213,-141"/>
<text text-anchor="start" x="221" y="-157.8" font-family="Helvetica,sans-Serif" font-size="9.00">com.github.aptd.simulation.elements.</text>
<text text-anchor="middle" x="297" y="-147.8" font-family="Helvetica,sans-Serif" font-size="9.00">IStatefulElement.getDefaultAsl</text>
</a>
</g>
</g>
<!-- Node79&#45;&gt;Node84 -->
<g id="edge5" class="edge"><title>Node79&#45;&gt;Node84</title>
<path fill="none" stroke="midnightblue" d="M174.103,-155C183.542,-155 193.183,-155 202.704,-155"/>
<polygon fill="midnightblue" stroke="midnightblue" points="202.972,-158.5 212.972,-155 202.971,-151.5 202.972,-158.5"/>
</g>
<!-- Node85 -->
<g id="node7" class="node"><title>Node85</title>
<g id="a_node7"><a xlink:href="../../d0/dfe/classcom_1_1github_1_1aptd_1_1simulation_1_1datamodel_1_1CXMLReader.htm#ad0b8cadd506525ec3a659613839fe4c9" target="_top" xlink:title="filter an object list ">
<polygon fill="none" stroke="black" points="210,-94 210,-122 384,-122 384,-94 210,-94"/>
<text text-anchor="start" x="218" y="-110.8" font-family="Helvetica,sans-Serif" font-size="9.00">com.github.aptd.simulation.datamodel.</text>
<text text-anchor="middle" x="297" y="-100.8" font-family="Helvetica,sans-Serif" font-size="9.00">CXMLReader.hasagentname</text>
</a>
</g>
</g>
<!-- Node79&#45;&gt;Node85 -->
<g id="edge6" class="edge"><title>Node79&#45;&gt;Node85</title>
<path fill="none" stroke="midnightblue" d="M150.125,-140.962C173.377,-135.708 199.981,-129.697 224.048,-124.258"/>
<polygon fill="midnightblue" stroke="midnightblue" points="224.853,-127.665 233.836,-122.047 223.31,-120.837 224.853,-127.665"/>
</g>
<!-- Node86 -->
<g id="node8" class="node"><title>Node86</title>
<g id="a_node8"><a xlink:href="../../dd/dd7/interfacecom_1_1github_1_1aptd_1_1simulation_1_1elements_1_1IElement.htm#a447fe1b1460ce755b30e013aea069b77" target="_top" xlink:title="name of the object ">
<polygon fill="none" stroke="black" points="213,-47 213,-75 381,-75 381,-47 213,-47"/>
<text text-anchor="start" x="221" y="-63.8" font-family="Helvetica,sans-Serif" font-size="9.00">com.github.aptd.simulation.elements.</text>
<text text-anchor="middle" x="297" y="-53.8" font-family="Helvetica,sans-Serif" font-size="9.00">IElement.id</text>
</a>
</g>
</g>
<!-- Node79&#45;&gt;Node86 -->
<g id="edge7" class="edge"><title>Node79&#45;&gt;Node86</title>
<path fill="none" stroke="midnightblue" d="M108.77,-140.933C132.412,-125.441 172.609,-100.656 210,-85 215.818,-82.5641 221.958,-80.2963 228.173,-78.2046"/>
<polygon fill="midnightblue" stroke="midnightblue" points="229.51,-81.4515 237.962,-75.0639 227.371,-74.7861 229.51,-81.4515"/>
</g>
<!-- Node87 -->
<g id="node9" class="node"><title>Node87</title>
<g id="a_node9"><a xlink:href="../../d0/dfe/classcom_1_1github_1_1aptd_1_1simulation_1_1datamodel_1_1CXMLReader.htm#a3bf3d9ff4ce36fec7dfae2ae4c999d96" target="_top" xlink:title="creates a train agent generator ">
<polygon fill="none" stroke="black" points="210,-0 210,-28 384,-28 384,-0 210,-0"/>
<text text-anchor="start" x="218" y="-16.8" font-family="Helvetica,sans-Serif" font-size="9.00">com.github.aptd.simulation.datamodel.</text>
<text text-anchor="middle" x="297" y="-6.8" font-family="Helvetica,sans-Serif" font-size="9.00">CXMLReader.traingenerator</text>
</a>
</g>
</g>
<!-- Node79&#45;&gt;Node87 -->
<g id="edge8" class="edge"><title>Node79&#45;&gt;Node87</title>
<path fill="none" stroke="midnightblue" d="M98.7952,-140.799C118.284,-116.155 161.82,-65.4781 210,-38 213.892,-35.7802 218.002,-33.7556 222.23,-31.9106"/>
<polygon fill="midnightblue" stroke="midnightblue" points="223.651,-35.1122 231.639,-28.1521 221.054,-28.6117 223.651,-35.1122"/>
</g>
<!-- Node83 -->
<g id="node5" class="node"><title>Node83</title>
<g id="a_node5"><a xlink:href="../../d5/dff/interfacecom_1_1github_1_1aptd_1_1simulation_1_1factory_1_1IFactory.htm#a96d272948a49ff51cbd256acf3973370" target="_top" xlink:title="creates a train door generator ">
<polygon fill="none" stroke="black" points="420,-188 420,-216 578,-216 578,-188 420,-188"/>
<text text-anchor="start" x="428" y="-204.8" font-family="Helvetica,sans-Serif" font-size="9.00">com.github.aptd.simulation.factory.</text>
<text text-anchor="middle" x="499" y="-194.8" font-family="Helvetica,sans-Serif" font-size="9.00">IFactory.door</text>
</a>
</g>
</g>
<!-- Node82&#45;&gt;Node83 -->
<g id="edge4" class="edge"><title>Node82&#45;&gt;Node83</title>
<path fill="none" stroke="midnightblue" d="M384.269,-202C392.687,-202 401.238,-202 409.676,-202"/>
<polygon fill="midnightblue" stroke="midnightblue" points="409.896,-205.5 419.896,-202 409.896,-198.5 409.896,-205.5"/>
</g>
<!-- Node88 -->
<g id="node10" class="node"><title>Node88</title>
<g id="a_node10"><a xlink:href="../../d5/dff/interfacecom_1_1github_1_1aptd_1_1simulation_1_1factory_1_1IFactory.htm#ae68583ba1b564024156f8d619bf20a4c" target="_top" xlink:title="creates a train generator ">
<polygon fill="none" stroke="black" points="420,-0 420,-28 578,-28 578,-0 420,-0"/>
<text text-anchor="start" x="428" y="-16.8" font-family="Helvetica,sans-Serif" font-size="9.00">com.github.aptd.simulation.factory.</text>
<text text-anchor="middle" x="499" y="-6.8" font-family="Helvetica,sans-Serif" font-size="9.00">IFactory.train</text>
</a>
</g>
</g>
<!-- Node87&#45;&gt;Node88 -->
<g id="edge9" class="edge"><title>Node87&#45;&gt;Node88</title>
<path fill="none" stroke="midnightblue" d="M384.269,-14C392.687,-14 401.238,-14 409.676,-14"/>
<polygon fill="midnightblue" stroke="midnightblue" points="409.896,-17.5001 419.896,-14 409.896,-10.5001 409.896,-17.5001"/>
</g>
</g>
</svg>
        <g id="navigator" transform="translate(0 0)" fill="#404254">
                <rect fill="#f2f5e9" fill-opacity="0.5" stroke="#606060" stroke-width=".5" x="0" y="0" width="60" height="60"/>
                <use id="zoomplus" xlink:href="#zoomPlus" x="17" y="9" onmousedown="handleZoom(evt,'in')"/>
                <use id="zoomminus" xlink:href="#zoomMin" x="42" y="9" onmousedown="handleZoom(evt,'out')"/>
                <use id="reset" xlink:href="#resetDef" x="30" y="36" onmousedown="handleReset()"/>
                <g id="arrowUp" xlink:href="#dirArrow" transform="translate(30 24)" onmousedown="handlePan(0,-1)">
                  <use xlink:href="#rim" fill="#404040">
                        <set attributeName="fill" to="#808080" begin="arrowUp.mouseover" end="arrowUp.mouseout"/>
                  </use>
                  <path fill="none" stroke="white" stroke-width="1.5" d="M0,-3.0v7 M-2.5,-0.5L0,-3.0L2.5,-0.5"/>
                </g>
                <g id="arrowRight" xlink:href="#dirArrow" transform="rotate(90) translate(36 -43)" onmousedown="handlePan(1,0)">
                  <use xlink:href="#rim" fill="#404040">
                        <set attributeName="fill" to="#808080" begin="arrowRight.mouseover" end="arrowRight.mouseout"/>
                  </use>
                  <path fill="none" stroke="white" stroke-width="1.5" d="M0,-3.0v7 M-2.5,-0.5L0,-3.0L2.5,-0.5"/>
                </g>
                <g id="arrowDown" xlink:href="#dirArrow" transform="rotate(180) translate(-30 -48)" onmousedown="handlePan(0,1)">
                  <use xlink:href="#rim" fill="#404040">
                        <set attributeName="fill" to="#808080" begin="arrowDown.mouseover" end="arrowDown.mouseout"/>
                  </use>
                  <path fill="none" stroke="white" stroke-width="1.5" d="M0,-3.0v7 M-2.5,-0.5L0,-3.0L2.5,-0.5"/>
                </g>
                <g id="arrowLeft" xlink:href="#dirArrow" transform="rotate(270) translate(-36 17)" onmousedown="handlePan(-1,0)">
                  <use xlink:href="#rim" fill="#404040">
                        <set attributeName="fill" to="#808080" begin="arrowLeft.mouseover" end="arrowLeft.mouseout"/>
                  </use>
                  <path fill="none" stroke="white" stroke-width="1.5" d="M0,-3.0v7 M-2.5,-0.5L0,-3.0L2.5,-0.5"/>
                </g>
        </g>
        <svg viewBox="0 0 15 15" width="100%" height="30px" preserveAspectRatio="xMaxYMin meet">
         <g id="arrow_out" transform="scale(0.3 0.3)">
          <a xlink:href="classcom_1_1github_1_1aptd_1_1simulation_1_1datamodel_1_1CXMLReader_aa11c2b9e49aa088d189a3cad2276107d_cgraph_org.svg" target="_base">
           <rect id="button" ry="5" rx="5" y="6" x="6" height="38" width="38"
                fill="#f2f5e9" fill-opacity="0.5" stroke="#606060" stroke-width="1.0"/>
           <path id="arrow"
             d="M 11.500037,31.436501 C 11.940474,20.09759 22.043105,11.32322 32.158766,21.979434 L 37.068811,17.246167 C 37.068811,17.246167 37.088388,32 37.088388,32 L 22.160133,31.978069 C 22.160133,31.978069 26.997745,27.140456 26.997745,27.140456 C 18.528582,18.264221 13.291696,25.230495 11.500037,31.436501 z"
             style="fill:#404040;"/>
          </a>
         </g>
        </svg>
</svg>
