<?xml version="1.0" encoding="UTF-8" standalone="no"?>
<!DOCTYPE svg PUBLIC "-//W3C//DTD SVG 1.1//EN"
 "http://www.w3.org/Graphics/SVG/1.1/DTD/svg11.dtd">
<!-- Generated by graphviz version 2.36.0 (20140111.2315)
 -->
<!-- Title: com.github.aptd.simulation.datamodel.CXMLReader.platform Pages: 1 -->
<svg width="586pt" height="83pt"
 viewBox="0.00 0.00 586.00 83.00" xmlns="http://www.w3.org/2000/svg" xmlns:xlink="http://www.w3.org/1999/xlink">
<g id="graph0" class="graph" transform="scale(1 1) rotate(0) translate(4 79)">
<title>com.github.aptd.simulation.datamodel.CXMLReader.platform</title>
<!-- Node54 -->
<g id="node1" class="node"><title>Node54</title>
<polygon fill="#bfbfbf" stroke="black" points="0,-23 0,-51 174,-51 174,-23 0,-23"/>
<text text-anchor="start" x="8" y="-39.8" font-family="Helvetica,sans-Serif" font-size="9.00">com.github.aptd.simulation.datamodel.</text>
<text text-anchor="middle" x="87" y="-29.8" font-family="Helvetica,sans-Serif" font-size="9.00">CXMLReader.platform</text>
</g>
<!-- Node55 -->
<g id="node2" class="node"><title>Node55</title>
<g id="a_node2"><a xlink:href="../../dd/dd7/interfacecom_1_1github_1_1aptd_1_1simulation_1_1elements_1_1IElement.htm#a447fe1b1460ce755b30e013aea069b77" target="_top" xlink:title="name of the object ">
<polygon fill="none" stroke="black" points="213,-47 213,-75 381,-75 381,-47 213,-47"/>
<text text-anchor="start" x="221" y="-63.8" font-family="Helvetica,sans-Serif" font-size="9.00">com.github.aptd.simulation.elements.</text>
<text text-anchor="middle" x="297" y="-53.8" font-family="Helvetica,sans-Serif" font-size="9.00">IElement.id</text>
</a>
</g>
</g>
<!-- Node54&#45;&gt;Node55 -->
<g id="edge1" class="edge"><title>Node54&#45;&gt;Node55</title>
<path fill="none" stroke="midnightblue" d="M174.103,-46.935C183.642,-48.0356 193.388,-49.1602 203.007,-50.2701"/>
<polygon fill="midnightblue" stroke="midnightblue" points="202.636,-53.7504 212.972,-51.4198 203.439,-46.7965 202.636,-53.7504"/>
</g>
<!-- Node56 -->
<g id="node3" class="node"><title>Node56</title>
<g id="a_node3"><a xlink:href="../../d0/dfe/classcom_1_1github_1_1aptd_1_1simulation_1_1datamodel_1_1CXMLReader.htm#a6ebefd439854ff367a8e86e8550c8320" target="_top" xlink:title="creates a platform agent generator ">
<polygon fill="none" stroke="black" points="210,-0 210,-28 384,-28 384,-0 210,-0"/>
<text text-anchor="start" x="218" y="-16.8" font-family="Helvetica,sans-Serif" font-size="9.00">com.github.aptd.simulation.datamodel.</text>
<text text-anchor="middle" x="297" y="-6.8" font-family="Helvetica,sans-Serif" font-size="9.00">CXMLReader.platformgenerator</text>
</a>
</g>
</g>
<!-- Node54&#45;&gt;Node56 -->
<g id="edge2" class="edge"><title>Node54&#45;&gt;Node56</title>
<path fill="none" stroke="midnightblue" d="M174.103,-27.479C182.618,-26.5374 191.298,-25.5777 199.905,-24.6259"/>
<polygon fill="midnightblue" stroke="midnightblue" points="200.407,-28.0918 209.962,-23.5139 199.637,-21.1342 200.407,-28.0918"/>
</g>
<!-- Node57 -->
<g id="node4" class="node"><title>Node57</title>
<g id="a_node4"><a xlink:href="../../d5/dff/interfacecom_1_1github_1_1aptd_1_1simulation_1_1factory_1_1IFactory.htm#a4c72dcdb11bf9ac5ad66992a662d26b9" target="_top" xlink:title="creates a platform generator, which is used to generate platforms within stations ...">
<polygon fill="none" stroke="black" points="420,-0 420,-28 578,-28 578,-0 420,-0"/>
<text text-anchor="start" x="428" y="-16.8" font-family="Helvetica,sans-Serif" font-size="9.00">com.github.aptd.simulation.factory.</text>
<text text-anchor="middle" x="499" y="-6.8" font-family="Helvetica,sans-Serif" font-size="9.00">IFactory.platform</text>
</a>
</g>
</g>
<!-- Node56&#45;&gt;Node57 -->
<g id="edge3" class="edge"><title>Node56&#45;&gt;Node57</title>
<path fill="none" stroke="midnightblue" d="M384.269,-14C392.687,-14 401.238,-14 409.676,-14"/>
<polygon fill="midnightblue" stroke="midnightblue" points="409.896,-17.5001 419.896,-14 409.896,-10.5001 409.896,-17.5001"/>
</g>
</g>
</svg>
