<?xml version="1.0" encoding="UTF-8" standalone="no"?>
<!DOCTYPE svg PUBLIC "-//W3C//DTD SVG 1.1//EN"
 "http://www.w3.org/Graphics/SVG/1.1/DTD/svg11.dtd">
<!-- Generated by graphviz version 2.36.0 (20140111.2315)
 -->
<!-- Title: Graphical Class Hierarchy Pages: 1 -->
<svg width="460pt" height="83pt"
 viewBox="0.00 0.00 460.00 83.00" xmlns="http://www.w3.org/2000/svg" xmlns:xlink="http://www.w3.org/1999/xlink">
<g id="graph0" class="graph" transform="scale(1 1) rotate(0) translate(4 79)">
<title>Graphical Class Hierarchy</title>
<!-- Node0 -->
<g id="node1" class="node"><title>Node0</title>
<g id="a_node1"><a xlink:href="de/d57/interfacecom_1_1github_1_1aptd_1_1simulation_1_1core_1_1experiment_1_1IExperiment.htm" target="_top" xlink:title="a single experiment run ">
<polygon fill="none" stroke="black" points="0.5,-23 0.5,-51 197.5,-51 197.5,-23 0.5,-23"/>
<text text-anchor="start" x="8.5" y="-39.8" font-family="Helvetica,sans-Serif" font-size="9.00">com.github.aptd.simulation.core.experiment.</text>
<text text-anchor="middle" x="99" y="-29.8" font-family="Helvetica,sans-Serif" font-size="9.00">IExperiment</text>
</a>
</g>
</g>
<!-- Node1 -->
<g id="node2" class="node"><title>Node1</title>
<g id="a_node2"><a xlink:href="d4/db8/classcom_1_1github_1_1aptd_1_1simulation_1_1core_1_1experiment_1_1IExperiment_1_1CEmptyExperiment.htm" target="_top" xlink:title="empty experiment ">
<polygon fill="none" stroke="black" points="244.5,-47 244.5,-75 441.5,-75 441.5,-47 244.5,-47"/>
<text text-anchor="start" x="252.5" y="-63.8" font-family="Helvetica,sans-Serif" font-size="9.00">com.github.aptd.simulation.core.experiment.</text>
<text text-anchor="middle" x="343" y="-53.8" font-family="Helvetica,sans-Serif" font-size="9.00">IExperiment.CEmptyExperiment</text>
</a>
</g>
</g>
<!-- Node0&#45;&gt;Node1 -->
<g id="edge1" class="edge"><title>Node0&#45;&gt;Node1</title>
<path fill="none" stroke="midnightblue" d="M207.869,-47.6977C219.998,-48.9006 232.305,-50.1212 244.295,-51.3103"/>
<polygon fill="midnightblue" stroke="midnightblue" points="208.03,-44.1966 197.733,-46.6925 207.339,-51.1624 208.03,-44.1966"/>
</g>
<!-- Node2 -->
<g id="node3" class="node"><title>Node2</title>
<g id="a_node3"><a xlink:href="d7/d17/classcom_1_1github_1_1aptd_1_1simulation_1_1core_1_1experiment_1_1local_1_1CExperiment.htm" target="_top" xlink:title="experiment definition ">
<polygon fill="none" stroke="black" points="234,-0 234,-28 452,-28 452,-0 234,-0"/>
<text text-anchor="start" x="242" y="-16.8" font-family="Helvetica,sans-Serif" font-size="9.00">com.github.aptd.simulation.core.experiment.local.</text>
<text text-anchor="middle" x="343" y="-6.8" font-family="Helvetica,sans-Serif" font-size="9.00">CExperiment</text>
</a>
</g>
</g>
<!-- Node0&#45;&gt;Node2 -->
<g id="edge2" class="edge"><title>Node0&#45;&gt;Node2</title>
<path fill="none" stroke="midnightblue" d="M207.869,-26.748C216.548,-25.9231 225.318,-25.0896 233.998,-24.2646"/>
<polygon fill="midnightblue" stroke="midnightblue" points="207.357,-23.2808 197.733,-27.7113 208.019,-30.2494 207.357,-23.2808"/>
</g>
</g>
</svg>
