<?xml version="1.0" encoding="UTF-8" standalone="no"?>
<!DOCTYPE svg PUBLIC "-//W3C//DTD SVG 1.1//EN"
 "http://www.w3.org/Graphics/SVG/1.1/DTD/svg11.dtd">
<!-- Generated by graphviz version 2.36.0 (20140111.2315)
 -->
<!-- Title: Graphical Class Hierarchy Pages: 1 -->
<svg width="378pt" height="412pt"
 viewBox="0.00 0.00 378.00 412.00" xmlns="http://www.w3.org/2000/svg" xmlns:xlink="http://www.w3.org/1999/xlink">
<g id="graph0" class="graph" transform="scale(1 1) rotate(0) translate(4 408)">
<title>Graphical Class Hierarchy</title>
<!-- Node107 -->
<g id="node1" class="node"><title>Node107</title>
<polygon fill="none" stroke="#bfbfbf" points="0.5,-193 0.5,-211 81.5,-211 81.5,-193 0.5,-193"/>
<text text-anchor="middle" x="41" y="-199.8" font-family="Helvetica,sans-Serif" font-size="9.00">IBaseGenerator</text>
</g>
<!-- Node0 -->
<g id="node2" class="node"><title>Node0</title>
<g id="a_node2"><a xlink:href="d6/d35/classcom_1_1github_1_1aptd_1_1simulation_1_1elements_1_1graph_1_1network_1_1local_1_1CPlatform_1_1CGenerator.htm" target="_top" xlink:title="generator ">
<polygon fill="none" stroke="black" points="118.5,-376 118.5,-404 369.5,-404 369.5,-376 118.5,-376"/>
<text text-anchor="start" x="126.5" y="-392.8" font-family="Helvetica,sans-Serif" font-size="9.00">com.github.aptd.simulation.elements.graph.network.local.</text>
<text text-anchor="middle" x="244" y="-382.8" font-family="Helvetica,sans-Serif" font-size="9.00">CPlatform.CGenerator</text>
</a>
</g>
</g>
<!-- Node107&#45;&gt;Node0 -->
<g id="edge1" class="edge"><title>Node107&#45;&gt;Node0</title>
<path fill="none" stroke="midnightblue" d="M45.1319,-221.503C51.8165,-256.375 70.9015,-329.199 118,-366 122.876,-369.81 128.18,-373.073 133.761,-375.864"/>
<polygon fill="midnightblue" stroke="midnightblue" points="48.5048,-220.477 43.3177,-211.239 41.6117,-221.695 48.5048,-220.477"/>
</g>
<!-- Node109 -->
<g id="node3" class="node"><title>Node109</title>
<g id="a_node3"><a xlink:href="dd/d26/classcom_1_1github_1_1aptd_1_1simulation_1_1elements_1_1graph_1_1network_1_1local_1_1CTrack_1_1CGenerator.htm" target="_top" xlink:title="generator ">
<polygon fill="none" stroke="black" points="118.5,-329 118.5,-357 369.5,-357 369.5,-329 118.5,-329"/>
<text text-anchor="start" x="126.5" y="-345.8" font-family="Helvetica,sans-Serif" font-size="9.00">com.github.aptd.simulation.elements.graph.network.local.</text>
<text text-anchor="middle" x="244" y="-335.8" font-family="Helvetica,sans-Serif" font-size="9.00">CTrack.CGenerator</text>
</a>
</g>
</g>
<!-- Node107&#45;&gt;Node109 -->
<g id="edge2" class="edge"><title>Node107&#45;&gt;Node109</title>
<path fill="none" stroke="midnightblue" d="M48.6753,-220.687C59.127,-247.081 81.9667,-294.758 118,-319 123.775,-322.885 130.022,-326.178 136.537,-328.965"/>
<polygon fill="midnightblue" stroke="midnightblue" points="51.8649,-219.226 45.0586,-211.107 45.316,-221.699 51.8649,-219.226"/>
</g>
<!-- Node110 -->
<g id="node4" class="node"><title>Node110</title>
<g id="a_node4"><a xlink:href="db/d43/classcom_1_1github_1_1aptd_1_1simulation_1_1elements_1_1graph_1_1network_1_1local_1_1CTransit_1_1CGenerator.htm" target="_top" xlink:title="generator ">
<polygon fill="none" stroke="black" points="118.5,-282 118.5,-310 369.5,-310 369.5,-282 118.5,-282"/>
<text text-anchor="start" x="126.5" y="-298.8" font-family="Helvetica,sans-Serif" font-size="9.00">com.github.aptd.simulation.elements.graph.network.local.</text>
<text text-anchor="middle" x="244" y="-288.8" font-family="Helvetica,sans-Serif" font-size="9.00">CTransit.CGenerator</text>
</a>
</g>
</g>
<!-- Node107&#45;&gt;Node110 -->
<g id="edge3" class="edge"><title>Node107&#45;&gt;Node110</title>
<path fill="none" stroke="midnightblue" d="M55.6561,-219.19C69.5601,-235.449 92.6298,-259.208 118,-272 125.794,-275.93 134.159,-279.218 142.732,-281.97"/>
<polygon fill="midnightblue" stroke="midnightblue" points="58.3331,-216.935 49.257,-211.47 52.9436,-221.402 58.3331,-216.935"/>
</g>
<!-- Node111 -->
<g id="node5" class="node"><title>Node111</title>
<g id="a_node5"><a xlink:href="d1/da7/classcom_1_1github_1_1aptd_1_1simulation_1_1elements_1_1graph_1_1network_1_1local_1_1CVirtual_1_1CGenerator.htm" target="_top" xlink:title="generator ">
<polygon fill="none" stroke="black" points="118.5,-235 118.5,-263 369.5,-263 369.5,-235 118.5,-235"/>
<text text-anchor="start" x="126.5" y="-251.8" font-family="Helvetica,sans-Serif" font-size="9.00">com.github.aptd.simulation.elements.graph.network.local.</text>
<text text-anchor="middle" x="244" y="-241.8" font-family="Helvetica,sans-Serif" font-size="9.00">CVirtual.CGenerator</text>
</a>
</g>
</g>
<!-- Node107&#45;&gt;Node111 -->
<g id="edge4" class="edge"><title>Node107&#45;&gt;Node111</title>
<path fill="none" stroke="midnightblue" d="M79.4638,-214.184C91.6762,-217.928 105.348,-221.88 118,-225 132.482,-228.571 148.018,-231.928 163.044,-234.935"/>
<polygon fill="midnightblue" stroke="midnightblue" points="80.1914,-210.745 69.6029,-211.11 78.1085,-217.427 80.1914,-210.745"/>
</g>
<!-- Node112 -->
<g id="node6" class="node"><title>Node112</title>
<g id="a_node6"><a xlink:href="de/dc6/classcom_1_1github_1_1aptd_1_1simulation_1_1elements_1_1passenger_1_1CPassenger_1_1CGenerator.htm" target="_top" xlink:title="generator ">
<polygon fill="none" stroke="black" points="137,-188 137,-216 351,-216 351,-188 137,-188"/>
<text text-anchor="start" x="145" y="-204.8" font-family="Helvetica,sans-Serif" font-size="9.00">com.github.aptd.simulation.elements.passenger.</text>
<text text-anchor="middle" x="244" y="-194.8" font-family="Helvetica,sans-Serif" font-size="9.00">CPassenger.CGenerator</text>
</a>
</g>
</g>
<!-- Node107&#45;&gt;Node112 -->
<g id="edge5" class="edge"><title>Node107&#45;&gt;Node112</title>
<path fill="none" stroke="midnightblue" d="M91.855,-202C105.588,-202 121.03,-202 136.66,-202"/>
<polygon fill="midnightblue" stroke="midnightblue" points="91.7112,-198.5 81.7111,-202 91.7111,-205.5 91.7112,-198.5"/>
</g>
<!-- Node113 -->
<g id="node7" class="node"><title>Node113</title>
<g id="a_node7"><a xlink:href="df/d46/classcom_1_1github_1_1aptd_1_1simulation_1_1elements_1_1passenger_1_1CPassengerSource_1_1CGenerator.htm" target="_top" xlink:title="generator ">
<polygon fill="none" stroke="black" points="137,-141 137,-169 351,-169 351,-141 137,-141"/>
<text text-anchor="start" x="145" y="-157.8" font-family="Helvetica,sans-Serif" font-size="9.00">com.github.aptd.simulation.elements.passenger.</text>
<text text-anchor="middle" x="244" y="-147.8" font-family="Helvetica,sans-Serif" font-size="9.00">CPassengerSource.CGenerator</text>
</a>
</g>
</g>
<!-- Node107&#45;&gt;Node113 -->
<g id="edge6" class="edge"><title>Node107&#45;&gt;Node113</title>
<path fill="none" stroke="midnightblue" d="M79.4638,-189.816C91.6762,-186.072 105.348,-182.12 118,-179 132.482,-175.429 148.018,-172.072 163.044,-169.065"/>
<polygon fill="midnightblue" stroke="midnightblue" points="78.1085,-186.573 69.6029,-192.89 80.1914,-193.255 78.1085,-186.573"/>
</g>
<!-- Node114 -->
<g id="node8" class="node"><title>Node114</title>
<g id="a_node8"><a xlink:href="d5/d64/classcom_1_1github_1_1aptd_1_1simulation_1_1elements_1_1train_1_1CDoor_1_1CGenerator.htm" target="_top" xlink:title="generator ">
<polygon fill="none" stroke="black" points="150,-94 150,-122 338,-122 338,-94 150,-94"/>
<text text-anchor="start" x="158" y="-110.8" font-family="Helvetica,sans-Serif" font-size="9.00">com.github.aptd.simulation.elements.train.</text>
<text text-anchor="middle" x="244" y="-100.8" font-family="Helvetica,sans-Serif" font-size="9.00">CDoor.CGenerator</text>
</a>
</g>
</g>
<!-- Node107&#45;&gt;Node114 -->
<g id="edge7" class="edge"><title>Node107&#45;&gt;Node114</title>
<path fill="none" stroke="midnightblue" d="M55.6561,-184.81C69.5601,-168.551 92.6298,-144.792 118,-132 127.964,-126.976 138.862,-123 149.936,-119.854"/>
<polygon fill="midnightblue" stroke="midnightblue" points="52.9436,-182.598 49.257,-192.53 58.3331,-187.065 52.9436,-182.598"/>
</g>
<!-- Node115 -->
<g id="node9" class="node"><title>Node115</title>
<g id="a_node9"><a xlink:href="df/d99/classcom_1_1github_1_1aptd_1_1simulation_1_1elements_1_1train_1_1CTrain_1_1CGenerator.htm" target="_top" xlink:title="generator ">
<polygon fill="none" stroke="black" points="150,-47 150,-75 338,-75 338,-47 150,-47"/>
<text text-anchor="start" x="158" y="-63.8" font-family="Helvetica,sans-Serif" font-size="9.00">com.github.aptd.simulation.elements.train.</text>
<text text-anchor="middle" x="244" y="-53.8" font-family="Helvetica,sans-Serif" font-size="9.00">CTrain.CGenerator</text>
</a>
</g>
</g>
<!-- Node107&#45;&gt;Node115 -->
<g id="edge8" class="edge"><title>Node107&#45;&gt;Node115</title>
<path fill="none" stroke="midnightblue" d="M48.6753,-183.313C59.127,-156.919 81.9667,-109.242 118,-85 127.626,-78.5242 138.561,-73.6951 149.863,-70.1097"/>
<polygon fill="midnightblue" stroke="midnightblue" points="45.316,-182.301 45.0586,-192.893 51.8649,-184.774 45.316,-182.301"/>
</g>
<!-- Node116 -->
<g id="node10" class="node"><title>Node116</title>
<g id="a_node10"><a xlink:href="d9/d83/classcom_1_1github_1_1aptd_1_1simulation_1_1elements_1_1train_1_1CWagon_1_1CGenerator.htm" target="_top" xlink:title="generator ">
<polygon fill="none" stroke="black" points="150,-0 150,-28 338,-28 338,-0 150,-0"/>
<text text-anchor="start" x="158" y="-16.8" font-family="Helvetica,sans-Serif" font-size="9.00">com.github.aptd.simulation.elements.train.</text>
<text text-anchor="middle" x="244" y="-6.8" font-family="Helvetica,sans-Serif" font-size="9.00">CWagon.CGenerator</text>
</a>
</g>
</g>
<!-- Node107&#45;&gt;Node116 -->
<g id="edge9" class="edge"><title>Node107&#45;&gt;Node116</title>
<path fill="none" stroke="midnightblue" d="M45.1319,-182.497C51.8165,-147.625 70.9015,-74.8006 118,-38 127.403,-30.653 138.401,-25.3377 149.902,-21.5238"/>
<polygon fill="midnightblue" stroke="midnightblue" points="41.6117,-182.305 43.3177,-192.761 48.5048,-183.523 41.6117,-182.305"/>
</g>
</g>
</svg>
