<?xml version="1.0" encoding="UTF-8" standalone="no"?>
<!DOCTYPE svg PUBLIC "-//W3C//DTD SVG 1.1//EN"
 "http://www.w3.org/Graphics/SVG/1.1/DTD/svg11.dtd">
<!-- Generated by graphviz version 2.36.0 (20140111.2315)
 -->
<!-- Title: Graphical Class Hierarchy Pages: 1 -->
<svg width="640pt" height="83pt"
 viewBox="0.00 0.00 640.00 83.00" xmlns="http://www.w3.org/2000/svg" xmlns:xlink="http://www.w3.org/1999/xlink">
<g id="graph0" class="graph" transform="scale(1 1) rotate(0) translate(4 79)">
<title>Graphical Class Hierarchy</title>
<!-- Node152 -->
<g id="node1" class="node"><title>Node152</title>
<polygon fill="none" stroke="#bfbfbf" points="0.5,-47 0.5,-65 105.5,-65 105.5,-47 0.5,-47"/>
<text text-anchor="middle" x="53" y="-53.8" font-family="Helvetica,sans-Serif" font-size="9.00">IBaseAgentGenerator</text>
</g>
<!-- Node0 -->
<g id="node2" class="node"><title>Node0</title>
<g id="a_node2"><a xlink:href="d1/d9f/classcom_1_1github_1_1aptd_1_1simulation_1_1elements_1_1IBaseElement_1_1IBaseGenerator.htm" target="_top" xlink:title="base agent generator ">
<polygon fill="none" stroke="black" points="142,-18 142,-56 344,-56 344,-18 142,-18"/>
<text text-anchor="start" x="150" y="-44.8" font-family="Helvetica,sans-Serif" font-size="9.00">com.github.aptd.simulation.elements.</text>
<text text-anchor="start" x="150" y="-34.8" font-family="Helvetica,sans-Serif" font-size="9.00">IBaseElement&lt; N extends IElement</text>
<text text-anchor="middle" x="243" y="-24.8" font-family="Helvetica,sans-Serif" font-size="9.00">&lt;?&gt;.IBaseGenerator&lt; N extends IElement&lt;?&gt;</text>
</a>
</g>
</g>
<!-- Node152&#45;&gt;Node0 -->
<g id="edge1" class="edge"><title>Node152&#45;&gt;Node0</title>
<path fill="none" stroke="midnightblue" d="M115.907,-49.7434C124.312,-48.894 133.105,-48.0053 141.971,-47.1093"/>
<polygon fill="midnightblue" stroke="midnightblue" points="115.467,-46.27 105.869,-50.7579 116.171,-53.2345 115.467,-46.27"/>
</g>
<!-- Node1 -->
<g id="node3" class="node"><title>Node1</title>
<g id="a_node3"><a xlink:href="d2/dd1/classcom_1_1github_1_1aptd_1_1simulation_1_1elements_1_1dispatcher_1_1CDispatcher_1_1CGenerator.htm" target="_top" xlink:title="generator ">
<polygon fill="none" stroke="black" points="399.5,-47 399.5,-75 612.5,-75 612.5,-47 399.5,-47"/>
<text text-anchor="start" x="407.5" y="-63.8" font-family="Helvetica,sans-Serif" font-size="9.00">com.github.aptd.simulation.elements.dispatcher.</text>
<text text-anchor="middle" x="506" y="-53.8" font-family="Helvetica,sans-Serif" font-size="9.00">CDispatcher.CGenerator</text>
</a>
</g>
</g>
<!-- Node0&#45;&gt;Node1 -->
<g id="edge2" class="edge"><title>Node0&#45;&gt;Node1</title>
<path fill="none" stroke="midnightblue" d="M354.429,-47.1544C369.355,-48.5269 384.639,-49.9323 399.476,-51.2967"/>
<polygon fill="midnightblue" stroke="midnightblue" points="354.441,-43.6409 344.163,-46.2104 353.8,-50.6114 354.441,-43.6409"/>
</g>
<!-- Node2 -->
<g id="node4" class="node"><title>Node2</title>
<g id="a_node4"><a xlink:href="df/dad/classcom_1_1github_1_1aptd_1_1simulation_1_1elements_1_1graph_1_1network_1_1local_1_1CStation_1_1CGenerator.htm" target="_top" xlink:title="generator ">
<polygon fill="none" stroke="black" points="380.5,-0 380.5,-28 631.5,-28 631.5,-0 380.5,-0"/>
<text text-anchor="start" x="388.5" y="-16.8" font-family="Helvetica,sans-Serif" font-size="9.00">com.github.aptd.simulation.elements.graph.network.local.</text>
<text text-anchor="middle" x="506" y="-6.8" font-family="Helvetica,sans-Serif" font-size="9.00">CStation.CGenerator</text>
</a>
</g>
</g>
<!-- Node0&#45;&gt;Node2 -->
<g id="edge3" class="edge"><title>Node0&#45;&gt;Node2</title>
<path fill="none" stroke="midnightblue" d="M354.183,-27.2904C362.773,-26.5334 371.484,-25.7658 380.162,-25.0011"/>
<polygon fill="midnightblue" stroke="midnightblue" points="353.817,-23.809 344.163,-28.1734 354.432,-30.782 353.817,-23.809"/>
</g>
<!-- Node79 -->
<g id="node5" class="node"><title>Node79</title>
<polygon fill="none" stroke="#bfbfbf" points="23,-10 23,-28 83,-28 83,-10 23,-10"/>
<text text-anchor="middle" x="53" y="-16.8" font-family="Helvetica,sans-Serif" font-size="9.00">IGenerator</text>
</g>
<!-- Node79&#45;&gt;Node0 -->
<g id="edge4" class="edge"><title>Node79&#45;&gt;Node0</title>
<path fill="none" stroke="midnightblue" d="M93.343,-22.7669C107.712,-24.1426 124.692,-25.7684 141.945,-27.4203"/>
<polygon fill="midnightblue" stroke="midnightblue" points="93.6631,-19.2816 83.375,-21.8125 92.9959,-26.2497 93.6631,-19.2816"/>
</g>
</g>
</svg>
