<?xml version="1.0" encoding="UTF-8" standalone="no"?>
<!DOCTYPE svg PUBLIC "-//W3C//DTD SVG 1.1//EN"
 "http://www.w3.org/Graphics/SVG/1.1/DTD/svg11.dtd">
<!-- Generated by graphviz version 2.36.0 (20140111.2315)
 -->
<!-- Title: Graphical Class Hierarchy Pages: 1 -->
<svg width="366pt" height="83pt"
 viewBox="0.00 0.00 366.00 83.00" xmlns="http://www.w3.org/2000/svg" xmlns:xlink="http://www.w3.org/1999/xlink">
<g id="graph0" class="graph" transform="scale(1 1) rotate(0) translate(4 79)">
<title>Graphical Class Hierarchy</title>
<!-- Node0 -->
<g id="node1" class="node"><title>Node0</title>
<g id="a_node1"><a xlink:href="d4/dc9/classcom_1_1github_1_1aptd_1_1simulation_1_1IBaseTest.htm" target="_top" xlink:title="base test class with helpers ">
<polygon fill="none" stroke="black" points="0,-23 0,-51 128,-51 128,-23 0,-23"/>
<text text-anchor="start" x="8" y="-39.8" font-family="Helvetica,sans-Serif" font-size="9.00">com.github.aptd.simulation.</text>
<text text-anchor="middle" x="64" y="-29.8" font-family="Helvetica,sans-Serif" font-size="9.00">IBaseTest</text>
</a>
</g>
</g>
<!-- Node1 -->
<g id="node2" class="node"><title>Node1</title>
<g id="a_node2"><a xlink:href="d4/d97/classcom_1_1github_1_1aptd_1_1simulation_1_1elements_1_1graph_1_1TestCNetwork.htm" target="_top" xlink:title="network test ">
<polygon fill="none" stroke="black" points="164,-47 164,-75 358,-75 358,-47 164,-47"/>
<text text-anchor="start" x="172" y="-63.8" font-family="Helvetica,sans-Serif" font-size="9.00">com.github.aptd.simulation.elements.graph.</text>
<text text-anchor="middle" x="261" y="-53.8" font-family="Helvetica,sans-Serif" font-size="9.00">TestCNetwork</text>
</a>
</g>
</g>
<!-- Node0&#45;&gt;Node1 -->
<g id="edge1" class="edge"><title>Node0&#45;&gt;Node1</title>
<path fill="none" stroke="midnightblue" d="M138.145,-46.0025C146.548,-47.0367 155.209,-48.1026 163.855,-49.1668"/>
<polygon fill="midnightblue" stroke="midnightblue" points="138.394,-42.5068 128.042,-44.759 137.539,-49.4544 138.394,-42.5068"/>
</g>
<!-- Node2 -->
<g id="node3" class="node"><title>Node2</title>
<g id="a_node3"><a xlink:href="d8/d50/classcom_1_1github_1_1aptd_1_1simulation_1_1TestCLanguageLabels.htm" target="_top" xlink:title="test all resource strings ">
<polygon fill="none" stroke="black" points="197,-0 197,-28 325,-28 325,-0 197,-0"/>
<text text-anchor="start" x="205" y="-16.8" font-family="Helvetica,sans-Serif" font-size="9.00">com.github.aptd.simulation.</text>
<text text-anchor="middle" x="261" y="-6.8" font-family="Helvetica,sans-Serif" font-size="9.00">TestCLanguageLabels</text>
</a>
</g>
</g>
<!-- Node0&#45;&gt;Node2 -->
<g id="edge2" class="edge"><title>Node0&#45;&gt;Node2</title>
<path fill="none" stroke="midnightblue" d="M138.013,-28.3882C157.355,-26.1068 178.072,-23.6633 196.842,-21.4494"/>
<polygon fill="midnightblue" stroke="midnightblue" points="137.563,-24.917 128.042,-29.5643 138.383,-31.8688 137.563,-24.917"/>
</g>
</g>
</svg>
