<?xml version="1.0" encoding="UTF-8" standalone="no"?>
<!DOCTYPE svg PUBLIC "-//W3C//DTD SVG 1.1//EN"
 "http://www.w3.org/Graphics/SVG/1.1/DTD/svg11.dtd">
<!-- Generated by graphviz version 2.36.0 (20140111.2315)
 -->
<!-- Title: Graphical Class Hierarchy Pages: 1 -->
<svg width="344pt" height="130pt"
 viewBox="0.00 0.00 344.00 130.00" xmlns="http://www.w3.org/2000/svg" xmlns:xlink="http://www.w3.org/1999/xlink">
<g id="graph0" class="graph" transform="scale(1 1) rotate(0) translate(4 126)">
<title>Graphical Class Hierarchy</title>
<!-- Node0 -->
<g id="node1" class="node"><title>Node0</title>
<g id="a_node1"><a xlink:href="dc/d96/classcom_1_1github_1_1aptd_1_1simulation_1_1error_1_1CNotFoundException.htm" target="_top" xlink:title="not&#45;found exception to defining details ">
<polygon fill="none" stroke="black" points="0,-47 0,-75 150,-75 150,-47 0,-47"/>
<text text-anchor="start" x="8" y="-63.8" font-family="Helvetica,sans-Serif" font-size="9.00">com.github.aptd.simulation.error.</text>
<text text-anchor="middle" x="75" y="-53.8" font-family="Helvetica,sans-Serif" font-size="9.00">CNotFoundException</text>
</a>
</g>
</g>
<!-- Node0&#45;&gt;Node0 -->
<g id="edge1" class="edge"><title>Node0&#45;&gt;Node0</title>
<path fill="none" stroke="midnightblue" d="M41.8013,-85.1504C45.7811,-89.7489 56.8473,-93 75,-93 104.789,-93 115.495,-84.2448 107.116,-75.1476"/>
<polygon fill="midnightblue" stroke="midnightblue" points="45.2875,-85.4661 42.8837,-75.1476 38.3281,-84.713 45.2875,-85.4661"/>
</g>
<!-- Node2 -->
<g id="node2" class="node"><title>Node2</title>
<g id="a_node2"><a xlink:href="de/d48/classcom_1_1github_1_1aptd_1_1simulation_1_1error_1_1CRuntimeException.htm" target="_top" xlink:title="runtime exception ">
<polygon fill="none" stroke="black" points="186,-94 186,-122 336,-122 336,-94 186,-94"/>
<text text-anchor="start" x="194" y="-110.8" font-family="Helvetica,sans-Serif" font-size="9.00">com.github.aptd.simulation.error.</text>
<text text-anchor="middle" x="261" y="-100.8" font-family="Helvetica,sans-Serif" font-size="9.00">CRuntimeException</text>
</a>
</g>
</g>
<!-- Node0&#45;&gt;Node2 -->
<g id="edge2" class="edge"><title>Node0&#45;&gt;Node2</title>
<path fill="none" stroke="midnightblue" d="M140.995,-77.602C161.965,-82.9583 184.988,-88.8393 205.15,-93.9894"/>
<polygon fill="midnightblue" stroke="midnightblue" points="141.761,-74.1854 131.206,-75.1015 140.029,-80.9676 141.761,-74.1854"/>
</g>
<!-- Node3 -->
<g id="node3" class="node"><title>Node3</title>
<g id="a_node3"><a xlink:href="d8/d7a/classcom_1_1github_1_1aptd_1_1simulation_1_1error_1_1CSemanticException.htm" target="_top" xlink:title="semantic exception to define internal errors ">
<polygon fill="none" stroke="black" points="186,-47 186,-75 336,-75 336,-47 186,-47"/>
<text text-anchor="start" x="194" y="-63.8" font-family="Helvetica,sans-Serif" font-size="9.00">com.github.aptd.simulation.error.</text>
<text text-anchor="middle" x="261" y="-53.8" font-family="Helvetica,sans-Serif" font-size="9.00">CSemanticException</text>
</a>
</g>
</g>
<!-- Node0&#45;&gt;Node3 -->
<g id="edge3" class="edge"><title>Node0&#45;&gt;Node3</title>
<path fill="none" stroke="midnightblue" d="M160.066,-61C168.654,-61 177.336,-61 185.808,-61"/>
<polygon fill="midnightblue" stroke="midnightblue" points="160.045,-57.5001 150.044,-61 160.044,-64.5001 160.045,-57.5001"/>
</g>
<!-- Node4 -->
<g id="node4" class="node"><title>Node4</title>
<g id="a_node4"><a xlink:href="df/df2/classcom_1_1github_1_1aptd_1_1simulation_1_1error_1_1CUnmodifiableException.htm" target="_top" xlink:title="exception of unmodifiable access ">
<polygon fill="none" stroke="black" points="186,-0 186,-28 336,-28 336,-0 186,-0"/>
<text text-anchor="start" x="194" y="-16.8" font-family="Helvetica,sans-Serif" font-size="9.00">com.github.aptd.simulation.error.</text>
<text text-anchor="middle" x="261" y="-6.8" font-family="Helvetica,sans-Serif" font-size="9.00">CUnmodifiableException</text>
</a>
</g>
</g>
<!-- Node0&#45;&gt;Node4 -->
<g id="edge4" class="edge"><title>Node0&#45;&gt;Node4</title>
<path fill="none" stroke="midnightblue" d="M140.995,-44.398C161.965,-39.0417 184.988,-33.1607 205.15,-28.0106"/>
<polygon fill="midnightblue" stroke="midnightblue" points="140.029,-41.0324 131.206,-46.8985 141.761,-47.8146 140.029,-41.0324"/>
</g>
</g>
</svg>
