<?xml version="1.0" encoding="UTF-8" standalone="no"?>
<!DOCTYPE svg PUBLIC "-//W3C//DTD SVG 1.1//EN"
 "http://www.w3.org/Graphics/SVG/1.1/DTD/svg11.dtd">
<!-- Generated by graphviz version 2.36.0 (20140111.2315)
 -->
<!-- Title: Graphical Class Hierarchy Pages: 1 -->
<svg width="856pt" height="83pt"
 viewBox="0.00 0.00 856.00 83.00" xmlns="http://www.w3.org/2000/svg" xmlns:xlink="http://www.w3.org/1999/xlink">
<g id="graph0" class="graph" transform="scale(1 1) rotate(0) translate(4 79)">
<title>Graphical Class Hierarchy</title>
<!-- Node0 -->
<g id="node1" class="node"><title>Node0</title>
<g id="a_node1"><a xlink:href="dc/d84/interfacecom_1_1github_1_1aptd_1_1simulation_1_1elements_1_1graph_1_1IGraph.htm" target="_top" xlink:title="interface of graphs ">
<polygon fill="none" stroke="black" points="0,-18 0,-56 194,-56 194,-18 0,-18"/>
<text text-anchor="start" x="8" y="-44.8" font-family="Helvetica,sans-Serif" font-size="9.00">com.github.aptd.simulation.elements.graph.</text>
<text text-anchor="start" x="8" y="-34.8" font-family="Helvetica,sans-Serif" font-size="9.00">IGraph&lt; V extends IVertex&lt;?, E</text>
<text text-anchor="middle" x="97" y="-24.8" font-family="Helvetica,sans-Serif" font-size="9.00"> extends IEdge&lt; V &gt;</text>
</a>
</g>
</g>
<!-- Node1 -->
<g id="node2" class="node"><title>Node1</title>
<g id="a_node2"><a xlink:href="d3/d7b/interfacecom_1_1github_1_1aptd_1_1simulation_1_1elements_1_1graph_1_1eventactivitynetwork_1_1IEventActivityNetwork.htm" target="_top" xlink:title="interface event&#45;activity&#45;network ">
<polygon fill="none" stroke="black" points="230.5,-47 230.5,-75 509.5,-75 509.5,-47 230.5,-47"/>
<text text-anchor="start" x="238.5" y="-63.8" font-family="Helvetica,sans-Serif" font-size="9.00">com.github.aptd.simulation.elements.graph.eventactivitynetwork.</text>
<text text-anchor="middle" x="370" y="-53.8" font-family="Helvetica,sans-Serif" font-size="9.00">IEventActivityNetwork</text>
</a>
</g>
</g>
<!-- Node0&#45;&gt;Node1 -->
<g id="edge1" class="edge"><title>Node0&#45;&gt;Node1</title>
<path fill="none" stroke="midnightblue" d="M204.284,-46.4126C212.854,-47.1716 221.588,-47.9451 230.34,-48.7201"/>
<polygon fill="midnightblue" stroke="midnightblue" points="204.577,-42.925 194.308,-45.5291 203.96,-49.8977 204.577,-42.925"/>
</g>
<!-- Node3 -->
<g id="node4" class="node"><title>Node3</title>
<g id="a_node4"><a xlink:href="d2/da2/classcom_1_1github_1_1aptd_1_1simulation_1_1elements_1_1graph_1_1network_1_1local_1_1CNetwork.htm" target="_top" xlink:title="graph class with local data ">
<polygon fill="none" stroke="black" points="244.5,-0 244.5,-28 495.5,-28 495.5,-0 244.5,-0"/>
<text text-anchor="start" x="252.5" y="-16.8" font-family="Helvetica,sans-Serif" font-size="9.00">com.github.aptd.simulation.elements.graph.network.local.</text>
<text text-anchor="middle" x="370" y="-6.8" font-family="Helvetica,sans-Serif" font-size="9.00">CNetwork</text>
</a>
</g>
</g>
<!-- Node0&#45;&gt;Node3 -->
<g id="edge3" class="edge"><title>Node0&#45;&gt;Node3</title>
<path fill="none" stroke="midnightblue" d="M204.611,-27.9518C217.569,-26.852 230.897,-25.7209 244.091,-24.6011"/>
<polygon fill="midnightblue" stroke="midnightblue" points="203.976,-24.4931 194.308,-28.8263 204.568,-31.468 203.976,-24.4931"/>
</g>
<!-- Node2 -->
<g id="node3" class="node"><title>Node2</title>
<g id="a_node3"><a xlink:href="df/d48/classcom_1_1github_1_1aptd_1_1simulation_1_1elements_1_1graph_1_1eventactivitynetwork_1_1local_1_1CEventActivityNetwork.htm" target="_top" xlink:title="event&#45;activity&#45;network ">
<polygon fill="none" stroke="black" points="546.5,-47 546.5,-75 847.5,-75 847.5,-47 546.5,-47"/>
<text text-anchor="start" x="554.5" y="-63.8" font-family="Helvetica,sans-Serif" font-size="9.00">com.github.aptd.simulation.elements.graph.eventactivitynetwork.local.</text>
<text text-anchor="middle" x="697" y="-53.8" font-family="Helvetica,sans-Serif" font-size="9.00">CEventActivityNetwork</text>
</a>
</g>
</g>
<!-- Node1&#45;&gt;Node2 -->
<g id="edge2" class="edge"><title>Node1&#45;&gt;Node2</title>
<path fill="none" stroke="midnightblue" d="M519.998,-61C528.735,-61 537.524,-61 546.264,-61"/>
<polygon fill="midnightblue" stroke="midnightblue" points="519.772,-57.5001 509.772,-61 519.772,-64.5001 519.772,-57.5001"/>
</g>
</g>
</svg>
