<?xml version="1.0" encoding="UTF-8" standalone="no"?>
<!DOCTYPE svg PUBLIC "-//W3C//DTD SVG 1.1//EN"
 "http://www.w3.org/Graphics/SVG/1.1/DTD/svg11.dtd">
<!-- Generated by graphviz version 2.36.0 (20140111.2315)
 -->
<!-- Title: Graphical Class Hierarchy Pages: 1 -->
<svg width="416pt" height="83pt"
 viewBox="0.00 0.00 416.00 83.00" xmlns="http://www.w3.org/2000/svg" xmlns:xlink="http://www.w3.org/1999/xlink">
<g id="graph0" class="graph" transform="scale(1 1) rotate(0) translate(4 79)">
<title>Graphical Class Hierarchy</title>
<!-- Node0 -->
<g id="node1" class="node"><title>Node0</title>
<g id="a_node1"><a xlink:href="da/d62/interfacecom_1_1github_1_1aptd_1_1simulation_1_1elements_1_1grid_1_1IGrid.htm" target="_top" xlink:title="main grid definition ">
<polygon fill="none" stroke="black" points="0,-23 0,-51 186,-51 186,-23 0,-23"/>
<text text-anchor="start" x="8" y="-39.8" font-family="Helvetica,sans-Serif" font-size="9.00">com.github.aptd.simulation.elements.grid.</text>
<text text-anchor="middle" x="93" y="-29.8" font-family="Helvetica,sans-Serif" font-size="9.00">IGrid</text>
</a>
</g>
</g>
<!-- Node1 -->
<g id="node2" class="node"><title>Node1</title>
<g id="a_node2"><a xlink:href="d9/de7/interfacecom_1_1github_1_1aptd_1_1simulation_1_1elements_1_1grid_1_1IGridPhysical.htm" target="_top" xlink:title="grid of physical object ">
<polygon fill="none" stroke="black" points="222,-47 222,-75 408,-75 408,-47 222,-47"/>
<text text-anchor="start" x="230" y="-63.8" font-family="Helvetica,sans-Serif" font-size="9.00">com.github.aptd.simulation.elements.grid.</text>
<text text-anchor="middle" x="315" y="-53.8" font-family="Helvetica,sans-Serif" font-size="9.00">IGridPhysical</text>
</a>
</g>
</g>
<!-- Node0&#45;&gt;Node1 -->
<g id="edge1" class="edge"><title>Node0&#45;&gt;Node1</title>
<path fill="none" stroke="midnightblue" d="M196.115,-48.1398C204.746,-49.0814 213.442,-50.0301 221.99,-50.9625"/>
<polygon fill="midnightblue" stroke="midnightblue" points="196.346,-44.6443 186.025,-47.0391 195.587,-51.603 196.346,-44.6443"/>
</g>
<!-- Node2 -->
<g id="node3" class="node"><title>Node2</title>
<g id="a_node3"><a xlink:href="d6/d8d/interfacecom_1_1github_1_1aptd_1_1simulation_1_1elements_1_1grid_1_1IGridVirtual.htm" target="_top" xlink:title="grid of virtual objects ">
<polygon fill="none" stroke="black" points="222,-0 222,-28 408,-28 408,-0 222,-0"/>
<text text-anchor="start" x="230" y="-16.8" font-family="Helvetica,sans-Serif" font-size="9.00">com.github.aptd.simulation.elements.grid.</text>
<text text-anchor="middle" x="315" y="-6.8" font-family="Helvetica,sans-Serif" font-size="9.00">IGridVirtual</text>
</a>
</g>
</g>
<!-- Node0&#45;&gt;Node2 -->
<g id="edge2" class="edge"><title>Node0&#45;&gt;Node2</title>
<path fill="none" stroke="midnightblue" d="M196.115,-26.3244C204.746,-25.422 213.442,-24.5128 221.99,-23.6192"/>
<polygon fill="midnightblue" stroke="midnightblue" points="195.607,-22.8583 186.025,-27.3792 196.335,-29.8203 195.607,-22.8583"/>
</g>
</g>
</svg>
