<?xml version="1.0" encoding="UTF-8" standalone="no"?>
<!DOCTYPE svg PUBLIC "-//W3C//DTD SVG 1.1//EN"
 "http://www.w3.org/Graphics/SVG/1.1/DTD/svg11.dtd">
<!-- Generated by graphviz version 2.36.0 (20140111.2315)
 -->
<!-- Title: Graphical Class Hierarchy Pages: 1 -->
<svg width="328pt" height="83pt"
 viewBox="0.00 0.00 328.00 83.00" xmlns="http://www.w3.org/2000/svg" xmlns:xlink="http://www.w3.org/1999/xlink">
<g id="graph0" class="graph" transform="scale(1 1) rotate(0) translate(4 79)">
<title>Graphical Class Hierarchy</title>
<!-- Node154 -->
<g id="node1" class="node"><title>Node154</title>
<polygon fill="none" stroke="#bfbfbf" points="0.5,-28 0.5,-46 65.5,-46 65.5,-28 0.5,-28"/>
<text text-anchor="middle" x="33" y="-34.8" font-family="Helvetica,sans-Serif" font-size="9.00">IBaseAction</text>
</g>
<!-- Node0 -->
<g id="node2" class="node"><title>Node0</title>
<g id="a_node2"><a xlink:href="d4/d07/classcom_1_1github_1_1aptd_1_1simulation_1_1core_1_1experiment_1_1local_1_1CExperiment_1_1CMessageSendAction.htm" target="_top" xlink:title="agent send action for agent communication ">
<polygon fill="none" stroke="black" points="102,-47 102,-75 320,-75 320,-47 102,-47"/>
<text text-anchor="start" x="110" y="-63.8" font-family="Helvetica,sans-Serif" font-size="9.00">com.github.aptd.simulation.core.experiment.local.</text>
<text text-anchor="middle" x="211" y="-53.8" font-family="Helvetica,sans-Serif" font-size="9.00">CExperiment.CMessageSendAction</text>
</a>
</g>
</g>
<!-- Node154&#45;&gt;Node0 -->
<g id="edge1" class="edge"><title>Node154&#45;&gt;Node0</title>
<path fill="none" stroke="midnightblue" d="M75.8948,-42.7129C85.5343,-44.0274 96.2023,-45.4821 107.187,-46.9801"/>
<polygon fill="midnightblue" stroke="midnightblue" points="76.2535,-39.2295 65.8723,-41.3462 75.3076,-46.1653 76.2535,-39.2295"/>
</g>
<!-- Node156 -->
<g id="node3" class="node"><title>Node156</title>
<g id="a_node3"><a xlink:href="db/dc2/classcom_1_1github_1_1aptd_1_1simulation_1_1core_1_1statistic_1_1local_1_1CStatistic_1_1CStatisticAction.htm" target="_top" xlink:title="agent action for statistic access ">
<polygon fill="none" stroke="black" points="109.5,-0 109.5,-28 312.5,-28 312.5,-0 109.5,-0"/>
<text text-anchor="start" x="117.5" y="-16.8" font-family="Helvetica,sans-Serif" font-size="9.00">com.github.aptd.simulation.core.statistic.local.</text>
<text text-anchor="middle" x="211" y="-6.8" font-family="Helvetica,sans-Serif" font-size="9.00">CStatistic.CStatisticAction</text>
</a>
</g>
</g>
<!-- Node154&#45;&gt;Node156 -->
<g id="edge2" class="edge"><title>Node154&#45;&gt;Node156</title>
<path fill="none" stroke="midnightblue" d="M76.0907,-31.4995C86.3305,-30.1613 97.7223,-28.6727 109.417,-27.1444"/>
<polygon fill="midnightblue" stroke="midnightblue" points="75.3344,-28.0685 65.8723,-32.8349 76.2415,-35.0095 75.3344,-28.0685"/>
</g>
</g>
</svg>
