<?xml version="1.0" encoding="UTF-8" standalone="no"?>
<!DOCTYPE svg PUBLIC "-//W3C//DTD SVG 1.1//EN"
 "http://www.w3.org/Graphics/SVG/1.1/DTD/svg11.dtd">
<!-- Generated by graphviz version 2.36.0 (20140111.2315)
 -->
<!-- Title: com.github.aptd.simulation.elements.dispatcher.CDispatcher Pages: 1 -->
<!--zoomable 906 -->
<svg id="main" version="1.1" xmlns="http://www.w3.org/2000/svg" xmlns:xlink="http://www.w3.org/1999/xlink" xml:space="preserve" onload="init(evt)">
<style type="text/css"><![CDATA[
.edge:hover path { stroke: red; }
.edge:hover polygon { stroke: red; fill: red; }
]]></style>
<script type="text/javascript"><![CDATA[
var edges = document.getElementsByTagName('g');
if (edges && edges.length) {
  for (var i=0;i<edges.length;i++) {
    if (edges[i].id.substr(0,4)=='edge') {
      edges[i].setAttribute('class','edge');
    }
  }
}
]]></script>
        <defs>
                <circle id="rim" cx="0" cy="0" r="7"/>
                <circle id="rim2" cx="0" cy="0" r="3.5"/>
                <g id="zoomPlus">
                        <use xlink:href="#rim" fill="#404040">
                                <set attributeName="fill" to="#808080" begin="zoomplus.mouseover" end="zoomplus.mouseout"/>
                        </use>
                        <path d="M-4,0h8M0,-4v8" fill="none" stroke="white" stroke-width="1.5" pointer-events="none"/>
                </g>
                <g id="zoomMin">
                        <use xlink:href="#rim" fill="#404040">
                                <set attributeName="fill" to="#808080" begin="zoomminus.mouseover" end="zoomminus.mouseout"/>
                        </use>
                        <path d="M-4,0h8" fill="none" stroke="white" stroke-width="1.5" pointer-events="none"/>
                </g>
                <g id="dirArrow">
                        <path fill="none" stroke="white" stroke-width="1.5" d="M0,-3.0v7 M-2.5,-0.5L0,-3.0L2.5,-0.5"/>
                </g>
               <g id="resetDef">
                       <use xlink:href="#rim2" fill="#404040">
                               <set attributeName="fill" to="#808080" begin="reset.mouseover" end="reset.mouseout"/>
                       </use>
               </g>
        </defs>

<script type="text/javascript">
var viewWidth = 406;
var viewHeight = 906;
var sectionId = 'dynsection-0';
</script>
<script xlink:href="../../svgpan.js"/>
<svg id="graph" class="graph">
<g id="viewport">
<title>com.github.aptd.simulation.elements.dispatcher.CDispatcher</title>
<!-- Node0 -->
<g id="node1" class="node"><title>Node0</title>
<polygon fill="#bfbfbf" stroke="black" points="34.5,-1 34.5,-85 247.5,-85 247.5,-1 34.5,-1"/>
<text text-anchor="start" x="42.5" y="-73.8" font-family="Helvetica,sans-Serif" font-size="9.00">com.github.aptd.simulation.elements.dispatcher.</text>
<text text-anchor="middle" x="141" y="-63.8" font-family="Helvetica,sans-Serif" font-size="9.00">CDispatcher</text>
<polyline fill="none" stroke="black" points="34.5,-57 247.5,-57 "/>
<text text-anchor="start" x="42.5" y="-45.8" font-family="Helvetica,sans-Serif" font-size="9.00">&#45; FUNCTOR</text>
<text text-anchor="start" x="42.5" y="-35.8" font-family="Helvetica,sans-Serif" font-size="9.00">&#45; serialVersionUID</text>
<polyline fill="none" stroke="black" points="34.5,-29 247.5,-29 "/>
<text text-anchor="start" x="42.5" y="-17.8" font-family="Helvetica,sans-Serif" font-size="9.00"># individualliteral()</text>
<text text-anchor="start" x="42.5" y="-7.8" font-family="Helvetica,sans-Serif" font-size="9.00">&#45; CDispatcher()</text>
</g>
<!-- Node1 -->
<g id="node2" class="node"><title>Node1</title>
<g id="a_node2"><a xlink:href="../../d6/df3/classcom_1_1github_1_1aptd_1_1simulation_1_1elements_1_1IBaseElement.htm" target="_top" xlink:title="base simulation element structure ">
<polygon fill="none" stroke="black" points="7.5,-125 7.5,-449 162.5,-449 162.5,-125 7.5,-125"/>
<text text-anchor="start" x="15.5" y="-437.8" font-family="Helvetica,sans-Serif" font-size="9.00">com::github::aptd::</text>
<text text-anchor="start" x="15.5" y="-427.8" font-family="Helvetica,sans-Serif" font-size="9.00">simulation::elements</text>
<text text-anchor="middle" x="85" y="-417.8" font-family="Helvetica,sans-Serif" font-size="9.00">::IBaseElement&lt; IDispatcher&lt;?&gt; &gt;</text>
<polyline fill="none" stroke="black" points="7.5,-411 162.5,-411 "/>
<text text-anchor="start" x="15.5" y="-399.8" font-family="Helvetica,sans-Serif" font-size="9.00"># m_id</text>
<text text-anchor="start" x="15.5" y="-389.8" font-family="Helvetica,sans-Serif" font-size="9.00"># m_input</text>
<text text-anchor="start" x="15.5" y="-379.8" font-family="Helvetica,sans-Serif" font-size="9.00"># m_nextactivation</text>
<text text-anchor="start" x="15.5" y="-369.8" font-family="Helvetica,sans-Serif" font-size="9.00"># m_time</text>
<text text-anchor="start" x="15.5" y="-359.8" font-family="Helvetica,sans-Serif" font-size="9.00">&#45; m_environment</text>
<text text-anchor="start" x="15.5" y="-349.8" font-family="Helvetica,sans-Serif" font-size="9.00">&#45; m_external</text>
<text text-anchor="start" x="15.5" y="-339.8" font-family="Helvetica,sans-Serif" font-size="9.00">&#45; m_functor</text>
<text text-anchor="start" x="15.5" y="-329.8" font-family="Helvetica,sans-Serif" font-size="9.00">&#45; m_timezone</text>
<text text-anchor="start" x="15.5" y="-319.8" font-family="Helvetica,sans-Serif" font-size="9.00">&#45; serialVersionUID</text>
<polyline fill="none" stroke="black" points="7.5,-313 162.5,-313 "/>
<text text-anchor="start" x="15.5" y="-301.8" font-family="Helvetica,sans-Serif" font-size="9.00">+ call()</text>
<text text-anchor="start" x="15.5" y="-291.8" font-family="Helvetica,sans-Serif" font-size="9.00">+ environment()</text>
<text text-anchor="start" x="15.5" y="-281.8" font-family="Helvetica,sans-Serif" font-size="9.00">+ equals()</text>
<text text-anchor="start" x="15.5" y="-271.8" font-family="Helvetica,sans-Serif" font-size="9.00">+ hashCode()</text>
<text text-anchor="start" x="15.5" y="-261.8" font-family="Helvetica,sans-Serif" font-size="9.00">+ id()</text>
<text text-anchor="start" x="15.5" y="-251.8" font-family="Helvetica,sans-Serif" font-size="9.00">+ imminent()</text>
<text text-anchor="start" x="15.5" y="-241.8" font-family="Helvetica,sans-Serif" font-size="9.00">+ input()</text>
<text text-anchor="start" x="15.5" y="-231.8" font-family="Helvetica,sans-Serif" font-size="9.00">+ literal()</text>
<text text-anchor="start" x="15.5" y="-221.8" font-family="Helvetica,sans-Serif" font-size="9.00">+ literal()</text>
<text text-anchor="start" x="15.5" y="-211.8" font-family="Helvetica,sans-Serif" font-size="9.00">+ nextactivation()</text>
<text text-anchor="start" x="15.5" y="-201.8" font-family="Helvetica,sans-Serif" font-size="9.00">+ output()</text>
<text text-anchor="start" x="15.5" y="-191.8" font-family="Helvetica,sans-Serif" font-size="9.00">+ toString()</text>
<text text-anchor="start" x="15.5" y="-181.8" font-family="Helvetica,sans-Serif" font-size="9.00"># IBaseElement()</text>
<text text-anchor="start" x="15.5" y="-171.8" font-family="Helvetica,sans-Serif" font-size="9.00"># individualliteral()</text>
<text text-anchor="start" x="15.5" y="-161.8" font-family="Helvetica,sans-Serif" font-size="9.00">&#45; currentTime()</text>
<text text-anchor="start" x="15.5" y="-151.8" font-family="Helvetica,sans-Serif" font-size="9.00">&#45; getNextActivation()</text>
<text text-anchor="start" x="15.5" y="-141.8" font-family="Helvetica,sans-Serif" font-size="9.00">&#45; maxTime()</text>
<text text-anchor="start" x="15.5" y="-131.8" font-family="Helvetica,sans-Serif" font-size="9.00">&#45; setNextActivation()</text>
</a>
</g>
</g>
<!-- Node1&#45;&gt;Node0 -->
<g id="edge1" class="edge"><title>Node1&#45;&gt;Node0</title>
<path fill="none" stroke="midnightblue" d="M124.589,-114.918C127.067,-104.21 129.398,-94.1364 131.482,-85.1302"/>
<polygon fill="none" stroke="midnightblue" points="121.12,-114.387 122.275,-124.919 127.939,-115.965 121.12,-114.387"/>
</g>
<!-- Node2 -->
<g id="node3" class="node"><title>Node2</title>
<g id="a_node3"><a xlink:href="../../dd/dd7/interfacecom_1_1github_1_1aptd_1_1simulation_1_1elements_1_1IElement.htm" target="_top" xlink:title="{com.github.aptd.simulation.elements.\lIElement\&lt; N \&gt;\n||+ environment()\l+ id()\l+ imminent()\l+ input()\l+ nextactivation()\l+ output()\l}">
<polygon fill="none" stroke="black" points="0,-497 0,-611 168,-611 168,-497 0,-497"/>
<text text-anchor="start" x="8" y="-599.8" font-family="Helvetica,sans-Serif" font-size="9.00">com.github.aptd.simulation.elements.</text>
<text text-anchor="middle" x="84" y="-589.8" font-family="Helvetica,sans-Serif" font-size="9.00">IElement&lt; N &gt;</text>
<polyline fill="none" stroke="black" points="0,-583 168,-583 "/>
<text text-anchor="middle" x="84" y="-571.8" font-family="Helvetica,sans-Serif" font-size="9.00"> </text>
<polyline fill="none" stroke="black" points="0,-565 168,-565 "/>
<text text-anchor="start" x="8" y="-553.8" font-family="Helvetica,sans-Serif" font-size="9.00">+ environment()</text>
<text text-anchor="start" x="8" y="-543.8" font-family="Helvetica,sans-Serif" font-size="9.00">+ id()</text>
<text text-anchor="start" x="8" y="-533.8" font-family="Helvetica,sans-Serif" font-size="9.00">+ imminent()</text>
<text text-anchor="start" x="8" y="-523.8" font-family="Helvetica,sans-Serif" font-size="9.00">+ input()</text>
<text text-anchor="start" x="8" y="-513.8" font-family="Helvetica,sans-Serif" font-size="9.00">+ nextactivation()</text>
<text text-anchor="start" x="8" y="-503.8" font-family="Helvetica,sans-Serif" font-size="9.00">+ output()</text>
</a>
</g>
</g>
<!-- Node2&#45;&gt;Node1 -->
<g id="edge2" class="edge"><title>Node2&#45;&gt;Node1</title>
<path fill="none" stroke="midnightblue" d="M84.2501,-486.722C84.2945,-474.963 84.3424,-462.267 84.3918,-449.18"/>
<polygon fill="none" stroke="midnightblue" points="80.7499,-486.787 84.2121,-496.8 87.7499,-486.814 80.7499,-486.787"/>
</g>
<!-- Node3 -->
<g id="node4" class="node"><title>Node3</title>
<g id="a_node4"><a xlink:href="../../dd/dd7/interfacecom_1_1github_1_1aptd_1_1simulation_1_1elements_1_1IElement.htm" target="_top" xlink:title="any object interface ">
<polygon fill="none" stroke="black" points="34,-664 34,-778 202,-778 202,-664 34,-664"/>
<text text-anchor="start" x="42" y="-766.8" font-family="Helvetica,sans-Serif" font-size="9.00">com.github.aptd.simulation.elements.</text>
<text text-anchor="middle" x="118" y="-756.8" font-family="Helvetica,sans-Serif" font-size="9.00">IElement&lt; T extends IAgent&lt;?&gt;</text>
<polyline fill="none" stroke="black" points="34,-750 202,-750 "/>
<text text-anchor="middle" x="118" y="-738.8" font-family="Helvetica,sans-Serif" font-size="9.00"> </text>
<polyline fill="none" stroke="black" points="34,-732 202,-732 "/>
<text text-anchor="start" x="42" y="-720.8" font-family="Helvetica,sans-Serif" font-size="9.00">+ environment()</text>
<text text-anchor="start" x="42" y="-710.8" font-family="Helvetica,sans-Serif" font-size="9.00">+ id()</text>
<text text-anchor="start" x="42" y="-700.8" font-family="Helvetica,sans-Serif" font-size="9.00">+ imminent()</text>
<text text-anchor="start" x="42" y="-690.8" font-family="Helvetica,sans-Serif" font-size="9.00">+ input()</text>
<text text-anchor="start" x="42" y="-680.8" font-family="Helvetica,sans-Serif" font-size="9.00">+ nextactivation()</text>
<text text-anchor="start" x="42" y="-670.8" font-family="Helvetica,sans-Serif" font-size="9.00">+ output()</text>
</a>
</g>
</g>
<!-- Node3&#45;&gt;Node2 -->
<g id="edge3" class="edge"><title>Node3&#45;&gt;Node2</title>
<path fill="none" stroke="orange" d="M104.309,-653.558C101.405,-639.468 98.3681,-624.728 95.5535,-611.068"/>
<polygon fill="orange" stroke="orange" points="100.948,-654.59 106.394,-663.678 107.804,-653.177 100.948,-654.59"/>
<text text-anchor="middle" x="113.5" y="-632.8" font-family="Helvetica,sans-Serif" font-size="9.00"> &lt; N &gt;</text>
</g>
<!-- Node4 -->
<g id="node5" class="node"><title>Node4</title>
<g id="a_node5"><a xlink:href="../../d4/d0d/interfacecom_1_1github_1_1aptd_1_1simulation_1_1elements_1_1IPerceiveable.htm" target="_top" xlink:title="any object which be perceived by an agent ">
<polygon fill="none" stroke="black" points="128,-823 128,-897 296,-897 296,-823 128,-823"/>
<text text-anchor="start" x="136" y="-885.8" font-family="Helvetica,sans-Serif" font-size="9.00">com.github.aptd.simulation.elements.</text>
<text text-anchor="middle" x="212" y="-875.8" font-family="Helvetica,sans-Serif" font-size="9.00">IPerceiveable</text>
<polyline fill="none" stroke="black" points="128,-869 296,-869 "/>
<text text-anchor="middle" x="212" y="-857.8" font-family="Helvetica,sans-Serif" font-size="9.00"> </text>
<polyline fill="none" stroke="black" points="128,-851 296,-851 "/>
<text text-anchor="start" x="136" y="-839.8" font-family="Helvetica,sans-Serif" font-size="9.00">+ literal()</text>
<text text-anchor="start" x="136" y="-829.8" font-family="Helvetica,sans-Serif" font-size="9.00">+ literal()</text>
</a>
</g>
</g>
<!-- Node4&#45;&gt;Node3 -->
<g id="edge4" class="edge"><title>Node4&#45;&gt;Node3</title>
<path fill="none" stroke="midnightblue" d="M181.186,-814.091C173.311,-802.613 164.746,-790.129 156.536,-778.165"/>
<polygon fill="none" stroke="midnightblue" points="178.513,-816.381 187.057,-822.646 184.285,-812.42 178.513,-816.381"/>
</g>
<!-- Node7 -->
<g id="node8" class="node"><title>Node7</title>
<g id="a_node8"><a xlink:href="../../dd/dd7/interfacecom_1_1github_1_1aptd_1_1simulation_1_1elements_1_1IElement.htm" target="_top" xlink:title="any object interface ">
<polygon fill="none" stroke="black" points="223.5,-659 223.5,-783 324.5,-783 324.5,-659 223.5,-659"/>
<text text-anchor="start" x="231.5" y="-771.8" font-family="Helvetica,sans-Serif" font-size="9.00">com::github::aptd::</text>
<text text-anchor="start" x="231.5" y="-761.8" font-family="Helvetica,sans-Serif" font-size="9.00">simulation::elements</text>
<text text-anchor="middle" x="274" y="-751.8" font-family="Helvetica,sans-Serif" font-size="9.00">::IElement&lt; T &gt;</text>
<polyline fill="none" stroke="black" points="223.5,-745 324.5,-745 "/>
<text text-anchor="middle" x="274" y="-733.8" font-family="Helvetica,sans-Serif" font-size="9.00"> </text>
<polyline fill="none" stroke="black" points="223.5,-727 324.5,-727 "/>
<text text-anchor="start" x="231.5" y="-715.8" font-family="Helvetica,sans-Serif" font-size="9.00">+ environment()</text>
<text text-anchor="start" x="231.5" y="-705.8" font-family="Helvetica,sans-Serif" font-size="9.00">+ id()</text>
<text text-anchor="start" x="231.5" y="-695.8" font-family="Helvetica,sans-Serif" font-size="9.00">+ imminent()</text>
<text text-anchor="start" x="231.5" y="-685.8" font-family="Helvetica,sans-Serif" font-size="9.00">+ input()</text>
<text text-anchor="start" x="231.5" y="-675.8" font-family="Helvetica,sans-Serif" font-size="9.00">+ nextactivation()</text>
<text text-anchor="start" x="231.5" y="-665.8" font-family="Helvetica,sans-Serif" font-size="9.00">+ output()</text>
</a>
</g>
</g>
<!-- Node4&#45;&gt;Node7 -->
<g id="edge8" class="edge"><title>Node4&#45;&gt;Node7</title>
<path fill="none" stroke="midnightblue" d="M232.701,-813.257C237.068,-803.608 241.742,-793.279 246.319,-783.166"/>
<polygon fill="none" stroke="midnightblue" points="229.386,-812.093 228.452,-822.646 235.764,-814.979 229.386,-812.093"/>
</g>
<!-- Node5 -->
<g id="node6" class="node"><title>Node5</title>
<g id="a_node6"><a xlink:href="../../d7/df1/interfacecom_1_1github_1_1aptd_1_1simulation_1_1elements_1_1dispatcher_1_1IDispatcher.htm" target="_top" xlink:title="{com.github.aptd.simulation.elements.dispatcher.\lIDispatcher\&lt; IDispatcher\&lt;?\&gt; \&gt;\n||}">
<polygon fill="none" stroke="black" points="183.5,-255 183.5,-319 396.5,-319 396.5,-255 183.5,-255"/>
<text text-anchor="start" x="191.5" y="-307.8" font-family="Helvetica,sans-Serif" font-size="9.00">com.github.aptd.simulation.elements.dispatcher.</text>
<text text-anchor="middle" x="290" y="-297.8" font-family="Helvetica,sans-Serif" font-size="9.00">IDispatcher&lt; IDispatcher&lt;?&gt; &gt;</text>
<polyline fill="none" stroke="black" points="183.5,-291 396.5,-291 "/>
<text text-anchor="middle" x="290" y="-279.8" font-family="Helvetica,sans-Serif" font-size="9.00"> </text>
<polyline fill="none" stroke="black" points="183.5,-273 396.5,-273 "/>
<text text-anchor="middle" x="290" y="-261.8" font-family="Helvetica,sans-Serif" font-size="9.00"> </text>
</a>
</g>
</g>
<!-- Node5&#45;&gt;Node0 -->
<g id="edge5" class="edge"><title>Node5&#45;&gt;Node0</title>
<path fill="none" stroke="midnightblue" d="M265.415,-246.07C238.036,-201.601 193.999,-130.079 166.324,-85.1302"/>
<polygon fill="none" stroke="midnightblue" points="262.603,-248.178 270.826,-254.858 268.563,-244.508 262.603,-248.178"/>
</g>
<!-- Node6 -->
<g id="node7" class="node"><title>Node6</title>
<g id="a_node7"><a xlink:href="../../d7/df1/interfacecom_1_1github_1_1aptd_1_1simulation_1_1elements_1_1dispatcher_1_1IDispatcher.htm" target="_top" xlink:title="dispatcher interface ">
<polygon fill="none" stroke="black" points="185.5,-522 185.5,-586 398.5,-586 398.5,-522 185.5,-522"/>
<text text-anchor="start" x="193.5" y="-574.8" font-family="Helvetica,sans-Serif" font-size="9.00">com.github.aptd.simulation.elements.dispatcher.</text>
<text text-anchor="middle" x="292" y="-564.8" font-family="Helvetica,sans-Serif" font-size="9.00">IDispatcher&lt; T extends IDispatcher&lt;?&gt;</text>
<polyline fill="none" stroke="black" points="185.5,-558 398.5,-558 "/>
<text text-anchor="middle" x="292" y="-546.8" font-family="Helvetica,sans-Serif" font-size="9.00"> </text>
<polyline fill="none" stroke="black" points="185.5,-540 398.5,-540 "/>
<text text-anchor="middle" x="292" y="-528.8" font-family="Helvetica,sans-Serif" font-size="9.00"> </text>
</a>
</g>
</g>
<!-- Node6&#45;&gt;Node5 -->
<g id="edge6" class="edge"><title>Node6&#45;&gt;Node5</title>
<path fill="none" stroke="orange" d="M291.688,-511.695C291.286,-458.387 290.595,-366.83 290.234,-319.059"/>
<polygon fill="orange" stroke="orange" points="288.189,-511.849 291.765,-521.822 295.189,-511.796 288.189,-511.849"/>
<text text-anchor="middle" x="331" y="-470.8" font-family="Helvetica,sans-Serif" font-size="9.00"> &lt; IDispatcher&lt;?&gt; &gt;</text>
</g>
<!-- Node7&#45;&gt;Node6 -->
<g id="edge7" class="edge"><title>Node7&#45;&gt;Node6</title>
<path fill="none" stroke="midnightblue" d="M281.815,-648.363C284.179,-626.689 286.655,-603.997 288.573,-586.411"/>
<polygon fill="none" stroke="midnightblue" points="278.308,-648.239 280.703,-658.56 285.266,-648.999 278.308,-648.239"/>
</g>
</g>
</svg>
        <g id="navigator" transform="translate(0 0)" fill="#404254">
                <rect fill="#f2f5e9" fill-opacity="0.5" stroke="#606060" stroke-width=".5" x="0" y="0" width="60" height="60"/>
                <use id="zoomplus" xlink:href="#zoomPlus" x="17" y="9" onmousedown="handleZoom(evt,'in')"/>
                <use id="zoomminus" xlink:href="#zoomMin" x="42" y="9" onmousedown="handleZoom(evt,'out')"/>
                <use id="reset" xlink:href="#resetDef" x="30" y="36" onmousedown="handleReset()"/>
                <g id="arrowUp" xlink:href="#dirArrow" transform="translate(30 24)" onmousedown="handlePan(0,-1)">
                  <use xlink:href="#rim" fill="#404040">
                        <set attributeName="fill" to="#808080" begin="arrowUp.mouseover" end="arrowUp.mouseout"/>
                  </use>
                  <path fill="none" stroke="white" stroke-width="1.5" d="M0,-3.0v7 M-2.5,-0.5L0,-3.0L2.5,-0.5"/>
                </g>
                <g id="arrowRight" xlink:href="#dirArrow" transform="rotate(90) translate(36 -43)" onmousedown="handlePan(1,0)">
                  <use xlink:href="#rim" fill="#404040">
                        <set attributeName="fill" to="#808080" begin="arrowRight.mouseover" end="arrowRight.mouseout"/>
                  </use>
                  <path fill="none" stroke="white" stroke-width="1.5" d="M0,-3.0v7 M-2.5,-0.5L0,-3.0L2.5,-0.5"/>
                </g>
                <g id="arrowDown" xlink:href="#dirArrow" transform="rotate(180) translate(-30 -48)" onmousedown="handlePan(0,1)">
                  <use xlink:href="#rim" fill="#404040">
                        <set attributeName="fill" to="#808080" begin="arrowDown.mouseover" end="arrowDown.mouseout"/>
                  </use>
                  <path fill="none" stroke="white" stroke-width="1.5" d="M0,-3.0v7 M-2.5,-0.5L0,-3.0L2.5,-0.5"/>
                </g>
                <g id="arrowLeft" xlink:href="#dirArrow" transform="rotate(270) translate(-36 17)" onmousedown="handlePan(-1,0)">
                  <use xlink:href="#rim" fill="#404040">
                        <set attributeName="fill" to="#808080" begin="arrowLeft.mouseover" end="arrowLeft.mouseout"/>
                  </use>
                  <path fill="none" stroke="white" stroke-width="1.5" d="M0,-3.0v7 M-2.5,-0.5L0,-3.0L2.5,-0.5"/>
                </g>
        </g>
        <svg viewBox="0 0 15 15" width="100%" height="30px" preserveAspectRatio="xMaxYMin meet">
         <g id="arrow_out" transform="scale(0.3 0.3)">
          <a xlink:href="classcom_1_1github_1_1aptd_1_1simulation_1_1elements_1_1dispatcher_1_1CDispatcher__inherit__graph_org.svg" target="_base">
           <rect id="button" ry="5" rx="5" y="6" x="6" height="38" width="38"
                fill="#f2f5e9" fill-opacity="0.5" stroke="#606060" stroke-width="1.0"/>
           <path id="arrow"
             d="M 11.500037,31.436501 C 11.940474,20.09759 22.043105,11.32322 32.158766,21.979434 L 37.068811,17.246167 C 37.068811,17.246167 37.088388,32 37.088388,32 L 22.160133,31.978069 C 22.160133,31.978069 26.997745,27.140456 26.997745,27.140456 C 18.528582,18.264221 13.291696,25.230495 11.500037,31.436501 z"
             style="fill:#404040;"/>
          </a>
         </g>
        </svg>
</svg>
