<?xml version="1.0" encoding="UTF-8" standalone="no"?>
<!DOCTYPE svg PUBLIC "-//W3C//DTD SVG 1.1//EN"
 "http://www.w3.org/Graphics/SVG/1.1/DTD/svg11.dtd">
<!-- Generated by graphviz version 2.36.0 (20140111.2315)
 -->
<!-- Title: com.github.aptd.simulation.core.writer.local.CYaml Pages: 1 -->
<svg width="202pt" height="236pt"
 viewBox="0.00 0.00 202.00 236.00" xmlns="http://www.w3.org/2000/svg" xmlns:xlink="http://www.w3.org/1999/xlink">
<g id="graph0" class="graph" transform="scale(1 1) rotate(0) translate(4 232)">
<title>com.github.aptd.simulation.core.writer.local.CYaml</title>
<!-- Node2 -->
<g id="node1" class="node"><title>Node2</title>
<polygon fill="#bfbfbf" stroke="black" points="-0.5,-1 -0.5,-105 194.5,-105 194.5,-1 -0.5,-1"/>
<text text-anchor="start" x="7.5" y="-93.8" font-family="Helvetica,sans-Serif" font-size="9.00">com.github.aptd.simulation.core.writer.local.</text>
<text text-anchor="middle" x="97" y="-83.8" font-family="Helvetica,sans-Serif" font-size="9.00">CYaml</text>
<polyline fill="none" stroke="black" points="-0.5,-77 194.5,-77 "/>
<text text-anchor="start" x="7.5" y="-65.8" font-family="Helvetica,sans-Serif" font-size="9.00">&#45; m_data</text>
<text text-anchor="start" x="7.5" y="-55.8" font-family="Helvetica,sans-Serif" font-size="9.00">&#45; m_output</text>
<polyline fill="none" stroke="black" points="-0.5,-49 194.5,-49 "/>
<text text-anchor="start" x="7.5" y="-37.8" font-family="Helvetica,sans-Serif" font-size="9.00">+ CYaml()</text>
<text text-anchor="start" x="7.5" y="-27.8" font-family="Helvetica,sans-Serif" font-size="9.00">+ apply()</text>
<text text-anchor="start" x="7.5" y="-17.8" font-family="Helvetica,sans-Serif" font-size="9.00">+ section()</text>
<text text-anchor="start" x="7.5" y="-7.8" font-family="Helvetica,sans-Serif" font-size="9.00">~ value()</text>
</g>
<!-- Node3 -->
<g id="node2" class="node"><title>Node3</title>
<g id="a_node2"><a xlink:href="../../de/df0/interfacecom_1_1github_1_1aptd_1_1simulation_1_1core_1_1writer_1_1IWriter.htm" target="_top" xlink:title="writer interface to export statistic ">
<polygon fill="none" stroke="black" points="10.5,-143 10.5,-227 183.5,-227 183.5,-143 10.5,-143"/>
<text text-anchor="start" x="18.5" y="-215.8" font-family="Helvetica,sans-Serif" font-size="9.00">com.github.aptd.simulation.core.writer.</text>
<text text-anchor="middle" x="97" y="-205.8" font-family="Helvetica,sans-Serif" font-size="9.00">IWriter</text>
<polyline fill="none" stroke="black" points="10.5,-199 183.5,-199 "/>
<text text-anchor="middle" x="97" y="-187.8" font-family="Helvetica,sans-Serif" font-size="9.00"> </text>
<polyline fill="none" stroke="black" points="10.5,-181 183.5,-181 "/>
<text text-anchor="start" x="18.5" y="-169.8" font-family="Helvetica,sans-Serif" font-size="9.00">+ apply()</text>
<text text-anchor="start" x="18.5" y="-159.8" font-family="Helvetica,sans-Serif" font-size="9.00">+ section()</text>
<text text-anchor="start" x="18.5" y="-149.8" font-family="Helvetica,sans-Serif" font-size="9.00">+ value()</text>
</a>
</g>
</g>
<!-- Node3&#45;&gt;Node2 -->
<g id="edge1" class="edge"><title>Node3&#45;&gt;Node2</title>
<path fill="none" stroke="midnightblue" d="M97,-132.865C97,-123.831 97,-114.421 97,-105.379"/>
<polygon fill="none" stroke="midnightblue" points="93.5001,-132.867 97,-142.867 100.5,-132.867 93.5001,-132.867"/>
</g>
</g>
</svg>
