<?xml version="1.0" encoding="UTF-8" standalone="no"?>
<!DOCTYPE svg PUBLIC "-//W3C//DTD SVG 1.1//EN"
 "http://www.w3.org/Graphics/SVG/1.1/DTD/svg11.dtd">
<!-- Generated by graphviz version 2.36.0 (20140111.2315)
 -->
<!-- Title: com.github.aptd.simulation.elements.graph.network.IPlatform&lt; T extends IPlatform&lt;?&gt; Pages: 1 -->
<svg width="236pt" height="348pt"
 viewBox="0.00 0.00 236.00 348.00" xmlns="http://www.w3.org/2000/svg" xmlns:xlink="http://www.w3.org/1999/xlink">
<g id="graph0" class="graph" transform="scale(1 1) rotate(0) translate(4 344)">
<title>com.github.aptd.simulation.elements.graph.network.IPlatform&lt; T extends IPlatform&lt;?&gt;</title>
<!-- Node5 -->
<g id="node1" class="node"><title>Node5</title>
<polygon fill="#bfbfbf" stroke="black" points="-0.5,-1 -0.5,-65 228.5,-65 228.5,-1 -0.5,-1"/>
<text text-anchor="start" x="7.5" y="-53.8" font-family="Helvetica,sans-Serif" font-size="9.00">com.github.aptd.simulation.elements.graph.network.</text>
<text text-anchor="middle" x="114" y="-43.8" font-family="Helvetica,sans-Serif" font-size="9.00">IPlatform&lt; T extends IPlatform&lt;?&gt;</text>
<polyline fill="none" stroke="black" points="-0.5,-37 228.5,-37 "/>
<text text-anchor="middle" x="114" y="-25.8" font-family="Helvetica,sans-Serif" font-size="9.00"> </text>
<polyline fill="none" stroke="black" points="-0.5,-19 228.5,-19 "/>
<text text-anchor="start" x="7.5" y="-7.8" font-family="Helvetica,sans-Serif" font-size="9.00">+ stationid()</text>
</g>
<!-- Node6 -->
<g id="node2" class="node"><title>Node6</title>
<g id="a_node2"><a xlink:href="../../dd/dd7/interfacecom_1_1github_1_1aptd_1_1simulation_1_1elements_1_1IElement.htm" target="_top" xlink:title="any object interface ">
<polygon fill="none" stroke="black" points="63.5,-103 63.5,-227 164.5,-227 164.5,-103 63.5,-103"/>
<text text-anchor="start" x="71.5" y="-215.8" font-family="Helvetica,sans-Serif" font-size="9.00">com::github::aptd::</text>
<text text-anchor="start" x="71.5" y="-205.8" font-family="Helvetica,sans-Serif" font-size="9.00">simulation::elements</text>
<text text-anchor="middle" x="114" y="-195.8" font-family="Helvetica,sans-Serif" font-size="9.00">::IElement&lt; T &gt;</text>
<polyline fill="none" stroke="black" points="63.5,-189 164.5,-189 "/>
<text text-anchor="middle" x="114" y="-177.8" font-family="Helvetica,sans-Serif" font-size="9.00"> </text>
<polyline fill="none" stroke="black" points="63.5,-171 164.5,-171 "/>
<text text-anchor="start" x="71.5" y="-159.8" font-family="Helvetica,sans-Serif" font-size="9.00">+ environment()</text>
<text text-anchor="start" x="71.5" y="-149.8" font-family="Helvetica,sans-Serif" font-size="9.00">+ id()</text>
<text text-anchor="start" x="71.5" y="-139.8" font-family="Helvetica,sans-Serif" font-size="9.00">+ imminent()</text>
<text text-anchor="start" x="71.5" y="-129.8" font-family="Helvetica,sans-Serif" font-size="9.00">+ input()</text>
<text text-anchor="start" x="71.5" y="-119.8" font-family="Helvetica,sans-Serif" font-size="9.00">+ nextactivation()</text>
<text text-anchor="start" x="71.5" y="-109.8" font-family="Helvetica,sans-Serif" font-size="9.00">+ output()</text>
</a>
</g>
</g>
<!-- Node6&#45;&gt;Node5 -->
<g id="edge1" class="edge"><title>Node6&#45;&gt;Node5</title>
<path fill="none" stroke="midnightblue" d="M114,-92.7168C114,-83.0647 114,-73.5991 114,-65.1822"/>
<polygon fill="none" stroke="midnightblue" points="110.5,-92.8066 114,-102.807 117.5,-92.8067 110.5,-92.8066"/>
</g>
<!-- Node7 -->
<g id="node3" class="node"><title>Node7</title>
<g id="a_node3"><a xlink:href="../../d4/d0d/interfacecom_1_1github_1_1aptd_1_1simulation_1_1elements_1_1IPerceiveable.htm" target="_top" xlink:title="any object which be perceived by an agent ">
<polygon fill="none" stroke="black" points="30,-265 30,-339 198,-339 198,-265 30,-265"/>
<text text-anchor="start" x="38" y="-327.8" font-family="Helvetica,sans-Serif" font-size="9.00">com.github.aptd.simulation.elements.</text>
<text text-anchor="middle" x="114" y="-317.8" font-family="Helvetica,sans-Serif" font-size="9.00">IPerceiveable</text>
<polyline fill="none" stroke="black" points="30,-311 198,-311 "/>
<text text-anchor="middle" x="114" y="-299.8" font-family="Helvetica,sans-Serif" font-size="9.00"> </text>
<polyline fill="none" stroke="black" points="30,-293 198,-293 "/>
<text text-anchor="start" x="38" y="-281.8" font-family="Helvetica,sans-Serif" font-size="9.00">+ literal()</text>
<text text-anchor="start" x="38" y="-271.8" font-family="Helvetica,sans-Serif" font-size="9.00">+ literal()</text>
</a>
</g>
</g>
<!-- Node7&#45;&gt;Node6 -->
<g id="edge2" class="edge"><title>Node7&#45;&gt;Node6</title>
<path fill="none" stroke="midnightblue" d="M114,-254.667C114,-245.767 114,-236.32 114,-227.037"/>
<polygon fill="none" stroke="midnightblue" points="110.5,-254.822 114,-264.822 117.5,-254.823 110.5,-254.822"/>
</g>
</g>
</svg>
