<?xml version="1.0" encoding="UTF-8" standalone="no"?>
<!DOCTYPE svg PUBLIC "-//W3C//DTD SVG 1.1//EN"
 "http://www.w3.org/Graphics/SVG/1.1/DTD/svg11.dtd">
<!-- Generated by graphviz version 2.36.0 (20140111.2315)
 -->
<!-- Title: com.github.aptd.simulation.elements.graph.eventactivitynetwork.local.CNode Pages: 1 -->
<svg width="308pt" height="318pt"
 viewBox="0.00 0.00 308.00 318.00" xmlns="http://www.w3.org/2000/svg" xmlns:xlink="http://www.w3.org/1999/xlink">
<g id="graph0" class="graph" transform="scale(1 1) rotate(0) translate(4 314)">
<title>com.github.aptd.simulation.elements.graph.eventactivitynetwork.local.CNode</title>
<!-- Node0 -->
<g id="node1" class="node"><title>Node0</title>
<polygon fill="#bfbfbf" stroke="black" points="-0.5,-1 -0.5,-95 300.5,-95 300.5,-1 -0.5,-1"/>
<text text-anchor="start" x="7.5" y="-83.8" font-family="Helvetica,sans-Serif" font-size="9.00">com.github.aptd.simulation.elements.graph.eventactivitynetwork.local.</text>
<text text-anchor="middle" x="150" y="-73.8" font-family="Helvetica,sans-Serif" font-size="9.00">CNode</text>
<polyline fill="none" stroke="black" points="-0.5,-67 300.5,-67 "/>
<text text-anchor="start" x="7.5" y="-55.8" font-family="Helvetica,sans-Serif" font-size="9.00">&#45; m_station</text>
<polyline fill="none" stroke="black" points="-0.5,-49 300.5,-49 "/>
<text text-anchor="start" x="7.5" y="-37.8" font-family="Helvetica,sans-Serif" font-size="9.00">+ CNode()</text>
<text text-anchor="start" x="7.5" y="-27.8" font-family="Helvetica,sans-Serif" font-size="9.00">+ equals()</text>
<text text-anchor="start" x="7.5" y="-17.8" font-family="Helvetica,sans-Serif" font-size="9.00">+ hashCode()</text>
<text text-anchor="start" x="7.5" y="-7.8" font-family="Helvetica,sans-Serif" font-size="9.00">+ station()</text>
</g>
<!-- Node1 -->
<g id="node2" class="node"><title>Node1</title>
<g id="a_node2"><a xlink:href="../../d3/db3/interfacecom_1_1github_1_1aptd_1_1simulation_1_1elements_1_1graph_1_1eventactivitynetwork_1_1INode.htm" target="_top" xlink:title="interface of a node ">
<polygon fill="none" stroke="black" points="10.5,-133 10.5,-197 289.5,-197 289.5,-133 10.5,-133"/>
<text text-anchor="start" x="18.5" y="-185.8" font-family="Helvetica,sans-Serif" font-size="9.00">com.github.aptd.simulation.elements.graph.eventactivitynetwork.</text>
<text text-anchor="middle" x="150" y="-175.8" font-family="Helvetica,sans-Serif" font-size="9.00">INode</text>
<polyline fill="none" stroke="black" points="10.5,-169 289.5,-169 "/>
<text text-anchor="middle" x="150" y="-157.8" font-family="Helvetica,sans-Serif" font-size="9.00"> </text>
<polyline fill="none" stroke="black" points="10.5,-151 289.5,-151 "/>
<text text-anchor="start" x="18.5" y="-139.8" font-family="Helvetica,sans-Serif" font-size="9.00">+ station()</text>
</a>
</g>
</g>
<!-- Node1&#45;&gt;Node0 -->
<g id="edge1" class="edge"><title>Node1&#45;&gt;Node0</title>
<path fill="none" stroke="midnightblue" d="M150,-122.739C150,-113.83 150,-104.355 150,-95.2687"/>
<polygon fill="none" stroke="midnightblue" points="146.5,-122.879 150,-132.879 153.5,-122.879 146.5,-122.879"/>
</g>
<!-- Node2 -->
<g id="node3" class="node"><title>Node2</title>
<g id="a_node3"><a xlink:href="../../de/d20/interfacecom_1_1github_1_1aptd_1_1simulation_1_1elements_1_1graph_1_1IVertex.htm" target="_top" xlink:title="interface of graph nodes ">
<polygon fill="none" stroke="black" points="91,-235 91,-309 209,-309 209,-235 91,-235"/>
<text text-anchor="start" x="99" y="-297.8" font-family="Helvetica,sans-Serif" font-size="9.00">com::github::aptd::</text>
<text text-anchor="start" x="99" y="-287.8" font-family="Helvetica,sans-Serif" font-size="9.00">simulation::elements</text>
<text text-anchor="middle" x="150" y="-277.8" font-family="Helvetica,sans-Serif" font-size="9.00">::graph::IVertex&lt; INode &gt;</text>
<polyline fill="none" stroke="black" points="91,-271 209,-271 "/>
<text text-anchor="middle" x="150" y="-259.8" font-family="Helvetica,sans-Serif" font-size="9.00"> </text>
<polyline fill="none" stroke="black" points="91,-253 209,-253 "/>
<text text-anchor="middle" x="150" y="-241.8" font-family="Helvetica,sans-Serif" font-size="9.00"> </text>
</a>
</g>
</g>
<!-- Node2&#45;&gt;Node1 -->
<g id="edge2" class="edge"><title>Node2&#45;&gt;Node1</title>
<path fill="none" stroke="midnightblue" d="M150,-224.608C150,-215.372 150,-205.88 150,-197.297"/>
<polygon fill="none" stroke="midnightblue" points="146.5,-224.865 150,-234.865 153.5,-224.865 146.5,-224.865"/>
</g>
</g>
</svg>
