<?xml version="1.0" encoding="UTF-8" standalone="no"?>
<!DOCTYPE svg PUBLIC "-//W3C//DTD SVG 1.1//EN"
 "http://www.w3.org/Graphics/SVG/1.1/DTD/svg11.dtd">
<!-- Generated by graphviz version 2.36.0 (20140111.2315)
 -->
<!-- Title: com.github.aptd.simulation.elements.train.CWagon.CGenerator.generate Pages: 1 -->
<svg width="420pt" height="83pt"
 viewBox="0.00 0.00 420.00 83.00" xmlns="http://www.w3.org/2000/svg" xmlns:xlink="http://www.w3.org/1999/xlink">
<g id="graph0" class="graph" transform="scale(1 1) rotate(0) translate(4 79)">
<title>com.github.aptd.simulation.elements.train.CWagon.CGenerator.generate</title>
<!-- Node2 -->
<g id="node1" class="node"><title>Node2</title>
<polygon fill="#bfbfbf" stroke="black" points="0,-23 0,-51 188,-51 188,-23 0,-23"/>
<text text-anchor="start" x="8" y="-39.8" font-family="Helvetica,sans-Serif" font-size="9.00">com.github.aptd.simulation.elements.train.</text>
<text text-anchor="middle" x="94" y="-29.8" font-family="Helvetica,sans-Serif" font-size="9.00">CWagon.CGenerator.generate</text>
</g>
<!-- Node3 -->
<g id="node2" class="node"><title>Node3</title>
<g id="a_node2"><a xlink:href="../../d1/d69/classcom_1_1github_1_1aptd_1_1simulation_1_1elements_1_1train_1_1CWagon.htm#a1d3a96f2f35af0ad9eb14c0b471a448c" target="_top" xlink:title="ctor ">
<polygon fill="none" stroke="black" points="224,-47 224,-75 412,-75 412,-47 224,-47"/>
<text text-anchor="start" x="232" y="-63.8" font-family="Helvetica,sans-Serif" font-size="9.00">com.github.aptd.simulation.elements.train.</text>
<text text-anchor="middle" x="318" y="-53.8" font-family="Helvetica,sans-Serif" font-size="9.00">CWagon.CWagon</text>
</a>
</g>
</g>
<!-- Node2&#45;&gt;Node3 -->
<g id="edge1" class="edge"><title>Node2&#45;&gt;Node3</title>
<path fill="none" stroke="midnightblue" d="M188.183,-47.0738C196.626,-47.9866 205.211,-48.9147 213.734,-49.8361"/>
<polygon fill="midnightblue" stroke="midnightblue" points="213.381,-53.3183 223.7,-50.9135 214.134,-46.3588 213.381,-53.3183"/>
</g>
<!-- Node4 -->
<g id="node3" class="node"><title>Node4</title>
<g id="a_node3"><a xlink:href="../../d6/df3/classcom_1_1github_1_1aptd_1_1simulation_1_1elements_1_1IBaseElement.htm#afeec4942d2aaeefe84d338c59bd0b00d" target="_top" xlink:title="com.github.aptd.simulation.elements.\lIBaseElement.toString">
<polygon fill="none" stroke="black" points="234,-0 234,-28 402,-28 402,-0 234,-0"/>
<text text-anchor="start" x="242" y="-16.8" font-family="Helvetica,sans-Serif" font-size="9.00">com.github.aptd.simulation.elements.</text>
<text text-anchor="middle" x="318" y="-6.8" font-family="Helvetica,sans-Serif" font-size="9.00">IBaseElement.toString</text>
</a>
</g>
</g>
<!-- Node2&#45;&gt;Node4 -->
<g id="edge2" class="edge"><title>Node2&#45;&gt;Node4</title>
<path fill="none" stroke="midnightblue" d="M188.183,-27.3459C199.93,-26.1289 211.951,-24.8835 223.7,-23.6663"/>
<polygon fill="midnightblue" stroke="midnightblue" points="224.355,-27.1172 233.941,-22.6052 223.633,-20.1545 224.355,-27.1172"/>
</g>
</g>
</svg>
