<?xml version="1.0" encoding="UTF-8" standalone="no"?>
<!DOCTYPE svg PUBLIC "-//W3C//DTD SVG 1.1//EN"
 "http://www.w3.org/Graphics/SVG/1.1/DTD/svg11.dtd">
<!-- Generated by graphviz version 2.36.0 (20140111.2315)
 -->
<!-- Title: com.github.aptd.simulation.ui.CHTTPServer Pages: 1 -->
<svg width="216pt" height="114pt"
 viewBox="0.00 0.00 216.00 114.00" xmlns="http://www.w3.org/2000/svg" xmlns:xlink="http://www.w3.org/1999/xlink">
<g id="graph0" class="graph" transform="scale(1 1) rotate(0) translate(4 110)">
<title>com.github.aptd.simulation.ui.CHTTPServer</title>
<!-- Node1 -->
<g id="node1" class="node"><title>Node1</title>
<polygon fill="#bfbfbf" stroke="black" points="0,-1 0,-105 138,-105 138,-1 0,-1"/>
<text text-anchor="start" x="8" y="-93.8" font-family="Helvetica,sans-Serif" font-size="9.00">com.github.aptd.simulation.ui.</text>
<text text-anchor="middle" x="69" y="-83.8" font-family="Helvetica,sans-Serif" font-size="9.00">CHTTPServer</text>
<polyline fill="none" stroke="black" points="0,-77 138,-77 "/>
<text text-anchor="start" x="8" y="-65.8" font-family="Helvetica,sans-Serif" font-size="9.00">&#45; m_restagent</text>
<text text-anchor="start" x="8" y="-55.8" font-family="Helvetica,sans-Serif" font-size="9.00">&#45; m_server</text>
<polyline fill="none" stroke="black" points="0,-49 138,-49 "/>
<text text-anchor="start" x="8" y="-37.8" font-family="Helvetica,sans-Serif" font-size="9.00">+ execute()</text>
<text text-anchor="start" x="8" y="-27.8" font-family="Helvetica,sans-Serif" font-size="9.00">+ register()</text>
<text text-anchor="start" x="8" y="-17.8" font-family="Helvetica,sans-Serif" font-size="9.00">+ register()</text>
<text text-anchor="start" x="8" y="-7.8" font-family="Helvetica,sans-Serif" font-size="9.00">&#45; CHTTPServer()</text>
</g>
<!-- Node1&#45;&gt;Node1 -->
<g id="edge1" class="edge"><title>Node1&#45;&gt;Node1</title>
<path fill="none" stroke="#404040" d="M138.275,-70.7814C148.831,-68.0677 156,-62.1406 156,-53 156,-47.7156 153.604,-43.5052 149.543,-40.3689"/>
<polygon fill="none" stroke="#404040" points="149.189,-40.2071 142.069,-41.3509 138.275,-35.2186 145.394,-34.0749 149.189,-40.2071"/>
<text text-anchor="middle" x="182" y="-50.8" font-family="Helvetica,sans-Serif" font-size="9.00"> &#45;INSTANCE</text>
</g>
</g>
</svg>
