<?xml version="1.0" encoding="UTF-8" standalone="no"?>
<!DOCTYPE svg PUBLIC "-//W3C//DTD SVG 1.1//EN"
 "http://www.w3.org/Graphics/SVG/1.1/DTD/svg11.dtd">
<!-- Generated by graphviz version 2.36.0 (20140111.2315)
 -->
<!-- Title: com.github.aptd.simulation.elements.graph.IVertex&lt; T &gt; Pages: 1 -->
<!--zoomable 502 -->
<svg id="main" version="1.1" xmlns="http://www.w3.org/2000/svg" xmlns:xlink="http://www.w3.org/1999/xlink" xml:space="preserve" onload="init(evt)">
<style type="text/css"><![CDATA[
.edge:hover path { stroke: red; }
.edge:hover polygon { stroke: red; fill: red; }
]]></style>
<script type="text/javascript"><![CDATA[
var edges = document.getElementsByTagName('g');
if (edges && edges.length) {
  for (var i=0;i<edges.length;i++) {
    if (edges[i].id.substr(0,4)=='edge') {
      edges[i].setAttribute('class','edge');
    }
  }
}
]]></script>
        <defs>
                <circle id="rim" cx="0" cy="0" r="7"/>
                <circle id="rim2" cx="0" cy="0" r="3.5"/>
                <g id="zoomPlus">
                        <use xlink:href="#rim" fill="#404040">
                                <set attributeName="fill" to="#808080" begin="zoomplus.mouseover" end="zoomplus.mouseout"/>
                        </use>
                        <path d="M-4,0h8M0,-4v8" fill="none" stroke="white" stroke-width="1.5" pointer-events="none"/>
                </g>
                <g id="zoomMin">
                        <use xlink:href="#rim" fill="#404040">
                                <set attributeName="fill" to="#808080" begin="zoomminus.mouseover" end="zoomminus.mouseout"/>
                        </use>
                        <path d="M-4,0h8" fill="none" stroke="white" stroke-width="1.5" pointer-events="none"/>
                </g>
                <g id="dirArrow">
                        <path fill="none" stroke="white" stroke-width="1.5" d="M0,-3.0v7 M-2.5,-0.5L0,-3.0L2.5,-0.5"/>
                </g>
               <g id="resetDef">
                       <use xlink:href="#rim2" fill="#404040">
                               <set attributeName="fill" to="#808080" begin="reset.mouseover" end="reset.mouseout"/>
                       </use>
               </g>
        </defs>

<script type="text/javascript">
var viewWidth = 963;
var viewHeight = 502;
var sectionId = 'dynsection-0';
</script>
<script xlink:href="../../svgpan.js"/>
<svg id="graph" class="graph">
<g id="viewport">
<title>com.github.aptd.simulation.elements.graph.IVertex&lt; T &gt;</title>
<!-- Node0 -->
<g id="node1" class="node"><title>Node0</title>
<polygon fill="#bfbfbf" stroke="black" points="426,-429 426,-493 620,-493 620,-429 426,-429"/>
<text text-anchor="start" x="434" y="-481.8" font-family="Helvetica,sans-Serif" font-size="9.00">com.github.aptd.simulation.elements.graph.</text>
<text text-anchor="middle" x="523" y="-471.8" font-family="Helvetica,sans-Serif" font-size="9.00">IVertex&lt; T &gt;</text>
<polyline fill="none" stroke="black" points="426,-465 620,-465 "/>
<text text-anchor="middle" x="523" y="-453.8" font-family="Helvetica,sans-Serif" font-size="9.00"> </text>
<polyline fill="none" stroke="black" points="426,-447 620,-447 "/>
<text text-anchor="middle" x="523" y="-435.8" font-family="Helvetica,sans-Serif" font-size="9.00"> </text>
</g>
<!-- Node1 -->
<g id="node2" class="node"><title>Node1</title>
<g id="a_node2"><a xlink:href="../../d3/db3/interfacecom_1_1github_1_1aptd_1_1simulation_1_1elements_1_1graph_1_1eventactivitynetwork_1_1INode.htm" target="_top" xlink:title="interface of a node ">
<polygon fill="none" stroke="black" points="163,-297 163,-381 295,-381 295,-297 163,-297"/>
<text text-anchor="start" x="171" y="-369.8" font-family="Helvetica,sans-Serif" font-size="9.00">com::github::aptd::</text>
<text text-anchor="start" x="171" y="-359.8" font-family="Helvetica,sans-Serif" font-size="9.00">simulation::elements</text>
<text text-anchor="start" x="171" y="-349.8" font-family="Helvetica,sans-Serif" font-size="9.00">::graph::eventactivitynetwork</text>
<text text-anchor="middle" x="229" y="-339.8" font-family="Helvetica,sans-Serif" font-size="9.00">::INode&lt; INode &gt;</text>
<polyline fill="none" stroke="black" points="163,-333 295,-333 "/>
<text text-anchor="middle" x="229" y="-321.8" font-family="Helvetica,sans-Serif" font-size="9.00"> </text>
<polyline fill="none" stroke="black" points="163,-315 295,-315 "/>
<text text-anchor="start" x="171" y="-303.8" font-family="Helvetica,sans-Serif" font-size="9.00">+ station()</text>
</a>
</g>
</g>
<!-- Node0&#45;&gt;Node1 -->
<g id="edge1" class="edge"><title>Node0&#45;&gt;Node1</title>
<path fill="none" stroke="midnightblue" d="M437.39,-425.057C392.089,-406.567 337.306,-384.206 295.28,-367.053"/>
<polygon fill="none" stroke="midnightblue" points="436.324,-428.402 446.905,-428.941 438.97,-421.921 436.324,-428.402"/>
</g>
<!-- Node3 -->
<g id="node4" class="node"><title>Node3</title>
<g id="a_node4"><a xlink:href="../../d7/d7a/interfacecom_1_1github_1_1aptd_1_1simulation_1_1elements_1_1graph_1_1network_1_1IStation.htm" target="_top" xlink:title="interface of a node, which is a train station ">
<polygon fill="none" stroke="black" points="454.5,-302 454.5,-376 591.5,-376 591.5,-302 454.5,-302"/>
<text text-anchor="start" x="462.5" y="-364.8" font-family="Helvetica,sans-Serif" font-size="9.00">com::github::aptd::</text>
<text text-anchor="start" x="462.5" y="-354.8" font-family="Helvetica,sans-Serif" font-size="9.00">simulation::elements</text>
<text text-anchor="middle" x="523" y="-344.8" font-family="Helvetica,sans-Serif" font-size="9.00">::graph::network::IStation&lt; T &gt;</text>
<polyline fill="none" stroke="black" points="454.5,-338 591.5,-338 "/>
<text text-anchor="middle" x="523" y="-326.8" font-family="Helvetica,sans-Serif" font-size="9.00"> </text>
<polyline fill="none" stroke="black" points="454.5,-320 591.5,-320 "/>
<text text-anchor="start" x="462.5" y="-308.8" font-family="Helvetica,sans-Serif" font-size="9.00">+ gps()</text>
</a>
</g>
</g>
<!-- Node0&#45;&gt;Node3 -->
<g id="edge3" class="edge"><title>Node0&#45;&gt;Node3</title>
<path fill="none" stroke="midnightblue" d="M523,-418.573C523,-404.777 523,-389.527 523,-376.162"/>
<polygon fill="none" stroke="midnightblue" points="519.5,-418.785 523,-428.785 526.5,-418.785 519.5,-418.785"/>
</g>
<!-- Node10 -->
<g id="node11" class="node"><title>Node10</title>
<g id="a_node11"><a xlink:href="../../d5/d8c/namespacecom_1_1github_1_1aptd_1_1simulation_1_1elements_1_1graph.htm#de/d20/interfacecom_1_1github_1_1aptd_1_1simulation_1_1elements_1_1graph_1_1IVertex" target="_top" xlink:title="{com.github.aptd.simulation.elements.graph.\lIVertex\&lt; INode \&gt;\n||}">
<polygon fill="none" stroke="black" points="610,-307 610,-371 804,-371 804,-307 610,-307"/>
<text text-anchor="start" x="618" y="-359.8" font-family="Helvetica,sans-Serif" font-size="9.00">com.github.aptd.simulation.elements.graph.</text>
<text text-anchor="middle" x="707" y="-349.8" font-family="Helvetica,sans-Serif" font-size="9.00">IVertex&lt; INode &gt;</text>
<polyline fill="none" stroke="black" points="610,-343 804,-343 "/>
<text text-anchor="middle" x="707" y="-331.8" font-family="Helvetica,sans-Serif" font-size="9.00"> </text>
<polyline fill="none" stroke="black" points="610,-325 804,-325 "/>
<text text-anchor="middle" x="707" y="-313.8" font-family="Helvetica,sans-Serif" font-size="9.00"> </text>
</a>
</g>
</g>
<!-- Node0&#45;&gt;Node10 -->
<g id="edge10" class="edge"><title>Node0&#45;&gt;Node10</title>
<path fill="none" stroke="orange" d="M579.364,-423.241C604.966,-406.544 634.921,-387.008 659.376,-371.059"/>
<polygon fill="orange" stroke="orange" points="577.328,-420.39 570.864,-428.785 581.152,-426.254 577.328,-420.39"/>
<text text-anchor="middle" x="636.5" y="-402.8" font-family="Helvetica,sans-Serif" font-size="9.00"> &lt; INode &gt;</text>
</g>
<!-- Node2 -->
<g id="node3" class="node"><title>Node2</title>
<g id="a_node3"><a xlink:href="../../d2/db4/classcom_1_1github_1_1aptd_1_1simulation_1_1elements_1_1graph_1_1eventactivitynetwork_1_1local_1_1CNode.htm" target="_top" xlink:title="node ">
<polygon fill="none" stroke="black" points="7.5,-140 7.5,-234 308.5,-234 308.5,-140 7.5,-140"/>
<text text-anchor="start" x="15.5" y="-222.8" font-family="Helvetica,sans-Serif" font-size="9.00">com.github.aptd.simulation.elements.graph.eventactivitynetwork.local.</text>
<text text-anchor="middle" x="158" y="-212.8" font-family="Helvetica,sans-Serif" font-size="9.00">CNode</text>
<polyline fill="none" stroke="black" points="7.5,-206 308.5,-206 "/>
<text text-anchor="start" x="15.5" y="-194.8" font-family="Helvetica,sans-Serif" font-size="9.00">&#45; m_station</text>
<polyline fill="none" stroke="black" points="7.5,-188 308.5,-188 "/>
<text text-anchor="start" x="15.5" y="-176.8" font-family="Helvetica,sans-Serif" font-size="9.00">+ CNode()</text>
<text text-anchor="start" x="15.5" y="-166.8" font-family="Helvetica,sans-Serif" font-size="9.00">+ equals()</text>
<text text-anchor="start" x="15.5" y="-156.8" font-family="Helvetica,sans-Serif" font-size="9.00">+ hashCode()</text>
<text text-anchor="start" x="15.5" y="-146.8" font-family="Helvetica,sans-Serif" font-size="9.00">+ station()</text>
</a>
</g>
</g>
<!-- Node1&#45;&gt;Node2 -->
<g id="edge2" class="edge"><title>Node1&#45;&gt;Node2</title>
<path fill="none" stroke="midnightblue" d="M205.003,-287.301C196.878,-270.137 187.852,-251.068 179.899,-234.266"/>
<polygon fill="none" stroke="midnightblue" points="201.969,-289.074 209.411,-296.615 208.296,-286.079 201.969,-289.074"/>
</g>
<!-- Node4 -->
<g id="node5" class="node"><title>Node4</title>
<g id="a_node5"><a xlink:href="../../d5/dd9/classcom_1_1github_1_1aptd_1_1simulation_1_1elements_1_1graph_1_1network_1_1local_1_1IBaseStation.htm" target="_top" xlink:title="abstract class of network stations nodes ">
<polygon fill="none" stroke="black" points="327,-125 327,-249 461,-249 461,-125 327,-125"/>
<text text-anchor="start" x="335" y="-237.8" font-family="Helvetica,sans-Serif" font-size="9.00">com::github::aptd::</text>
<text text-anchor="start" x="335" y="-227.8" font-family="Helvetica,sans-Serif" font-size="9.00">simulation::elements</text>
<text text-anchor="start" x="335" y="-217.8" font-family="Helvetica,sans-Serif" font-size="9.00">::graph::network::local</text>
<text text-anchor="middle" x="394" y="-207.8" font-family="Helvetica,sans-Serif" font-size="9.00">::IBaseStation&lt; IStation&lt;?&gt; &gt;</text>
<polyline fill="none" stroke="black" points="327,-201 461,-201 "/>
<text text-anchor="start" x="335" y="-189.8" font-family="Helvetica,sans-Serif" font-size="9.00"># BASEFUNCTOR</text>
<text text-anchor="start" x="335" y="-179.8" font-family="Helvetica,sans-Serif" font-size="9.00">&#45; m_position</text>
<text text-anchor="start" x="335" y="-169.8" font-family="Helvetica,sans-Serif" font-size="9.00">&#45; serialVersionUID</text>
<polyline fill="none" stroke="black" points="327,-163 461,-163 "/>
<text text-anchor="start" x="335" y="-151.8" font-family="Helvetica,sans-Serif" font-size="9.00">+ gps()</text>
<text text-anchor="start" x="335" y="-141.8" font-family="Helvetica,sans-Serif" font-size="9.00"># IBaseStation()</text>
<text text-anchor="start" x="335" y="-131.8" font-family="Helvetica,sans-Serif" font-size="9.00"># individualliteral()</text>
</a>
</g>
</g>
<!-- Node3&#45;&gt;Node4 -->
<g id="edge4" class="edge"><title>Node3&#45;&gt;Node4</title>
<path fill="none" stroke="midnightblue" d="M485.227,-294.078C473.138,-280.021 459.527,-264.194 446.58,-249.139"/>
<polygon fill="none" stroke="midnightblue" points="482.599,-296.389 491.773,-301.689 487.906,-291.825 482.599,-296.389"/>
</g>
<!-- Node8 -->
<g id="node9" class="node"><title>Node8</title>
<g id="a_node9"><a xlink:href="../../d7/d7a/interfacecom_1_1github_1_1aptd_1_1simulation_1_1elements_1_1graph_1_1network_1_1IStation.htm" target="_top" xlink:title="{com.github.aptd.simulation.elements.graph.network.\lIStation\&lt; IStation\&lt;?\&gt; \&gt;\n||+ gps()\l}">
<polygon fill="none" stroke="black" points="479.5,-155 479.5,-219 708.5,-219 708.5,-155 479.5,-155"/>
<text text-anchor="start" x="487.5" y="-207.8" font-family="Helvetica,sans-Serif" font-size="9.00">com.github.aptd.simulation.elements.graph.network.</text>
<text text-anchor="middle" x="594" y="-197.8" font-family="Helvetica,sans-Serif" font-size="9.00">IStation&lt; IStation&lt;?&gt; &gt;</text>
<polyline fill="none" stroke="black" points="479.5,-191 708.5,-191 "/>
<text text-anchor="middle" x="594" y="-179.8" font-family="Helvetica,sans-Serif" font-size="9.00"> </text>
<polyline fill="none" stroke="black" points="479.5,-173 708.5,-173 "/>
<text text-anchor="start" x="487.5" y="-161.8" font-family="Helvetica,sans-Serif" font-size="9.00">+ gps()</text>
</a>
</g>
</g>
<!-- Node3&#45;&gt;Node8 -->
<g id="edge8" class="edge"><title>Node3&#45;&gt;Node8</title>
<path fill="none" stroke="orange" d="M544.514,-292.548C555.705,-268.904 569.104,-240.598 579.135,-219.405"/>
<polygon fill="orange" stroke="orange" points="541.302,-291.153 540.187,-301.689 547.629,-294.148 541.302,-291.153"/>
<text text-anchor="middle" x="587" y="-270.8" font-family="Helvetica,sans-Serif" font-size="9.00"> &lt; IStation&lt;?&gt; &gt;</text>
</g>
<!-- Node9 -->
<g id="node10" class="node"><title>Node9</title>
<g id="a_node10"><a xlink:href="../../d7/d7a/interfacecom_1_1github_1_1aptd_1_1simulation_1_1elements_1_1graph_1_1network_1_1IStation.htm" target="_top" xlink:title="{com.github.aptd.simulation.elements.graph.network.\lIStation\&lt;?\&gt;\n||+ gps()\l}">
<polygon fill="none" stroke="black" points="726.5,-155 726.5,-219 955.5,-219 955.5,-155 726.5,-155"/>
<text text-anchor="start" x="734.5" y="-207.8" font-family="Helvetica,sans-Serif" font-size="9.00">com.github.aptd.simulation.elements.graph.network.</text>
<text text-anchor="middle" x="841" y="-197.8" font-family="Helvetica,sans-Serif" font-size="9.00">IStation&lt;?&gt;</text>
<polyline fill="none" stroke="black" points="726.5,-191 955.5,-191 "/>
<text text-anchor="middle" x="841" y="-179.8" font-family="Helvetica,sans-Serif" font-size="9.00"> </text>
<polyline fill="none" stroke="black" points="726.5,-173 955.5,-173 "/>
<text text-anchor="start" x="734.5" y="-161.8" font-family="Helvetica,sans-Serif" font-size="9.00">+ gps()</text>
</a>
</g>
</g>
<!-- Node3&#45;&gt;Node9 -->
<g id="edge9" class="edge"><title>Node3&#45;&gt;Node9</title>
<path fill="none" stroke="orange" d="M597.953,-297.432C598.973,-296.948 599.989,-296.471 601,-296 651.279,-272.591 666.372,-272.645 717,-250 738.312,-240.468 761.276,-229.258 781.581,-219.01"/>
<polygon fill="orange" stroke="orange" points="596.151,-294.416 588.686,-301.935 599.21,-300.712 596.151,-294.416"/>
<text text-anchor="middle" x="680.5" y="-270.8" font-family="Helvetica,sans-Serif" font-size="9.00"> &lt;?&gt;</text>
</g>
<!-- Node5 -->
<g id="node6" class="node"><title>Node5</title>
<g id="a_node6"><a xlink:href="../../d6/d36/classcom_1_1github_1_1aptd_1_1simulation_1_1elements_1_1graph_1_1network_1_1local_1_1CStation.htm" target="_top" xlink:title="full station with different tracks and building ">
<polygon fill="none" stroke="black" points="-0.5,-1 -0.5,-85 250.5,-85 250.5,-1 -0.5,-1"/>
<text text-anchor="start" x="7.5" y="-73.8" font-family="Helvetica,sans-Serif" font-size="9.00">com.github.aptd.simulation.elements.graph.network.local.</text>
<text text-anchor="middle" x="125" y="-63.8" font-family="Helvetica,sans-Serif" font-size="9.00">CStation</text>
<polyline fill="none" stroke="black" points="-0.5,-57 250.5,-57 "/>
<text text-anchor="start" x="7.5" y="-45.8" font-family="Helvetica,sans-Serif" font-size="9.00">&#45; m_platformoccupation</text>
<text text-anchor="start" x="7.5" y="-35.8" font-family="Helvetica,sans-Serif" font-size="9.00">&#45; FUNCTOR</text>
<text text-anchor="start" x="7.5" y="-25.8" font-family="Helvetica,sans-Serif" font-size="9.00">&#45; serialVersionUID</text>
<polyline fill="none" stroke="black" points="-0.5,-19 250.5,-19 "/>
<text text-anchor="start" x="7.5" y="-7.8" font-family="Helvetica,sans-Serif" font-size="9.00">&#45; CStation()</text>
</a>
</g>
</g>
<!-- Node4&#45;&gt;Node5 -->
<g id="edge5" class="edge"><title>Node4&#45;&gt;Node5</title>
<path fill="none" stroke="midnightblue" d="M318.218,-124.729C317.812,-124.484 317.406,-124.241 317,-124 292.556,-109.468 264.982,-96.307 238.517,-85.0477"/>
<polygon fill="none" stroke="midnightblue" points="316.423,-127.736 326.744,-130.131 320.169,-121.823 316.423,-127.736"/>
</g>
<!-- Node6 -->
<g id="node7" class="node"><title>Node6</title>
<g id="a_node7"><a xlink:href="../../d8/d3b/classcom_1_1github_1_1aptd_1_1simulation_1_1elements_1_1graph_1_1network_1_1local_1_1CTransit.htm" target="_top" xlink:title="transit station class to define a station without details of tracks ">
<polygon fill="none" stroke="black" points="268.5,-6 268.5,-80 519.5,-80 519.5,-6 268.5,-6"/>
<text text-anchor="start" x="276.5" y="-68.8" font-family="Helvetica,sans-Serif" font-size="9.00">com.github.aptd.simulation.elements.graph.network.local.</text>
<text text-anchor="middle" x="394" y="-58.8" font-family="Helvetica,sans-Serif" font-size="9.00">CTransit</text>
<polyline fill="none" stroke="black" points="268.5,-52 519.5,-52 "/>
<text text-anchor="start" x="276.5" y="-40.8" font-family="Helvetica,sans-Serif" font-size="9.00">&#45; FUNCTOR</text>
<text text-anchor="start" x="276.5" y="-30.8" font-family="Helvetica,sans-Serif" font-size="9.00">&#45; serialVersionUID</text>
<polyline fill="none" stroke="black" points="268.5,-24 519.5,-24 "/>
<text text-anchor="start" x="276.5" y="-12.8" font-family="Helvetica,sans-Serif" font-size="9.00">&#45; CTransit()</text>
</a>
</g>
</g>
<!-- Node4&#45;&gt;Node6 -->
<g id="edge6" class="edge"><title>Node4&#45;&gt;Node6</title>
<path fill="none" stroke="midnightblue" d="M394,-114.931C394,-102.963 394,-90.9982 394,-80.3956"/>
<polygon fill="none" stroke="midnightblue" points="390.5,-114.955 394,-124.955 397.5,-114.955 390.5,-114.955"/>
</g>
<!-- Node7 -->
<g id="node8" class="node"><title>Node7</title>
<g id="a_node8"><a xlink:href="../../da/db4/classcom_1_1github_1_1aptd_1_1simulation_1_1elements_1_1graph_1_1network_1_1local_1_1CVirtual.htm" target="_top" xlink:title="virtual node ">
<polygon fill="none" stroke="black" points="537.5,-6 537.5,-80 788.5,-80 788.5,-6 537.5,-6"/>
<text text-anchor="start" x="545.5" y="-68.8" font-family="Helvetica,sans-Serif" font-size="9.00">com.github.aptd.simulation.elements.graph.network.local.</text>
<text text-anchor="middle" x="663" y="-58.8" font-family="Helvetica,sans-Serif" font-size="9.00">CVirtual</text>
<polyline fill="none" stroke="black" points="537.5,-52 788.5,-52 "/>
<text text-anchor="start" x="545.5" y="-40.8" font-family="Helvetica,sans-Serif" font-size="9.00">&#45; FUNCTOR</text>
<text text-anchor="start" x="545.5" y="-30.8" font-family="Helvetica,sans-Serif" font-size="9.00">&#45; serialVersionUID</text>
<polyline fill="none" stroke="black" points="537.5,-24 788.5,-24 "/>
<text text-anchor="start" x="545.5" y="-12.8" font-family="Helvetica,sans-Serif" font-size="9.00">&#45; CVirtual()</text>
</a>
</g>
</g>
<!-- Node4&#45;&gt;Node7 -->
<g id="edge7" class="edge"><title>Node4&#45;&gt;Node7</title>
<path fill="none" stroke="midnightblue" d="M469.726,-124.164C469.817,-124.109 469.909,-124.055 470,-124 498.022,-107.255 530.196,-92.3961 560.138,-80.1668"/>
<polygon fill="none" stroke="midnightblue" points="467.814,-121.232 461.227,-129.53 471.552,-127.151 467.814,-121.232"/>
</g>
</g>
</svg>
        <g id="navigator" transform="translate(0 0)" fill="#404254">
                <rect fill="#f2f5e9" fill-opacity="0.5" stroke="#606060" stroke-width=".5" x="0" y="0" width="60" height="60"/>
                <use id="zoomplus" xlink:href="#zoomPlus" x="17" y="9" onmousedown="handleZoom(evt,'in')"/>
                <use id="zoomminus" xlink:href="#zoomMin" x="42" y="9" onmousedown="handleZoom(evt,'out')"/>
                <use id="reset" xlink:href="#resetDef" x="30" y="36" onmousedown="handleReset()"/>
                <g id="arrowUp" xlink:href="#dirArrow" transform="translate(30 24)" onmousedown="handlePan(0,-1)">
                  <use xlink:href="#rim" fill="#404040">
                        <set attributeName="fill" to="#808080" begin="arrowUp.mouseover" end="arrowUp.mouseout"/>
                  </use>
                  <path fill="none" stroke="white" stroke-width="1.5" d="M0,-3.0v7 M-2.5,-0.5L0,-3.0L2.5,-0.5"/>
                </g>
                <g id="arrowRight" xlink:href="#dirArrow" transform="rotate(90) translate(36 -43)" onmousedown="handlePan(1,0)">
                  <use xlink:href="#rim" fill="#404040">
                        <set attributeName="fill" to="#808080" begin="arrowRight.mouseover" end="arrowRight.mouseout"/>
                  </use>
                  <path fill="none" stroke="white" stroke-width="1.5" d="M0,-3.0v7 M-2.5,-0.5L0,-3.0L2.5,-0.5"/>
                </g>
                <g id="arrowDown" xlink:href="#dirArrow" transform="rotate(180) translate(-30 -48)" onmousedown="handlePan(0,1)">
                  <use xlink:href="#rim" fill="#404040">
                        <set attributeName="fill" to="#808080" begin="arrowDown.mouseover" end="arrowDown.mouseout"/>
                  </use>
                  <path fill="none" stroke="white" stroke-width="1.5" d="M0,-3.0v7 M-2.5,-0.5L0,-3.0L2.5,-0.5"/>
                </g>
                <g id="arrowLeft" xlink:href="#dirArrow" transform="rotate(270) translate(-36 17)" onmousedown="handlePan(-1,0)">
                  <use xlink:href="#rim" fill="#404040">
                        <set attributeName="fill" to="#808080" begin="arrowLeft.mouseover" end="arrowLeft.mouseout"/>
                  </use>
                  <path fill="none" stroke="white" stroke-width="1.5" d="M0,-3.0v7 M-2.5,-0.5L0,-3.0L2.5,-0.5"/>
                </g>
        </g>
        <svg viewBox="0 0 15 15" width="100%" height="30px" preserveAspectRatio="xMaxYMin meet">
         <g id="arrow_out" transform="scale(0.3 0.3)">
          <a xlink:href="interfacecom_1_1github_1_1aptd_1_1simulation_1_1elements_1_1graph_1_1IVertex__inherit__graph_org.svg" target="_base">
           <rect id="button" ry="5" rx="5" y="6" x="6" height="38" width="38"
                fill="#f2f5e9" fill-opacity="0.5" stroke="#606060" stroke-width="1.0"/>
           <path id="arrow"
             d="M 11.500037,31.436501 C 11.940474,20.09759 22.043105,11.32322 32.158766,21.979434 L 37.068811,17.246167 C 37.068811,17.246167 37.088388,32 37.088388,32 L 22.160133,31.978069 C 22.160133,31.978069 26.997745,27.140456 26.997745,27.140456 C 18.528582,18.264221 13.291696,25.230495 11.500037,31.436501 z"
             style="fill:#404040;"/>
          </a>
         </g>
        </svg>
</svg>
