<?xml version="1.0" encoding="UTF-8" standalone="no"?>
<!DOCTYPE svg PUBLIC "-//W3C//DTD SVG 1.1//EN"
 "http://www.w3.org/Graphics/SVG/1.1/DTD/svg11.dtd">
<!-- Generated by graphviz version 2.36.0 (20140111.2315)
 -->
<!-- Title: com.github.aptd.simulation.elements.dispatcher.CDispatcher Pages: 1 -->
<!--zoomable 992 -->
<svg id="main" version="1.1" xmlns="http://www.w3.org/2000/svg" xmlns:xlink="http://www.w3.org/1999/xlink" xml:space="preserve" onload="init(evt)">
<style type="text/css"><![CDATA[
.edge:hover path { stroke: red; }
.edge:hover polygon { stroke: red; fill: red; }
]]></style>
<script type="text/javascript"><![CDATA[
var edges = document.getElementsByTagName('g');
if (edges && edges.length) {
  for (var i=0;i<edges.length;i++) {
    if (edges[i].id.substr(0,4)=='edge') {
      edges[i].setAttribute('class','edge');
    }
  }
}
]]></script>
        <defs>
                <circle id="rim" cx="0" cy="0" r="7"/>
                <circle id="rim2" cx="0" cy="0" r="3.5"/>
                <g id="zoomPlus">
                        <use xlink:href="#rim" fill="#404040">
                                <set attributeName="fill" to="#808080" begin="zoomplus.mouseover" end="zoomplus.mouseout"/>
                        </use>
                        <path d="M-4,0h8M0,-4v8" fill="none" stroke="white" stroke-width="1.5" pointer-events="none"/>
                </g>
                <g id="zoomMin">
                        <use xlink:href="#rim" fill="#404040">
                                <set attributeName="fill" to="#808080" begin="zoomminus.mouseover" end="zoomminus.mouseout"/>
                        </use>
                        <path d="M-4,0h8" fill="none" stroke="white" stroke-width="1.5" pointer-events="none"/>
                </g>
                <g id="dirArrow">
                        <path fill="none" stroke="white" stroke-width="1.5" d="M0,-3.0v7 M-2.5,-0.5L0,-3.0L2.5,-0.5"/>
                </g>
               <g id="resetDef">
                       <use xlink:href="#rim2" fill="#404040">
                               <set attributeName="fill" to="#808080" begin="reset.mouseover" end="reset.mouseout"/>
                       </use>
               </g>
        </defs>

<script type="text/javascript">
var viewWidth = 481;
var viewHeight = 992;
var sectionId = 'dynsection-1';
</script>
<script xlink:href="../../svgpan.js"/>
<svg id="graph" class="graph">
<g id="viewport">
<title>com.github.aptd.simulation.elements.dispatcher.CDispatcher</title>
<!-- Node8 -->
<g id="node1" class="node"><title>Node8</title>
<polygon fill="#bfbfbf" stroke="black" points="114.5,-1 114.5,-85 327.5,-85 327.5,-1 114.5,-1"/>
<text text-anchor="start" x="122.5" y="-73.8" font-family="Helvetica,sans-Serif" font-size="9.00">com.github.aptd.simulation.elements.dispatcher.</text>
<text text-anchor="middle" x="221" y="-63.8" font-family="Helvetica,sans-Serif" font-size="9.00">CDispatcher</text>
<polyline fill="none" stroke="black" points="114.5,-57 327.5,-57 "/>
<text text-anchor="start" x="122.5" y="-45.8" font-family="Helvetica,sans-Serif" font-size="9.00">&#45; FUNCTOR</text>
<text text-anchor="start" x="122.5" y="-35.8" font-family="Helvetica,sans-Serif" font-size="9.00">&#45; serialVersionUID</text>
<polyline fill="none" stroke="black" points="114.5,-29 327.5,-29 "/>
<text text-anchor="start" x="122.5" y="-17.8" font-family="Helvetica,sans-Serif" font-size="9.00"># individualliteral()</text>
<text text-anchor="start" x="122.5" y="-7.8" font-family="Helvetica,sans-Serif" font-size="9.00">&#45; CDispatcher()</text>
</g>
<!-- Node9 -->
<g id="node2" class="node"><title>Node9</title>
<g id="a_node2"><a xlink:href="../../d6/df3/classcom_1_1github_1_1aptd_1_1simulation_1_1elements_1_1IBaseElement.htm" target="_top" xlink:title="base simulation element structure ">
<polygon fill="none" stroke="black" points="87.5,-125 87.5,-439 242.5,-439 242.5,-125 87.5,-125"/>
<text text-anchor="start" x="95.5" y="-427.8" font-family="Helvetica,sans-Serif" font-size="9.00">com::github::aptd::</text>
<text text-anchor="start" x="95.5" y="-417.8" font-family="Helvetica,sans-Serif" font-size="9.00">simulation::elements</text>
<text text-anchor="middle" x="165" y="-407.8" font-family="Helvetica,sans-Serif" font-size="9.00">::IBaseElement&lt; IDispatcher&lt;?&gt; &gt;</text>
<polyline fill="none" stroke="black" points="87.5,-401 242.5,-401 "/>
<text text-anchor="start" x="95.5" y="-389.8" font-family="Helvetica,sans-Serif" font-size="9.00"># m_id</text>
<text text-anchor="start" x="95.5" y="-379.8" font-family="Helvetica,sans-Serif" font-size="9.00"># m_input</text>
<text text-anchor="start" x="95.5" y="-369.8" font-family="Helvetica,sans-Serif" font-size="9.00"># m_nextactivation</text>
<text text-anchor="start" x="95.5" y="-359.8" font-family="Helvetica,sans-Serif" font-size="9.00">&#45; m_environment</text>
<text text-anchor="start" x="95.5" y="-349.8" font-family="Helvetica,sans-Serif" font-size="9.00">&#45; m_external</text>
<text text-anchor="start" x="95.5" y="-339.8" font-family="Helvetica,sans-Serif" font-size="9.00">&#45; m_functor</text>
<text text-anchor="start" x="95.5" y="-329.8" font-family="Helvetica,sans-Serif" font-size="9.00">&#45; m_timezone</text>
<text text-anchor="start" x="95.5" y="-319.8" font-family="Helvetica,sans-Serif" font-size="9.00">&#45; serialVersionUID</text>
<polyline fill="none" stroke="black" points="87.5,-313 242.5,-313 "/>
<text text-anchor="start" x="95.5" y="-301.8" font-family="Helvetica,sans-Serif" font-size="9.00">+ call()</text>
<text text-anchor="start" x="95.5" y="-291.8" font-family="Helvetica,sans-Serif" font-size="9.00">+ environment()</text>
<text text-anchor="start" x="95.5" y="-281.8" font-family="Helvetica,sans-Serif" font-size="9.00">+ equals()</text>
<text text-anchor="start" x="95.5" y="-271.8" font-family="Helvetica,sans-Serif" font-size="9.00">+ hashCode()</text>
<text text-anchor="start" x="95.5" y="-261.8" font-family="Helvetica,sans-Serif" font-size="9.00">+ id()</text>
<text text-anchor="start" x="95.5" y="-251.8" font-family="Helvetica,sans-Serif" font-size="9.00">+ imminent()</text>
<text text-anchor="start" x="95.5" y="-241.8" font-family="Helvetica,sans-Serif" font-size="9.00">+ input()</text>
<text text-anchor="start" x="95.5" y="-231.8" font-family="Helvetica,sans-Serif" font-size="9.00">+ literal()</text>
<text text-anchor="start" x="95.5" y="-221.8" font-family="Helvetica,sans-Serif" font-size="9.00">+ literal()</text>
<text text-anchor="start" x="95.5" y="-211.8" font-family="Helvetica,sans-Serif" font-size="9.00">+ nextactivation()</text>
<text text-anchor="start" x="95.5" y="-201.8" font-family="Helvetica,sans-Serif" font-size="9.00">+ output()</text>
<text text-anchor="start" x="95.5" y="-191.8" font-family="Helvetica,sans-Serif" font-size="9.00">+ toString()</text>
<text text-anchor="start" x="95.5" y="-181.8" font-family="Helvetica,sans-Serif" font-size="9.00"># IBaseElement()</text>
<text text-anchor="start" x="95.5" y="-171.8" font-family="Helvetica,sans-Serif" font-size="9.00"># individualliteral()</text>
<text text-anchor="start" x="95.5" y="-161.8" font-family="Helvetica,sans-Serif" font-size="9.00">&#45; currentTime()</text>
<text text-anchor="start" x="95.5" y="-151.8" font-family="Helvetica,sans-Serif" font-size="9.00">&#45; getNextActivation()</text>
<text text-anchor="start" x="95.5" y="-141.8" font-family="Helvetica,sans-Serif" font-size="9.00">&#45; maxTime()</text>
<text text-anchor="start" x="95.5" y="-131.8" font-family="Helvetica,sans-Serif" font-size="9.00">&#45; setNextActivation()</text>
</a>
</g>
</g>
<!-- Node9&#45;&gt;Node8 -->
<g id="edge1" class="edge"><title>Node9&#45;&gt;Node8</title>
<path fill="none" stroke="midnightblue" d="M204.24,-114.932C206.763,-104.254 209.14,-94.1946 211.267,-85.1913"/>
<polygon fill="none" stroke="midnightblue" points="200.778,-114.362 201.885,-124.899 207.59,-115.972 200.778,-114.362"/>
</g>
<!-- Node10 -->
<g id="node3" class="node"><title>Node10</title>
<g id="a_node3"><a xlink:href="../../dd/dd7/interfacecom_1_1github_1_1aptd_1_1simulation_1_1elements_1_1IElement.htm" target="_top" xlink:title="{com.github.aptd.simulation.elements.\lIElement\&lt; N \&gt;\n||+ environment()\l+ id()\l+ imminent()\l+ input()\l+ nextactivation()\l+ output()\l}">
<polygon fill="none" stroke="black" points="0,-487 0,-601 168,-601 168,-487 0,-487"/>
<text text-anchor="start" x="8" y="-589.8" font-family="Helvetica,sans-Serif" font-size="9.00">com.github.aptd.simulation.elements.</text>
<text text-anchor="middle" x="84" y="-579.8" font-family="Helvetica,sans-Serif" font-size="9.00">IElement&lt; N &gt;</text>
<polyline fill="none" stroke="black" points="0,-573 168,-573 "/>
<text text-anchor="middle" x="84" y="-561.8" font-family="Helvetica,sans-Serif" font-size="9.00"> </text>
<polyline fill="none" stroke="black" points="0,-555 168,-555 "/>
<text text-anchor="start" x="8" y="-543.8" font-family="Helvetica,sans-Serif" font-size="9.00">+ environment()</text>
<text text-anchor="start" x="8" y="-533.8" font-family="Helvetica,sans-Serif" font-size="9.00">+ id()</text>
<text text-anchor="start" x="8" y="-523.8" font-family="Helvetica,sans-Serif" font-size="9.00">+ imminent()</text>
<text text-anchor="start" x="8" y="-513.8" font-family="Helvetica,sans-Serif" font-size="9.00">+ input()</text>
<text text-anchor="start" x="8" y="-503.8" font-family="Helvetica,sans-Serif" font-size="9.00">+ nextactivation()</text>
<text text-anchor="start" x="8" y="-493.8" font-family="Helvetica,sans-Serif" font-size="9.00">+ output()</text>
</a>
</g>
</g>
<!-- Node10&#45;&gt;Node9 -->
<g id="edge2" class="edge"><title>Node10&#45;&gt;Node9</title>
<path fill="none" stroke="midnightblue" d="M104.515,-477.151C108.22,-465.257 112.223,-452.408 116.344,-439.181"/>
<polygon fill="none" stroke="midnightblue" points="101.109,-476.315 101.476,-486.904 107.792,-478.398 101.109,-476.315"/>
</g>
<!-- Node11 -->
<g id="node4" class="node"><title>Node11</title>
<g id="a_node4"><a xlink:href="../../dd/dd7/interfacecom_1_1github_1_1aptd_1_1simulation_1_1elements_1_1IElement.htm" target="_top" xlink:title="any object interface ">
<polygon fill="none" stroke="black" points="6,-750 6,-864 174,-864 174,-750 6,-750"/>
<text text-anchor="start" x="14" y="-852.8" font-family="Helvetica,sans-Serif" font-size="9.00">com.github.aptd.simulation.elements.</text>
<text text-anchor="middle" x="90" y="-842.8" font-family="Helvetica,sans-Serif" font-size="9.00">IElement&lt; T extends IAgent&lt;?&gt;</text>
<polyline fill="none" stroke="black" points="6,-836 174,-836 "/>
<text text-anchor="middle" x="90" y="-824.8" font-family="Helvetica,sans-Serif" font-size="9.00"> </text>
<polyline fill="none" stroke="black" points="6,-818 174,-818 "/>
<text text-anchor="start" x="14" y="-806.8" font-family="Helvetica,sans-Serif" font-size="9.00">+ environment()</text>
<text text-anchor="start" x="14" y="-796.8" font-family="Helvetica,sans-Serif" font-size="9.00">+ id()</text>
<text text-anchor="start" x="14" y="-786.8" font-family="Helvetica,sans-Serif" font-size="9.00">+ imminent()</text>
<text text-anchor="start" x="14" y="-776.8" font-family="Helvetica,sans-Serif" font-size="9.00">+ input()</text>
<text text-anchor="start" x="14" y="-766.8" font-family="Helvetica,sans-Serif" font-size="9.00">+ nextactivation()</text>
<text text-anchor="start" x="14" y="-756.8" font-family="Helvetica,sans-Serif" font-size="9.00">+ output()</text>
</a>
</g>
</g>
<!-- Node11&#45;&gt;Node10 -->
<g id="edge3" class="edge"><title>Node11&#45;&gt;Node10</title>
<path fill="none" stroke="orange" d="M86.4801,-739.566C86.2979,-734.976 86.1349,-730.42 86,-726 84.7253,-684.223 84.2352,-637.001 84.0586,-601.268"/>
<polygon fill="orange" stroke="orange" points="82.9862,-739.787 86.906,-749.63 89.98,-739.491 82.9862,-739.787"/>
<text text-anchor="middle" x="98.5" y="-670.8" font-family="Helvetica,sans-Serif" font-size="9.00"> &lt; N &gt;</text>
</g>
<!-- Node12 -->
<g id="node5" class="node"><title>Node12</title>
<g id="a_node5"><a xlink:href="../../d4/d0d/interfacecom_1_1github_1_1aptd_1_1simulation_1_1elements_1_1IPerceiveable.htm" target="_top" xlink:title="any object which be perceived by an agent ">
<polygon fill="none" stroke="black" points="120,-909 120,-983 288,-983 288,-909 120,-909"/>
<text text-anchor="start" x="128" y="-971.8" font-family="Helvetica,sans-Serif" font-size="9.00">com.github.aptd.simulation.elements.</text>
<text text-anchor="middle" x="204" y="-961.8" font-family="Helvetica,sans-Serif" font-size="9.00">IPerceiveable</text>
<polyline fill="none" stroke="black" points="120,-955 288,-955 "/>
<text text-anchor="middle" x="204" y="-943.8" font-family="Helvetica,sans-Serif" font-size="9.00"> </text>
<polyline fill="none" stroke="black" points="120,-937 288,-937 "/>
<text text-anchor="start" x="128" y="-925.8" font-family="Helvetica,sans-Serif" font-size="9.00">+ literal()</text>
<text text-anchor="start" x="128" y="-915.8" font-family="Helvetica,sans-Serif" font-size="9.00">+ literal()</text>
</a>
</g>
</g>
<!-- Node12&#45;&gt;Node11 -->
<g id="edge4" class="edge"><title>Node12&#45;&gt;Node11</title>
<path fill="none" stroke="midnightblue" d="M167.191,-900.765C157.487,-889.103 146.887,-876.364 136.736,-864.165"/>
<polygon fill="none" stroke="midnightblue" points="164.663,-903.198 173.749,-908.646 170.043,-898.721 164.663,-903.198"/>
</g>
<!-- Node13 -->
<g id="node6" class="node"><title>Node13</title>
<g id="a_node6"><a xlink:href="../../db/d65/interfacecom_1_1github_1_1aptd_1_1simulation_1_1core_1_1time_1_1ITime.htm" target="_top" xlink:title="time interface ">
<polygon fill="none" stroke="black" points="120,-621 120,-725 288,-725 288,-621 120,-621"/>
<text text-anchor="start" x="128" y="-713.8" font-family="Helvetica,sans-Serif" font-size="9.00">com.github.aptd.simulation.core.time.</text>
<text text-anchor="middle" x="204" y="-703.8" font-family="Helvetica,sans-Serif" font-size="9.00">ITime</text>
<polyline fill="none" stroke="black" points="120,-697 288,-697 "/>
<text text-anchor="middle" x="204" y="-685.8" font-family="Helvetica,sans-Serif" font-size="9.00"> </text>
<polyline fill="none" stroke="black" points="120,-679 288,-679 "/>
<text text-anchor="start" x="128" y="-667.8" font-family="Helvetica,sans-Serif" font-size="9.00">+ active()</text>
<text text-anchor="start" x="128" y="-657.8" font-family="Helvetica,sans-Serif" font-size="9.00">+ addagent()</text>
<text text-anchor="start" x="128" y="-647.8" font-family="Helvetica,sans-Serif" font-size="9.00">+ current()</text>
<text text-anchor="start" x="128" y="-637.8" font-family="Helvetica,sans-Serif" font-size="9.00">+ raw()</text>
<text text-anchor="start" x="128" y="-627.8" font-family="Helvetica,sans-Serif" font-size="9.00">+ removeagent()</text>
</a>
</g>
</g>
<!-- Node12&#45;&gt;Node13 -->
<g id="edge6" class="edge"><title>Node12&#45;&gt;Node13</title>
<path fill="none" stroke="midnightblue" d="M204,-898.584C204,-850.404 204,-775.24 204,-725.32"/>
<polygon fill="none" stroke="midnightblue" points="200.5,-898.733 204,-908.733 207.5,-898.733 200.5,-898.733"/>
</g>
<!-- Node16 -->
<g id="node9" class="node"><title>Node16</title>
<g id="a_node9"><a xlink:href="../../dd/dd7/interfacecom_1_1github_1_1aptd_1_1simulation_1_1elements_1_1IElement.htm" target="_top" xlink:title="any object interface ">
<polygon fill="none" stroke="black" points="258.5,-745 258.5,-869 359.5,-869 359.5,-745 258.5,-745"/>
<text text-anchor="start" x="266.5" y="-857.8" font-family="Helvetica,sans-Serif" font-size="9.00">com::github::aptd::</text>
<text text-anchor="start" x="266.5" y="-847.8" font-family="Helvetica,sans-Serif" font-size="9.00">simulation::elements</text>
<text text-anchor="middle" x="309" y="-837.8" font-family="Helvetica,sans-Serif" font-size="9.00">::IElement&lt; T &gt;</text>
<polyline fill="none" stroke="black" points="258.5,-831 359.5,-831 "/>
<text text-anchor="middle" x="309" y="-819.8" font-family="Helvetica,sans-Serif" font-size="9.00"> </text>
<polyline fill="none" stroke="black" points="258.5,-813 359.5,-813 "/>
<text text-anchor="start" x="266.5" y="-801.8" font-family="Helvetica,sans-Serif" font-size="9.00">+ environment()</text>
<text text-anchor="start" x="266.5" y="-791.8" font-family="Helvetica,sans-Serif" font-size="9.00">+ id()</text>
<text text-anchor="start" x="266.5" y="-781.8" font-family="Helvetica,sans-Serif" font-size="9.00">+ imminent()</text>
<text text-anchor="start" x="266.5" y="-771.8" font-family="Helvetica,sans-Serif" font-size="9.00">+ input()</text>
<text text-anchor="start" x="266.5" y="-761.8" font-family="Helvetica,sans-Serif" font-size="9.00">+ nextactivation()</text>
<text text-anchor="start" x="266.5" y="-751.8" font-family="Helvetica,sans-Serif" font-size="9.00">+ output()</text>
</a>
</g>
</g>
<!-- Node12&#45;&gt;Node16 -->
<g id="edge10" class="edge"><title>Node12&#45;&gt;Node16</title>
<path fill="none" stroke="midnightblue" d="M238.137,-900.459C245.794,-890.469 254.047,-879.701 262.121,-869.166"/>
<polygon fill="none" stroke="midnightblue" points="235.168,-898.58 231.862,-908.646 240.723,-902.838 235.168,-898.58"/>
</g>
<!-- Node13&#45;&gt;Node9 -->
<g id="edge5" class="edge"><title>Node13&#45;&gt;Node9</title>
<path fill="none" stroke="#404040" d="M198.861,-620.745C194.508,-577.323 188.012,-512.528 181.87,-451.269"/>
<polygon fill="none" stroke="#404040" points="181.845,-451.012 177.266,-445.441 180.647,-439.072 185.226,-444.643 181.845,-451.012"/>
<text text-anchor="middle" x="216" y="-541.8" font-family="Helvetica,sans-Serif" font-size="9.00"> #m_time</text>
</g>
<!-- Node14 -->
<g id="node7" class="node"><title>Node14</title>
<g id="a_node7"><a xlink:href="../../d7/df1/interfacecom_1_1github_1_1aptd_1_1simulation_1_1elements_1_1dispatcher_1_1IDispatcher.htm" target="_top" xlink:title="{com.github.aptd.simulation.elements.dispatcher.\lIDispatcher\&lt; IDispatcher\&lt;?\&gt; \&gt;\n||}">
<polygon fill="none" stroke="black" points="260.5,-250 260.5,-314 473.5,-314 473.5,-250 260.5,-250"/>
<text text-anchor="start" x="268.5" y="-302.8" font-family="Helvetica,sans-Serif" font-size="9.00">com.github.aptd.simulation.elements.dispatcher.</text>
<text text-anchor="middle" x="367" y="-292.8" font-family="Helvetica,sans-Serif" font-size="9.00">IDispatcher&lt; IDispatcher&lt;?&gt; &gt;</text>
<polyline fill="none" stroke="black" points="260.5,-286 473.5,-286 "/>
<text text-anchor="middle" x="367" y="-274.8" font-family="Helvetica,sans-Serif" font-size="9.00"> </text>
<polyline fill="none" stroke="black" points="260.5,-268 473.5,-268 "/>
<text text-anchor="middle" x="367" y="-256.8" font-family="Helvetica,sans-Serif" font-size="9.00"> </text>
</a>
</g>
</g>
<!-- Node14&#45;&gt;Node8 -->
<g id="edge7" class="edge"><title>Node14&#45;&gt;Node8</title>
<path fill="none" stroke="midnightblue" d="M342.33,-240.953C315.643,-197.634 273.31,-128.914 246.358,-85.1638"/>
<polygon fill="none" stroke="midnightblue" points="339.387,-242.85 347.612,-249.528 345.347,-239.178 339.387,-242.85"/>
</g>
<!-- Node15 -->
<g id="node8" class="node"><title>Node15</title>
<g id="a_node8"><a xlink:href="../../d7/df1/interfacecom_1_1github_1_1aptd_1_1simulation_1_1elements_1_1dispatcher_1_1IDispatcher.htm" target="_top" xlink:title="dispatcher interface ">
<polygon fill="none" stroke="black" points="260.5,-512 260.5,-576 473.5,-576 473.5,-512 260.5,-512"/>
<text text-anchor="start" x="268.5" y="-564.8" font-family="Helvetica,sans-Serif" font-size="9.00">com.github.aptd.simulation.elements.dispatcher.</text>
<text text-anchor="middle" x="367" y="-554.8" font-family="Helvetica,sans-Serif" font-size="9.00">IDispatcher&lt; T extends IDispatcher&lt;?&gt;</text>
<polyline fill="none" stroke="black" points="260.5,-548 473.5,-548 "/>
<text text-anchor="middle" x="367" y="-536.8" font-family="Helvetica,sans-Serif" font-size="9.00"> </text>
<polyline fill="none" stroke="black" points="260.5,-530 473.5,-530 "/>
<text text-anchor="middle" x="367" y="-518.8" font-family="Helvetica,sans-Serif" font-size="9.00"> </text>
</a>
</g>
</g>
<!-- Node15&#45;&gt;Node14 -->
<g id="edge8" class="edge"><title>Node15&#45;&gt;Node14</title>
<path fill="none" stroke="orange" d="M367,-501.658C367,-449.491 367,-360.945 367,-314.14"/>
<polygon fill="orange" stroke="orange" points="363.5,-501.896 367,-511.896 370.5,-501.896 363.5,-501.896"/>
<text text-anchor="middle" x="407" y="-460.8" font-family="Helvetica,sans-Serif" font-size="9.00"> &lt; IDispatcher&lt;?&gt; &gt;</text>
</g>
<!-- Node16&#45;&gt;Node15 -->
<g id="edge9" class="edge"><title>Node16&#45;&gt;Node15</title>
<path fill="none" stroke="midnightblue" d="M324.783,-734.978C336.323,-683.047 351.415,-615.131 360.076,-576.158"/>
<polygon fill="none" stroke="midnightblue" points="321.351,-734.286 322.598,-744.807 328.184,-735.805 321.351,-734.286"/>
</g>
</g>
</svg>
        <g id="navigator" transform="translate(0 0)" fill="#404254">
                <rect fill="#f2f5e9" fill-opacity="0.5" stroke="#606060" stroke-width=".5" x="0" y="0" width="60" height="60"/>
                <use id="zoomplus" xlink:href="#zoomPlus" x="17" y="9" onmousedown="handleZoom(evt,'in')"/>
                <use id="zoomminus" xlink:href="#zoomMin" x="42" y="9" onmousedown="handleZoom(evt,'out')"/>
                <use id="reset" xlink:href="#resetDef" x="30" y="36" onmousedown="handleReset()"/>
                <g id="arrowUp" xlink:href="#dirArrow" transform="translate(30 24)" onmousedown="handlePan(0,-1)">
                  <use xlink:href="#rim" fill="#404040">
                        <set attributeName="fill" to="#808080" begin="arrowUp.mouseover" end="arrowUp.mouseout"/>
                  </use>
                  <path fill="none" stroke="white" stroke-width="1.5" d="M0,-3.0v7 M-2.5,-0.5L0,-3.0L2.5,-0.5"/>
                </g>
                <g id="arrowRight" xlink:href="#dirArrow" transform="rotate(90) translate(36 -43)" onmousedown="handlePan(1,0)">
                  <use xlink:href="#rim" fill="#404040">
                        <set attributeName="fill" to="#808080" begin="arrowRight.mouseover" end="arrowRight.mouseout"/>
                  </use>
                  <path fill="none" stroke="white" stroke-width="1.5" d="M0,-3.0v7 M-2.5,-0.5L0,-3.0L2.5,-0.5"/>
                </g>
                <g id="arrowDown" xlink:href="#dirArrow" transform="rotate(180) translate(-30 -48)" onmousedown="handlePan(0,1)">
                  <use xlink:href="#rim" fill="#404040">
                        <set attributeName="fill" to="#808080" begin="arrowDown.mouseover" end="arrowDown.mouseout"/>
                  </use>
                  <path fill="none" stroke="white" stroke-width="1.5" d="M0,-3.0v7 M-2.5,-0.5L0,-3.0L2.5,-0.5"/>
                </g>
                <g id="arrowLeft" xlink:href="#dirArrow" transform="rotate(270) translate(-36 17)" onmousedown="handlePan(-1,0)">
                  <use xlink:href="#rim" fill="#404040">
                        <set attributeName="fill" to="#808080" begin="arrowLeft.mouseover" end="arrowLeft.mouseout"/>
                  </use>
                  <path fill="none" stroke="white" stroke-width="1.5" d="M0,-3.0v7 M-2.5,-0.5L0,-3.0L2.5,-0.5"/>
                </g>
        </g>
        <svg viewBox="0 0 15 15" width="100%" height="30px" preserveAspectRatio="xMaxYMin meet">
         <g id="arrow_out" transform="scale(0.3 0.3)">
          <a xlink:href="classcom_1_1github_1_1aptd_1_1simulation_1_1elements_1_1dispatcher_1_1CDispatcher__coll__graph_org.svg" target="_base">
           <rect id="button" ry="5" rx="5" y="6" x="6" height="38" width="38"
                fill="#f2f5e9" fill-opacity="0.5" stroke="#606060" stroke-width="1.0"/>
           <path id="arrow"
             d="M 11.500037,31.436501 C 11.940474,20.09759 22.043105,11.32322 32.158766,21.979434 L 37.068811,17.246167 C 37.068811,17.246167 37.088388,32 37.088388,32 L 22.160133,31.978069 C 22.160133,31.978069 26.997745,27.140456 26.997745,27.140456 C 18.528582,18.264221 13.291696,25.230495 11.500037,31.436501 z"
             style="fill:#404040;"/>
          </a>
         </g>
        </svg>
</svg>
