<?xml version="1.0" encoding="UTF-8" standalone="no"?>
<!DOCTYPE svg PUBLIC "-//W3C//DTD SVG 1.1//EN"
 "http://www.w3.org/Graphics/SVG/1.1/DTD/svg11.dtd">
<!-- Generated by graphviz version 2.36.0 (20140111.2315)
 -->
<!-- Title: com.github.aptd.simulation.elements.grid.IGridPhysical Pages: 1 -->
<svg width="192pt" height="176pt"
 viewBox="0.00 0.00 192.00 176.00" xmlns="http://www.w3.org/2000/svg" xmlns:xlink="http://www.w3.org/1999/xlink">
<g id="graph0" class="graph" transform="scale(1 1) rotate(0) translate(4 172)">
<title>com.github.aptd.simulation.elements.grid.IGridPhysical</title>
<!-- Node2 -->
<g id="node1" class="node"><title>Node2</title>
<polygon fill="#bfbfbf" stroke="black" points="-1,-1 -1,-65 185,-65 185,-1 -1,-1"/>
<text text-anchor="start" x="7" y="-53.8" font-family="Helvetica,sans-Serif" font-size="9.00">com.github.aptd.simulation.elements.grid.</text>
<text text-anchor="middle" x="92" y="-43.8" font-family="Helvetica,sans-Serif" font-size="9.00">IGridPhysical</text>
<polyline fill="none" stroke="black" points="-1,-37 185,-37 "/>
<text text-anchor="middle" x="92" y="-25.8" font-family="Helvetica,sans-Serif" font-size="9.00"> </text>
<polyline fill="none" stroke="black" points="-1,-19 185,-19 "/>
<text text-anchor="middle" x="92" y="-7.8" font-family="Helvetica,sans-Serif" font-size="9.00"> </text>
</g>
<!-- Node3 -->
<g id="node2" class="node"><title>Node3</title>
<g id="a_node2"><a xlink:href="../../da/d62/interfacecom_1_1github_1_1aptd_1_1simulation_1_1elements_1_1grid_1_1IGrid.htm" target="_top" xlink:title="main grid definition ">
<polygon fill="none" stroke="black" points="-1,-103 -1,-167 185,-167 185,-103 -1,-103"/>
<text text-anchor="start" x="7" y="-155.8" font-family="Helvetica,sans-Serif" font-size="9.00">com.github.aptd.simulation.elements.grid.</text>
<text text-anchor="middle" x="92" y="-145.8" font-family="Helvetica,sans-Serif" font-size="9.00">IGrid</text>
<polyline fill="none" stroke="black" points="-1,-139 185,-139 "/>
<text text-anchor="middle" x="92" y="-127.8" font-family="Helvetica,sans-Serif" font-size="9.00"> </text>
<polyline fill="none" stroke="black" points="-1,-121 185,-121 "/>
<text text-anchor="middle" x="92" y="-109.8" font-family="Helvetica,sans-Serif" font-size="9.00"> </text>
</a>
</g>
</g>
<!-- Node3&#45;&gt;Node2 -->
<g id="edge1" class="edge"><title>Node3&#45;&gt;Node2</title>
<path fill="none" stroke="midnightblue" d="M92,-92.7162C92,-83.4731 92,-73.8199 92,-65.0732"/>
<polygon fill="none" stroke="midnightblue" points="88.5001,-92.9075 92,-102.908 95.5001,-92.9076 88.5001,-92.9075"/>
</g>
</g>
</svg>
