<?xml version="1.0" encoding="UTF-8" standalone="no"?>
<!DOCTYPE svg PUBLIC "-//W3C//DTD SVG 1.1//EN"
 "http://www.w3.org/Graphics/SVG/1.1/DTD/svg11.dtd">
<!-- Generated by graphviz version 2.36.0 (20140111.2315)
 -->
<!-- Title: com.github.aptd.simulation.elements.train.CWagon Pages: 1 -->
<svg width="382pt" height="986pt"
 viewBox="0.00 0.00 382.00 986.00" xmlns="http://www.w3.org/2000/svg" xmlns:xlink="http://www.w3.org/1999/xlink">
<g id="graph0" class="graph" transform="scale(1 1) rotate(0) translate(4 982)">
<title>com.github.aptd.simulation.elements.train.CWagon</title>
<!-- Node0 -->
<g id="node1" class="node"><title>Node0</title>
<polygon fill="#bfbfbf" stroke="black" points="45,-1 45,-165 233,-165 233,-1 45,-1"/>
<text text-anchor="start" x="53" y="-153.8" font-family="Helvetica,sans-Serif" font-size="9.00">com.github.aptd.simulation.elements.train.</text>
<text text-anchor="middle" x="139" y="-143.8" font-family="Helvetica,sans-Serif" font-size="9.00">CWagon</text>
<polyline fill="none" stroke="black" points="45,-137 233,-137 "/>
<text text-anchor="start" x="53" y="-125.8" font-family="Helvetica,sans-Serif" font-size="9.00">&#45; m_maximum</text>
<text text-anchor="start" x="53" y="-115.8" font-family="Helvetica,sans-Serif" font-size="9.00">&#45; m_passanger</text>
<text text-anchor="start" x="53" y="-105.8" font-family="Helvetica,sans-Serif" font-size="9.00">&#45; FUNCTOR</text>
<text text-anchor="start" x="53" y="-95.8" font-family="Helvetica,sans-Serif" font-size="9.00">&#45; serialVersionUID</text>
<polyline fill="none" stroke="black" points="45,-89 233,-89 "/>
<text text-anchor="start" x="53" y="-77.8" font-family="Helvetica,sans-Serif" font-size="9.00">+ add()</text>
<text text-anchor="start" x="53" y="-67.8" font-family="Helvetica,sans-Serif" font-size="9.00">+ announcement()</text>
<text text-anchor="start" x="53" y="-57.8" font-family="Helvetica,sans-Serif" font-size="9.00">+ free()</text>
<text text-anchor="start" x="53" y="-47.8" font-family="Helvetica,sans-Serif" font-size="9.00">+ passenger()</text>
<text text-anchor="start" x="53" y="-37.8" font-family="Helvetica,sans-Serif" font-size="9.00">+ remove()</text>
<text text-anchor="start" x="53" y="-27.8" font-family="Helvetica,sans-Serif" font-size="9.00">+ size()</text>
<text text-anchor="start" x="53" y="-17.8" font-family="Helvetica,sans-Serif" font-size="9.00"># individualliteral()</text>
<text text-anchor="start" x="53" y="-7.8" font-family="Helvetica,sans-Serif" font-size="9.00">&#45; CWagon()</text>
</g>
<!-- Node1 -->
<g id="node2" class="node"><title>Node1</title>
<g id="a_node2"><a xlink:href="../../d6/df3/classcom_1_1github_1_1aptd_1_1simulation_1_1elements_1_1IBaseElement.htm" target="_top" xlink:title="base simulation element structure ">
<polygon fill="none" stroke="black" points="18,-205 18,-529 158,-529 158,-205 18,-205"/>
<text text-anchor="start" x="26" y="-517.8" font-family="Helvetica,sans-Serif" font-size="9.00">com::github::aptd::</text>
<text text-anchor="start" x="26" y="-507.8" font-family="Helvetica,sans-Serif" font-size="9.00">simulation::elements</text>
<text text-anchor="middle" x="88" y="-497.8" font-family="Helvetica,sans-Serif" font-size="9.00">::IBaseElement&lt; IWagon&lt;?&gt; &gt;</text>
<polyline fill="none" stroke="black" points="18,-491 158,-491 "/>
<text text-anchor="start" x="26" y="-479.8" font-family="Helvetica,sans-Serif" font-size="9.00"># m_id</text>
<text text-anchor="start" x="26" y="-469.8" font-family="Helvetica,sans-Serif" font-size="9.00"># m_input</text>
<text text-anchor="start" x="26" y="-459.8" font-family="Helvetica,sans-Serif" font-size="9.00"># m_nextactivation</text>
<text text-anchor="start" x="26" y="-449.8" font-family="Helvetica,sans-Serif" font-size="9.00"># m_time</text>
<text text-anchor="start" x="26" y="-439.8" font-family="Helvetica,sans-Serif" font-size="9.00">&#45; m_environment</text>
<text text-anchor="start" x="26" y="-429.8" font-family="Helvetica,sans-Serif" font-size="9.00">&#45; m_external</text>
<text text-anchor="start" x="26" y="-419.8" font-family="Helvetica,sans-Serif" font-size="9.00">&#45; m_functor</text>
<text text-anchor="start" x="26" y="-409.8" font-family="Helvetica,sans-Serif" font-size="9.00">&#45; m_timezone</text>
<text text-anchor="start" x="26" y="-399.8" font-family="Helvetica,sans-Serif" font-size="9.00">&#45; serialVersionUID</text>
<polyline fill="none" stroke="black" points="18,-393 158,-393 "/>
<text text-anchor="start" x="26" y="-381.8" font-family="Helvetica,sans-Serif" font-size="9.00">+ call()</text>
<text text-anchor="start" x="26" y="-371.8" font-family="Helvetica,sans-Serif" font-size="9.00">+ environment()</text>
<text text-anchor="start" x="26" y="-361.8" font-family="Helvetica,sans-Serif" font-size="9.00">+ equals()</text>
<text text-anchor="start" x="26" y="-351.8" font-family="Helvetica,sans-Serif" font-size="9.00">+ hashCode()</text>
<text text-anchor="start" x="26" y="-341.8" font-family="Helvetica,sans-Serif" font-size="9.00">+ id()</text>
<text text-anchor="start" x="26" y="-331.8" font-family="Helvetica,sans-Serif" font-size="9.00">+ imminent()</text>
<text text-anchor="start" x="26" y="-321.8" font-family="Helvetica,sans-Serif" font-size="9.00">+ input()</text>
<text text-anchor="start" x="26" y="-311.8" font-family="Helvetica,sans-Serif" font-size="9.00">+ literal()</text>
<text text-anchor="start" x="26" y="-301.8" font-family="Helvetica,sans-Serif" font-size="9.00">+ literal()</text>
<text text-anchor="start" x="26" y="-291.8" font-family="Helvetica,sans-Serif" font-size="9.00">+ nextactivation()</text>
<text text-anchor="start" x="26" y="-281.8" font-family="Helvetica,sans-Serif" font-size="9.00">+ output()</text>
<text text-anchor="start" x="26" y="-271.8" font-family="Helvetica,sans-Serif" font-size="9.00">+ toString()</text>
<text text-anchor="start" x="26" y="-261.8" font-family="Helvetica,sans-Serif" font-size="9.00"># IBaseElement()</text>
<text text-anchor="start" x="26" y="-251.8" font-family="Helvetica,sans-Serif" font-size="9.00"># individualliteral()</text>
<text text-anchor="start" x="26" y="-241.8" font-family="Helvetica,sans-Serif" font-size="9.00">&#45; currentTime()</text>
<text text-anchor="start" x="26" y="-231.8" font-family="Helvetica,sans-Serif" font-size="9.00">&#45; getNextActivation()</text>
<text text-anchor="start" x="26" y="-221.8" font-family="Helvetica,sans-Serif" font-size="9.00">&#45; maxTime()</text>
<text text-anchor="start" x="26" y="-211.8" font-family="Helvetica,sans-Serif" font-size="9.00">&#45; setNextActivation()</text>
</a>
</g>
</g>
<!-- Node1&#45;&gt;Node0 -->
<g id="edge1" class="edge"><title>Node1&#45;&gt;Node0</title>
<path fill="none" stroke="midnightblue" d="M118.939,-194.924C120.795,-184.664 122.61,-174.628 124.343,-165.045"/>
<polygon fill="none" stroke="midnightblue" points="115.485,-194.357 117.149,-204.821 122.373,-195.603 115.485,-194.357"/>
</g>
<!-- Node2 -->
<g id="node3" class="node"><title>Node2</title>
<g id="a_node3"><a xlink:href="../../dd/dd7/interfacecom_1_1github_1_1aptd_1_1simulation_1_1elements_1_1IElement.htm" target="_top" xlink:title="{com.github.aptd.simulation.elements.\lIElement\&lt; N \&gt;\n||+ environment()\l+ id()\l+ imminent()\l+ input()\l+ nextactivation()\l+ output()\l}">
<polygon fill="none" stroke="black" points="0,-577 0,-691 168,-691 168,-577 0,-577"/>
<text text-anchor="start" x="8" y="-679.8" font-family="Helvetica,sans-Serif" font-size="9.00">com.github.aptd.simulation.elements.</text>
<text text-anchor="middle" x="84" y="-669.8" font-family="Helvetica,sans-Serif" font-size="9.00">IElement&lt; N &gt;</text>
<polyline fill="none" stroke="black" points="0,-663 168,-663 "/>
<text text-anchor="middle" x="84" y="-651.8" font-family="Helvetica,sans-Serif" font-size="9.00"> </text>
<polyline fill="none" stroke="black" points="0,-645 168,-645 "/>
<text text-anchor="start" x="8" y="-633.8" font-family="Helvetica,sans-Serif" font-size="9.00">+ environment()</text>
<text text-anchor="start" x="8" y="-623.8" font-family="Helvetica,sans-Serif" font-size="9.00">+ id()</text>
<text text-anchor="start" x="8" y="-613.8" font-family="Helvetica,sans-Serif" font-size="9.00">+ imminent()</text>
<text text-anchor="start" x="8" y="-603.8" font-family="Helvetica,sans-Serif" font-size="9.00">+ input()</text>
<text text-anchor="start" x="8" y="-593.8" font-family="Helvetica,sans-Serif" font-size="9.00">+ nextactivation()</text>
<text text-anchor="start" x="8" y="-583.8" font-family="Helvetica,sans-Serif" font-size="9.00">+ output()</text>
</a>
</g>
</g>
<!-- Node2&#45;&gt;Node1 -->
<g id="edge2" class="edge"><title>Node2&#45;&gt;Node1</title>
<path fill="none" stroke="midnightblue" d="M85.0004,-566.722C85.1779,-554.963 85.3695,-542.267 85.5671,-529.18"/>
<polygon fill="none" stroke="midnightblue" points="81.4997,-566.749 84.8483,-576.8 88.4989,-566.854 81.4997,-566.749"/>
</g>
<!-- Node3 -->
<g id="node4" class="node"><title>Node3</title>
<g id="a_node4"><a xlink:href="../../dd/dd7/interfacecom_1_1github_1_1aptd_1_1simulation_1_1elements_1_1IElement.htm" target="_top" xlink:title="any object interface ">
<polygon fill="none" stroke="black" points="26,-744 26,-858 194,-858 194,-744 26,-744"/>
<text text-anchor="start" x="34" y="-846.8" font-family="Helvetica,sans-Serif" font-size="9.00">com.github.aptd.simulation.elements.</text>
<text text-anchor="middle" x="110" y="-836.8" font-family="Helvetica,sans-Serif" font-size="9.00">IElement&lt; T extends IAgent&lt;?&gt;</text>
<polyline fill="none" stroke="black" points="26,-830 194,-830 "/>
<text text-anchor="middle" x="110" y="-818.8" font-family="Helvetica,sans-Serif" font-size="9.00"> </text>
<polyline fill="none" stroke="black" points="26,-812 194,-812 "/>
<text text-anchor="start" x="34" y="-800.8" font-family="Helvetica,sans-Serif" font-size="9.00">+ environment()</text>
<text text-anchor="start" x="34" y="-790.8" font-family="Helvetica,sans-Serif" font-size="9.00">+ id()</text>
<text text-anchor="start" x="34" y="-780.8" font-family="Helvetica,sans-Serif" font-size="9.00">+ imminent()</text>
<text text-anchor="start" x="34" y="-770.8" font-family="Helvetica,sans-Serif" font-size="9.00">+ input()</text>
<text text-anchor="start" x="34" y="-760.8" font-family="Helvetica,sans-Serif" font-size="9.00">+ nextactivation()</text>
<text text-anchor="start" x="34" y="-750.8" font-family="Helvetica,sans-Serif" font-size="9.00">+ output()</text>
</a>
</g>
</g>
<!-- Node3&#45;&gt;Node2 -->
<g id="edge3" class="edge"><title>Node3&#45;&gt;Node2</title>
<path fill="none" stroke="orange" d="M99.5303,-733.558C97.3101,-719.468 94.9874,-704.728 92.835,-691.068"/>
<polygon fill="orange" stroke="orange" points="96.111,-734.345 101.125,-743.678 103.026,-733.255 96.111,-734.345"/>
<text text-anchor="middle" x="109.5" y="-712.8" font-family="Helvetica,sans-Serif" font-size="9.00"> &lt; N &gt;</text>
</g>
<!-- Node4 -->
<g id="node5" class="node"><title>Node4</title>
<g id="a_node5"><a xlink:href="../../d4/d0d/interfacecom_1_1github_1_1aptd_1_1simulation_1_1elements_1_1IPerceiveable.htm" target="_top" xlink:title="any object which be perceived by an agent ">
<polygon fill="none" stroke="black" points="120,-903 120,-977 288,-977 288,-903 120,-903"/>
<text text-anchor="start" x="128" y="-965.8" font-family="Helvetica,sans-Serif" font-size="9.00">com.github.aptd.simulation.elements.</text>
<text text-anchor="middle" x="204" y="-955.8" font-family="Helvetica,sans-Serif" font-size="9.00">IPerceiveable</text>
<polyline fill="none" stroke="black" points="120,-949 288,-949 "/>
<text text-anchor="middle" x="204" y="-937.8" font-family="Helvetica,sans-Serif" font-size="9.00"> </text>
<polyline fill="none" stroke="black" points="120,-931 288,-931 "/>
<text text-anchor="start" x="128" y="-919.8" font-family="Helvetica,sans-Serif" font-size="9.00">+ literal()</text>
<text text-anchor="start" x="128" y="-909.8" font-family="Helvetica,sans-Serif" font-size="9.00">+ literal()</text>
</a>
</g>
</g>
<!-- Node4&#45;&gt;Node3 -->
<g id="edge4" class="edge"><title>Node4&#45;&gt;Node3</title>
<path fill="none" stroke="midnightblue" d="M173.186,-894.091C165.311,-882.613 156.746,-870.129 148.536,-858.165"/>
<polygon fill="none" stroke="midnightblue" points="170.513,-896.381 179.057,-902.646 176.285,-892.42 170.513,-896.381"/>
</g>
<!-- Node7 -->
<g id="node8" class="node"><title>Node7</title>
<g id="a_node8"><a xlink:href="../../dd/dd7/interfacecom_1_1github_1_1aptd_1_1simulation_1_1elements_1_1IElement.htm" target="_top" xlink:title="any object interface ">
<polygon fill="none" stroke="black" points="215.5,-739 215.5,-863 316.5,-863 316.5,-739 215.5,-739"/>
<text text-anchor="start" x="223.5" y="-851.8" font-family="Helvetica,sans-Serif" font-size="9.00">com::github::aptd::</text>
<text text-anchor="start" x="223.5" y="-841.8" font-family="Helvetica,sans-Serif" font-size="9.00">simulation::elements</text>
<text text-anchor="middle" x="266" y="-831.8" font-family="Helvetica,sans-Serif" font-size="9.00">::IElement&lt; T &gt;</text>
<polyline fill="none" stroke="black" points="215.5,-825 316.5,-825 "/>
<text text-anchor="middle" x="266" y="-813.8" font-family="Helvetica,sans-Serif" font-size="9.00"> </text>
<polyline fill="none" stroke="black" points="215.5,-807 316.5,-807 "/>
<text text-anchor="start" x="223.5" y="-795.8" font-family="Helvetica,sans-Serif" font-size="9.00">+ environment()</text>
<text text-anchor="start" x="223.5" y="-785.8" font-family="Helvetica,sans-Serif" font-size="9.00">+ id()</text>
<text text-anchor="start" x="223.5" y="-775.8" font-family="Helvetica,sans-Serif" font-size="9.00">+ imminent()</text>
<text text-anchor="start" x="223.5" y="-765.8" font-family="Helvetica,sans-Serif" font-size="9.00">+ input()</text>
<text text-anchor="start" x="223.5" y="-755.8" font-family="Helvetica,sans-Serif" font-size="9.00">+ nextactivation()</text>
<text text-anchor="start" x="223.5" y="-745.8" font-family="Helvetica,sans-Serif" font-size="9.00">+ output()</text>
</a>
</g>
</g>
<!-- Node4&#45;&gt;Node7 -->
<g id="edge8" class="edge"><title>Node4&#45;&gt;Node7</title>
<path fill="none" stroke="midnightblue" d="M224.701,-893.257C229.068,-883.608 233.742,-873.279 238.319,-863.166"/>
<polygon fill="none" stroke="midnightblue" points="221.386,-892.093 220.452,-902.646 227.764,-894.979 221.386,-892.093"/>
</g>
<!-- Node5 -->
<g id="node6" class="node"><title>Node5</title>
<g id="a_node6"><a xlink:href="../../d6/d59/interfacecom_1_1github_1_1aptd_1_1simulation_1_1elements_1_1train_1_1IWagon.htm" target="_top" xlink:title="{com.github.aptd.simulation.elements.train.\lIWagon\&lt; IWagon\&lt;?\&gt; \&gt;\n||+ add()\l+ announcement()\l+ free()\l+ passenger()\l+ remove()\l+ size()\l}">
<polygon fill="none" stroke="black" points="183,-310 183,-424 371,-424 371,-310 183,-310"/>
<text text-anchor="start" x="191" y="-412.8" font-family="Helvetica,sans-Serif" font-size="9.00">com.github.aptd.simulation.elements.train.</text>
<text text-anchor="middle" x="277" y="-402.8" font-family="Helvetica,sans-Serif" font-size="9.00">IWagon&lt; IWagon&lt;?&gt; &gt;</text>
<polyline fill="none" stroke="black" points="183,-396 371,-396 "/>
<text text-anchor="middle" x="277" y="-384.8" font-family="Helvetica,sans-Serif" font-size="9.00"> </text>
<polyline fill="none" stroke="black" points="183,-378 371,-378 "/>
<text text-anchor="start" x="191" y="-366.8" font-family="Helvetica,sans-Serif" font-size="9.00">+ add()</text>
<text text-anchor="start" x="191" y="-356.8" font-family="Helvetica,sans-Serif" font-size="9.00">+ announcement()</text>
<text text-anchor="start" x="191" y="-346.8" font-family="Helvetica,sans-Serif" font-size="9.00">+ free()</text>
<text text-anchor="start" x="191" y="-336.8" font-family="Helvetica,sans-Serif" font-size="9.00">+ passenger()</text>
<text text-anchor="start" x="191" y="-326.8" font-family="Helvetica,sans-Serif" font-size="9.00">+ remove()</text>
<text text-anchor="start" x="191" y="-316.8" font-family="Helvetica,sans-Serif" font-size="9.00">+ size()</text>
</a>
</g>
</g>
<!-- Node5&#45;&gt;Node0 -->
<g id="edge5" class="edge"><title>Node5&#45;&gt;Node0</title>
<path fill="none" stroke="midnightblue" d="M245.059,-300.73C225.283,-260.318 199.732,-208.105 178.664,-165.053"/>
<polygon fill="none" stroke="midnightblue" points="242.031,-302.505 249.571,-309.949 248.319,-299.428 242.031,-302.505"/>
</g>
<!-- Node6 -->
<g id="node7" class="node"><title>Node6</title>
<g id="a_node7"><a xlink:href="../../d6/d59/interfacecom_1_1github_1_1aptd_1_1simulation_1_1elements_1_1train_1_1IWagon.htm" target="_top" xlink:title="wagon interface ">
<polygon fill="none" stroke="black" points="186,-577 186,-691 374,-691 374,-577 186,-577"/>
<text text-anchor="start" x="194" y="-679.8" font-family="Helvetica,sans-Serif" font-size="9.00">com.github.aptd.simulation.elements.train.</text>
<text text-anchor="middle" x="280" y="-669.8" font-family="Helvetica,sans-Serif" font-size="9.00">IWagon&lt; T extends IWagon&lt;?&gt;</text>
<polyline fill="none" stroke="black" points="186,-663 374,-663 "/>
<text text-anchor="middle" x="280" y="-651.8" font-family="Helvetica,sans-Serif" font-size="9.00"> </text>
<polyline fill="none" stroke="black" points="186,-645 374,-645 "/>
<text text-anchor="start" x="194" y="-633.8" font-family="Helvetica,sans-Serif" font-size="9.00">+ add()</text>
<text text-anchor="start" x="194" y="-623.8" font-family="Helvetica,sans-Serif" font-size="9.00">+ announcement()</text>
<text text-anchor="start" x="194" y="-613.8" font-family="Helvetica,sans-Serif" font-size="9.00">+ free()</text>
<text text-anchor="start" x="194" y="-603.8" font-family="Helvetica,sans-Serif" font-size="9.00">+ passenger()</text>
<text text-anchor="start" x="194" y="-593.8" font-family="Helvetica,sans-Serif" font-size="9.00">+ remove()</text>
<text text-anchor="start" x="194" y="-583.8" font-family="Helvetica,sans-Serif" font-size="9.00">+ size()</text>
</a>
</g>
</g>
<!-- Node6&#45;&gt;Node5 -->
<g id="edge6" class="edge"><title>Node6&#45;&gt;Node5</title>
<path fill="none" stroke="orange" d="M279.25,-566.785C278.753,-522.851 278.107,-465.82 277.635,-424.119"/>
<polygon fill="orange" stroke="orange" points="275.751,-566.841 279.364,-576.8 282.75,-566.761 275.751,-566.841"/>
<text text-anchor="middle" x="311.5" y="-550.8" font-family="Helvetica,sans-Serif" font-size="9.00"> &lt; IWagon&lt;?&gt; &gt;</text>
</g>
<!-- Node7&#45;&gt;Node6 -->
<g id="edge7" class="edge"><title>Node7&#45;&gt;Node6</title>
<path fill="none" stroke="midnightblue" d="M272.06,-728.583C273.126,-716.02 274.221,-703.108 275.245,-691.041"/>
<polygon fill="none" stroke="midnightblue" points="268.571,-728.3 271.213,-738.56 275.546,-728.892 268.571,-728.3"/>
</g>
</g>
</svg>
