<?xml version="1.0" encoding="UTF-8" standalone="no"?>
<!DOCTYPE svg PUBLIC "-//W3C//DTD SVG 1.1//EN"
 "http://www.w3.org/Graphics/SVG/1.1/DTD/svg11.dtd">
<!-- Generated by graphviz version 2.36.0 (20140111.2315)
 -->
<!-- Title: com.github.aptd.simulation.common.CConfiguration Pages: 1 -->
<svg width="246pt" height="174pt"
 viewBox="0.00 0.00 246.00 174.00" xmlns="http://www.w3.org/2000/svg" xmlns:xlink="http://www.w3.org/1999/xlink">
<g id="graph0" class="graph" transform="scale(1 1) rotate(0) translate(4 170)">
<title>com.github.aptd.simulation.common.CConfiguration</title>
<!-- Node1 -->
<g id="node1" class="node"><title>Node1</title>
<polygon fill="#bfbfbf" stroke="black" points="0,-1 0,-165 166,-165 166,-1 0,-1"/>
<text text-anchor="start" x="8" y="-153.8" font-family="Helvetica,sans-Serif" font-size="9.00">com.github.aptd.simulation.common.</text>
<text text-anchor="middle" x="83" y="-143.8" font-family="Helvetica,sans-Serif" font-size="9.00">CConfiguration</text>
<polyline fill="none" stroke="black" points="0,-137 166,-137 "/>
<text text-anchor="start" x="8" y="-125.8" font-family="Helvetica,sans-Serif" font-size="9.00">&#45; m_agentaction</text>
<text text-anchor="start" x="8" y="-115.8" font-family="Helvetica,sans-Serif" font-size="9.00">&#45; m_configuration</text>
<polyline fill="none" stroke="black" points="0,-109 166,-109 "/>
<text text-anchor="start" x="8" y="-97.8" font-family="Helvetica,sans-Serif" font-size="9.00">+ agentaction()</text>
<text text-anchor="start" x="8" y="-87.8" font-family="Helvetica,sans-Serif" font-size="9.00">+ agentaction()</text>
<text text-anchor="start" x="8" y="-77.8" font-family="Helvetica,sans-Serif" font-size="9.00">+ get()</text>
<text text-anchor="start" x="8" y="-67.8" font-family="Helvetica,sans-Serif" font-size="9.00">+ getOrDefault()</text>
<text text-anchor="start" x="8" y="-57.8" font-family="Helvetica,sans-Serif" font-size="9.00">+ loadfile()</text>
<text text-anchor="start" x="8" y="-47.8" font-family="Helvetica,sans-Serif" font-size="9.00">+ loadstring()</text>
<text text-anchor="start" x="8" y="-37.8" font-family="Helvetica,sans-Serif" font-size="9.00">+ createdefault()</text>
<text text-anchor="start" x="8" y="-27.8" font-family="Helvetica,sans-Serif" font-size="9.00">&#45; CConfiguration()</text>
<text text-anchor="start" x="8" y="-17.8" font-family="Helvetica,sans-Serif" font-size="9.00">&#45; orDefaultPath()</text>
<text text-anchor="start" x="8" y="-7.8" font-family="Helvetica,sans-Serif" font-size="9.00">&#45; recursivedescent()</text>
</g>
<!-- Node1&#45;&gt;Node1 -->
<g id="edge1" class="edge"><title>Node1&#45;&gt;Node1</title>
<path fill="none" stroke="#404040" d="M166.208,-109.949C176.922,-105.276 184,-96.293 184,-83 184,-74.4842 181.095,-67.7371 176.191,-62.7588"/>
<polygon fill="none" stroke="#404040" points="176.168,-62.7439 168.957,-62.7172 166.208,-56.0506 173.419,-56.0773 176.168,-62.7439"/>
<text text-anchor="middle" x="211" y="-80.8" font-family="Helvetica,sans-Serif" font-size="9.00"> +INSTANCE</text>
</g>
</g>
</svg>
