<?xml version="1.0" encoding="UTF-8" standalone="no"?>
<!DOCTYPE svg PUBLIC "-//W3C//DTD SVG 1.1//EN"
 "http://www.w3.org/Graphics/SVG/1.1/DTD/svg11.dtd">
<!-- Generated by graphviz version 2.36.0 (20140111.2315)
 -->
<!-- Title: com.github.aptd.simulation.core.messaging.local.CMessenger Pages: 1 -->
<svg width="226pt" height="206pt"
 viewBox="0.00 0.00 226.00 206.00" xmlns="http://www.w3.org/2000/svg" xmlns:xlink="http://www.w3.org/1999/xlink">
<g id="graph0" class="graph" transform="scale(1 1) rotate(0) translate(4 202)">
<title>com.github.aptd.simulation.core.messaging.local.CMessenger</title>
<!-- Node0 -->
<g id="node1" class="node"><title>Node0</title>
<polygon fill="#bfbfbf" stroke="black" points="0,-1 0,-95 218,-95 218,-1 0,-1"/>
<text text-anchor="start" x="8" y="-83.8" font-family="Helvetica,sans-Serif" font-size="9.00">com.github.aptd.simulation.core.messaging.local.</text>
<text text-anchor="middle" x="109" y="-73.8" font-family="Helvetica,sans-Serif" font-size="9.00">CMessenger</text>
<polyline fill="none" stroke="black" points="0,-67 218,-67 "/>
<text text-anchor="start" x="8" y="-55.8" font-family="Helvetica,sans-Serif" font-size="9.00">&#45; m_experiment</text>
<text text-anchor="start" x="8" y="-45.8" font-family="Helvetica,sans-Serif" font-size="9.00">&#45; OUTPUT_ONLY_FROM_IMMINENT</text>
<polyline fill="none" stroke="black" points="0,-39 218,-39 "/>
<text text-anchor="start" x="8" y="-27.8" font-family="Helvetica,sans-Serif" font-size="9.00">+ call()</text>
<text text-anchor="start" x="8" y="-17.8" font-family="Helvetica,sans-Serif" font-size="9.00">+ experiment()</text>
<text text-anchor="start" x="8" y="-7.8" font-family="Helvetica,sans-Serif" font-size="9.00">&#45; optionalfilteredstream()</text>
</g>
<!-- Node1 -->
<g id="node2" class="node"><title>Node1</title>
<g id="a_node2"><a xlink:href="../../d4/d5c/interfacecom_1_1github_1_1aptd_1_1simulation_1_1core_1_1messaging_1_1IMessenger.htm" target="_top" xlink:title="messenger interface (the messenger is a callable unit called in the preprocessing step of each cycle)...">
<polygon fill="none" stroke="black" points="11,-133 11,-197 207,-197 207,-133 11,-133"/>
<text text-anchor="start" x="19" y="-185.8" font-family="Helvetica,sans-Serif" font-size="9.00">com.github.aptd.simulation.core.messaging.</text>
<text text-anchor="middle" x="109" y="-175.8" font-family="Helvetica,sans-Serif" font-size="9.00">IMessenger</text>
<polyline fill="none" stroke="black" points="11,-169 207,-169 "/>
<text text-anchor="middle" x="109" y="-157.8" font-family="Helvetica,sans-Serif" font-size="9.00"> </text>
<polyline fill="none" stroke="black" points="11,-151 207,-151 "/>
<text text-anchor="middle" x="109" y="-139.8" font-family="Helvetica,sans-Serif" font-size="9.00"> </text>
</a>
</g>
</g>
<!-- Node1&#45;&gt;Node0 -->
<g id="edge1" class="edge"><title>Node1&#45;&gt;Node0</title>
<path fill="none" stroke="midnightblue" d="M109,-122.739C109,-113.83 109,-104.355 109,-95.2687"/>
<polygon fill="none" stroke="midnightblue" points="105.5,-122.879 109,-132.879 112.5,-122.879 105.5,-122.879"/>
</g>
</g>
</svg>
