<?xml version="1.0" encoding="UTF-8" standalone="no"?>
<!DOCTYPE svg PUBLIC "-//W3C//DTD SVG 1.1//EN"
 "http://www.w3.org/Graphics/SVG/1.1/DTD/svg11.dtd">
<!-- Generated by graphviz version 2.36.0 (20140111.2315)
 -->
<!-- Title: com.github.aptd.simulation.elements.train.CDoor.CGenerator.generate Pages: 1 -->
<svg width="644pt" height="36pt"
 viewBox="0.00 0.00 644.00 36.00" xmlns="http://www.w3.org/2000/svg" xmlns:xlink="http://www.w3.org/1999/xlink">
<g id="graph0" class="graph" transform="scale(1 1) rotate(0) translate(4 32)">
<title>com.github.aptd.simulation.elements.train.CDoor.CGenerator.generate</title>
<!-- Node2 -->
<g id="node1" class="node"><title>Node2</title>
<polygon fill="#bfbfbf" stroke="black" points="0,-0 0,-28 188,-28 188,-0 0,-0"/>
<text text-anchor="start" x="8" y="-16.8" font-family="Helvetica,sans-Serif" font-size="9.00">com.github.aptd.simulation.elements.train.</text>
<text text-anchor="middle" x="94" y="-6.8" font-family="Helvetica,sans-Serif" font-size="9.00">CDoor.CGenerator.generate</text>
</g>
<!-- Node3 -->
<g id="node2" class="node"><title>Node3</title>
<g id="a_node2"><a xlink:href="../../d1/d3a/classcom_1_1github_1_1aptd_1_1simulation_1_1elements_1_1train_1_1CDoor.htm#a2c1cf2b1a65c8a3befa66126bb5df2b6" target="_top" xlink:title="ctor ">
<polygon fill="none" stroke="black" points="224,-0 224,-28 412,-28 412,-0 224,-0"/>
<text text-anchor="start" x="232" y="-16.8" font-family="Helvetica,sans-Serif" font-size="9.00">com.github.aptd.simulation.elements.train.</text>
<text text-anchor="middle" x="318" y="-6.8" font-family="Helvetica,sans-Serif" font-size="9.00">CDoor.CDoor</text>
</a>
</g>
</g>
<!-- Node2&#45;&gt;Node3 -->
<g id="edge1" class="edge"><title>Node2&#45;&gt;Node3</title>
<path fill="none" stroke="midnightblue" d="M188.183,-14C196.535,-14 205.024,-14 213.456,-14"/>
<polygon fill="midnightblue" stroke="midnightblue" points="213.7,-17.5001 223.7,-14 213.699,-10.5001 213.7,-17.5001"/>
</g>
<!-- Node4 -->
<g id="node3" class="node"><title>Node4</title>
<g id="a_node3"><a xlink:href="../../d1/d3a/classcom_1_1github_1_1aptd_1_1simulation_1_1elements_1_1train_1_1CDoor.htm#a25c4880f185681acba675838318e7b9d" target="_top" xlink:title="com.github.aptd.simulation.elements.train.\lCDoor.determinenextstatechange">
<polygon fill="none" stroke="black" points="448,-0 448,-28 636,-28 636,-0 448,-0"/>
<text text-anchor="start" x="456" y="-16.8" font-family="Helvetica,sans-Serif" font-size="9.00">com.github.aptd.simulation.elements.train.</text>
<text text-anchor="middle" x="542" y="-6.8" font-family="Helvetica,sans-Serif" font-size="9.00">CDoor.determinenextstatechange</text>
</a>
</g>
</g>
<!-- Node3&#45;&gt;Node4 -->
<g id="edge2" class="edge"><title>Node3&#45;&gt;Node4</title>
<path fill="none" stroke="midnightblue" d="M412.183,-14C420.535,-14 429.024,-14 437.456,-14"/>
<polygon fill="midnightblue" stroke="midnightblue" points="437.7,-17.5001 447.7,-14 437.699,-10.5001 437.7,-17.5001"/>
</g>
</g>
</svg>
