<?xml version="1.0" encoding="UTF-8" standalone="no"?>
<!DOCTYPE svg PUBLIC "-//W3C//DTD SVG 1.1//EN"
 "http://www.w3.org/Graphics/SVG/1.1/DTD/svg11.dtd">
<!-- Generated by graphviz version 2.36.0 (20140111.2315)
 -->
<!-- Title: com.github.aptd.simulation.elements.IPerceiveable.literal Pages: 1 -->
<svg width="464pt" height="281pt"
 viewBox="0.00 0.00 464.00 281.00" xmlns="http://www.w3.org/2000/svg" xmlns:xlink="http://www.w3.org/1999/xlink">
<g id="graph0" class="graph" transform="scale(1 1) rotate(0) translate(4 277)">
<title>com.github.aptd.simulation.elements.IPerceiveable.literal</title>
<!-- Node1 -->
<g id="node1" class="node"><title>Node1</title>
<polygon fill="#bfbfbf" stroke="black" points="0,-117 0,-145 168,-145 168,-117 0,-117"/>
<text text-anchor="start" x="8" y="-133.8" font-family="Helvetica,sans-Serif" font-size="9.00">com.github.aptd.simulation.elements.</text>
<text text-anchor="middle" x="84" y="-123.8" font-family="Helvetica,sans-Serif" font-size="9.00">IPerceiveable.literal</text>
</g>
<!-- Node2 -->
<g id="node2" class="node"><title>Node2</title>
<g id="a_node2"><a xlink:href="../../de/df6/classcom_1_1github_1_1aptd_1_1simulation_1_1elements_1_1IBaseElement_1_1CTimeBeliefbase.htm#ad97f612a9a82f457ffc4e4f300bc928c" target="_top" xlink:title="com.github.aptd.simulation.elements.\lIBaseElement.CTimeBeliefbase.contains\lLiteral">
<polygon fill="none" stroke="black" points="238.5,-235 238.5,-273 421.5,-273 421.5,-235 238.5,-235"/>
<text text-anchor="start" x="246.5" y="-261.8" font-family="Helvetica,sans-Serif" font-size="9.00">com.github.aptd.simulation.elements.</text>
<text text-anchor="start" x="246.5" y="-251.8" font-family="Helvetica,sans-Serif" font-size="9.00">IBaseElement.CTimeBeliefbase.contains</text>
<text text-anchor="middle" x="330" y="-241.8" font-family="Helvetica,sans-Serif" font-size="9.00">Literal</text>
</a>
</g>
</g>
<!-- Node1&#45;&gt;Node2 -->
<g id="edge1" class="edge"><title>Node1&#45;&gt;Node2</title>
<path fill="none" stroke="midnightblue" d="M105.841,-152.273C128.161,-173.819 165.584,-206.525 204,-225 214.741,-230.166 226.452,-234.439 238.258,-237.967"/>
<polygon fill="midnightblue" stroke="midnightblue" points="108.185,-149.67 98.5989,-145.159 103.28,-154.664 108.185,-149.67"/>
</g>
<!-- Node3 -->
<g id="node3" class="node"><title>Node3</title>
<g id="a_node3"><a xlink:href="../../de/df6/classcom_1_1github_1_1aptd_1_1simulation_1_1elements_1_1IBaseElement_1_1CTimeBeliefbase.htm#acfa9c26dff4a0a3d0717e3835e844dbb" target="_top" xlink:title="com.github.aptd.simulation.elements.\lIBaseElement.CTimeBeliefbase.empty">
<polygon fill="none" stroke="black" points="243.5,-188 243.5,-216 416.5,-216 416.5,-188 243.5,-188"/>
<text text-anchor="start" x="251.5" y="-204.8" font-family="Helvetica,sans-Serif" font-size="9.00">com.github.aptd.simulation.elements.</text>
<text text-anchor="middle" x="330" y="-194.8" font-family="Helvetica,sans-Serif" font-size="9.00">IBaseElement.CTimeBeliefbase.empty</text>
</a>
</g>
</g>
<!-- Node1&#45;&gt;Node3 -->
<g id="edge2" class="edge"><title>Node1&#45;&gt;Node3</title>
<path fill="none" stroke="midnightblue" d="M125.578,-149.208C148.283,-158.839 177.311,-170.241 204,-178 216.944,-181.763 230.816,-185.095 244.44,-187.989"/>
<polygon fill="midnightblue" stroke="midnightblue" points="126.83,-145.936 116.26,-145.205 124.067,-152.368 126.83,-145.936"/>
</g>
<!-- Node4 -->
<g id="node4" class="node"><title>Node4</title>
<g id="a_node4"><a xlink:href="../../d5/dd9/classcom_1_1github_1_1aptd_1_1simulation_1_1elements_1_1graph_1_1network_1_1local_1_1IBaseStation.htm#aa12087fa2b8aa4c8fb48a727937df80b" target="_top" xlink:title="com.github.aptd.simulation.elements.graph.network.local.\lIBaseStation.individualliteral">
<polygon fill="none" stroke="black" points="204.5,-141 204.5,-169 455.5,-169 455.5,-141 204.5,-141"/>
<text text-anchor="start" x="212.5" y="-157.8" font-family="Helvetica,sans-Serif" font-size="9.00">com.github.aptd.simulation.elements.graph.network.local.</text>
<text text-anchor="middle" x="330" y="-147.8" font-family="Helvetica,sans-Serif" font-size="9.00">IBaseStation.individualliteral</text>
</a>
</g>
</g>
<!-- Node1&#45;&gt;Node4 -->
<g id="edge3" class="edge"><title>Node1&#45;&gt;Node4</title>
<path fill="none" stroke="midnightblue" d="M178.464,-140.193C186.894,-141.022 195.516,-141.87 204.158,-142.72"/>
<polygon fill="midnightblue" stroke="midnightblue" points="178.583,-136.688 168.289,-139.192 177.898,-143.654 178.583,-136.688"/>
</g>
<!-- Node5 -->
<g id="node5" class="node"><title>Node5</title>
<g id="a_node5"><a xlink:href="../../de/df6/classcom_1_1github_1_1aptd_1_1simulation_1_1elements_1_1IBaseElement_1_1CTimeBeliefbase.htm#af01381b2544df66e7b781838714a5571" target="_top" xlink:title="com.github.aptd.simulation.elements.\lIBaseElement.CTimeBeliefbase.literal">
<polygon fill="none" stroke="black" points="244.5,-94 244.5,-122 415.5,-122 415.5,-94 244.5,-94"/>
<text text-anchor="start" x="252.5" y="-110.8" font-family="Helvetica,sans-Serif" font-size="9.00">com.github.aptd.simulation.elements.</text>
<text text-anchor="middle" x="330" y="-100.8" font-family="Helvetica,sans-Serif" font-size="9.00">IBaseElement.CTimeBeliefbase.literal</text>
</a>
</g>
</g>
<!-- Node1&#45;&gt;Node5 -->
<g id="edge4" class="edge"><title>Node1&#45;&gt;Node5</title>
<path fill="none" stroke="midnightblue" d="M178.487,-122.188C200.179,-120.143 223.145,-117.978 244.428,-115.972"/>
<polygon fill="midnightblue" stroke="midnightblue" points="177.916,-118.726 168.289,-123.149 178.573,-125.695 177.916,-118.726"/>
</g>
<!-- Node6 -->
<g id="node6" class="node"><title>Node6</title>
<g id="a_node6"><a xlink:href="../../de/df6/classcom_1_1github_1_1aptd_1_1simulation_1_1elements_1_1IBaseElement_1_1CTimeBeliefbase.htm#a5ae8189d92099cb1d6a532c8a02eba78" target="_top" xlink:title="com.github.aptd.simulation.elements.\lIBaseElement.CTimeBeliefbase.size">
<polygon fill="none" stroke="black" points="246,-47 246,-75 414,-75 414,-47 246,-47"/>
<text text-anchor="start" x="254" y="-63.8" font-family="Helvetica,sans-Serif" font-size="9.00">com.github.aptd.simulation.elements.</text>
<text text-anchor="middle" x="330" y="-53.8" font-family="Helvetica,sans-Serif" font-size="9.00">IBaseElement.CTimeBeliefbase.size</text>
</a>
</g>
</g>
<!-- Node1&#45;&gt;Node6 -->
<g id="edge5" class="edge"><title>Node1&#45;&gt;Node6</title>
<path fill="none" stroke="midnightblue" d="M126.094,-113.018C148.738,-103.645 177.545,-92.5864 204,-85 217.382,-81.1624 231.748,-77.7601 245.803,-74.8113"/>
<polygon fill="midnightblue" stroke="midnightblue" points="124.661,-109.823 116.791,-116.916 127.367,-116.279 124.661,-109.823"/>
</g>
<!-- Node7 -->
<g id="node7" class="node"><title>Node7</title>
<g id="a_node7"><a xlink:href="../../de/df6/classcom_1_1github_1_1aptd_1_1simulation_1_1elements_1_1IBaseElement_1_1CTimeBeliefbase.htm#af0edb3ae2c6dd030845beb4e89d89e77" target="_top" xlink:title="com.github.aptd.simulation.elements.\lIBaseElement.CTimeBeliefbase.streamLiteral">
<polygon fill="none" stroke="black" points="229,-0 229,-28 431,-28 431,-0 229,-0"/>
<text text-anchor="start" x="237" y="-16.8" font-family="Helvetica,sans-Serif" font-size="9.00">com.github.aptd.simulation.elements.</text>
<text text-anchor="middle" x="330" y="-6.8" font-family="Helvetica,sans-Serif" font-size="9.00">IBaseElement.CTimeBeliefbase.streamLiteral</text>
</a>
</g>
</g>
<!-- Node1&#45;&gt;Node7 -->
<g id="edge6" class="edge"><title>Node1&#45;&gt;Node7</title>
<path fill="none" stroke="midnightblue" d="M105.746,-109.664C127.988,-88.1113 165.35,-55.5636 204,-38 212.651,-34.0689 221.922,-30.7812 231.361,-28.0318"/>
<polygon fill="midnightblue" stroke="midnightblue" points="103.189,-107.27 98.5314,-116.786 108.107,-112.251 103.189,-107.27"/>
</g>
</g>
</svg>
