<?xml version="1.0" encoding="UTF-8" standalone="no"?>
<!DOCTYPE svg PUBLIC "-//W3C//DTD SVG 1.1//EN"
 "http://www.w3.org/Graphics/SVG/1.1/DTD/svg11.dtd">
<!-- Generated by graphviz version 2.36.0 (20140111.2315)
 -->
<!-- Title: com.github.aptd.simulation.elements.graph.network.local.CStation Pages: 1 -->
<svg width="588pt" height="1192pt"
 viewBox="0.00 0.00 588.00 1192.00" xmlns="http://www.w3.org/2000/svg" xmlns:xlink="http://www.w3.org/1999/xlink">
<g id="graph0" class="graph" transform="scale(1 1) rotate(0) translate(4 1188)">
<title>com.github.aptd.simulation.elements.graph.network.local.CStation</title>
<!-- Node9 -->
<g id="node1" class="node"><title>Node9</title>
<polygon fill="#bfbfbf" stroke="black" points="199.5,-1 199.5,-85 450.5,-85 450.5,-1 199.5,-1"/>
<text text-anchor="start" x="207.5" y="-73.8" font-family="Helvetica,sans-Serif" font-size="9.00">com.github.aptd.simulation.elements.graph.network.local.</text>
<text text-anchor="middle" x="325" y="-63.8" font-family="Helvetica,sans-Serif" font-size="9.00">CStation</text>
<polyline fill="none" stroke="black" points="199.5,-57 450.5,-57 "/>
<text text-anchor="start" x="207.5" y="-45.8" font-family="Helvetica,sans-Serif" font-size="9.00">&#45; m_platformoccupation</text>
<text text-anchor="start" x="207.5" y="-35.8" font-family="Helvetica,sans-Serif" font-size="9.00">&#45; FUNCTOR</text>
<text text-anchor="start" x="207.5" y="-25.8" font-family="Helvetica,sans-Serif" font-size="9.00">&#45; serialVersionUID</text>
<polyline fill="none" stroke="black" points="199.5,-19 450.5,-19 "/>
<text text-anchor="start" x="207.5" y="-7.8" font-family="Helvetica,sans-Serif" font-size="9.00">&#45; CStation()</text>
</g>
<!-- Node10 -->
<g id="node2" class="node"><title>Node10</title>
<g id="a_node2"><a xlink:href="../../d5/dd9/classcom_1_1github_1_1aptd_1_1simulation_1_1elements_1_1graph_1_1network_1_1local_1_1IBaseStation.htm" target="_top" xlink:title="abstract class of network stations nodes ">
<polygon fill="none" stroke="black" points="199.5,-125 199.5,-219 450.5,-219 450.5,-125 199.5,-125"/>
<text text-anchor="start" x="207.5" y="-207.8" font-family="Helvetica,sans-Serif" font-size="9.00">com.github.aptd.simulation.elements.graph.network.local.</text>
<text text-anchor="middle" x="325" y="-197.8" font-family="Helvetica,sans-Serif" font-size="9.00">IBaseStation</text>
<polyline fill="none" stroke="black" points="199.5,-191 450.5,-191 "/>
<text text-anchor="start" x="207.5" y="-179.8" font-family="Helvetica,sans-Serif" font-size="9.00"># BASEFUNCTOR</text>
<text text-anchor="start" x="207.5" y="-169.8" font-family="Helvetica,sans-Serif" font-size="9.00">&#45; serialVersionUID</text>
<polyline fill="none" stroke="black" points="199.5,-163 450.5,-163 "/>
<text text-anchor="start" x="207.5" y="-151.8" font-family="Helvetica,sans-Serif" font-size="9.00">+ gps()</text>
<text text-anchor="start" x="207.5" y="-141.8" font-family="Helvetica,sans-Serif" font-size="9.00"># IBaseStation()</text>
<text text-anchor="start" x="207.5" y="-131.8" font-family="Helvetica,sans-Serif" font-size="9.00"># individualliteral()</text>
</a>
</g>
</g>
<!-- Node10&#45;&gt;Node9 -->
<g id="edge1" class="edge"><title>Node10&#45;&gt;Node9</title>
<path fill="none" stroke="midnightblue" d="M325,-114.642C325,-104.784 325,-94.6929 325,-85.3361"/>
<polygon fill="none" stroke="midnightblue" points="321.5,-114.791 325,-124.791 328.5,-114.791 321.5,-114.791"/>
</g>
<!-- Node11 -->
<g id="node3" class="node"><title>Node11</title>
<g id="a_node3"><a xlink:href="../../d6/df3/classcom_1_1github_1_1aptd_1_1simulation_1_1elements_1_1IBaseElement.htm" target="_top" xlink:title="base simulation element structure ">
<polygon fill="none" stroke="black" points="134,-259 134,-573 274,-573 274,-259 134,-259"/>
<text text-anchor="start" x="142" y="-561.8" font-family="Helvetica,sans-Serif" font-size="9.00">com::github::aptd::</text>
<text text-anchor="start" x="142" y="-551.8" font-family="Helvetica,sans-Serif" font-size="9.00">simulation::elements</text>
<text text-anchor="middle" x="204" y="-541.8" font-family="Helvetica,sans-Serif" font-size="9.00">::IBaseElement&lt; IStation&lt;?&gt; &gt;</text>
<polyline fill="none" stroke="black" points="134,-535 274,-535 "/>
<text text-anchor="start" x="142" y="-523.8" font-family="Helvetica,sans-Serif" font-size="9.00"># m_id</text>
<text text-anchor="start" x="142" y="-513.8" font-family="Helvetica,sans-Serif" font-size="9.00"># m_input</text>
<text text-anchor="start" x="142" y="-503.8" font-family="Helvetica,sans-Serif" font-size="9.00"># m_nextactivation</text>
<text text-anchor="start" x="142" y="-493.8" font-family="Helvetica,sans-Serif" font-size="9.00">&#45; m_environment</text>
<text text-anchor="start" x="142" y="-483.8" font-family="Helvetica,sans-Serif" font-size="9.00">&#45; m_external</text>
<text text-anchor="start" x="142" y="-473.8" font-family="Helvetica,sans-Serif" font-size="9.00">&#45; m_functor</text>
<text text-anchor="start" x="142" y="-463.8" font-family="Helvetica,sans-Serif" font-size="9.00">&#45; m_timezone</text>
<text text-anchor="start" x="142" y="-453.8" font-family="Helvetica,sans-Serif" font-size="9.00">&#45; serialVersionUID</text>
<polyline fill="none" stroke="black" points="134,-447 274,-447 "/>
<text text-anchor="start" x="142" y="-435.8" font-family="Helvetica,sans-Serif" font-size="9.00">+ call()</text>
<text text-anchor="start" x="142" y="-425.8" font-family="Helvetica,sans-Serif" font-size="9.00">+ environment()</text>
<text text-anchor="start" x="142" y="-415.8" font-family="Helvetica,sans-Serif" font-size="9.00">+ equals()</text>
<text text-anchor="start" x="142" y="-405.8" font-family="Helvetica,sans-Serif" font-size="9.00">+ hashCode()</text>
<text text-anchor="start" x="142" y="-395.8" font-family="Helvetica,sans-Serif" font-size="9.00">+ id()</text>
<text text-anchor="start" x="142" y="-385.8" font-family="Helvetica,sans-Serif" font-size="9.00">+ imminent()</text>
<text text-anchor="start" x="142" y="-375.8" font-family="Helvetica,sans-Serif" font-size="9.00">+ input()</text>
<text text-anchor="start" x="142" y="-365.8" font-family="Helvetica,sans-Serif" font-size="9.00">+ literal()</text>
<text text-anchor="start" x="142" y="-355.8" font-family="Helvetica,sans-Serif" font-size="9.00">+ literal()</text>
<text text-anchor="start" x="142" y="-345.8" font-family="Helvetica,sans-Serif" font-size="9.00">+ nextactivation()</text>
<text text-anchor="start" x="142" y="-335.8" font-family="Helvetica,sans-Serif" font-size="9.00">+ output()</text>
<text text-anchor="start" x="142" y="-325.8" font-family="Helvetica,sans-Serif" font-size="9.00">+ toString()</text>
<text text-anchor="start" x="142" y="-315.8" font-family="Helvetica,sans-Serif" font-size="9.00"># IBaseElement()</text>
<text text-anchor="start" x="142" y="-305.8" font-family="Helvetica,sans-Serif" font-size="9.00"># individualliteral()</text>
<text text-anchor="start" x="142" y="-295.8" font-family="Helvetica,sans-Serif" font-size="9.00">&#45; currentTime()</text>
<text text-anchor="start" x="142" y="-285.8" font-family="Helvetica,sans-Serif" font-size="9.00">&#45; getNextActivation()</text>
<text text-anchor="start" x="142" y="-275.8" font-family="Helvetica,sans-Serif" font-size="9.00">&#45; maxTime()</text>
<text text-anchor="start" x="142" y="-265.8" font-family="Helvetica,sans-Serif" font-size="9.00">&#45; setNextActivation()</text>
</a>
</g>
</g>
<!-- Node11&#45;&gt;Node10 -->
<g id="edge2" class="edge"><title>Node11&#45;&gt;Node10</title>
<path fill="none" stroke="midnightblue" d="M278.709,-265.582C287.057,-248.886 295.023,-232.954 301.92,-219.159"/>
<polygon fill="none" stroke="midnightblue" points="275.377,-264.419 274.036,-274.928 281.638,-267.549 275.377,-264.419"/>
</g>
<!-- Node12 -->
<g id="node4" class="node"><title>Node12</title>
<g id="a_node4"><a xlink:href="../../dd/dd7/interfacecom_1_1github_1_1aptd_1_1simulation_1_1elements_1_1IElement.htm" target="_top" xlink:title="{com.github.aptd.simulation.elements.\lIElement\&lt; N \&gt;\n||+ environment()\l+ id()\l+ imminent()\l+ input()\l+ nextactivation()\l+ output()\l}">
<polygon fill="none" stroke="black" points="0,-687 0,-801 168,-801 168,-687 0,-687"/>
<text text-anchor="start" x="8" y="-789.8" font-family="Helvetica,sans-Serif" font-size="9.00">com.github.aptd.simulation.elements.</text>
<text text-anchor="middle" x="84" y="-779.8" font-family="Helvetica,sans-Serif" font-size="9.00">IElement&lt; N &gt;</text>
<polyline fill="none" stroke="black" points="0,-773 168,-773 "/>
<text text-anchor="middle" x="84" y="-761.8" font-family="Helvetica,sans-Serif" font-size="9.00"> </text>
<polyline fill="none" stroke="black" points="0,-755 168,-755 "/>
<text text-anchor="start" x="8" y="-743.8" font-family="Helvetica,sans-Serif" font-size="9.00">+ environment()</text>
<text text-anchor="start" x="8" y="-733.8" font-family="Helvetica,sans-Serif" font-size="9.00">+ id()</text>
<text text-anchor="start" x="8" y="-723.8" font-family="Helvetica,sans-Serif" font-size="9.00">+ imminent()</text>
<text text-anchor="start" x="8" y="-713.8" font-family="Helvetica,sans-Serif" font-size="9.00">+ input()</text>
<text text-anchor="start" x="8" y="-703.8" font-family="Helvetica,sans-Serif" font-size="9.00">+ nextactivation()</text>
<text text-anchor="start" x="8" y="-693.8" font-family="Helvetica,sans-Serif" font-size="9.00">+ output()</text>
</a>
</g>
</g>
<!-- Node12&#45;&gt;Node11 -->
<g id="edge3" class="edge"><title>Node12&#45;&gt;Node11</title>
<path fill="none" stroke="midnightblue" d="M108.143,-677.412C119.258,-647.217 132.965,-609.977 146.503,-573.201"/>
<polygon fill="none" stroke="midnightblue" points="104.799,-676.365 104.629,-686.959 111.368,-678.783 104.799,-676.365"/>
</g>
<!-- Node13 -->
<g id="node5" class="node"><title>Node13</title>
<g id="a_node5"><a xlink:href="../../dd/dd7/interfacecom_1_1github_1_1aptd_1_1simulation_1_1elements_1_1IElement.htm" target="_top" xlink:title="any object interface ">
<polygon fill="none" stroke="black" points="0,-950 0,-1064 168,-1064 168,-950 0,-950"/>
<text text-anchor="start" x="8" y="-1052.8" font-family="Helvetica,sans-Serif" font-size="9.00">com.github.aptd.simulation.elements.</text>
<text text-anchor="middle" x="84" y="-1042.8" font-family="Helvetica,sans-Serif" font-size="9.00">IElement&lt; T extends IAgent&lt;?&gt;</text>
<polyline fill="none" stroke="black" points="0,-1036 168,-1036 "/>
<text text-anchor="middle" x="84" y="-1024.8" font-family="Helvetica,sans-Serif" font-size="9.00"> </text>
<polyline fill="none" stroke="black" points="0,-1018 168,-1018 "/>
<text text-anchor="start" x="8" y="-1006.8" font-family="Helvetica,sans-Serif" font-size="9.00">+ environment()</text>
<text text-anchor="start" x="8" y="-996.8" font-family="Helvetica,sans-Serif" font-size="9.00">+ id()</text>
<text text-anchor="start" x="8" y="-986.8" font-family="Helvetica,sans-Serif" font-size="9.00">+ imminent()</text>
<text text-anchor="start" x="8" y="-976.8" font-family="Helvetica,sans-Serif" font-size="9.00">+ input()</text>
<text text-anchor="start" x="8" y="-966.8" font-family="Helvetica,sans-Serif" font-size="9.00">+ nextactivation()</text>
<text text-anchor="start" x="8" y="-956.8" font-family="Helvetica,sans-Serif" font-size="9.00">+ output()</text>
</a>
</g>
</g>
<!-- Node13&#45;&gt;Node12 -->
<g id="edge4" class="edge"><title>Node13&#45;&gt;Node12</title>
<path fill="none" stroke="orange" d="M83.106,-939.558C83.0638,-934.97 83.0276,-930.416 83,-926 82.7056,-878.89 82.6859,-867.11 83,-820 83.0408,-813.88 83.1003,-807.479 83.1703,-801.107"/>
<polygon fill="orange" stroke="orange" points="79.6067,-939.655 83.2069,-949.619 86.6063,-939.585 79.6067,-939.655"/>
<text text-anchor="middle" x="95.5" y="-870.8" font-family="Helvetica,sans-Serif" font-size="9.00"> &lt; N &gt;</text>
</g>
<!-- Node14 -->
<g id="node6" class="node"><title>Node14</title>
<g id="a_node6"><a xlink:href="../../d4/d0d/interfacecom_1_1github_1_1aptd_1_1simulation_1_1elements_1_1IPerceiveable.htm" target="_top" xlink:title="any object which be perceived by an agent ">
<polygon fill="none" stroke="black" points="138,-1109 138,-1183 306,-1183 306,-1109 138,-1109"/>
<text text-anchor="start" x="146" y="-1171.8" font-family="Helvetica,sans-Serif" font-size="9.00">com.github.aptd.simulation.elements.</text>
<text text-anchor="middle" x="222" y="-1161.8" font-family="Helvetica,sans-Serif" font-size="9.00">IPerceiveable</text>
<polyline fill="none" stroke="black" points="138,-1155 306,-1155 "/>
<text text-anchor="middle" x="222" y="-1143.8" font-family="Helvetica,sans-Serif" font-size="9.00"> </text>
<polyline fill="none" stroke="black" points="138,-1137 306,-1137 "/>
<text text-anchor="start" x="146" y="-1125.8" font-family="Helvetica,sans-Serif" font-size="9.00">+ literal()</text>
<text text-anchor="start" x="146" y="-1115.8" font-family="Helvetica,sans-Serif" font-size="9.00">+ literal()</text>
</a>
</g>
</g>
<!-- Node14&#45;&gt;Node13 -->
<g id="edge5" class="edge"><title>Node14&#45;&gt;Node13</title>
<path fill="none" stroke="midnightblue" d="M178.118,-1101.44C166.189,-1089.59 153.099,-1076.6 140.575,-1064.16"/>
<polygon fill="none" stroke="midnightblue" points="175.818,-1104.08 185.381,-1108.65 180.75,-1099.12 175.818,-1104.08"/>
</g>
<!-- Node15 -->
<g id="node7" class="node"><title>Node15</title>
<g id="a_node7"><a xlink:href="../../db/d65/interfacecom_1_1github_1_1aptd_1_1simulation_1_1core_1_1time_1_1ITime.htm" target="_top" xlink:title="time interface ">
<polygon fill="none" stroke="black" points="117,-821 117,-925 285,-925 285,-821 117,-821"/>
<text text-anchor="start" x="125" y="-913.8" font-family="Helvetica,sans-Serif" font-size="9.00">com.github.aptd.simulation.core.time.</text>
<text text-anchor="middle" x="201" y="-903.8" font-family="Helvetica,sans-Serif" font-size="9.00">ITime</text>
<polyline fill="none" stroke="black" points="117,-897 285,-897 "/>
<text text-anchor="middle" x="201" y="-885.8" font-family="Helvetica,sans-Serif" font-size="9.00"> </text>
<polyline fill="none" stroke="black" points="117,-879 285,-879 "/>
<text text-anchor="start" x="125" y="-867.8" font-family="Helvetica,sans-Serif" font-size="9.00">+ active()</text>
<text text-anchor="start" x="125" y="-857.8" font-family="Helvetica,sans-Serif" font-size="9.00">+ addagent()</text>
<text text-anchor="start" x="125" y="-847.8" font-family="Helvetica,sans-Serif" font-size="9.00">+ current()</text>
<text text-anchor="start" x="125" y="-837.8" font-family="Helvetica,sans-Serif" font-size="9.00">+ raw()</text>
<text text-anchor="start" x="125" y="-827.8" font-family="Helvetica,sans-Serif" font-size="9.00">+ removeagent()</text>
</a>
</g>
</g>
<!-- Node14&#45;&gt;Node15 -->
<g id="edge7" class="edge"><title>Node14&#45;&gt;Node15</title>
<path fill="none" stroke="midnightblue" d="M217.519,-1098.7C216.646,-1089.21 215.765,-1079.28 215,-1070 210.953,-1020.87 207.014,-964.757 204.351,-925.196"/>
<polygon fill="none" stroke="midnightblue" points="214.046,-1099.14 218.459,-1108.77 221.015,-1098.49 214.046,-1099.14"/>
</g>
<!-- Node18 -->
<g id="node10" class="node"><title>Node18</title>
<g id="a_node10"><a xlink:href="../../dd/dd7/interfacecom_1_1github_1_1aptd_1_1simulation_1_1elements_1_1IElement.htm" target="_top" xlink:title="any object interface ">
<polygon fill="none" stroke="black" points="224.5,-945 224.5,-1069 325.5,-1069 325.5,-945 224.5,-945"/>
<text text-anchor="start" x="232.5" y="-1057.8" font-family="Helvetica,sans-Serif" font-size="9.00">com::github::aptd::</text>
<text text-anchor="start" x="232.5" y="-1047.8" font-family="Helvetica,sans-Serif" font-size="9.00">simulation::elements</text>
<text text-anchor="middle" x="275" y="-1037.8" font-family="Helvetica,sans-Serif" font-size="9.00">::IElement&lt; T &gt;</text>
<polyline fill="none" stroke="black" points="224.5,-1031 325.5,-1031 "/>
<text text-anchor="middle" x="275" y="-1019.8" font-family="Helvetica,sans-Serif" font-size="9.00"> </text>
<polyline fill="none" stroke="black" points="224.5,-1013 325.5,-1013 "/>
<text text-anchor="start" x="232.5" y="-1001.8" font-family="Helvetica,sans-Serif" font-size="9.00">+ environment()</text>
<text text-anchor="start" x="232.5" y="-991.8" font-family="Helvetica,sans-Serif" font-size="9.00">+ id()</text>
<text text-anchor="start" x="232.5" y="-981.8" font-family="Helvetica,sans-Serif" font-size="9.00">+ imminent()</text>
<text text-anchor="start" x="232.5" y="-971.8" font-family="Helvetica,sans-Serif" font-size="9.00">+ input()</text>
<text text-anchor="start" x="232.5" y="-961.8" font-family="Helvetica,sans-Serif" font-size="9.00">+ nextactivation()</text>
<text text-anchor="start" x="232.5" y="-951.8" font-family="Helvetica,sans-Serif" font-size="9.00">+ output()</text>
</a>
</g>
</g>
<!-- Node14&#45;&gt;Node18 -->
<g id="edge11" class="edge"><title>Node14&#45;&gt;Node18</title>
<path fill="none" stroke="midnightblue" d="M239.696,-1099.26C243.429,-1089.61 247.425,-1079.28 251.337,-1069.17"/>
<polygon fill="none" stroke="midnightblue" points="236.408,-1098.06 236.064,-1108.65 242.936,-1100.58 236.408,-1098.06"/>
</g>
<!-- Node19 -->
<g id="node11" class="node"><title>Node19</title>
<g id="a_node11"><a xlink:href="../../d8/dc1/interfacecom_1_1github_1_1aptd_1_1simulation_1_1elements_1_1common_1_1IGPS.htm" target="_top" xlink:title="GPS matrix wrapper interface. ">
<polygon fill="none" stroke="black" points="352.5,-593 352.5,-667 579.5,-667 579.5,-593 352.5,-593"/>
<text text-anchor="middle" x="466" y="-655.8" font-family="Helvetica,sans-Serif" font-size="9.00">com.github.aptd.simulation.elements.common.IGPS</text>
<polyline fill="none" stroke="black" points="352.5,-649 579.5,-649 "/>
<text text-anchor="middle" x="466" y="-637.8" font-family="Helvetica,sans-Serif" font-size="9.00"> </text>
<polyline fill="none" stroke="black" points="352.5,-631 579.5,-631 "/>
<text text-anchor="start" x="360.5" y="-619.8" font-family="Helvetica,sans-Serif" font-size="9.00">+ latitude()</text>
<text text-anchor="start" x="360.5" y="-609.8" font-family="Helvetica,sans-Serif" font-size="9.00">+ longitude()</text>
<text text-anchor="start" x="360.5" y="-599.8" font-family="Helvetica,sans-Serif" font-size="9.00">+ matrix()</text>
</a>
</g>
</g>
<!-- Node14&#45;&gt;Node19 -->
<g id="edge13" class="edge"><title>Node14&#45;&gt;Node19</title>
<path fill="none" stroke="midnightblue" d="M316.027,-1139.43C365.038,-1131.22 421.237,-1112.38 453,-1070 544.58,-947.825 500.842,-748.172 477.449,-667.009"/>
<polygon fill="none" stroke="midnightblue" points="315.357,-1135.99 306.009,-1140.98 316.427,-1142.91 315.357,-1135.99"/>
</g>
<!-- Node15&#45;&gt;Node11 -->
<g id="edge6" class="edge"><title>Node15&#45;&gt;Node11</title>
<path fill="none" stroke="#404040" d="M201.338,-820.69C201.714,-763.761 202.339,-668.903 202.889,-585.44"/>
<polygon fill="none" stroke="#404040" points="202.891,-585.214 198.93,-579.188 202.97,-573.215 206.93,-579.241 202.891,-585.214"/>
<text text-anchor="middle" x="222" y="-741.8" font-family="Helvetica,sans-Serif" font-size="9.00"> #m_time</text>
</g>
<!-- Node16 -->
<g id="node8" class="node"><title>Node16</title>
<g id="a_node8"><a xlink:href="../../d7/d7a/interfacecom_1_1github_1_1aptd_1_1simulation_1_1elements_1_1graph_1_1network_1_1IStation.htm" target="_top" xlink:title="interface of a node, which is a train station ">
<polygon fill="none" stroke="black" points="266.5,-702 266.5,-786 383.5,-786 383.5,-702 266.5,-702"/>
<text text-anchor="start" x="274.5" y="-774.8" font-family="Helvetica,sans-Serif" font-size="9.00">com::github::aptd::</text>
<text text-anchor="start" x="274.5" y="-764.8" font-family="Helvetica,sans-Serif" font-size="9.00">simulation::elements</text>
<text text-anchor="start" x="274.5" y="-754.8" font-family="Helvetica,sans-Serif" font-size="9.00">::graph::network::IStation</text>
<text text-anchor="middle" x="325" y="-744.8" font-family="Helvetica,sans-Serif" font-size="9.00">&lt; IStation&lt;?&gt; &gt;</text>
<polyline fill="none" stroke="black" points="266.5,-738 383.5,-738 "/>
<text text-anchor="middle" x="325" y="-726.8" font-family="Helvetica,sans-Serif" font-size="9.00"> </text>
<polyline fill="none" stroke="black" points="266.5,-720 383.5,-720 "/>
<text text-anchor="start" x="274.5" y="-708.8" font-family="Helvetica,sans-Serif" font-size="9.00">+ gps()</text>
</a>
</g>
</g>
<!-- Node16&#45;&gt;Node10 -->
<g id="edge8" class="edge"><title>Node16&#45;&gt;Node10</title>
<path fill="none" stroke="midnightblue" d="M325,-691.343C325,-581.056 325,-324.077 325,-219.009"/>
<polygon fill="none" stroke="midnightblue" points="321.5,-691.548 325,-701.548 328.5,-691.548 321.5,-691.548"/>
</g>
<!-- Node17 -->
<g id="node9" class="node"><title>Node17</title>
<g id="a_node9"><a xlink:href="../../de/d20/interfacecom_1_1github_1_1aptd_1_1simulation_1_1elements_1_1graph_1_1IVertex.htm" target="_top" xlink:title="interface of graph nodes ">
<polygon fill="none" stroke="black" points="343.5,-970 343.5,-1044 444.5,-1044 444.5,-970 343.5,-970"/>
<text text-anchor="start" x="351.5" y="-1032.8" font-family="Helvetica,sans-Serif" font-size="9.00">com::github::aptd::</text>
<text text-anchor="start" x="351.5" y="-1022.8" font-family="Helvetica,sans-Serif" font-size="9.00">simulation::elements</text>
<text text-anchor="middle" x="394" y="-1012.8" font-family="Helvetica,sans-Serif" font-size="9.00">::graph::IVertex&lt; T &gt;</text>
<polyline fill="none" stroke="black" points="343.5,-1006 444.5,-1006 "/>
<text text-anchor="middle" x="394" y="-994.8" font-family="Helvetica,sans-Serif" font-size="9.00"> </text>
<polyline fill="none" stroke="black" points="343.5,-988 444.5,-988 "/>
<text text-anchor="middle" x="394" y="-976.8" font-family="Helvetica,sans-Serif" font-size="9.00"> </text>
</a>
</g>
</g>
<!-- Node17&#45;&gt;Node16 -->
<g id="edge9" class="edge"><title>Node17&#45;&gt;Node16</title>
<path fill="none" stroke="midnightblue" d="M381.903,-960.24C368.901,-911.06 348.42,-833.59 335.901,-786.235"/>
<polygon fill="none" stroke="midnightblue" points="378.539,-961.21 384.478,-969.983 385.306,-959.421 378.539,-961.21"/>
</g>
<!-- Node18&#45;&gt;Node16 -->
<g id="edge10" class="edge"><title>Node18&#45;&gt;Node16</title>
<path fill="none" stroke="midnightblue" d="M291.141,-935.071C291.78,-932.009 292.403,-928.975 293,-926 302.611,-878.132 312.164,-822.829 318.296,-786.077"/>
<polygon fill="none" stroke="midnightblue" points="287.704,-934.403 289.051,-944.912 294.552,-935.858 287.704,-934.403"/>
</g>
<!-- Node19&#45;&gt;Node10 -->
<g id="edge12" class="edge"><title>Node19&#45;&gt;Node10</title>
<path fill="none" stroke="#404040" d="M454.818,-592.837C430.457,-514.053 372.416,-326.345 342.899,-230.885"/>
<polygon fill="none" stroke="#404040" points="342.818,-230.623 337.224,-226.073 339.273,-219.159 344.867,-223.709 342.818,-230.623"/>
<text text-anchor="middle" x="474.5" y="-413.8" font-family="Helvetica,sans-Serif" font-size="9.00"> &#45;m_position</text>
</g>
</g>
</svg>
