<?xml version="1.0" encoding="UTF-8" standalone="no"?>
<!DOCTYPE svg PUBLIC "-//W3C//DTD SVG 1.1//EN"
 "http://www.w3.org/Graphics/SVG/1.1/DTD/svg11.dtd">
<!-- Generated by graphviz version 2.36.0 (20140111.2315)
 -->
<!-- Title: com.github.aptd.simulation.common.CCommon.languagestring Pages: 1 -->
<svg width="438pt" height="130pt"
 viewBox="0.00 0.00 438.00 130.00" xmlns="http://www.w3.org/2000/svg" xmlns:xlink="http://www.w3.org/1999/xlink">
<g id="graph0" class="graph" transform="scale(1 1) rotate(0) translate(4 126)">
<title>com.github.aptd.simulation.common.CCommon.languagestring</title>
<!-- Node15 -->
<g id="node1" class="node"><title>Node15</title>
<polygon fill="#bfbfbf" stroke="black" points="0,-47 0,-75 166,-75 166,-47 0,-47"/>
<text text-anchor="start" x="8" y="-63.8" font-family="Helvetica,sans-Serif" font-size="9.00">com.github.aptd.simulation.common.</text>
<text text-anchor="middle" x="83" y="-53.8" font-family="Helvetica,sans-Serif" font-size="9.00">CCommon.languagestring</text>
</g>
<!-- Node16 -->
<g id="node2" class="node"><title>Node16</title>
<g id="a_node2"><a xlink:href="../../d7/d28/enumcom_1_1github_1_1aptd_1_1simulation_1_1core_1_1runtime_1_1ERuntime.htm#aa62414e17764460a12fbce9edf59e377" target="_top" xlink:title="creates a new runtime instance ">
<polygon fill="none" stroke="black" points="225,-94 225,-122 407,-122 407,-94 225,-94"/>
<text text-anchor="start" x="233" y="-110.8" font-family="Helvetica,sans-Serif" font-size="9.00">com.github.aptd.simulation.core.runtime.</text>
<text text-anchor="middle" x="316" y="-100.8" font-family="Helvetica,sans-Serif" font-size="9.00">ERuntime.get</text>
</a>
</g>
</g>
<!-- Node15&#45;&gt;Node16 -->
<g id="edge1" class="edge"><title>Node15&#45;&gt;Node16</title>
<path fill="none" stroke="midnightblue" d="M162.796,-77.032C189.799,-82.5263 219.79,-88.6283 245.962,-93.9533"/>
<polygon fill="midnightblue" stroke="midnightblue" points="163.492,-73.602 152.995,-75.0379 162.096,-80.4615 163.492,-73.602"/>
</g>
<!-- Node17 -->
<g id="node3" class="node"><title>Node17</title>
<g id="a_node3"><a xlink:href="../../de/d16/classcom_1_1github_1_1aptd_1_1simulation_1_1CMain.htm#a93abfa783d7788c0a00b0b1bc107b207" target="_top" xlink:title="main method ">
<polygon fill="none" stroke="black" points="252,-47 252,-75 380,-75 380,-47 252,-47"/>
<text text-anchor="start" x="260" y="-63.8" font-family="Helvetica,sans-Serif" font-size="9.00">com.github.aptd.simulation.</text>
<text text-anchor="middle" x="316" y="-53.8" font-family="Helvetica,sans-Serif" font-size="9.00">CMain.main</text>
</a>
</g>
</g>
<!-- Node15&#45;&gt;Node17 -->
<g id="edge2" class="edge"><title>Node15&#45;&gt;Node17</title>
<path fill="none" stroke="midnightblue" d="M176.093,-61C201.443,-61 228.365,-61 251.69,-61"/>
<polygon fill="midnightblue" stroke="midnightblue" points="176.092,-57.5001 166.092,-61 176.092,-64.5001 176.092,-57.5001"/>
</g>
<!-- Node18 -->
<g id="node4" class="node"><title>Node18</title>
<g id="a_node4"><a xlink:href="../../d7/d91/classcom_1_1github_1_1aptd_1_1simulation_1_1elements_1_1linearprogram_1_1CCombinedSolver.htm#a38122da619c21fe7fae08d4ac6133948" target="_top" xlink:title="com.github.aptd.simulation.elements.linearprogram.\lCCombinedSolver.typespecific">
<polygon fill="none" stroke="black" points="202,-0 202,-28 430,-28 430,-0 202,-0"/>
<text text-anchor="start" x="210" y="-16.8" font-family="Helvetica,sans-Serif" font-size="9.00">com.github.aptd.simulation.elements.linearprogram.</text>
<text text-anchor="middle" x="316" y="-6.8" font-family="Helvetica,sans-Serif" font-size="9.00">CCombinedSolver.typespecific</text>
</a>
</g>
</g>
<!-- Node15&#45;&gt;Node18 -->
<g id="edge3" class="edge"><title>Node15&#45;&gt;Node18</title>
<path fill="none" stroke="midnightblue" d="M162.796,-44.968C189.799,-39.4737 219.79,-33.3717 245.962,-28.0467"/>
<polygon fill="midnightblue" stroke="midnightblue" points="162.096,-41.5385 152.995,-46.9621 163.492,-48.398 162.096,-41.5385"/>
</g>
</g>
</svg>
