<?xml version="1.0" encoding="UTF-8" standalone="no"?>
<!DOCTYPE svg PUBLIC "-//W3C//DTD SVG 1.1//EN"
 "http://www.w3.org/Graphics/SVG/1.1/DTD/svg11.dtd">
<!-- Generated by graphviz version 2.36.0 (20140111.2315)
 -->
<!-- Title: com.github.aptd.simulation.elements.passenger.CPassenger.updatestate Pages: 1 -->
<!--zoomable 169 -->
<svg id="main" version="1.1" xmlns="http://www.w3.org/2000/svg" xmlns:xlink="http://www.w3.org/1999/xlink" xml:space="preserve" onload="init(evt)">
<style type="text/css"><![CDATA[
.edge:hover path { stroke: red; }
.edge:hover polygon { stroke: red; fill: red; }
]]></style>
<script type="text/javascript"><![CDATA[
var edges = document.getElementsByTagName('g');
if (edges && edges.length) {
  for (var i=0;i<edges.length;i++) {
    if (edges[i].id.substr(0,4)=='edge') {
      edges[i].setAttribute('class','edge');
    }
  }
}
]]></script>
        <defs>
                <circle id="rim" cx="0" cy="0" r="7"/>
                <circle id="rim2" cx="0" cy="0" r="3.5"/>
                <g id="zoomPlus">
                        <use xlink:href="#rim" fill="#404040">
                                <set attributeName="fill" to="#808080" begin="zoomplus.mouseover" end="zoomplus.mouseout"/>
                        </use>
                        <path d="M-4,0h8M0,-4v8" fill="none" stroke="white" stroke-width="1.5" pointer-events="none"/>
                </g>
                <g id="zoomMin">
                        <use xlink:href="#rim" fill="#404040">
                                <set attributeName="fill" to="#808080" begin="zoomminus.mouseover" end="zoomminus.mouseout"/>
                        </use>
                        <path d="M-4,0h8" fill="none" stroke="white" stroke-width="1.5" pointer-events="none"/>
                </g>
                <g id="dirArrow">
                        <path fill="none" stroke="white" stroke-width="1.5" d="M0,-3.0v7 M-2.5,-0.5L0,-3.0L2.5,-0.5"/>
                </g>
               <g id="resetDef">
                       <use xlink:href="#rim2" fill="#404040">
                               <set attributeName="fill" to="#808080" begin="reset.mouseover" end="reset.mouseout"/>
                       </use>
               </g>
        </defs>

<script type="text/javascript">
var viewWidth = 676;
var viewHeight = 169;
var sectionId = 'dynsection-9';
</script>
<script xlink:href="../../svgpan.js"/>
<svg id="graph" class="graph">
<g id="viewport">
<title>com.github.aptd.simulation.elements.passenger.CPassenger.updatestate</title>
<!-- Node20 -->
<g id="node1" class="node"><title>Node20</title>
<polygon fill="#bfbfbf" stroke="black" points="0,-64 0,-92 214,-92 214,-64 0,-64"/>
<text text-anchor="start" x="8" y="-80.8" font-family="Helvetica,sans-Serif" font-size="9.00">com.github.aptd.simulation.elements.passenger.</text>
<text text-anchor="middle" x="107" y="-70.8" font-family="Helvetica,sans-Serif" font-size="9.00">CPassenger.updatestate</text>
</g>
<!-- Node21 -->
<g id="node2" class="node"><title>Node21</title>
<g id="a_node2"><a xlink:href="../../db/d65/interfacecom_1_1github_1_1aptd_1_1simulation_1_1core_1_1time_1_1ITime.htm#a5b549eba2607f2e3f2cc9800e5164ea1" target="_top" xlink:title="get the current time ">
<polygon fill="none" stroke="black" points="273,-133 273,-161 441,-161 441,-133 273,-133"/>
<text text-anchor="start" x="281" y="-149.8" font-family="Helvetica,sans-Serif" font-size="9.00">com.github.aptd.simulation.core.time.</text>
<text text-anchor="middle" x="357" y="-139.8" font-family="Helvetica,sans-Serif" font-size="9.00">ITime.current</text>
</a>
</g>
</g>
<!-- Node20&#45;&gt;Node21 -->
<g id="edge1" class="edge"><title>Node20&#45;&gt;Node21</title>
<path fill="none" stroke="midnightblue" d="M149.049,-92.0181C177.262,-101.403 215.68,-113.694 250,-123 259.629,-125.611 269.802,-128.167 279.885,-130.58"/>
<polygon fill="midnightblue" stroke="midnightblue" points="279.377,-134.056 289.913,-132.941 280.981,-127.242 279.377,-134.056"/>
</g>
<!-- Node22 -->
<g id="node3" class="node"><title>Node22</title>
<g id="a_node3"><a xlink:href="../../d7/da9/classcom_1_1github_1_1aptd_1_1simulation_1_1elements_1_1passenger_1_1CPassenger.htm#ac0d392ed87804770180bc1348ab8c3ed" target="_top" xlink:title="com.github.aptd.simulation.elements.passenger.\lCPassenger.handledoormessage">
<polygon fill="none" stroke="black" points="250,-86 250,-114 464,-114 464,-86 250,-86"/>
<text text-anchor="start" x="258" y="-102.8" font-family="Helvetica,sans-Serif" font-size="9.00">com.github.aptd.simulation.elements.passenger.</text>
<text text-anchor="middle" x="357" y="-92.8" font-family="Helvetica,sans-Serif" font-size="9.00">CPassenger.handledoormessage</text>
</a>
</g>
</g>
<!-- Node20&#45;&gt;Node22 -->
<g id="edge2" class="edge"><title>Node20&#45;&gt;Node22</title>
<path fill="none" stroke="midnightblue" d="M214.254,-87.4257C222.758,-88.1801 231.376,-88.9446 239.943,-89.7046"/>
<polygon fill="midnightblue" stroke="midnightblue" points="239.697,-93.1965 249.967,-90.5939 240.316,-86.2238 239.697,-93.1965"/>
</g>
<!-- Node23 -->
<g id="node4" class="node"><title>Node23</title>
<g id="a_node4"><a xlink:href="../../d8/d16/classcom_1_1github_1_1aptd_1_1simulation_1_1elements_1_1IStatefulElement.htm#a9f60927cebd69981b235a63cc656adab" target="_top" xlink:title="com.github.aptd.simulation.elements.\lIStatefulElement.output">
<polygon fill="none" stroke="black" points="500,-43 500,-71 668,-71 668,-43 500,-43"/>
<text text-anchor="start" x="508" y="-59.8" font-family="Helvetica,sans-Serif" font-size="9.00">com.github.aptd.simulation.elements.</text>
<text text-anchor="middle" x="584" y="-49.8" font-family="Helvetica,sans-Serif" font-size="9.00">IStatefulElement.output</text>
</a>
</g>
</g>
<!-- Node20&#45;&gt;Node23 -->
<g id="edge6" class="edge"><title>Node20&#45;&gt;Node23</title>
<path fill="none" stroke="midnightblue" d="M214.008,-73.3133C296.567,-69.6634 410.08,-64.6449 489.326,-61.1414"/>
<polygon fill="midnightblue" stroke="midnightblue" points="489.951,-64.6173 499.786,-60.6789 489.641,-57.6241 489.951,-64.6173"/>
</g>
<!-- Node24 -->
<g id="node5" class="node"><title>Node24</title>
<g id="a_node5"><a xlink:href="../../d7/da9/classcom_1_1github_1_1aptd_1_1simulation_1_1elements_1_1passenger_1_1CPassenger.htm#a528e85aa14000f9f893aa84c3f95ada1" target="_top" xlink:title="com.github.aptd.simulation.elements.passenger.\lCPassenger.handleplatformmessages">
<polygon fill="none" stroke="black" points="250,-0 250,-28 464,-28 464,-0 250,-0"/>
<text text-anchor="start" x="258" y="-16.8" font-family="Helvetica,sans-Serif" font-size="9.00">com.github.aptd.simulation.elements.passenger.</text>
<text text-anchor="middle" x="357" y="-6.8" font-family="Helvetica,sans-Serif" font-size="9.00">CPassenger.handleplatformmessages</text>
</a>
</g>
</g>
<!-- Node20&#45;&gt;Node24 -->
<g id="edge4" class="edge"><title>Node20&#45;&gt;Node24</title>
<path fill="none" stroke="midnightblue" d="M162.425,-63.9549C200.624,-54.097 251.849,-40.8778 292.008,-30.5141"/>
<polygon fill="midnightblue" stroke="midnightblue" points="292.894,-33.9001 301.702,-28.0123 291.145,-27.1222 292.894,-33.9001"/>
</g>
<!-- Node22&#45;&gt;Node23 -->
<g id="edge3" class="edge"><title>Node22&#45;&gt;Node23</title>
<path fill="none" stroke="midnightblue" d="M431.362,-85.9797C453.257,-81.7953 477.412,-77.1791 499.884,-72.8843"/>
<polygon fill="midnightblue" stroke="midnightblue" points="500.572,-76.3163 509.738,-71.0013 499.258,-69.4407 500.572,-76.3163"/>
</g>
<!-- Node24&#45;&gt;Node23 -->
<g id="edge5" class="edge"><title>Node24&#45;&gt;Node23</title>
<path fill="none" stroke="midnightblue" d="M431.362,-28.0203C453.257,-32.2047 477.412,-36.8209 499.884,-41.1157"/>
<polygon fill="midnightblue" stroke="midnightblue" points="499.258,-44.5593 509.738,-42.9987 500.572,-37.6837 499.258,-44.5593"/>
</g>
</g>
</svg>
        <g id="navigator" transform="translate(0 0)" fill="#404254">
                <rect fill="#f2f5e9" fill-opacity="0.5" stroke="#606060" stroke-width=".5" x="0" y="0" width="60" height="60"/>
                <use id="zoomplus" xlink:href="#zoomPlus" x="17" y="9" onmousedown="handleZoom(evt,'in')"/>
                <use id="zoomminus" xlink:href="#zoomMin" x="42" y="9" onmousedown="handleZoom(evt,'out')"/>
                <use id="reset" xlink:href="#resetDef" x="30" y="36" onmousedown="handleReset()"/>
                <g id="arrowUp" xlink:href="#dirArrow" transform="translate(30 24)" onmousedown="handlePan(0,-1)">
                  <use xlink:href="#rim" fill="#404040">
                        <set attributeName="fill" to="#808080" begin="arrowUp.mouseover" end="arrowUp.mouseout"/>
                  </use>
                  <path fill="none" stroke="white" stroke-width="1.5" d="M0,-3.0v7 M-2.5,-0.5L0,-3.0L2.5,-0.5"/>
                </g>
                <g id="arrowRight" xlink:href="#dirArrow" transform="rotate(90) translate(36 -43)" onmousedown="handlePan(1,0)">
                  <use xlink:href="#rim" fill="#404040">
                        <set attributeName="fill" to="#808080" begin="arrowRight.mouseover" end="arrowRight.mouseout"/>
                  </use>
                  <path fill="none" stroke="white" stroke-width="1.5" d="M0,-3.0v7 M-2.5,-0.5L0,-3.0L2.5,-0.5"/>
                </g>
                <g id="arrowDown" xlink:href="#dirArrow" transform="rotate(180) translate(-30 -48)" onmousedown="handlePan(0,1)">
                  <use xlink:href="#rim" fill="#404040">
                        <set attributeName="fill" to="#808080" begin="arrowDown.mouseover" end="arrowDown.mouseout"/>
                  </use>
                  <path fill="none" stroke="white" stroke-width="1.5" d="M0,-3.0v7 M-2.5,-0.5L0,-3.0L2.5,-0.5"/>
                </g>
                <g id="arrowLeft" xlink:href="#dirArrow" transform="rotate(270) translate(-36 17)" onmousedown="handlePan(-1,0)">
                  <use xlink:href="#rim" fill="#404040">
                        <set attributeName="fill" to="#808080" begin="arrowLeft.mouseover" end="arrowLeft.mouseout"/>
                  </use>
                  <path fill="none" stroke="white" stroke-width="1.5" d="M0,-3.0v7 M-2.5,-0.5L0,-3.0L2.5,-0.5"/>
                </g>
        </g>
        <svg viewBox="0 0 15 15" width="100%" height="30px" preserveAspectRatio="xMaxYMin meet">
         <g id="arrow_out" transform="scale(0.3 0.3)">
          <a xlink:href="classcom_1_1github_1_1aptd_1_1simulation_1_1elements_1_1passenger_1_1CPassenger_af3a13d3db91533300eea67eb7c99e85e_cgraph_org.svg" target="_base">
           <rect id="button" ry="5" rx="5" y="6" x="6" height="38" width="38"
                fill="#f2f5e9" fill-opacity="0.5" stroke="#606060" stroke-width="1.0"/>
           <path id="arrow"
             d="M 11.500037,31.436501 C 11.940474,20.09759 22.043105,11.32322 32.158766,21.979434 L 37.068811,17.246167 C 37.068811,17.246167 37.088388,32 37.088388,32 L 22.160133,31.978069 C 22.160133,31.978069 26.997745,27.140456 26.997745,27.140456 C 18.528582,18.264221 13.291696,25.230495 11.500037,31.436501 z"
             style="fill:#404040;"/>
          </a>
         </g>
        </svg>
</svg>
