<?xml version="1.0" encoding="UTF-8" standalone="no"?>
<!DOCTYPE svg PUBLIC "-//W3C//DTD SVG 1.1//EN"
 "http://www.w3.org/Graphics/SVG/1.1/DTD/svg11.dtd">
<!-- Generated by graphviz version 2.36.0 (20140111.2315)
 -->
<!-- Title: com.github.aptd.simulation.elements.passenger.CPassenger.determinenextstatechange Pages: 1 -->
<svg width="722pt" height="36pt"
 viewBox="0.00 0.00 722.00 36.00" xmlns="http://www.w3.org/2000/svg" xmlns:xlink="http://www.w3.org/1999/xlink">
<g id="graph0" class="graph" transform="scale(1 1) rotate(0) translate(4 32)">
<title>com.github.aptd.simulation.elements.passenger.CPassenger.determinenextstatechange</title>
<!-- Node5 -->
<g id="node1" class="node"><title>Node5</title>
<polygon fill="#bfbfbf" stroke="black" points="0,-0 0,-28 214,-28 214,-0 0,-0"/>
<text text-anchor="start" x="8" y="-16.8" font-family="Helvetica,sans-Serif" font-size="9.00">com.github.aptd.simulation.elements.passenger.</text>
<text text-anchor="middle" x="107" y="-6.8" font-family="Helvetica,sans-Serif" font-size="9.00">CPassenger.determinenextstatechange</text>
</g>
<!-- Node6 -->
<g id="node2" class="node"><title>Node6</title>
<g id="a_node2"><a xlink:href="../../d7/da9/classcom_1_1github_1_1aptd_1_1simulation_1_1elements_1_1passenger_1_1CPassenger.htm#a441ee6a32190d36d561ca6fc4e6fe736" target="_top" xlink:title="ctor ">
<polygon fill="none" stroke="black" points="250,-0 250,-28 464,-28 464,-0 250,-0"/>
<text text-anchor="start" x="258" y="-16.8" font-family="Helvetica,sans-Serif" font-size="9.00">com.github.aptd.simulation.elements.passenger.</text>
<text text-anchor="middle" x="357" y="-6.8" font-family="Helvetica,sans-Serif" font-size="9.00">CPassenger.CPassenger</text>
</a>
</g>
</g>
<!-- Node5&#45;&gt;Node6 -->
<g id="edge1" class="edge"><title>Node5&#45;&gt;Node6</title>
<path fill="none" stroke="midnightblue" d="M224.279,-14C232.847,-14 241.465,-14 249.967,-14"/>
<polygon fill="midnightblue" stroke="midnightblue" points="224.254,-10.5001 214.254,-14 224.254,-17.5001 224.254,-10.5001"/>
</g>
<!-- Node7 -->
<g id="node3" class="node"><title>Node7</title>
<g id="a_node3"><a xlink:href="../../de/dc6/classcom_1_1github_1_1aptd_1_1simulation_1_1elements_1_1passenger_1_1CPassenger_1_1CGenerator.htm#a237f5f25fcf71cb2c744a3a09bbda7c0" target="_top" xlink:title="com.github.aptd.simulation.elements.passenger.\lCPassenger.CGenerator.generate">
<polygon fill="none" stroke="black" points="500,-0 500,-28 714,-28 714,-0 500,-0"/>
<text text-anchor="start" x="508" y="-16.8" font-family="Helvetica,sans-Serif" font-size="9.00">com.github.aptd.simulation.elements.passenger.</text>
<text text-anchor="middle" x="607" y="-6.8" font-family="Helvetica,sans-Serif" font-size="9.00">CPassenger.CGenerator.generate</text>
</a>
</g>
</g>
<!-- Node6&#45;&gt;Node7 -->
<g id="edge2" class="edge"><title>Node6&#45;&gt;Node7</title>
<path fill="none" stroke="midnightblue" d="M474.279,-14C482.847,-14 491.465,-14 499.967,-14"/>
<polygon fill="midnightblue" stroke="midnightblue" points="474.254,-10.5001 464.254,-14 474.254,-17.5001 474.254,-10.5001"/>
</g>
</g>
</svg>
