<?xml version="1.0" encoding="UTF-8" standalone="no"?>
<!DOCTYPE svg PUBLIC "-//W3C//DTD SVG 1.1//EN"
 "http://www.w3.org/Graphics/SVG/1.1/DTD/svg11.dtd">
<!-- Generated by graphviz version 2.36.0 (20140111.2315)
 -->
<!-- Title: com.github.aptd.simulation.core.experiment.local.CExperiment Pages: 1 -->
<svg width="918pt" height="500pt"
 viewBox="0.00 0.00 918.00 500.00" xmlns="http://www.w3.org/2000/svg" xmlns:xlink="http://www.w3.org/1999/xlink">
<g id="graph0" class="graph" transform="scale(1 1) rotate(0) translate(4 496)">
<title>com.github.aptd.simulation.core.experiment.local.CExperiment</title>
<!-- Node2 -->
<g id="node1" class="node"><title>Node2</title>
<polygon fill="#bfbfbf" stroke="black" points="397,-1 397,-185 615,-185 615,-1 397,-1"/>
<text text-anchor="start" x="405" y="-173.8" font-family="Helvetica,sans-Serif" font-size="9.00">com.github.aptd.simulation.core.experiment.local.</text>
<text text-anchor="middle" x="506" y="-163.8" font-family="Helvetica,sans-Serif" font-size="9.00">CExperiment</text>
<polyline fill="none" stroke="black" points="397,-157 615,-157 "/>
<text text-anchor="start" x="405" y="-145.8" font-family="Helvetica,sans-Serif" font-size="9.00">&#45; m_actions</text>
<text text-anchor="start" x="405" y="-135.8" font-family="Helvetica,sans-Serif" font-size="9.00">&#45; m_agents</text>
<text text-anchor="start" x="405" y="-125.8" font-family="Helvetica,sans-Serif" font-size="9.00">&#45; m_parallel</text>
<text text-anchor="start" x="405" y="-115.8" font-family="Helvetica,sans-Serif" font-size="9.00">&#45; m_steps</text>
<polyline fill="none" stroke="black" points="397,-109 615,-109 "/>
<text text-anchor="start" x="405" y="-97.8" font-family="Helvetica,sans-Serif" font-size="9.00">+ CExperiment()</text>
<text text-anchor="start" x="405" y="-87.8" font-family="Helvetica,sans-Serif" font-size="9.00">+ actions()</text>
<text text-anchor="start" x="405" y="-77.8" font-family="Helvetica,sans-Serif" font-size="9.00">+ addAgent()</text>
<text text-anchor="start" x="405" y="-67.8" font-family="Helvetica,sans-Serif" font-size="9.00">+ getAgent()</text>
<text text-anchor="start" x="405" y="-57.8" font-family="Helvetica,sans-Serif" font-size="9.00">+ objects()</text>
<text text-anchor="start" x="405" y="-47.8" font-family="Helvetica,sans-Serif" font-size="9.00">+ parallel()</text>
<text text-anchor="start" x="405" y="-37.8" font-family="Helvetica,sans-Serif" font-size="9.00">+ preprocess()</text>
<text text-anchor="start" x="405" y="-27.8" font-family="Helvetica,sans-Serif" font-size="9.00">+ simulationsteps()</text>
<text text-anchor="start" x="405" y="-17.8" font-family="Helvetica,sans-Serif" font-size="9.00">+ statistic()</text>
<text text-anchor="start" x="405" y="-7.8" font-family="Helvetica,sans-Serif" font-size="9.00">+ time()</text>
</g>
<!-- Node3 -->
<g id="node2" class="node"><title>Node3</title>
<g id="a_node2"><a xlink:href="../../de/d57/interfacecom_1_1github_1_1aptd_1_1simulation_1_1core_1_1experiment_1_1IExperiment.htm" target="_top" xlink:title="a single experiment run ">
<polygon fill="none" stroke="black" points="-0.5,-233 -0.5,-377 196.5,-377 196.5,-233 -0.5,-233"/>
<text text-anchor="start" x="7.5" y="-365.8" font-family="Helvetica,sans-Serif" font-size="9.00">com.github.aptd.simulation.core.experiment.</text>
<text text-anchor="middle" x="98" y="-355.8" font-family="Helvetica,sans-Serif" font-size="9.00">IExperiment</text>
<polyline fill="none" stroke="black" points="-0.5,-349 196.5,-349 "/>
<text text-anchor="middle" x="98" y="-337.8" font-family="Helvetica,sans-Serif" font-size="9.00"> </text>
<polyline fill="none" stroke="black" points="-0.5,-331 196.5,-331 "/>
<text text-anchor="start" x="7.5" y="-319.8" font-family="Helvetica,sans-Serif" font-size="9.00">+ actions()</text>
<text text-anchor="start" x="7.5" y="-309.8" font-family="Helvetica,sans-Serif" font-size="9.00">+ addAgent()</text>
<text text-anchor="start" x="7.5" y="-299.8" font-family="Helvetica,sans-Serif" font-size="9.00">+ getAgent()</text>
<text text-anchor="start" x="7.5" y="-289.8" font-family="Helvetica,sans-Serif" font-size="9.00">+ objects()</text>
<text text-anchor="start" x="7.5" y="-279.8" font-family="Helvetica,sans-Serif" font-size="9.00">+ parallel()</text>
<text text-anchor="start" x="7.5" y="-269.8" font-family="Helvetica,sans-Serif" font-size="9.00">+ preprocess()</text>
<text text-anchor="start" x="7.5" y="-259.8" font-family="Helvetica,sans-Serif" font-size="9.00">+ simulationsteps()</text>
<text text-anchor="start" x="7.5" y="-249.8" font-family="Helvetica,sans-Serif" font-size="9.00">+ statistic()</text>
<text text-anchor="start" x="7.5" y="-239.8" font-family="Helvetica,sans-Serif" font-size="9.00">+ time()</text>
</a>
</g>
</g>
<!-- Node3&#45;&gt;Node2 -->
<g id="edge1" class="edge"><title>Node3&#45;&gt;Node2</title>
<path fill="none" stroke="midnightblue" d="M205.484,-248.677C264.53,-218.286 337.594,-180.679 396.894,-150.157"/>
<polygon fill="none" stroke="midnightblue" points="203.795,-245.61 196.505,-253.299 206.998,-251.834 203.795,-245.61"/>
</g>
<!-- Node3&#45;&gt;Node3 -->
<g id="edge2" class="edge"><title>Node3&#45;&gt;Node3</title>
<path fill="none" stroke="#404040" d="M196.588,-319.403C207.184,-316.629 214,-311.828 214,-305 214,-301.052 211.722,-297.782 207.752,-295.19"/>
<polygon fill="none" stroke="#404040" points="207.685,-295.163 200.615,-296.579 196.588,-290.597 203.659,-289.181 207.685,-295.163"/>
<text text-anchor="middle" x="233.5" y="-302.8" font-family="Helvetica,sans-Serif" font-size="9.00"> +EMPTY</text>
</g>
<!-- Node4 -->
<g id="node3" class="node"><title>Node4</title>
<g id="a_node3"><a xlink:href="../../db/d65/interfacecom_1_1github_1_1aptd_1_1simulation_1_1core_1_1time_1_1ITime.htm" target="_top" xlink:title="time interface ">
<polygon fill="none" stroke="black" points="272,-253 272,-357 440,-357 440,-253 272,-253"/>
<text text-anchor="start" x="280" y="-345.8" font-family="Helvetica,sans-Serif" font-size="9.00">com.github.aptd.simulation.core.time.</text>
<text text-anchor="middle" x="356" y="-335.8" font-family="Helvetica,sans-Serif" font-size="9.00">ITime</text>
<polyline fill="none" stroke="black" points="272,-329 440,-329 "/>
<text text-anchor="middle" x="356" y="-317.8" font-family="Helvetica,sans-Serif" font-size="9.00"> </text>
<polyline fill="none" stroke="black" points="272,-311 440,-311 "/>
<text text-anchor="start" x="280" y="-299.8" font-family="Helvetica,sans-Serif" font-size="9.00">+ active()</text>
<text text-anchor="start" x="280" y="-289.8" font-family="Helvetica,sans-Serif" font-size="9.00">+ addagent()</text>
<text text-anchor="start" x="280" y="-279.8" font-family="Helvetica,sans-Serif" font-size="9.00">+ current()</text>
<text text-anchor="start" x="280" y="-269.8" font-family="Helvetica,sans-Serif" font-size="9.00">+ raw()</text>
<text text-anchor="start" x="280" y="-259.8" font-family="Helvetica,sans-Serif" font-size="9.00">+ removeagent()</text>
</a>
</g>
</g>
<!-- Node4&#45;&gt;Node2 -->
<g id="edge3" class="edge"><title>Node4&#45;&gt;Node2</title>
<path fill="none" stroke="#404040" d="M392.502,-252.897C405.022,-235.369 419.506,-215.091 433.851,-195.009"/>
<polygon fill="none" stroke="#404040" points="433.898,-194.943 434.13,-187.736 440.872,-185.179 440.64,-192.386 433.898,-194.943"/>
<text text-anchor="middle" x="445" y="-206.8" font-family="Helvetica,sans-Serif" font-size="9.00"> &#45;m_time</text>
</g>
<!-- Node5 -->
<g id="node4" class="node"><title>Node5</title>
<g id="a_node4"><a xlink:href="../../d4/d0d/interfacecom_1_1github_1_1aptd_1_1simulation_1_1elements_1_1IPerceiveable.htm" target="_top" xlink:title="any object which be perceived by an agent ">
<polygon fill="none" stroke="black" points="272,-417 272,-491 440,-491 440,-417 272,-417"/>
<text text-anchor="start" x="280" y="-479.8" font-family="Helvetica,sans-Serif" font-size="9.00">com.github.aptd.simulation.elements.</text>
<text text-anchor="middle" x="356" y="-469.8" font-family="Helvetica,sans-Serif" font-size="9.00">IPerceiveable</text>
<polyline fill="none" stroke="black" points="272,-463 440,-463 "/>
<text text-anchor="middle" x="356" y="-451.8" font-family="Helvetica,sans-Serif" font-size="9.00"> </text>
<polyline fill="none" stroke="black" points="272,-445 440,-445 "/>
<text text-anchor="start" x="280" y="-433.8" font-family="Helvetica,sans-Serif" font-size="9.00">+ literal()</text>
<text text-anchor="start" x="280" y="-423.8" font-family="Helvetica,sans-Serif" font-size="9.00">+ literal()</text>
</a>
</g>
</g>
<!-- Node5&#45;&gt;Node4 -->
<g id="edge4" class="edge"><title>Node5&#45;&gt;Node4</title>
<path fill="none" stroke="midnightblue" d="M356,-406.641C356,-390.912 356,-373.253 356,-357.17"/>
<polygon fill="none" stroke="midnightblue" points="352.5,-406.663 356,-416.663 359.5,-406.663 352.5,-406.663"/>
</g>
<!-- Node6 -->
<g id="node5" class="node"><title>Node6</title>
<g id="a_node5"><a xlink:href="../../d4/d5c/interfacecom_1_1github_1_1aptd_1_1simulation_1_1core_1_1messaging_1_1IMessenger.htm" target="_top" xlink:title="messenger interface (the messenger is a callable unit called in the preprocessing step of each cycle)...">
<polygon fill="none" stroke="black" points="458,-273 458,-337 654,-337 654,-273 458,-273"/>
<text text-anchor="start" x="466" y="-325.8" font-family="Helvetica,sans-Serif" font-size="9.00">com.github.aptd.simulation.core.messaging.</text>
<text text-anchor="middle" x="556" y="-315.8" font-family="Helvetica,sans-Serif" font-size="9.00">IMessenger</text>
<polyline fill="none" stroke="black" points="458,-309 654,-309 "/>
<text text-anchor="middle" x="556" y="-297.8" font-family="Helvetica,sans-Serif" font-size="9.00"> </text>
<polyline fill="none" stroke="black" points="458,-291 654,-291 "/>
<text text-anchor="middle" x="556" y="-279.8" font-family="Helvetica,sans-Serif" font-size="9.00"> </text>
</a>
</g>
</g>
<!-- Node6&#45;&gt;Node2 -->
<g id="edge5" class="edge"><title>Node6&#45;&gt;Node2</title>
<path fill="none" stroke="#404040" d="M548.514,-272.561C543.675,-252.237 537.077,-224.524 530.523,-196.995"/>
<polygon fill="none" stroke="#404040" points="530.501,-196.904 525.22,-191.993 527.721,-185.23 533.002,-190.14 530.501,-196.904"/>
<text text-anchor="middle" x="566" y="-206.8" font-family="Helvetica,sans-Serif" font-size="9.00"> &#45;m_messenger</text>
</g>
<!-- Node7 -->
<g id="node6" class="node"><title>Node7</title>
<g id="a_node6"><a xlink:href="../../d0/da1/interfacecom_1_1github_1_1aptd_1_1simulation_1_1core_1_1statistic_1_1IStatistic.htm" target="_top" xlink:title="statistic evaluation of an experiment ">
<polygon fill="none" stroke="black" points="672.5,-268 672.5,-342 853.5,-342 853.5,-268 672.5,-268"/>
<text text-anchor="start" x="680.5" y="-330.8" font-family="Helvetica,sans-Serif" font-size="9.00">com.github.aptd.simulation.core.statistic.</text>
<text text-anchor="middle" x="763" y="-320.8" font-family="Helvetica,sans-Serif" font-size="9.00">IStatistic</text>
<polyline fill="none" stroke="black" points="672.5,-314 853.5,-314 "/>
<text text-anchor="middle" x="763" y="-302.8" font-family="Helvetica,sans-Serif" font-size="9.00"> </text>
<polyline fill="none" stroke="black" points="672.5,-296 853.5,-296 "/>
<text text-anchor="start" x="680.5" y="-284.8" font-family="Helvetica,sans-Serif" font-size="9.00">+ action()</text>
<text text-anchor="start" x="680.5" y="-274.8" font-family="Helvetica,sans-Serif" font-size="9.00">+ write()</text>
</a>
</g>
</g>
<!-- Node7&#45;&gt;Node2 -->
<g id="edge6" class="edge"><title>Node7&#45;&gt;Node2</title>
<path fill="none" stroke="#404040" d="M718.82,-267.9C692.649,-246.515 658.124,-218.304 624.515,-190.841"/>
<polygon fill="none" stroke="#404040" points="624.36,-190.714 617.183,-190.015 615.068,-183.121 622.245,-183.82 624.36,-190.714"/>
<text text-anchor="middle" x="674.5" y="-206.8" font-family="Helvetica,sans-Serif" font-size="9.00"> &#45;m_statistic</text>
</g>
<!-- Node7&#45;&gt;Node7 -->
<g id="edge7" class="edge"><title>Node7&#45;&gt;Node7</title>
<path fill="none" stroke="#404040" d="M853.604,-319.722C864.143,-317.005 871,-312.098 871,-305 871,-300.897 868.708,-297.525 864.738,-294.886"/>
<polygon fill="none" stroke="#404040" points="864.692,-294.867 857.618,-296.268 853.604,-290.278 860.678,-288.877 864.692,-294.867"/>
<text text-anchor="middle" x="890.5" y="-302.8" font-family="Helvetica,sans-Serif" font-size="9.00"> +EMPTY</text>
</g>
</g>
</svg>
