<?xml version="1.0" encoding="UTF-8" standalone="no"?>
<!DOCTYPE svg PUBLIC "-//W3C//DTD SVG 1.1//EN"
 "http://www.w3.org/Graphics/SVG/1.1/DTD/svg11.dtd">
<!-- Generated by graphviz version 2.36.0 (20140111.2315)
 -->
<!-- Title: com.github.aptd.simulation.core.statistic.local.CStatistic Pages: 1 -->
<svg width="256pt" height="208pt"
 viewBox="0.00 0.00 256.00 208.00" xmlns="http://www.w3.org/2000/svg" xmlns:xlink="http://www.w3.org/1999/xlink">
<g id="graph0" class="graph" transform="scale(1 1) rotate(0) translate(4 204)">
<title>com.github.aptd.simulation.core.statistic.local.CStatistic</title>
<!-- Node2 -->
<g id="node1" class="node"><title>Node2</title>
<polygon fill="#bfbfbf" stroke="black" points="-0.5,-1 -0.5,-85 202.5,-85 202.5,-1 -0.5,-1"/>
<text text-anchor="start" x="7.5" y="-73.8" font-family="Helvetica,sans-Serif" font-size="9.00">com.github.aptd.simulation.core.statistic.local.</text>
<text text-anchor="middle" x="101" y="-63.8" font-family="Helvetica,sans-Serif" font-size="9.00">CStatistic</text>
<polyline fill="none" stroke="black" points="-0.5,-57 202.5,-57 "/>
<text text-anchor="start" x="7.5" y="-45.8" font-family="Helvetica,sans-Serif" font-size="9.00">&#45; m_data</text>
<polyline fill="none" stroke="black" points="-0.5,-39 202.5,-39 "/>
<text text-anchor="start" x="7.5" y="-27.8" font-family="Helvetica,sans-Serif" font-size="9.00">+ action()</text>
<text text-anchor="start" x="7.5" y="-17.8" font-family="Helvetica,sans-Serif" font-size="9.00">+ write()</text>
<text text-anchor="start" x="7.5" y="-7.8" font-family="Helvetica,sans-Serif" font-size="9.00">&#45; apply()</text>
</g>
<!-- Node3 -->
<g id="node2" class="node"><title>Node3</title>
<g id="a_node2"><a xlink:href="../../d0/da1/interfacecom_1_1github_1_1aptd_1_1simulation_1_1core_1_1statistic_1_1IStatistic.htm" target="_top" xlink:title="statistic evaluation of an experiment ">
<polygon fill="none" stroke="black" points="10.5,-125 10.5,-199 191.5,-199 191.5,-125 10.5,-125"/>
<text text-anchor="start" x="18.5" y="-187.8" font-family="Helvetica,sans-Serif" font-size="9.00">com.github.aptd.simulation.core.statistic.</text>
<text text-anchor="middle" x="101" y="-177.8" font-family="Helvetica,sans-Serif" font-size="9.00">IStatistic</text>
<polyline fill="none" stroke="black" points="10.5,-171 191.5,-171 "/>
<text text-anchor="middle" x="101" y="-159.8" font-family="Helvetica,sans-Serif" font-size="9.00"> </text>
<polyline fill="none" stroke="black" points="10.5,-153 191.5,-153 "/>
<text text-anchor="start" x="18.5" y="-141.8" font-family="Helvetica,sans-Serif" font-size="9.00">+ action()</text>
<text text-anchor="start" x="18.5" y="-131.8" font-family="Helvetica,sans-Serif" font-size="9.00">+ write()</text>
</a>
</g>
</g>
<!-- Node3&#45;&gt;Node2 -->
<g id="edge1" class="edge"><title>Node3&#45;&gt;Node2</title>
<path fill="none" stroke="midnightblue" d="M101,-114.901C101,-105.047 101,-94.7008 101,-85.0519"/>
<polygon fill="none" stroke="midnightblue" points="97.5001,-114.941 101,-124.941 104.5,-114.941 97.5001,-114.941"/>
</g>
<!-- Node3&#45;&gt;Node3 -->
<g id="edge2" class="edge"><title>Node3&#45;&gt;Node3</title>
<path fill="none" stroke="#404040" d="M191.604,-170.961C202.143,-169.307 209,-166.32 209,-162 209,-159.637 206.949,-157.673 203.367,-156.108"/>
<polygon fill="none" stroke="#404040" points="203.215,-156.069 196.4,-158.424 191.604,-153.039 198.42,-150.683 203.215,-156.069"/>
<text text-anchor="middle" x="228.5" y="-159.8" font-family="Helvetica,sans-Serif" font-size="9.00"> +EMPTY</text>
</g>
</g>
</svg>
