<?xml version="1.0" encoding="UTF-8" standalone="no"?>
<!DOCTYPE svg PUBLIC "-//W3C//DTD SVG 1.1//EN"
 "http://www.w3.org/Graphics/SVG/1.1/DTD/svg11.dtd">
<!-- Generated by graphviz version 2.36.0 (20140111.2315)
 -->
<!-- Title: com.github.aptd.simulation.elements.common.CGPS Pages: 1 -->
<svg width="238pt" height="348pt"
 viewBox="0.00 0.00 238.00 348.00" xmlns="http://www.w3.org/2000/svg" xmlns:xlink="http://www.w3.org/1999/xlink">
<g id="graph0" class="graph" transform="scale(1 1) rotate(0) translate(4 344)">
<title>com.github.aptd.simulation.elements.common.CGPS</title>
<!-- Node0 -->
<g id="node1" class="node"><title>Node0</title>
<polygon fill="#bfbfbf" stroke="black" points="-0.5,-1 -0.5,-115 230.5,-115 230.5,-1 -0.5,-1"/>
<text text-anchor="middle" x="115" y="-103.8" font-family="Helvetica,sans-Serif" font-size="9.00">com.github.aptd.simulation.elements.common.CGPS</text>
<polyline fill="none" stroke="black" points="-0.5,-97 230.5,-97 "/>
<text text-anchor="start" x="7.5" y="-85.8" font-family="Helvetica,sans-Serif" font-size="9.00">&#45; m_literal</text>
<text text-anchor="start" x="7.5" y="-75.8" font-family="Helvetica,sans-Serif" font-size="9.00">&#45; m_position</text>
<polyline fill="none" stroke="black" points="-0.5,-69 230.5,-69 "/>
<text text-anchor="start" x="7.5" y="-57.8" font-family="Helvetica,sans-Serif" font-size="9.00">+ CGPS()</text>
<text text-anchor="start" x="7.5" y="-47.8" font-family="Helvetica,sans-Serif" font-size="9.00">+ latitude()</text>
<text text-anchor="start" x="7.5" y="-37.8" font-family="Helvetica,sans-Serif" font-size="9.00">+ literal()</text>
<text text-anchor="start" x="7.5" y="-27.8" font-family="Helvetica,sans-Serif" font-size="9.00">+ literal()</text>
<text text-anchor="start" x="7.5" y="-17.8" font-family="Helvetica,sans-Serif" font-size="9.00">+ longitude()</text>
<text text-anchor="start" x="7.5" y="-7.8" font-family="Helvetica,sans-Serif" font-size="9.00">+ matrix()</text>
</g>
<!-- Node1 -->
<g id="node2" class="node"><title>Node1</title>
<g id="a_node2"><a xlink:href="../../d8/dc1/interfacecom_1_1github_1_1aptd_1_1simulation_1_1elements_1_1common_1_1IGPS.htm" target="_top" xlink:title="GPS matrix wrapper interface. ">
<polygon fill="none" stroke="black" points="1.5,-153 1.5,-227 228.5,-227 228.5,-153 1.5,-153"/>
<text text-anchor="middle" x="115" y="-215.8" font-family="Helvetica,sans-Serif" font-size="9.00">com.github.aptd.simulation.elements.common.IGPS</text>
<polyline fill="none" stroke="black" points="1.5,-209 228.5,-209 "/>
<text text-anchor="middle" x="115" y="-197.8" font-family="Helvetica,sans-Serif" font-size="9.00"> </text>
<polyline fill="none" stroke="black" points="1.5,-191 228.5,-191 "/>
<text text-anchor="start" x="9.5" y="-179.8" font-family="Helvetica,sans-Serif" font-size="9.00">+ latitude()</text>
<text text-anchor="start" x="9.5" y="-169.8" font-family="Helvetica,sans-Serif" font-size="9.00">+ longitude()</text>
<text text-anchor="start" x="9.5" y="-159.8" font-family="Helvetica,sans-Serif" font-size="9.00">+ matrix()</text>
</a>
</g>
</g>
<!-- Node1&#45;&gt;Node0 -->
<g id="edge1" class="edge"><title>Node1&#45;&gt;Node0</title>
<path fill="none" stroke="midnightblue" d="M115,-142.708C115,-133.887 115,-124.564 115,-115.467"/>
<polygon fill="none" stroke="midnightblue" points="111.5,-142.788 115,-152.788 118.5,-142.788 111.5,-142.788"/>
</g>
<!-- Node2 -->
<g id="node3" class="node"><title>Node2</title>
<g id="a_node3"><a xlink:href="../../d4/d0d/interfacecom_1_1github_1_1aptd_1_1simulation_1_1elements_1_1IPerceiveable.htm" target="_top" xlink:title="any object which be perceived by an agent ">
<polygon fill="none" stroke="black" points="31,-265 31,-339 199,-339 199,-265 31,-265"/>
<text text-anchor="start" x="39" y="-327.8" font-family="Helvetica,sans-Serif" font-size="9.00">com.github.aptd.simulation.elements.</text>
<text text-anchor="middle" x="115" y="-317.8" font-family="Helvetica,sans-Serif" font-size="9.00">IPerceiveable</text>
<polyline fill="none" stroke="black" points="31,-311 199,-311 "/>
<text text-anchor="middle" x="115" y="-299.8" font-family="Helvetica,sans-Serif" font-size="9.00"> </text>
<polyline fill="none" stroke="black" points="31,-293 199,-293 "/>
<text text-anchor="start" x="39" y="-281.8" font-family="Helvetica,sans-Serif" font-size="9.00">+ literal()</text>
<text text-anchor="start" x="39" y="-271.8" font-family="Helvetica,sans-Serif" font-size="9.00">+ literal()</text>
</a>
</g>
</g>
<!-- Node2&#45;&gt;Node1 -->
<g id="edge2" class="edge"><title>Node2&#45;&gt;Node1</title>
<path fill="none" stroke="midnightblue" d="M115,-254.752C115,-245.513 115,-235.935 115,-227.099"/>
<polygon fill="none" stroke="midnightblue" points="111.5,-254.982 115,-264.982 118.5,-254.982 111.5,-254.982"/>
</g>
</g>
</svg>
