<?xml version="1.0" encoding="UTF-8" standalone="no"?>
<!DOCTYPE svg PUBLIC "-//W3C//DTD SVG 1.1//EN"
 "http://www.w3.org/Graphics/SVG/1.1/DTD/svg11.dtd">
<!-- Generated by graphviz version 2.36.0 (20140111.2315)
 -->
<!-- Title: com.github.aptd.simulation.elements.IElement.id Pages: 1 -->
<!--zoomable 365 -->
<svg id="main" version="1.1" xmlns="http://www.w3.org/2000/svg" xmlns:xlink="http://www.w3.org/1999/xlink" xml:space="preserve" onload="init(evt)">
<style type="text/css"><![CDATA[
.edge:hover path { stroke: red; }
.edge:hover polygon { stroke: red; fill: red; }
]]></style>
<script type="text/javascript"><![CDATA[
var edges = document.getElementsByTagName('g');
if (edges && edges.length) {
  for (var i=0;i<edges.length;i++) {
    if (edges[i].id.substr(0,4)=='edge') {
      edges[i].setAttribute('class','edge');
    }
  }
}
]]></script>
        <defs>
                <circle id="rim" cx="0" cy="0" r="7"/>
                <circle id="rim2" cx="0" cy="0" r="3.5"/>
                <g id="zoomPlus">
                        <use xlink:href="#rim" fill="#404040">
                                <set attributeName="fill" to="#808080" begin="zoomplus.mouseover" end="zoomplus.mouseout"/>
                        </use>
                        <path d="M-4,0h8M0,-4v8" fill="none" stroke="white" stroke-width="1.5" pointer-events="none"/>
                </g>
                <g id="zoomMin">
                        <use xlink:href="#rim" fill="#404040">
                                <set attributeName="fill" to="#808080" begin="zoomminus.mouseover" end="zoomminus.mouseout"/>
                        </use>
                        <path d="M-4,0h8" fill="none" stroke="white" stroke-width="1.5" pointer-events="none"/>
                </g>
                <g id="dirArrow">
                        <path fill="none" stroke="white" stroke-width="1.5" d="M0,-3.0v7 M-2.5,-0.5L0,-3.0L2.5,-0.5"/>
                </g>
               <g id="resetDef">
                       <use xlink:href="#rim2" fill="#404040">
                               <set attributeName="fill" to="#808080" begin="reset.mouseover" end="reset.mouseout"/>
                       </use>
               </g>
        </defs>

<script type="text/javascript">
var viewWidth = 714;
var viewHeight = 365;
var sectionId = 'dynsection-2';
</script>
<script xlink:href="../../svgpan.js"/>
<svg id="graph" class="graph">
<g id="viewport">
<title>com.github.aptd.simulation.elements.IElement.id</title>
<!-- Node3 -->
<g id="node1" class="node"><title>Node3</title>
<polygon fill="#bfbfbf" stroke="black" points="0,-164 0,-192 168,-192 168,-164 0,-164"/>
<text text-anchor="start" x="8" y="-180.8" font-family="Helvetica,sans-Serif" font-size="9.00">com.github.aptd.simulation.elements.</text>
<text text-anchor="middle" x="84" y="-170.8" font-family="Helvetica,sans-Serif" font-size="9.00">IElement.id</text>
</g>
<!-- Node4 -->
<g id="node2" class="node"><title>Node4</title>
<g id="a_node2"><a xlink:href="../../d3/d24/classcom_1_1github_1_1aptd_1_1simulation_1_1elements_1_1passenger_1_1CPassengerSource.htm#a9b715cf2c3aa560d7903122056f2846c" target="_top" xlink:title="com.github.aptd.simulation.elements.passenger.\lCPassengerSource.generatepassenger">
<polygon fill="none" stroke="black" points="223,-329 223,-357 437,-357 437,-329 223,-329"/>
<text text-anchor="start" x="231" y="-345.8" font-family="Helvetica,sans-Serif" font-size="9.00">com.github.aptd.simulation.elements.passenger.</text>
<text text-anchor="middle" x="330" y="-335.8" font-family="Helvetica,sans-Serif" font-size="9.00">CPassengerSource.generatepassenger</text>
</a>
</g>
</g>
<!-- Node3&#45;&gt;Node4 -->
<g id="edge1" class="edge"><title>Node3&#45;&gt;Node4</title>
<path fill="none" stroke="midnightblue" d="M97.5837,-201.058C116.318,-233.025 154.69,-290.125 204,-319 210.674,-322.908 217.86,-326.196 225.292,-328.961"/>
<polygon fill="midnightblue" stroke="midnightblue" points="100.622,-199.32 92.6183,-192.377 94.5454,-202.795 100.622,-199.32"/>
</g>
<!-- Node6 -->
<g id="node4" class="node"><title>Node6</title>
<g id="a_node4"><a xlink:href="../../d4/d97/classcom_1_1github_1_1aptd_1_1simulation_1_1elements_1_1graph_1_1TestCNetwork.htm#a2e0c363e5e0226402727118af7afc850" target="_top" xlink:title="network design test ">
<polygon fill="none" stroke="black" points="233,-282 233,-310 427,-310 427,-282 233,-282"/>
<text text-anchor="start" x="241" y="-298.8" font-family="Helvetica,sans-Serif" font-size="9.00">com.github.aptd.simulation.elements.graph.</text>
<text text-anchor="middle" x="330" y="-288.8" font-family="Helvetica,sans-Serif" font-size="9.00">TestCNetwork.networkbuild</text>
</a>
</g>
</g>
<!-- Node3&#45;&gt;Node6 -->
<g id="edge3" class="edge"><title>Node3&#45;&gt;Node6</title>
<path fill="none" stroke="midnightblue" d="M105.334,-199.212C127.493,-220.998 165.024,-254.166 204,-272 213.143,-276.183 222.984,-279.638 232.987,-282.49"/>
<polygon fill="midnightblue" stroke="midnightblue" points="107.701,-196.63 98.1592,-192.025 102.747,-201.575 107.701,-196.63"/>
</g>
<!-- Node7 -->
<g id="node5" class="node"><title>Node7</title>
<g id="a_node5"><a xlink:href="../../d1/d3a/classcom_1_1github_1_1aptd_1_1simulation_1_1elements_1_1train_1_1CDoor.htm#a3b7a4e4d9b0b5d0aae227d73de077539" target="_top" xlink:title="com.github.aptd.simulation.elements.train.\lCDoor.passengerfinished">
<polygon fill="none" stroke="black" points="236,-235 236,-263 424,-263 424,-235 236,-235"/>
<text text-anchor="start" x="244" y="-251.8" font-family="Helvetica,sans-Serif" font-size="9.00">com.github.aptd.simulation.elements.train.</text>
<text text-anchor="middle" x="330" y="-241.8" font-family="Helvetica,sans-Serif" font-size="9.00">CDoor.passengerfinished</text>
</a>
</g>
</g>
<!-- Node3&#45;&gt;Node7 -->
<g id="edge4" class="edge"><title>Node3&#45;&gt;Node7</title>
<path fill="none" stroke="midnightblue" d="M125.578,-196.208C148.283,-205.839 177.311,-217.241 204,-225 216.944,-228.763 230.816,-232.095 244.44,-234.989"/>
<polygon fill="midnightblue" stroke="midnightblue" points="126.83,-192.936 116.26,-192.205 124.067,-199.368 126.83,-192.936"/>
</g>
<!-- Node9 -->
<g id="node7" class="node"><title>Node9</title>
<g id="a_node7"><a xlink:href="../../d0/dfe/classcom_1_1github_1_1aptd_1_1simulation_1_1datamodel_1_1CXMLReader.htm#af90f1d6c5b061d193bc185891a673426" target="_top" xlink:title="create the platforms of all stations ">
<polygon fill="none" stroke="black" points="243,-188 243,-216 417,-216 417,-188 243,-188"/>
<text text-anchor="start" x="251" y="-204.8" font-family="Helvetica,sans-Serif" font-size="9.00">com.github.aptd.simulation.datamodel.</text>
<text text-anchor="middle" x="330" y="-194.8" font-family="Helvetica,sans-Serif" font-size="9.00">CXMLReader.platform</text>
</a>
</g>
</g>
<!-- Node3&#45;&gt;Node9 -->
<g id="edge6" class="edge"><title>Node3&#45;&gt;Node9</title>
<path fill="none" stroke="midnightblue" d="M178.256,-187.173C199.451,-189.257 221.874,-191.463 242.763,-193.518"/>
<polygon fill="midnightblue" stroke="midnightblue" points="178.583,-183.688 168.289,-186.192 177.898,-190.654 178.583,-183.688"/>
</g>
<!-- Node11 -->
<g id="node9" class="node"><title>Node11</title>
<g id="a_node9"><a xlink:href="../../d0/dfe/classcom_1_1github_1_1aptd_1_1simulation_1_1datamodel_1_1CXMLReader.htm#a2437d80acd49b6cf6ecb2fddf3cc8b39" target="_top" xlink:title="create the station list ">
<polygon fill="none" stroke="black" points="243,-141 243,-169 417,-169 417,-141 243,-141"/>
<text text-anchor="start" x="251" y="-157.8" font-family="Helvetica,sans-Serif" font-size="9.00">com.github.aptd.simulation.datamodel.</text>
<text text-anchor="middle" x="330" y="-147.8" font-family="Helvetica,sans-Serif" font-size="9.00">CXMLReader.station</text>
</a>
</g>
</g>
<!-- Node3&#45;&gt;Node11 -->
<g id="edge8" class="edge"><title>Node3&#45;&gt;Node11</title>
<path fill="none" stroke="midnightblue" d="M178.256,-169.21C199.451,-167.212 221.874,-165.098 242.763,-163.129"/>
<polygon fill="midnightblue" stroke="midnightblue" points="177.916,-165.726 168.289,-170.149 178.573,-172.695 177.916,-165.726"/>
</g>
<!-- Node12 -->
<g id="node10" class="node"><title>Node12</title>
<g id="a_node10"><a xlink:href="../../d0/dfe/classcom_1_1github_1_1aptd_1_1simulation_1_1datamodel_1_1CXMLReader.htm#aa11c2b9e49aa088d189a3cad2276107d" target="_top" xlink:title="create the train list ">
<polygon fill="none" stroke="black" points="243,-94 243,-122 417,-122 417,-94 243,-94"/>
<text text-anchor="start" x="251" y="-110.8" font-family="Helvetica,sans-Serif" font-size="9.00">com.github.aptd.simulation.datamodel.</text>
<text text-anchor="middle" x="330" y="-100.8" font-family="Helvetica,sans-Serif" font-size="9.00">CXMLReader.train</text>
</a>
</g>
</g>
<!-- Node3&#45;&gt;Node12 -->
<g id="edge10" class="edge"><title>Node3&#45;&gt;Node12</title>
<path fill="none" stroke="midnightblue" d="M126.094,-160.018C148.738,-150.645 177.545,-139.586 204,-132 217.064,-128.254 231.065,-124.922 244.799,-122.023"/>
<polygon fill="midnightblue" stroke="midnightblue" points="124.661,-156.823 116.791,-163.916 127.367,-163.279 124.661,-156.823"/>
</g>
<!-- Node13 -->
<g id="node11" class="node"><title>Node13</title>
<g id="a_node11"><a xlink:href="../../d2/d1c/classcom_1_1github_1_1aptd_1_1simulation_1_1elements_1_1graph_1_1network_1_1local_1_1CPlatform.htm#a5a3249dd413863a243be2b57c84cc057" target="_top" xlink:title="com.github.aptd.simulation.elements.graph.network.local.\lCPlatform.updatestate">
<polygon fill="none" stroke="black" points="204.5,-47 204.5,-75 455.5,-75 455.5,-47 204.5,-47"/>
<text text-anchor="start" x="212.5" y="-63.8" font-family="Helvetica,sans-Serif" font-size="9.00">com.github.aptd.simulation.elements.graph.network.local.</text>
<text text-anchor="middle" x="330" y="-53.8" font-family="Helvetica,sans-Serif" font-size="9.00">CPlatform.updatestate</text>
</a>
</g>
</g>
<!-- Node3&#45;&gt;Node13 -->
<g id="edge12" class="edge"><title>Node3&#45;&gt;Node13</title>
<path fill="none" stroke="midnightblue" d="M105.746,-156.664C127.988,-135.111 165.35,-102.564 204,-85 212.651,-81.0689 221.922,-77.7812 231.361,-75.0318"/>
<polygon fill="midnightblue" stroke="midnightblue" points="103.189,-154.27 98.5314,-163.786 108.107,-159.251 103.189,-154.27"/>
</g>
<!-- Node14 -->
<g id="node12" class="node"><title>Node14</title>
<g id="a_node12"><a xlink:href="../../de/dac/classcom_1_1github_1_1aptd_1_1simulation_1_1core_1_1messaging_1_1local_1_1CMessage.htm#ad70c455277dc9dd91b31e22322e63698" target="_top" xlink:title="com.github.aptd.simulation.core.messaging.local.\lCMessage.write">
<polygon fill="none" stroke="black" points="221,-0 221,-28 439,-28 439,-0 221,-0"/>
<text text-anchor="start" x="229" y="-16.8" font-family="Helvetica,sans-Serif" font-size="9.00">com.github.aptd.simulation.core.messaging.local.</text>
<text text-anchor="middle" x="330" y="-6.8" font-family="Helvetica,sans-Serif" font-size="9.00">CMessage.write</text>
</a>
</g>
</g>
<!-- Node3&#45;&gt;Node14 -->
<g id="edge13" class="edge"><title>Node3&#45;&gt;Node14</title>
<path fill="none" stroke="midnightblue" d="M97.869,-154.695C116.741,-122.879 155.055,-66.5464 204,-38 210.681,-34.1035 217.872,-30.8238 225.308,-28.0651"/>
<polygon fill="midnightblue" stroke="midnightblue" points="94.6236,-153.316 92.6461,-163.725 100.683,-156.821 94.6236,-153.316"/>
</g>
<!-- Node5 -->
<g id="node3" class="node"><title>Node5</title>
<g id="a_node3"><a xlink:href="../../d3/d24/classcom_1_1github_1_1aptd_1_1simulation_1_1elements_1_1passenger_1_1CPassengerSource.htm#a0cfcd5b618729985ded35c5f34ff0f2c" target="_top" xlink:title="com.github.aptd.simulation.elements.passenger.\lCPassengerSource.updatestate">
<polygon fill="none" stroke="black" points="492,-329 492,-357 706,-357 706,-329 492,-329"/>
<text text-anchor="start" x="500" y="-345.8" font-family="Helvetica,sans-Serif" font-size="9.00">com.github.aptd.simulation.elements.passenger.</text>
<text text-anchor="middle" x="599" y="-335.8" font-family="Helvetica,sans-Serif" font-size="9.00">CPassengerSource.updatestate</text>
</a>
</g>
</g>
<!-- Node4&#45;&gt;Node5 -->
<g id="edge2" class="edge"><title>Node4&#45;&gt;Node5</title>
<path fill="none" stroke="midnightblue" d="M447.417,-343C462.119,-343 477.102,-343 491.637,-343"/>
<polygon fill="midnightblue" stroke="midnightblue" points="447.293,-339.5 437.293,-343 447.293,-346.5 447.293,-339.5"/>
</g>
<!-- Node8 -->
<g id="node6" class="node"><title>Node8</title>
<g id="a_node6"><a xlink:href="../../d1/d3a/classcom_1_1github_1_1aptd_1_1simulation_1_1elements_1_1train_1_1CDoor.htm#a340a49abfb1fb1f4103395e8acd90409" target="_top" xlink:title="com.github.aptd.simulation.elements.train.\lCDoor.updatestate">
<polygon fill="none" stroke="black" points="505,-235 505,-263 693,-263 693,-235 505,-235"/>
<text text-anchor="start" x="513" y="-251.8" font-family="Helvetica,sans-Serif" font-size="9.00">com.github.aptd.simulation.elements.train.</text>
<text text-anchor="middle" x="599" y="-241.8" font-family="Helvetica,sans-Serif" font-size="9.00">CDoor.updatestate</text>
</a>
</g>
</g>
<!-- Node7&#45;&gt;Node8 -->
<g id="edge5" class="edge"><title>Node7&#45;&gt;Node8</title>
<path fill="none" stroke="midnightblue" d="M434.24,-249C457.501,-249 482.055,-249 504.873,-249"/>
<polygon fill="midnightblue" stroke="midnightblue" points="434.009,-245.5 424.009,-249 434.009,-252.5 434.009,-245.5"/>
</g>
<!-- Node10 -->
<g id="node8" class="node"><title>Node10</title>
<g id="a_node8"><a xlink:href="../../d0/dfe/classcom_1_1github_1_1aptd_1_1simulation_1_1datamodel_1_1CXMLReader.htm#a9245292c78062330cc2b46caf7338fb7" target="_top" xlink:title="transfer the data&#45;model into an experiment based on given factory ">
<polygon fill="none" stroke="black" points="512,-141 512,-169 686,-169 686,-141 512,-141"/>
<text text-anchor="start" x="520" y="-157.8" font-family="Helvetica,sans-Serif" font-size="9.00">com.github.aptd.simulation.datamodel.</text>
<text text-anchor="middle" x="599" y="-147.8" font-family="Helvetica,sans-Serif" font-size="9.00">CXMLReader.get</text>
</a>
</g>
</g>
<!-- Node9&#45;&gt;Node10 -->
<g id="edge7" class="edge"><title>Node9&#45;&gt;Node10</title>
<path fill="none" stroke="midnightblue" d="M420.845,-186.185C452.375,-180.634 487.554,-174.442 518.203,-169.047"/>
<polygon fill="midnightblue" stroke="midnightblue" points="419.989,-182.781 410.747,-187.962 421.203,-189.675 419.989,-182.781"/>
</g>
<!-- Node11&#45;&gt;Node10 -->
<g id="edge9" class="edge"><title>Node11&#45;&gt;Node10</title>
<path fill="none" stroke="midnightblue" d="M427.391,-155C455.041,-155 484.997,-155 511.979,-155"/>
<polygon fill="midnightblue" stroke="midnightblue" points="427.319,-151.5 417.319,-155 427.318,-158.5 427.319,-151.5"/>
</g>
<!-- Node12&#45;&gt;Node10 -->
<g id="edge11" class="edge"><title>Node12&#45;&gt;Node10</title>
<path fill="none" stroke="midnightblue" d="M420.845,-123.815C452.375,-129.366 487.554,-135.558 518.203,-140.953"/>
<polygon fill="midnightblue" stroke="midnightblue" points="421.203,-120.325 410.747,-122.038 419.989,-127.219 421.203,-120.325"/>
</g>
</g>
</svg>
        <g id="navigator" transform="translate(0 0)" fill="#404254">
                <rect fill="#f2f5e9" fill-opacity="0.5" stroke="#606060" stroke-width=".5" x="0" y="0" width="60" height="60"/>
                <use id="zoomplus" xlink:href="#zoomPlus" x="17" y="9" onmousedown="handleZoom(evt,'in')"/>
                <use id="zoomminus" xlink:href="#zoomMin" x="42" y="9" onmousedown="handleZoom(evt,'out')"/>
                <use id="reset" xlink:href="#resetDef" x="30" y="36" onmousedown="handleReset()"/>
                <g id="arrowUp" xlink:href="#dirArrow" transform="translate(30 24)" onmousedown="handlePan(0,-1)">
                  <use xlink:href="#rim" fill="#404040">
                        <set attributeName="fill" to="#808080" begin="arrowUp.mouseover" end="arrowUp.mouseout"/>
                  </use>
                  <path fill="none" stroke="white" stroke-width="1.5" d="M0,-3.0v7 M-2.5,-0.5L0,-3.0L2.5,-0.5"/>
                </g>
                <g id="arrowRight" xlink:href="#dirArrow" transform="rotate(90) translate(36 -43)" onmousedown="handlePan(1,0)">
                  <use xlink:href="#rim" fill="#404040">
                        <set attributeName="fill" to="#808080" begin="arrowRight.mouseover" end="arrowRight.mouseout"/>
                  </use>
                  <path fill="none" stroke="white" stroke-width="1.5" d="M0,-3.0v7 M-2.5,-0.5L0,-3.0L2.5,-0.5"/>
                </g>
                <g id="arrowDown" xlink:href="#dirArrow" transform="rotate(180) translate(-30 -48)" onmousedown="handlePan(0,1)">
                  <use xlink:href="#rim" fill="#404040">
                        <set attributeName="fill" to="#808080" begin="arrowDown.mouseover" end="arrowDown.mouseout"/>
                  </use>
                  <path fill="none" stroke="white" stroke-width="1.5" d="M0,-3.0v7 M-2.5,-0.5L0,-3.0L2.5,-0.5"/>
                </g>
                <g id="arrowLeft" xlink:href="#dirArrow" transform="rotate(270) translate(-36 17)" onmousedown="handlePan(-1,0)">
                  <use xlink:href="#rim" fill="#404040">
                        <set attributeName="fill" to="#808080" begin="arrowLeft.mouseover" end="arrowLeft.mouseout"/>
                  </use>
                  <path fill="none" stroke="white" stroke-width="1.5" d="M0,-3.0v7 M-2.5,-0.5L0,-3.0L2.5,-0.5"/>
                </g>
        </g>
        <svg viewBox="0 0 15 15" width="100%" height="30px" preserveAspectRatio="xMaxYMin meet">
         <g id="arrow_out" transform="scale(0.3 0.3)">
          <a xlink:href="interfacecom_1_1github_1_1aptd_1_1simulation_1_1elements_1_1IElement_a447fe1b1460ce755b30e013aea069b77_icgraph_org.svg" target="_base">
           <rect id="button" ry="5" rx="5" y="6" x="6" height="38" width="38"
                fill="#f2f5e9" fill-opacity="0.5" stroke="#606060" stroke-width="1.0"/>
           <path id="arrow"
             d="M 11.500037,31.436501 C 11.940474,20.09759 22.043105,11.32322 32.158766,21.979434 L 37.068811,17.246167 C 37.068811,17.246167 37.088388,32 37.088388,32 L 22.160133,31.978069 C 22.160133,31.978069 26.997745,27.140456 26.997745,27.140456 C 18.528582,18.264221 13.291696,25.230495 11.500037,31.436501 z"
             style="fill:#404040;"/>
          </a>
         </g>
        </svg>
</svg>
