<?xml version="1.0" encoding="UTF-8" standalone="no"?>
<!DOCTYPE svg PUBLIC "-//W3C//DTD SVG 1.1//EN"
 "http://www.w3.org/Graphics/SVG/1.1/DTD/svg11.dtd">
<!-- Generated by graphviz version 2.36.0 (20140111.2315)
 -->
<!-- Title: com.github.aptd.simulation.core.statistic.local.CStatistic Pages: 1 -->
<svg width="210pt" height="206pt"
 viewBox="0.00 0.00 210.00 206.00" xmlns="http://www.w3.org/2000/svg" xmlns:xlink="http://www.w3.org/1999/xlink">
<g id="graph0" class="graph" transform="scale(1 1) rotate(0) translate(4 202)">
<title>com.github.aptd.simulation.core.statistic.local.CStatistic</title>
<!-- Node0 -->
<g id="node1" class="node"><title>Node0</title>
<polygon fill="#bfbfbf" stroke="black" points="-0.5,-1 -0.5,-85 202.5,-85 202.5,-1 -0.5,-1"/>
<text text-anchor="start" x="7.5" y="-73.8" font-family="Helvetica,sans-Serif" font-size="9.00">com.github.aptd.simulation.core.statistic.local.</text>
<text text-anchor="middle" x="101" y="-63.8" font-family="Helvetica,sans-Serif" font-size="9.00">CStatistic</text>
<polyline fill="none" stroke="black" points="-0.5,-57 202.5,-57 "/>
<text text-anchor="start" x="7.5" y="-45.8" font-family="Helvetica,sans-Serif" font-size="9.00">&#45; m_data</text>
<polyline fill="none" stroke="black" points="-0.5,-39 202.5,-39 "/>
<text text-anchor="start" x="7.5" y="-27.8" font-family="Helvetica,sans-Serif" font-size="9.00">+ action()</text>
<text text-anchor="start" x="7.5" y="-17.8" font-family="Helvetica,sans-Serif" font-size="9.00">+ write()</text>
<text text-anchor="start" x="7.5" y="-7.8" font-family="Helvetica,sans-Serif" font-size="9.00">&#45; apply()</text>
</g>
<!-- Node1 -->
<g id="node2" class="node"><title>Node1</title>
<g id="a_node2"><a xlink:href="../../d0/da1/interfacecom_1_1github_1_1aptd_1_1simulation_1_1core_1_1statistic_1_1IStatistic.htm" target="_top" xlink:title="statistic evaluation of an experiment ">
<polygon fill="none" stroke="black" points="10.5,-123 10.5,-197 191.5,-197 191.5,-123 10.5,-123"/>
<text text-anchor="start" x="18.5" y="-185.8" font-family="Helvetica,sans-Serif" font-size="9.00">com.github.aptd.simulation.core.statistic.</text>
<text text-anchor="middle" x="101" y="-175.8" font-family="Helvetica,sans-Serif" font-size="9.00">IStatistic</text>
<polyline fill="none" stroke="black" points="10.5,-169 191.5,-169 "/>
<text text-anchor="start" x="18.5" y="-157.8" font-family="Helvetica,sans-Serif" font-size="9.00">+ EMPTY</text>
<polyline fill="none" stroke="black" points="10.5,-151 191.5,-151 "/>
<text text-anchor="start" x="18.5" y="-139.8" font-family="Helvetica,sans-Serif" font-size="9.00">+ action()</text>
<text text-anchor="start" x="18.5" y="-129.8" font-family="Helvetica,sans-Serif" font-size="9.00">+ write()</text>
</a>
</g>
</g>
<!-- Node1&#45;&gt;Node0 -->
<g id="edge1" class="edge"><title>Node1&#45;&gt;Node0</title>
<path fill="none" stroke="midnightblue" d="M101,-112.821C101,-103.673 101,-94.1266 101,-85.1586"/>
<polygon fill="none" stroke="midnightblue" points="97.5001,-112.929 101,-122.929 104.5,-112.929 97.5001,-112.929"/>
</g>
</g>
</svg>
