<?xml version="1.0" encoding="UTF-8" standalone="no"?>
<!DOCTYPE svg PUBLIC "-//W3C//DTD SVG 1.1//EN"
 "http://www.w3.org/Graphics/SVG/1.1/DTD/svg11.dtd">
<!-- Generated by graphviz version 2.36.0 (20140111.2315)
 -->
<!-- Title: com.github.aptd.simulation.elements.train.CTrain.CGenerator.generate Pages: 1 -->
<svg width="644pt" height="130pt"
 viewBox="0.00 0.00 644.00 130.00" xmlns="http://www.w3.org/2000/svg" xmlns:xlink="http://www.w3.org/1999/xlink">
<g id="graph0" class="graph" transform="scale(1 1) rotate(0) translate(4 126)">
<title>com.github.aptd.simulation.elements.train.CTrain.CGenerator.generate</title>
<!-- Node2 -->
<g id="node1" class="node"><title>Node2</title>
<polygon fill="#bfbfbf" stroke="black" points="0,-23 0,-51 188,-51 188,-23 0,-23"/>
<text text-anchor="start" x="8" y="-39.8" font-family="Helvetica,sans-Serif" font-size="9.00">com.github.aptd.simulation.elements.train.</text>
<text text-anchor="middle" x="94" y="-29.8" font-family="Helvetica,sans-Serif" font-size="9.00">CTrain.CGenerator.generate</text>
</g>
<!-- Node3 -->
<g id="node2" class="node"><title>Node3</title>
<g id="a_node2"><a xlink:href="../../d1/db4/classcom_1_1github_1_1aptd_1_1simulation_1_1elements_1_1train_1_1CTrain.htm#af6c0e1b15fe6d78b01af63e295993495" target="_top" xlink:title="ctor ">
<polygon fill="none" stroke="black" points="224,-47 224,-75 412,-75 412,-47 224,-47"/>
<text text-anchor="start" x="232" y="-63.8" font-family="Helvetica,sans-Serif" font-size="9.00">com.github.aptd.simulation.elements.train.</text>
<text text-anchor="middle" x="318" y="-53.8" font-family="Helvetica,sans-Serif" font-size="9.00">CTrain.CTrain</text>
</a>
</g>
</g>
<!-- Node2&#45;&gt;Node3 -->
<g id="edge1" class="edge"><title>Node2&#45;&gt;Node3</title>
<path fill="none" stroke="midnightblue" d="M188.183,-47.0738C196.626,-47.9866 205.211,-48.9147 213.734,-49.8361"/>
<polygon fill="midnightblue" stroke="midnightblue" points="213.381,-53.3183 223.7,-50.9135 214.134,-46.3588 213.381,-53.3183"/>
</g>
<!-- Node7 -->
<g id="node6" class="node"><title>Node7</title>
<g id="a_node6"><a xlink:href="../../d6/df3/classcom_1_1github_1_1aptd_1_1simulation_1_1elements_1_1IBaseElement.htm#afeec4942d2aaeefe84d338c59bd0b00d" target="_top" xlink:title="com.github.aptd.simulation.elements.\lIBaseElement\&lt; N \&gt;::toString">
<polygon fill="none" stroke="black" points="234,-0 234,-28 402,-28 402,-0 234,-0"/>
<text text-anchor="start" x="242" y="-16.8" font-family="Helvetica,sans-Serif" font-size="9.00">com.github.aptd.simulation.elements.</text>
<text text-anchor="middle" x="318" y="-6.8" font-family="Helvetica,sans-Serif" font-size="9.00">IBaseElement&lt; N &gt;::toString</text>
</a>
</g>
</g>
<!-- Node2&#45;&gt;Node7 -->
<g id="edge5" class="edge"><title>Node2&#45;&gt;Node7</title>
<path fill="none" stroke="midnightblue" d="M188.183,-27.3459C199.93,-26.1289 211.951,-24.8835 223.7,-23.6663"/>
<polygon fill="midnightblue" stroke="midnightblue" points="224.355,-27.1172 233.941,-22.6052 223.633,-20.1545 224.355,-27.1172"/>
</g>
<!-- Node4 -->
<g id="node3" class="node"><title>Node4</title>
<g id="a_node3"><a xlink:href="../../db/d65/interfacecom_1_1github_1_1aptd_1_1simulation_1_1core_1_1time_1_1ITime.htm#a5b549eba2607f2e3f2cc9800e5164ea1" target="_top" xlink:title="get the current time ">
<polygon fill="none" stroke="black" points="458,-94 458,-122 626,-122 626,-94 458,-94"/>
<text text-anchor="start" x="466" y="-110.8" font-family="Helvetica,sans-Serif" font-size="9.00">com.github.aptd.simulation.core.time.</text>
<text text-anchor="middle" x="542" y="-100.8" font-family="Helvetica,sans-Serif" font-size="9.00">ITime.current</text>
</a>
</g>
</g>
<!-- Node3&#45;&gt;Node4 -->
<g id="edge2" class="edge"><title>Node3&#45;&gt;Node4</title>
<path fill="none" stroke="midnightblue" d="M385.307,-75.0379C410.234,-80.3153 438.771,-86.3569 464.548,-91.8141"/>
<polygon fill="midnightblue" stroke="midnightblue" points="464.144,-95.3061 474.652,-93.9533 465.594,-88.4579 464.144,-95.3061"/>
</g>
<!-- Node5 -->
<g id="node4" class="node"><title>Node5</title>
<g id="a_node4"><a xlink:href="../../d1/db4/classcom_1_1github_1_1aptd_1_1simulation_1_1elements_1_1train_1_1CTrain.htm#a5b10ff07d0f20d17a66411569f973195" target="_top" xlink:title="com.github.aptd.simulation.elements.train.\lCTrain.determinenextstatechange">
<polygon fill="none" stroke="black" points="448,-47 448,-75 636,-75 636,-47 448,-47"/>
<text text-anchor="start" x="456" y="-63.8" font-family="Helvetica,sans-Serif" font-size="9.00">com.github.aptd.simulation.elements.train.</text>
<text text-anchor="middle" x="542" y="-53.8" font-family="Helvetica,sans-Serif" font-size="9.00">CTrain.determinenextstatechange</text>
</a>
</g>
</g>
<!-- Node3&#45;&gt;Node5 -->
<g id="edge3" class="edge"><title>Node3&#45;&gt;Node5</title>
<path fill="none" stroke="midnightblue" d="M412.183,-61C420.535,-61 429.024,-61 437.456,-61"/>
<polygon fill="midnightblue" stroke="midnightblue" points="437.7,-64.5001 447.7,-61 437.699,-57.5001 437.7,-64.5001"/>
</g>
<!-- Node6 -->
<g id="node5" class="node"><title>Node6</title>
<g id="a_node5"><a xlink:href="../../d8/d16/classcom_1_1github_1_1aptd_1_1simulation_1_1elements_1_1IStatefulElement.htm#a9f60927cebd69981b235a63cc656adab" target="_top" xlink:title="com.github.aptd.simulation.elements.\lIStatefulElement.output">
<polygon fill="none" stroke="black" points="458,-0 458,-28 626,-28 626,-0 458,-0"/>
<text text-anchor="start" x="466" y="-16.8" font-family="Helvetica,sans-Serif" font-size="9.00">com.github.aptd.simulation.elements.</text>
<text text-anchor="middle" x="542" y="-6.8" font-family="Helvetica,sans-Serif" font-size="9.00">IStatefulElement.output</text>
</a>
</g>
</g>
<!-- Node3&#45;&gt;Node6 -->
<g id="edge4" class="edge"><title>Node3&#45;&gt;Node6</title>
<path fill="none" stroke="midnightblue" d="M385.307,-46.9621C410.234,-41.6847 438.771,-35.6431 464.548,-30.1859"/>
<polygon fill="midnightblue" stroke="midnightblue" points="465.594,-33.5421 474.652,-28.0467 464.144,-26.6939 465.594,-33.5421"/>
</g>
</g>
</svg>
