<?xml version="1.0" encoding="UTF-8" standalone="no"?>
<!DOCTYPE svg PUBLIC "-//W3C//DTD SVG 1.1//EN"
 "http://www.w3.org/Graphics/SVG/1.1/DTD/svg11.dtd">
<!-- Generated by graphviz version 2.36.0 (20140111.2315)
 -->
<!-- Title: com.github.aptd.simulation.core.time.IBaseTime Pages: 1 -->
<svg width="174pt" height="438pt"
 viewBox="0.00 0.00 174.00 438.00" xmlns="http://www.w3.org/2000/svg" xmlns:xlink="http://www.w3.org/1999/xlink">
<g id="graph0" class="graph" transform="scale(1 1) rotate(0) translate(4 434)">
<title>com.github.aptd.simulation.core.time.IBaseTime</title>
<!-- Node5 -->
<g id="node1" class="node"><title>Node5</title>
<polygon fill="#bfbfbf" stroke="black" points="-1,-1 -1,-175 167,-175 167,-1 -1,-1"/>
<text text-anchor="start" x="7" y="-163.8" font-family="Helvetica,sans-Serif" font-size="9.00">com.github.aptd.simulation.core.time.</text>
<text text-anchor="middle" x="83" y="-153.8" font-family="Helvetica,sans-Serif" font-size="9.00">IBaseTime</text>
<polyline fill="none" stroke="black" points="-1,-147 167,-147 "/>
<text text-anchor="start" x="7" y="-135.8" font-family="Helvetica,sans-Serif" font-size="9.00"># m_currenttime</text>
<text text-anchor="start" x="7" y="-125.8" font-family="Helvetica,sans-Serif" font-size="9.00"># m_stepcount</text>
<text text-anchor="start" x="7" y="-115.8" font-family="Helvetica,sans-Serif" font-size="9.00"># m_steplimit</text>
<text text-anchor="start" x="7" y="-105.8" font-family="Helvetica,sans-Serif" font-size="9.00">&#45; m_zone</text>
<polyline fill="none" stroke="black" points="-1,-99 167,-99 "/>
<text text-anchor="start" x="7" y="-87.8" font-family="Helvetica,sans-Serif" font-size="9.00">+ active()</text>
<text text-anchor="start" x="7" y="-77.8" font-family="Helvetica,sans-Serif" font-size="9.00">+ addagent()</text>
<text text-anchor="start" x="7" y="-67.8" font-family="Helvetica,sans-Serif" font-size="9.00">+ call()</text>
<text text-anchor="start" x="7" y="-57.8" font-family="Helvetica,sans-Serif" font-size="9.00">+ current()</text>
<text text-anchor="start" x="7" y="-47.8" font-family="Helvetica,sans-Serif" font-size="9.00">+ literal()</text>
<text text-anchor="start" x="7" y="-37.8" font-family="Helvetica,sans-Serif" font-size="9.00">+ literal()</text>
<text text-anchor="start" x="7" y="-27.8" font-family="Helvetica,sans-Serif" font-size="9.00">+ raw()</text>
<text text-anchor="start" x="7" y="-17.8" font-family="Helvetica,sans-Serif" font-size="9.00">+ removeagent()</text>
<text text-anchor="start" x="7" y="-7.8" font-family="Helvetica,sans-Serif" font-size="9.00"># IBaseTime()</text>
</g>
<!-- Node6 -->
<g id="node2" class="node"><title>Node6</title>
<g id="a_node2"><a xlink:href="../../db/d65/interfacecom_1_1github_1_1aptd_1_1simulation_1_1core_1_1time_1_1ITime.htm" target="_top" xlink:title="time interface ">
<polygon fill="none" stroke="black" points="-1,-213 -1,-317 167,-317 167,-213 -1,-213"/>
<text text-anchor="start" x="7" y="-305.8" font-family="Helvetica,sans-Serif" font-size="9.00">com.github.aptd.simulation.core.time.</text>
<text text-anchor="middle" x="83" y="-295.8" font-family="Helvetica,sans-Serif" font-size="9.00">ITime</text>
<polyline fill="none" stroke="black" points="-1,-289 167,-289 "/>
<text text-anchor="middle" x="83" y="-277.8" font-family="Helvetica,sans-Serif" font-size="9.00"> </text>
<polyline fill="none" stroke="black" points="-1,-271 167,-271 "/>
<text text-anchor="start" x="7" y="-259.8" font-family="Helvetica,sans-Serif" font-size="9.00">+ active()</text>
<text text-anchor="start" x="7" y="-249.8" font-family="Helvetica,sans-Serif" font-size="9.00">+ addagent()</text>
<text text-anchor="start" x="7" y="-239.8" font-family="Helvetica,sans-Serif" font-size="9.00">+ current()</text>
<text text-anchor="start" x="7" y="-229.8" font-family="Helvetica,sans-Serif" font-size="9.00">+ raw()</text>
<text text-anchor="start" x="7" y="-219.8" font-family="Helvetica,sans-Serif" font-size="9.00">+ removeagent()</text>
</a>
</g>
</g>
<!-- Node6&#45;&gt;Node5 -->
<g id="edge1" class="edge"><title>Node6&#45;&gt;Node5</title>
<path fill="none" stroke="midnightblue" d="M83,-202.633C83,-193.699 83,-184.365 83,-175.052"/>
<polygon fill="none" stroke="midnightblue" points="79.5001,-202.912 83,-212.912 86.5001,-202.912 79.5001,-202.912"/>
</g>
<!-- Node7 -->
<g id="node3" class="node"><title>Node7</title>
<g id="a_node3"><a xlink:href="../../d4/d0d/interfacecom_1_1github_1_1aptd_1_1simulation_1_1elements_1_1IPerceiveable.htm" target="_top" xlink:title="any object which be perceived by an agent ">
<polygon fill="none" stroke="black" points="-1,-355 -1,-429 167,-429 167,-355 -1,-355"/>
<text text-anchor="start" x="7" y="-417.8" font-family="Helvetica,sans-Serif" font-size="9.00">com.github.aptd.simulation.elements.</text>
<text text-anchor="middle" x="83" y="-407.8" font-family="Helvetica,sans-Serif" font-size="9.00">IPerceiveable</text>
<polyline fill="none" stroke="black" points="-1,-401 167,-401 "/>
<text text-anchor="middle" x="83" y="-389.8" font-family="Helvetica,sans-Serif" font-size="9.00"> </text>
<polyline fill="none" stroke="black" points="-1,-383 167,-383 "/>
<text text-anchor="start" x="7" y="-371.8" font-family="Helvetica,sans-Serif" font-size="9.00">+ literal()</text>
<text text-anchor="start" x="7" y="-361.8" font-family="Helvetica,sans-Serif" font-size="9.00">+ literal()</text>
</a>
</g>
</g>
<!-- Node7&#45;&gt;Node6 -->
<g id="edge2" class="edge"><title>Node7&#45;&gt;Node6</title>
<path fill="none" stroke="midnightblue" d="M83,-344.68C83,-335.797 83,-326.446 83,-317.414"/>
<polygon fill="none" stroke="midnightblue" points="79.5001,-344.845 83,-354.845 86.5001,-344.845 79.5001,-344.845"/>
</g>
</g>
</svg>
