<?xml version="1.0" encoding="UTF-8" standalone="no"?>
<!DOCTYPE svg PUBLIC "-//W3C//DTD SVG 1.1//EN"
 "http://www.w3.org/Graphics/SVG/1.1/DTD/svg11.dtd">
<!-- Generated by graphviz version 2.36.0 (20140111.2315)
 -->
<!-- Title: com.github.aptd.simulation.elements.train.ITrain&lt; T extends ITrain&lt;?&gt; Pages: 1 -->
<svg width="402pt" height="808pt"
 viewBox="0.00 0.00 402.00 808.00" xmlns="http://www.w3.org/2000/svg" xmlns:xlink="http://www.w3.org/1999/xlink">
<g id="graph0" class="graph" transform="scale(1 1) rotate(0) translate(4 804)">
<title>com.github.aptd.simulation.elements.train.ITrain&lt; T extends ITrain&lt;?&gt;</title>
<!-- Node0 -->
<g id="node1" class="node"><title>Node0</title>
<polygon fill="#bfbfbf" stroke="black" points="154,-437 154,-521 342,-521 342,-437 154,-437"/>
<text text-anchor="start" x="162" y="-509.8" font-family="Helvetica,sans-Serif" font-size="9.00">com.github.aptd.simulation.elements.train.</text>
<text text-anchor="middle" x="248" y="-499.8" font-family="Helvetica,sans-Serif" font-size="9.00">ITrain&lt; T extends ITrain&lt;?&gt;</text>
<polyline fill="none" stroke="black" points="154,-493 342,-493 "/>
<text text-anchor="middle" x="248" y="-481.8" font-family="Helvetica,sans-Serif" font-size="9.00"> </text>
<polyline fill="none" stroke="black" points="154,-475 342,-475 "/>
<text text-anchor="start" x="162" y="-463.8" font-family="Helvetica,sans-Serif" font-size="9.00">+ addwagon()</text>
<text text-anchor="start" x="162" y="-453.8" font-family="Helvetica,sans-Serif" font-size="9.00">+ removewagon()</text>
<text text-anchor="start" x="162" y="-443.8" font-family="Helvetica,sans-Serif" font-size="9.00">+ wagon()</text>
</g>
<!-- Node3 -->
<g id="node4" class="node"><title>Node3</title>
<g id="a_node4"><a xlink:href="../../d4/d3c/interfacecom_1_1github_1_1aptd_1_1simulation_1_1elements_1_1train_1_1ITrain.htm" target="_top" xlink:title="{com.github.aptd.simulation.elements.train.\lITrain\&lt; ITrain\&lt;?\&gt; \&gt;\n||+ addwagon()\l+ removewagon()\l+ wagon()\l}">
<polygon fill="none" stroke="black" points="0,-305 0,-389 188,-389 188,-305 0,-305"/>
<text text-anchor="start" x="8" y="-377.8" font-family="Helvetica,sans-Serif" font-size="9.00">com.github.aptd.simulation.elements.train.</text>
<text text-anchor="middle" x="94" y="-367.8" font-family="Helvetica,sans-Serif" font-size="9.00">ITrain&lt; ITrain&lt;?&gt; &gt;</text>
<polyline fill="none" stroke="black" points="0,-361 188,-361 "/>
<text text-anchor="middle" x="94" y="-349.8" font-family="Helvetica,sans-Serif" font-size="9.00"> </text>
<polyline fill="none" stroke="black" points="0,-343 188,-343 "/>
<text text-anchor="start" x="8" y="-331.8" font-family="Helvetica,sans-Serif" font-size="9.00">+ addwagon()</text>
<text text-anchor="start" x="8" y="-321.8" font-family="Helvetica,sans-Serif" font-size="9.00">+ removewagon()</text>
<text text-anchor="start" x="8" y="-311.8" font-family="Helvetica,sans-Serif" font-size="9.00">+ wagon()</text>
</a>
</g>
</g>
<!-- Node0&#45;&gt;Node3 -->
<g id="edge3" class="edge"><title>Node0&#45;&gt;Node3</title>
<path fill="none" stroke="orange" d="M191.523,-430.324C175.498,-416.797 158.194,-402.19 142.674,-389.088"/>
<polygon fill="orange" stroke="orange" points="189.374,-433.091 199.273,-436.867 193.89,-427.742 189.374,-433.091"/>
<text text-anchor="middle" x="204.5" y="-410.8" font-family="Helvetica,sans-Serif" font-size="9.00"> &lt; ITrain&lt;?&gt; &gt;</text>
</g>
<!-- Node5 -->
<g id="node6" class="node"><title>Node5</title>
<g id="a_node6"><a xlink:href="../../d4/d3c/interfacecom_1_1github_1_1aptd_1_1simulation_1_1elements_1_1train_1_1ITrain.htm" target="_top" xlink:title="{com.github.aptd.simulation.elements.train.\lITrain\&lt;?\&gt;\n||+ addwagon()\l+ removewagon()\l+ wagon()\l}">
<polygon fill="none" stroke="black" points="206,-305 206,-389 394,-389 394,-305 206,-305"/>
<text text-anchor="start" x="214" y="-377.8" font-family="Helvetica,sans-Serif" font-size="9.00">com.github.aptd.simulation.elements.train.</text>
<text text-anchor="middle" x="300" y="-367.8" font-family="Helvetica,sans-Serif" font-size="9.00">ITrain&lt;?&gt;</text>
<polyline fill="none" stroke="black" points="206,-361 394,-361 "/>
<text text-anchor="middle" x="300" y="-349.8" font-family="Helvetica,sans-Serif" font-size="9.00"> </text>
<polyline fill="none" stroke="black" points="206,-343 394,-343 "/>
<text text-anchor="start" x="214" y="-331.8" font-family="Helvetica,sans-Serif" font-size="9.00">+ addwagon()</text>
<text text-anchor="start" x="214" y="-321.8" font-family="Helvetica,sans-Serif" font-size="9.00">+ removewagon()</text>
<text text-anchor="start" x="214" y="-311.8" font-family="Helvetica,sans-Serif" font-size="9.00">+ wagon()</text>
</a>
</g>
</g>
<!-- Node0&#45;&gt;Node5 -->
<g id="edge5" class="edge"><title>Node0&#45;&gt;Node5</title>
<path fill="none" stroke="orange" d="M268.238,-427.404C273.283,-414.791 278.633,-401.416 283.475,-389.311"/>
<polygon fill="orange" stroke="orange" points="264.917,-426.283 264.453,-436.867 271.417,-428.882 264.917,-426.283"/>
<text text-anchor="middle" x="284.5" y="-410.8" font-family="Helvetica,sans-Serif" font-size="9.00"> &lt;?&gt;</text>
</g>
<!-- Node1 -->
<g id="node2" class="node"><title>Node1</title>
<g id="a_node2"><a xlink:href="../../dd/dd7/interfacecom_1_1github_1_1aptd_1_1simulation_1_1elements_1_1IElement.htm" target="_top" xlink:title="any object interface ">
<polygon fill="none" stroke="black" points="197.5,-561 197.5,-685 298.5,-685 298.5,-561 197.5,-561"/>
<text text-anchor="start" x="205.5" y="-673.8" font-family="Helvetica,sans-Serif" font-size="9.00">com::github::aptd::</text>
<text text-anchor="start" x="205.5" y="-663.8" font-family="Helvetica,sans-Serif" font-size="9.00">simulation::elements</text>
<text text-anchor="middle" x="248" y="-653.8" font-family="Helvetica,sans-Serif" font-size="9.00">::IElement&lt; T &gt;</text>
<polyline fill="none" stroke="black" points="197.5,-647 298.5,-647 "/>
<text text-anchor="middle" x="248" y="-635.8" font-family="Helvetica,sans-Serif" font-size="9.00"> </text>
<polyline fill="none" stroke="black" points="197.5,-629 298.5,-629 "/>
<text text-anchor="start" x="205.5" y="-617.8" font-family="Helvetica,sans-Serif" font-size="9.00">+ environment()</text>
<text text-anchor="start" x="205.5" y="-607.8" font-family="Helvetica,sans-Serif" font-size="9.00">+ id()</text>
<text text-anchor="start" x="205.5" y="-597.8" font-family="Helvetica,sans-Serif" font-size="9.00">+ imminent()</text>
<text text-anchor="start" x="205.5" y="-587.8" font-family="Helvetica,sans-Serif" font-size="9.00">+ input()</text>
<text text-anchor="start" x="205.5" y="-577.8" font-family="Helvetica,sans-Serif" font-size="9.00">+ nextactivation()</text>
<text text-anchor="start" x="205.5" y="-567.8" font-family="Helvetica,sans-Serif" font-size="9.00">+ output()</text>
</a>
</g>
</g>
<!-- Node1&#45;&gt;Node0 -->
<g id="edge1" class="edge"><title>Node1&#45;&gt;Node0</title>
<path fill="none" stroke="midnightblue" d="M248,-550.86C248,-540.736 248,-530.616 248,-521.323"/>
<polygon fill="none" stroke="midnightblue" points="244.5,-550.955 248,-560.955 251.5,-550.955 244.5,-550.955"/>
</g>
<!-- Node2 -->
<g id="node3" class="node"><title>Node2</title>
<g id="a_node3"><a xlink:href="../../d4/d0d/interfacecom_1_1github_1_1aptd_1_1simulation_1_1elements_1_1IPerceiveable.htm" target="_top" xlink:title="any object which be perceived by an agent ">
<polygon fill="none" stroke="black" points="164,-725 164,-799 332,-799 332,-725 164,-725"/>
<text text-anchor="start" x="172" y="-787.8" font-family="Helvetica,sans-Serif" font-size="9.00">com.github.aptd.simulation.elements.</text>
<text text-anchor="middle" x="248" y="-777.8" font-family="Helvetica,sans-Serif" font-size="9.00">IPerceiveable</text>
<polyline fill="none" stroke="black" points="164,-771 332,-771 "/>
<text text-anchor="middle" x="248" y="-759.8" font-family="Helvetica,sans-Serif" font-size="9.00"> </text>
<polyline fill="none" stroke="black" points="164,-753 332,-753 "/>
<text text-anchor="start" x="172" y="-741.8" font-family="Helvetica,sans-Serif" font-size="9.00">+ literal()</text>
<text text-anchor="start" x="172" y="-731.8" font-family="Helvetica,sans-Serif" font-size="9.00">+ literal()</text>
</a>
</g>
</g>
<!-- Node2&#45;&gt;Node1 -->
<g id="edge2" class="edge"><title>Node2&#45;&gt;Node1</title>
<path fill="none" stroke="midnightblue" d="M248,-714.35C248,-704.963 248,-694.963 248,-685.166"/>
<polygon fill="none" stroke="midnightblue" points="244.5,-714.646 248,-724.646 251.5,-714.646 244.5,-714.646"/>
</g>
<!-- Node4 -->
<g id="node5" class="node"><title>Node4</title>
<g id="a_node5"><a xlink:href="../../d1/db4/classcom_1_1github_1_1aptd_1_1simulation_1_1elements_1_1train_1_1CTrain.htm" target="_top" xlink:title="train class ">
<polygon fill="none" stroke="black" points="0,-1 0,-265 188,-265 188,-1 0,-1"/>
<text text-anchor="start" x="8" y="-253.8" font-family="Helvetica,sans-Serif" font-size="9.00">com.github.aptd.simulation.elements.train.</text>
<text text-anchor="middle" x="94" y="-243.8" font-family="Helvetica,sans-Serif" font-size="9.00">CTrain</text>
<polyline fill="none" stroke="black" points="0,-237 188,-237 "/>
<text text-anchor="start" x="8" y="-225.8" font-family="Helvetica,sans-Serif" font-size="9.00">&#45; m_doorsclosedlocked</text>
<text text-anchor="start" x="8" y="-215.8" font-family="Helvetica,sans-Serif" font-size="9.00">&#45; m_doorsnotclosedlocked</text>
<text text-anchor="start" x="8" y="-205.8" font-family="Helvetica,sans-Serif" font-size="9.00">&#45; m_passengers</text>
<text text-anchor="start" x="8" y="-195.8" font-family="Helvetica,sans-Serif" font-size="9.00">&#45; m_position</text>
<text text-anchor="start" x="8" y="-185.8" font-family="Helvetica,sans-Serif" font-size="9.00">&#45; m_positionontrack</text>
<text text-anchor="start" x="8" y="-175.8" font-family="Helvetica,sans-Serif" font-size="9.00">&#45; m_state</text>
<text text-anchor="start" x="8" y="-165.8" font-family="Helvetica,sans-Serif" font-size="9.00">&#45; m_timetable</text>
<text text-anchor="start" x="8" y="-155.8" font-family="Helvetica,sans-Serif" font-size="9.00">&#45; m_ttindex</text>
<text text-anchor="start" x="8" y="-145.8" font-family="Helvetica,sans-Serif" font-size="9.00">&#45; m_wagon</text>
<text text-anchor="start" x="8" y="-135.8" font-family="Helvetica,sans-Serif" font-size="9.00">&#45; DRIVING_SPEED</text>
<text text-anchor="start" x="8" y="-125.8" font-family="Helvetica,sans-Serif" font-size="9.00">&#45; FUNCTOR</text>
<text text-anchor="start" x="8" y="-115.8" font-family="Helvetica,sans-Serif" font-size="9.00">&#45; serialVersionUID</text>
<polyline fill="none" stroke="black" points="0,-109 188,-109 "/>
<text text-anchor="start" x="8" y="-97.8" font-family="Helvetica,sans-Serif" font-size="9.00">+ addwagon()</text>
<text text-anchor="start" x="8" y="-87.8" font-family="Helvetica,sans-Serif" font-size="9.00">+ removewagon()</text>
<text text-anchor="start" x="8" y="-77.8" font-family="Helvetica,sans-Serif" font-size="9.00">+ wagon()</text>
<text text-anchor="start" x="8" y="-67.8" font-family="Helvetica,sans-Serif" font-size="9.00"># determinenextstatechange()</text>
<text text-anchor="start" x="8" y="-57.8" font-family="Helvetica,sans-Serif" font-size="9.00"># individualliteral()</text>
<text text-anchor="start" x="8" y="-47.8" font-family="Helvetica,sans-Serif" font-size="9.00"># updatecontinuous()</text>
<text text-anchor="start" x="8" y="-37.8" font-family="Helvetica,sans-Serif" font-size="9.00"># updatestate()</text>
<text text-anchor="start" x="8" y="-27.8" font-family="Helvetica,sans-Serif" font-size="9.00"># writeState()</text>
<text text-anchor="start" x="8" y="-17.8" font-family="Helvetica,sans-Serif" font-size="9.00">&#45; CTrain()</text>
<text text-anchor="start" x="8" y="-7.8" font-family="Helvetica,sans-Serif" font-size="9.00">&#45; debugPrintState()</text>
</a>
</g>
</g>
<!-- Node3&#45;&gt;Node4 -->
<g id="edge4" class="edge"><title>Node3&#45;&gt;Node4</title>
<path fill="none" stroke="midnightblue" d="M94,-294.824C94,-285.618 94,-275.65 94,-265.343"/>
<polygon fill="none" stroke="midnightblue" points="90.5001,-294.873 94,-304.873 97.5001,-294.873 90.5001,-294.873"/>
</g>
</g>
</svg>
