<?xml version="1.0" encoding="UTF-8" standalone="no"?>
<!DOCTYPE svg PUBLIC "-//W3C//DTD SVG 1.1//EN"
 "http://www.w3.org/Graphics/SVG/1.1/DTD/svg11.dtd">
<!-- Generated by graphviz version 2.36.0 (20140111.2315)
 -->
<!-- Title: com.github.aptd.simulation.elements.train.CDoor.updatestate Pages: 1 -->
<svg width="856pt" height="266pt"
 viewBox="0.00 0.00 856.00 266.00" xmlns="http://www.w3.org/2000/svg" xmlns:xlink="http://www.w3.org/1999/xlink">
<g id="graph0" class="graph" transform="scale(1 1) rotate(0) translate(4 262)">
<title>com.github.aptd.simulation.elements.train.CDoor.updatestate</title>
<!-- Node45 -->
<g id="node1" class="node"><title>Node45</title>
<polygon fill="#bfbfbf" stroke="black" points="0,-163 0,-191 188,-191 188,-163 0,-163"/>
<text text-anchor="start" x="8" y="-179.8" font-family="Helvetica,sans-Serif" font-size="9.00">com.github.aptd.simulation.elements.train.</text>
<text text-anchor="middle" x="94" y="-169.8" font-family="Helvetica,sans-Serif" font-size="9.00">CDoor.updatestate</text>
</g>
<!-- Node46 -->
<g id="node2" class="node"><title>Node46</title>
<g id="a_node2"><a xlink:href="../../d1/d3a/classcom_1_1github_1_1aptd_1_1simulation_1_1elements_1_1train_1_1CDoor.htm#ac79a6b3684d7906047249e6bbfd5564d" target="_top" xlink:title="com.github.aptd.simulation.elements.train.\lCDoor.handletrainmessages">
<polygon fill="none" stroke="black" points="224,-141 224,-169 412,-169 412,-141 224,-141"/>
<text text-anchor="start" x="232" y="-157.8" font-family="Helvetica,sans-Serif" font-size="9.00">com.github.aptd.simulation.elements.train.</text>
<text text-anchor="middle" x="318" y="-147.8" font-family="Helvetica,sans-Serif" font-size="9.00">CDoor.handletrainmessages</text>
</a>
</g>
</g>
<!-- Node45&#45;&gt;Node46 -->
<g id="edge1" class="edge"><title>Node45&#45;&gt;Node46</title>
<path fill="none" stroke="midnightblue" d="M188.183,-167.766C196.626,-166.929 205.211,-166.078 213.734,-165.234"/>
<polygon fill="midnightblue" stroke="midnightblue" points="214.093,-168.715 223.7,-164.246 213.403,-161.749 214.093,-168.715"/>
</g>
<!-- Node51 -->
<g id="node7" class="node"><title>Node51</title>
<g id="a_node7"><a xlink:href="../../d1/d3a/classcom_1_1github_1_1aptd_1_1simulation_1_1elements_1_1train_1_1CDoor.htm#a477c2509454fd1af73c1b4fb79851b71" target="_top" xlink:title="com.github.aptd.simulation.elements.train.\lCDoor.nextpassengerifpossible">
<polygon fill="none" stroke="black" points="224,-230 224,-258 412,-258 412,-230 224,-230"/>
<text text-anchor="start" x="232" y="-246.8" font-family="Helvetica,sans-Serif" font-size="9.00">com.github.aptd.simulation.elements.train.</text>
<text text-anchor="middle" x="318" y="-236.8" font-family="Helvetica,sans-Serif" font-size="9.00">CDoor.nextpassengerifpossible</text>
</a>
</g>
</g>
<!-- Node45&#45;&gt;Node51 -->
<g id="edge6" class="edge"><title>Node45&#45;&gt;Node51</title>
<path fill="none" stroke="midnightblue" d="M141.538,-191.045C176.319,-201.542 224.022,-215.939 260.91,-227.072"/>
<polygon fill="midnightblue" stroke="midnightblue" points="259.938,-230.434 270.523,-229.973 261.961,-223.733 259.938,-230.434"/>
</g>
<!-- Node52 -->
<g id="node8" class="node"><title>Node52</title>
<g id="a_node8"><a xlink:href="../../d1/d3a/classcom_1_1github_1_1aptd_1_1simulation_1_1elements_1_1train_1_1CDoor.htm#a3b7a4e4d9b0b5d0aae227d73de077539" target="_top" xlink:title="com.github.aptd.simulation.elements.train.\lCDoor.passengerfinished">
<polygon fill="none" stroke="black" points="224,-47 224,-75 412,-75 412,-47 224,-47"/>
<text text-anchor="start" x="232" y="-63.8" font-family="Helvetica,sans-Serif" font-size="9.00">com.github.aptd.simulation.elements.train.</text>
<text text-anchor="middle" x="318" y="-53.8" font-family="Helvetica,sans-Serif" font-size="9.00">CDoor.passengerfinished</text>
</a>
</g>
</g>
<!-- Node45&#45;&gt;Node52 -->
<g id="edge8" class="edge"><title>Node45&#45;&gt;Node52</title>
<path fill="none" stroke="midnightblue" d="M122.222,-162.776C162.108,-141.935 236.5,-103.063 280.906,-79.86"/>
<polygon fill="midnightblue" stroke="midnightblue" points="282.661,-82.8918 289.903,-75.1586 279.419,-76.6877 282.661,-82.8918"/>
</g>
<!-- Node55 -->
<g id="node11" class="node"><title>Node55</title>
<g id="a_node11"><a xlink:href="../../d1/d3a/classcom_1_1github_1_1aptd_1_1simulation_1_1elements_1_1train_1_1CDoor.htm#af33be7009842e74353ba6e51d1f87085" target="_top" xlink:title="com.github.aptd.simulation.elements.train.\lCDoor.timedstatechangeifnecessary">
<polygon fill="none" stroke="black" points="452,-188 452,-216 640,-216 640,-188 452,-188"/>
<text text-anchor="start" x="460" y="-204.8" font-family="Helvetica,sans-Serif" font-size="9.00">com.github.aptd.simulation.elements.train.</text>
<text text-anchor="middle" x="546" y="-194.8" font-family="Helvetica,sans-Serif" font-size="9.00">CDoor.timedstatechangeifnecessary</text>
</a>
</g>
</g>
<!-- Node45&#45;&gt;Node55 -->
<g id="edge11" class="edge"><title>Node45&#45;&gt;Node55</title>
<path fill="none" stroke="midnightblue" d="M188.24,-182.18C262.153,-186.286 365.355,-192.02 441.756,-196.264"/>
<polygon fill="midnightblue" stroke="midnightblue" points="441.7,-199.766 451.879,-196.827 442.089,-192.777 441.7,-199.766"/>
</g>
<!-- Node47 -->
<g id="node3" class="node"><title>Node47</title>
<g id="a_node3"><a xlink:href="../../d1/d3a/classcom_1_1github_1_1aptd_1_1simulation_1_1elements_1_1train_1_1CDoor.htm#a70869cb9c55c168fc9f5f6045e13c3a2" target="_top" xlink:title="com.github.aptd.simulation.elements.train.\lCDoor.lockifrequested">
<polygon fill="none" stroke="black" points="452,-141 452,-169 640,-169 640,-141 452,-141"/>
<text text-anchor="start" x="460" y="-157.8" font-family="Helvetica,sans-Serif" font-size="9.00">com.github.aptd.simulation.elements.train.</text>
<text text-anchor="middle" x="546" y="-147.8" font-family="Helvetica,sans-Serif" font-size="9.00">CDoor.lockifrequested</text>
</a>
</g>
</g>
<!-- Node46&#45;&gt;Node47 -->
<g id="edge2" class="edge"><title>Node46&#45;&gt;Node47</title>
<path fill="none" stroke="midnightblue" d="M412.228,-155C421.974,-155 431.923,-155 441.772,-155"/>
<polygon fill="midnightblue" stroke="midnightblue" points="441.987,-158.5 451.987,-155 441.987,-151.5 441.987,-158.5"/>
</g>
<!-- Node49 -->
<g id="node5" class="node"><title>Node49</title>
<g id="a_node5"><a xlink:href="../../d1/d3a/classcom_1_1github_1_1aptd_1_1simulation_1_1elements_1_1train_1_1CDoor.htm#ae30d446185e51de92c6fdce1d44fd615" target="_top" xlink:title="com.github.aptd.simulation.elements.train.\lCDoor.unlockifrequested">
<polygon fill="none" stroke="black" points="452,-94 452,-122 640,-122 640,-94 452,-94"/>
<text text-anchor="start" x="460" y="-110.8" font-family="Helvetica,sans-Serif" font-size="9.00">com.github.aptd.simulation.elements.train.</text>
<text text-anchor="middle" x="546" y="-100.8" font-family="Helvetica,sans-Serif" font-size="9.00">CDoor.unlockifrequested</text>
</a>
</g>
</g>
<!-- Node46&#45;&gt;Node49 -->
<g id="edge4" class="edge"><title>Node46&#45;&gt;Node49</title>
<path fill="none" stroke="midnightblue" d="M386.501,-140.962C411.99,-135.661 441.186,-129.59 467.518,-124.113"/>
<polygon fill="midnightblue" stroke="midnightblue" points="468.378,-127.51 477.456,-122.047 466.953,-120.656 468.378,-127.51"/>
</g>
<!-- Node48 -->
<g id="node4" class="node"><title>Node48</title>
<g id="a_node4"><a xlink:href="../../d8/d16/classcom_1_1github_1_1aptd_1_1simulation_1_1elements_1_1IStatefulElement.htm#a9f60927cebd69981b235a63cc656adab" target="_top" xlink:title="com.github.aptd.simulation.elements.\lIStatefulElement.output">
<polygon fill="none" stroke="black" points="680,-188 680,-216 848,-216 848,-188 680,-188"/>
<text text-anchor="start" x="688" y="-204.8" font-family="Helvetica,sans-Serif" font-size="9.00">com.github.aptd.simulation.elements.</text>
<text text-anchor="middle" x="764" y="-194.8" font-family="Helvetica,sans-Serif" font-size="9.00">IStatefulElement.output</text>
</a>
</g>
</g>
<!-- Node47&#45;&gt;Node48 -->
<g id="edge3" class="edge"><title>Node47&#45;&gt;Node48</title>
<path fill="none" stroke="midnightblue" d="M611.515,-169.038C635.768,-174.315 663.534,-180.357 688.614,-185.814"/>
<polygon fill="midnightblue" stroke="midnightblue" points="687.929,-189.247 698.445,-187.953 689.418,-182.407 687.929,-189.247"/>
</g>
<!-- Node50 -->
<g id="node6" class="node"><title>Node50</title>
<g id="a_node6"><a xlink:href="../../db/d65/interfacecom_1_1github_1_1aptd_1_1simulation_1_1core_1_1time_1_1ITime.htm#a5b549eba2607f2e3f2cc9800e5164ea1" target="_top" xlink:title="get the current time ">
<polygon fill="none" stroke="black" points="680,-117 680,-145 848,-145 848,-117 680,-117"/>
<text text-anchor="start" x="688" y="-133.8" font-family="Helvetica,sans-Serif" font-size="9.00">com.github.aptd.simulation.core.time.</text>
<text text-anchor="middle" x="764" y="-123.8" font-family="Helvetica,sans-Serif" font-size="9.00">ITime.current</text>
</a>
</g>
</g>
<!-- Node49&#45;&gt;Node50 -->
<g id="edge5" class="edge"><title>Node49&#45;&gt;Node50</title>
<path fill="none" stroke="midnightblue" d="M640.171,-117.921C650.001,-118.968 659.998,-120.032 669.828,-121.079"/>
<polygon fill="midnightblue" stroke="midnightblue" points="669.684,-124.583 679.998,-122.162 670.425,-117.623 669.684,-124.583"/>
</g>
<!-- Node51&#45;&gt;Node48 -->
<g id="edge7" class="edge"><title>Node51&#45;&gt;Node48</title>
<path fill="none" stroke="midnightblue" d="M412.108,-241.83C477.252,-239.513 566.187,-234.751 644,-225 658.504,-223.182 673.9,-220.658 688.634,-217.943"/>
<polygon fill="midnightblue" stroke="midnightblue" points="689.534,-221.335 698.711,-216.04 688.235,-214.457 689.534,-221.335"/>
</g>
<!-- Node53 -->
<g id="node9" class="node"><title>Node53</title>
<g id="a_node9"><a xlink:href="../../dd/dd7/interfacecom_1_1github_1_1aptd_1_1simulation_1_1elements_1_1IElement.htm#a447fe1b1460ce755b30e013aea069b77" target="_top" xlink:title="name of the object ">
<polygon fill="none" stroke="black" points="462,-47 462,-75 630,-75 630,-47 462,-47"/>
<text text-anchor="start" x="470" y="-63.8" font-family="Helvetica,sans-Serif" font-size="9.00">com.github.aptd.simulation.elements.</text>
<text text-anchor="middle" x="546" y="-53.8" font-family="Helvetica,sans-Serif" font-size="9.00">IElement.id</text>
</a>
</g>
</g>
<!-- Node52&#45;&gt;Node53 -->
<g id="edge9" class="edge"><title>Node52&#45;&gt;Node53</title>
<path fill="none" stroke="midnightblue" d="M412.228,-61C425.18,-61 438.49,-61 451.448,-61"/>
<polygon fill="midnightblue" stroke="midnightblue" points="451.751,-64.5001 461.751,-61 451.751,-57.5001 451.751,-64.5001"/>
</g>
<!-- Node54 -->
<g id="node10" class="node"><title>Node54</title>
<g id="a_node10"><a xlink:href="../../d2/d30/interfacecom_1_1github_1_1aptd_1_1simulation_1_1core_1_1messaging_1_1IMessage.htm#a6e23e02e4cf681ba96037d8ed0fc6285" target="_top" xlink:title="com.github.aptd.simulation.core.messaging.\lIMessage.sender">
<polygon fill="none" stroke="black" points="448,-0 448,-28 644,-28 644,-0 448,-0"/>
<text text-anchor="start" x="456" y="-16.8" font-family="Helvetica,sans-Serif" font-size="9.00">com.github.aptd.simulation.core.messaging.</text>
<text text-anchor="middle" x="546" y="-6.8" font-family="Helvetica,sans-Serif" font-size="9.00">IMessage.sender</text>
</a>
</g>
</g>
<!-- Node52&#45;&gt;Node54 -->
<g id="edge10" class="edge"><title>Node52&#45;&gt;Node54</title>
<path fill="none" stroke="midnightblue" d="M386.501,-46.9621C411.99,-41.6614 441.186,-35.5896 467.518,-30.1135"/>
<polygon fill="midnightblue" stroke="midnightblue" points="468.378,-33.5096 477.456,-28.0467 466.953,-26.6562 468.378,-33.5096"/>
</g>
<!-- Node55&#45;&gt;Node48 -->
<g id="edge13" class="edge"><title>Node55&#45;&gt;Node48</title>
<path fill="none" stroke="midnightblue" d="M640.171,-202C650.001,-202 659.998,-202 669.828,-202"/>
<polygon fill="midnightblue" stroke="midnightblue" points="669.998,-205.5 679.998,-202 669.998,-198.5 669.998,-205.5"/>
</g>
<!-- Node55&#45;&gt;Node50 -->
<g id="edge12" class="edge"><title>Node55&#45;&gt;Node50</title>
<path fill="none" stroke="midnightblue" d="M608.924,-187.991C620.652,-184.968 632.763,-181.591 644,-178 670.197,-169.627 698.889,-158.36 721.535,-148.956"/>
<polygon fill="midnightblue" stroke="midnightblue" points="722.976,-152.147 730.846,-145.053 720.27,-145.691 722.976,-152.147"/>
</g>
</g>
</svg>
