<?xml version="1.0" encoding="UTF-8" standalone="no"?>
<!DOCTYPE svg PUBLIC "-//W3C//DTD SVG 1.1//EN"
 "http://www.w3.org/Graphics/SVG/1.1/DTD/svg11.dtd">
<!-- Generated by graphviz version 2.36.0 (20140111.2315)
 -->
<!-- Title: com.github.aptd.simulation.elements.train.CDoor.handletrainmessages Pages: 1 -->
<svg width="624pt" height="83pt"
 viewBox="0.00 0.00 624.00 83.00" xmlns="http://www.w3.org/2000/svg" xmlns:xlink="http://www.w3.org/1999/xlink">
<g id="graph0" class="graph" transform="scale(1 1) rotate(0) translate(4 79)">
<title>com.github.aptd.simulation.elements.train.CDoor.handletrainmessages</title>
<!-- Node10 -->
<g id="node1" class="node"><title>Node10</title>
<polygon fill="#bfbfbf" stroke="black" points="0,-23 0,-51 188,-51 188,-23 0,-23"/>
<text text-anchor="start" x="8" y="-39.8" font-family="Helvetica,sans-Serif" font-size="9.00">com.github.aptd.simulation.elements.train.</text>
<text text-anchor="middle" x="94" y="-29.8" font-family="Helvetica,sans-Serif" font-size="9.00">CDoor.handletrainmessages</text>
</g>
<!-- Node11 -->
<g id="node2" class="node"><title>Node11</title>
<g id="a_node2"><a xlink:href="../../d1/d3a/classcom_1_1github_1_1aptd_1_1simulation_1_1elements_1_1train_1_1CDoor.htm#a70869cb9c55c168fc9f5f6045e13c3a2" target="_top" xlink:title="com.github.aptd.simulation.elements.train.\lCDoor.lockifrequested">
<polygon fill="none" stroke="black" points="224,-47 224,-75 412,-75 412,-47 224,-47"/>
<text text-anchor="start" x="232" y="-63.8" font-family="Helvetica,sans-Serif" font-size="9.00">com.github.aptd.simulation.elements.train.</text>
<text text-anchor="middle" x="318" y="-53.8" font-family="Helvetica,sans-Serif" font-size="9.00">CDoor.lockifrequested</text>
</a>
</g>
</g>
<!-- Node10&#45;&gt;Node11 -->
<g id="edge1" class="edge"><title>Node10&#45;&gt;Node11</title>
<path fill="none" stroke="midnightblue" d="M188.183,-47.0738C196.626,-47.9866 205.211,-48.9147 213.734,-49.8361"/>
<polygon fill="midnightblue" stroke="midnightblue" points="213.381,-53.3183 223.7,-50.9135 214.134,-46.3588 213.381,-53.3183"/>
</g>
<!-- Node13 -->
<g id="node4" class="node"><title>Node13</title>
<g id="a_node4"><a xlink:href="../../d1/d3a/classcom_1_1github_1_1aptd_1_1simulation_1_1elements_1_1train_1_1CDoor.htm#ae30d446185e51de92c6fdce1d44fd615" target="_top" xlink:title="com.github.aptd.simulation.elements.train.\lCDoor.unlockifrequested">
<polygon fill="none" stroke="black" points="224,-0 224,-28 412,-28 412,-0 224,-0"/>
<text text-anchor="start" x="232" y="-16.8" font-family="Helvetica,sans-Serif" font-size="9.00">com.github.aptd.simulation.elements.train.</text>
<text text-anchor="middle" x="318" y="-6.8" font-family="Helvetica,sans-Serif" font-size="9.00">CDoor.unlockifrequested</text>
</a>
</g>
</g>
<!-- Node10&#45;&gt;Node13 -->
<g id="edge3" class="edge"><title>Node10&#45;&gt;Node13</title>
<path fill="none" stroke="midnightblue" d="M188.183,-27.3459C196.626,-26.4712 205.211,-25.5818 213.734,-24.6987"/>
<polygon fill="midnightblue" stroke="midnightblue" points="214.113,-28.1782 223.7,-23.6663 213.392,-21.2155 214.113,-28.1782"/>
</g>
<!-- Node12 -->
<g id="node3" class="node"><title>Node12</title>
<g id="a_node3"><a xlink:href="../../d8/d16/classcom_1_1github_1_1aptd_1_1simulation_1_1elements_1_1IStatefulElement.htm#a9f60927cebd69981b235a63cc656adab" target="_top" xlink:title="com.github.aptd.simulation.elements.\lIStatefulElement.output">
<polygon fill="none" stroke="black" points="448,-47 448,-75 616,-75 616,-47 448,-47"/>
<text text-anchor="start" x="456" y="-63.8" font-family="Helvetica,sans-Serif" font-size="9.00">com.github.aptd.simulation.elements.</text>
<text text-anchor="middle" x="532" y="-53.8" font-family="Helvetica,sans-Serif" font-size="9.00">IStatefulElement.output</text>
</a>
</g>
</g>
<!-- Node11&#45;&gt;Node12 -->
<g id="edge2" class="edge"><title>Node11&#45;&gt;Node12</title>
<path fill="none" stroke="midnightblue" d="M412.295,-61C420.745,-61 429.305,-61 437.755,-61"/>
<polygon fill="midnightblue" stroke="midnightblue" points="437.993,-64.5001 447.993,-61 437.993,-57.5001 437.993,-64.5001"/>
</g>
<!-- Node14 -->
<g id="node5" class="node"><title>Node14</title>
<g id="a_node5"><a xlink:href="../../db/d65/interfacecom_1_1github_1_1aptd_1_1simulation_1_1core_1_1time_1_1ITime.htm#a5b549eba2607f2e3f2cc9800e5164ea1" target="_top" xlink:title="get the current time ">
<polygon fill="none" stroke="black" points="448,-0 448,-28 616,-28 616,-0 448,-0"/>
<text text-anchor="start" x="456" y="-16.8" font-family="Helvetica,sans-Serif" font-size="9.00">com.github.aptd.simulation.core.time.</text>
<text text-anchor="middle" x="532" y="-6.8" font-family="Helvetica,sans-Serif" font-size="9.00">ITime.current</text>
</a>
</g>
</g>
<!-- Node13&#45;&gt;Node14 -->
<g id="edge4" class="edge"><title>Node13&#45;&gt;Node14</title>
<path fill="none" stroke="midnightblue" d="M412.295,-14C420.745,-14 429.305,-14 437.755,-14"/>
<polygon fill="midnightblue" stroke="midnightblue" points="437.993,-17.5001 447.993,-14 437.993,-10.5001 437.993,-17.5001"/>
</g>
</g>
</svg>
