<?xml version="1.0" encoding="UTF-8" standalone="no"?>
<!DOCTYPE svg PUBLIC "-//W3C//DTD SVG 1.1//EN"
 "http://www.w3.org/Graphics/SVG/1.1/DTD/svg11.dtd">
<!-- Generated by graphviz version 2.36.0 (20140111.2315)
 -->
<!-- Title: com.github.aptd.simulation.elements.train.CDoor.passengerfinished Pages: 1 -->
<svg width="428pt" height="83pt"
 viewBox="0.00 0.00 428.00 83.00" xmlns="http://www.w3.org/2000/svg" xmlns:xlink="http://www.w3.org/1999/xlink">
<g id="graph0" class="graph" transform="scale(1 1) rotate(0) translate(4 79)">
<title>com.github.aptd.simulation.elements.train.CDoor.passengerfinished</title>
<!-- Node28 -->
<g id="node1" class="node"><title>Node28</title>
<polygon fill="#bfbfbf" stroke="black" points="0,-23 0,-51 188,-51 188,-23 0,-23"/>
<text text-anchor="start" x="8" y="-39.8" font-family="Helvetica,sans-Serif" font-size="9.00">com.github.aptd.simulation.elements.train.</text>
<text text-anchor="middle" x="94" y="-29.8" font-family="Helvetica,sans-Serif" font-size="9.00">CDoor.passengerfinished</text>
</g>
<!-- Node29 -->
<g id="node2" class="node"><title>Node29</title>
<g id="a_node2"><a xlink:href="../../dd/dd7/interfacecom_1_1github_1_1aptd_1_1simulation_1_1elements_1_1IElement.htm#a447fe1b1460ce755b30e013aea069b77" target="_top" xlink:title="name of the object ">
<polygon fill="none" stroke="black" points="238,-47 238,-75 406,-75 406,-47 238,-47"/>
<text text-anchor="start" x="246" y="-63.8" font-family="Helvetica,sans-Serif" font-size="9.00">com.github.aptd.simulation.elements.</text>
<text text-anchor="middle" x="322" y="-53.8" font-family="Helvetica,sans-Serif" font-size="9.00">IElement.id</text>
</a>
</g>
</g>
<!-- Node28&#45;&gt;Node29 -->
<g id="edge1" class="edge"><title>Node28&#45;&gt;Node29</title>
<path fill="none" stroke="midnightblue" d="M188.228,-46.9003C201.18,-48.2757 214.49,-49.6892 227.448,-51.0653"/>
<polygon fill="midnightblue" stroke="midnightblue" points="227.437,-54.5837 237.751,-52.1594 228.177,-47.6229 227.437,-54.5837"/>
</g>
<!-- Node30 -->
<g id="node3" class="node"><title>Node30</title>
<g id="a_node3"><a xlink:href="../../d2/d30/interfacecom_1_1github_1_1aptd_1_1simulation_1_1core_1_1messaging_1_1IMessage.htm#a6e23e02e4cf681ba96037d8ed0fc6285" target="_top" xlink:title="com.github.aptd.simulation.core.messaging.\lIMessage.sender">
<polygon fill="none" stroke="black" points="224,-0 224,-28 420,-28 420,-0 224,-0"/>
<text text-anchor="start" x="232" y="-16.8" font-family="Helvetica,sans-Serif" font-size="9.00">com.github.aptd.simulation.core.messaging.</text>
<text text-anchor="middle" x="322" y="-6.8" font-family="Helvetica,sans-Serif" font-size="9.00">IMessage.sender</text>
</a>
</g>
</g>
<!-- Node28&#45;&gt;Node30 -->
<g id="edge2" class="edge"><title>Node28&#45;&gt;Node30</title>
<path fill="none" stroke="midnightblue" d="M188.228,-27.5122C196.705,-26.6495 205.335,-25.7712 213.92,-24.8975"/>
<polygon fill="midnightblue" stroke="midnightblue" points="214.37,-28.3699 223.965,-23.8753 213.662,-21.4058 214.37,-28.3699"/>
</g>
</g>
</svg>
