<?xml version="1.0" encoding="UTF-8" standalone="no"?>
<!DOCTYPE svg PUBLIC "-//W3C//DTD SVG 1.1//EN"
 "http://www.w3.org/Graphics/SVG/1.1/DTD/svg11.dtd">
<!-- Generated by graphviz version 2.36.0 (20140111.2315)
 -->
<!-- Title: com.github.aptd.simulation.elements.grid.local.CJPSPlusStatic.diagjump Pages: 1 -->
<!--zoomable 190 -->
<svg id="main" version="1.1" xmlns="http://www.w3.org/2000/svg" xmlns:xlink="http://www.w3.org/1999/xlink" xml:space="preserve" onload="init(evt)">
<style type="text/css"><![CDATA[
.edge:hover path { stroke: red; }
.edge:hover polygon { stroke: red; fill: red; }
]]></style>
<script type="text/javascript"><![CDATA[
var edges = document.getElementsByTagName('g');
if (edges && edges.length) {
  for (var i=0;i<edges.length;i++) {
    if (edges[i].id.substr(0,4)=='edge') {
      edges[i].setAttribute('class','edge');
    }
  }
}
]]></script>
        <defs>
                <circle id="rim" cx="0" cy="0" r="7"/>
                <circle id="rim2" cx="0" cy="0" r="3.5"/>
                <g id="zoomPlus">
                        <use xlink:href="#rim" fill="#404040">
                                <set attributeName="fill" to="#808080" begin="zoomplus.mouseover" end="zoomplus.mouseout"/>
                        </use>
                        <path d="M-4,0h8M0,-4v8" fill="none" stroke="white" stroke-width="1.5" pointer-events="none"/>
                </g>
                <g id="zoomMin">
                        <use xlink:href="#rim" fill="#404040">
                                <set attributeName="fill" to="#808080" begin="zoomminus.mouseover" end="zoomminus.mouseout"/>
                        </use>
                        <path d="M-4,0h8" fill="none" stroke="white" stroke-width="1.5" pointer-events="none"/>
                </g>
                <g id="dirArrow">
                        <path fill="none" stroke="white" stroke-width="1.5" d="M0,-3.0v7 M-2.5,-0.5L0,-3.0L2.5,-0.5"/>
                </g>
               <g id="resetDef">
                       <use xlink:href="#rim2" fill="#404040">
                               <set attributeName="fill" to="#808080" begin="reset.mouseover" end="reset.mouseout"/>
                       </use>
               </g>
        </defs>

<script type="text/javascript">
var viewWidth = 948;
var viewHeight = 190;
var sectionId = 'dynsection-6';
</script>
<script xlink:href="../../svgpan.js"/>
<svg id="graph" class="graph">
<g id="viewport">
<title>com.github.aptd.simulation.elements.grid.local.CJPSPlusStatic.diagjump</title>
<!-- Node19 -->
<g id="node1" class="node"><title>Node19</title>
<polygon fill="#bfbfbf" stroke="black" points="0,-67.8892 0,-95.8892 208,-95.8892 208,-67.8892 0,-67.8892"/>
<text text-anchor="start" x="8" y="-84.6892" font-family="Helvetica,sans-Serif" font-size="9.00">com.github.aptd.simulation.elements.grid.local.</text>
<text text-anchor="middle" x="104" y="-74.6892" font-family="Helvetica,sans-Serif" font-size="9.00">CJPSPlusStatic.diagjump</text>
</g>
<!-- Node20 -->
<g id="node2" class="node"><title>Node20</title>
<g id="a_node2"><a xlink:href="../../d7/d8b/classcom_1_1github_1_1aptd_1_1simulation_1_1elements_1_1grid_1_1local_1_1CJPSPlusStatic.htm#aa4cfc8c2e9d3ea37e41b3de9a3e4de40" target="_top" xlink:title="Helper function to identify diagonal jump point. ">
<polygon fill="none" stroke="black" points="488,-153.889 488,-181.889 696,-181.889 696,-153.889 488,-153.889"/>
<text text-anchor="start" x="496" y="-170.689" font-family="Helvetica,sans-Serif" font-size="9.00">com.github.aptd.simulation.elements.grid.local.</text>
<text text-anchor="middle" x="592" y="-160.689" font-family="Helvetica,sans-Serif" font-size="9.00">CJPSPlusStatic.diagonal</text>
</a>
</g>
</g>
<!-- Node19&#45;&gt;Node20 -->
<g id="edge1" class="edge"><title>Node19&#45;&gt;Node20</title>
<path fill="none" stroke="midnightblue" d="M184.166,-95.898C271.275,-111.312 410.961,-136.03 501.857,-152.115"/>
<polygon fill="midnightblue" stroke="midnightblue" points="501.411,-155.59 511.868,-153.886 502.631,-148.697 501.411,-155.59"/>
</g>
<!-- Node23 -->
<g id="node5" class="node"><title>Node23</title>
<g id="a_node5"><a xlink:href="../../d7/d8b/classcom_1_1github_1_1aptd_1_1simulation_1_1elements_1_1grid_1_1local_1_1CJPSPlusStatic.htm#ad1e18422fd4342e7d30c6728357ba982" target="_top" xlink:title="In order to identify individual jump point successors heading in a given direction (run recursively u...">
<polygon fill="none" stroke="black" points="244,-67.8892 244,-95.8892 452,-95.8892 452,-67.8892 244,-67.8892"/>
<text text-anchor="start" x="252" y="-84.6892" font-family="Helvetica,sans-Serif" font-size="9.00">com.github.aptd.simulation.elements.grid.local.</text>
<text text-anchor="middle" x="348" y="-74.6892" font-family="Helvetica,sans-Serif" font-size="9.00">CJPSPlusStatic.jump</text>
</a>
</g>
</g>
<!-- Node19&#45;&gt;Node23 -->
<g id="edge4" class="edge"><title>Node19&#45;&gt;Node23</title>
<path fill="none" stroke="midnightblue" d="M208.332,-75.2036C216.643,-75.1426 225.068,-75.125 233.445,-75.1506"/>
<polygon fill="midnightblue" stroke="midnightblue" points="233.61,-78.6514 243.628,-75.2033 233.647,-71.6515 233.61,-78.6514"/>
</g>
<!-- Node21 -->
<g id="node3" class="node"><title>Node21</title>
<g id="a_node3"><a xlink:href="../../d7/d8b/classcom_1_1github_1_1aptd_1_1simulation_1_1elements_1_1grid_1_1local_1_1CJPSPlusStatic.htm#ab9f83c3d5f777e91e04208ccc1ecf792" target="_top" xlink:title="To check any point is in the grid environment or out of environment. ">
<polygon fill="none" stroke="black" points="732,-31.8892 732,-59.8892 940,-59.8892 940,-31.8892 732,-31.8892"/>
<text text-anchor="start" x="740" y="-48.6892" font-family="Helvetica,sans-Serif" font-size="9.00">com.github.aptd.simulation.elements.grid.local.</text>
<text text-anchor="middle" x="836" y="-38.6892" font-family="Helvetica,sans-Serif" font-size="9.00">CJPSPlusStatic.isNotCoordinate</text>
</a>
</g>
</g>
<!-- Node20&#45;&gt;Node21 -->
<g id="edge2" class="edge"><title>Node20&#45;&gt;Node21</title>
<path fill="none" stroke="midnightblue" d="M616.742,-153.84C644.129,-137.846 690.696,-111.296 732,-90.8892 751.219,-81.3939 772.909,-71.7616 791.412,-63.8583"/>
<polygon fill="midnightblue" stroke="midnightblue" points="792.926,-67.0181 800.767,-59.8928 790.194,-60.5732 792.926,-67.0181"/>
</g>
<!-- Node22 -->
<g id="node4" class="node"><title>Node22</title>
<g id="a_node4"><a xlink:href="../../d7/d8b/classcom_1_1github_1_1aptd_1_1simulation_1_1elements_1_1grid_1_1local_1_1CJPSPlusStatic.htm#aeb79e653e2a991567602af6d2ed17663" target="_top" xlink:title="To check any point in the grid environment is free or occupied. ">
<polygon fill="none" stroke="black" points="732,-99.8892 732,-127.889 940,-127.889 940,-99.8892 732,-99.8892"/>
<text text-anchor="start" x="740" y="-116.689" font-family="Helvetica,sans-Serif" font-size="9.00">com.github.aptd.simulation.elements.grid.local.</text>
<text text-anchor="middle" x="836" y="-106.689" font-family="Helvetica,sans-Serif" font-size="9.00">CJPSPlusStatic.isOccupied</text>
</a>
</g>
</g>
<!-- Node20&#45;&gt;Node22 -->
<g id="edge3" class="edge"><title>Node20&#45;&gt;Node22</title>
<path fill="none" stroke="midnightblue" d="M655.951,-153.842C688.454,-146.59 728.281,-137.703 762.113,-130.153"/>
<polygon fill="midnightblue" stroke="midnightblue" points="762.947,-133.553 771.944,-127.959 761.422,-126.721 762.947,-133.553"/>
</g>
<!-- Node23&#45;&gt;Node19 -->
<g id="edge7" class="edge"><title>Node23&#45;&gt;Node19</title>
<path fill="none" stroke="midnightblue" d="M243.628,-88.5751C235.317,-88.636 226.892,-88.6535 218.515,-88.6277"/>
<polygon fill="midnightblue" stroke="midnightblue" points="218.35,-85.1269 208.332,-88.5749 218.313,-92.1268 218.35,-85.1269"/>
</g>
<!-- Node23&#45;&gt;Node21 -->
<g id="edge6" class="edge"><title>Node23&#45;&gt;Node21</title>
<path fill="none" stroke="midnightblue" d="M368.986,-67.797C394.967,-50.4247 442.422,-21.8558 488,-10.8892 589.277,13.4791 711.145,-10.7117 780.189,-29.2007"/>
<polygon fill="midnightblue" stroke="midnightblue" points="779.415,-32.6174 789.984,-31.8808 781.262,-25.8656 779.415,-32.6174"/>
</g>
<!-- Node23&#45;&gt;Node22 -->
<g id="edge5" class="edge"><title>Node23&#45;&gt;Node22</title>
<path fill="none" stroke="midnightblue" d="M421.973,-95.9075C443.188,-99.4547 466.45,-102.837 488,-104.889 565.748,-112.294 653.706,-114.508 721.612,-114.889"/>
<polygon fill="midnightblue" stroke="midnightblue" points="721.892,-118.391 731.907,-114.934 721.922,-111.391 721.892,-118.391"/>
</g>
<!-- Node24 -->
<g id="node6" class="node"><title>Node24</title>
<g id="a_node6"><a xlink:href="../../d7/d8b/classcom_1_1github_1_1aptd_1_1simulation_1_1elements_1_1grid_1_1local_1_1CJPSPlusStatic.htm#a7cde95cb0aed568364494cd7971e2614" target="_top" xlink:title="Helper function to identify horizontal jump point. ">
<polygon fill="none" stroke="black" points="488,-67.8892 488,-95.8892 696,-95.8892 696,-67.8892 488,-67.8892"/>
<text text-anchor="start" x="496" y="-84.6892" font-family="Helvetica,sans-Serif" font-size="9.00">com.github.aptd.simulation.elements.grid.local.</text>
<text text-anchor="middle" x="592" y="-74.6892" font-family="Helvetica,sans-Serif" font-size="9.00">CJPSPlusStatic.horizontal</text>
</a>
</g>
</g>
<!-- Node23&#45;&gt;Node24 -->
<g id="edge8" class="edge"><title>Node23&#45;&gt;Node24</title>
<path fill="none" stroke="midnightblue" d="M452.332,-81.8892C460.643,-81.8892 469.068,-81.8892 477.445,-81.8892"/>
<polygon fill="midnightblue" stroke="midnightblue" points="477.629,-85.3893 487.628,-81.8892 477.628,-78.3893 477.629,-85.3893"/>
</g>
<!-- Node25 -->
<g id="node7" class="node"><title>Node25</title>
<g id="a_node7"><a xlink:href="../../d7/d8b/classcom_1_1github_1_1aptd_1_1simulation_1_1elements_1_1grid_1_1local_1_1CJPSPlusStatic.htm#a1b8d82895ff1fc4e4e2cddf37a03f18f" target="_top" xlink:title="Helper function to identify vertical jump point. ">
<polygon fill="none" stroke="black" points="488,-20.8892 488,-48.8892 696,-48.8892 696,-20.8892 488,-20.8892"/>
<text text-anchor="start" x="496" y="-37.6892" font-family="Helvetica,sans-Serif" font-size="9.00">com.github.aptd.simulation.elements.grid.local.</text>
<text text-anchor="middle" x="592" y="-27.6892" font-family="Helvetica,sans-Serif" font-size="9.00">CJPSPlusStatic.vertical</text>
</a>
</g>
</g>
<!-- Node23&#45;&gt;Node25 -->
<g id="edge11" class="edge"><title>Node23&#45;&gt;Node25</title>
<path fill="none" stroke="midnightblue" d="M421.28,-67.8513C448.814,-62.5039 480.388,-56.3717 508.777,-50.8581"/>
<polygon fill="midnightblue" stroke="midnightblue" points="509.525,-54.2783 518.674,-48.9359 508.19,-47.4067 509.525,-54.2783"/>
</g>
<!-- Node24&#45;&gt;Node21 -->
<g id="edge9" class="edge"><title>Node24&#45;&gt;Node21</title>
<path fill="none" stroke="midnightblue" d="M687.256,-67.8676C701.49,-65.7502 716.243,-63.5555 730.674,-61.4088"/>
<polygon fill="midnightblue" stroke="midnightblue" points="731.227,-64.8652 740.603,-59.9318 730.196,-57.9414 731.227,-64.8652"/>
</g>
<!-- Node24&#45;&gt;Node22 -->
<g id="edge10" class="edge"><title>Node24&#45;&gt;Node22</title>
<path fill="none" stroke="midnightblue" d="M696.332,-95.5529C704.643,-96.6519 713.068,-97.766 721.445,-98.8737"/>
<polygon fill="midnightblue" stroke="midnightblue" points="721.256,-102.379 731.628,-100.22 722.174,-95.4395 721.256,-102.379"/>
</g>
<!-- Node25&#45;&gt;Node21 -->
<g id="edge12" class="edge"><title>Node25&#45;&gt;Node21</title>
<path fill="none" stroke="midnightblue" d="M696.332,-39.5861C704.643,-39.9639 713.068,-40.3469 721.445,-40.7276"/>
<polygon fill="midnightblue" stroke="midnightblue" points="721.48,-44.2327 731.628,-41.1905 721.798,-37.24 721.48,-44.2327"/>
</g>
<!-- Node25&#45;&gt;Node22 -->
<g id="edge13" class="edge"><title>Node25&#45;&gt;Node22</title>
<path fill="none" stroke="midnightblue" d="M659.877,-48.9536C671.985,-51.9292 684.433,-55.275 696,-58.8892 729.681,-69.4134 766.796,-84.2735 794.195,-95.8949"/>
<polygon fill="midnightblue" stroke="midnightblue" points="792.889,-99.143 803.46,-99.858 795.643,-92.7071 792.889,-99.143"/>
</g>
</g>
</svg>
        <g id="navigator" transform="translate(0 0)" fill="#404254">
                <rect fill="#f2f5e9" fill-opacity="0.5" stroke="#606060" stroke-width=".5" x="0" y="0" width="60" height="60"/>
                <use id="zoomplus" xlink:href="#zoomPlus" x="17" y="9" onmousedown="handleZoom(evt,'in')"/>
                <use id="zoomminus" xlink:href="#zoomMin" x="42" y="9" onmousedown="handleZoom(evt,'out')"/>
                <use id="reset" xlink:href="#resetDef" x="30" y="36" onmousedown="handleReset()"/>
                <g id="arrowUp" xlink:href="#dirArrow" transform="translate(30 24)" onmousedown="handlePan(0,-1)">
                  <use xlink:href="#rim" fill="#404040">
                        <set attributeName="fill" to="#808080" begin="arrowUp.mouseover" end="arrowUp.mouseout"/>
                  </use>
                  <path fill="none" stroke="white" stroke-width="1.5" d="M0,-3.0v7 M-2.5,-0.5L0,-3.0L2.5,-0.5"/>
                </g>
                <g id="arrowRight" xlink:href="#dirArrow" transform="rotate(90) translate(36 -43)" onmousedown="handlePan(1,0)">
                  <use xlink:href="#rim" fill="#404040">
                        <set attributeName="fill" to="#808080" begin="arrowRight.mouseover" end="arrowRight.mouseout"/>
                  </use>
                  <path fill="none" stroke="white" stroke-width="1.5" d="M0,-3.0v7 M-2.5,-0.5L0,-3.0L2.5,-0.5"/>
                </g>
                <g id="arrowDown" xlink:href="#dirArrow" transform="rotate(180) translate(-30 -48)" onmousedown="handlePan(0,1)">
                  <use xlink:href="#rim" fill="#404040">
                        <set attributeName="fill" to="#808080" begin="arrowDown.mouseover" end="arrowDown.mouseout"/>
                  </use>
                  <path fill="none" stroke="white" stroke-width="1.5" d="M0,-3.0v7 M-2.5,-0.5L0,-3.0L2.5,-0.5"/>
                </g>
                <g id="arrowLeft" xlink:href="#dirArrow" transform="rotate(270) translate(-36 17)" onmousedown="handlePan(-1,0)">
                  <use xlink:href="#rim" fill="#404040">
                        <set attributeName="fill" to="#808080" begin="arrowLeft.mouseover" end="arrowLeft.mouseout"/>
                  </use>
                  <path fill="none" stroke="white" stroke-width="1.5" d="M0,-3.0v7 M-2.5,-0.5L0,-3.0L2.5,-0.5"/>
                </g>
        </g>
        <svg viewBox="0 0 15 15" width="100%" height="30px" preserveAspectRatio="xMaxYMin meet">
         <g id="arrow_out" transform="scale(0.3 0.3)">
          <a xlink:href="classcom_1_1github_1_1aptd_1_1simulation_1_1elements_1_1grid_1_1local_1_1CJPSPlusStatic_a638aa9e906e95397bcabd8c75a63d9a4_cgraph_org.svg" target="_base">
           <rect id="button" ry="5" rx="5" y="6" x="6" height="38" width="38"
                fill="#f2f5e9" fill-opacity="0.5" stroke="#606060" stroke-width="1.0"/>
           <path id="arrow"
             d="M 11.500037,31.436501 C 11.940474,20.09759 22.043105,11.32322 32.158766,21.979434 L 37.068811,17.246167 C 37.068811,17.246167 37.088388,32 37.088388,32 L 22.160133,31.978069 C 22.160133,31.978069 26.997745,27.140456 26.997745,27.140456 C 18.528582,18.264221 13.291696,25.230495 11.500037,31.436501 z"
             style="fill:#404040;"/>
          </a>
         </g>
        </svg>
</svg>
