<?xml version="1.0" encoding="UTF-8" standalone="no"?>
<!DOCTYPE svg PUBLIC "-//W3C//DTD SVG 1.1//EN"
 "http://www.w3.org/Graphics/SVG/1.1/DTD/svg11.dtd">
<!-- Generated by graphviz version 2.36.0 (20140111.2315)
 -->
<!-- Title: com.github.aptd.simulation.elements.grid.local.CJPSPlusStatic.jump Pages: 1 -->
<!--zoomable 83 -->
<svg id="main" version="1.1" xmlns="http://www.w3.org/2000/svg" xmlns:xlink="http://www.w3.org/1999/xlink" xml:space="preserve" onload="init(evt)">
<style type="text/css"><![CDATA[
.edge:hover path { stroke: red; }
.edge:hover polygon { stroke: red; fill: red; }
]]></style>
<script type="text/javascript"><![CDATA[
var edges = document.getElementsByTagName('g');
if (edges && edges.length) {
  for (var i=0;i<edges.length;i++) {
    if (edges[i].id.substr(0,4)=='edge') {
      edges[i].setAttribute('class','edge');
    }
  }
}
]]></script>
        <defs>
                <circle id="rim" cx="0" cy="0" r="7"/>
                <circle id="rim2" cx="0" cy="0" r="3.5"/>
                <g id="zoomPlus">
                        <use xlink:href="#rim" fill="#404040">
                                <set attributeName="fill" to="#808080" begin="zoomplus.mouseover" end="zoomplus.mouseout"/>
                        </use>
                        <path d="M-4,0h8M0,-4v8" fill="none" stroke="white" stroke-width="1.5" pointer-events="none"/>
                </g>
                <g id="zoomMin">
                        <use xlink:href="#rim" fill="#404040">
                                <set attributeName="fill" to="#808080" begin="zoomminus.mouseover" end="zoomminus.mouseout"/>
                        </use>
                        <path d="M-4,0h8" fill="none" stroke="white" stroke-width="1.5" pointer-events="none"/>
                </g>
                <g id="dirArrow">
                        <path fill="none" stroke="white" stroke-width="1.5" d="M0,-3.0v7 M-2.5,-0.5L0,-3.0L2.5,-0.5"/>
                </g>
               <g id="resetDef">
                       <use xlink:href="#rim2" fill="#404040">
                               <set attributeName="fill" to="#808080" begin="reset.mouseover" end="reset.mouseout"/>
                       </use>
               </g>
        </defs>

<script type="text/javascript">
var viewWidth = 704;
var viewHeight = 83;
var sectionId = 'dynsection-17';
</script>
<script xlink:href="../../svgpan.js"/>
<svg id="graph" class="graph">
<g id="viewport">
<title>com.github.aptd.simulation.elements.grid.local.CJPSPlusStatic.jump</title>
<!-- Node81 -->
<g id="node1" class="node"><title>Node81</title>
<polygon fill="#bfbfbf" stroke="black" points="0,-47 0,-75 208,-75 208,-47 0,-47"/>
<text text-anchor="start" x="8" y="-63.8" font-family="Helvetica,sans-Serif" font-size="9.00">com.github.aptd.simulation.elements.grid.local.</text>
<text text-anchor="middle" x="104" y="-53.8" font-family="Helvetica,sans-Serif" font-size="9.00">CJPSPlusStatic.jump</text>
</g>
<!-- Node82 -->
<g id="node2" class="node"><title>Node82</title>
<g id="a_node2"><a xlink:href="../../d7/d8b/classcom_1_1github_1_1aptd_1_1simulation_1_1elements_1_1grid_1_1local_1_1CJPSPlusStatic.htm#a638aa9e906e95397bcabd8c75a63d9a4" target="_top" xlink:title="In order to identify diagonal jump point. ">
<polygon fill="none" stroke="black" points="244,-47 244,-75 452,-75 452,-47 244,-47"/>
<text text-anchor="start" x="252" y="-63.8" font-family="Helvetica,sans-Serif" font-size="9.00">com.github.aptd.simulation.elements.grid.local.</text>
<text text-anchor="middle" x="348" y="-53.8" font-family="Helvetica,sans-Serif" font-size="9.00">CJPSPlusStatic.diagjump</text>
</a>
</g>
</g>
<!-- Node81&#45;&gt;Node82 -->
<g id="edge1" class="edge"><title>Node81&#45;&gt;Node82</title>
<path fill="none" stroke="midnightblue" d="M218.515,-54.2615C226.892,-54.2357 235.317,-54.2533 243.628,-54.3141"/>
<polygon fill="midnightblue" stroke="midnightblue" points="218.313,-50.7624 208.332,-54.3144 218.35,-57.7623 218.313,-50.7624"/>
</g>
<!-- Node83 -->
<g id="node3" class="node"><title>Node83</title>
<g id="a_node3"><a xlink:href="../../d7/d8b/classcom_1_1github_1_1aptd_1_1simulation_1_1elements_1_1grid_1_1local_1_1CJPSPlusStatic.htm#a565a6583141d9f8a65593cfc4e20eb1f" target="_top" xlink:title="individual jump point successors are identified ">
<polygon fill="none" stroke="black" points="244,-0 244,-28 452,-28 452,-0 244,-0"/>
<text text-anchor="start" x="252" y="-16.8" font-family="Helvetica,sans-Serif" font-size="9.00">com.github.aptd.simulation.elements.grid.local.</text>
<text text-anchor="middle" x="348" y="-6.8" font-family="Helvetica,sans-Serif" font-size="9.00">CJPSPlusStatic.successors</text>
</a>
</g>
</g>
<!-- Node81&#45;&gt;Node83 -->
<g id="edge3" class="edge"><title>Node81&#45;&gt;Node83</title>
<path fill="none" stroke="midnightblue" d="M187.176,-45.0402C215.562,-39.5273 247.136,-33.395 274.674,-28.0467"/>
<polygon fill="midnightblue" stroke="midnightblue" points="186.429,-41.6197 177.28,-46.9621 187.764,-48.4913 186.429,-41.6197"/>
</g>
<!-- Node82&#45;&gt;Node81 -->
<g id="edge2" class="edge"><title>Node82&#45;&gt;Node81</title>
<path fill="none" stroke="midnightblue" d="M233.445,-67.7386C225.068,-67.7642 216.643,-67.7466 208.332,-67.6856"/>
<polygon fill="midnightblue" stroke="midnightblue" points="233.647,-71.2377 243.628,-67.6859 233.61,-64.2378 233.647,-71.2377"/>
</g>
<!-- Node84 -->
<g id="node4" class="node"><title>Node84</title>
<g id="a_node4"><a xlink:href="../../d7/d8b/classcom_1_1github_1_1aptd_1_1simulation_1_1elements_1_1grid_1_1local_1_1CJPSPlusStatic.htm#a1cf62f3003bceb8d8648c600c31ef837" target="_top" xlink:title="routing algorithm ">
<polygon fill="none" stroke="black" points="488,-0 488,-28 696,-28 696,-0 488,-0"/>
<text text-anchor="start" x="496" y="-16.8" font-family="Helvetica,sans-Serif" font-size="9.00">com.github.aptd.simulation.elements.grid.local.</text>
<text text-anchor="middle" x="592" y="-6.8" font-family="Helvetica,sans-Serif" font-size="9.00">CJPSPlusStatic.route</text>
</a>
</g>
</g>
<!-- Node83&#45;&gt;Node84 -->
<g id="edge4" class="edge"><title>Node83&#45;&gt;Node84</title>
<path fill="none" stroke="midnightblue" d="M462.515,-14C470.892,-14 479.317,-14 487.628,-14"/>
<polygon fill="midnightblue" stroke="midnightblue" points="462.332,-10.5001 452.332,-14 462.332,-17.5001 462.332,-10.5001"/>
</g>
</g>
</svg>
        <g id="navigator" transform="translate(0 0)" fill="#404254">
                <rect fill="#f2f5e9" fill-opacity="0.5" stroke="#606060" stroke-width=".5" x="0" y="0" width="60" height="60"/>
                <use id="zoomplus" xlink:href="#zoomPlus" x="17" y="9" onmousedown="handleZoom(evt,'in')"/>
                <use id="zoomminus" xlink:href="#zoomMin" x="42" y="9" onmousedown="handleZoom(evt,'out')"/>
                <use id="reset" xlink:href="#resetDef" x="30" y="36" onmousedown="handleReset()"/>
                <g id="arrowUp" xlink:href="#dirArrow" transform="translate(30 24)" onmousedown="handlePan(0,-1)">
                  <use xlink:href="#rim" fill="#404040">
                        <set attributeName="fill" to="#808080" begin="arrowUp.mouseover" end="arrowUp.mouseout"/>
                  </use>
                  <path fill="none" stroke="white" stroke-width="1.5" d="M0,-3.0v7 M-2.5,-0.5L0,-3.0L2.5,-0.5"/>
                </g>
                <g id="arrowRight" xlink:href="#dirArrow" transform="rotate(90) translate(36 -43)" onmousedown="handlePan(1,0)">
                  <use xlink:href="#rim" fill="#404040">
                        <set attributeName="fill" to="#808080" begin="arrowRight.mouseover" end="arrowRight.mouseout"/>
                  </use>
                  <path fill="none" stroke="white" stroke-width="1.5" d="M0,-3.0v7 M-2.5,-0.5L0,-3.0L2.5,-0.5"/>
                </g>
                <g id="arrowDown" xlink:href="#dirArrow" transform="rotate(180) translate(-30 -48)" onmousedown="handlePan(0,1)">
                  <use xlink:href="#rim" fill="#404040">
                        <set attributeName="fill" to="#808080" begin="arrowDown.mouseover" end="arrowDown.mouseout"/>
                  </use>
                  <path fill="none" stroke="white" stroke-width="1.5" d="M0,-3.0v7 M-2.5,-0.5L0,-3.0L2.5,-0.5"/>
                </g>
                <g id="arrowLeft" xlink:href="#dirArrow" transform="rotate(270) translate(-36 17)" onmousedown="handlePan(-1,0)">
                  <use xlink:href="#rim" fill="#404040">
                        <set attributeName="fill" to="#808080" begin="arrowLeft.mouseover" end="arrowLeft.mouseout"/>
                  </use>
                  <path fill="none" stroke="white" stroke-width="1.5" d="M0,-3.0v7 M-2.5,-0.5L0,-3.0L2.5,-0.5"/>
                </g>
        </g>
        <svg viewBox="0 0 15 15" width="100%" height="30px" preserveAspectRatio="xMaxYMin meet">
         <g id="arrow_out" transform="scale(0.3 0.3)">
          <a xlink:href="classcom_1_1github_1_1aptd_1_1simulation_1_1elements_1_1grid_1_1local_1_1CJPSPlusStatic_ad1e18422fd4342e7d30c6728357ba982_icgraph_org.svg" target="_base">
           <rect id="button" ry="5" rx="5" y="6" x="6" height="38" width="38"
                fill="#f2f5e9" fill-opacity="0.5" stroke="#606060" stroke-width="1.0"/>
           <path id="arrow"
             d="M 11.500037,31.436501 C 11.940474,20.09759 22.043105,11.32322 32.158766,21.979434 L 37.068811,17.246167 C 37.068811,17.246167 37.088388,32 37.088388,32 L 22.160133,31.978069 C 22.160133,31.978069 26.997745,27.140456 26.997745,27.140456 C 18.528582,18.264221 13.291696,25.230495 11.500037,31.436501 z"
             style="fill:#404040;"/>
          </a>
         </g>
        </svg>
</svg>
