<?xml version="1.0" encoding="UTF-8" standalone="no"?>
<!DOCTYPE svg PUBLIC "-//W3C//DTD SVG 1.1//EN"
 "http://www.w3.org/Graphics/SVG/1.1/DTD/svg11.dtd">
<!-- Generated by graphviz version 2.36.0 (20140111.2315)
 -->
<!-- Title: com.github.aptd.simulation.elements.grid.local.CJPSPlusStatic.diagonal Pages: 1 -->
<svg width="460pt" height="83pt"
 viewBox="0.00 0.00 460.00 83.00" xmlns="http://www.w3.org/2000/svg" xmlns:xlink="http://www.w3.org/1999/xlink">
<g id="graph0" class="graph" transform="scale(1 1) rotate(0) translate(4 79)">
<title>com.github.aptd.simulation.elements.grid.local.CJPSPlusStatic.diagonal</title>
<!-- Node30 -->
<g id="node1" class="node"><title>Node30</title>
<polygon fill="#bfbfbf" stroke="black" points="0,-23 0,-51 208,-51 208,-23 0,-23"/>
<text text-anchor="start" x="8" y="-39.8" font-family="Helvetica,sans-Serif" font-size="9.00">com.github.aptd.simulation.elements.grid.local.</text>
<text text-anchor="middle" x="104" y="-29.8" font-family="Helvetica,sans-Serif" font-size="9.00">CJPSPlusStatic.diagonal</text>
</g>
<!-- Node31 -->
<g id="node2" class="node"><title>Node31</title>
<g id="a_node2"><a xlink:href="../../d7/d8b/classcom_1_1github_1_1aptd_1_1simulation_1_1elements_1_1grid_1_1local_1_1CJPSPlusStatic.htm#ab9f83c3d5f777e91e04208ccc1ecf792" target="_top" xlink:title="To check any point is in the grid environment or out of environment. ">
<polygon fill="none" stroke="black" points="244,-47 244,-75 452,-75 452,-47 244,-47"/>
<text text-anchor="start" x="252" y="-63.8" font-family="Helvetica,sans-Serif" font-size="9.00">com.github.aptd.simulation.elements.grid.local.</text>
<text text-anchor="middle" x="348" y="-53.8" font-family="Helvetica,sans-Serif" font-size="9.00">CJPSPlusStatic.isNotCoordinate</text>
</a>
</g>
</g>
<!-- Node30&#45;&gt;Node31 -->
<g id="edge1" class="edge"><title>Node30&#45;&gt;Node31</title>
<path fill="none" stroke="midnightblue" d="M208.332,-47.2478C216.643,-48.072 225.068,-48.9075 233.445,-49.7383"/>
<polygon fill="midnightblue" stroke="midnightblue" points="233.332,-53.2442 243.628,-50.7483 234.023,-46.2784 233.332,-53.2442"/>
</g>
<!-- Node32 -->
<g id="node3" class="node"><title>Node32</title>
<g id="a_node3"><a xlink:href="../../d7/d8b/classcom_1_1github_1_1aptd_1_1simulation_1_1elements_1_1grid_1_1local_1_1CJPSPlusStatic.htm#aeb79e653e2a991567602af6d2ed17663" target="_top" xlink:title="To check any point in the grid environment is free or occupied. ">
<polygon fill="none" stroke="black" points="244,-0 244,-28 452,-28 452,-0 244,-0"/>
<text text-anchor="start" x="252" y="-16.8" font-family="Helvetica,sans-Serif" font-size="9.00">com.github.aptd.simulation.elements.grid.local.</text>
<text text-anchor="middle" x="348" y="-6.8" font-family="Helvetica,sans-Serif" font-size="9.00">CJPSPlusStatic.isOccupied</text>
</a>
</g>
</g>
<!-- Node30&#45;&gt;Node32 -->
<g id="edge2" class="edge"><title>Node30&#45;&gt;Node32</title>
<path fill="none" stroke="midnightblue" d="M208.332,-27.1792C216.643,-26.3893 225.068,-25.5886 233.445,-24.7924"/>
<polygon fill="midnightblue" stroke="midnightblue" points="234.005,-28.2551 243.628,-23.8246 233.342,-21.2865 234.005,-28.2551"/>
</g>
</g>
</svg>
