<?xml version="1.0" encoding="UTF-8" standalone="no"?>
<!DOCTYPE svg PUBLIC "-//W3C//DTD SVG 1.1//EN"
 "http://www.w3.org/Graphics/SVG/1.1/DTD/svg11.dtd">
<!-- Generated by graphviz version 2.36.0 (20140111.2315)
 -->
<!-- Title: com.github.aptd.simulation.elements.grid.local.CJPSPlusStatic.successors Pages: 1 -->
<!--zoomable 463 -->
<svg id="main" version="1.1" xmlns="http://www.w3.org/2000/svg" xmlns:xlink="http://www.w3.org/1999/xlink" xml:space="preserve" onload="init(evt)">
<style type="text/css"><![CDATA[
.edge:hover path { stroke: red; }
.edge:hover polygon { stroke: red; fill: red; }
]]></style>
<script type="text/javascript"><![CDATA[
var edges = document.getElementsByTagName('g');
if (edges && edges.length) {
  for (var i=0;i<edges.length;i++) {
    if (edges[i].id.substr(0,4)=='edge') {
      edges[i].setAttribute('class','edge');
    }
  }
}
]]></script>
        <defs>
                <circle id="rim" cx="0" cy="0" r="7"/>
                <circle id="rim2" cx="0" cy="0" r="3.5"/>
                <g id="zoomPlus">
                        <use xlink:href="#rim" fill="#404040">
                                <set attributeName="fill" to="#808080" begin="zoomplus.mouseover" end="zoomplus.mouseout"/>
                        </use>
                        <path d="M-4,0h8M0,-4v8" fill="none" stroke="white" stroke-width="1.5" pointer-events="none"/>
                </g>
                <g id="zoomMin">
                        <use xlink:href="#rim" fill="#404040">
                                <set attributeName="fill" to="#808080" begin="zoomminus.mouseover" end="zoomminus.mouseout"/>
                        </use>
                        <path d="M-4,0h8" fill="none" stroke="white" stroke-width="1.5" pointer-events="none"/>
                </g>
                <g id="dirArrow">
                        <path fill="none" stroke="white" stroke-width="1.5" d="M0,-3.0v7 M-2.5,-0.5L0,-3.0L2.5,-0.5"/>
                </g>
               <g id="resetDef">
                       <use xlink:href="#rim2" fill="#404040">
                               <set attributeName="fill" to="#808080" begin="reset.mouseover" end="reset.mouseout"/>
                       </use>
               </g>
        </defs>

<script type="text/javascript">
var viewWidth = 1192;
var viewHeight = 463;
var sectionId = 'dynsection-19';
</script>
<script xlink:href="../../svgpan.js"/>
<svg id="graph" class="graph">
<g id="viewport">
<title>com.github.aptd.simulation.elements.grid.local.CJPSPlusStatic.successors</title>
<!-- Node103 -->
<g id="node1" class="node"><title>Node103</title>
<polygon fill="#bfbfbf" stroke="black" points="0,-224.179 0,-252.179 208,-252.179 208,-224.179 0,-224.179"/>
<text text-anchor="start" x="8" y="-240.979" font-family="Helvetica,sans-Serif" font-size="9.00">com.github.aptd.simulation.elements.grid.local.</text>
<text text-anchor="middle" x="104" y="-230.979" font-family="Helvetica,sans-Serif" font-size="9.00">CJPSPlusStatic.successors</text>
</g>
<!-- Node104 -->
<g id="node2" class="node"><title>Node104</title>
<g id="a_node2"><a xlink:href="../../d7/d8b/classcom_1_1github_1_1aptd_1_1simulation_1_1elements_1_1grid_1_1local_1_1CJPSPlusStatic.htm#a66e040efc22046b6de9683ea54ee9997" target="_top" xlink:title="Validated successors are added to open list. ">
<polygon fill="none" stroke="black" points="244,-329.179 244,-357.179 452,-357.179 452,-329.179 244,-329.179"/>
<text text-anchor="start" x="252" y="-345.979" font-family="Helvetica,sans-Serif" font-size="9.00">com.github.aptd.simulation.elements.grid.local.</text>
<text text-anchor="middle" x="348" y="-335.979" font-family="Helvetica,sans-Serif" font-size="9.00">CJPSPlusStatic.addsuccessors</text>
</a>
</g>
</g>
<!-- Node103&#45;&gt;Node104 -->
<g id="edge1" class="edge"><title>Node103&#45;&gt;Node104</title>
<path fill="none" stroke="midnightblue" d="M137.386,-252.231C180.643,-270.999 257.347,-304.28 305.004,-324.957"/>
<polygon fill="midnightblue" stroke="midnightblue" points="303.852,-328.273 314.419,-329.042 306.639,-321.851 303.852,-328.273"/>
</g>
<!-- Node106 -->
<g id="node4" class="node"><title>Node106</title>
<g id="a_node4"><a xlink:href="../../dc/dca/classcom_1_1github_1_1aptd_1_1simulation_1_1elements_1_1grid_1_1local_1_1CJPSPlusStatic_1_1CJumpPoint.htm#aed5e48ef09dfd02d8c15c399e5e9541c" target="_top" xlink:title="getter for coordinate ">
<polygon fill="none" stroke="black" points="732,-286.179 732,-314.179 940,-314.179 940,-286.179 732,-286.179"/>
<text text-anchor="start" x="740" y="-302.979" font-family="Helvetica,sans-Serif" font-size="9.00">com.github.aptd.simulation.elements.grid.local.</text>
<text text-anchor="middle" x="836" y="-292.979" font-family="Helvetica,sans-Serif" font-size="9.00">CJPSPlusStatic.CJumpPoint.coordinate</text>
</a>
</g>
</g>
<!-- Node103&#45;&gt;Node106 -->
<g id="edge9" class="edge"><title>Node103&#45;&gt;Node106</title>
<path fill="none" stroke="midnightblue" d="M181.283,-252.184C201.607,-255.536 223.589,-258.822 244,-261.179 409.633,-280.301 602.547,-290.845 721.732,-296.007"/>
<polygon fill="midnightblue" stroke="midnightblue" points="721.822,-299.514 731.963,-296.445 722.121,-292.52 721.822,-299.514"/>
</g>
<!-- Node111 -->
<g id="node9" class="node"><title>Node111</title>
<g id="a_node9"><a xlink:href="../../d7/d8b/classcom_1_1github_1_1aptd_1_1simulation_1_1elements_1_1grid_1_1local_1_1CJPSPlusStatic.htm#a0bdcffc872a399590caeb67dc3bb332b" target="_top" xlink:title="Finds the non valid successors of any grid. ">
<polygon fill="none" stroke="black" points="244,-224.179 244,-252.179 452,-252.179 452,-224.179 244,-224.179"/>
<text text-anchor="start" x="252" y="-240.979" font-family="Helvetica,sans-Serif" font-size="9.00">com.github.aptd.simulation.elements.grid.local.</text>
<text text-anchor="middle" x="348" y="-230.979" font-family="Helvetica,sans-Serif" font-size="9.00">CJPSPlusStatic.isNotNeighbour</text>
</a>
</g>
</g>
<!-- Node103&#45;&gt;Node111 -->
<g id="edge10" class="edge"><title>Node103&#45;&gt;Node111</title>
<path fill="none" stroke="midnightblue" d="M208.332,-238.179C216.643,-238.179 225.068,-238.179 233.445,-238.179"/>
<polygon fill="midnightblue" stroke="midnightblue" points="233.629,-241.679 243.628,-238.179 233.628,-234.679 233.629,-241.679"/>
</g>
<!-- Node113 -->
<g id="node11" class="node"><title>Node113</title>
<g id="a_node11"><a xlink:href="../../d7/d8b/classcom_1_1github_1_1aptd_1_1simulation_1_1elements_1_1grid_1_1local_1_1CJPSPlusStatic.htm#aeb79e653e2a991567602af6d2ed17663" target="_top" xlink:title="To check any point in the grid environment is free or occupied. ">
<polygon fill="none" stroke="black" points="976,-54.1787 976,-82.1787 1184,-82.1787 1184,-54.1787 976,-54.1787"/>
<text text-anchor="start" x="984" y="-70.9787" font-family="Helvetica,sans-Serif" font-size="9.00">com.github.aptd.simulation.elements.grid.local.</text>
<text text-anchor="middle" x="1080" y="-60.9787" font-family="Helvetica,sans-Serif" font-size="9.00">CJPSPlusStatic.isOccupied</text>
</a>
</g>
</g>
<!-- Node103&#45;&gt;Node113 -->
<g id="edge12" class="edge"><title>Node103&#45;&gt;Node113</title>
<path fill="none" stroke="midnightblue" d="M121.729,-224.035C147.044,-203.075 197.116,-163.328 244,-136.179 346.628,-76.7508 372.074,-53.1846 488,-28.1787 684.374,14.1801 741.267,3.1899 940,-26.1787 971.984,-30.9053 1006.81,-41.4371 1033.6,-50.7713"/>
<polygon fill="midnightblue" stroke="midnightblue" points="1032.49,-54.092 1043.08,-54.1431 1034.83,-47.4962 1032.49,-54.092"/>
</g>
<!-- Node114 -->
<g id="node12" class="node"><title>Node114</title>
<g id="a_node12"><a xlink:href="../../d7/d8b/classcom_1_1github_1_1aptd_1_1simulation_1_1elements_1_1grid_1_1local_1_1CJPSPlusStatic.htm#ad1e18422fd4342e7d30c6728357ba982" target="_top" xlink:title="In order to identify individual jump point successors heading in a given direction (run recursively u...">
<polygon fill="none" stroke="black" points="244,-146.179 244,-174.179 452,-174.179 452,-146.179 244,-146.179"/>
<text text-anchor="start" x="252" y="-162.979" font-family="Helvetica,sans-Serif" font-size="9.00">com.github.aptd.simulation.elements.grid.local.</text>
<text text-anchor="middle" x="348" y="-152.979" font-family="Helvetica,sans-Serif" font-size="9.00">CJPSPlusStatic.jump</text>
</a>
</g>
</g>
<!-- Node103&#45;&gt;Node114 -->
<g id="edge13" class="edge"><title>Node103&#45;&gt;Node114</title>
<path fill="none" stroke="midnightblue" d="M148.544,-224.144C189.281,-211.014 250.225,-191.371 293.82,-177.319"/>
<polygon fill="midnightblue" stroke="midnightblue" points="294.954,-180.631 303.398,-174.232 292.806,-173.969 294.954,-180.631"/>
</g>
<!-- Node105 -->
<g id="node3" class="node"><title>Node105</title>
<g id="a_node3"><a xlink:href="../../d7/d8b/classcom_1_1github_1_1aptd_1_1simulation_1_1elements_1_1grid_1_1local_1_1CJPSPlusStatic.htm#a9309bbf0d828db1ee7cd1be7c8400d90" target="_top" xlink:title="Calculates the given node&#39;s score using the Manhattan distance formula. ">
<polygon fill="none" stroke="black" points="488,-348.179 488,-376.179 696,-376.179 696,-348.179 488,-348.179"/>
<text text-anchor="start" x="496" y="-364.979" font-family="Helvetica,sans-Serif" font-size="9.00">com.github.aptd.simulation.elements.grid.local.</text>
<text text-anchor="middle" x="592" y="-354.979" font-family="Helvetica,sans-Serif" font-size="9.00">CJPSPlusStatic.calculateScore</text>
</a>
</g>
</g>
<!-- Node104&#45;&gt;Node105 -->
<g id="edge2" class="edge"><title>Node104&#45;&gt;Node105</title>
<path fill="none" stroke="midnightblue" d="M452.332,-351.292C460.643,-351.944 469.068,-352.606 477.445,-353.263"/>
<polygon fill="midnightblue" stroke="midnightblue" points="477.385,-356.769 487.628,-354.063 477.933,-349.791 477.385,-356.769"/>
</g>
<!-- Node104&#45;&gt;Node106 -->
<g id="edge7" class="edge"><title>Node104&#45;&gt;Node106</title>
<path fill="none" stroke="midnightblue" d="M452.068,-334.06C531.028,-327.073 639.888,-317.442 721.363,-310.233"/>
<polygon fill="midnightblue" stroke="midnightblue" points="722.01,-313.69 731.662,-309.322 721.393,-306.717 722.01,-313.69"/>
</g>
<!-- Node110 -->
<g id="node8" class="node"><title>Node110</title>
<g id="a_node8"><a xlink:href="../../dc/dca/classcom_1_1github_1_1aptd_1_1simulation_1_1elements_1_1grid_1_1local_1_1CJPSPlusStatic_1_1CJumpPoint.htm#a43217e540d63c1924e7978fea72c7c6b" target="_top" xlink:title="getter for f_score ">
<polygon fill="none" stroke="black" points="488,-395.179 488,-423.179 696,-423.179 696,-395.179 488,-395.179"/>
<text text-anchor="start" x="496" y="-411.979" font-family="Helvetica,sans-Serif" font-size="9.00">com.github.aptd.simulation.elements.grid.local.</text>
<text text-anchor="middle" x="592" y="-401.979" font-family="Helvetica,sans-Serif" font-size="9.00">CJPSPlusStatic.CJumpPoint.fscore</text>
</a>
</g>
</g>
<!-- Node104&#45;&gt;Node110 -->
<g id="edge8" class="edge"><title>Node104&#45;&gt;Node110</title>
<path fill="none" stroke="midnightblue" d="M392.926,-357.244C420.173,-365.771 455.974,-376.619 488,-385.179 497.645,-387.757 507.84,-390.322 517.915,-392.765"/>
<polygon fill="midnightblue" stroke="midnightblue" points="517.387,-396.237 527.927,-395.161 519.016,-389.429 517.387,-396.237"/>
</g>
<!-- Node105&#45;&gt;Node106 -->
<g id="edge3" class="edge"><title>Node105&#45;&gt;Node106</title>
<path fill="none" stroke="midnightblue" d="M642.796,-348.139C680.817,-337.431 727.458,-324.322 732,-323.179 741.033,-320.905 750.541,-318.627 759.978,-316.436"/>
<polygon fill="midnightblue" stroke="midnightblue" points="760.802,-319.838 769.764,-314.189 759.235,-313.016 760.802,-319.838"/>
</g>
<!-- Node107 -->
<g id="node5" class="node"><title>Node107</title>
<g id="a_node5"><a xlink:href="../../dc/dca/classcom_1_1github_1_1aptd_1_1simulation_1_1elements_1_1grid_1_1local_1_1CJPSPlusStatic_1_1CJumpPoint.htm#a9acd62488cd9983e573dbc4b3d2edcff" target="_top" xlink:title="getter for g&#45;score ">
<polygon fill="none" stroke="black" points="732,-380.179 732,-408.179 940,-408.179 940,-380.179 732,-380.179"/>
<text text-anchor="start" x="740" y="-396.979" font-family="Helvetica,sans-Serif" font-size="9.00">com.github.aptd.simulation.elements.grid.local.</text>
<text text-anchor="middle" x="836" y="-386.979" font-family="Helvetica,sans-Serif" font-size="9.00">CJPSPlusStatic.CJumpPoint.gscore</text>
</a>
</g>
</g>
<!-- Node105&#45;&gt;Node107 -->
<g id="edge4" class="edge"><title>Node105&#45;&gt;Node107</title>
<path fill="none" stroke="midnightblue" d="M696.332,-375.842C704.643,-376.941 713.068,-378.055 721.445,-379.163"/>
<polygon fill="midnightblue" stroke="midnightblue" points="721.256,-382.669 731.628,-380.51 722.174,-375.729 721.256,-382.669"/>
</g>
<!-- Node108 -->
<g id="node6" class="node"><title>Node108</title>
<g id="a_node6"><a xlink:href="../../dc/dca/classcom_1_1github_1_1aptd_1_1simulation_1_1elements_1_1grid_1_1local_1_1CJPSPlusStatic_1_1CJumpPoint.htm#aab8cf0375185483d4ccecc1df9693b42" target="_top" xlink:title="setter for h_score ">
<polygon fill="none" stroke="black" points="732,-333.179 732,-361.179 940,-361.179 940,-333.179 732,-333.179"/>
<text text-anchor="start" x="740" y="-349.979" font-family="Helvetica,sans-Serif" font-size="9.00">com.github.aptd.simulation.elements.grid.local.</text>
<text text-anchor="middle" x="836" y="-339.979" font-family="Helvetica,sans-Serif" font-size="9.00">CJPSPlusStatic.CJumpPoint.hscore</text>
</a>
</g>
</g>
<!-- Node105&#45;&gt;Node108 -->
<g id="edge5" class="edge"><title>Node105&#45;&gt;Node108</title>
<path fill="none" stroke="midnightblue" d="M696.332,-355.774C704.643,-355.259 713.068,-354.737 721.445,-354.217"/>
<polygon fill="midnightblue" stroke="midnightblue" points="721.864,-357.698 731.628,-353.586 721.431,-350.712 721.864,-357.698"/>
</g>
<!-- Node109 -->
<g id="node7" class="node"><title>Node109</title>
<g id="a_node7"><a xlink:href="../../dc/dca/classcom_1_1github_1_1aptd_1_1simulation_1_1elements_1_1grid_1_1local_1_1CJPSPlusStatic_1_1CJumpPoint.htm#aae261de56e41c7452f82c54f069a17ba" target="_top" xlink:title="getter for parent ">
<polygon fill="none" stroke="black" points="732,-427.179 732,-455.179 940,-455.179 940,-427.179 732,-427.179"/>
<text text-anchor="start" x="740" y="-443.979" font-family="Helvetica,sans-Serif" font-size="9.00">com.github.aptd.simulation.elements.grid.local.</text>
<text text-anchor="middle" x="836" y="-433.979" font-family="Helvetica,sans-Serif" font-size="9.00">CJPSPlusStatic.CJumpPoint.parent</text>
</a>
</g>
</g>
<!-- Node105&#45;&gt;Node109 -->
<g id="edge6" class="edge"><title>Node105&#45;&gt;Node109</title>
<path fill="none" stroke="midnightblue" d="M671.474,-376.235C679.965,-378.989 688.306,-382.271 696,-386.179 714.826,-395.74 713.174,-407.618 732,-417.179 736.809,-419.621 741.87,-421.819 747.063,-423.796"/>
<polygon fill="midnightblue" stroke="midnightblue" points="745.931,-427.108 756.526,-427.122 748.252,-420.504 745.931,-427.108"/>
</g>
<!-- Node112 -->
<g id="node10" class="node"><title>Node112</title>
<g id="a_node10"><a xlink:href="../../d7/d8b/classcom_1_1github_1_1aptd_1_1simulation_1_1elements_1_1grid_1_1local_1_1CJPSPlusStatic.htm#ab9f83c3d5f777e91e04208ccc1ecf792" target="_top" xlink:title="To check any point is in the grid environment or out of environment. ">
<polygon fill="none" stroke="black" points="976,-148.179 976,-176.179 1184,-176.179 1184,-148.179 976,-148.179"/>
<text text-anchor="start" x="984" y="-164.979" font-family="Helvetica,sans-Serif" font-size="9.00">com.github.aptd.simulation.elements.grid.local.</text>
<text text-anchor="middle" x="1080" y="-154.979" font-family="Helvetica,sans-Serif" font-size="9.00">CJPSPlusStatic.isNotCoordinate</text>
</a>
</g>
</g>
<!-- Node111&#45;&gt;Node112 -->
<g id="edge11" class="edge"><title>Node111&#45;&gt;Node112</title>
<path fill="none" stroke="midnightblue" d="M452.115,-239.997C570.756,-240.345 770.966,-235.571 940,-205.179 971.664,-199.486 1006.23,-188.815 1032.96,-179.528"/>
<polygon fill="midnightblue" stroke="midnightblue" points="1034.18,-182.811 1042.44,-176.18 1031.85,-176.21 1034.18,-182.811"/>
</g>
<!-- Node114&#45;&gt;Node112 -->
<g id="edge22" class="edge"><title>Node114&#45;&gt;Node112</title>
<path fill="none" stroke="midnightblue" d="M420.516,-174.201C442.113,-177.843 465.946,-181.275 488,-183.179 688.147,-200.452 739.784,-201.632 940,-185.179 958.908,-183.625 979.117,-180.902 998.105,-177.86"/>
<polygon fill="midnightblue" stroke="midnightblue" points="998.911,-181.274 1008.21,-176.194 997.773,-174.367 998.911,-181.274"/>
</g>
<!-- Node114&#45;&gt;Node113 -->
<g id="edge23" class="edge"><title>Node114&#45;&gt;Node113</title>
<path fill="none" stroke="midnightblue" d="M367.638,-146.128C393.286,-127.566 441.576,-95.3425 488,-79.1787 678.286,-12.9257 739.246,-26.9747 940,-44.1787 960.038,-45.8959 981.525,-48.9813 1001.47,-52.3803"/>
<polygon fill="midnightblue" stroke="midnightblue" points="1000.98,-55.8473 1011.43,-54.1248 1002.18,-48.9522 1000.98,-55.8473"/>
</g>
<!-- Node115 -->
<g id="node13" class="node"><title>Node115</title>
<g id="a_node13"><a xlink:href="../../d7/d8b/classcom_1_1github_1_1aptd_1_1simulation_1_1elements_1_1grid_1_1local_1_1CJPSPlusStatic.htm#a638aa9e906e95397bcabd8c75a63d9a4" target="_top" xlink:title="In order to identify diagonal jump point. ">
<polygon fill="none" stroke="black" points="488,-146.179 488,-174.179 696,-174.179 696,-146.179 488,-146.179"/>
<text text-anchor="start" x="496" y="-162.979" font-family="Helvetica,sans-Serif" font-size="9.00">com.github.aptd.simulation.elements.grid.local.</text>
<text text-anchor="middle" x="592" y="-152.979" font-family="Helvetica,sans-Serif" font-size="9.00">CJPSPlusStatic.diagjump</text>
</a>
</g>
</g>
<!-- Node114&#45;&gt;Node115 -->
<g id="edge14" class="edge"><title>Node114&#45;&gt;Node115</title>
<path fill="none" stroke="midnightblue" d="M452.332,-153.493C460.643,-153.432 469.068,-153.414 477.445,-153.44"/>
<polygon fill="midnightblue" stroke="midnightblue" points="477.61,-156.941 487.628,-153.493 477.647,-149.941 477.61,-156.941"/>
</g>
<!-- Node117 -->
<g id="node15" class="node"><title>Node117</title>
<g id="a_node15"><a xlink:href="../../d7/d8b/classcom_1_1github_1_1aptd_1_1simulation_1_1elements_1_1grid_1_1local_1_1CJPSPlusStatic.htm#a7cde95cb0aed568364494cd7971e2614" target="_top" xlink:title="Helper function to identify horizontal jump point. ">
<polygon fill="none" stroke="black" points="732,-101.179 732,-129.179 940,-129.179 940,-101.179 732,-101.179"/>
<text text-anchor="start" x="740" y="-117.979" font-family="Helvetica,sans-Serif" font-size="9.00">com.github.aptd.simulation.elements.grid.local.</text>
<text text-anchor="middle" x="836" y="-107.979" font-family="Helvetica,sans-Serif" font-size="9.00">CJPSPlusStatic.horizontal</text>
</a>
</g>
</g>
<!-- Node114&#45;&gt;Node117 -->
<g id="edge19" class="edge"><title>Node114&#45;&gt;Node117</title>
<path fill="none" stroke="midnightblue" d="M421.283,-146.139C442.691,-142.404 466.229,-138.709 488,-136.179 565.693,-127.148 653.652,-121.879 721.572,-118.877"/>
<polygon fill="midnightblue" stroke="midnightblue" points="722.03,-122.361 731.869,-118.433 721.728,-115.368 722.03,-122.361"/>
</g>
<!-- Node118 -->
<g id="node16" class="node"><title>Node118</title>
<g id="a_node16"><a xlink:href="../../d7/d8b/classcom_1_1github_1_1aptd_1_1simulation_1_1elements_1_1grid_1_1local_1_1CJPSPlusStatic.htm#a1b8d82895ff1fc4e4e2cddf37a03f18f" target="_top" xlink:title="Helper function to identify vertical jump point. ">
<polygon fill="none" stroke="black" points="732,-54.1787 732,-82.1787 940,-82.1787 940,-54.1787 732,-54.1787"/>
<text text-anchor="start" x="740" y="-70.9787" font-family="Helvetica,sans-Serif" font-size="9.00">com.github.aptd.simulation.elements.grid.local.</text>
<text text-anchor="middle" x="836" y="-60.9787" font-family="Helvetica,sans-Serif" font-size="9.00">CJPSPlusStatic.vertical</text>
</a>
</g>
</g>
<!-- Node114&#45;&gt;Node118 -->
<g id="edge24" class="edge"><title>Node114&#45;&gt;Node118</title>
<path fill="none" stroke="midnightblue" d="M387.167,-146.173C414.829,-136.498 453.309,-124.01 488,-116.179 565.023,-98.792 653.174,-86.6948 721.354,-78.9939"/>
<polygon fill="midnightblue" stroke="midnightblue" points="722.14,-82.428 731.692,-77.8425 721.366,-75.471 722.14,-82.428"/>
</g>
<!-- Node115&#45;&gt;Node114 -->
<g id="edge18" class="edge"><title>Node115&#45;&gt;Node114</title>
<path fill="none" stroke="midnightblue" d="M487.628,-166.865C479.317,-166.925 470.892,-166.943 462.515,-166.917"/>
<polygon fill="midnightblue" stroke="midnightblue" points="462.35,-163.416 452.332,-166.864 462.313,-170.416 462.35,-163.416"/>
</g>
<!-- Node116 -->
<g id="node14" class="node"><title>Node116</title>
<g id="a_node14"><a xlink:href="../../d7/d8b/classcom_1_1github_1_1aptd_1_1simulation_1_1elements_1_1grid_1_1local_1_1CJPSPlusStatic.htm#aa4cfc8c2e9d3ea37e41b3de9a3e4de40" target="_top" xlink:title="Helper function to identify diagonal jump point. ">
<polygon fill="none" stroke="black" points="732,-148.179 732,-176.179 940,-176.179 940,-148.179 732,-148.179"/>
<text text-anchor="start" x="740" y="-164.979" font-family="Helvetica,sans-Serif" font-size="9.00">com.github.aptd.simulation.elements.grid.local.</text>
<text text-anchor="middle" x="836" y="-154.979" font-family="Helvetica,sans-Serif" font-size="9.00">CJPSPlusStatic.diagonal</text>
</a>
</g>
</g>
<!-- Node115&#45;&gt;Node116 -->
<g id="edge15" class="edge"><title>Node115&#45;&gt;Node116</title>
<path fill="none" stroke="midnightblue" d="M696.332,-161.033C704.643,-161.101 713.068,-161.171 721.445,-161.24"/>
<polygon fill="midnightblue" stroke="midnightblue" points="721.6,-164.742 731.628,-161.324 721.658,-157.742 721.6,-164.742"/>
</g>
<!-- Node116&#45;&gt;Node112 -->
<g id="edge16" class="edge"><title>Node116&#45;&gt;Node112</title>
<path fill="none" stroke="midnightblue" d="M940.332,-162.179C948.643,-162.179 957.068,-162.179 965.445,-162.179"/>
<polygon fill="midnightblue" stroke="midnightblue" points="965.629,-165.679 975.628,-162.179 965.628,-158.679 965.629,-165.679"/>
</g>
<!-- Node116&#45;&gt;Node113 -->
<g id="edge17" class="edge"><title>Node116&#45;&gt;Node113</title>
<path fill="none" stroke="midnightblue" d="M907.465,-148.117C918.483,-145.245 929.643,-141.933 940,-138.179 977.885,-124.447 1018.8,-102.957 1046.36,-87.409"/>
<polygon fill="midnightblue" stroke="midnightblue" points="1048.22,-90.3784 1055.18,-82.3837 1044.75,-84.2979 1048.22,-90.3784"/>
</g>
<!-- Node117&#45;&gt;Node112 -->
<g id="edge20" class="edge"><title>Node117&#45;&gt;Node112</title>
<path fill="none" stroke="midnightblue" d="M909.28,-129.217C936.814,-134.564 968.388,-140.696 996.777,-146.21"/>
<polygon fill="midnightblue" stroke="midnightblue" points="996.19,-149.661 1006.67,-148.132 997.525,-142.79 996.19,-149.661"/>
</g>
<!-- Node117&#45;&gt;Node113 -->
<g id="edge21" class="edge"><title>Node117&#45;&gt;Node113</title>
<path fill="none" stroke="midnightblue" d="M909.28,-101.141C936.814,-95.7934 968.388,-89.6613 996.777,-84.1476"/>
<polygon fill="midnightblue" stroke="midnightblue" points="997.525,-87.5679 1006.67,-82.2254 996.19,-80.6963 997.525,-87.5679"/>
</g>
<!-- Node118&#45;&gt;Node112 -->
<g id="edge25" class="edge"><title>Node118&#45;&gt;Node112</title>
<path fill="none" stroke="midnightblue" d="M910.523,-82.2016C920.544,-84.8056 930.606,-87.7925 940,-91.1787 978.248,-104.966 1019.41,-126.981 1046.93,-142.843"/>
<polygon fill="midnightblue" stroke="midnightblue" points="1045.32,-145.952 1055.72,-147.966 1048.84,-139.905 1045.32,-145.952"/>
</g>
<!-- Node118&#45;&gt;Node113 -->
<g id="edge26" class="edge"><title>Node118&#45;&gt;Node113</title>
<path fill="none" stroke="midnightblue" d="M940.332,-68.1787C948.643,-68.1787 957.068,-68.1787 965.445,-68.1787"/>
<polygon fill="midnightblue" stroke="midnightblue" points="965.629,-71.6788 975.628,-68.1787 965.628,-64.6788 965.629,-71.6788"/>
</g>
</g>
</svg>
        <g id="navigator" transform="translate(0 0)" fill="#404254">
                <rect fill="#f2f5e9" fill-opacity="0.5" stroke="#606060" stroke-width=".5" x="0" y="0" width="60" height="60"/>
                <use id="zoomplus" xlink:href="#zoomPlus" x="17" y="9" onmousedown="handleZoom(evt,'in')"/>
                <use id="zoomminus" xlink:href="#zoomMin" x="42" y="9" onmousedown="handleZoom(evt,'out')"/>
                <use id="reset" xlink:href="#resetDef" x="30" y="36" onmousedown="handleReset()"/>
                <g id="arrowUp" xlink:href="#dirArrow" transform="translate(30 24)" onmousedown="handlePan(0,-1)">
                  <use xlink:href="#rim" fill="#404040">
                        <set attributeName="fill" to="#808080" begin="arrowUp.mouseover" end="arrowUp.mouseout"/>
                  </use>
                  <path fill="none" stroke="white" stroke-width="1.5" d="M0,-3.0v7 M-2.5,-0.5L0,-3.0L2.5,-0.5"/>
                </g>
                <g id="arrowRight" xlink:href="#dirArrow" transform="rotate(90) translate(36 -43)" onmousedown="handlePan(1,0)">
                  <use xlink:href="#rim" fill="#404040">
                        <set attributeName="fill" to="#808080" begin="arrowRight.mouseover" end="arrowRight.mouseout"/>
                  </use>
                  <path fill="none" stroke="white" stroke-width="1.5" d="M0,-3.0v7 M-2.5,-0.5L0,-3.0L2.5,-0.5"/>
                </g>
                <g id="arrowDown" xlink:href="#dirArrow" transform="rotate(180) translate(-30 -48)" onmousedown="handlePan(0,1)">
                  <use xlink:href="#rim" fill="#404040">
                        <set attributeName="fill" to="#808080" begin="arrowDown.mouseover" end="arrowDown.mouseout"/>
                  </use>
                  <path fill="none" stroke="white" stroke-width="1.5" d="M0,-3.0v7 M-2.5,-0.5L0,-3.0L2.5,-0.5"/>
                </g>
                <g id="arrowLeft" xlink:href="#dirArrow" transform="rotate(270) translate(-36 17)" onmousedown="handlePan(-1,0)">
                  <use xlink:href="#rim" fill="#404040">
                        <set attributeName="fill" to="#808080" begin="arrowLeft.mouseover" end="arrowLeft.mouseout"/>
                  </use>
                  <path fill="none" stroke="white" stroke-width="1.5" d="M0,-3.0v7 M-2.5,-0.5L0,-3.0L2.5,-0.5"/>
                </g>
        </g>
        <svg viewBox="0 0 15 15" width="100%" height="30px" preserveAspectRatio="xMaxYMin meet">
         <g id="arrow_out" transform="scale(0.3 0.3)">
          <a xlink:href="classcom_1_1github_1_1aptd_1_1simulation_1_1elements_1_1grid_1_1local_1_1CJPSPlusStatic_a565a6583141d9f8a65593cfc4e20eb1f_cgraph_org.svg" target="_base">
           <rect id="button" ry="5" rx="5" y="6" x="6" height="38" width="38"
                fill="#f2f5e9" fill-opacity="0.5" stroke="#606060" stroke-width="1.0"/>
           <path id="arrow"
             d="M 11.500037,31.436501 C 11.940474,20.09759 22.043105,11.32322 32.158766,21.979434 L 37.068811,17.246167 C 37.068811,17.246167 37.088388,32 37.088388,32 L 22.160133,31.978069 C 22.160133,31.978069 26.997745,27.140456 26.997745,27.140456 C 18.528582,18.264221 13.291696,25.230495 11.500037,31.436501 z"
             style="fill:#404040;"/>
          </a>
         </g>
        </svg>
</svg>
