<?xml version="1.0" encoding="UTF-8" standalone="no"?>
<!DOCTYPE svg PUBLIC "-//W3C//DTD SVG 1.1//EN"
 "http://www.w3.org/Graphics/SVG/1.1/DTD/svg11.dtd">
<!-- Generated by graphviz version 2.36.0 (20140111.2315)
 -->
<!-- Title: com.github.aptd.simulation.elements.grid.local.CJPSPlusStatic.route Pages: 1 -->
<!--zoomable 517 -->
<svg id="main" version="1.1" xmlns="http://www.w3.org/2000/svg" xmlns:xlink="http://www.w3.org/1999/xlink" xml:space="preserve" onload="init(evt)">
<style type="text/css"><![CDATA[
.edge:hover path { stroke: red; }
.edge:hover polygon { stroke: red; fill: red; }
]]></style>
<script type="text/javascript"><![CDATA[
var edges = document.getElementsByTagName('g');
if (edges && edges.length) {
  for (var i=0;i<edges.length;i++) {
    if (edges[i].id.substr(0,4)=='edge') {
      edges[i].setAttribute('class','edge');
    }
  }
}
]]></script>
        <defs>
                <circle id="rim" cx="0" cy="0" r="7"/>
                <circle id="rim2" cx="0" cy="0" r="3.5"/>
                <g id="zoomPlus">
                        <use xlink:href="#rim" fill="#404040">
                                <set attributeName="fill" to="#808080" begin="zoomplus.mouseover" end="zoomplus.mouseout"/>
                        </use>
                        <path d="M-4,0h8M0,-4v8" fill="none" stroke="white" stroke-width="1.5" pointer-events="none"/>
                </g>
                <g id="zoomMin">
                        <use xlink:href="#rim" fill="#404040">
                                <set attributeName="fill" to="#808080" begin="zoomminus.mouseover" end="zoomminus.mouseout"/>
                        </use>
                        <path d="M-4,0h8" fill="none" stroke="white" stroke-width="1.5" pointer-events="none"/>
                </g>
                <g id="dirArrow">
                        <path fill="none" stroke="white" stroke-width="1.5" d="M0,-3.0v7 M-2.5,-0.5L0,-3.0L2.5,-0.5"/>
                </g>
               <g id="resetDef">
                       <use xlink:href="#rim2" fill="#404040">
                               <set attributeName="fill" to="#808080" begin="reset.mouseover" end="reset.mouseout"/>
                       </use>
               </g>
        </defs>

<script type="text/javascript">
var viewWidth = 1436;
var viewHeight = 517;
var sectionId = 'dynsection-18';
</script>
<script xlink:href="../../svgpan.js"/>
<svg id="graph" class="graph">
<g id="viewport">
<title>com.github.aptd.simulation.elements.grid.local.CJPSPlusStatic.route</title>
<!-- Node85 -->
<g id="node1" class="node"><title>Node85</title>
<polygon fill="#bfbfbf" stroke="black" points="0,-96 0,-124 208,-124 208,-96 0,-96"/>
<text text-anchor="start" x="8" y="-112.8" font-family="Helvetica,sans-Serif" font-size="9.00">com.github.aptd.simulation.elements.grid.local.</text>
<text text-anchor="middle" x="104" y="-102.8" font-family="Helvetica,sans-Serif" font-size="9.00">CJPSPlusStatic.route</text>
</g>
<!-- Node86 -->
<g id="node2" class="node"><title>Node86</title>
<g id="a_node2"><a xlink:href="../../dc/dca/classcom_1_1github_1_1aptd_1_1simulation_1_1elements_1_1grid_1_1local_1_1CJPSPlusStatic_1_1CJumpPoint.htm#aed5e48ef09dfd02d8c15c399e5e9541c" target="_top" xlink:title="getter for coordinate ">
<polygon fill="none" stroke="black" points="976,-141 976,-169 1184,-169 1184,-141 976,-141"/>
<text text-anchor="start" x="984" y="-157.8" font-family="Helvetica,sans-Serif" font-size="9.00">com.github.aptd.simulation.elements.grid.local.</text>
<text text-anchor="middle" x="1080" y="-147.8" font-family="Helvetica,sans-Serif" font-size="9.00">CJPSPlusStatic.CJumpPoint.coordinate</text>
</a>
</g>
</g>
<!-- Node85&#45;&gt;Node86 -->
<g id="edge1" class="edge"><title>Node85&#45;&gt;Node86</title>
<path fill="none" stroke="midnightblue" d="M208.313,-114.773C392.169,-123.268 774.72,-140.942 965.589,-149.76"/>
<polygon fill="midnightblue" stroke="midnightblue" points="965.497,-153.26 975.648,-150.225 965.82,-146.267 965.497,-153.26"/>
</g>
<!-- Node87 -->
<g id="node3" class="node"><title>Node87</title>
<g id="a_node3"><a xlink:href="../../dc/dca/classcom_1_1github_1_1aptd_1_1simulation_1_1elements_1_1grid_1_1local_1_1CJPSPlusStatic_1_1CJumpPoint.htm#aae261de56e41c7452f82c54f069a17ba" target="_top" xlink:title="getter for parent ">
<polygon fill="none" stroke="black" points="976,-0 976,-28 1184,-28 1184,-0 976,-0"/>
<text text-anchor="start" x="984" y="-16.8" font-family="Helvetica,sans-Serif" font-size="9.00">com.github.aptd.simulation.elements.grid.local.</text>
<text text-anchor="middle" x="1080" y="-6.8" font-family="Helvetica,sans-Serif" font-size="9.00">CJPSPlusStatic.CJumpPoint.parent</text>
</a>
</g>
</g>
<!-- Node85&#45;&gt;Node87 -->
<g id="edge2" class="edge"><title>Node85&#45;&gt;Node87</title>
<path fill="none" stroke="midnightblue" d="M208.109,-98.2446C332.298,-84.2565 547.277,-60.5862 732,-43 809.85,-35.5885 897.625,-28.2624 965.417,-22.8278"/>
<polygon fill="midnightblue" stroke="midnightblue" points="966.007,-26.292 975.696,-22.0061 965.449,-19.3143 966.007,-26.292"/>
</g>
<!-- Node88 -->
<g id="node4" class="node"><title>Node88</title>
<g id="a_node4"><a xlink:href="../../d7/d8b/classcom_1_1github_1_1aptd_1_1simulation_1_1elements_1_1grid_1_1local_1_1CJPSPlusStatic.htm#a565a6583141d9f8a65593cfc4e20eb1f" target="_top" xlink:title="individual jump point successors are identified ">
<polygon fill="none" stroke="black" points="244,-241 244,-269 452,-269 452,-241 244,-241"/>
<text text-anchor="start" x="252" y="-257.8" font-family="Helvetica,sans-Serif" font-size="9.00">com.github.aptd.simulation.elements.grid.local.</text>
<text text-anchor="middle" x="348" y="-247.8" font-family="Helvetica,sans-Serif" font-size="9.00">CJPSPlusStatic.successors</text>
</a>
</g>
</g>
<!-- Node85&#45;&gt;Node88 -->
<g id="edge3" class="edge"><title>Node85&#45;&gt;Node88</title>
<path fill="none" stroke="midnightblue" d="M128.645,-124.167C172.311,-150.331 265.633,-206.247 314.943,-235.792"/>
<polygon fill="midnightblue" stroke="midnightblue" points="313.239,-238.851 323.616,-240.989 316.837,-232.847 313.239,-238.851"/>
</g>
<!-- Node88&#45;&gt;Node86 -->
<g id="edge6" class="edge"><title>Node88&#45;&gt;Node86</title>
<path fill="none" stroke="midnightblue" d="M452.038,-251.96C596.146,-247.005 850.298,-235.509 940,-214 976.943,-205.142 1016.6,-187.407 1044.06,-173.683"/>
<polygon fill="midnightblue" stroke="midnightblue" points="1045.92,-176.668 1053.24,-169.017 1042.74,-170.428 1045.92,-176.668"/>
</g>
<!-- Node89 -->
<g id="node5" class="node"><title>Node89</title>
<g id="a_node5"><a xlink:href="../../d7/d8b/classcom_1_1github_1_1aptd_1_1simulation_1_1elements_1_1grid_1_1local_1_1CJPSPlusStatic.htm#a0bdcffc872a399590caeb67dc3bb332b" target="_top" xlink:title="Finds the non valid successors of any grid. ">
<polygon fill="none" stroke="black" points="488,-263 488,-291 696,-291 696,-263 488,-263"/>
<text text-anchor="start" x="496" y="-279.8" font-family="Helvetica,sans-Serif" font-size="9.00">com.github.aptd.simulation.elements.grid.local.</text>
<text text-anchor="middle" x="592" y="-269.8" font-family="Helvetica,sans-Serif" font-size="9.00">CJPSPlusStatic.isNotNeighbour</text>
</a>
</g>
</g>
<!-- Node88&#45;&gt;Node89 -->
<g id="edge4" class="edge"><title>Node88&#45;&gt;Node89</title>
<path fill="none" stroke="midnightblue" d="M452.332,-264.394C460.643,-265.149 469.068,-265.915 477.445,-266.677"/>
<polygon fill="midnightblue" stroke="midnightblue" points="477.353,-270.183 487.628,-267.603 477.986,-263.212 477.353,-270.183"/>
</g>
<!-- Node91 -->
<g id="node7" class="node"><title>Node91</title>
<g id="a_node7"><a xlink:href="../../d7/d8b/classcom_1_1github_1_1aptd_1_1simulation_1_1elements_1_1grid_1_1local_1_1CJPSPlusStatic.htm#aeb79e653e2a991567602af6d2ed17663" target="_top" xlink:title="To check any point in the grid environment is free or occupied. ">
<polygon fill="none" stroke="black" points="1220,-433 1220,-461 1428,-461 1428,-433 1220,-433"/>
<text text-anchor="start" x="1228" y="-449.8" font-family="Helvetica,sans-Serif" font-size="9.00">com.github.aptd.simulation.elements.grid.local.</text>
<text text-anchor="middle" x="1324" y="-439.8" font-family="Helvetica,sans-Serif" font-size="9.00">CJPSPlusStatic.isOccupied</text>
</a>
</g>
</g>
<!-- Node88&#45;&gt;Node91 -->
<g id="edge7" class="edge"><title>Node88&#45;&gt;Node91</title>
<path fill="none" stroke="midnightblue" d="M361.898,-269.26C385.029,-294.11 436.02,-345.682 488,-377 587.406,-436.892 618.818,-444.338 732,-470 928.108,-514.465 985.173,-520.051 1184,-490 1216.37,-485.108 1251.58,-474.151 1278.47,-464.522"/>
<polygon fill="midnightblue" stroke="midnightblue" points="1279.78,-467.767 1287.98,-461.048 1277.38,-461.192 1279.78,-467.767"/>
</g>
<!-- Node92 -->
<g id="node8" class="node"><title>Node92</title>
<g id="a_node8"><a xlink:href="../../d7/d8b/classcom_1_1github_1_1aptd_1_1simulation_1_1elements_1_1grid_1_1local_1_1CJPSPlusStatic.htm#a66e040efc22046b6de9683ea54ee9997" target="_top" xlink:title="Validated successors are added to open list. ">
<polygon fill="none" stroke="black" points="488,-158 488,-186 696,-186 696,-158 488,-158"/>
<text text-anchor="start" x="496" y="-174.8" font-family="Helvetica,sans-Serif" font-size="9.00">com.github.aptd.simulation.elements.grid.local.</text>
<text text-anchor="middle" x="592" y="-164.8" font-family="Helvetica,sans-Serif" font-size="9.00">CJPSPlusStatic.addsuccessors</text>
</a>
</g>
</g>
<!-- Node88&#45;&gt;Node92 -->
<g id="edge8" class="edge"><title>Node88&#45;&gt;Node92</title>
<path fill="none" stroke="midnightblue" d="M390.052,-240.92C431.636,-226.658 496.024,-204.574 540.661,-189.265"/>
<polygon fill="midnightblue" stroke="midnightblue" points="541.828,-192.565 550.151,-186.01 539.557,-185.944 541.828,-192.565"/>
</g>
<!-- Node97 -->
<g id="node13" class="node"><title>Node97</title>
<g id="a_node13"><a xlink:href="../../d7/d8b/classcom_1_1github_1_1aptd_1_1simulation_1_1elements_1_1grid_1_1local_1_1CJPSPlusStatic.htm#ad1e18422fd4342e7d30c6728357ba982" target="_top" xlink:title="In order to identify individual jump point successors heading in a given direction (run recursively u...">
<polygon fill="none" stroke="black" points="488,-340 488,-368 696,-368 696,-340 488,-340"/>
<text text-anchor="start" x="496" y="-356.8" font-family="Helvetica,sans-Serif" font-size="9.00">com.github.aptd.simulation.elements.grid.local.</text>
<text text-anchor="middle" x="592" y="-346.8" font-family="Helvetica,sans-Serif" font-size="9.00">CJPSPlusStatic.jump</text>
</a>
</g>
</g>
<!-- Node88&#45;&gt;Node97 -->
<g id="edge16" class="edge"><title>Node88&#45;&gt;Node97</title>
<path fill="none" stroke="midnightblue" d="M383.416,-269.079C426.51,-286.709 500.376,-316.927 547.388,-336.159"/>
<polygon fill="midnightblue" stroke="midnightblue" points="546.122,-339.422 556.703,-339.969 548.773,-332.944 546.122,-339.422"/>
</g>
<!-- Node90 -->
<g id="node6" class="node"><title>Node90</title>
<g id="a_node6"><a xlink:href="../../d7/d8b/classcom_1_1github_1_1aptd_1_1simulation_1_1elements_1_1grid_1_1local_1_1CJPSPlusStatic.htm#ab9f83c3d5f777e91e04208ccc1ecf792" target="_top" xlink:title="To check any point is in the grid environment or out of environment. ">
<polygon fill="none" stroke="black" points="1220,-339 1220,-367 1428,-367 1428,-339 1220,-339"/>
<text text-anchor="start" x="1228" y="-355.8" font-family="Helvetica,sans-Serif" font-size="9.00">com.github.aptd.simulation.elements.grid.local.</text>
<text text-anchor="middle" x="1324" y="-345.8" font-family="Helvetica,sans-Serif" font-size="9.00">CJPSPlusStatic.isNotCoordinate</text>
</a>
</g>
</g>
<!-- Node89&#45;&gt;Node90 -->
<g id="edge5" class="edge"><title>Node89&#45;&gt;Node90</title>
<path fill="none" stroke="midnightblue" d="M696.018,-276.463C814.568,-277.416 1014.7,-283.847 1184,-313 1214.17,-318.195 1247.13,-327.515 1273.38,-335.852"/>
<polygon fill="midnightblue" stroke="midnightblue" points="1272.5,-339.246 1283.1,-338.989 1274.66,-332.585 1272.5,-339.246"/>
</g>
<!-- Node92&#45;&gt;Node86 -->
<g id="edge14" class="edge"><title>Node92&#45;&gt;Node86</title>
<path fill="none" stroke="midnightblue" d="M696.231,-168.271C708.29,-167.84 720.416,-167.409 732,-167 809.928,-164.251 897.703,-161.216 965.475,-158.886"/>
<polygon fill="midnightblue" stroke="midnightblue" points="965.876,-162.375 975.75,-158.533 965.636,-155.379 965.876,-162.375"/>
</g>
<!-- Node93 -->
<g id="node9" class="node"><title>Node93</title>
<g id="a_node9"><a xlink:href="../../d7/d8b/classcom_1_1github_1_1aptd_1_1simulation_1_1elements_1_1grid_1_1local_1_1CJPSPlusStatic.htm#a9309bbf0d828db1ee7cd1be7c8400d90" target="_top" xlink:title="Calculates the given node&#39;s score using the Manhattan distance formula. ">
<polygon fill="none" stroke="black" points="732,-53 732,-81 940,-81 940,-53 732,-53"/>
<text text-anchor="start" x="740" y="-69.8" font-family="Helvetica,sans-Serif" font-size="9.00">com.github.aptd.simulation.elements.grid.local.</text>
<text text-anchor="middle" x="836" y="-59.8" font-family="Helvetica,sans-Serif" font-size="9.00">CJPSPlusStatic.calculateScore</text>
</a>
</g>
</g>
<!-- Node92&#45;&gt;Node93 -->
<g id="edge9" class="edge"><title>Node92&#45;&gt;Node93</title>
<path fill="none" stroke="midnightblue" d="M625.386,-157.948C668.643,-139.18 745.347,-105.899 793.004,-85.2215"/>
<polygon fill="midnightblue" stroke="midnightblue" points="794.639,-88.3275 802.419,-81.1363 791.852,-81.9059 794.639,-88.3275"/>
</g>
<!-- Node96 -->
<g id="node12" class="node"><title>Node96</title>
<g id="a_node12"><a xlink:href="../../dc/dca/classcom_1_1github_1_1aptd_1_1simulation_1_1elements_1_1grid_1_1local_1_1CJPSPlusStatic_1_1CJumpPoint.htm#a43217e540d63c1924e7978fea72c7c6b" target="_top" xlink:title="getter for f_score ">
<polygon fill="none" stroke="black" points="732,-177 732,-205 940,-205 940,-177 732,-177"/>
<text text-anchor="start" x="740" y="-193.8" font-family="Helvetica,sans-Serif" font-size="9.00">com.github.aptd.simulation.elements.grid.local.</text>
<text text-anchor="middle" x="836" y="-183.8" font-family="Helvetica,sans-Serif" font-size="9.00">CJPSPlusStatic.CJumpPoint.fscore</text>
</a>
</g>
</g>
<!-- Node92&#45;&gt;Node96 -->
<g id="edge15" class="edge"><title>Node92&#45;&gt;Node96</title>
<path fill="none" stroke="midnightblue" d="M696.332,-180.113C704.643,-180.765 713.068,-181.427 721.445,-182.085"/>
<polygon fill="midnightblue" stroke="midnightblue" points="721.385,-185.591 731.628,-182.884 721.933,-178.612 721.385,-185.591"/>
</g>
<!-- Node93&#45;&gt;Node86 -->
<g id="edge10" class="edge"><title>Node93&#45;&gt;Node86</title>
<path fill="none" stroke="midnightblue" d="M905.166,-81.0048C917.204,-84.9098 929.297,-89.8308 940,-96 959.334,-107.144 956.418,-120.299 976,-131 980.257,-133.326 984.733,-135.428 989.336,-137.327"/>
<polygon fill="midnightblue" stroke="midnightblue" points="988.345,-140.694 998.937,-140.946 990.814,-134.144 988.345,-140.694"/>
</g>
<!-- Node93&#45;&gt;Node87 -->
<g id="edge13" class="edge"><title>Node93&#45;&gt;Node87</title>
<path fill="none" stroke="midnightblue" d="M901.216,-52.9361C933.068,-45.9603 971.709,-37.4977 1004.82,-30.2462"/>
<polygon fill="midnightblue" stroke="midnightblue" points="1005.88,-33.596 1014.9,-28.0376 1004.39,-26.758 1005.88,-33.596"/>
</g>
<!-- Node94 -->
<g id="node10" class="node"><title>Node94</title>
<g id="a_node10"><a xlink:href="../../dc/dca/classcom_1_1github_1_1aptd_1_1simulation_1_1elements_1_1grid_1_1local_1_1CJPSPlusStatic_1_1CJumpPoint.htm#a9acd62488cd9983e573dbc4b3d2edcff" target="_top" xlink:title="getter for g&#45;score ">
<polygon fill="none" stroke="black" points="976,-47 976,-75 1184,-75 1184,-47 976,-47"/>
<text text-anchor="start" x="984" y="-63.8" font-family="Helvetica,sans-Serif" font-size="9.00">com.github.aptd.simulation.elements.grid.local.</text>
<text text-anchor="middle" x="1080" y="-53.8" font-family="Helvetica,sans-Serif" font-size="9.00">CJPSPlusStatic.CJumpPoint.gscore</text>
</a>
</g>
</g>
<!-- Node93&#45;&gt;Node94 -->
<g id="edge11" class="edge"><title>Node93&#45;&gt;Node94</title>
<path fill="none" stroke="midnightblue" d="M940.332,-64.4381C948.643,-64.232 957.068,-64.0231 965.445,-63.8154"/>
<polygon fill="midnightblue" stroke="midnightblue" points="965.718,-67.3098 975.628,-63.5629 965.545,-60.312 965.718,-67.3098"/>
</g>
<!-- Node95 -->
<g id="node11" class="node"><title>Node95</title>
<g id="a_node11"><a xlink:href="../../dc/dca/classcom_1_1github_1_1aptd_1_1simulation_1_1elements_1_1grid_1_1local_1_1CJPSPlusStatic_1_1CJumpPoint.htm#aab8cf0375185483d4ccecc1df9693b42" target="_top" xlink:title="setter for h_score ">
<polygon fill="none" stroke="black" points="976,-94 976,-122 1184,-122 1184,-94 976,-94"/>
<text text-anchor="start" x="984" y="-110.8" font-family="Helvetica,sans-Serif" font-size="9.00">com.github.aptd.simulation.elements.grid.local.</text>
<text text-anchor="middle" x="1080" y="-100.8" font-family="Helvetica,sans-Serif" font-size="9.00">CJPSPlusStatic.CJumpPoint.hscore</text>
</a>
</g>
</g>
<!-- Node93&#45;&gt;Node95 -->
<g id="edge12" class="edge"><title>Node93&#45;&gt;Node95</title>
<path fill="none" stroke="midnightblue" d="M919.944,-81.0525C941.302,-84.6709 964.42,-88.5877 986.241,-92.2846"/>
<polygon fill="midnightblue" stroke="midnightblue" points="985.72,-95.7462 996.164,-93.9659 986.889,-88.8445 985.72,-95.7462"/>
</g>
<!-- Node97&#45;&gt;Node90 -->
<g id="edge25" class="edge"><title>Node97&#45;&gt;Node90</title>
<path fill="none" stroke="midnightblue" d="M660.928,-339.939C683.443,-335.904 708.703,-332.045 732,-330 932.12,-312.437 983.844,-311.847 1184,-329 1204.04,-330.717 1225.52,-333.803 1245.47,-337.202"/>
<polygon fill="midnightblue" stroke="midnightblue" points="1244.98,-340.669 1255.43,-338.946 1246.18,-333.773 1244.98,-340.669"/>
</g>
<!-- Node97&#45;&gt;Node91 -->
<g id="edge26" class="edge"><title>Node97&#45;&gt;Node91</title>
<path fill="none" stroke="midnightblue" d="M613.132,-368.126C639.266,-385.743 686.883,-415.436 732,-431 922.612,-496.755 983.042,-486.514 1184,-470 1202.91,-468.446 1223.12,-465.723 1242.1,-462.681"/>
<polygon fill="midnightblue" stroke="midnightblue" points="1242.91,-466.095 1252.21,-461.015 1241.77,-459.189 1242.91,-466.095"/>
</g>
<!-- Node98 -->
<g id="node14" class="node"><title>Node98</title>
<g id="a_node14"><a xlink:href="../../d7/d8b/classcom_1_1github_1_1aptd_1_1simulation_1_1elements_1_1grid_1_1local_1_1CJPSPlusStatic.htm#a638aa9e906e95397bcabd8c75a63d9a4" target="_top" xlink:title="In order to identify diagonal jump point. ">
<polygon fill="none" stroke="black" points="732,-340 732,-368 940,-368 940,-340 732,-340"/>
<text text-anchor="start" x="740" y="-356.8" font-family="Helvetica,sans-Serif" font-size="9.00">com.github.aptd.simulation.elements.grid.local.</text>
<text text-anchor="middle" x="836" y="-346.8" font-family="Helvetica,sans-Serif" font-size="9.00">CJPSPlusStatic.diagjump</text>
</a>
</g>
</g>
<!-- Node97&#45;&gt;Node98 -->
<g id="edge17" class="edge"><title>Node97&#45;&gt;Node98</title>
<path fill="none" stroke="midnightblue" d="M696.332,-347.314C704.643,-347.253 713.068,-347.236 721.445,-347.261"/>
<polygon fill="midnightblue" stroke="midnightblue" points="721.61,-350.762 731.628,-347.314 721.647,-343.762 721.61,-350.762"/>
</g>
<!-- Node100 -->
<g id="node16" class="node"><title>Node100</title>
<g id="a_node16"><a xlink:href="../../d7/d8b/classcom_1_1github_1_1aptd_1_1simulation_1_1elements_1_1grid_1_1local_1_1CJPSPlusStatic.htm#a7cde95cb0aed568364494cd7971e2614" target="_top" xlink:title="Helper function to identify horizontal jump point. ">
<polygon fill="none" stroke="black" points="976,-433 976,-461 1184,-461 1184,-433 976,-433"/>
<text text-anchor="start" x="984" y="-449.8" font-family="Helvetica,sans-Serif" font-size="9.00">com.github.aptd.simulation.elements.grid.local.</text>
<text text-anchor="middle" x="1080" y="-439.8" font-family="Helvetica,sans-Serif" font-size="9.00">CJPSPlusStatic.horizontal</text>
</a>
</g>
</g>
<!-- Node97&#45;&gt;Node100 -->
<g id="edge22" class="edge"><title>Node97&#45;&gt;Node100</title>
<path fill="none" stroke="midnightblue" d="M629.348,-368.084C657.088,-378.328 696.46,-391.787 732,-400 809.045,-417.805 897.379,-429.65 965.641,-436.995"/>
<polygon fill="midnightblue" stroke="midnightblue" points="965.678,-440.519 975.991,-438.091 966.415,-433.558 965.678,-440.519"/>
</g>
<!-- Node101 -->
<g id="node17" class="node"><title>Node101</title>
<g id="a_node17"><a xlink:href="../../d7/d8b/classcom_1_1github_1_1aptd_1_1simulation_1_1elements_1_1grid_1_1local_1_1CJPSPlusStatic.htm#a1b8d82895ff1fc4e4e2cddf37a03f18f" target="_top" xlink:title="Helper function to identify vertical jump point. ">
<polygon fill="none" stroke="black" points="976,-386 976,-414 1184,-414 1184,-386 976,-386"/>
<text text-anchor="start" x="984" y="-402.8" font-family="Helvetica,sans-Serif" font-size="9.00">com.github.aptd.simulation.elements.grid.local.</text>
<text text-anchor="middle" x="1080" y="-392.8" font-family="Helvetica,sans-Serif" font-size="9.00">CJPSPlusStatic.vertical</text>
</a>
</g>
</g>
<!-- Node97&#45;&gt;Node101 -->
<g id="edge27" class="edge"><title>Node97&#45;&gt;Node101</title>
<path fill="none" stroke="midnightblue" d="M669.283,-368.001C689.608,-371.353 711.589,-374.641 732,-377 809.727,-385.985 897.686,-391.767 965.597,-395.287"/>
<polygon fill="midnightblue" stroke="midnightblue" points="965.728,-398.798 975.893,-395.811 966.084,-391.807 965.728,-398.798"/>
</g>
<!-- Node98&#45;&gt;Node97 -->
<g id="edge21" class="edge"><title>Node98&#45;&gt;Node97</title>
<path fill="none" stroke="midnightblue" d="M731.628,-360.686C723.317,-360.747 714.892,-360.764 706.515,-360.739"/>
<polygon fill="midnightblue" stroke="midnightblue" points="706.35,-357.238 696.332,-360.686 706.313,-364.238 706.35,-357.238"/>
</g>
<!-- Node99 -->
<g id="node15" class="node"><title>Node99</title>
<g id="a_node15"><a xlink:href="../../d7/d8b/classcom_1_1github_1_1aptd_1_1simulation_1_1elements_1_1grid_1_1local_1_1CJPSPlusStatic.htm#aa4cfc8c2e9d3ea37e41b3de9a3e4de40" target="_top" xlink:title="Helper function to identify diagonal jump point. ">
<polygon fill="none" stroke="black" points="976,-339 976,-367 1184,-367 1184,-339 976,-339"/>
<text text-anchor="start" x="984" y="-355.8" font-family="Helvetica,sans-Serif" font-size="9.00">com.github.aptd.simulation.elements.grid.local.</text>
<text text-anchor="middle" x="1080" y="-345.8" font-family="Helvetica,sans-Serif" font-size="9.00">CJPSPlusStatic.diagonal</text>
</a>
</g>
</g>
<!-- Node98&#45;&gt;Node99 -->
<g id="edge18" class="edge"><title>Node98&#45;&gt;Node99</title>
<path fill="none" stroke="midnightblue" d="M940.332,-353.573C948.643,-353.539 957.068,-353.504 965.445,-353.469"/>
<polygon fill="midnightblue" stroke="midnightblue" points="965.643,-356.969 975.628,-353.427 965.614,-349.969 965.643,-356.969"/>
</g>
<!-- Node99&#45;&gt;Node90 -->
<g id="edge19" class="edge"><title>Node99&#45;&gt;Node90</title>
<path fill="none" stroke="midnightblue" d="M1184.33,-353C1192.64,-353 1201.07,-353 1209.44,-353"/>
<polygon fill="midnightblue" stroke="midnightblue" points="1209.63,-356.5 1219.63,-353 1209.63,-349.5 1209.63,-356.5"/>
</g>
<!-- Node99&#45;&gt;Node91 -->
<g id="edge20" class="edge"><title>Node99&#45;&gt;Node91</title>
<path fill="none" stroke="midnightblue" d="M1154.52,-367.023C1164.54,-369.627 1174.61,-372.614 1184,-376 1222.25,-389.787 1263.41,-411.802 1290.93,-427.664"/>
<polygon fill="midnightblue" stroke="midnightblue" points="1289.32,-430.774 1299.72,-432.787 1292.84,-424.726 1289.32,-430.774"/>
</g>
<!-- Node100&#45;&gt;Node90 -->
<g id="edge23" class="edge"><title>Node100&#45;&gt;Node90</title>
<path fill="none" stroke="midnightblue" d="M1151.46,-432.939C1162.48,-430.067 1173.64,-426.754 1184,-423 1221.88,-409.269 1262.8,-387.778 1290.36,-372.23"/>
<polygon fill="midnightblue" stroke="midnightblue" points="1292.22,-375.2 1299.18,-367.205 1288.75,-369.119 1292.22,-375.2"/>
</g>
<!-- Node100&#45;&gt;Node91 -->
<g id="edge24" class="edge"><title>Node100&#45;&gt;Node91</title>
<path fill="none" stroke="midnightblue" d="M1184.33,-447C1192.64,-447 1201.07,-447 1209.44,-447"/>
<polygon fill="midnightblue" stroke="midnightblue" points="1209.63,-450.5 1219.63,-447 1209.63,-443.5 1209.63,-450.5"/>
</g>
<!-- Node101&#45;&gt;Node90 -->
<g id="edge28" class="edge"><title>Node101&#45;&gt;Node90</title>
<path fill="none" stroke="midnightblue" d="M1153.28,-385.962C1180.81,-380.615 1212.39,-374.483 1240.78,-368.969"/>
<polygon fill="midnightblue" stroke="midnightblue" points="1241.53,-372.389 1250.67,-367.047 1240.19,-365.518 1241.53,-372.389"/>
</g>
<!-- Node101&#45;&gt;Node91 -->
<g id="edge29" class="edge"><title>Node101&#45;&gt;Node91</title>
<path fill="none" stroke="midnightblue" d="M1153.28,-414.038C1180.81,-419.385 1212.39,-425.517 1240.78,-431.031"/>
<polygon fill="midnightblue" stroke="midnightblue" points="1240.19,-434.482 1250.67,-432.953 1241.53,-427.611 1240.19,-434.482"/>
</g>
</g>
</svg>
        <g id="navigator" transform="translate(0 0)" fill="#404254">
                <rect fill="#f2f5e9" fill-opacity="0.5" stroke="#606060" stroke-width=".5" x="0" y="0" width="60" height="60"/>
                <use id="zoomplus" xlink:href="#zoomPlus" x="17" y="9" onmousedown="handleZoom(evt,'in')"/>
                <use id="zoomminus" xlink:href="#zoomMin" x="42" y="9" onmousedown="handleZoom(evt,'out')"/>
                <use id="reset" xlink:href="#resetDef" x="30" y="36" onmousedown="handleReset()"/>
                <g id="arrowUp" xlink:href="#dirArrow" transform="translate(30 24)" onmousedown="handlePan(0,-1)">
                  <use xlink:href="#rim" fill="#404040">
                        <set attributeName="fill" to="#808080" begin="arrowUp.mouseover" end="arrowUp.mouseout"/>
                  </use>
                  <path fill="none" stroke="white" stroke-width="1.5" d="M0,-3.0v7 M-2.5,-0.5L0,-3.0L2.5,-0.5"/>
                </g>
                <g id="arrowRight" xlink:href="#dirArrow" transform="rotate(90) translate(36 -43)" onmousedown="handlePan(1,0)">
                  <use xlink:href="#rim" fill="#404040">
                        <set attributeName="fill" to="#808080" begin="arrowRight.mouseover" end="arrowRight.mouseout"/>
                  </use>
                  <path fill="none" stroke="white" stroke-width="1.5" d="M0,-3.0v7 M-2.5,-0.5L0,-3.0L2.5,-0.5"/>
                </g>
                <g id="arrowDown" xlink:href="#dirArrow" transform="rotate(180) translate(-30 -48)" onmousedown="handlePan(0,1)">
                  <use xlink:href="#rim" fill="#404040">
                        <set attributeName="fill" to="#808080" begin="arrowDown.mouseover" end="arrowDown.mouseout"/>
                  </use>
                  <path fill="none" stroke="white" stroke-width="1.5" d="M0,-3.0v7 M-2.5,-0.5L0,-3.0L2.5,-0.5"/>
                </g>
                <g id="arrowLeft" xlink:href="#dirArrow" transform="rotate(270) translate(-36 17)" onmousedown="handlePan(-1,0)">
                  <use xlink:href="#rim" fill="#404040">
                        <set attributeName="fill" to="#808080" begin="arrowLeft.mouseover" end="arrowLeft.mouseout"/>
                  </use>
                  <path fill="none" stroke="white" stroke-width="1.5" d="M0,-3.0v7 M-2.5,-0.5L0,-3.0L2.5,-0.5"/>
                </g>
        </g>
        <svg viewBox="0 0 15 15" width="100%" height="30px" preserveAspectRatio="xMaxYMin meet">
         <g id="arrow_out" transform="scale(0.3 0.3)">
          <a xlink:href="classcom_1_1github_1_1aptd_1_1simulation_1_1elements_1_1grid_1_1local_1_1CJPSPlusStatic_a1cf62f3003bceb8d8648c600c31ef837_cgraph_org.svg" target="_base">
           <rect id="button" ry="5" rx="5" y="6" x="6" height="38" width="38"
                fill="#f2f5e9" fill-opacity="0.5" stroke="#606060" stroke-width="1.0"/>
           <path id="arrow"
             d="M 11.500037,31.436501 C 11.940474,20.09759 22.043105,11.32322 32.158766,21.979434 L 37.068811,17.246167 C 37.068811,17.246167 37.088388,32 37.088388,32 L 22.160133,31.978069 C 22.160133,31.978069 26.997745,27.140456 26.997745,27.140456 C 18.528582,18.264221 13.291696,25.230495 11.500037,31.436501 z"
             style="fill:#404040;"/>
          </a>
         </g>
        </svg>
</svg>
