<?xml version="1.0" encoding="UTF-8" standalone="no"?>
<!DOCTYPE svg PUBLIC "-//W3C//DTD SVG 1.1//EN"
 "http://www.w3.org/Graphics/SVG/1.1/DTD/svg11.dtd">
<!-- Generated by graphviz version 2.36.0 (20140111.2315)
 -->
<!-- Title: com.github.aptd.simulation.elements.grid.local.CJPSPlusStatic.addsuccessors Pages: 1 -->
<svg width="704pt" height="177pt"
 viewBox="0.00 0.00 704.00 177.00" xmlns="http://www.w3.org/2000/svg" xmlns:xlink="http://www.w3.org/1999/xlink">
<g id="graph0" class="graph" transform="scale(1 1) rotate(0) translate(4 173)">
<title>com.github.aptd.simulation.elements.grid.local.CJPSPlusStatic.addsuccessors</title>
<!-- Node0 -->
<g id="node1" class="node"><title>Node0</title>
<polygon fill="#bfbfbf" stroke="black" points="0,-94 0,-122 208,-122 208,-94 0,-94"/>
<text text-anchor="start" x="8" y="-110.8" font-family="Helvetica,sans-Serif" font-size="9.00">com.github.aptd.simulation.elements.grid.local.</text>
<text text-anchor="middle" x="104" y="-100.8" font-family="Helvetica,sans-Serif" font-size="9.00">CJPSPlusStatic.addsuccessors</text>
</g>
<!-- Node1 -->
<g id="node2" class="node"><title>Node1</title>
<g id="a_node2"><a xlink:href="../../d7/d8b/classcom_1_1github_1_1aptd_1_1simulation_1_1elements_1_1grid_1_1local_1_1CJPSPlusStatic.htm#a9309bbf0d828db1ee7cd1be7c8400d90" target="_top" xlink:title="Calculates the given node&#39;s score using the Manhattan distance formula. ">
<polygon fill="none" stroke="black" points="244,-94 244,-122 452,-122 452,-94 244,-94"/>
<text text-anchor="start" x="252" y="-110.8" font-family="Helvetica,sans-Serif" font-size="9.00">com.github.aptd.simulation.elements.grid.local.</text>
<text text-anchor="middle" x="348" y="-100.8" font-family="Helvetica,sans-Serif" font-size="9.00">CJPSPlusStatic.calculateScore</text>
</a>
</g>
</g>
<!-- Node0&#45;&gt;Node1 -->
<g id="edge1" class="edge"><title>Node0&#45;&gt;Node1</title>
<path fill="none" stroke="midnightblue" d="M208.332,-108C216.643,-108 225.068,-108 233.445,-108"/>
<polygon fill="midnightblue" stroke="midnightblue" points="233.629,-111.5 243.628,-108 233.628,-104.5 233.629,-111.5"/>
</g>
<!-- Node2 -->
<g id="node3" class="node"><title>Node2</title>
<g id="a_node3"><a xlink:href="../../dc/dca/classcom_1_1github_1_1aptd_1_1simulation_1_1elements_1_1grid_1_1local_1_1CJPSPlusStatic_1_1CJumpPoint.htm#aed5e48ef09dfd02d8c15c399e5e9541c" target="_top" xlink:title="getter for coordinate ">
<polygon fill="none" stroke="black" points="488,-141 488,-169 696,-169 696,-141 488,-141"/>
<text text-anchor="start" x="496" y="-157.8" font-family="Helvetica,sans-Serif" font-size="9.00">com.github.aptd.simulation.elements.grid.local.</text>
<text text-anchor="middle" x="592" y="-147.8" font-family="Helvetica,sans-Serif" font-size="9.00">CJPSPlusStatic.CJumpPoint.coordinate</text>
</a>
</g>
</g>
<!-- Node0&#45;&gt;Node2 -->
<g id="edge6" class="edge"><title>Node0&#45;&gt;Node2</title>
<path fill="none" stroke="midnightblue" d="M181.651,-122.021C201.874,-125.353 223.714,-128.626 244,-131 321.729,-140.098 409.688,-146.135 477.598,-149.879"/>
<polygon fill="midnightblue" stroke="midnightblue" points="477.719,-153.391 487.894,-150.437 478.099,-146.401 477.719,-153.391"/>
</g>
<!-- Node6 -->
<g id="node7" class="node"><title>Node6</title>
<g id="a_node7"><a xlink:href="../../dc/dca/classcom_1_1github_1_1aptd_1_1simulation_1_1elements_1_1grid_1_1local_1_1CJPSPlusStatic_1_1CJumpPoint.htm#a43217e540d63c1924e7978fea72c7c6b" target="_top" xlink:title="getter for f_score ">
<polygon fill="none" stroke="black" points="244,-47 244,-75 452,-75 452,-47 244,-47"/>
<text text-anchor="start" x="252" y="-63.8" font-family="Helvetica,sans-Serif" font-size="9.00">com.github.aptd.simulation.elements.grid.local.</text>
<text text-anchor="middle" x="348" y="-53.8" font-family="Helvetica,sans-Serif" font-size="9.00">CJPSPlusStatic.CJumpPoint.fscore</text>
</a>
</g>
</g>
<!-- Node0&#45;&gt;Node6 -->
<g id="edge7" class="edge"><title>Node0&#45;&gt;Node6</title>
<path fill="none" stroke="midnightblue" d="M177.28,-93.9621C204.814,-88.6147 236.388,-82.4825 264.777,-76.9689"/>
<polygon fill="midnightblue" stroke="midnightblue" points="265.525,-80.3891 274.674,-75.0467 264.19,-73.5175 265.525,-80.3891"/>
</g>
<!-- Node1&#45;&gt;Node2 -->
<g id="edge2" class="edge"><title>Node1&#45;&gt;Node2</title>
<path fill="none" stroke="midnightblue" d="M421.28,-122.038C448.814,-127.385 480.388,-133.517 508.777,-139.031"/>
<polygon fill="midnightblue" stroke="midnightblue" points="508.19,-142.482 518.674,-140.953 509.525,-135.611 508.19,-142.482"/>
</g>
<!-- Node3 -->
<g id="node4" class="node"><title>Node3</title>
<g id="a_node4"><a xlink:href="../../dc/dca/classcom_1_1github_1_1aptd_1_1simulation_1_1elements_1_1grid_1_1local_1_1CJPSPlusStatic_1_1CJumpPoint.htm#aab8cf0375185483d4ccecc1df9693b42" target="_top" xlink:title="setter for h_score ">
<polygon fill="none" stroke="black" points="488,-94 488,-122 696,-122 696,-94 488,-94"/>
<text text-anchor="start" x="496" y="-110.8" font-family="Helvetica,sans-Serif" font-size="9.00">com.github.aptd.simulation.elements.grid.local.</text>
<text text-anchor="middle" x="592" y="-100.8" font-family="Helvetica,sans-Serif" font-size="9.00">CJPSPlusStatic.CJumpPoint.hscore</text>
</a>
</g>
</g>
<!-- Node1&#45;&gt;Node3 -->
<g id="edge3" class="edge"><title>Node1&#45;&gt;Node3</title>
<path fill="none" stroke="midnightblue" d="M452.332,-108C460.643,-108 469.068,-108 477.445,-108"/>
<polygon fill="midnightblue" stroke="midnightblue" points="477.629,-111.5 487.628,-108 477.628,-104.5 477.629,-111.5"/>
</g>
<!-- Node4 -->
<g id="node5" class="node"><title>Node4</title>
<g id="a_node5"><a xlink:href="../../dc/dca/classcom_1_1github_1_1aptd_1_1simulation_1_1elements_1_1grid_1_1local_1_1CJPSPlusStatic_1_1CJumpPoint.htm#aae261de56e41c7452f82c54f069a17ba" target="_top" xlink:title="getter for parent ">
<polygon fill="none" stroke="black" points="488,-47 488,-75 696,-75 696,-47 488,-47"/>
<text text-anchor="start" x="496" y="-63.8" font-family="Helvetica,sans-Serif" font-size="9.00">com.github.aptd.simulation.elements.grid.local.</text>
<text text-anchor="middle" x="592" y="-53.8" font-family="Helvetica,sans-Serif" font-size="9.00">CJPSPlusStatic.CJumpPoint.parent</text>
</a>
</g>
</g>
<!-- Node1&#45;&gt;Node4 -->
<g id="edge4" class="edge"><title>Node1&#45;&gt;Node4</title>
<path fill="none" stroke="midnightblue" d="M421.28,-93.9621C448.814,-88.6147 480.388,-82.4825 508.777,-76.9689"/>
<polygon fill="midnightblue" stroke="midnightblue" points="509.525,-80.3891 518.674,-75.0467 508.19,-73.5175 509.525,-80.3891"/>
</g>
<!-- Node5 -->
<g id="node6" class="node"><title>Node5</title>
<g id="a_node6"><a xlink:href="../../dc/dca/classcom_1_1github_1_1aptd_1_1simulation_1_1elements_1_1grid_1_1local_1_1CJPSPlusStatic_1_1CJumpPoint.htm#a9acd62488cd9983e573dbc4b3d2edcff" target="_top" xlink:title="getter for g&#45;score ">
<polygon fill="none" stroke="black" points="488,-0 488,-28 696,-28 696,-0 488,-0"/>
<text text-anchor="start" x="496" y="-16.8" font-family="Helvetica,sans-Serif" font-size="9.00">com.github.aptd.simulation.elements.grid.local.</text>
<text text-anchor="middle" x="592" y="-6.8" font-family="Helvetica,sans-Serif" font-size="9.00">CJPSPlusStatic.CJumpPoint.gscore</text>
</a>
</g>
</g>
<!-- Node1&#45;&gt;Node5 -->
<g id="edge5" class="edge"><title>Node1&#45;&gt;Node5</title>
<path fill="none" stroke="midnightblue" d="M432.325,-93.9751C439.24,-91.2225 445.906,-87.9323 452,-84 474.109,-69.7336 465.825,-51.1642 488,-37 490.655,-35.304 493.418,-33.7321 496.263,-32.2752"/>
<polygon fill="midnightblue" stroke="midnightblue" points="497.958,-35.3486 505.593,-28.0029 495.044,-28.9842 497.958,-35.3486"/>
</g>
</g>
</svg>
