<?xml version="1.0" encoding="UTF-8" standalone="no"?>
<!DOCTYPE svg PUBLIC "-//W3C//DTD SVG 1.1//EN"
 "http://www.w3.org/Graphics/SVG/1.1/DTD/svg11.dtd">
<!-- Generated by graphviz version 2.36.0 (20140111.2315)
 -->
<!-- Title: com.github.aptd.simulation.elements.grid.local.CJPSPlusStatic.jump Pages: 1 -->
<svg width="948pt" height="181pt"
 viewBox="0.00 0.00 948.00 181.02" xmlns="http://www.w3.org/2000/svg" xmlns:xlink="http://www.w3.org/1999/xlink">
<g id="graph0" class="graph" transform="scale(1 1) rotate(0) translate(4 177.024)">
<title>com.github.aptd.simulation.elements.grid.local.CJPSPlusStatic.jump</title>
<!-- Node74 -->
<g id="node1" class="node"><title>Node74</title>
<polygon fill="#bfbfbf" stroke="black" points="0,-90.3865 0,-118.387 208,-118.387 208,-90.3865 0,-90.3865"/>
<text text-anchor="start" x="8" y="-107.187" font-family="Helvetica,sans-Serif" font-size="9.00">com.github.aptd.simulation.elements.grid.local.</text>
<text text-anchor="middle" x="104" y="-97.1865" font-family="Helvetica,sans-Serif" font-size="9.00">CJPSPlusStatic.jump</text>
</g>
<!-- Node75 -->
<g id="node2" class="node"><title>Node75</title>
<g id="a_node2"><a xlink:href="../../d7/d8b/classcom_1_1github_1_1aptd_1_1simulation_1_1elements_1_1grid_1_1local_1_1CJPSPlusStatic.htm#a638aa9e906e95397bcabd8c75a63d9a4" target="_top" xlink:title="In order to identify diagonal jump point. ">
<polygon fill="none" stroke="black" points="244,-112.387 244,-140.387 452,-140.387 452,-112.387 244,-112.387"/>
<text text-anchor="start" x="252" y="-129.187" font-family="Helvetica,sans-Serif" font-size="9.00">com.github.aptd.simulation.elements.grid.local.</text>
<text text-anchor="middle" x="348" y="-119.187" font-family="Helvetica,sans-Serif" font-size="9.00">CJPSPlusStatic.diagjump</text>
</a>
</g>
</g>
<!-- Node74&#45;&gt;Node75 -->
<g id="edge1" class="edge"><title>Node74&#45;&gt;Node75</title>
<path fill="none" stroke="midnightblue" d="M208.332,-107.095C223.362,-108.351 238.765,-109.782 253.584,-111.303"/>
<polygon fill="midnightblue" stroke="midnightblue" points="253.428,-114.805 263.738,-112.368 254.158,-107.844 253.428,-114.805"/>
</g>
<!-- Node77 -->
<g id="node4" class="node"><title>Node77</title>
<g id="a_node4"><a xlink:href="../../d7/d8b/classcom_1_1github_1_1aptd_1_1simulation_1_1elements_1_1grid_1_1local_1_1CJPSPlusStatic.htm#ab9f83c3d5f777e91e04208ccc1ecf792" target="_top" xlink:title="To check any point is in the grid environment or out of environment. ">
<polygon fill="none" stroke="black" points="732,-104.387 732,-132.387 940,-132.387 940,-104.387 732,-104.387"/>
<text text-anchor="start" x="740" y="-121.187" font-family="Helvetica,sans-Serif" font-size="9.00">com.github.aptd.simulation.elements.grid.local.</text>
<text text-anchor="middle" x="836" y="-111.187" font-family="Helvetica,sans-Serif" font-size="9.00">CJPSPlusStatic.isNotCoordinate</text>
</a>
</g>
</g>
<!-- Node74&#45;&gt;Node77 -->
<g id="edge9" class="edge"><title>Node74&#45;&gt;Node77</title>
<path fill="none" stroke="midnightblue" d="M138.852,-118.478C166.571,-129.247 207.093,-143.251 244,-149.387 442.177,-182.333 496.629,-178.101 696,-153.387 724.561,-149.846 755.684,-142.362 781.225,-135.219"/>
<polygon fill="midnightblue" stroke="midnightblue" points="782.429,-138.515 791.083,-132.403 780.506,-131.785 782.429,-138.515"/>
</g>
<!-- Node78 -->
<g id="node5" class="node"><title>Node78</title>
<g id="a_node5"><a xlink:href="../../d7/d8b/classcom_1_1github_1_1aptd_1_1simulation_1_1elements_1_1grid_1_1local_1_1CJPSPlusStatic.htm#aeb79e653e2a991567602af6d2ed17663" target="_top" xlink:title="To check any point in the grid environment is free or occupied. ">
<polygon fill="none" stroke="black" points="732,-34.3865 732,-62.3865 940,-62.3865 940,-34.3865 732,-34.3865"/>
<text text-anchor="start" x="740" y="-51.1865" font-family="Helvetica,sans-Serif" font-size="9.00">com.github.aptd.simulation.elements.grid.local.</text>
<text text-anchor="middle" x="836" y="-41.1865" font-family="Helvetica,sans-Serif" font-size="9.00">CJPSPlusStatic.isOccupied</text>
</a>
</g>
</g>
<!-- Node74&#45;&gt;Node78 -->
<g id="edge10" class="edge"><title>Node74&#45;&gt;Node78</title>
<path fill="none" stroke="midnightblue" d="M137.867,-90.3623C165.689,-78.9705 206.853,-63.2312 244,-53.3865 438.982,-1.7118 495.904,13.1047 696,-12.3865 725.035,-16.0854 756.676,-23.9642 782.425,-31.4106"/>
<polygon fill="midnightblue" stroke="midnightblue" points="781.765,-34.8653 792.347,-34.3424 783.749,-28.1522 781.765,-34.8653"/>
</g>
<!-- Node79 -->
<g id="node6" class="node"><title>Node79</title>
<g id="a_node6"><a xlink:href="../../d7/d8b/classcom_1_1github_1_1aptd_1_1simulation_1_1elements_1_1grid_1_1local_1_1CJPSPlusStatic.htm#a7cde95cb0aed568364494cd7971e2614" target="_top" xlink:title="Helper function to identify horizontal jump point. ">
<polygon fill="none" stroke="black" points="488,-69.3865 488,-97.3865 696,-97.3865 696,-69.3865 488,-69.3865"/>
<text text-anchor="start" x="496" y="-86.1865" font-family="Helvetica,sans-Serif" font-size="9.00">com.github.aptd.simulation.elements.grid.local.</text>
<text text-anchor="middle" x="592" y="-76.1865" font-family="Helvetica,sans-Serif" font-size="9.00">CJPSPlusStatic.horizontal</text>
</a>
</g>
</g>
<!-- Node74&#45;&gt;Node79 -->
<g id="edge6" class="edge"><title>Node74&#45;&gt;Node79</title>
<path fill="none" stroke="midnightblue" d="M208.068,-99.933C287.028,-96.5211 395.888,-91.8173 477.363,-88.2968"/>
<polygon fill="midnightblue" stroke="midnightblue" points="477.823,-91.7803 487.662,-87.8517 477.521,-84.7868 477.823,-91.7803"/>
</g>
<!-- Node80 -->
<g id="node7" class="node"><title>Node80</title>
<g id="a_node7"><a xlink:href="../../d7/d8b/classcom_1_1github_1_1aptd_1_1simulation_1_1elements_1_1grid_1_1local_1_1CJPSPlusStatic.htm#a1b8d82895ff1fc4e4e2cddf37a03f18f" target="_top" xlink:title="Helper function to identify vertical jump point. ">
<polygon fill="none" stroke="black" points="488,-22.3865 488,-50.3865 696,-50.3865 696,-22.3865 488,-22.3865"/>
<text text-anchor="start" x="496" y="-39.1865" font-family="Helvetica,sans-Serif" font-size="9.00">com.github.aptd.simulation.elements.grid.local.</text>
<text text-anchor="middle" x="592" y="-29.1865" font-family="Helvetica,sans-Serif" font-size="9.00">CJPSPlusStatic.vertical</text>
</a>
</g>
</g>
<!-- Node74&#45;&gt;Node80 -->
<g id="edge11" class="edge"><title>Node74&#45;&gt;Node80</title>
<path fill="none" stroke="midnightblue" d="M205.11,-90.3793C285.349,-79.1525 397.825,-63.4151 480.653,-51.826"/>
<polygon fill="midnightblue" stroke="midnightblue" points="481.184,-55.2859 490.603,-50.4339 480.214,-48.3534 481.184,-55.2859"/>
</g>
<!-- Node75&#45;&gt;Node74 -->
<g id="edge5" class="edge"><title>Node75&#45;&gt;Node74</title>
<path fill="none" stroke="midnightblue" d="M243.89,-123.697C228.809,-122.438 213.349,-121.002 198.475,-119.477"/>
<polygon fill="midnightblue" stroke="midnightblue" points="198.593,-115.97 188.283,-118.407 197.863,-122.932 198.593,-115.97"/>
</g>
<!-- Node76 -->
<g id="node3" class="node"><title>Node76</title>
<g id="a_node3"><a xlink:href="../../d7/d8b/classcom_1_1github_1_1aptd_1_1simulation_1_1elements_1_1grid_1_1local_1_1CJPSPlusStatic.htm#aa4cfc8c2e9d3ea37e41b3de9a3e4de40" target="_top" xlink:title="Helper function to identify diagonal jump point. ">
<polygon fill="none" stroke="black" points="488,-116.387 488,-144.387 696,-144.387 696,-116.387 488,-116.387"/>
<text text-anchor="start" x="496" y="-133.187" font-family="Helvetica,sans-Serif" font-size="9.00">com.github.aptd.simulation.elements.grid.local.</text>
<text text-anchor="middle" x="592" y="-123.187" font-family="Helvetica,sans-Serif" font-size="9.00">CJPSPlusStatic.diagonal</text>
</a>
</g>
</g>
<!-- Node75&#45;&gt;Node76 -->
<g id="edge2" class="edge"><title>Node75&#45;&gt;Node76</title>
<path fill="none" stroke="midnightblue" d="M452.332,-128.094C460.643,-128.232 469.068,-128.371 477.445,-128.51"/>
<polygon fill="midnightblue" stroke="midnightblue" points="477.572,-132.012 487.628,-128.678 477.688,-125.013 477.572,-132.012"/>
</g>
<!-- Node76&#45;&gt;Node77 -->
<g id="edge3" class="edge"><title>Node76&#45;&gt;Node77</title>
<path fill="none" stroke="midnightblue" d="M696.332,-125.263C704.643,-124.851 713.068,-124.433 721.445,-124.017"/>
<polygon fill="midnightblue" stroke="midnightblue" points="721.814,-127.503 731.628,-123.512 721.467,-120.512 721.814,-127.503"/>
</g>
<!-- Node76&#45;&gt;Node78 -->
<g id="edge4" class="edge"><title>Node76&#45;&gt;Node78</title>
<path fill="none" stroke="midnightblue" d="M660.484,-116.363C672.411,-113.402 684.642,-110.051 696,-106.387 730.615,-95.2176 768.652,-79.0623 796.172,-66.637"/>
<polygon fill="midnightblue" stroke="midnightblue" points="797.796,-69.7432 805.444,-62.4118 794.893,-63.3733 797.796,-69.7432"/>
</g>
<!-- Node79&#45;&gt;Node77 -->
<g id="edge7" class="edge"><title>Node79&#45;&gt;Node77</title>
<path fill="none" stroke="midnightblue" d="M690.036,-97.4207C702.487,-99.2215 715.291,-101.073 727.891,-102.896"/>
<polygon fill="midnightblue" stroke="midnightblue" points="727.544,-106.382 737.942,-104.349 728.546,-99.4538 727.544,-106.382"/>
</g>
<!-- Node79&#45;&gt;Node78 -->
<g id="edge8" class="edge"><title>Node79&#45;&gt;Node78</title>
<path fill="none" stroke="midnightblue" d="M690.036,-69.3524C702.487,-67.5516 715.291,-65.6998 727.891,-63.8775"/>
<polygon fill="midnightblue" stroke="midnightblue" points="728.546,-67.3193 737.942,-62.4239 727.544,-60.3914 728.546,-67.3193"/>
</g>
<!-- Node80&#45;&gt;Node77 -->
<g id="edge12" class="edge"><title>Node80&#45;&gt;Node77</title>
<path fill="none" stroke="midnightblue" d="M663.823,-50.4159C674.687,-53.0806 685.707,-56.0831 696,-59.3865 731.057,-70.6376 769.483,-87.3007 797.031,-100.052"/>
<polygon fill="midnightblue" stroke="midnightblue" points="795.756,-103.319 806.298,-104.383 798.721,-96.9781 795.756,-103.319"/>
</g>
<!-- Node80&#45;&gt;Node78 -->
<g id="edge13" class="edge"><title>Node80&#45;&gt;Node78</title>
<path fill="none" stroke="midnightblue" d="M696.332,-41.5104C704.643,-41.9225 713.068,-42.3403 721.445,-42.7557"/>
<polygon fill="midnightblue" stroke="midnightblue" points="721.467,-46.261 731.628,-43.2607 721.814,-39.2696 721.467,-46.261"/>
</g>
</g>
</svg>
