<?xml version="1.0" encoding="UTF-8" standalone="no"?>
<!DOCTYPE svg PUBLIC "-//W3C//DTD SVG 1.1//EN"
 "http://www.w3.org/Graphics/SVG/1.1/DTD/svg11.dtd">
<!-- Generated by graphviz version 2.36.0 (20140111.2315)
 -->
<!-- Title: com.github.aptd.simulation.elements.grid.local.CJPSPlusStatic.isNotCoordinate Pages: 1 -->
<svg width="1436pt" height="216pt"
 viewBox="0.00 0.00 1436.00 216.00" xmlns="http://www.w3.org/2000/svg" xmlns:xlink="http://www.w3.org/1999/xlink">
<g id="graph0" class="graph" transform="scale(1 1) rotate(0) translate(4 212)">
<title>com.github.aptd.simulation.elements.grid.local.CJPSPlusStatic.isNotCoordinate</title>
<!-- Node51 -->
<g id="node1" class="node"><title>Node51</title>
<polygon fill="#bfbfbf" stroke="black" points="0,-90 0,-118 208,-118 208,-90 0,-90"/>
<text text-anchor="start" x="8" y="-106.8" font-family="Helvetica,sans-Serif" font-size="9.00">com.github.aptd.simulation.elements.grid.local.</text>
<text text-anchor="middle" x="104" y="-96.8" font-family="Helvetica,sans-Serif" font-size="9.00">CJPSPlusStatic.isNotCoordinate</text>
</g>
<!-- Node52 -->
<g id="node2" class="node"><title>Node52</title>
<g id="a_node2"><a xlink:href="../../d7/d8b/classcom_1_1github_1_1aptd_1_1simulation_1_1elements_1_1grid_1_1local_1_1CJPSPlusStatic.htm#aa4cfc8c2e9d3ea37e41b3de9a3e4de40" target="_top" xlink:title="Helper function to identify diagonal jump point. ">
<polygon fill="none" stroke="black" points="244,-133 244,-161 452,-161 452,-133 244,-133"/>
<text text-anchor="start" x="252" y="-149.8" font-family="Helvetica,sans-Serif" font-size="9.00">com.github.aptd.simulation.elements.grid.local.</text>
<text text-anchor="middle" x="348" y="-139.8" font-family="Helvetica,sans-Serif" font-size="9.00">CJPSPlusStatic.diagonal</text>
</a>
</g>
</g>
<!-- Node51&#45;&gt;Node52 -->
<g id="edge1" class="edge"><title>Node51&#45;&gt;Node52</title>
<path fill="none" stroke="midnightblue" d="M193.856,-119.788C218.215,-124.117 244.449,-128.778 268.202,-132.999"/>
<polygon fill="midnightblue" stroke="midnightblue" points="194.363,-116.324 183.905,-118.02 193.138,-123.216 194.363,-116.324"/>
</g>
<!-- Node54 -->
<g id="node4" class="node"><title>Node54</title>
<g id="a_node4"><a xlink:href="../../d7/d8b/classcom_1_1github_1_1aptd_1_1simulation_1_1elements_1_1grid_1_1local_1_1CJPSPlusStatic.htm#ad1e18422fd4342e7d30c6728357ba982" target="_top" xlink:title="In order to identify individual jump point successors heading in a given direction (run recursively u...">
<polygon fill="none" stroke="black" points="732,-111 732,-139 940,-139 940,-111 732,-111"/>
<text text-anchor="start" x="740" y="-127.8" font-family="Helvetica,sans-Serif" font-size="9.00">com.github.aptd.simulation.elements.grid.local.</text>
<text text-anchor="middle" x="836" y="-117.8" font-family="Helvetica,sans-Serif" font-size="9.00">CJPSPlusStatic.jump</text>
</a>
</g>
</g>
<!-- Node51&#45;&gt;Node54 -->
<g id="edge11" class="edge"><title>Node51&#45;&gt;Node54</title>
<path fill="none" stroke="midnightblue" d="M218.407,-107.262C358.92,-111.305 596.32,-118.134 731.892,-122.034"/>
<polygon fill="midnightblue" stroke="midnightblue" points="218.139,-103.753 208.043,-106.964 217.938,-110.75 218.139,-103.753"/>
</g>
<!-- Node57 -->
<g id="node7" class="node"><title>Node57</title>
<g id="a_node7"><a xlink:href="../../d7/d8b/classcom_1_1github_1_1aptd_1_1simulation_1_1elements_1_1grid_1_1local_1_1CJPSPlusStatic.htm#a7cde95cb0aed568364494cd7971e2614" target="_top" xlink:title="Helper function to identify horizontal jump point. ">
<polygon fill="none" stroke="black" points="488,-47 488,-75 696,-75 696,-47 488,-47"/>
<text text-anchor="start" x="496" y="-63.8" font-family="Helvetica,sans-Serif" font-size="9.00">com.github.aptd.simulation.elements.grid.local.</text>
<text text-anchor="middle" x="592" y="-53.8" font-family="Helvetica,sans-Serif" font-size="9.00">CJPSPlusStatic.horizontal</text>
</a>
</g>
</g>
<!-- Node51&#45;&gt;Node57 -->
<g id="edge7" class="edge"><title>Node51&#45;&gt;Node57</title>
<path fill="none" stroke="midnightblue" d="M218.393,-92.4185C227.057,-91.5828 235.668,-90.7677 244,-90 325.869,-82.4566 418.685,-74.7435 487.711,-69.1699"/>
<polygon fill="midnightblue" stroke="midnightblue" points="217.828,-88.9569 208.213,-93.4075 218.505,-95.9241 217.828,-88.9569"/>
</g>
<!-- Node58 -->
<g id="node8" class="node"><title>Node58</title>
<g id="a_node8"><a xlink:href="../../d7/d8b/classcom_1_1github_1_1aptd_1_1simulation_1_1elements_1_1grid_1_1local_1_1CJPSPlusStatic.htm#a0bdcffc872a399590caeb67dc3bb332b" target="_top" xlink:title="Finds the non valid successors of any grid. ">
<polygon fill="none" stroke="black" points="488,-0 488,-28 696,-28 696,-0 488,-0"/>
<text text-anchor="start" x="496" y="-16.8" font-family="Helvetica,sans-Serif" font-size="9.00">com.github.aptd.simulation.elements.grid.local.</text>
<text text-anchor="middle" x="592" y="-6.8" font-family="Helvetica,sans-Serif" font-size="9.00">CJPSPlusStatic.isNotNeighbour</text>
</a>
</g>
</g>
<!-- Node51&#45;&gt;Node58 -->
<g id="edge9" class="edge"><title>Node51&#45;&gt;Node58</title>
<path fill="none" stroke="midnightblue" d="M165.99,-87.3873C190.168,-81.1313 218.287,-74.264 244,-69 325.417,-52.3321 418.463,-37.8268 487.696,-27.9036"/>
<polygon fill="midnightblue" stroke="midnightblue" points="165.029,-84.0207 156.237,-89.9325 166.797,-90.7938 165.029,-84.0207"/>
</g>
<!-- Node59 -->
<g id="node9" class="node"><title>Node59</title>
<g id="a_node9"><a xlink:href="../../d7/d8b/classcom_1_1github_1_1aptd_1_1simulation_1_1elements_1_1grid_1_1local_1_1CJPSPlusStatic.htm#a1b8d82895ff1fc4e4e2cddf37a03f18f" target="_top" xlink:title="Helper function to identify vertical jump point. ">
<polygon fill="none" stroke="black" points="244,-180 244,-208 452,-208 452,-180 244,-180"/>
<text text-anchor="start" x="252" y="-196.8" font-family="Helvetica,sans-Serif" font-size="9.00">com.github.aptd.simulation.elements.grid.local.</text>
<text text-anchor="middle" x="348" y="-186.8" font-family="Helvetica,sans-Serif" font-size="9.00">CJPSPlusStatic.vertical</text>
</a>
</g>
</g>
<!-- Node51&#45;&gt;Node59 -->
<g id="edge12" class="edge"><title>Node51&#45;&gt;Node59</title>
<path fill="none" stroke="midnightblue" d="M139.29,-122.827C166.903,-137.358 207.068,-157.097 244,-170 254.66,-173.724 266.143,-177.044 277.438,-179.939"/>
<polygon fill="midnightblue" stroke="midnightblue" points="140.902,-119.72 130.429,-118.116 137.616,-125.901 140.902,-119.72"/>
</g>
<!-- Node53 -->
<g id="node3" class="node"><title>Node53</title>
<g id="a_node3"><a xlink:href="../../d7/d8b/classcom_1_1github_1_1aptd_1_1simulation_1_1elements_1_1grid_1_1local_1_1CJPSPlusStatic.htm#a638aa9e906e95397bcabd8c75a63d9a4" target="_top" xlink:title="In order to identify diagonal jump point. ">
<polygon fill="none" stroke="black" points="488,-133 488,-161 696,-161 696,-133 488,-133"/>
<text text-anchor="start" x="496" y="-149.8" font-family="Helvetica,sans-Serif" font-size="9.00">com.github.aptd.simulation.elements.grid.local.</text>
<text text-anchor="middle" x="592" y="-139.8" font-family="Helvetica,sans-Serif" font-size="9.00">CJPSPlusStatic.diagjump</text>
</a>
</g>
</g>
<!-- Node52&#45;&gt;Node53 -->
<g id="edge2" class="edge"><title>Node52&#45;&gt;Node53</title>
<path fill="none" stroke="midnightblue" d="M462.515,-147C470.892,-147 479.317,-147 487.628,-147"/>
<polygon fill="midnightblue" stroke="midnightblue" points="462.332,-143.5 452.332,-147 462.332,-150.5 462.332,-143.5"/>
</g>
<!-- Node53&#45;&gt;Node54 -->
<g id="edge3" class="edge"><title>Node53&#45;&gt;Node54</title>
<path fill="none" stroke="midnightblue" d="M686.475,-131.91C701.349,-130.385 716.809,-128.949 731.89,-127.69"/>
<polygon fill="midnightblue" stroke="midnightblue" points="685.863,-128.455 676.283,-132.979 686.593,-135.417 685.863,-128.455"/>
</g>
<!-- Node54&#45;&gt;Node53 -->
<g id="edge6" class="edge"><title>Node54&#45;&gt;Node53</title>
<path fill="none" stroke="midnightblue" d="M741.584,-140.084C726.765,-141.604 711.362,-143.036 696.332,-144.292"/>
<polygon fill="midnightblue" stroke="midnightblue" points="742.158,-143.543 751.738,-139.019 741.428,-136.581 742.158,-143.543"/>
</g>
<!-- Node55 -->
<g id="node5" class="node"><title>Node55</title>
<g id="a_node5"><a xlink:href="../../d7/d8b/classcom_1_1github_1_1aptd_1_1simulation_1_1elements_1_1grid_1_1local_1_1CJPSPlusStatic.htm#a565a6583141d9f8a65593cfc4e20eb1f" target="_top" xlink:title="individual jump point successors are identified ">
<polygon fill="none" stroke="black" points="976,-78 976,-106 1184,-106 1184,-78 976,-78"/>
<text text-anchor="start" x="984" y="-94.8" font-family="Helvetica,sans-Serif" font-size="9.00">com.github.aptd.simulation.elements.grid.local.</text>
<text text-anchor="middle" x="1080" y="-84.8" font-family="Helvetica,sans-Serif" font-size="9.00">CJPSPlusStatic.successors</text>
</a>
</g>
</g>
<!-- Node54&#45;&gt;Node55 -->
<g id="edge4" class="edge"><title>Node54&#45;&gt;Node55</title>
<path fill="none" stroke="midnightblue" d="M950.122,-109.574C958.791,-108.392 967.514,-107.203 976.112,-106.03"/>
<polygon fill="midnightblue" stroke="midnightblue" points="949.416,-106.138 939.981,-110.957 950.362,-113.074 949.416,-106.138"/>
</g>
<!-- Node56 -->
<g id="node6" class="node"><title>Node56</title>
<g id="a_node6"><a xlink:href="../../d7/d8b/classcom_1_1github_1_1aptd_1_1simulation_1_1elements_1_1grid_1_1local_1_1CJPSPlusStatic.htm#a1cf62f3003bceb8d8648c600c31ef837" target="_top" xlink:title="routing algorithm ">
<polygon fill="none" stroke="black" points="1220,-78 1220,-106 1428,-106 1428,-78 1220,-78"/>
<text text-anchor="start" x="1228" y="-94.8" font-family="Helvetica,sans-Serif" font-size="9.00">com.github.aptd.simulation.elements.grid.local.</text>
<text text-anchor="middle" x="1324" y="-84.8" font-family="Helvetica,sans-Serif" font-size="9.00">CJPSPlusStatic.route</text>
</a>
</g>
</g>
<!-- Node55&#45;&gt;Node56 -->
<g id="edge5" class="edge"><title>Node55&#45;&gt;Node56</title>
<path fill="none" stroke="midnightblue" d="M1194.52,-92C1202.89,-92 1211.32,-92 1219.63,-92"/>
<polygon fill="midnightblue" stroke="midnightblue" points="1194.33,-88.5001 1184.33,-92 1194.33,-95.5001 1194.33,-88.5001"/>
</g>
<!-- Node57&#45;&gt;Node54 -->
<g id="edge8" class="edge"><title>Node57&#45;&gt;Node54</title>
<path fill="none" stroke="midnightblue" d="M655.823,-77.6144C694.997,-87.9744 744.847,-101.158 782.016,-110.988"/>
<polygon fill="midnightblue" stroke="midnightblue" points="656.67,-74.2182 646.108,-75.0451 654.881,-80.9855 656.67,-74.2182"/>
</g>
<!-- Node58&#45;&gt;Node55 -->
<g id="edge10" class="edge"><title>Node58&#45;&gt;Node55</title>
<path fill="none" stroke="midnightblue" d="M690.434,-29.6376C778.398,-43.7552 906.663,-64.341 991.435,-77.9464"/>
<polygon fill="midnightblue" stroke="midnightblue" points="690.877,-26.1639 680.448,-28.0349 689.767,-33.0754 690.877,-26.1639"/>
</g>
<!-- Node59&#45;&gt;Node54 -->
<g id="edge13" class="edge"><title>Node59&#45;&gt;Node54</title>
<path fill="none" stroke="midnightblue" d="M462.68,-193.108C530.872,-190.85 619.023,-184.89 696,-170 732.11,-163.015 771.908,-149.506 799.631,-139.104"/>
<polygon fill="midnightblue" stroke="midnightblue" points="462.228,-189.62 452.341,-193.427 462.444,-196.616 462.228,-189.62"/>
</g>
</g>
</svg>
