<?xml version="1.0" encoding="UTF-8" standalone="no"?>
<!DOCTYPE svg PUBLIC "-//W3C//DTD SVG 1.1//EN"
 "http://www.w3.org/Graphics/SVG/1.1/DTD/svg11.dtd">
<!-- Generated by graphviz version 2.36.0 (20140111.2315)
 -->
<!-- Title: com.github.aptd.simulation.elements.grid.local.CJPSPlusStatic.calculateScore Pages: 1 -->
<svg width="460pt" height="177pt"
 viewBox="0.00 0.00 460.00 177.00" xmlns="http://www.w3.org/2000/svg" xmlns:xlink="http://www.w3.org/1999/xlink">
<g id="graph0" class="graph" transform="scale(1 1) rotate(0) translate(4 173)">
<title>com.github.aptd.simulation.elements.grid.local.CJPSPlusStatic.calculateScore</title>
<!-- Node10 -->
<g id="node1" class="node"><title>Node10</title>
<polygon fill="#bfbfbf" stroke="black" points="0,-70 0,-98 208,-98 208,-70 0,-70"/>
<text text-anchor="start" x="8" y="-86.8" font-family="Helvetica,sans-Serif" font-size="9.00">com.github.aptd.simulation.elements.grid.local.</text>
<text text-anchor="middle" x="104" y="-76.8" font-family="Helvetica,sans-Serif" font-size="9.00">CJPSPlusStatic.calculateScore</text>
</g>
<!-- Node11 -->
<g id="node2" class="node"><title>Node11</title>
<g id="a_node2"><a xlink:href="../../dc/dca/classcom_1_1github_1_1aptd_1_1simulation_1_1elements_1_1grid_1_1local_1_1CJPSPlusStatic_1_1CJumpPoint.htm#aed5e48ef09dfd02d8c15c399e5e9541c" target="_top" xlink:title="getter for coordinate ">
<polygon fill="none" stroke="black" points="244,-141 244,-169 452,-169 452,-141 244,-141"/>
<text text-anchor="start" x="252" y="-157.8" font-family="Helvetica,sans-Serif" font-size="9.00">com.github.aptd.simulation.elements.grid.local.</text>
<text text-anchor="middle" x="348" y="-147.8" font-family="Helvetica,sans-Serif" font-size="9.00">CJPSPlusStatic.CJumpPoint.coordinate</text>
</a>
</g>
</g>
<!-- Node10&#45;&gt;Node11 -->
<g id="edge1" class="edge"><title>Node10&#45;&gt;Node11</title>
<path fill="none" stroke="midnightblue" d="M143.331,-98.0811C171.071,-107.996 209.578,-121.195 244,-131 253.174,-133.613 262.867,-136.154 272.49,-138.545"/>
<polygon fill="midnightblue" stroke="midnightblue" points="271.923,-142.009 282.468,-140.978 273.582,-135.208 271.923,-142.009"/>
</g>
<!-- Node12 -->
<g id="node3" class="node"><title>Node12</title>
<g id="a_node3"><a xlink:href="../../dc/dca/classcom_1_1github_1_1aptd_1_1simulation_1_1elements_1_1grid_1_1local_1_1CJPSPlusStatic_1_1CJumpPoint.htm#a9acd62488cd9983e573dbc4b3d2edcff" target="_top" xlink:title="getter for g&#45;score ">
<polygon fill="none" stroke="black" points="244,-94 244,-122 452,-122 452,-94 244,-94"/>
<text text-anchor="start" x="252" y="-110.8" font-family="Helvetica,sans-Serif" font-size="9.00">com.github.aptd.simulation.elements.grid.local.</text>
<text text-anchor="middle" x="348" y="-100.8" font-family="Helvetica,sans-Serif" font-size="9.00">CJPSPlusStatic.CJumpPoint.gscore</text>
</a>
</g>
</g>
<!-- Node10&#45;&gt;Node12 -->
<g id="edge2" class="edge"><title>Node10&#45;&gt;Node12</title>
<path fill="none" stroke="midnightblue" d="M208.332,-94.2478C216.643,-95.072 225.068,-95.9075 233.445,-96.7383"/>
<polygon fill="midnightblue" stroke="midnightblue" points="233.332,-100.244 243.628,-97.7483 234.023,-93.2784 233.332,-100.244"/>
</g>
<!-- Node13 -->
<g id="node4" class="node"><title>Node13</title>
<g id="a_node4"><a xlink:href="../../dc/dca/classcom_1_1github_1_1aptd_1_1simulation_1_1elements_1_1grid_1_1local_1_1CJPSPlusStatic_1_1CJumpPoint.htm#aab8cf0375185483d4ccecc1df9693b42" target="_top" xlink:title="setter for h_score ">
<polygon fill="none" stroke="black" points="244,-47 244,-75 452,-75 452,-47 244,-47"/>
<text text-anchor="start" x="252" y="-63.8" font-family="Helvetica,sans-Serif" font-size="9.00">com.github.aptd.simulation.elements.grid.local.</text>
<text text-anchor="middle" x="348" y="-53.8" font-family="Helvetica,sans-Serif" font-size="9.00">CJPSPlusStatic.CJumpPoint.hscore</text>
</a>
</g>
</g>
<!-- Node10&#45;&gt;Node13 -->
<g id="edge3" class="edge"><title>Node10&#45;&gt;Node13</title>
<path fill="none" stroke="midnightblue" d="M208.332,-74.1792C216.643,-73.3893 225.068,-72.5886 233.445,-71.7924"/>
<polygon fill="midnightblue" stroke="midnightblue" points="234.005,-75.2551 243.628,-70.8246 233.342,-68.2865 234.005,-75.2551"/>
</g>
<!-- Node14 -->
<g id="node5" class="node"><title>Node14</title>
<g id="a_node5"><a xlink:href="../../dc/dca/classcom_1_1github_1_1aptd_1_1simulation_1_1elements_1_1grid_1_1local_1_1CJPSPlusStatic_1_1CJumpPoint.htm#aae261de56e41c7452f82c54f069a17ba" target="_top" xlink:title="getter for parent ">
<polygon fill="none" stroke="black" points="244,-0 244,-28 452,-28 452,-0 244,-0"/>
<text text-anchor="start" x="252" y="-16.8" font-family="Helvetica,sans-Serif" font-size="9.00">com.github.aptd.simulation.elements.grid.local.</text>
<text text-anchor="middle" x="348" y="-6.8" font-family="Helvetica,sans-Serif" font-size="9.00">CJPSPlusStatic.CJumpPoint.parent</text>
</a>
</g>
</g>
<!-- Node10&#45;&gt;Node14 -->
<g id="edge4" class="edge"><title>Node10&#45;&gt;Node14</title>
<path fill="none" stroke="midnightblue" d="M144.25,-69.9539C171.932,-60.3083 209.988,-47.5692 244,-38 253.346,-35.3707 263.225,-32.8036 273.018,-30.3853"/>
<polygon fill="midnightblue" stroke="midnightblue" points="273.868,-33.7807 282.76,-28.0198 272.216,-26.9783 273.868,-33.7807"/>
</g>
</g>
</svg>
