<?xml version="1.0" encoding="UTF-8" standalone="no"?>
<!DOCTYPE svg PUBLIC "-//W3C//DTD SVG 1.1//EN"
 "http://www.w3.org/Graphics/SVG/1.1/DTD/svg11.dtd">
<!-- Generated by graphviz version 2.36.0 (20140111.2315)
 -->
<!-- Title: com.github.aptd.simulation.elements.grid.local.CJPSPlusStatic.calculateScore Pages: 1 -->
<svg width="948pt" height="36pt"
 viewBox="0.00 0.00 948.00 36.00" xmlns="http://www.w3.org/2000/svg" xmlns:xlink="http://www.w3.org/1999/xlink">
<g id="graph0" class="graph" transform="scale(1 1) rotate(0) translate(4 32)">
<title>com.github.aptd.simulation.elements.grid.local.CJPSPlusStatic.calculateScore</title>
<!-- Node15 -->
<g id="node1" class="node"><title>Node15</title>
<polygon fill="#bfbfbf" stroke="black" points="0,-0 0,-28 208,-28 208,-0 0,-0"/>
<text text-anchor="start" x="8" y="-16.8" font-family="Helvetica,sans-Serif" font-size="9.00">com.github.aptd.simulation.elements.grid.local.</text>
<text text-anchor="middle" x="104" y="-6.8" font-family="Helvetica,sans-Serif" font-size="9.00">CJPSPlusStatic.calculateScore</text>
</g>
<!-- Node16 -->
<g id="node2" class="node"><title>Node16</title>
<g id="a_node2"><a xlink:href="../../d7/d8b/classcom_1_1github_1_1aptd_1_1simulation_1_1elements_1_1grid_1_1local_1_1CJPSPlusStatic.htm#a66e040efc22046b6de9683ea54ee9997" target="_top" xlink:title="Validated successors are added to open list. ">
<polygon fill="none" stroke="black" points="244,-0 244,-28 452,-28 452,-0 244,-0"/>
<text text-anchor="start" x="252" y="-16.8" font-family="Helvetica,sans-Serif" font-size="9.00">com.github.aptd.simulation.elements.grid.local.</text>
<text text-anchor="middle" x="348" y="-6.8" font-family="Helvetica,sans-Serif" font-size="9.00">CJPSPlusStatic.addsuccessors</text>
</a>
</g>
</g>
<!-- Node15&#45;&gt;Node16 -->
<g id="edge1" class="edge"><title>Node15&#45;&gt;Node16</title>
<path fill="none" stroke="midnightblue" d="M218.515,-14C226.892,-14 235.317,-14 243.628,-14"/>
<polygon fill="midnightblue" stroke="midnightblue" points="218.332,-10.5001 208.332,-14 218.332,-17.5001 218.332,-10.5001"/>
</g>
<!-- Node17 -->
<g id="node3" class="node"><title>Node17</title>
<g id="a_node3"><a xlink:href="../../d7/d8b/classcom_1_1github_1_1aptd_1_1simulation_1_1elements_1_1grid_1_1local_1_1CJPSPlusStatic.htm#a565a6583141d9f8a65593cfc4e20eb1f" target="_top" xlink:title="individual jump point successors are identified ">
<polygon fill="none" stroke="black" points="488,-0 488,-28 696,-28 696,-0 488,-0"/>
<text text-anchor="start" x="496" y="-16.8" font-family="Helvetica,sans-Serif" font-size="9.00">com.github.aptd.simulation.elements.grid.local.</text>
<text text-anchor="middle" x="592" y="-6.8" font-family="Helvetica,sans-Serif" font-size="9.00">CJPSPlusStatic.successors</text>
</a>
</g>
</g>
<!-- Node16&#45;&gt;Node17 -->
<g id="edge2" class="edge"><title>Node16&#45;&gt;Node17</title>
<path fill="none" stroke="midnightblue" d="M462.515,-14C470.892,-14 479.317,-14 487.628,-14"/>
<polygon fill="midnightblue" stroke="midnightblue" points="462.332,-10.5001 452.332,-14 462.332,-17.5001 462.332,-10.5001"/>
</g>
<!-- Node18 -->
<g id="node4" class="node"><title>Node18</title>
<g id="a_node4"><a xlink:href="../../d7/d8b/classcom_1_1github_1_1aptd_1_1simulation_1_1elements_1_1grid_1_1local_1_1CJPSPlusStatic.htm#a1cf62f3003bceb8d8648c600c31ef837" target="_top" xlink:title="routing algorithm ">
<polygon fill="none" stroke="black" points="732,-0 732,-28 940,-28 940,-0 732,-0"/>
<text text-anchor="start" x="740" y="-16.8" font-family="Helvetica,sans-Serif" font-size="9.00">com.github.aptd.simulation.elements.grid.local.</text>
<text text-anchor="middle" x="836" y="-6.8" font-family="Helvetica,sans-Serif" font-size="9.00">CJPSPlusStatic.route</text>
</a>
</g>
</g>
<!-- Node17&#45;&gt;Node18 -->
<g id="edge3" class="edge"><title>Node17&#45;&gt;Node18</title>
<path fill="none" stroke="midnightblue" d="M706.515,-14C714.892,-14 723.317,-14 731.628,-14"/>
<polygon fill="midnightblue" stroke="midnightblue" points="706.332,-10.5001 696.332,-14 706.332,-17.5001 706.332,-10.5001"/>
</g>
</g>
</svg>
