<?xml version="1.0" encoding="UTF-8" standalone="no"?>
<!DOCTYPE svg PUBLIC "-//W3C//DTD SVG 1.1//EN"
 "http://www.w3.org/Graphics/SVG/1.1/DTD/svg11.dtd">
<!-- Generated by graphviz version 2.36.0 (20140111.2315)
 -->
<!-- Title: com.github.aptd.simulation.elements.graph.network.IStation&lt; T extends IStation&lt;?&gt; Pages: 1 -->
<svg width="266pt" height="348pt"
 viewBox="0.00 0.00 266.00 348.00" xmlns="http://www.w3.org/2000/svg" xmlns:xlink="http://www.w3.org/1999/xlink">
<g id="graph0" class="graph" transform="scale(1 1) rotate(0) translate(4 344)">
<title>com.github.aptd.simulation.elements.graph.network.IStation&lt; T extends IStation&lt;?&gt;</title>
<!-- Node10 -->
<g id="node1" class="node"><title>Node10</title>
<polygon fill="#bfbfbf" stroke="black" points="-0.5,-1 -0.5,-65 228.5,-65 228.5,-1 -0.5,-1"/>
<text text-anchor="start" x="7.5" y="-53.8" font-family="Helvetica,sans-Serif" font-size="9.00">com.github.aptd.simulation.elements.graph.network.</text>
<text text-anchor="middle" x="114" y="-43.8" font-family="Helvetica,sans-Serif" font-size="9.00">IStation&lt; T extends IStation&lt;?&gt;</text>
<polyline fill="none" stroke="black" points="-0.5,-37 228.5,-37 "/>
<text text-anchor="middle" x="114" y="-25.8" font-family="Helvetica,sans-Serif" font-size="9.00"> </text>
<polyline fill="none" stroke="black" points="-0.5,-19 228.5,-19 "/>
<text text-anchor="start" x="7.5" y="-7.8" font-family="Helvetica,sans-Serif" font-size="9.00">+ gps()</text>
</g>
<!-- Node11 -->
<g id="node2" class="node"><title>Node11</title>
<g id="a_node2"><a xlink:href="../../de/d20/interfacecom_1_1github_1_1aptd_1_1simulation_1_1elements_1_1graph_1_1IVertex.htm" target="_top" xlink:title="interface of graph nodes ">
<polygon fill="none" stroke="black" points="4.5,-128 4.5,-202 105.5,-202 105.5,-128 4.5,-128"/>
<text text-anchor="start" x="12.5" y="-190.8" font-family="Helvetica,sans-Serif" font-size="9.00">com::github::aptd::</text>
<text text-anchor="start" x="12.5" y="-180.8" font-family="Helvetica,sans-Serif" font-size="9.00">simulation::elements</text>
<text text-anchor="middle" x="55" y="-170.8" font-family="Helvetica,sans-Serif" font-size="9.00">::graph::IVertex&lt; T &gt;</text>
<polyline fill="none" stroke="black" points="4.5,-164 105.5,-164 "/>
<text text-anchor="middle" x="55" y="-152.8" font-family="Helvetica,sans-Serif" font-size="9.00"> </text>
<polyline fill="none" stroke="black" points="4.5,-146 105.5,-146 "/>
<text text-anchor="middle" x="55" y="-134.8" font-family="Helvetica,sans-Serif" font-size="9.00"> </text>
</a>
</g>
</g>
<!-- Node11&#45;&gt;Node10 -->
<g id="edge1" class="edge"><title>Node11&#45;&gt;Node10</title>
<path fill="none" stroke="midnightblue" d="M75.7523,-118.275C83.7276,-100.702 92.6408,-81.0627 99.8551,-65.1667"/>
<polygon fill="none" stroke="midnightblue" points="72.3805,-117.235 71.4348,-127.788 78.7547,-120.128 72.3805,-117.235"/>
</g>
<!-- Node12 -->
<g id="node3" class="node"><title>Node12</title>
<g id="a_node3"><a xlink:href="../../dd/dd7/interfacecom_1_1github_1_1aptd_1_1simulation_1_1elements_1_1IElement.htm" target="_top" xlink:title="any object interface ">
<polygon fill="none" stroke="black" points="123.5,-103 123.5,-227 224.5,-227 224.5,-103 123.5,-103"/>
<text text-anchor="start" x="131.5" y="-215.8" font-family="Helvetica,sans-Serif" font-size="9.00">com::github::aptd::</text>
<text text-anchor="start" x="131.5" y="-205.8" font-family="Helvetica,sans-Serif" font-size="9.00">simulation::elements</text>
<text text-anchor="middle" x="174" y="-195.8" font-family="Helvetica,sans-Serif" font-size="9.00">::IElement&lt; T &gt;</text>
<polyline fill="none" stroke="black" points="123.5,-189 224.5,-189 "/>
<text text-anchor="middle" x="174" y="-177.8" font-family="Helvetica,sans-Serif" font-size="9.00"> </text>
<polyline fill="none" stroke="black" points="123.5,-171 224.5,-171 "/>
<text text-anchor="start" x="131.5" y="-159.8" font-family="Helvetica,sans-Serif" font-size="9.00">+ environment()</text>
<text text-anchor="start" x="131.5" y="-149.8" font-family="Helvetica,sans-Serif" font-size="9.00">+ id()</text>
<text text-anchor="start" x="131.5" y="-139.8" font-family="Helvetica,sans-Serif" font-size="9.00">+ imminent()</text>
<text text-anchor="start" x="131.5" y="-129.8" font-family="Helvetica,sans-Serif" font-size="9.00">+ input()</text>
<text text-anchor="start" x="131.5" y="-119.8" font-family="Helvetica,sans-Serif" font-size="9.00">+ nextactivation()</text>
<text text-anchor="start" x="131.5" y="-109.8" font-family="Helvetica,sans-Serif" font-size="9.00">+ output()</text>
</a>
</g>
</g>
<!-- Node12&#45;&gt;Node10 -->
<g id="edge2" class="edge"><title>Node12&#45;&gt;Node10</title>
<path fill="none" stroke="midnightblue" d="M141.522,-93.6317C136.922,-83.6635 132.399,-73.8649 128.392,-65.1822"/>
<polygon fill="none" stroke="midnightblue" points="138.388,-95.1938 145.757,-102.807 144.744,-92.2603 138.388,-95.1938"/>
</g>
<!-- Node13 -->
<g id="node4" class="node"><title>Node13</title>
<g id="a_node4"><a xlink:href="../../d4/d0d/interfacecom_1_1github_1_1aptd_1_1simulation_1_1elements_1_1IPerceiveable.htm" target="_top" xlink:title="any object which be perceived by an agent ">
<polygon fill="none" stroke="black" points="90,-265 90,-339 258,-339 258,-265 90,-265"/>
<text text-anchor="start" x="98" y="-327.8" font-family="Helvetica,sans-Serif" font-size="9.00">com.github.aptd.simulation.elements.</text>
<text text-anchor="middle" x="174" y="-317.8" font-family="Helvetica,sans-Serif" font-size="9.00">IPerceiveable</text>
<polyline fill="none" stroke="black" points="90,-311 258,-311 "/>
<text text-anchor="middle" x="174" y="-299.8" font-family="Helvetica,sans-Serif" font-size="9.00"> </text>
<polyline fill="none" stroke="black" points="90,-293 258,-293 "/>
<text text-anchor="start" x="98" y="-281.8" font-family="Helvetica,sans-Serif" font-size="9.00">+ literal()</text>
<text text-anchor="start" x="98" y="-271.8" font-family="Helvetica,sans-Serif" font-size="9.00">+ literal()</text>
</a>
</g>
</g>
<!-- Node13&#45;&gt;Node12 -->
<g id="edge3" class="edge"><title>Node13&#45;&gt;Node12</title>
<path fill="none" stroke="midnightblue" d="M174,-254.667C174,-245.767 174,-236.32 174,-227.037"/>
<polygon fill="none" stroke="midnightblue" points="170.5,-254.822 174,-264.822 177.5,-254.823 170.5,-254.822"/>
</g>
</g>
</svg>
