<?xml version="1.0" encoding="UTF-8" standalone="no"?>
<!DOCTYPE svg PUBLIC "-//W3C//DTD SVG 1.1//EN"
 "http://www.w3.org/Graphics/SVG/1.1/DTD/svg11.dtd">
<!-- Generated by graphviz version 2.36.0 (20140111.2315)
 -->
<!-- Title: com.github.aptd.simulation.elements.graph.eventactivitynetwork.local.CActivity Pages: 1 -->
<svg width="308pt" height="368pt"
 viewBox="0.00 0.00 308.00 368.00" xmlns="http://www.w3.org/2000/svg" xmlns:xlink="http://www.w3.org/1999/xlink">
<g id="graph0" class="graph" transform="scale(1 1) rotate(0) translate(4 364)">
<title>com.github.aptd.simulation.elements.graph.eventactivitynetwork.local.CActivity</title>
<!-- Node0 -->
<g id="node1" class="node"><title>Node0</title>
<polygon fill="#bfbfbf" stroke="black" points="-0.5,-1 -0.5,-135 300.5,-135 300.5,-1 -0.5,-1"/>
<text text-anchor="start" x="7.5" y="-123.8" font-family="Helvetica,sans-Serif" font-size="9.00">com.github.aptd.simulation.elements.graph.eventactivitynetwork.local.</text>
<text text-anchor="middle" x="150" y="-113.8" font-family="Helvetica,sans-Serif" font-size="9.00">CActivity</text>
<polyline fill="none" stroke="black" points="-0.5,-107 300.5,-107 "/>
<text text-anchor="start" x="7.5" y="-95.8" font-family="Helvetica,sans-Serif" font-size="9.00">&#45; m_event</text>
<text text-anchor="start" x="7.5" y="-85.8" font-family="Helvetica,sans-Serif" font-size="9.00">&#45; m_from</text>
<text text-anchor="start" x="7.5" y="-75.8" font-family="Helvetica,sans-Serif" font-size="9.00">&#45; m_to</text>
<polyline fill="none" stroke="black" points="-0.5,-69 300.5,-69 "/>
<text text-anchor="start" x="7.5" y="-57.8" font-family="Helvetica,sans-Serif" font-size="9.00">+ CActivity()</text>
<text text-anchor="start" x="7.5" y="-47.8" font-family="Helvetica,sans-Serif" font-size="9.00">+ equals()</text>
<text text-anchor="start" x="7.5" y="-37.8" font-family="Helvetica,sans-Serif" font-size="9.00">+ event()</text>
<text text-anchor="start" x="7.5" y="-27.8" font-family="Helvetica,sans-Serif" font-size="9.00">+ from()</text>
<text text-anchor="start" x="7.5" y="-17.8" font-family="Helvetica,sans-Serif" font-size="9.00">+ hashCode()</text>
<text text-anchor="start" x="7.5" y="-7.8" font-family="Helvetica,sans-Serif" font-size="9.00">+ to()</text>
</g>
<!-- Node1 -->
<g id="node2" class="node"><title>Node1</title>
<g id="a_node2"><a xlink:href="../../d1/d8a/interfacecom_1_1github_1_1aptd_1_1simulation_1_1elements_1_1graph_1_1eventactivitynetwork_1_1IActivity.htm" target="_top" xlink:title="interface of an activity ">
<polygon fill="none" stroke="black" points="10.5,-173 10.5,-237 289.5,-237 289.5,-173 10.5,-173"/>
<text text-anchor="start" x="18.5" y="-225.8" font-family="Helvetica,sans-Serif" font-size="9.00">com.github.aptd.simulation.elements.graph.eventactivitynetwork.</text>
<text text-anchor="middle" x="150" y="-215.8" font-family="Helvetica,sans-Serif" font-size="9.00">IActivity</text>
<polyline fill="none" stroke="black" points="10.5,-209 289.5,-209 "/>
<text text-anchor="middle" x="150" y="-197.8" font-family="Helvetica,sans-Serif" font-size="9.00"> </text>
<polyline fill="none" stroke="black" points="10.5,-191 289.5,-191 "/>
<text text-anchor="start" x="18.5" y="-179.8" font-family="Helvetica,sans-Serif" font-size="9.00">+ event()</text>
</a>
</g>
</g>
<!-- Node1&#45;&gt;Node0 -->
<g id="edge1" class="edge"><title>Node1&#45;&gt;Node0</title>
<path fill="none" stroke="midnightblue" d="M150,-162.462C150,-153.762 150,-144.383 150,-135.042"/>
<polygon fill="none" stroke="midnightblue" points="146.5,-162.689 150,-172.689 153.5,-162.689 146.5,-162.689"/>
</g>
<!-- Node2 -->
<g id="node3" class="node"><title>Node2</title>
<g id="a_node3"><a xlink:href="../../d1/d9f/interfacecom_1_1github_1_1aptd_1_1simulation_1_1elements_1_1graph_1_1IEdge.htm" target="_top" xlink:title="interface of edges ">
<polygon fill="none" stroke="black" points="93.5,-275 93.5,-359 206.5,-359 206.5,-275 93.5,-275"/>
<text text-anchor="start" x="101.5" y="-347.8" font-family="Helvetica,sans-Serif" font-size="9.00">com::github::aptd::</text>
<text text-anchor="start" x="101.5" y="-337.8" font-family="Helvetica,sans-Serif" font-size="9.00">simulation::elements</text>
<text text-anchor="middle" x="150" y="-327.8" font-family="Helvetica,sans-Serif" font-size="9.00">::graph::IEdge&lt; INode &gt;</text>
<polyline fill="none" stroke="black" points="93.5,-321 206.5,-321 "/>
<text text-anchor="middle" x="150" y="-309.8" font-family="Helvetica,sans-Serif" font-size="9.00"> </text>
<polyline fill="none" stroke="black" points="93.5,-303 206.5,-303 "/>
<text text-anchor="start" x="101.5" y="-291.8" font-family="Helvetica,sans-Serif" font-size="9.00">+ from()</text>
<text text-anchor="start" x="101.5" y="-281.8" font-family="Helvetica,sans-Serif" font-size="9.00">+ to()</text>
</a>
</g>
</g>
<!-- Node2&#45;&gt;Node1 -->
<g id="edge2" class="edge"><title>Node2&#45;&gt;Node1</title>
<path fill="none" stroke="midnightblue" d="M150,-264.657C150,-255.277 150,-245.755 150,-237.188"/>
<polygon fill="none" stroke="midnightblue" points="146.5,-264.727 150,-274.727 153.5,-264.727 146.5,-264.727"/>
</g>
</g>
</svg>
