<?xml version="1.0" encoding="UTF-8" standalone="no"?>
<!DOCTYPE svg PUBLIC "-//W3C//DTD SVG 1.1//EN"
 "http://www.w3.org/Graphics/SVG/1.1/DTD/svg11.dtd">
<!-- Generated by graphviz version 2.36.0 (20140111.2315)
 -->
<!-- Title: com.github.aptd.simulation.elements.train.CWagon Pages: 1 -->
<svg width="456pt" height="1072pt"
 viewBox="0.00 0.00 456.00 1072.00" xmlns="http://www.w3.org/2000/svg" xmlns:xlink="http://www.w3.org/1999/xlink">
<g id="graph0" class="graph" transform="scale(1 1) rotate(0) translate(4 1068)">
<title>com.github.aptd.simulation.elements.train.CWagon</title>
<!-- Node8 -->
<g id="node1" class="node"><title>Node8</title>
<polygon fill="#bfbfbf" stroke="black" points="129,-1 129,-165 317,-165 317,-1 129,-1"/>
<text text-anchor="start" x="137" y="-153.8" font-family="Helvetica,sans-Serif" font-size="9.00">com.github.aptd.simulation.elements.train.</text>
<text text-anchor="middle" x="223" y="-143.8" font-family="Helvetica,sans-Serif" font-size="9.00">CWagon</text>
<polyline fill="none" stroke="black" points="129,-137 317,-137 "/>
<text text-anchor="start" x="137" y="-125.8" font-family="Helvetica,sans-Serif" font-size="9.00">&#45; m_maximum</text>
<text text-anchor="start" x="137" y="-115.8" font-family="Helvetica,sans-Serif" font-size="9.00">&#45; m_passanger</text>
<text text-anchor="start" x="137" y="-105.8" font-family="Helvetica,sans-Serif" font-size="9.00">&#45; FUNCTOR</text>
<text text-anchor="start" x="137" y="-95.8" font-family="Helvetica,sans-Serif" font-size="9.00">&#45; serialVersionUID</text>
<polyline fill="none" stroke="black" points="129,-89 317,-89 "/>
<text text-anchor="start" x="137" y="-77.8" font-family="Helvetica,sans-Serif" font-size="9.00">+ add()</text>
<text text-anchor="start" x="137" y="-67.8" font-family="Helvetica,sans-Serif" font-size="9.00">+ announcement()</text>
<text text-anchor="start" x="137" y="-57.8" font-family="Helvetica,sans-Serif" font-size="9.00">+ free()</text>
<text text-anchor="start" x="137" y="-47.8" font-family="Helvetica,sans-Serif" font-size="9.00">+ passenger()</text>
<text text-anchor="start" x="137" y="-37.8" font-family="Helvetica,sans-Serif" font-size="9.00">+ remove()</text>
<text text-anchor="start" x="137" y="-27.8" font-family="Helvetica,sans-Serif" font-size="9.00">+ size()</text>
<text text-anchor="start" x="137" y="-17.8" font-family="Helvetica,sans-Serif" font-size="9.00"># individualliteral()</text>
<text text-anchor="start" x="137" y="-7.8" font-family="Helvetica,sans-Serif" font-size="9.00">&#45; CWagon()</text>
</g>
<!-- Node9 -->
<g id="node2" class="node"><title>Node9</title>
<g id="a_node2"><a xlink:href="../../d6/df3/classcom_1_1github_1_1aptd_1_1simulation_1_1elements_1_1IBaseElement.htm" target="_top" xlink:title="base simulation element structure ">
<polygon fill="none" stroke="black" points="102,-205 102,-519 242,-519 242,-205 102,-205"/>
<text text-anchor="start" x="110" y="-507.8" font-family="Helvetica,sans-Serif" font-size="9.00">com::github::aptd::</text>
<text text-anchor="start" x="110" y="-497.8" font-family="Helvetica,sans-Serif" font-size="9.00">simulation::elements</text>
<text text-anchor="middle" x="172" y="-487.8" font-family="Helvetica,sans-Serif" font-size="9.00">::IBaseElement&lt; IWagon&lt;?&gt; &gt;</text>
<polyline fill="none" stroke="black" points="102,-481 242,-481 "/>
<text text-anchor="start" x="110" y="-469.8" font-family="Helvetica,sans-Serif" font-size="9.00"># m_id</text>
<text text-anchor="start" x="110" y="-459.8" font-family="Helvetica,sans-Serif" font-size="9.00"># m_input</text>
<text text-anchor="start" x="110" y="-449.8" font-family="Helvetica,sans-Serif" font-size="9.00"># m_nextactivation</text>
<text text-anchor="start" x="110" y="-439.8" font-family="Helvetica,sans-Serif" font-size="9.00">&#45; m_environment</text>
<text text-anchor="start" x="110" y="-429.8" font-family="Helvetica,sans-Serif" font-size="9.00">&#45; m_external</text>
<text text-anchor="start" x="110" y="-419.8" font-family="Helvetica,sans-Serif" font-size="9.00">&#45; m_functor</text>
<text text-anchor="start" x="110" y="-409.8" font-family="Helvetica,sans-Serif" font-size="9.00">&#45; m_timezone</text>
<text text-anchor="start" x="110" y="-399.8" font-family="Helvetica,sans-Serif" font-size="9.00">&#45; serialVersionUID</text>
<polyline fill="none" stroke="black" points="102,-393 242,-393 "/>
<text text-anchor="start" x="110" y="-381.8" font-family="Helvetica,sans-Serif" font-size="9.00">+ call()</text>
<text text-anchor="start" x="110" y="-371.8" font-family="Helvetica,sans-Serif" font-size="9.00">+ environment()</text>
<text text-anchor="start" x="110" y="-361.8" font-family="Helvetica,sans-Serif" font-size="9.00">+ equals()</text>
<text text-anchor="start" x="110" y="-351.8" font-family="Helvetica,sans-Serif" font-size="9.00">+ hashCode()</text>
<text text-anchor="start" x="110" y="-341.8" font-family="Helvetica,sans-Serif" font-size="9.00">+ id()</text>
<text text-anchor="start" x="110" y="-331.8" font-family="Helvetica,sans-Serif" font-size="9.00">+ imminent()</text>
<text text-anchor="start" x="110" y="-321.8" font-family="Helvetica,sans-Serif" font-size="9.00">+ input()</text>
<text text-anchor="start" x="110" y="-311.8" font-family="Helvetica,sans-Serif" font-size="9.00">+ literal()</text>
<text text-anchor="start" x="110" y="-301.8" font-family="Helvetica,sans-Serif" font-size="9.00">+ literal()</text>
<text text-anchor="start" x="110" y="-291.8" font-family="Helvetica,sans-Serif" font-size="9.00">+ nextactivation()</text>
<text text-anchor="start" x="110" y="-281.8" font-family="Helvetica,sans-Serif" font-size="9.00">+ output()</text>
<text text-anchor="start" x="110" y="-271.8" font-family="Helvetica,sans-Serif" font-size="9.00">+ toString()</text>
<text text-anchor="start" x="110" y="-261.8" font-family="Helvetica,sans-Serif" font-size="9.00"># IBaseElement()</text>
<text text-anchor="start" x="110" y="-251.8" font-family="Helvetica,sans-Serif" font-size="9.00"># individualliteral()</text>
<text text-anchor="start" x="110" y="-241.8" font-family="Helvetica,sans-Serif" font-size="9.00">&#45; currentTime()</text>
<text text-anchor="start" x="110" y="-231.8" font-family="Helvetica,sans-Serif" font-size="9.00">&#45; getNextActivation()</text>
<text text-anchor="start" x="110" y="-221.8" font-family="Helvetica,sans-Serif" font-size="9.00">&#45; maxTime()</text>
<text text-anchor="start" x="110" y="-211.8" font-family="Helvetica,sans-Serif" font-size="9.00">&#45; setNextActivation()</text>
</a>
</g>
</g>
<!-- Node9&#45;&gt;Node8 -->
<g id="edge1" class="edge"><title>Node9&#45;&gt;Node8</title>
<path fill="none" stroke="midnightblue" d="M202.592,-194.842C204.473,-184.629 206.314,-174.626 208.075,-165.066"/>
<polygon fill="none" stroke="midnightblue" points="199.148,-194.222 200.779,-204.69 206.032,-195.49 199.148,-194.222"/>
</g>
<!-- Node10 -->
<g id="node3" class="node"><title>Node10</title>
<g id="a_node3"><a xlink:href="../../dd/dd7/interfacecom_1_1github_1_1aptd_1_1simulation_1_1elements_1_1IElement.htm" target="_top" xlink:title="{com.github.aptd.simulation.elements.\lIElement\&lt; N \&gt;\n||+ environment()\l+ id()\l+ imminent()\l+ input()\l+ nextactivation()\l+ output()\l}">
<polygon fill="none" stroke="black" points="0,-567 0,-681 168,-681 168,-567 0,-567"/>
<text text-anchor="start" x="8" y="-669.8" font-family="Helvetica,sans-Serif" font-size="9.00">com.github.aptd.simulation.elements.</text>
<text text-anchor="middle" x="84" y="-659.8" font-family="Helvetica,sans-Serif" font-size="9.00">IElement&lt; N &gt;</text>
<polyline fill="none" stroke="black" points="0,-653 168,-653 "/>
<text text-anchor="middle" x="84" y="-641.8" font-family="Helvetica,sans-Serif" font-size="9.00"> </text>
<polyline fill="none" stroke="black" points="0,-635 168,-635 "/>
<text text-anchor="start" x="8" y="-623.8" font-family="Helvetica,sans-Serif" font-size="9.00">+ environment()</text>
<text text-anchor="start" x="8" y="-613.8" font-family="Helvetica,sans-Serif" font-size="9.00">+ id()</text>
<text text-anchor="start" x="8" y="-603.8" font-family="Helvetica,sans-Serif" font-size="9.00">+ imminent()</text>
<text text-anchor="start" x="8" y="-593.8" font-family="Helvetica,sans-Serif" font-size="9.00">+ input()</text>
<text text-anchor="start" x="8" y="-583.8" font-family="Helvetica,sans-Serif" font-size="9.00">+ nextactivation()</text>
<text text-anchor="start" x="8" y="-573.8" font-family="Helvetica,sans-Serif" font-size="9.00">+ output()</text>
</a>
</g>
</g>
<!-- Node10&#45;&gt;Node9 -->
<g id="edge2" class="edge"><title>Node10&#45;&gt;Node9</title>
<path fill="none" stroke="midnightblue" d="M106.287,-557.151C110.313,-545.257 114.662,-532.408 119.139,-519.181"/>
<polygon fill="none" stroke="midnightblue" points="102.877,-556.31 102.986,-566.904 109.508,-558.554 102.877,-556.31"/>
</g>
<!-- Node11 -->
<g id="node4" class="node"><title>Node11</title>
<g id="a_node4"><a xlink:href="../../dd/dd7/interfacecom_1_1github_1_1aptd_1_1simulation_1_1elements_1_1IElement.htm" target="_top" xlink:title="any object interface ">
<polygon fill="none" stroke="black" points="6,-830 6,-944 174,-944 174,-830 6,-830"/>
<text text-anchor="start" x="14" y="-932.8" font-family="Helvetica,sans-Serif" font-size="9.00">com.github.aptd.simulation.elements.</text>
<text text-anchor="middle" x="90" y="-922.8" font-family="Helvetica,sans-Serif" font-size="9.00">IElement&lt; T extends IAgent&lt;?&gt;</text>
<polyline fill="none" stroke="black" points="6,-916 174,-916 "/>
<text text-anchor="middle" x="90" y="-904.8" font-family="Helvetica,sans-Serif" font-size="9.00"> </text>
<polyline fill="none" stroke="black" points="6,-898 174,-898 "/>
<text text-anchor="start" x="14" y="-886.8" font-family="Helvetica,sans-Serif" font-size="9.00">+ environment()</text>
<text text-anchor="start" x="14" y="-876.8" font-family="Helvetica,sans-Serif" font-size="9.00">+ id()</text>
<text text-anchor="start" x="14" y="-866.8" font-family="Helvetica,sans-Serif" font-size="9.00">+ imminent()</text>
<text text-anchor="start" x="14" y="-856.8" font-family="Helvetica,sans-Serif" font-size="9.00">+ input()</text>
<text text-anchor="start" x="14" y="-846.8" font-family="Helvetica,sans-Serif" font-size="9.00">+ nextactivation()</text>
<text text-anchor="start" x="14" y="-836.8" font-family="Helvetica,sans-Serif" font-size="9.00">+ output()</text>
</a>
</g>
</g>
<!-- Node11&#45;&gt;Node10 -->
<g id="edge3" class="edge"><title>Node11&#45;&gt;Node10</title>
<path fill="none" stroke="orange" d="M86.4801,-819.566C86.2979,-814.976 86.1349,-810.42 86,-806 84.7253,-764.223 84.2352,-717.001 84.0586,-681.268"/>
<polygon fill="orange" stroke="orange" points="82.9862,-819.787 86.906,-829.63 89.98,-819.491 82.9862,-819.787"/>
<text text-anchor="middle" x="98.5" y="-750.8" font-family="Helvetica,sans-Serif" font-size="9.00"> &lt; N &gt;</text>
</g>
<!-- Node12 -->
<g id="node5" class="node"><title>Node12</title>
<g id="a_node5"><a xlink:href="../../d4/d0d/interfacecom_1_1github_1_1aptd_1_1simulation_1_1elements_1_1IPerceiveable.htm" target="_top" xlink:title="any object which be perceived by an agent ">
<polygon fill="none" stroke="black" points="120,-989 120,-1063 288,-1063 288,-989 120,-989"/>
<text text-anchor="start" x="128" y="-1051.8" font-family="Helvetica,sans-Serif" font-size="9.00">com.github.aptd.simulation.elements.</text>
<text text-anchor="middle" x="204" y="-1041.8" font-family="Helvetica,sans-Serif" font-size="9.00">IPerceiveable</text>
<polyline fill="none" stroke="black" points="120,-1035 288,-1035 "/>
<text text-anchor="middle" x="204" y="-1023.8" font-family="Helvetica,sans-Serif" font-size="9.00"> </text>
<polyline fill="none" stroke="black" points="120,-1017 288,-1017 "/>
<text text-anchor="start" x="128" y="-1005.8" font-family="Helvetica,sans-Serif" font-size="9.00">+ literal()</text>
<text text-anchor="start" x="128" y="-995.8" font-family="Helvetica,sans-Serif" font-size="9.00">+ literal()</text>
</a>
</g>
</g>
<!-- Node12&#45;&gt;Node11 -->
<g id="edge4" class="edge"><title>Node12&#45;&gt;Node11</title>
<path fill="none" stroke="midnightblue" d="M167.191,-980.765C157.487,-969.103 146.887,-956.364 136.736,-944.165"/>
<polygon fill="none" stroke="midnightblue" points="164.663,-983.198 173.749,-988.646 170.043,-978.721 164.663,-983.198"/>
</g>
<!-- Node13 -->
<g id="node6" class="node"><title>Node13</title>
<g id="a_node6"><a xlink:href="../../db/d65/interfacecom_1_1github_1_1aptd_1_1simulation_1_1core_1_1time_1_1ITime.htm" target="_top" xlink:title="time interface ">
<polygon fill="none" stroke="black" points="120,-701 120,-805 288,-805 288,-701 120,-701"/>
<text text-anchor="start" x="128" y="-793.8" font-family="Helvetica,sans-Serif" font-size="9.00">com.github.aptd.simulation.core.time.</text>
<text text-anchor="middle" x="204" y="-783.8" font-family="Helvetica,sans-Serif" font-size="9.00">ITime</text>
<polyline fill="none" stroke="black" points="120,-777 288,-777 "/>
<text text-anchor="middle" x="204" y="-765.8" font-family="Helvetica,sans-Serif" font-size="9.00"> </text>
<polyline fill="none" stroke="black" points="120,-759 288,-759 "/>
<text text-anchor="start" x="128" y="-747.8" font-family="Helvetica,sans-Serif" font-size="9.00">+ active()</text>
<text text-anchor="start" x="128" y="-737.8" font-family="Helvetica,sans-Serif" font-size="9.00">+ addagent()</text>
<text text-anchor="start" x="128" y="-727.8" font-family="Helvetica,sans-Serif" font-size="9.00">+ current()</text>
<text text-anchor="start" x="128" y="-717.8" font-family="Helvetica,sans-Serif" font-size="9.00">+ raw()</text>
<text text-anchor="start" x="128" y="-707.8" font-family="Helvetica,sans-Serif" font-size="9.00">+ removeagent()</text>
</a>
</g>
</g>
<!-- Node12&#45;&gt;Node13 -->
<g id="edge6" class="edge"><title>Node12&#45;&gt;Node13</title>
<path fill="none" stroke="midnightblue" d="M204,-978.584C204,-930.404 204,-855.24 204,-805.32"/>
<polygon fill="none" stroke="midnightblue" points="200.5,-978.733 204,-988.733 207.5,-978.733 200.5,-978.733"/>
</g>
<!-- Node16 -->
<g id="node9" class="node"><title>Node16</title>
<g id="a_node9"><a xlink:href="../../dd/dd7/interfacecom_1_1github_1_1aptd_1_1simulation_1_1elements_1_1IElement.htm" target="_top" xlink:title="any object interface ">
<polygon fill="none" stroke="black" points="254.5,-825 254.5,-949 355.5,-949 355.5,-825 254.5,-825"/>
<text text-anchor="start" x="262.5" y="-937.8" font-family="Helvetica,sans-Serif" font-size="9.00">com::github::aptd::</text>
<text text-anchor="start" x="262.5" y="-927.8" font-family="Helvetica,sans-Serif" font-size="9.00">simulation::elements</text>
<text text-anchor="middle" x="305" y="-917.8" font-family="Helvetica,sans-Serif" font-size="9.00">::IElement&lt; T &gt;</text>
<polyline fill="none" stroke="black" points="254.5,-911 355.5,-911 "/>
<text text-anchor="middle" x="305" y="-899.8" font-family="Helvetica,sans-Serif" font-size="9.00"> </text>
<polyline fill="none" stroke="black" points="254.5,-893 355.5,-893 "/>
<text text-anchor="start" x="262.5" y="-881.8" font-family="Helvetica,sans-Serif" font-size="9.00">+ environment()</text>
<text text-anchor="start" x="262.5" y="-871.8" font-family="Helvetica,sans-Serif" font-size="9.00">+ id()</text>
<text text-anchor="start" x="262.5" y="-861.8" font-family="Helvetica,sans-Serif" font-size="9.00">+ imminent()</text>
<text text-anchor="start" x="262.5" y="-851.8" font-family="Helvetica,sans-Serif" font-size="9.00">+ input()</text>
<text text-anchor="start" x="262.5" y="-841.8" font-family="Helvetica,sans-Serif" font-size="9.00">+ nextactivation()</text>
<text text-anchor="start" x="262.5" y="-831.8" font-family="Helvetica,sans-Serif" font-size="9.00">+ output()</text>
</a>
</g>
</g>
<!-- Node12&#45;&gt;Node16 -->
<g id="edge10" class="edge"><title>Node12&#45;&gt;Node16</title>
<path fill="none" stroke="midnightblue" d="M236.836,-980.459C244.202,-970.469 252.14,-959.701 259.907,-949.166"/>
<polygon fill="none" stroke="midnightblue" points="233.918,-978.52 230.801,-988.646 239.552,-982.674 233.918,-978.52"/>
</g>
<!-- Node13&#45;&gt;Node9 -->
<g id="edge5" class="edge"><title>Node13&#45;&gt;Node9</title>
<path fill="none" stroke="#404040" d="M199.784,-700.745C196.212,-657.323 190.882,-592.528 185.842,-531.269"/>
<polygon fill="none" stroke="#404040" points="185.823,-531.032 181.344,-525.38 184.839,-519.072 189.317,-524.724 185.823,-531.032"/>
<text text-anchor="middle" x="218" y="-621.8" font-family="Helvetica,sans-Serif" font-size="9.00"> #m_time</text>
</g>
<!-- Node14 -->
<g id="node7" class="node"><title>Node14</title>
<g id="a_node7"><a xlink:href="../../d6/d59/interfacecom_1_1github_1_1aptd_1_1simulation_1_1elements_1_1train_1_1IWagon.htm" target="_top" xlink:title="{com.github.aptd.simulation.elements.train.\lIWagon\&lt; IWagon\&lt;?\&gt; \&gt;\n||+ add()\l+ announcement()\l+ free()\l+ passenger()\l+ remove()\l+ size()\l}">
<polygon fill="none" stroke="black" points="260,-305 260,-419 448,-419 448,-305 260,-305"/>
<text text-anchor="start" x="268" y="-407.8" font-family="Helvetica,sans-Serif" font-size="9.00">com.github.aptd.simulation.elements.train.</text>
<text text-anchor="middle" x="354" y="-397.8" font-family="Helvetica,sans-Serif" font-size="9.00">IWagon&lt; IWagon&lt;?&gt; &gt;</text>
<polyline fill="none" stroke="black" points="260,-391 448,-391 "/>
<text text-anchor="middle" x="354" y="-379.8" font-family="Helvetica,sans-Serif" font-size="9.00"> </text>
<polyline fill="none" stroke="black" points="260,-373 448,-373 "/>
<text text-anchor="start" x="268" y="-361.8" font-family="Helvetica,sans-Serif" font-size="9.00">+ add()</text>
<text text-anchor="start" x="268" y="-351.8" font-family="Helvetica,sans-Serif" font-size="9.00">+ announcement()</text>
<text text-anchor="start" x="268" y="-341.8" font-family="Helvetica,sans-Serif" font-size="9.00">+ free()</text>
<text text-anchor="start" x="268" y="-331.8" font-family="Helvetica,sans-Serif" font-size="9.00">+ passenger()</text>
<text text-anchor="start" x="268" y="-321.8" font-family="Helvetica,sans-Serif" font-size="9.00">+ remove()</text>
<text text-anchor="start" x="268" y="-311.8" font-family="Helvetica,sans-Serif" font-size="9.00">+ size()</text>
</a>
</g>
</g>
<!-- Node14&#45;&gt;Node8 -->
<g id="edge7" class="edge"><title>Node14&#45;&gt;Node8</title>
<path fill="none" stroke="midnightblue" d="M323.153,-295.774C304.687,-256.727 281.059,-206.767 261.392,-165.179"/>
<polygon fill="none" stroke="midnightblue" points="320.051,-297.401 327.49,-304.945 326.379,-294.409 320.051,-297.401"/>
</g>
<!-- Node15 -->
<g id="node8" class="node"><title>Node15</title>
<g id="a_node8"><a xlink:href="../../d6/d59/interfacecom_1_1github_1_1aptd_1_1simulation_1_1elements_1_1train_1_1IWagon.htm" target="_top" xlink:title="wagon interface ">
<polygon fill="none" stroke="black" points="260,-567 260,-681 448,-681 448,-567 260,-567"/>
<text text-anchor="start" x="268" y="-669.8" font-family="Helvetica,sans-Serif" font-size="9.00">com.github.aptd.simulation.elements.train.</text>
<text text-anchor="middle" x="354" y="-659.8" font-family="Helvetica,sans-Serif" font-size="9.00">IWagon&lt; T extends IWagon&lt;?&gt;</text>
<polyline fill="none" stroke="black" points="260,-653 448,-653 "/>
<text text-anchor="middle" x="354" y="-641.8" font-family="Helvetica,sans-Serif" font-size="9.00"> </text>
<polyline fill="none" stroke="black" points="260,-635 448,-635 "/>
<text text-anchor="start" x="268" y="-623.8" font-family="Helvetica,sans-Serif" font-size="9.00">+ add()</text>
<text text-anchor="start" x="268" y="-613.8" font-family="Helvetica,sans-Serif" font-size="9.00">+ announcement()</text>
<text text-anchor="start" x="268" y="-603.8" font-family="Helvetica,sans-Serif" font-size="9.00">+ free()</text>
<text text-anchor="start" x="268" y="-593.8" font-family="Helvetica,sans-Serif" font-size="9.00">+ passenger()</text>
<text text-anchor="start" x="268" y="-583.8" font-family="Helvetica,sans-Serif" font-size="9.00">+ remove()</text>
<text text-anchor="start" x="268" y="-573.8" font-family="Helvetica,sans-Serif" font-size="9.00">+ size()</text>
</a>
</g>
</g>
<!-- Node15&#45;&gt;Node14 -->
<g id="edge8" class="edge"><title>Node15&#45;&gt;Node14</title>
<path fill="none" stroke="orange" d="M354,-556.669C354,-514.239 354,-459.795 354,-419.444"/>
<polygon fill="orange" stroke="orange" points="350.5,-556.904 354,-566.904 357.5,-556.904 350.5,-556.904"/>
<text text-anchor="middle" x="386.5" y="-540.8" font-family="Helvetica,sans-Serif" font-size="9.00"> &lt; IWagon&lt;?&gt; &gt;</text>
</g>
<!-- Node16&#45;&gt;Node15 -->
<g id="edge9" class="edge"><title>Node16&#45;&gt;Node15</title>
<path fill="none" stroke="midnightblue" d="M318.345,-814.92C326.23,-772.92 336.074,-720.481 343.421,-681.352"/>
<polygon fill="none" stroke="midnightblue" points="314.894,-814.333 316.488,-824.807 321.773,-815.625 314.894,-814.333"/>
</g>
</g>
</svg>
