<?xml version="1.0" encoding="UTF-8" standalone="no"?>
<!DOCTYPE svg PUBLIC "-//W3C//DTD SVG 1.1//EN"
 "http://www.w3.org/Graphics/SVG/1.1/DTD/svg11.dtd">
<!-- Generated by graphviz version 2.36.0 (20140111.2315)
 -->
<!-- Title: com.github.aptd.simulation.elements.IBaseElement&lt; N extends IElement&lt;?&gt;.IBaseGenerator&lt; N extends IElement&lt;?&gt; Pages: 1 -->
<svg width="210pt" height="390pt"
 viewBox="0.00 0.00 210.00 390.00" xmlns="http://www.w3.org/2000/svg" xmlns:xlink="http://www.w3.org/1999/xlink">
<g id="graph0" class="graph" transform="scale(1 1) rotate(0) translate(4 386)">
<title>com.github.aptd.simulation.elements.IBaseElement&lt; N extends IElement&lt;?&gt;.IBaseGenerator&lt; N extends IElement&lt;?&gt;</title>
<!-- Node3 -->
<g id="node1" class="node"><title>Node3</title>
<polygon fill="#bfbfbf" stroke="black" points="0,-1 0,-115 202,-115 202,-1 0,-1"/>
<text text-anchor="start" x="8" y="-103.8" font-family="Helvetica,sans-Serif" font-size="9.00">com.github.aptd.simulation.elements.</text>
<text text-anchor="start" x="8" y="-93.8" font-family="Helvetica,sans-Serif" font-size="9.00">IBaseElement&lt; N extends IElement</text>
<text text-anchor="middle" x="101" y="-83.8" font-family="Helvetica,sans-Serif" font-size="9.00">&lt;?&gt;.IBaseGenerator&lt; N extends IElement&lt;?&gt;</text>
<polyline fill="none" stroke="black" points="0,-77 202,-77 "/>
<text text-anchor="start" x="8" y="-65.8" font-family="Helvetica,sans-Serif" font-size="9.00">&#45; m_factory</text>
<polyline fill="none" stroke="black" points="0,-59 202,-59 "/>
<text text-anchor="start" x="8" y="-47.8" font-family="Helvetica,sans-Serif" font-size="9.00">+ generatesingle()</text>
<text text-anchor="start" x="8" y="-37.8" font-family="Helvetica,sans-Serif" font-size="9.00">+ resetcount()</text>
<text text-anchor="start" x="8" y="-27.8" font-family="Helvetica,sans-Serif" font-size="9.00"># IBaseGenerator()</text>
<text text-anchor="start" x="8" y="-17.8" font-family="Helvetica,sans-Serif" font-size="9.00"># configuration()</text>
<text text-anchor="start" x="8" y="-7.8" font-family="Helvetica,sans-Serif" font-size="9.00"># generate()</text>
</g>
<!-- Node4 -->
<g id="node2" class="node"><title>Node4</title>
<g id="a_node2"><a xlink:href="../../db/d65/interfacecom_1_1github_1_1aptd_1_1simulation_1_1core_1_1time_1_1ITime.htm" target="_top" xlink:title="time interface ">
<polygon fill="none" stroke="black" points="17,-163 17,-267 185,-267 185,-163 17,-163"/>
<text text-anchor="start" x="25" y="-255.8" font-family="Helvetica,sans-Serif" font-size="9.00">com.github.aptd.simulation.core.time.</text>
<text text-anchor="middle" x="101" y="-245.8" font-family="Helvetica,sans-Serif" font-size="9.00">ITime</text>
<polyline fill="none" stroke="black" points="17,-239 185,-239 "/>
<text text-anchor="middle" x="101" y="-227.8" font-family="Helvetica,sans-Serif" font-size="9.00"> </text>
<polyline fill="none" stroke="black" points="17,-221 185,-221 "/>
<text text-anchor="start" x="25" y="-209.8" font-family="Helvetica,sans-Serif" font-size="9.00">+ active()</text>
<text text-anchor="start" x="25" y="-199.8" font-family="Helvetica,sans-Serif" font-size="9.00">+ addagent()</text>
<text text-anchor="start" x="25" y="-189.8" font-family="Helvetica,sans-Serif" font-size="9.00">+ current()</text>
<text text-anchor="start" x="25" y="-179.8" font-family="Helvetica,sans-Serif" font-size="9.00">+ raw()</text>
<text text-anchor="start" x="25" y="-169.8" font-family="Helvetica,sans-Serif" font-size="9.00">+ removeagent()</text>
</a>
</g>
</g>
<!-- Node4&#45;&gt;Node3 -->
<g id="edge1" class="edge"><title>Node4&#45;&gt;Node3</title>
<path fill="none" stroke="#404040" d="M101,-162.818C101,-151.495 101,-139.323 101,-127.439"/>
<polygon fill="none" stroke="#404040" points="101,-127.206 97,-121.206 101,-115.206 105,-121.206 101,-127.206"/>
<text text-anchor="middle" x="120" y="-136.8" font-family="Helvetica,sans-Serif" font-size="9.00"> #m_time</text>
</g>
<!-- Node5 -->
<g id="node3" class="node"><title>Node5</title>
<g id="a_node3"><a xlink:href="../../d4/d0d/interfacecom_1_1github_1_1aptd_1_1simulation_1_1elements_1_1IPerceiveable.htm" target="_top" xlink:title="any object which be perceived by an agent ">
<polygon fill="none" stroke="black" points="17,-307 17,-381 185,-381 185,-307 17,-307"/>
<text text-anchor="start" x="25" y="-369.8" font-family="Helvetica,sans-Serif" font-size="9.00">com.github.aptd.simulation.elements.</text>
<text text-anchor="middle" x="101" y="-359.8" font-family="Helvetica,sans-Serif" font-size="9.00">IPerceiveable</text>
<polyline fill="none" stroke="black" points="17,-353 185,-353 "/>
<text text-anchor="middle" x="101" y="-341.8" font-family="Helvetica,sans-Serif" font-size="9.00"> </text>
<polyline fill="none" stroke="black" points="17,-335 185,-335 "/>
<text text-anchor="start" x="25" y="-323.8" font-family="Helvetica,sans-Serif" font-size="9.00">+ literal()</text>
<text text-anchor="start" x="25" y="-313.8" font-family="Helvetica,sans-Serif" font-size="9.00">+ literal()</text>
</a>
</g>
</g>
<!-- Node5&#45;&gt;Node4 -->
<g id="edge2" class="edge"><title>Node5&#45;&gt;Node4</title>
<path fill="none" stroke="midnightblue" d="M101,-296.814C101,-287.227 101,-277.07 101,-267.313"/>
<polygon fill="none" stroke="midnightblue" points="97.5001,-296.947 101,-306.947 104.5,-296.947 97.5001,-296.947"/>
</g>
</g>
</svg>
