<?xml version="1.0" encoding="UTF-8" standalone="no"?>
<!DOCTYPE svg PUBLIC "-//W3C//DTD SVG 1.1//EN"
 "http://www.w3.org/Graphics/SVG/1.1/DTD/svg11.dtd">
<!-- Generated by graphviz version 2.36.0 (20140111.2315)
 -->
<!-- Title: com.github.aptd.simulation.elements.graph.network.IStation&lt; T extends IStation&lt;?&gt; Pages: 1 -->
<svg width="963pt" height="648pt"
 viewBox="0.00 0.00 963.00 648.00" xmlns="http://www.w3.org/2000/svg" xmlns:xlink="http://www.w3.org/1999/xlink">
<g id="graph0" class="graph" transform="scale(1 1) rotate(0) translate(4 644)">
<title>com.github.aptd.simulation.elements.graph.network.IStation&lt; T extends IStation&lt;?&gt;</title>
<!-- Node0 -->
<g id="node1" class="node"><title>Node0</title>
<polygon fill="#bfbfbf" stroke="black" points="479.5,-297 479.5,-361 708.5,-361 708.5,-297 479.5,-297"/>
<text text-anchor="start" x="487.5" y="-349.8" font-family="Helvetica,sans-Serif" font-size="9.00">com.github.aptd.simulation.elements.graph.network.</text>
<text text-anchor="middle" x="594" y="-339.8" font-family="Helvetica,sans-Serif" font-size="9.00">IStation&lt; T extends IStation&lt;?&gt;</text>
<polyline fill="none" stroke="black" points="479.5,-333 708.5,-333 "/>
<text text-anchor="middle" x="594" y="-321.8" font-family="Helvetica,sans-Serif" font-size="9.00"> </text>
<polyline fill="none" stroke="black" points="479.5,-315 708.5,-315 "/>
<text text-anchor="start" x="487.5" y="-303.8" font-family="Helvetica,sans-Serif" font-size="9.00">+ gps()</text>
</g>
<!-- Node4 -->
<g id="node5" class="node"><title>Node4</title>
<g id="a_node5"><a xlink:href="../../d5/dd9/classcom_1_1github_1_1aptd_1_1simulation_1_1elements_1_1graph_1_1network_1_1local_1_1IBaseStation.htm" target="_top" xlink:title="abstract class of network stations nodes ">
<polygon fill="none" stroke="black" points="327,-125 327,-249 461,-249 461,-125 327,-125"/>
<text text-anchor="start" x="335" y="-237.8" font-family="Helvetica,sans-Serif" font-size="9.00">com::github::aptd::</text>
<text text-anchor="start" x="335" y="-227.8" font-family="Helvetica,sans-Serif" font-size="9.00">simulation::elements</text>
<text text-anchor="start" x="335" y="-217.8" font-family="Helvetica,sans-Serif" font-size="9.00">::graph::network::local</text>
<text text-anchor="middle" x="394" y="-207.8" font-family="Helvetica,sans-Serif" font-size="9.00">::IBaseStation&lt; IStation&lt;?&gt; &gt;</text>
<polyline fill="none" stroke="black" points="327,-201 461,-201 "/>
<text text-anchor="start" x="335" y="-189.8" font-family="Helvetica,sans-Serif" font-size="9.00"># BASEFUNCTOR</text>
<text text-anchor="start" x="335" y="-179.8" font-family="Helvetica,sans-Serif" font-size="9.00">&#45; m_position</text>
<text text-anchor="start" x="335" y="-169.8" font-family="Helvetica,sans-Serif" font-size="9.00">&#45; serialVersionUID</text>
<polyline fill="none" stroke="black" points="327,-163 461,-163 "/>
<text text-anchor="start" x="335" y="-151.8" font-family="Helvetica,sans-Serif" font-size="9.00">+ gps()</text>
<text text-anchor="start" x="335" y="-141.8" font-family="Helvetica,sans-Serif" font-size="9.00"># IBaseStation()</text>
<text text-anchor="start" x="335" y="-131.8" font-family="Helvetica,sans-Serif" font-size="9.00"># individualliteral()</text>
</a>
</g>
</g>
<!-- Node0&#45;&gt;Node4 -->
<g id="edge4" class="edge"><title>Node0&#45;&gt;Node4</title>
<path fill="none" stroke="midnightblue" d="M532.907,-291.642C512.546,-278.981 489.972,-264.346 470,-250 467.096,-247.914 464.156,-245.753 461.208,-243.543"/>
<polygon fill="none" stroke="midnightblue" points="531.137,-294.662 541.484,-296.94 534.816,-288.707 531.137,-294.662"/>
</g>
<!-- Node8 -->
<g id="node9" class="node"><title>Node8</title>
<g id="a_node9"><a xlink:href="../../d7/d7a/interfacecom_1_1github_1_1aptd_1_1simulation_1_1elements_1_1graph_1_1network_1_1IStation.htm" target="_top" xlink:title="{com.github.aptd.simulation.elements.graph.network.\lIStation\&lt; IStation\&lt;?\&gt; \&gt;\n||+ gps()\l}">
<polygon fill="none" stroke="black" points="479.5,-155 479.5,-219 708.5,-219 708.5,-155 479.5,-155"/>
<text text-anchor="start" x="487.5" y="-207.8" font-family="Helvetica,sans-Serif" font-size="9.00">com.github.aptd.simulation.elements.graph.network.</text>
<text text-anchor="middle" x="594" y="-197.8" font-family="Helvetica,sans-Serif" font-size="9.00">IStation&lt; IStation&lt;?&gt; &gt;</text>
<polyline fill="none" stroke="black" points="479.5,-191 708.5,-191 "/>
<text text-anchor="middle" x="594" y="-179.8" font-family="Helvetica,sans-Serif" font-size="9.00"> </text>
<polyline fill="none" stroke="black" points="479.5,-173 708.5,-173 "/>
<text text-anchor="start" x="487.5" y="-161.8" font-family="Helvetica,sans-Serif" font-size="9.00">+ gps()</text>
</a>
</g>
</g>
<!-- Node0&#45;&gt;Node8 -->
<g id="edge8" class="edge"><title>Node0&#45;&gt;Node8</title>
<path fill="none" stroke="orange" d="M594,-286.766C594,-265.251 594,-239.348 594,-219.468"/>
<polygon fill="orange" stroke="orange" points="590.5,-286.929 594,-296.929 597.5,-286.929 590.5,-286.929"/>
<text text-anchor="middle" x="626" y="-270.8" font-family="Helvetica,sans-Serif" font-size="9.00"> &lt; IStation&lt;?&gt; &gt;</text>
</g>
<!-- Node9 -->
<g id="node10" class="node"><title>Node9</title>
<g id="a_node10"><a xlink:href="../../d7/d7a/interfacecom_1_1github_1_1aptd_1_1simulation_1_1elements_1_1graph_1_1network_1_1IStation.htm" target="_top" xlink:title="{com.github.aptd.simulation.elements.graph.network.\lIStation\&lt;?\&gt;\n||+ gps()\l}">
<polygon fill="none" stroke="black" points="726.5,-155 726.5,-219 955.5,-219 955.5,-155 726.5,-155"/>
<text text-anchor="start" x="734.5" y="-207.8" font-family="Helvetica,sans-Serif" font-size="9.00">com.github.aptd.simulation.elements.graph.network.</text>
<text text-anchor="middle" x="841" y="-197.8" font-family="Helvetica,sans-Serif" font-size="9.00">IStation&lt;?&gt;</text>
<polyline fill="none" stroke="black" points="726.5,-191 955.5,-191 "/>
<text text-anchor="middle" x="841" y="-179.8" font-family="Helvetica,sans-Serif" font-size="9.00"> </text>
<polyline fill="none" stroke="black" points="726.5,-173 955.5,-173 "/>
<text text-anchor="start" x="734.5" y="-161.8" font-family="Helvetica,sans-Serif" font-size="9.00">+ gps()</text>
</a>
</g>
</g>
<!-- Node0&#45;&gt;Node9 -->
<g id="edge9" class="edge"><title>Node0&#45;&gt;Node9</title>
<path fill="none" stroke="orange" d="M657.629,-291.935C697.332,-269.431 747.927,-240.754 785.909,-219.225"/>
<polygon fill="orange" stroke="orange" points="655.791,-288.953 648.817,-296.929 659.243,-295.043 655.791,-288.953"/>
<text text-anchor="middle" x="704.5" y="-270.8" font-family="Helvetica,sans-Serif" font-size="9.00"> &lt;?&gt;</text>
</g>
<!-- Node1 -->
<g id="node2" class="node"><title>Node1</title>
<g id="a_node2"><a xlink:href="../../de/d20/interfacecom_1_1github_1_1aptd_1_1simulation_1_1elements_1_1graph_1_1IVertex.htm" target="_top" xlink:title="interface of graph nodes ">
<polygon fill="none" stroke="black" points="507.5,-426 507.5,-500 608.5,-500 608.5,-426 507.5,-426"/>
<text text-anchor="start" x="515.5" y="-488.8" font-family="Helvetica,sans-Serif" font-size="9.00">com::github::aptd::</text>
<text text-anchor="start" x="515.5" y="-478.8" font-family="Helvetica,sans-Serif" font-size="9.00">simulation::elements</text>
<text text-anchor="middle" x="558" y="-468.8" font-family="Helvetica,sans-Serif" font-size="9.00">::graph::IVertex&lt; T &gt;</text>
<polyline fill="none" stroke="black" points="507.5,-462 608.5,-462 "/>
<text text-anchor="middle" x="558" y="-450.8" font-family="Helvetica,sans-Serif" font-size="9.00"> </text>
<polyline fill="none" stroke="black" points="507.5,-444 608.5,-444 "/>
<text text-anchor="middle" x="558" y="-432.8" font-family="Helvetica,sans-Serif" font-size="9.00"> </text>
</a>
</g>
</g>
<!-- Node1&#45;&gt;Node0 -->
<g id="edge1" class="edge"><title>Node1&#45;&gt;Node0</title>
<path fill="none" stroke="midnightblue" d="M570.518,-416.101C575.476,-397.92 581.048,-377.49 585.52,-361.094"/>
<polygon fill="none" stroke="midnightblue" points="567.092,-415.362 567.837,-425.93 573.845,-417.204 567.092,-415.362"/>
</g>
<!-- Node2 -->
<g id="node3" class="node"><title>Node2</title>
<g id="a_node3"><a xlink:href="../../dd/dd7/interfacecom_1_1github_1_1aptd_1_1simulation_1_1elements_1_1IElement.htm" target="_top" xlink:title="any object interface ">
<polygon fill="none" stroke="black" points="626.5,-401 626.5,-525 727.5,-525 727.5,-401 626.5,-401"/>
<text text-anchor="start" x="634.5" y="-513.8" font-family="Helvetica,sans-Serif" font-size="9.00">com::github::aptd::</text>
<text text-anchor="start" x="634.5" y="-503.8" font-family="Helvetica,sans-Serif" font-size="9.00">simulation::elements</text>
<text text-anchor="middle" x="677" y="-493.8" font-family="Helvetica,sans-Serif" font-size="9.00">::IElement&lt; T &gt;</text>
<polyline fill="none" stroke="black" points="626.5,-487 727.5,-487 "/>
<text text-anchor="middle" x="677" y="-475.8" font-family="Helvetica,sans-Serif" font-size="9.00"> </text>
<polyline fill="none" stroke="black" points="626.5,-469 727.5,-469 "/>
<text text-anchor="start" x="634.5" y="-457.8" font-family="Helvetica,sans-Serif" font-size="9.00">+ environment()</text>
<text text-anchor="start" x="634.5" y="-447.8" font-family="Helvetica,sans-Serif" font-size="9.00">+ id()</text>
<text text-anchor="start" x="634.5" y="-437.8" font-family="Helvetica,sans-Serif" font-size="9.00">+ imminent()</text>
<text text-anchor="start" x="634.5" y="-427.8" font-family="Helvetica,sans-Serif" font-size="9.00">+ input()</text>
<text text-anchor="start" x="634.5" y="-417.8" font-family="Helvetica,sans-Serif" font-size="9.00">+ nextactivation()</text>
<text text-anchor="start" x="634.5" y="-407.8" font-family="Helvetica,sans-Serif" font-size="9.00">+ output()</text>
</a>
</g>
</g>
<!-- Node2&#45;&gt;Node0 -->
<g id="edge2" class="edge"><title>Node2&#45;&gt;Node0</title>
<path fill="none" stroke="midnightblue" d="M632.942,-391.932C626.124,-381.089 619.399,-370.394 613.506,-361.021"/>
<polygon fill="none" stroke="midnightblue" points="630.13,-394.035 638.416,-400.637 636.056,-390.309 630.13,-394.035"/>
</g>
<!-- Node3 -->
<g id="node4" class="node"><title>Node3</title>
<g id="a_node4"><a xlink:href="../../d4/d0d/interfacecom_1_1github_1_1aptd_1_1simulation_1_1elements_1_1IPerceiveable.htm" target="_top" xlink:title="any object which be perceived by an agent ">
<polygon fill="none" stroke="black" points="593,-565 593,-639 761,-639 761,-565 593,-565"/>
<text text-anchor="start" x="601" y="-627.8" font-family="Helvetica,sans-Serif" font-size="9.00">com.github.aptd.simulation.elements.</text>
<text text-anchor="middle" x="677" y="-617.8" font-family="Helvetica,sans-Serif" font-size="9.00">IPerceiveable</text>
<polyline fill="none" stroke="black" points="593,-611 761,-611 "/>
<text text-anchor="middle" x="677" y="-599.8" font-family="Helvetica,sans-Serif" font-size="9.00"> </text>
<polyline fill="none" stroke="black" points="593,-593 761,-593 "/>
<text text-anchor="start" x="601" y="-581.8" font-family="Helvetica,sans-Serif" font-size="9.00">+ literal()</text>
<text text-anchor="start" x="601" y="-571.8" font-family="Helvetica,sans-Serif" font-size="9.00">+ literal()</text>
</a>
</g>
</g>
<!-- Node3&#45;&gt;Node2 -->
<g id="edge3" class="edge"><title>Node3&#45;&gt;Node2</title>
<path fill="none" stroke="midnightblue" d="M677,-554.35C677,-544.963 677,-534.963 677,-525.166"/>
<polygon fill="none" stroke="midnightblue" points="673.5,-554.646 677,-564.646 680.5,-554.646 673.5,-554.646"/>
</g>
<!-- Node5 -->
<g id="node6" class="node"><title>Node5</title>
<g id="a_node6"><a xlink:href="../../d6/d36/classcom_1_1github_1_1aptd_1_1simulation_1_1elements_1_1graph_1_1network_1_1local_1_1CStation.htm" target="_top" xlink:title="full station with different tracks and building ">
<polygon fill="none" stroke="black" points="-0.5,-1 -0.5,-85 250.5,-85 250.5,-1 -0.5,-1"/>
<text text-anchor="start" x="7.5" y="-73.8" font-family="Helvetica,sans-Serif" font-size="9.00">com.github.aptd.simulation.elements.graph.network.local.</text>
<text text-anchor="middle" x="125" y="-63.8" font-family="Helvetica,sans-Serif" font-size="9.00">CStation</text>
<polyline fill="none" stroke="black" points="-0.5,-57 250.5,-57 "/>
<text text-anchor="start" x="7.5" y="-45.8" font-family="Helvetica,sans-Serif" font-size="9.00">&#45; m_platformoccupation</text>
<text text-anchor="start" x="7.5" y="-35.8" font-family="Helvetica,sans-Serif" font-size="9.00">&#45; FUNCTOR</text>
<text text-anchor="start" x="7.5" y="-25.8" font-family="Helvetica,sans-Serif" font-size="9.00">&#45; serialVersionUID</text>
<polyline fill="none" stroke="black" points="-0.5,-19 250.5,-19 "/>
<text text-anchor="start" x="7.5" y="-7.8" font-family="Helvetica,sans-Serif" font-size="9.00">&#45; CStation()</text>
</a>
</g>
</g>
<!-- Node4&#45;&gt;Node5 -->
<g id="edge5" class="edge"><title>Node4&#45;&gt;Node5</title>
<path fill="none" stroke="midnightblue" d="M317.822,-145.787C281.836,-126.791 238.943,-104.148 202.758,-85.047"/>
<polygon fill="none" stroke="midnightblue" points="316.336,-148.961 326.814,-150.534 319.604,-142.77 316.336,-148.961"/>
</g>
<!-- Node6 -->
<g id="node7" class="node"><title>Node6</title>
<g id="a_node7"><a xlink:href="../../d8/d3b/classcom_1_1github_1_1aptd_1_1simulation_1_1elements_1_1graph_1_1network_1_1local_1_1CTransit.htm" target="_top" xlink:title="transit station class to define a station without details of tracks ">
<polygon fill="none" stroke="black" points="268.5,-6 268.5,-80 519.5,-80 519.5,-6 268.5,-6"/>
<text text-anchor="start" x="276.5" y="-68.8" font-family="Helvetica,sans-Serif" font-size="9.00">com.github.aptd.simulation.elements.graph.network.local.</text>
<text text-anchor="middle" x="394" y="-58.8" font-family="Helvetica,sans-Serif" font-size="9.00">CTransit</text>
<polyline fill="none" stroke="black" points="268.5,-52 519.5,-52 "/>
<text text-anchor="start" x="276.5" y="-40.8" font-family="Helvetica,sans-Serif" font-size="9.00">&#45; FUNCTOR</text>
<text text-anchor="start" x="276.5" y="-30.8" font-family="Helvetica,sans-Serif" font-size="9.00">&#45; serialVersionUID</text>
<polyline fill="none" stroke="black" points="268.5,-24 519.5,-24 "/>
<text text-anchor="start" x="276.5" y="-12.8" font-family="Helvetica,sans-Serif" font-size="9.00">&#45; CTransit()</text>
</a>
</g>
</g>
<!-- Node4&#45;&gt;Node6 -->
<g id="edge6" class="edge"><title>Node4&#45;&gt;Node6</title>
<path fill="none" stroke="midnightblue" d="M394,-114.931C394,-102.963 394,-90.9982 394,-80.3956"/>
<polygon fill="none" stroke="midnightblue" points="390.5,-114.955 394,-124.955 397.5,-114.955 390.5,-114.955"/>
</g>
<!-- Node7 -->
<g id="node8" class="node"><title>Node7</title>
<g id="a_node8"><a xlink:href="../../da/db4/classcom_1_1github_1_1aptd_1_1simulation_1_1elements_1_1graph_1_1network_1_1local_1_1CVirtual.htm" target="_top" xlink:title="virtual node ">
<polygon fill="none" stroke="black" points="537.5,-6 537.5,-80 788.5,-80 788.5,-6 537.5,-6"/>
<text text-anchor="start" x="545.5" y="-68.8" font-family="Helvetica,sans-Serif" font-size="9.00">com.github.aptd.simulation.elements.graph.network.local.</text>
<text text-anchor="middle" x="663" y="-58.8" font-family="Helvetica,sans-Serif" font-size="9.00">CVirtual</text>
<polyline fill="none" stroke="black" points="537.5,-52 788.5,-52 "/>
<text text-anchor="start" x="545.5" y="-40.8" font-family="Helvetica,sans-Serif" font-size="9.00">&#45; FUNCTOR</text>
<text text-anchor="start" x="545.5" y="-30.8" font-family="Helvetica,sans-Serif" font-size="9.00">&#45; serialVersionUID</text>
<polyline fill="none" stroke="black" points="537.5,-24 788.5,-24 "/>
<text text-anchor="start" x="545.5" y="-12.8" font-family="Helvetica,sans-Serif" font-size="9.00">&#45; CVirtual()</text>
</a>
</g>
</g>
<!-- Node4&#45;&gt;Node7 -->
<g id="edge7" class="edge"><title>Node4&#45;&gt;Node7</title>
<path fill="none" stroke="midnightblue" d="M469.726,-124.164C469.817,-124.109 469.909,-124.055 470,-124 498.022,-107.255 530.196,-92.3961 560.138,-80.1668"/>
<polygon fill="none" stroke="midnightblue" points="467.814,-121.232 461.227,-129.53 471.552,-127.151 467.814,-121.232"/>
</g>
</g>
</svg>
