<?xml version="1.0" encoding="UTF-8" standalone="no"?>
<!DOCTYPE svg PUBLIC "-//W3C//DTD SVG 1.1//EN"
 "http://www.w3.org/Graphics/SVG/1.1/DTD/svg11.dtd">
<!-- Generated by graphviz version 2.36.0 (20140111.2315)
 -->
<!-- Title: com.github.aptd.simulation.elements.train.CTrain.determinenextstatechange Pages: 1 -->
<svg width="644pt" height="36pt"
 viewBox="0.00 0.00 644.00 36.00" xmlns="http://www.w3.org/2000/svg" xmlns:xlink="http://www.w3.org/1999/xlink">
<g id="graph0" class="graph" transform="scale(1 1) rotate(0) translate(4 32)">
<title>com.github.aptd.simulation.elements.train.CTrain.determinenextstatechange</title>
<!-- Node12 -->
<g id="node1" class="node"><title>Node12</title>
<polygon fill="#bfbfbf" stroke="black" points="0,-0 0,-28 188,-28 188,-0 0,-0"/>
<text text-anchor="start" x="8" y="-16.8" font-family="Helvetica,sans-Serif" font-size="9.00">com.github.aptd.simulation.elements.train.</text>
<text text-anchor="middle" x="94" y="-6.8" font-family="Helvetica,sans-Serif" font-size="9.00">CTrain.determinenextstatechange</text>
</g>
<!-- Node13 -->
<g id="node2" class="node"><title>Node13</title>
<g id="a_node2"><a xlink:href="../../d1/db4/classcom_1_1github_1_1aptd_1_1simulation_1_1elements_1_1train_1_1CTrain.htm#af6c0e1b15fe6d78b01af63e295993495" target="_top" xlink:title="ctor ">
<polygon fill="none" stroke="black" points="224,-0 224,-28 412,-28 412,-0 224,-0"/>
<text text-anchor="start" x="232" y="-16.8" font-family="Helvetica,sans-Serif" font-size="9.00">com.github.aptd.simulation.elements.train.</text>
<text text-anchor="middle" x="318" y="-6.8" font-family="Helvetica,sans-Serif" font-size="9.00">CTrain.CTrain</text>
</a>
</g>
</g>
<!-- Node12&#45;&gt;Node13 -->
<g id="edge1" class="edge"><title>Node12&#45;&gt;Node13</title>
<path fill="none" stroke="midnightblue" d="M198.425,-14C206.857,-14 215.347,-14 223.7,-14"/>
<polygon fill="midnightblue" stroke="midnightblue" points="198.183,-10.5001 188.183,-14 198.183,-17.5001 198.183,-10.5001"/>
</g>
<!-- Node14 -->
<g id="node3" class="node"><title>Node14</title>
<g id="a_node3"><a xlink:href="../../df/d99/classcom_1_1github_1_1aptd_1_1simulation_1_1elements_1_1train_1_1CTrain_1_1CGenerator.htm#abbca7d9bfd2c067e331f5509d807b869" target="_top" xlink:title="com.github.aptd.simulation.elements.train.\lCTrain.CGenerator.generate">
<polygon fill="none" stroke="black" points="448,-0 448,-28 636,-28 636,-0 448,-0"/>
<text text-anchor="start" x="456" y="-16.8" font-family="Helvetica,sans-Serif" font-size="9.00">com.github.aptd.simulation.elements.train.</text>
<text text-anchor="middle" x="542" y="-6.8" font-family="Helvetica,sans-Serif" font-size="9.00">CTrain.CGenerator.generate</text>
</a>
</g>
</g>
<!-- Node13&#45;&gt;Node14 -->
<g id="edge2" class="edge"><title>Node13&#45;&gt;Node14</title>
<path fill="none" stroke="midnightblue" d="M422.425,-14C430.857,-14 439.347,-14 447.7,-14"/>
<polygon fill="midnightblue" stroke="midnightblue" points="422.183,-10.5001 412.183,-14 422.183,-17.5001 422.183,-10.5001"/>
</g>
</g>
</svg>
