<?xml version="1.0" encoding="UTF-8" standalone="no"?>
<!DOCTYPE svg PUBLIC "-//W3C//DTD SVG 1.1//EN"
 "http://www.w3.org/Graphics/SVG/1.1/DTD/svg11.dtd">
<!-- Generated by graphviz version 2.36.0 (20140111.2315)
 -->
<!-- Title: com.github.aptd.simulation.elements.train.CTrain.CTrain Pages: 1 -->
<svg width="420pt" height="130pt"
 viewBox="0.00 0.00 420.00 130.00" xmlns="http://www.w3.org/2000/svg" xmlns:xlink="http://www.w3.org/1999/xlink">
<g id="graph0" class="graph" transform="scale(1 1) rotate(0) translate(4 126)">
<title>com.github.aptd.simulation.elements.train.CTrain.CTrain</title>
<!-- Node0 -->
<g id="node1" class="node"><title>Node0</title>
<polygon fill="#bfbfbf" stroke="black" points="0,-47 0,-75 188,-75 188,-47 0,-47"/>
<text text-anchor="start" x="8" y="-63.8" font-family="Helvetica,sans-Serif" font-size="9.00">com.github.aptd.simulation.elements.train.</text>
<text text-anchor="middle" x="94" y="-53.8" font-family="Helvetica,sans-Serif" font-size="9.00">CTrain.CTrain</text>
</g>
<!-- Node1 -->
<g id="node2" class="node"><title>Node1</title>
<g id="a_node2"><a xlink:href="../../db/d65/interfacecom_1_1github_1_1aptd_1_1simulation_1_1core_1_1time_1_1ITime.htm#a5b549eba2607f2e3f2cc9800e5164ea1" target="_top" xlink:title="get the current time ">
<polygon fill="none" stroke="black" points="234,-94 234,-122 402,-122 402,-94 234,-94"/>
<text text-anchor="start" x="242" y="-110.8" font-family="Helvetica,sans-Serif" font-size="9.00">com.github.aptd.simulation.core.time.</text>
<text text-anchor="middle" x="318" y="-100.8" font-family="Helvetica,sans-Serif" font-size="9.00">ITime.current</text>
</a>
</g>
</g>
<!-- Node0&#45;&gt;Node1 -->
<g id="edge1" class="edge"><title>Node0&#45;&gt;Node1</title>
<path fill="none" stroke="midnightblue" d="M161.307,-75.0379C186.234,-80.3153 214.771,-86.3569 240.548,-91.8141"/>
<polygon fill="midnightblue" stroke="midnightblue" points="240.144,-95.3061 250.652,-93.9533 241.594,-88.4579 240.144,-95.3061"/>
</g>
<!-- Node2 -->
<g id="node3" class="node"><title>Node2</title>
<g id="a_node3"><a xlink:href="../../d1/db4/classcom_1_1github_1_1aptd_1_1simulation_1_1elements_1_1train_1_1CTrain.htm#a5b10ff07d0f20d17a66411569f973195" target="_top" xlink:title="com.github.aptd.simulation.elements.train.\lCTrain.determinenextstatechange">
<polygon fill="none" stroke="black" points="224,-47 224,-75 412,-75 412,-47 224,-47"/>
<text text-anchor="start" x="232" y="-63.8" font-family="Helvetica,sans-Serif" font-size="9.00">com.github.aptd.simulation.elements.train.</text>
<text text-anchor="middle" x="318" y="-53.8" font-family="Helvetica,sans-Serif" font-size="9.00">CTrain.determinenextstatechange</text>
</a>
</g>
</g>
<!-- Node0&#45;&gt;Node2 -->
<g id="edge2" class="edge"><title>Node0&#45;&gt;Node2</title>
<path fill="none" stroke="midnightblue" d="M188.183,-61C196.535,-61 205.024,-61 213.456,-61"/>
<polygon fill="midnightblue" stroke="midnightblue" points="213.7,-64.5001 223.7,-61 213.699,-57.5001 213.7,-64.5001"/>
</g>
<!-- Node3 -->
<g id="node4" class="node"><title>Node3</title>
<g id="a_node4"><a xlink:href="../../d8/d16/classcom_1_1github_1_1aptd_1_1simulation_1_1elements_1_1IStatefulElement.htm#a9f60927cebd69981b235a63cc656adab" target="_top" xlink:title="com.github.aptd.simulation.elements.\lIStatefulElement.output">
<polygon fill="none" stroke="black" points="234,-0 234,-28 402,-28 402,-0 234,-0"/>
<text text-anchor="start" x="242" y="-16.8" font-family="Helvetica,sans-Serif" font-size="9.00">com.github.aptd.simulation.elements.</text>
<text text-anchor="middle" x="318" y="-6.8" font-family="Helvetica,sans-Serif" font-size="9.00">IStatefulElement.output</text>
</a>
</g>
</g>
<!-- Node0&#45;&gt;Node3 -->
<g id="edge3" class="edge"><title>Node0&#45;&gt;Node3</title>
<path fill="none" stroke="midnightblue" d="M161.307,-46.9621C186.234,-41.6847 214.771,-35.6431 240.548,-30.1859"/>
<polygon fill="midnightblue" stroke="midnightblue" points="241.594,-33.5421 250.652,-28.0467 240.144,-26.6939 241.594,-33.5421"/>
</g>
</g>
</svg>
