<?xml version="1.0" encoding="UTF-8" standalone="no"?>
<!DOCTYPE svg PUBLIC "-//W3C//DTD SVG 1.1//EN"
 "http://www.w3.org/Graphics/SVG/1.1/DTD/svg11.dtd">
<!-- Generated by graphviz version 2.36.0 (20140111.2315)
 -->
<!-- Title: com.github.aptd.simulation.elements.passenger.CPassenger Pages: 1 -->
<svg width="1299pt" height="1776pt"
 viewBox="0.00 0.00 1299.00 1776.00" xmlns="http://www.w3.org/2000/svg" xmlns:xlink="http://www.w3.org/1999/xlink">
<g id="graph0" class="graph" transform="scale(1 1) rotate(0) translate(4 1772)">
<title>com.github.aptd.simulation.elements.passenger.CPassenger</title>
<!-- Node10 -->
<g id="node1" class="node"><title>Node10</title>
<polygon fill="#bfbfbf" stroke="black" points="508,-1 508,-245 722,-245 722,-1 508,-1"/>
<text text-anchor="start" x="516" y="-233.8" font-family="Helvetica,sans-Serif" font-size="9.00">com.github.aptd.simulation.elements.passenger.</text>
<text text-anchor="middle" x="615" y="-223.8" font-family="Helvetica,sans-Serif" font-size="9.00">CPassenger</text>
<polyline fill="none" stroke="black" points="508,-217 722,-217 "/>
<text text-anchor="start" x="516" y="-205.8" font-family="Helvetica,sans-Serif" font-size="9.00">&#45; m_destination</text>
<text text-anchor="start" x="516" y="-195.8" font-family="Helvetica,sans-Serif" font-size="9.00">&#45; m_distancetonextplatform</text>
<text text-anchor="start" x="516" y="-185.8" font-family="Helvetica,sans-Serif" font-size="9.00">&#45; m_distancewalked</text>
<text text-anchor="start" x="516" y="-175.8" font-family="Helvetica,sans-Serif" font-size="9.00">&#45; m_dooruse</text>
<text text-anchor="start" x="516" y="-165.8" font-family="Helvetica,sans-Serif" font-size="9.00">&#45; m_entranceduration</text>
<text text-anchor="start" x="516" y="-155.8" font-family="Helvetica,sans-Serif" font-size="9.00">&#45; m_exitduration</text>
<text text-anchor="start" x="516" y="-145.8" font-family="Helvetica,sans-Serif" font-size="9.00">&#45; m_itindex</text>
<text text-anchor="start" x="516" y="-135.8" font-family="Helvetica,sans-Serif" font-size="9.00">&#45; m_itinerary</text>
<text text-anchor="start" x="516" y="-125.8" font-family="Helvetica,sans-Serif" font-size="9.00">&#45; m_origin</text>
<text text-anchor="start" x="516" y="-115.8" font-family="Helvetica,sans-Serif" font-size="9.00">&#45; m_speedatstation</text>
<text text-anchor="start" x="516" y="-105.8" font-family="Helvetica,sans-Serif" font-size="9.00">&#45; FUNCTOR</text>
<text text-anchor="start" x="516" y="-95.8" font-family="Helvetica,sans-Serif" font-size="9.00">&#45; serialVersionUID</text>
<polyline fill="none" stroke="black" points="508,-89 722,-89 "/>
<text text-anchor="start" x="516" y="-77.8" font-family="Helvetica,sans-Serif" font-size="9.00"># determinenextstatechange()</text>
<text text-anchor="start" x="516" y="-67.8" font-family="Helvetica,sans-Serif" font-size="9.00"># individualliteral()</text>
<text text-anchor="start" x="516" y="-57.8" font-family="Helvetica,sans-Serif" font-size="9.00"># updatecontinuous()</text>
<text text-anchor="start" x="516" y="-47.8" font-family="Helvetica,sans-Serif" font-size="9.00"># updatestate()</text>
<text text-anchor="start" x="516" y="-37.8" font-family="Helvetica,sans-Serif" font-size="9.00"># writeState()</text>
<text text-anchor="start" x="516" y="-27.8" font-family="Helvetica,sans-Serif" font-size="9.00">&#45; CPassenger()</text>
<text text-anchor="start" x="516" y="-17.8" font-family="Helvetica,sans-Serif" font-size="9.00">&#45; handledoormessage()</text>
<text text-anchor="start" x="516" y="-7.8" font-family="Helvetica,sans-Serif" font-size="9.00">&#45; handleplatformmessages()</text>
</g>
<!-- Node11 -->
<g id="node2" class="node"><title>Node11</title>
<g id="a_node2"><a xlink:href="../../d8/d16/classcom_1_1github_1_1aptd_1_1simulation_1_1elements_1_1IStatefulElement.htm" target="_top" xlink:title="stateful base element with internal transitions and output queueing ">
<polygon fill="none" stroke="black" points="1.5,-293 1.5,-527 166.5,-527 166.5,-293 1.5,-293"/>
<text text-anchor="start" x="9.5" y="-515.8" font-family="Helvetica,sans-Serif" font-size="9.00">com::github::aptd::</text>
<text text-anchor="start" x="9.5" y="-505.8" font-family="Helvetica,sans-Serif" font-size="9.00">simulation::elements</text>
<text text-anchor="middle" x="84" y="-495.8" font-family="Helvetica,sans-Serif" font-size="9.00">::IStatefulElement&lt; IPassenger&lt;?&gt; &gt;</text>
<polyline fill="none" stroke="black" points="1.5,-489 166.5,-489 "/>
<text text-anchor="start" x="9.5" y="-477.8" font-family="Helvetica,sans-Serif" font-size="9.00"># m_lastcontinuousupdate</text>
<text text-anchor="start" x="9.5" y="-467.8" font-family="Helvetica,sans-Serif" font-size="9.00"># m_laststatechange</text>
<text text-anchor="start" x="9.5" y="-457.8" font-family="Helvetica,sans-Serif" font-size="9.00"># m_nextstatechange</text>
<text text-anchor="start" x="9.5" y="-447.8" font-family="Helvetica,sans-Serif" font-size="9.00">&#45; m_factory</text>
<text text-anchor="start" x="9.5" y="-437.8" font-family="Helvetica,sans-Serif" font-size="9.00">&#45; m_output</text>
<text text-anchor="start" x="9.5" y="-427.8" font-family="Helvetica,sans-Serif" font-size="9.00">&#45; serialVersionUID</text>
<polyline fill="none" stroke="black" points="1.5,-421 166.5,-421 "/>
<text text-anchor="start" x="9.5" y="-409.8" font-family="Helvetica,sans-Serif" font-size="9.00">+ nextstatechange()</text>
<text text-anchor="start" x="9.5" y="-399.8" font-family="Helvetica,sans-Serif" font-size="9.00">+ output()</text>
<text text-anchor="start" x="9.5" y="-389.8" font-family="Helvetica,sans-Serif" font-size="9.00">+ getDefaultAsl()</text>
<text text-anchor="start" x="9.5" y="-379.8" font-family="Helvetica,sans-Serif" font-size="9.00"># IStatefulElement()</text>
<text text-anchor="start" x="9.5" y="-369.8" font-family="Helvetica,sans-Serif" font-size="9.00"># continuousupdate()</text>
<text text-anchor="start" x="9.5" y="-359.8" font-family="Helvetica,sans-Serif" font-size="9.00"># determinenextstatechange()</text>
<text text-anchor="start" x="9.5" y="-349.8" font-family="Helvetica,sans-Serif" font-size="9.00"># flushOutput()</text>
<text text-anchor="start" x="9.5" y="-339.8" font-family="Helvetica,sans-Serif" font-size="9.00"># output()</text>
<text text-anchor="start" x="9.5" y="-329.8" font-family="Helvetica,sans-Serif" font-size="9.00"># transition()</text>
<text text-anchor="start" x="9.5" y="-319.8" font-family="Helvetica,sans-Serif" font-size="9.00"># updatecontinuous()</text>
<text text-anchor="start" x="9.5" y="-309.8" font-family="Helvetica,sans-Serif" font-size="9.00"># updatestate()</text>
<text text-anchor="start" x="9.5" y="-299.8" font-family="Helvetica,sans-Serif" font-size="9.00"># writeState()</text>
</a>
</g>
</g>
<!-- Node11&#45;&gt;Node10 -->
<g id="edge1" class="edge"><title>Node11&#45;&gt;Node10</title>
<path fill="none" stroke="midnightblue" d="M174.344,-293.988C175.225,-293.315 176.111,-292.652 177,-292 277.323,-218.434 413.864,-172.846 507.685,-148.04"/>
<polygon fill="none" stroke="midnightblue" points="172.106,-291.296 166.523,-300.3 176.503,-296.743 172.106,-291.296"/>
</g>
<!-- Node12 -->
<g id="node3" class="node"><title>Node12</title>
<g id="a_node3"><a xlink:href="../../d6/df3/classcom_1_1github_1_1aptd_1_1simulation_1_1elements_1_1IBaseElement.htm" target="_top" xlink:title="{com.github.aptd.simulation.elements.\lIBaseElement\&lt; N \&gt;\n|# m_id\l# m_input\l# m_nextactivation\l# m_time\l&#45; m_environment\l&#45; m_external\l&#45; m_functor\l&#45; m_timezone\l&#45; serialVersionUID\l|+ call()\l+ environment()\l+ equals()\l+ hashCode()\l+ id()\l+ imminent()\l+ input()\l+ literal()\l+ literal()\l+ nextactivation()\l+ output()\l+ toString()\l# IBaseElement()\l# individualliteral()\l&#45; currentTime()\l&#45; getNextActivation()\l&#45; maxTime()\l&#45; setNextActivation()\l}">
<polygon fill="none" stroke="black" points="0,-575 0,-889 168,-889 168,-575 0,-575"/>
<text text-anchor="start" x="8" y="-877.8" font-family="Helvetica,sans-Serif" font-size="9.00">com.github.aptd.simulation.elements.</text>
<text text-anchor="middle" x="84" y="-867.8" font-family="Helvetica,sans-Serif" font-size="9.00">IBaseElement&lt; N &gt;</text>
<polyline fill="none" stroke="black" points="0,-861 168,-861 "/>
<text text-anchor="start" x="8" y="-849.8" font-family="Helvetica,sans-Serif" font-size="9.00"># m_id</text>
<text text-anchor="start" x="8" y="-839.8" font-family="Helvetica,sans-Serif" font-size="9.00"># m_input</text>
<text text-anchor="start" x="8" y="-829.8" font-family="Helvetica,sans-Serif" font-size="9.00"># m_nextactivation</text>
<text text-anchor="start" x="8" y="-819.8" font-family="Helvetica,sans-Serif" font-size="9.00"># m_time</text>
<text text-anchor="start" x="8" y="-809.8" font-family="Helvetica,sans-Serif" font-size="9.00">&#45; m_environment</text>
<text text-anchor="start" x="8" y="-799.8" font-family="Helvetica,sans-Serif" font-size="9.00">&#45; m_external</text>
<text text-anchor="start" x="8" y="-789.8" font-family="Helvetica,sans-Serif" font-size="9.00">&#45; m_functor</text>
<text text-anchor="start" x="8" y="-779.8" font-family="Helvetica,sans-Serif" font-size="9.00">&#45; m_timezone</text>
<text text-anchor="start" x="8" y="-769.8" font-family="Helvetica,sans-Serif" font-size="9.00">&#45; serialVersionUID</text>
<polyline fill="none" stroke="black" points="0,-763 168,-763 "/>
<text text-anchor="start" x="8" y="-751.8" font-family="Helvetica,sans-Serif" font-size="9.00">+ call()</text>
<text text-anchor="start" x="8" y="-741.8" font-family="Helvetica,sans-Serif" font-size="9.00">+ environment()</text>
<text text-anchor="start" x="8" y="-731.8" font-family="Helvetica,sans-Serif" font-size="9.00">+ equals()</text>
<text text-anchor="start" x="8" y="-721.8" font-family="Helvetica,sans-Serif" font-size="9.00">+ hashCode()</text>
<text text-anchor="start" x="8" y="-711.8" font-family="Helvetica,sans-Serif" font-size="9.00">+ id()</text>
<text text-anchor="start" x="8" y="-701.8" font-family="Helvetica,sans-Serif" font-size="9.00">+ imminent()</text>
<text text-anchor="start" x="8" y="-691.8" font-family="Helvetica,sans-Serif" font-size="9.00">+ input()</text>
<text text-anchor="start" x="8" y="-681.8" font-family="Helvetica,sans-Serif" font-size="9.00">+ literal()</text>
<text text-anchor="start" x="8" y="-671.8" font-family="Helvetica,sans-Serif" font-size="9.00">+ literal()</text>
<text text-anchor="start" x="8" y="-661.8" font-family="Helvetica,sans-Serif" font-size="9.00">+ nextactivation()</text>
<text text-anchor="start" x="8" y="-651.8" font-family="Helvetica,sans-Serif" font-size="9.00">+ output()</text>
<text text-anchor="start" x="8" y="-641.8" font-family="Helvetica,sans-Serif" font-size="9.00">+ toString()</text>
<text text-anchor="start" x="8" y="-631.8" font-family="Helvetica,sans-Serif" font-size="9.00"># IBaseElement()</text>
<text text-anchor="start" x="8" y="-621.8" font-family="Helvetica,sans-Serif" font-size="9.00"># individualliteral()</text>
<text text-anchor="start" x="8" y="-611.8" font-family="Helvetica,sans-Serif" font-size="9.00">&#45; currentTime()</text>
<text text-anchor="start" x="8" y="-601.8" font-family="Helvetica,sans-Serif" font-size="9.00">&#45; getNextActivation()</text>
<text text-anchor="start" x="8" y="-591.8" font-family="Helvetica,sans-Serif" font-size="9.00">&#45; maxTime()</text>
<text text-anchor="start" x="8" y="-581.8" font-family="Helvetica,sans-Serif" font-size="9.00">&#45; setNextActivation()</text>
</a>
</g>
</g>
<!-- Node12&#45;&gt;Node11 -->
<g id="edge2" class="edge"><title>Node12&#45;&gt;Node11</title>
<path fill="none" stroke="midnightblue" d="M84,-564.609C84,-551.971 84,-539.386 84,-527.171"/>
<polygon fill="none" stroke="midnightblue" points="80.5001,-564.75 84,-574.75 87.5001,-564.75 80.5001,-564.75"/>
</g>
<!-- Node13 -->
<g id="node4" class="node"><title>Node13</title>
<g id="a_node4"><a xlink:href="../../d6/df3/classcom_1_1github_1_1aptd_1_1simulation_1_1elements_1_1IBaseElement.htm" target="_top" xlink:title="base simulation element structure ">
<polygon fill="none" stroke="black" points="127,-937 127,-1241 303,-1241 303,-937 127,-937"/>
<text text-anchor="start" x="135" y="-1229.8" font-family="Helvetica,sans-Serif" font-size="9.00">com.github.aptd.simulation.elements.</text>
<text text-anchor="middle" x="215" y="-1219.8" font-family="Helvetica,sans-Serif" font-size="9.00">IBaseElement&lt; N extends IElement&lt;?&gt;</text>
<polyline fill="none" stroke="black" points="127,-1213 303,-1213 "/>
<text text-anchor="start" x="135" y="-1201.8" font-family="Helvetica,sans-Serif" font-size="9.00"># m_id</text>
<text text-anchor="start" x="135" y="-1191.8" font-family="Helvetica,sans-Serif" font-size="9.00"># m_input</text>
<text text-anchor="start" x="135" y="-1181.8" font-family="Helvetica,sans-Serif" font-size="9.00"># m_nextactivation</text>
<text text-anchor="start" x="135" y="-1171.8" font-family="Helvetica,sans-Serif" font-size="9.00">&#45; m_environment</text>
<text text-anchor="start" x="135" y="-1161.8" font-family="Helvetica,sans-Serif" font-size="9.00">&#45; m_external</text>
<text text-anchor="start" x="135" y="-1151.8" font-family="Helvetica,sans-Serif" font-size="9.00">&#45; m_functor</text>
<text text-anchor="start" x="135" y="-1141.8" font-family="Helvetica,sans-Serif" font-size="9.00">&#45; m_timezone</text>
<text text-anchor="start" x="135" y="-1131.8" font-family="Helvetica,sans-Serif" font-size="9.00">&#45; serialVersionUID</text>
<polyline fill="none" stroke="black" points="127,-1125 303,-1125 "/>
<text text-anchor="start" x="135" y="-1113.8" font-family="Helvetica,sans-Serif" font-size="9.00">+ call()</text>
<text text-anchor="start" x="135" y="-1103.8" font-family="Helvetica,sans-Serif" font-size="9.00">+ environment()</text>
<text text-anchor="start" x="135" y="-1093.8" font-family="Helvetica,sans-Serif" font-size="9.00">+ equals()</text>
<text text-anchor="start" x="135" y="-1083.8" font-family="Helvetica,sans-Serif" font-size="9.00">+ hashCode()</text>
<text text-anchor="start" x="135" y="-1073.8" font-family="Helvetica,sans-Serif" font-size="9.00">+ id()</text>
<text text-anchor="start" x="135" y="-1063.8" font-family="Helvetica,sans-Serif" font-size="9.00">+ imminent()</text>
<text text-anchor="start" x="135" y="-1053.8" font-family="Helvetica,sans-Serif" font-size="9.00">+ input()</text>
<text text-anchor="start" x="135" y="-1043.8" font-family="Helvetica,sans-Serif" font-size="9.00">+ literal()</text>
<text text-anchor="start" x="135" y="-1033.8" font-family="Helvetica,sans-Serif" font-size="9.00">+ literal()</text>
<text text-anchor="start" x="135" y="-1023.8" font-family="Helvetica,sans-Serif" font-size="9.00">+ nextactivation()</text>
<text text-anchor="start" x="135" y="-1013.8" font-family="Helvetica,sans-Serif" font-size="9.00">+ output()</text>
<text text-anchor="start" x="135" y="-1003.8" font-family="Helvetica,sans-Serif" font-size="9.00">+ toString()</text>
<text text-anchor="start" x="135" y="-993.8" font-family="Helvetica,sans-Serif" font-size="9.00"># IBaseElement()</text>
<text text-anchor="start" x="135" y="-983.8" font-family="Helvetica,sans-Serif" font-size="9.00"># individualliteral()</text>
<text text-anchor="start" x="135" y="-973.8" font-family="Helvetica,sans-Serif" font-size="9.00">&#45; currentTime()</text>
<text text-anchor="start" x="135" y="-963.8" font-family="Helvetica,sans-Serif" font-size="9.00">&#45; getNextActivation()</text>
<text text-anchor="start" x="135" y="-953.8" font-family="Helvetica,sans-Serif" font-size="9.00">&#45; maxTime()</text>
<text text-anchor="start" x="135" y="-943.8" font-family="Helvetica,sans-Serif" font-size="9.00">&#45; setNextActivation()</text>
</a>
</g>
</g>
<!-- Node13&#45;&gt;Node12 -->
<g id="edge3" class="edge"><title>Node13&#45;&gt;Node12</title>
<path fill="none" stroke="orange" d="M155.678,-927.242C150.989,-914.534 146.257,-901.71 141.579,-889.035"/>
<polygon fill="orange" stroke="orange" points="152.509,-928.763 159.254,-936.933 159.076,-926.34 152.509,-928.763"/>
<text text-anchor="middle" x="162.5" y="-910.8" font-family="Helvetica,sans-Serif" font-size="9.00"> &lt; N &gt;</text>
</g>
<!-- Node14 -->
<g id="node5" class="node"><title>Node14</title>
<g id="a_node5"><a xlink:href="../../dd/dd7/interfacecom_1_1github_1_1aptd_1_1simulation_1_1elements_1_1IElement.htm" target="_top" xlink:title="{com.github.aptd.simulation.elements.\lIElement\&lt; N \&gt;\n||+ environment()\l+ id()\l+ imminent()\l+ input()\l+ nextactivation()\l+ output()\l}">
<polygon fill="none" stroke="black" points="131,-1281 131,-1395 299,-1395 299,-1281 131,-1281"/>
<text text-anchor="start" x="139" y="-1383.8" font-family="Helvetica,sans-Serif" font-size="9.00">com.github.aptd.simulation.elements.</text>
<text text-anchor="middle" x="215" y="-1373.8" font-family="Helvetica,sans-Serif" font-size="9.00">IElement&lt; N &gt;</text>
<polyline fill="none" stroke="black" points="131,-1367 299,-1367 "/>
<text text-anchor="middle" x="215" y="-1355.8" font-family="Helvetica,sans-Serif" font-size="9.00"> </text>
<polyline fill="none" stroke="black" points="131,-1349 299,-1349 "/>
<text text-anchor="start" x="139" y="-1337.8" font-family="Helvetica,sans-Serif" font-size="9.00">+ environment()</text>
<text text-anchor="start" x="139" y="-1327.8" font-family="Helvetica,sans-Serif" font-size="9.00">+ id()</text>
<text text-anchor="start" x="139" y="-1317.8" font-family="Helvetica,sans-Serif" font-size="9.00">+ imminent()</text>
<text text-anchor="start" x="139" y="-1307.8" font-family="Helvetica,sans-Serif" font-size="9.00">+ input()</text>
<text text-anchor="start" x="139" y="-1297.8" font-family="Helvetica,sans-Serif" font-size="9.00">+ nextactivation()</text>
<text text-anchor="start" x="139" y="-1287.8" font-family="Helvetica,sans-Serif" font-size="9.00">+ output()</text>
</a>
</g>
</g>
<!-- Node14&#45;&gt;Node13 -->
<g id="edge4" class="edge"><title>Node14&#45;&gt;Node13</title>
<path fill="none" stroke="midnightblue" d="M215,-1270.94C215,-1261.5 215,-1251.47 215,-1241.18"/>
<polygon fill="none" stroke="midnightblue" points="211.5,-1270.95 215,-1280.95 218.5,-1270.95 211.5,-1270.95"/>
</g>
<!-- Node15 -->
<g id="node6" class="node"><title>Node15</title>
<g id="a_node6"><a xlink:href="../../dd/dd7/interfacecom_1_1github_1_1aptd_1_1simulation_1_1elements_1_1IElement.htm" target="_top" xlink:title="any object interface ">
<polygon fill="none" stroke="black" points="137,-1539 137,-1653 305,-1653 305,-1539 137,-1539"/>
<text text-anchor="start" x="145" y="-1641.8" font-family="Helvetica,sans-Serif" font-size="9.00">com.github.aptd.simulation.elements.</text>
<text text-anchor="middle" x="221" y="-1631.8" font-family="Helvetica,sans-Serif" font-size="9.00">IElement&lt; T extends IAgent&lt;?&gt;</text>
<polyline fill="none" stroke="black" points="137,-1625 305,-1625 "/>
<text text-anchor="middle" x="221" y="-1613.8" font-family="Helvetica,sans-Serif" font-size="9.00"> </text>
<polyline fill="none" stroke="black" points="137,-1607 305,-1607 "/>
<text text-anchor="start" x="145" y="-1595.8" font-family="Helvetica,sans-Serif" font-size="9.00">+ environment()</text>
<text text-anchor="start" x="145" y="-1585.8" font-family="Helvetica,sans-Serif" font-size="9.00">+ id()</text>
<text text-anchor="start" x="145" y="-1575.8" font-family="Helvetica,sans-Serif" font-size="9.00">+ imminent()</text>
<text text-anchor="start" x="145" y="-1565.8" font-family="Helvetica,sans-Serif" font-size="9.00">+ input()</text>
<text text-anchor="start" x="145" y="-1555.8" font-family="Helvetica,sans-Serif" font-size="9.00">+ nextactivation()</text>
<text text-anchor="start" x="145" y="-1545.8" font-family="Helvetica,sans-Serif" font-size="9.00">+ output()</text>
</a>
</g>
</g>
<!-- Node15&#45;&gt;Node14 -->
<g id="edge5" class="edge"><title>Node15&#45;&gt;Node14</title>
<path fill="none" stroke="orange" d="M217.315,-1528.77C217.199,-1525.8 217.092,-1522.87 217,-1520 215.656,-1478.23 215.169,-1431 215.011,-1395.27"/>
<polygon fill="orange" stroke="orange" points="213.825,-1529.06 217.749,-1538.9 220.818,-1528.76 213.825,-1529.06"/>
<text text-anchor="middle" x="229.5" y="-1464.8" font-family="Helvetica,sans-Serif" font-size="9.00"> &lt; N &gt;</text>
</g>
<!-- Node16 -->
<g id="node7" class="node"><title>Node16</title>
<g id="a_node7"><a xlink:href="../../d4/d0d/interfacecom_1_1github_1_1aptd_1_1simulation_1_1elements_1_1IPerceiveable.htm" target="_top" xlink:title="any object which be perceived by an agent ">
<polygon fill="none" stroke="black" points="251,-1693 251,-1767 419,-1767 419,-1693 251,-1693"/>
<text text-anchor="start" x="259" y="-1755.8" font-family="Helvetica,sans-Serif" font-size="9.00">com.github.aptd.simulation.elements.</text>
<text text-anchor="middle" x="335" y="-1745.8" font-family="Helvetica,sans-Serif" font-size="9.00">IPerceiveable</text>
<polyline fill="none" stroke="black" points="251,-1739 419,-1739 "/>
<text text-anchor="middle" x="335" y="-1727.8" font-family="Helvetica,sans-Serif" font-size="9.00"> </text>
<polyline fill="none" stroke="black" points="251,-1721 419,-1721 "/>
<text text-anchor="start" x="259" y="-1709.8" font-family="Helvetica,sans-Serif" font-size="9.00">+ literal()</text>
<text text-anchor="start" x="259" y="-1699.8" font-family="Helvetica,sans-Serif" font-size="9.00">+ literal()</text>
</a>
</g>
</g>
<!-- Node16&#45;&gt;Node15 -->
<g id="edge6" class="edge"><title>Node16&#45;&gt;Node15</title>
<path fill="none" stroke="midnightblue" d="M297.21,-1685.24C288.327,-1674.96 278.739,-1663.86 269.46,-1653.11"/>
<polygon fill="none" stroke="midnightblue" points="294.664,-1687.65 303.849,-1692.93 299.962,-1683.07 294.664,-1687.65"/>
</g>
<!-- Node17 -->
<g id="node8" class="node"><title>Node17</title>
<g id="a_node8"><a xlink:href="../../db/d65/interfacecom_1_1github_1_1aptd_1_1simulation_1_1core_1_1time_1_1ITime.htm" target="_top" xlink:title="time interface ">
<polygon fill="none" stroke="black" points="251,-1415 251,-1519 419,-1519 419,-1415 251,-1415"/>
<text text-anchor="start" x="259" y="-1507.8" font-family="Helvetica,sans-Serif" font-size="9.00">com.github.aptd.simulation.core.time.</text>
<text text-anchor="middle" x="335" y="-1497.8" font-family="Helvetica,sans-Serif" font-size="9.00">ITime</text>
<polyline fill="none" stroke="black" points="251,-1491 419,-1491 "/>
<text text-anchor="middle" x="335" y="-1479.8" font-family="Helvetica,sans-Serif" font-size="9.00"> </text>
<polyline fill="none" stroke="black" points="251,-1473 419,-1473 "/>
<text text-anchor="start" x="259" y="-1461.8" font-family="Helvetica,sans-Serif" font-size="9.00">+ active()</text>
<text text-anchor="start" x="259" y="-1451.8" font-family="Helvetica,sans-Serif" font-size="9.00">+ addagent()</text>
<text text-anchor="start" x="259" y="-1441.8" font-family="Helvetica,sans-Serif" font-size="9.00">+ current()</text>
<text text-anchor="start" x="259" y="-1431.8" font-family="Helvetica,sans-Serif" font-size="9.00">+ raw()</text>
<text text-anchor="start" x="259" y="-1421.8" font-family="Helvetica,sans-Serif" font-size="9.00">+ removeagent()</text>
</a>
</g>
</g>
<!-- Node16&#45;&gt;Node17 -->
<g id="edge8" class="edge"><title>Node16&#45;&gt;Node17</title>
<path fill="none" stroke="midnightblue" d="M335,-1682.74C335,-1636.91 335,-1566.88 335,-1519.35"/>
<polygon fill="none" stroke="midnightblue" points="331.5,-1682.98 335,-1692.98 338.5,-1682.98 331.5,-1682.98"/>
</g>
<!-- Node20 -->
<g id="node11" class="node"><title>Node20</title>
<g id="a_node11"><a xlink:href="../../dd/dd7/interfacecom_1_1github_1_1aptd_1_1simulation_1_1elements_1_1IElement.htm" target="_top" xlink:title="any object interface ">
<polygon fill="none" stroke="black" points="461.5,-1027 461.5,-1151 562.5,-1151 562.5,-1027 461.5,-1027"/>
<text text-anchor="start" x="469.5" y="-1139.8" font-family="Helvetica,sans-Serif" font-size="9.00">com::github::aptd::</text>
<text text-anchor="start" x="469.5" y="-1129.8" font-family="Helvetica,sans-Serif" font-size="9.00">simulation::elements</text>
<text text-anchor="middle" x="512" y="-1119.8" font-family="Helvetica,sans-Serif" font-size="9.00">::IElement&lt; T &gt;</text>
<polyline fill="none" stroke="black" points="461.5,-1113 562.5,-1113 "/>
<text text-anchor="middle" x="512" y="-1101.8" font-family="Helvetica,sans-Serif" font-size="9.00"> </text>
<polyline fill="none" stroke="black" points="461.5,-1095 562.5,-1095 "/>
<text text-anchor="start" x="469.5" y="-1083.8" font-family="Helvetica,sans-Serif" font-size="9.00">+ environment()</text>
<text text-anchor="start" x="469.5" y="-1073.8" font-family="Helvetica,sans-Serif" font-size="9.00">+ id()</text>
<text text-anchor="start" x="469.5" y="-1063.8" font-family="Helvetica,sans-Serif" font-size="9.00">+ imminent()</text>
<text text-anchor="start" x="469.5" y="-1053.8" font-family="Helvetica,sans-Serif" font-size="9.00">+ input()</text>
<text text-anchor="start" x="469.5" y="-1043.8" font-family="Helvetica,sans-Serif" font-size="9.00">+ nextactivation()</text>
<text text-anchor="start" x="469.5" y="-1033.8" font-family="Helvetica,sans-Serif" font-size="9.00">+ output()</text>
</a>
</g>
</g>
<!-- Node16&#45;&gt;Node20 -->
<g id="edge12" class="edge"><title>Node16&#45;&gt;Node20</title>
<path fill="none" stroke="midnightblue" d="M358.316,-1683.9C378.976,-1642.31 408.632,-1578.36 427,-1520 467.379,-1391.7 492.519,-1235.59 504.215,-1151.23"/>
<polygon fill="none" stroke="midnightblue" points="355.137,-1682.43 353.792,-1692.94 361.397,-1685.57 355.137,-1682.43"/>
</g>
<!-- Node17&#45;&gt;Node13 -->
<g id="edge7" class="edge"><title>Node17&#45;&gt;Node13</title>
<path fill="none" stroke="#404040" d="M331.483,-1414.95C327.877,-1377.05 320.76,-1324.45 307,-1280 304.169,-1270.85 300.957,-1261.59 297.472,-1252.34"/>
<polygon fill="none" stroke="#404040" points="297.437,-1252.25 291.536,-1248.11 293.093,-1241.07 298.994,-1245.21 297.437,-1252.25"/>
<text text-anchor="middle" x="349" y="-1335.8" font-family="Helvetica,sans-Serif" font-size="9.00"> #m_time</text>
</g>
<!-- Node18 -->
<g id="node9" class="node"><title>Node18</title>
<g id="a_node9"><a xlink:href="../../da/d4e/interfacecom_1_1github_1_1aptd_1_1simulation_1_1elements_1_1passenger_1_1IPassenger.htm" target="_top" xlink:title="{com.github.aptd.simulation.elements.passenger.\lIPassenger\&lt; IPassenger\&lt;?\&gt; \&gt;\n||}">
<polygon fill="none" stroke="black" points="186,-378 186,-442 400,-442 400,-378 186,-378"/>
<text text-anchor="start" x="194" y="-430.8" font-family="Helvetica,sans-Serif" font-size="9.00">com.github.aptd.simulation.elements.passenger.</text>
<text text-anchor="middle" x="293" y="-420.8" font-family="Helvetica,sans-Serif" font-size="9.00">IPassenger&lt; IPassenger&lt;?&gt; &gt;</text>
<polyline fill="none" stroke="black" points="186,-414 400,-414 "/>
<text text-anchor="middle" x="293" y="-402.8" font-family="Helvetica,sans-Serif" font-size="9.00"> </text>
<polyline fill="none" stroke="black" points="186,-396 400,-396 "/>
<text text-anchor="middle" x="293" y="-384.8" font-family="Helvetica,sans-Serif" font-size="9.00"> </text>
</a>
</g>
</g>
<!-- Node18&#45;&gt;Node10 -->
<g id="edge9" class="edge"><title>Node18&#45;&gt;Node10</title>
<path fill="none" stroke="midnightblue" d="M329.196,-370.481C351.599,-347.154 381.285,-317.15 409,-292 440.271,-263.623 475.504,-234.07 507.873,-207.805"/>
<polygon fill="none" stroke="midnightblue" points="326.573,-368.16 322.19,-377.806 331.632,-372.999 326.573,-368.16"/>
</g>
<!-- Node19 -->
<g id="node10" class="node"><title>Node19</title>
<g id="a_node10"><a xlink:href="../../da/d4e/interfacecom_1_1github_1_1aptd_1_1simulation_1_1elements_1_1passenger_1_1IPassenger.htm" target="_top" xlink:title="passenger interface ">
<polygon fill="none" stroke="black" points="186,-700 186,-764 400,-764 400,-700 186,-700"/>
<text text-anchor="start" x="194" y="-752.8" font-family="Helvetica,sans-Serif" font-size="9.00">com.github.aptd.simulation.elements.passenger.</text>
<text text-anchor="middle" x="293" y="-742.8" font-family="Helvetica,sans-Serif" font-size="9.00">IPassenger&lt; T extends IPassenger&lt;?&gt;</text>
<polyline fill="none" stroke="black" points="186,-736 400,-736 "/>
<text text-anchor="middle" x="293" y="-724.8" font-family="Helvetica,sans-Serif" font-size="9.00"> </text>
<polyline fill="none" stroke="black" points="186,-718 400,-718 "/>
<text text-anchor="middle" x="293" y="-706.8" font-family="Helvetica,sans-Serif" font-size="9.00"> </text>
</a>
</g>
</g>
<!-- Node19&#45;&gt;Node18 -->
<g id="edge10" class="edge"><title>Node19&#45;&gt;Node18</title>
<path fill="none" stroke="orange" d="M293,-689.463C293,-624.536 293,-500.439 293,-442.392"/>
<polygon fill="orange" stroke="orange" points="289.5,-689.734 293,-699.734 296.5,-689.734 289.5,-689.734"/>
<text text-anchor="middle" x="333" y="-548.8" font-family="Helvetica,sans-Serif" font-size="9.00"> &lt; IPassenger&lt;?&gt; &gt;</text>
</g>
<!-- Node20&#45;&gt;Node19 -->
<g id="edge11" class="edge"><title>Node20&#45;&gt;Node19</title>
<path fill="none" stroke="midnightblue" d="M468.984,-1018.27C421.478,-941.263 347.108,-820.71 312.248,-764.201"/>
<polygon fill="none" stroke="midnightblue" points="466.123,-1020.3 474.353,-1026.97 472.081,-1016.62 466.123,-1020.3"/>
</g>
<!-- Node22 -->
<g id="node13" class="node"><title>Node22</title>
<g id="a_node13"><a xlink:href="../../d2/d6c/interfacecom_1_1github_1_1aptd_1_1simulation_1_1elements_1_1train_1_1IDoor.htm" target="_top" xlink:title="interface of door ">
<polygon fill="none" stroke="black" points="418,-700 418,-764 606,-764 606,-700 418,-700"/>
<text text-anchor="start" x="426" y="-752.8" font-family="Helvetica,sans-Serif" font-size="9.00">com.github.aptd.simulation.elements.train.</text>
<text text-anchor="middle" x="512" y="-742.8" font-family="Helvetica,sans-Serif" font-size="9.00">IDoor&lt; T extends IDoor&lt;?&gt;</text>
<polyline fill="none" stroke="black" points="418,-736 606,-736 "/>
<text text-anchor="middle" x="512" y="-724.8" font-family="Helvetica,sans-Serif" font-size="9.00"> </text>
<polyline fill="none" stroke="black" points="418,-718 606,-718 "/>
<text text-anchor="middle" x="512" y="-706.8" font-family="Helvetica,sans-Serif" font-size="9.00"> </text>
</a>
</g>
</g>
<!-- Node20&#45;&gt;Node22 -->
<g id="edge15" class="edge"><title>Node20&#45;&gt;Node22</title>
<path fill="none" stroke="midnightblue" d="M512,-1016.86C512,-939.798 512,-820.366 512,-764.201"/>
<polygon fill="none" stroke="midnightblue" points="508.5,-1016.97 512,-1026.97 515.5,-1016.97 508.5,-1016.97"/>
</g>
<!-- Node24 -->
<g id="node15" class="node"><title>Node24</title>
<g id="a_node15"><a xlink:href="../../d4/d3c/interfacecom_1_1github_1_1aptd_1_1simulation_1_1elements_1_1train_1_1ITrain.htm" target="_top" xlink:title="interface of train ">
<polygon fill="none" stroke="black" points="624,-690 624,-774 812,-774 812,-690 624,-690"/>
<text text-anchor="start" x="632" y="-762.8" font-family="Helvetica,sans-Serif" font-size="9.00">com.github.aptd.simulation.elements.train.</text>
<text text-anchor="middle" x="718" y="-752.8" font-family="Helvetica,sans-Serif" font-size="9.00">ITrain&lt; T extends ITrain&lt;?&gt;</text>
<polyline fill="none" stroke="black" points="624,-746 812,-746 "/>
<text text-anchor="middle" x="718" y="-734.8" font-family="Helvetica,sans-Serif" font-size="9.00"> </text>
<polyline fill="none" stroke="black" points="624,-728 812,-728 "/>
<text text-anchor="start" x="632" y="-716.8" font-family="Helvetica,sans-Serif" font-size="9.00">+ addwagon()</text>
<text text-anchor="start" x="632" y="-706.8" font-family="Helvetica,sans-Serif" font-size="9.00">+ removewagon()</text>
<text text-anchor="start" x="632" y="-696.8" font-family="Helvetica,sans-Serif" font-size="9.00">+ wagon()</text>
</a>
</g>
</g>
<!-- Node20&#45;&gt;Node24 -->
<g id="edge18" class="edge"><title>Node20&#45;&gt;Node24</title>
<path fill="none" stroke="midnightblue" d="M552.445,-1018.3C594.66,-945.553 659.439,-833.918 694.124,-774.145"/>
<polygon fill="none" stroke="midnightblue" points="549.404,-1016.57 547.413,-1026.97 555.459,-1020.08 549.404,-1016.57"/>
</g>
<!-- Node27 -->
<g id="node18" class="node"><title>Node27</title>
<g id="a_node18"><a xlink:href="../../d7/d7a/interfacecom_1_1github_1_1aptd_1_1simulation_1_1elements_1_1graph_1_1network_1_1IStation.htm" target="_top" xlink:title="interface of a node, which is a train station ">
<polygon fill="none" stroke="black" points="830.5,-700 830.5,-764 1059.5,-764 1059.5,-700 830.5,-700"/>
<text text-anchor="start" x="838.5" y="-752.8" font-family="Helvetica,sans-Serif" font-size="9.00">com.github.aptd.simulation.elements.graph.network.</text>
<text text-anchor="middle" x="945" y="-742.8" font-family="Helvetica,sans-Serif" font-size="9.00">IStation&lt; T extends IStation&lt;?&gt;</text>
<polyline fill="none" stroke="black" points="830.5,-736 1059.5,-736 "/>
<text text-anchor="middle" x="945" y="-724.8" font-family="Helvetica,sans-Serif" font-size="9.00"> </text>
<polyline fill="none" stroke="black" points="830.5,-718 1059.5,-718 "/>
<text text-anchor="start" x="838.5" y="-706.8" font-family="Helvetica,sans-Serif" font-size="9.00">+ gps()</text>
</a>
</g>
</g>
<!-- Node20&#45;&gt;Node27 -->
<g id="edge23" class="edge"><title>Node20&#45;&gt;Node27</title>
<path fill="none" stroke="midnightblue" d="M571.57,-1057.63C636.952,-1022.6 742.981,-960.68 821,-890 863.344,-851.64 902.47,-797.752 925.029,-764.131"/>
<polygon fill="none" stroke="midnightblue" points="569.805,-1054.61 562.621,-1062.39 573.093,-1060.79 569.805,-1054.61"/>
</g>
<!-- Node21 -->
<g id="node12" class="node"><title>Node21</title>
<g id="a_node12"><a xlink:href="../../df/d94/namespacecom_1_1github_1_1aptd_1_1simulation_1_1elements_1_1train.htm#d2/d6c/interfacecom_1_1github_1_1aptd_1_1simulation_1_1elements_1_1train_1_1IDoor" target="_top" xlink:title="{com.github.aptd.simulation.elements.train.\lIDoor\&lt;?\&gt;\n||}">
<polygon fill="none" stroke="black" points="418,-378 418,-442 606,-442 606,-378 418,-378"/>
<text text-anchor="start" x="426" y="-430.8" font-family="Helvetica,sans-Serif" font-size="9.00">com.github.aptd.simulation.elements.train.</text>
<text text-anchor="middle" x="512" y="-420.8" font-family="Helvetica,sans-Serif" font-size="9.00">IDoor&lt;?&gt;</text>
<polyline fill="none" stroke="black" points="418,-414 606,-414 "/>
<text text-anchor="middle" x="512" y="-402.8" font-family="Helvetica,sans-Serif" font-size="9.00"> </text>
<polyline fill="none" stroke="black" points="418,-396 606,-396 "/>
<text text-anchor="middle" x="512" y="-384.8" font-family="Helvetica,sans-Serif" font-size="9.00"> </text>
</a>
</g>
</g>
<!-- Node21&#45;&gt;Node10 -->
<g id="edge13" class="edge"><title>Node21&#45;&gt;Node10</title>
<path fill="none" stroke="#404040" d="M523.219,-377.957C533.89,-348.432 550.694,-301.934 567.024,-256.75"/>
<polygon fill="none" stroke="#404040" points="567.082,-256.587 565.36,-249.585 571.161,-245.302 572.884,-252.304 567.082,-256.587"/>
<text text-anchor="middle" x="582.5" y="-266.8" font-family="Helvetica,sans-Serif" font-size="9.00"> &#45;m_door</text>
</g>
<!-- Node22&#45;&gt;Node21 -->
<g id="edge14" class="edge"><title>Node22&#45;&gt;Node21</title>
<path fill="none" stroke="orange" d="M512,-689.463C512,-624.536 512,-500.439 512,-442.392"/>
<polygon fill="orange" stroke="orange" points="508.5,-689.734 512,-699.734 515.5,-689.734 508.5,-689.734"/>
<text text-anchor="middle" x="521.5" y="-548.8" font-family="Helvetica,sans-Serif" font-size="9.00"> &lt;?&gt;</text>
</g>
<!-- Node23 -->
<g id="node14" class="node"><title>Node23</title>
<g id="a_node14"><a xlink:href="../../d4/d3c/interfacecom_1_1github_1_1aptd_1_1simulation_1_1elements_1_1train_1_1ITrain.htm" target="_top" xlink:title="{com.github.aptd.simulation.elements.train.\lITrain\&lt;?\&gt;\n||+ addwagon()\l+ removewagon()\l+ wagon()\l}">
<polygon fill="none" stroke="black" points="624,-368 624,-452 812,-452 812,-368 624,-368"/>
<text text-anchor="start" x="632" y="-440.8" font-family="Helvetica,sans-Serif" font-size="9.00">com.github.aptd.simulation.elements.train.</text>
<text text-anchor="middle" x="718" y="-430.8" font-family="Helvetica,sans-Serif" font-size="9.00">ITrain&lt;?&gt;</text>
<polyline fill="none" stroke="black" points="624,-424 812,-424 "/>
<text text-anchor="middle" x="718" y="-412.8" font-family="Helvetica,sans-Serif" font-size="9.00"> </text>
<polyline fill="none" stroke="black" points="624,-406 812,-406 "/>
<text text-anchor="start" x="632" y="-394.8" font-family="Helvetica,sans-Serif" font-size="9.00">+ addwagon()</text>
<text text-anchor="start" x="632" y="-384.8" font-family="Helvetica,sans-Serif" font-size="9.00">+ removewagon()</text>
<text text-anchor="start" x="632" y="-374.8" font-family="Helvetica,sans-Serif" font-size="9.00">+ wagon()</text>
</a>
</g>
</g>
<!-- Node23&#45;&gt;Node10 -->
<g id="edge16" class="edge"><title>Node23&#45;&gt;Node10</title>
<path fill="none" stroke="#404040" d="M703.133,-367.863C692.49,-338.414 677.519,-296.991 662.932,-256.628"/>
<polygon fill="none" stroke="#404040" points="662.911,-256.569 657.11,-252.285 658.832,-245.283 664.633,-249.566 662.911,-256.569"/>
<text text-anchor="middle" x="685.5" y="-266.8" font-family="Helvetica,sans-Serif" font-size="9.00"> &#45;m_train</text>
</g>
<!-- Node24&#45;&gt;Node23 -->
<g id="edge17" class="edge"><title>Node24&#45;&gt;Node23</title>
<path fill="none" stroke="orange" d="M718,-679.669C718,-616.397 718,-510.138 718,-452.021"/>
<polygon fill="orange" stroke="orange" points="714.5,-679.821 718,-689.821 721.5,-679.821 714.5,-679.821"/>
<text text-anchor="middle" x="727.5" y="-548.8" font-family="Helvetica,sans-Serif" font-size="9.00"> &lt;?&gt;</text>
</g>
<!-- Node25 -->
<g id="node16" class="node"><title>Node25</title>
<g id="a_node16"><a xlink:href="../../dc/dbb/enumcom_1_1github_1_1aptd_1_1simulation_1_1elements_1_1passenger_1_1EPassengerState.htm" target="_top" xlink:title="enum of qualitative states for passenger agents ">
<polygon fill="none" stroke="black" points="1078,-343 1078,-477 1292,-477 1292,-343 1078,-343"/>
<text text-anchor="start" x="1086" y="-465.8" font-family="Helvetica,sans-Serif" font-size="9.00">com.github.aptd.simulation.elements.passenger.</text>
<text text-anchor="middle" x="1185" y="-455.8" font-family="Helvetica,sans-Serif" font-size="9.00">EPassengerState</text>
<polyline fill="none" stroke="black" points="1078,-449 1292,-449 "/>
<text text-anchor="start" x="1086" y="-437.8" font-family="Helvetica,sans-Serif" font-size="9.00">+ ENTERING_TRAIN</text>
<text text-anchor="start" x="1086" y="-427.8" font-family="Helvetica,sans-Serif" font-size="9.00">+ IDLE_AT_STATION</text>
<text text-anchor="start" x="1086" y="-417.8" font-family="Helvetica,sans-Serif" font-size="9.00">+ IN_ENTRANCE_QUEUE</text>
<text text-anchor="start" x="1086" y="-407.8" font-family="Helvetica,sans-Serif" font-size="9.00">+ IN_EXIT_QUEUE</text>
<text text-anchor="start" x="1086" y="-397.8" font-family="Helvetica,sans-Serif" font-size="9.00">+ MOVING_THROUGH_STATION</text>
<text text-anchor="start" x="1086" y="-387.8" font-family="Helvetica,sans-Serif" font-size="9.00">+ ON_PLATFORM_WAITING</text>
<text text-anchor="start" x="1086" y="-377.8" font-family="Helvetica,sans-Serif" font-size="9.00">_FOR_TRAIN</text>
<text text-anchor="start" x="1086" y="-367.8" font-family="Helvetica,sans-Serif" font-size="9.00">+ ON_TRAIN</text>
<polyline fill="none" stroke="black" points="1078,-361 1292,-361 "/>
<text text-anchor="middle" x="1185" y="-349.8" font-family="Helvetica,sans-Serif" font-size="9.00"> </text>
</a>
</g>
</g>
<!-- Node25&#45;&gt;Node10 -->
<g id="edge19" class="edge"><title>Node25&#45;&gt;Node10</title>
<path fill="none" stroke="#404040" d="M1128.67,-342.82C1110.68,-324.562 1089.76,-305.957 1068,-292 963.789,-225.165 829.165,-179.553 733.837,-152.908"/>
<polygon fill="none" stroke="#404040" points="733.686,-152.867 726.838,-155.126 722.119,-149.673 728.967,-147.414 733.686,-152.867"/>
<text text-anchor="middle" x="1054" y="-266.8" font-family="Helvetica,sans-Serif" font-size="9.00"> &#45;m_state</text>
</g>
<!-- Node26 -->
<g id="node17" class="node"><title>Node26</title>
<g id="a_node17"><a xlink:href="../../d7/d7a/interfacecom_1_1github_1_1aptd_1_1simulation_1_1elements_1_1graph_1_1network_1_1IStation.htm" target="_top" xlink:title="{com.github.aptd.simulation.elements.graph.network.\lIStation\&lt;?\&gt;\n||+ gps()\l}">
<polygon fill="none" stroke="black" points="830.5,-378 830.5,-442 1059.5,-442 1059.5,-378 830.5,-378"/>
<text text-anchor="start" x="838.5" y="-430.8" font-family="Helvetica,sans-Serif" font-size="9.00">com.github.aptd.simulation.elements.graph.network.</text>
<text text-anchor="middle" x="945" y="-420.8" font-family="Helvetica,sans-Serif" font-size="9.00">IStation&lt;?&gt;</text>
<polyline fill="none" stroke="black" points="830.5,-414 1059.5,-414 "/>
<text text-anchor="middle" x="945" y="-402.8" font-family="Helvetica,sans-Serif" font-size="9.00"> </text>
<polyline fill="none" stroke="black" points="830.5,-396 1059.5,-396 "/>
<text text-anchor="start" x="838.5" y="-384.8" font-family="Helvetica,sans-Serif" font-size="9.00">+ gps()</text>
</a>
</g>
</g>
<!-- Node26&#45;&gt;Node10 -->
<g id="edge20" class="edge"><title>Node26&#45;&gt;Node10</title>
<path fill="none" stroke="#404040" d="M913.217,-377.803C888.51,-353.85 853.147,-320.209 821,-292 792.517,-267.006 761.112,-240.761 731.59,-216.64"/>
<polygon fill="none" stroke="#404040" points="731.379,-216.468 724.201,-215.778 722.077,-208.887 729.255,-209.577 731.379,-216.468"/>
<text text-anchor="middle" x="823" y="-266.8" font-family="Helvetica,sans-Serif" font-size="9.00"> &#45;m_station</text>
</g>
<!-- Node27&#45;&gt;Node26 -->
<g id="edge21" class="edge"><title>Node27&#45;&gt;Node26</title>
<path fill="none" stroke="orange" d="M945,-689.463C945,-624.536 945,-500.439 945,-442.392"/>
<polygon fill="orange" stroke="orange" points="941.5,-689.734 945,-699.734 948.5,-689.734 941.5,-689.734"/>
<text text-anchor="middle" x="954.5" y="-548.8" font-family="Helvetica,sans-Serif" font-size="9.00"> &lt;?&gt;</text>
</g>
<!-- Node28 -->
<g id="node19" class="node"><title>Node28</title>
<g id="a_node19"><a xlink:href="../../de/d20/interfacecom_1_1github_1_1aptd_1_1simulation_1_1elements_1_1graph_1_1IVertex.htm" target="_top" xlink:title="interface of graph nodes ">
<polygon fill="none" stroke="black" points="894.5,-1052 894.5,-1126 995.5,-1126 995.5,-1052 894.5,-1052"/>
<text text-anchor="start" x="902.5" y="-1114.8" font-family="Helvetica,sans-Serif" font-size="9.00">com::github::aptd::</text>
<text text-anchor="start" x="902.5" y="-1104.8" font-family="Helvetica,sans-Serif" font-size="9.00">simulation::elements</text>
<text text-anchor="middle" x="945" y="-1094.8" font-family="Helvetica,sans-Serif" font-size="9.00">::graph::IVertex&lt; T &gt;</text>
<polyline fill="none" stroke="black" points="894.5,-1088 995.5,-1088 "/>
<text text-anchor="middle" x="945" y="-1076.8" font-family="Helvetica,sans-Serif" font-size="9.00"> </text>
<polyline fill="none" stroke="black" points="894.5,-1070 995.5,-1070 "/>
<text text-anchor="middle" x="945" y="-1058.8" font-family="Helvetica,sans-Serif" font-size="9.00"> </text>
</a>
</g>
</g>
<!-- Node28&#45;&gt;Node27 -->
<g id="edge22" class="edge"><title>Node28&#45;&gt;Node27</title>
<path fill="none" stroke="midnightblue" d="M945,-1041.32C945,-967.72 945,-826.644 945,-764.134"/>
<polygon fill="none" stroke="midnightblue" points="941.5,-1041.68 945,-1051.68 948.5,-1041.68 941.5,-1041.68"/>
</g>
</g>
</svg>
