<?xml version="1.0" encoding="UTF-8" standalone="no"?>
<!DOCTYPE svg PUBLIC "-//W3C//DTD SVG 1.1//EN"
 "http://www.w3.org/Graphics/SVG/1.1/DTD/svg11.dtd">
<!-- Generated by graphviz version 2.36.0 (20140111.2315)
 -->
<!-- Title: com.github.aptd.simulation.elements.grid.local.CJPSPlusStatic.CJumpPoint.parent Pages: 1 -->
<svg width="1192pt" height="58pt"
 viewBox="0.00 0.00 1192.00 58.00" xmlns="http://www.w3.org/2000/svg" xmlns:xlink="http://www.w3.org/1999/xlink">
<g id="graph0" class="graph" transform="scale(1 1) rotate(0) translate(4 54)">
<title>com.github.aptd.simulation.elements.grid.local.CJPSPlusStatic.CJumpPoint.parent</title>
<!-- Node31 -->
<g id="node1" class="node"><title>Node31</title>
<polygon fill="#bfbfbf" stroke="black" points="0,-0 0,-28 208,-28 208,-0 0,-0"/>
<text text-anchor="start" x="8" y="-16.8" font-family="Helvetica,sans-Serif" font-size="9.00">com.github.aptd.simulation.elements.grid.local.</text>
<text text-anchor="middle" x="104" y="-6.8" font-family="Helvetica,sans-Serif" font-size="9.00">CJPSPlusStatic.CJumpPoint.parent</text>
</g>
<!-- Node32 -->
<g id="node2" class="node"><title>Node32</title>
<g id="a_node2"><a xlink:href="../../d7/d8b/classcom_1_1github_1_1aptd_1_1simulation_1_1elements_1_1grid_1_1local_1_1CJPSPlusStatic.htm#a9309bbf0d828db1ee7cd1be7c8400d90" target="_top" xlink:title="Calculates the given node&#39;s score using the Manhattan distance formula. ">
<polygon fill="none" stroke="black" points="244,-22 244,-50 452,-50 452,-22 244,-22"/>
<text text-anchor="start" x="252" y="-38.8" font-family="Helvetica,sans-Serif" font-size="9.00">com.github.aptd.simulation.elements.grid.local.</text>
<text text-anchor="middle" x="348" y="-28.8" font-family="Helvetica,sans-Serif" font-size="9.00">CJPSPlusStatic.calculateScore</text>
</a>
</g>
</g>
<!-- Node31&#45;&gt;Node32 -->
<g id="edge1" class="edge"><title>Node31&#45;&gt;Node32</title>
<path fill="none" stroke="midnightblue" d="M218.515,-24.3196C226.892,-25.0811 235.317,-25.847 243.628,-26.6026"/>
<polygon fill="midnightblue" stroke="midnightblue" points="218.608,-20.8136 208.332,-23.3938 217.974,-27.7849 218.608,-20.8136"/>
</g>
<!-- Node35 -->
<g id="node5" class="node"><title>Node35</title>
<g id="a_node5"><a xlink:href="../../d7/d8b/classcom_1_1github_1_1aptd_1_1simulation_1_1elements_1_1grid_1_1local_1_1CJPSPlusStatic.htm#a1cf62f3003bceb8d8648c600c31ef837" target="_top" xlink:title="routing algorithm ">
<polygon fill="none" stroke="black" points="976,-0 976,-28 1184,-28 1184,-0 976,-0"/>
<text text-anchor="start" x="984" y="-16.8" font-family="Helvetica,sans-Serif" font-size="9.00">com.github.aptd.simulation.elements.grid.local.</text>
<text text-anchor="middle" x="1080" y="-6.8" font-family="Helvetica,sans-Serif" font-size="9.00">CJPSPlusStatic.route</text>
</a>
</g>
</g>
<!-- Node31&#45;&gt;Node35 -->
<g id="edge5" class="edge"><title>Node31&#45;&gt;Node35</title>
<path fill="none" stroke="midnightblue" d="M218.407,-12.2337C227.067,-12.14 235.674,-12.0599 244,-12 553.325,-9.77475 630.675,-9.77475 940,-12 951.584,-12.0833 963.711,-12.2057 975.77,-12.3496"/>
<polygon fill="midnightblue" stroke="midnightblue" points="218.19,-8.73586 208.23,-12.3496 218.269,-15.7354 218.19,-8.73586"/>
</g>
<!-- Node33 -->
<g id="node3" class="node"><title>Node33</title>
<g id="a_node3"><a xlink:href="../../d7/d8b/classcom_1_1github_1_1aptd_1_1simulation_1_1elements_1_1grid_1_1local_1_1CJPSPlusStatic.htm#a66e040efc22046b6de9683ea54ee9997" target="_top" xlink:title="Validated successors are added to open list. ">
<polygon fill="none" stroke="black" points="488,-22 488,-50 696,-50 696,-22 488,-22"/>
<text text-anchor="start" x="496" y="-38.8" font-family="Helvetica,sans-Serif" font-size="9.00">com.github.aptd.simulation.elements.grid.local.</text>
<text text-anchor="middle" x="592" y="-28.8" font-family="Helvetica,sans-Serif" font-size="9.00">CJPSPlusStatic.addsuccessors</text>
</a>
</g>
</g>
<!-- Node32&#45;&gt;Node33 -->
<g id="edge2" class="edge"><title>Node32&#45;&gt;Node33</title>
<path fill="none" stroke="midnightblue" d="M462.515,-36C470.892,-36 479.317,-36 487.628,-36"/>
<polygon fill="midnightblue" stroke="midnightblue" points="462.332,-32.5001 452.332,-36 462.332,-39.5001 462.332,-32.5001"/>
</g>
<!-- Node34 -->
<g id="node4" class="node"><title>Node34</title>
<g id="a_node4"><a xlink:href="../../d7/d8b/classcom_1_1github_1_1aptd_1_1simulation_1_1elements_1_1grid_1_1local_1_1CJPSPlusStatic.htm#a565a6583141d9f8a65593cfc4e20eb1f" target="_top" xlink:title="individual jump point successors are identified ">
<polygon fill="none" stroke="black" points="732,-22 732,-50 940,-50 940,-22 732,-22"/>
<text text-anchor="start" x="740" y="-38.8" font-family="Helvetica,sans-Serif" font-size="9.00">com.github.aptd.simulation.elements.grid.local.</text>
<text text-anchor="middle" x="836" y="-28.8" font-family="Helvetica,sans-Serif" font-size="9.00">CJPSPlusStatic.successors</text>
</a>
</g>
</g>
<!-- Node33&#45;&gt;Node34 -->
<g id="edge3" class="edge"><title>Node33&#45;&gt;Node34</title>
<path fill="none" stroke="midnightblue" d="M706.515,-36C714.892,-36 723.317,-36 731.628,-36"/>
<polygon fill="midnightblue" stroke="midnightblue" points="706.332,-32.5001 696.332,-36 706.332,-39.5001 706.332,-32.5001"/>
</g>
<!-- Node34&#45;&gt;Node35 -->
<g id="edge4" class="edge"><title>Node34&#45;&gt;Node35</title>
<path fill="none" stroke="midnightblue" d="M950.515,-25.6804C958.892,-24.9189 967.317,-24.153 975.628,-23.3974"/>
<polygon fill="midnightblue" stroke="midnightblue" points="949.974,-22.2151 940.332,-26.6062 950.608,-29.1864 949.974,-22.2151"/>
</g>
</g>
</svg>
