<?xml version="1.0" encoding="UTF-8" standalone="no"?>
<!DOCTYPE svg PUBLIC "-//W3C//DTD SVG 1.1//EN"
 "http://www.w3.org/Graphics/SVG/1.1/DTD/svg11.dtd">
<!-- Generated by graphviz version 2.36.0 (20140111.2315)
 -->
<!-- Title: com.github.aptd.simulation.elements.grid.local.CJPSPlusStatic.CJumpPoint.coordinate Pages: 1 -->
<svg width="1192pt" height="112pt"
 viewBox="0.00 0.00 1192.00 112.27" xmlns="http://www.w3.org/2000/svg" xmlns:xlink="http://www.w3.org/1999/xlink">
<g id="graph0" class="graph" transform="scale(1 1) rotate(0) translate(4 108.268)">
<title>com.github.aptd.simulation.elements.grid.local.CJPSPlusStatic.CJumpPoint.coordinate</title>
<!-- Node5 -->
<g id="node1" class="node"><title>Node5</title>
<polygon fill="#bfbfbf" stroke="black" points="0,-38 0,-66 208,-66 208,-38 0,-38"/>
<text text-anchor="start" x="8" y="-54.8" font-family="Helvetica,sans-Serif" font-size="9.00">com.github.aptd.simulation.elements.grid.local.</text>
<text text-anchor="middle" x="104" y="-44.8" font-family="Helvetica,sans-Serif" font-size="9.00">CJPSPlusStatic.CJumpPoint.coordinate</text>
</g>
<!-- Node6 -->
<g id="node2" class="node"><title>Node6</title>
<g id="a_node2"><a xlink:href="../../d7/d8b/classcom_1_1github_1_1aptd_1_1simulation_1_1elements_1_1grid_1_1local_1_1CJPSPlusStatic.htm#a66e040efc22046b6de9683ea54ee9997" target="_top" xlink:title="Validated successors are added to open list. ">
<polygon fill="none" stroke="black" points="488,-60 488,-88 696,-88 696,-60 488,-60"/>
<text text-anchor="start" x="496" y="-76.8" font-family="Helvetica,sans-Serif" font-size="9.00">com.github.aptd.simulation.elements.grid.local.</text>
<text text-anchor="middle" x="592" y="-66.8" font-family="Helvetica,sans-Serif" font-size="9.00">CJPSPlusStatic.addsuccessors</text>
</a>
</g>
</g>
<!-- Node5&#45;&gt;Node6 -->
<g id="edge1" class="edge"><title>Node5&#45;&gt;Node6</title>
<path fill="none" stroke="midnightblue" d="M147.807,-69.7117C174.865,-79.9328 210.863,-91.7697 244,-97 338.375,-111.896 448.67,-99.5868 519.139,-88.0147"/>
<polygon fill="midnightblue" stroke="midnightblue" points="148.854,-66.3644 138.264,-66.0343 146.337,-72.8962 148.854,-66.3644"/>
</g>
<!-- Node7 -->
<g id="node3" class="node"><title>Node7</title>
<g id="a_node3"><a xlink:href="../../d7/d8b/classcom_1_1github_1_1aptd_1_1simulation_1_1elements_1_1grid_1_1local_1_1CJPSPlusStatic.htm#a565a6583141d9f8a65593cfc4e20eb1f" target="_top" xlink:title="individual jump point successors are identified ">
<polygon fill="none" stroke="black" points="732,-22 732,-50 940,-50 940,-22 732,-22"/>
<text text-anchor="start" x="740" y="-38.8" font-family="Helvetica,sans-Serif" font-size="9.00">com.github.aptd.simulation.elements.grid.local.</text>
<text text-anchor="middle" x="836" y="-28.8" font-family="Helvetica,sans-Serif" font-size="9.00">CJPSPlusStatic.successors</text>
</a>
</g>
</g>
<!-- Node5&#45;&gt;Node7 -->
<g id="edge7" class="edge"><title>Node5&#45;&gt;Node7</title>
<path fill="none" stroke="midnightblue" d="M218.407,-49.5144C358.92,-46.4346 596.32,-41.2313 731.892,-38.2599"/>
<polygon fill="midnightblue" stroke="midnightblue" points="217.964,-46.0231 208.043,-49.7415 218.117,-53.0215 217.964,-46.0231"/>
</g>
<!-- Node8 -->
<g id="node4" class="node"><title>Node8</title>
<g id="a_node4"><a xlink:href="../../d7/d8b/classcom_1_1github_1_1aptd_1_1simulation_1_1elements_1_1grid_1_1local_1_1CJPSPlusStatic.htm#a1cf62f3003bceb8d8648c600c31ef837" target="_top" xlink:title="routing algorithm ">
<polygon fill="none" stroke="black" points="976,-0 976,-28 1184,-28 1184,-0 976,-0"/>
<text text-anchor="start" x="984" y="-16.8" font-family="Helvetica,sans-Serif" font-size="9.00">com.github.aptd.simulation.elements.grid.local.</text>
<text text-anchor="middle" x="1080" y="-6.8" font-family="Helvetica,sans-Serif" font-size="9.00">CJPSPlusStatic.route</text>
</a>
</g>
</g>
<!-- Node5&#45;&gt;Node8 -->
<g id="edge6" class="edge"><title>Node5&#45;&gt;Node8</title>
<path fill="none" stroke="midnightblue" d="M218.395,-42.8417C227.058,-42.1986 235.668,-41.5772 244,-41 460.752,-25.9846 514.824,-18.4473 732,-12 824.404,-9.25682 847.558,-11.335 940,-12 951.584,-12.0833 963.711,-12.2057 975.77,-12.3496"/>
<polygon fill="midnightblue" stroke="midnightblue" points="217.925,-39.3671 208.215,-43.6055 218.449,-46.3474 217.925,-39.3671"/>
</g>
<!-- Node9 -->
<g id="node5" class="node"><title>Node9</title>
<g id="a_node5"><a xlink:href="../../d7/d8b/classcom_1_1github_1_1aptd_1_1simulation_1_1elements_1_1grid_1_1local_1_1CJPSPlusStatic.htm#a9309bbf0d828db1ee7cd1be7c8400d90" target="_top" xlink:title="Calculates the given node&#39;s score using the Manhattan distance formula. ">
<polygon fill="none" stroke="black" points="244,-60 244,-88 452,-88 452,-60 244,-60"/>
<text text-anchor="start" x="252" y="-76.8" font-family="Helvetica,sans-Serif" font-size="9.00">com.github.aptd.simulation.elements.grid.local.</text>
<text text-anchor="middle" x="348" y="-66.8" font-family="Helvetica,sans-Serif" font-size="9.00">CJPSPlusStatic.calculateScore</text>
</a>
</g>
</g>
<!-- Node5&#45;&gt;Node9 -->
<g id="edge4" class="edge"><title>Node5&#45;&gt;Node9</title>
<path fill="none" stroke="midnightblue" d="M218.515,-62.3196C226.892,-63.0811 235.317,-63.847 243.628,-64.6026"/>
<polygon fill="midnightblue" stroke="midnightblue" points="218.608,-58.8136 208.332,-61.3938 217.974,-65.7849 218.608,-58.8136"/>
</g>
<!-- Node6&#45;&gt;Node7 -->
<g id="edge2" class="edge"><title>Node6&#45;&gt;Node7</title>
<path fill="none" stroke="midnightblue" d="M692.658,-58.3512C710.179,-55.5999 728.318,-52.7518 745.539,-50.0475"/>
<polygon fill="midnightblue" stroke="midnightblue" points="691.76,-54.9492 682.424,-59.9582 692.846,-61.8645 691.76,-54.9492"/>
</g>
<!-- Node7&#45;&gt;Node8 -->
<g id="edge3" class="edge"><title>Node7&#45;&gt;Node8</title>
<path fill="none" stroke="midnightblue" d="M950.515,-25.6804C958.892,-24.9189 967.317,-24.153 975.628,-23.3974"/>
<polygon fill="midnightblue" stroke="midnightblue" points="949.974,-22.2151 940.332,-26.6062 950.608,-29.1864 949.974,-22.2151"/>
</g>
<!-- Node9&#45;&gt;Node6 -->
<g id="edge5" class="edge"><title>Node9&#45;&gt;Node6</title>
<path fill="none" stroke="midnightblue" d="M462.515,-74C470.892,-74 479.317,-74 487.628,-74"/>
<polygon fill="midnightblue" stroke="midnightblue" points="462.332,-70.5001 452.332,-74 462.332,-77.5001 462.332,-70.5001"/>
</g>
</g>
</svg>
