<?xml version="1.0" encoding="UTF-8" standalone="no"?>
<!DOCTYPE svg PUBLIC "-//W3C//DTD SVG 1.1//EN"
 "http://www.w3.org/Graphics/SVG/1.1/DTD/svg11.dtd">
<!-- Generated by graphviz version 2.36.0 (20140111.2315)
 -->
<!-- Title: com.github.aptd.simulation.elements.graph.network.local.CStation.CGenerator.generate Pages: 1 -->
<svg width="548pt" height="83pt"
 viewBox="0.00 0.00 548.00 83.00" xmlns="http://www.w3.org/2000/svg" xmlns:xlink="http://www.w3.org/1999/xlink">
<g id="graph0" class="graph" transform="scale(1 1) rotate(0) translate(4 79)">
<title>com.github.aptd.simulation.elements.graph.network.local.CStation.CGenerator.generate</title>
<!-- Node2 -->
<g id="node1" class="node"><title>Node2</title>
<polygon fill="#bfbfbf" stroke="black" points="0.5,-23 0.5,-51 251.5,-51 251.5,-23 0.5,-23"/>
<text text-anchor="start" x="8.5" y="-39.8" font-family="Helvetica,sans-Serif" font-size="9.00">com.github.aptd.simulation.elements.graph.network.local.</text>
<text text-anchor="middle" x="126" y="-29.8" font-family="Helvetica,sans-Serif" font-size="9.00">CStation.CGenerator.generate</text>
</g>
<!-- Node3 -->
<g id="node2" class="node"><title>Node3</title>
<g id="a_node2"><a xlink:href="../../d6/d36/classcom_1_1github_1_1aptd_1_1simulation_1_1elements_1_1graph_1_1network_1_1local_1_1CStation.htm#ac5450045aaa254136d33c0302f82c3e9" target="_top" xlink:title="ctor ">
<polygon fill="none" stroke="black" points="288.5,-47 288.5,-75 539.5,-75 539.5,-47 288.5,-47"/>
<text text-anchor="start" x="296.5" y="-63.8" font-family="Helvetica,sans-Serif" font-size="9.00">com.github.aptd.simulation.elements.graph.network.local.</text>
<text text-anchor="middle" x="414" y="-53.8" font-family="Helvetica,sans-Serif" font-size="9.00">CStation.CStation</text>
</a>
</g>
</g>
<!-- Node2&#45;&gt;Node3 -->
<g id="edge1" class="edge"><title>Node2&#45;&gt;Node3</title>
<path fill="none" stroke="midnightblue" d="M251.612,-47.4569C260.471,-48.2003 269.425,-48.9518 278.337,-49.6996"/>
<polygon fill="midnightblue" stroke="midnightblue" points="278.114,-53.1931 288.372,-50.5417 278.7,-46.2176 278.114,-53.1931"/>
</g>
<!-- Node4 -->
<g id="node3" class="node"><title>Node4</title>
<g id="a_node3"><a xlink:href="../../d6/df3/classcom_1_1github_1_1aptd_1_1simulation_1_1elements_1_1IBaseElement.htm#afeec4942d2aaeefe84d338c59bd0b00d" target="_top" xlink:title="com.github.aptd.simulation.elements.\lIBaseElement.toString">
<polygon fill="none" stroke="black" points="330,-0 330,-28 498,-28 498,-0 330,-0"/>
<text text-anchor="start" x="338" y="-16.8" font-family="Helvetica,sans-Serif" font-size="9.00">com.github.aptd.simulation.elements.</text>
<text text-anchor="middle" x="414" y="-6.8" font-family="Helvetica,sans-Serif" font-size="9.00">IBaseElement.toString</text>
</a>
</g>
</g>
<!-- Node2&#45;&gt;Node4 -->
<g id="edge2" class="edge"><title>Node2&#45;&gt;Node4</title>
<path fill="none" stroke="midnightblue" d="M251.612,-26.9788C274.483,-25.1395 297.992,-23.2489 319.747,-21.4994"/>
<polygon fill="midnightblue" stroke="midnightblue" points="320.254,-24.97 329.941,-20.6796 319.692,-17.9925 320.254,-24.97"/>
</g>
</g>
</svg>
