<?xml version="1.0" encoding="UTF-8" standalone="no"?>
<!DOCTYPE svg PUBLIC "-//W3C//DTD SVG 1.1//EN"
 "http://www.w3.org/Graphics/SVG/1.1/DTD/svg11.dtd">
<!-- Generated by graphviz version 2.36.0 (20140111.2315)
 -->
<!-- Title: com.github.aptd.simulation.elements.graph.network.local.CTrack Pages: 1 -->
<svg width="626pt" height="1040pt"
 viewBox="0.00 0.00 626.00 1040.00" xmlns="http://www.w3.org/2000/svg" xmlns:xlink="http://www.w3.org/1999/xlink">
<g id="graph0" class="graph" transform="scale(1 1) rotate(0) translate(4 1036)">
<title>com.github.aptd.simulation.elements.graph.network.local.CTrack</title>
<!-- Node8 -->
<g id="node1" class="node"><title>Node8</title>
<polygon fill="#bfbfbf" stroke="black" points="190.5,-1 190.5,-115 441.5,-115 441.5,-1 190.5,-1"/>
<text text-anchor="start" x="198.5" y="-103.8" font-family="Helvetica,sans-Serif" font-size="9.00">com.github.aptd.simulation.elements.graph.network.local.</text>
<text text-anchor="middle" x="316" y="-93.8" font-family="Helvetica,sans-Serif" font-size="9.00">CTrack</text>
<polyline fill="none" stroke="black" points="190.5,-87 441.5,-87 "/>
<text text-anchor="start" x="198.5" y="-75.8" font-family="Helvetica,sans-Serif" font-size="9.00">&#45; m_maximumspeed</text>
<text text-anchor="start" x="198.5" y="-65.8" font-family="Helvetica,sans-Serif" font-size="9.00">&#45; FUNCTOR</text>
<text text-anchor="start" x="198.5" y="-55.8" font-family="Helvetica,sans-Serif" font-size="9.00">&#45; serialVersionUID</text>
<polyline fill="none" stroke="black" points="190.5,-49 441.5,-49 "/>
<text text-anchor="start" x="198.5" y="-37.8" font-family="Helvetica,sans-Serif" font-size="9.00">+ from()</text>
<text text-anchor="start" x="198.5" y="-27.8" font-family="Helvetica,sans-Serif" font-size="9.00">+ to()</text>
<text text-anchor="start" x="198.5" y="-17.8" font-family="Helvetica,sans-Serif" font-size="9.00"># individualliteral()</text>
<text text-anchor="start" x="198.5" y="-7.8" font-family="Helvetica,sans-Serif" font-size="9.00">&#45; CTrack()</text>
</g>
<!-- Node9 -->
<g id="node2" class="node"><title>Node9</title>
<g id="a_node2"><a xlink:href="../../d6/df3/classcom_1_1github_1_1aptd_1_1simulation_1_1elements_1_1IBaseElement.htm" target="_top" xlink:title="base simulation element structure ">
<polygon fill="none" stroke="black" points="137,-173 137,-487 271,-487 271,-173 137,-173"/>
<text text-anchor="start" x="145" y="-475.8" font-family="Helvetica,sans-Serif" font-size="9.00">com::github::aptd::</text>
<text text-anchor="start" x="145" y="-465.8" font-family="Helvetica,sans-Serif" font-size="9.00">simulation::elements</text>
<text text-anchor="middle" x="204" y="-455.8" font-family="Helvetica,sans-Serif" font-size="9.00">::IBaseElement&lt; ITrack&lt;?&gt; &gt;</text>
<polyline fill="none" stroke="black" points="137,-449 271,-449 "/>
<text text-anchor="start" x="145" y="-437.8" font-family="Helvetica,sans-Serif" font-size="9.00"># m_id</text>
<text text-anchor="start" x="145" y="-427.8" font-family="Helvetica,sans-Serif" font-size="9.00"># m_input</text>
<text text-anchor="start" x="145" y="-417.8" font-family="Helvetica,sans-Serif" font-size="9.00"># m_nextactivation</text>
<text text-anchor="start" x="145" y="-407.8" font-family="Helvetica,sans-Serif" font-size="9.00">&#45; m_environment</text>
<text text-anchor="start" x="145" y="-397.8" font-family="Helvetica,sans-Serif" font-size="9.00">&#45; m_external</text>
<text text-anchor="start" x="145" y="-387.8" font-family="Helvetica,sans-Serif" font-size="9.00">&#45; m_functor</text>
<text text-anchor="start" x="145" y="-377.8" font-family="Helvetica,sans-Serif" font-size="9.00">&#45; m_timezone</text>
<text text-anchor="start" x="145" y="-367.8" font-family="Helvetica,sans-Serif" font-size="9.00">&#45; serialVersionUID</text>
<polyline fill="none" stroke="black" points="137,-361 271,-361 "/>
<text text-anchor="start" x="145" y="-349.8" font-family="Helvetica,sans-Serif" font-size="9.00">+ call()</text>
<text text-anchor="start" x="145" y="-339.8" font-family="Helvetica,sans-Serif" font-size="9.00">+ environment()</text>
<text text-anchor="start" x="145" y="-329.8" font-family="Helvetica,sans-Serif" font-size="9.00">+ equals()</text>
<text text-anchor="start" x="145" y="-319.8" font-family="Helvetica,sans-Serif" font-size="9.00">+ hashCode()</text>
<text text-anchor="start" x="145" y="-309.8" font-family="Helvetica,sans-Serif" font-size="9.00">+ id()</text>
<text text-anchor="start" x="145" y="-299.8" font-family="Helvetica,sans-Serif" font-size="9.00">+ imminent()</text>
<text text-anchor="start" x="145" y="-289.8" font-family="Helvetica,sans-Serif" font-size="9.00">+ input()</text>
<text text-anchor="start" x="145" y="-279.8" font-family="Helvetica,sans-Serif" font-size="9.00">+ literal()</text>
<text text-anchor="start" x="145" y="-269.8" font-family="Helvetica,sans-Serif" font-size="9.00">+ literal()</text>
<text text-anchor="start" x="145" y="-259.8" font-family="Helvetica,sans-Serif" font-size="9.00">+ nextactivation()</text>
<text text-anchor="start" x="145" y="-249.8" font-family="Helvetica,sans-Serif" font-size="9.00">+ output()</text>
<text text-anchor="start" x="145" y="-239.8" font-family="Helvetica,sans-Serif" font-size="9.00">+ toString()</text>
<text text-anchor="start" x="145" y="-229.8" font-family="Helvetica,sans-Serif" font-size="9.00"># IBaseElement()</text>
<text text-anchor="start" x="145" y="-219.8" font-family="Helvetica,sans-Serif" font-size="9.00"># individualliteral()</text>
<text text-anchor="start" x="145" y="-209.8" font-family="Helvetica,sans-Serif" font-size="9.00">&#45; currentTime()</text>
<text text-anchor="start" x="145" y="-199.8" font-family="Helvetica,sans-Serif" font-size="9.00">&#45; getNextActivation()</text>
<text text-anchor="start" x="145" y="-189.8" font-family="Helvetica,sans-Serif" font-size="9.00">&#45; maxTime()</text>
<text text-anchor="start" x="145" y="-179.8" font-family="Helvetica,sans-Serif" font-size="9.00">&#45; setNextActivation()</text>
</a>
</g>
</g>
<!-- Node9&#45;&gt;Node8 -->
<g id="edge1" class="edge"><title>Node9&#45;&gt;Node8</title>
<path fill="none" stroke="midnightblue" d="M272.794,-163.157C279.887,-146.057 286.691,-129.655 292.717,-115.129"/>
<polygon fill="none" stroke="midnightblue" points="269.425,-162.144 268.827,-172.722 275.891,-164.826 269.425,-162.144"/>
</g>
<!-- Node10 -->
<g id="node3" class="node"><title>Node10</title>
<g id="a_node3"><a xlink:href="../../dd/dd7/interfacecom_1_1github_1_1aptd_1_1simulation_1_1elements_1_1IElement.htm" target="_top" xlink:title="{com.github.aptd.simulation.elements.\lIElement\&lt; N \&gt;\n||+ environment()\l+ id()\l+ imminent()\l+ input()\l+ nextactivation()\l+ output()\l}">
<polygon fill="none" stroke="black" points="0,-535 0,-649 168,-649 168,-535 0,-535"/>
<text text-anchor="start" x="8" y="-637.8" font-family="Helvetica,sans-Serif" font-size="9.00">com.github.aptd.simulation.elements.</text>
<text text-anchor="middle" x="84" y="-627.8" font-family="Helvetica,sans-Serif" font-size="9.00">IElement&lt; N &gt;</text>
<polyline fill="none" stroke="black" points="0,-621 168,-621 "/>
<text text-anchor="middle" x="84" y="-609.8" font-family="Helvetica,sans-Serif" font-size="9.00"> </text>
<polyline fill="none" stroke="black" points="0,-603 168,-603 "/>
<text text-anchor="start" x="8" y="-591.8" font-family="Helvetica,sans-Serif" font-size="9.00">+ environment()</text>
<text text-anchor="start" x="8" y="-581.8" font-family="Helvetica,sans-Serif" font-size="9.00">+ id()</text>
<text text-anchor="start" x="8" y="-571.8" font-family="Helvetica,sans-Serif" font-size="9.00">+ imminent()</text>
<text text-anchor="start" x="8" y="-561.8" font-family="Helvetica,sans-Serif" font-size="9.00">+ input()</text>
<text text-anchor="start" x="8" y="-551.8" font-family="Helvetica,sans-Serif" font-size="9.00">+ nextactivation()</text>
<text text-anchor="start" x="8" y="-541.8" font-family="Helvetica,sans-Serif" font-size="9.00">+ output()</text>
</a>
</g>
</g>
<!-- Node10&#45;&gt;Node9 -->
<g id="edge2" class="edge"><title>Node10&#45;&gt;Node9</title>
<path fill="none" stroke="midnightblue" d="M114.17,-525.632C121.203,-510.394 128.969,-493.566 136.904,-476.375"/>
<polygon fill="none" stroke="midnightblue" points="110.903,-524.358 109.89,-534.904 117.259,-527.291 110.903,-524.358"/>
</g>
<!-- Node11 -->
<g id="node4" class="node"><title>Node11</title>
<g id="a_node4"><a xlink:href="../../dd/dd7/interfacecom_1_1github_1_1aptd_1_1simulation_1_1elements_1_1IElement.htm" target="_top" xlink:title="any object interface ">
<polygon fill="none" stroke="black" points="4,-798 4,-912 172,-912 172,-798 4,-798"/>
<text text-anchor="start" x="12" y="-900.8" font-family="Helvetica,sans-Serif" font-size="9.00">com.github.aptd.simulation.elements.</text>
<text text-anchor="middle" x="88" y="-890.8" font-family="Helvetica,sans-Serif" font-size="9.00">IElement&lt; T extends IAgent&lt;?&gt;</text>
<polyline fill="none" stroke="black" points="4,-884 172,-884 "/>
<text text-anchor="middle" x="88" y="-872.8" font-family="Helvetica,sans-Serif" font-size="9.00"> </text>
<polyline fill="none" stroke="black" points="4,-866 172,-866 "/>
<text text-anchor="start" x="12" y="-854.8" font-family="Helvetica,sans-Serif" font-size="9.00">+ environment()</text>
<text text-anchor="start" x="12" y="-844.8" font-family="Helvetica,sans-Serif" font-size="9.00">+ id()</text>
<text text-anchor="start" x="12" y="-834.8" font-family="Helvetica,sans-Serif" font-size="9.00">+ imminent()</text>
<text text-anchor="start" x="12" y="-824.8" font-family="Helvetica,sans-Serif" font-size="9.00">+ input()</text>
<text text-anchor="start" x="12" y="-814.8" font-family="Helvetica,sans-Serif" font-size="9.00">+ nextactivation()</text>
<text text-anchor="start" x="12" y="-804.8" font-family="Helvetica,sans-Serif" font-size="9.00">+ output()</text>
</a>
</g>
</g>
<!-- Node11&#45;&gt;Node10 -->
<g id="edge3" class="edge"><title>Node11&#45;&gt;Node10</title>
<path fill="none" stroke="orange" d="M84.4239,-787.567C84.2552,-782.977 84.1104,-778.42 84,-774 82.9561,-732.22 82.9969,-684.997 83.2771,-649.265"/>
<polygon fill="orange" stroke="orange" points="80.9296,-787.78 84.8279,-797.632 87.9239,-787.5 80.9296,-787.78"/>
<text text-anchor="middle" x="96.5" y="-718.8" font-family="Helvetica,sans-Serif" font-size="9.00"> &lt; N &gt;</text>
</g>
<!-- Node12 -->
<g id="node5" class="node"><title>Node12</title>
<g id="a_node5"><a xlink:href="../../d4/d0d/interfacecom_1_1github_1_1aptd_1_1simulation_1_1elements_1_1IPerceiveable.htm" target="_top" xlink:title="any object which be perceived by an agent ">
<polygon fill="none" stroke="black" points="118,-957 118,-1031 286,-1031 286,-957 118,-957"/>
<text text-anchor="start" x="126" y="-1019.8" font-family="Helvetica,sans-Serif" font-size="9.00">com.github.aptd.simulation.elements.</text>
<text text-anchor="middle" x="202" y="-1009.8" font-family="Helvetica,sans-Serif" font-size="9.00">IPerceiveable</text>
<polyline fill="none" stroke="black" points="118,-1003 286,-1003 "/>
<text text-anchor="middle" x="202" y="-991.8" font-family="Helvetica,sans-Serif" font-size="9.00"> </text>
<polyline fill="none" stroke="black" points="118,-985 286,-985 "/>
<text text-anchor="start" x="126" y="-973.8" font-family="Helvetica,sans-Serif" font-size="9.00">+ literal()</text>
<text text-anchor="start" x="126" y="-963.8" font-family="Helvetica,sans-Serif" font-size="9.00">+ literal()</text>
</a>
</g>
</g>
<!-- Node12&#45;&gt;Node11 -->
<g id="edge4" class="edge"><title>Node12&#45;&gt;Node11</title>
<path fill="none" stroke="midnightblue" d="M165.191,-948.765C155.487,-937.103 144.887,-924.364 134.736,-912.165"/>
<polygon fill="none" stroke="midnightblue" points="162.663,-951.198 171.749,-956.646 168.043,-946.721 162.663,-951.198"/>
</g>
<!-- Node13 -->
<g id="node6" class="node"><title>Node13</title>
<g id="a_node6"><a xlink:href="../../db/d65/interfacecom_1_1github_1_1aptd_1_1simulation_1_1core_1_1time_1_1ITime.htm" target="_top" xlink:title="time interface ">
<polygon fill="none" stroke="black" points="118,-669 118,-773 286,-773 286,-669 118,-669"/>
<text text-anchor="start" x="126" y="-761.8" font-family="Helvetica,sans-Serif" font-size="9.00">com.github.aptd.simulation.core.time.</text>
<text text-anchor="middle" x="202" y="-751.8" font-family="Helvetica,sans-Serif" font-size="9.00">ITime</text>
<polyline fill="none" stroke="black" points="118,-745 286,-745 "/>
<text text-anchor="middle" x="202" y="-733.8" font-family="Helvetica,sans-Serif" font-size="9.00"> </text>
<polyline fill="none" stroke="black" points="118,-727 286,-727 "/>
<text text-anchor="start" x="126" y="-715.8" font-family="Helvetica,sans-Serif" font-size="9.00">+ active()</text>
<text text-anchor="start" x="126" y="-705.8" font-family="Helvetica,sans-Serif" font-size="9.00">+ addagent()</text>
<text text-anchor="start" x="126" y="-695.8" font-family="Helvetica,sans-Serif" font-size="9.00">+ current()</text>
<text text-anchor="start" x="126" y="-685.8" font-family="Helvetica,sans-Serif" font-size="9.00">+ raw()</text>
<text text-anchor="start" x="126" y="-675.8" font-family="Helvetica,sans-Serif" font-size="9.00">+ removeagent()</text>
</a>
</g>
</g>
<!-- Node12&#45;&gt;Node13 -->
<g id="edge6" class="edge"><title>Node12&#45;&gt;Node13</title>
<path fill="none" stroke="midnightblue" d="M202,-946.584C202,-898.404 202,-823.24 202,-773.32"/>
<polygon fill="none" stroke="midnightblue" points="198.5,-946.733 202,-956.733 205.5,-946.733 198.5,-946.733"/>
</g>
<!-- Node16 -->
<g id="node9" class="node"><title>Node16</title>
<g id="a_node9"><a xlink:href="../../dd/dd7/interfacecom_1_1github_1_1aptd_1_1simulation_1_1elements_1_1IElement.htm" target="_top" xlink:title="any object interface ">
<polygon fill="none" stroke="black" points="384.5,-793 384.5,-917 485.5,-917 485.5,-793 384.5,-793"/>
<text text-anchor="start" x="392.5" y="-905.8" font-family="Helvetica,sans-Serif" font-size="9.00">com::github::aptd::</text>
<text text-anchor="start" x="392.5" y="-895.8" font-family="Helvetica,sans-Serif" font-size="9.00">simulation::elements</text>
<text text-anchor="middle" x="435" y="-885.8" font-family="Helvetica,sans-Serif" font-size="9.00">::IElement&lt; T &gt;</text>
<polyline fill="none" stroke="black" points="384.5,-879 485.5,-879 "/>
<text text-anchor="middle" x="435" y="-867.8" font-family="Helvetica,sans-Serif" font-size="9.00"> </text>
<polyline fill="none" stroke="black" points="384.5,-861 485.5,-861 "/>
<text text-anchor="start" x="392.5" y="-849.8" font-family="Helvetica,sans-Serif" font-size="9.00">+ environment()</text>
<text text-anchor="start" x="392.5" y="-839.8" font-family="Helvetica,sans-Serif" font-size="9.00">+ id()</text>
<text text-anchor="start" x="392.5" y="-829.8" font-family="Helvetica,sans-Serif" font-size="9.00">+ imminent()</text>
<text text-anchor="start" x="392.5" y="-819.8" font-family="Helvetica,sans-Serif" font-size="9.00">+ input()</text>
<text text-anchor="start" x="392.5" y="-809.8" font-family="Helvetica,sans-Serif" font-size="9.00">+ nextactivation()</text>
<text text-anchor="start" x="392.5" y="-799.8" font-family="Helvetica,sans-Serif" font-size="9.00">+ output()</text>
</a>
</g>
</g>
<!-- Node12&#45;&gt;Node16 -->
<g id="edge10" class="edge"><title>Node12&#45;&gt;Node16</title>
<path fill="none" stroke="midnightblue" d="M295.419,-960.404C322.264,-948.983 350.801,-934.749 375,-918 378.202,-915.784 381.373,-913.378 384.486,-910.844"/>
<polygon fill="none" stroke="midnightblue" points="293.889,-957.25 286.004,-964.326 296.581,-963.711 293.889,-957.25"/>
</g>
<!-- Node13&#45;&gt;Node9 -->
<g id="edge5" class="edge"><title>Node13&#45;&gt;Node9</title>
<path fill="none" stroke="#404040" d="M202.264,-668.745C202.487,-625.323 202.82,-560.528 203.135,-499.269"/>
<polygon fill="none" stroke="#404040" points="203.136,-499.072 199.167,-493.051 203.198,-487.072 207.167,-493.093 203.136,-499.072"/>
<text text-anchor="middle" x="222" y="-589.8" font-family="Helvetica,sans-Serif" font-size="9.00"> #m_time</text>
</g>
<!-- Node14 -->
<g id="node7" class="node"><title>Node14</title>
<g id="a_node7"><a xlink:href="../../d8/daf/interfacecom_1_1github_1_1aptd_1_1simulation_1_1elements_1_1graph_1_1network_1_1ITrack.htm" target="_top" xlink:title="interface of network edge ">
<polygon fill="none" stroke="black" points="260.5,-550 260.5,-634 371.5,-634 371.5,-550 260.5,-550"/>
<text text-anchor="start" x="268.5" y="-622.8" font-family="Helvetica,sans-Serif" font-size="9.00">com::github::aptd::</text>
<text text-anchor="start" x="268.5" y="-612.8" font-family="Helvetica,sans-Serif" font-size="9.00">simulation::elements</text>
<text text-anchor="start" x="268.5" y="-602.8" font-family="Helvetica,sans-Serif" font-size="9.00">::graph::network::ITrack</text>
<text text-anchor="middle" x="316" y="-592.8" font-family="Helvetica,sans-Serif" font-size="9.00">&lt; ITrack&lt;?&gt; &gt;</text>
<polyline fill="none" stroke="black" points="260.5,-586 371.5,-586 "/>
<text text-anchor="middle" x="316" y="-574.8" font-family="Helvetica,sans-Serif" font-size="9.00"> </text>
<polyline fill="none" stroke="black" points="260.5,-568 371.5,-568 "/>
<text text-anchor="middle" x="316" y="-556.8" font-family="Helvetica,sans-Serif" font-size="9.00"> </text>
</a>
</g>
</g>
<!-- Node14&#45;&gt;Node8 -->
<g id="edge7" class="edge"><title>Node14&#45;&gt;Node8</title>
<path fill="none" stroke="midnightblue" d="M316,-539.524C316,-439.35 316,-218.945 316,-115.152"/>
<polygon fill="none" stroke="midnightblue" points="312.5,-539.697 316,-549.698 319.5,-539.698 312.5,-539.697"/>
</g>
<!-- Node15 -->
<g id="node8" class="node"><title>Node15</title>
<g id="a_node8"><a xlink:href="../../d1/d9f/interfacecom_1_1github_1_1aptd_1_1simulation_1_1elements_1_1graph_1_1IEdge.htm" target="_top" xlink:title="interface of edges ">
<polygon fill="none" stroke="black" points="231.5,-813 231.5,-897 366.5,-897 366.5,-813 231.5,-813"/>
<text text-anchor="start" x="239.5" y="-885.8" font-family="Helvetica,sans-Serif" font-size="9.00">com::github::aptd::</text>
<text text-anchor="start" x="239.5" y="-875.8" font-family="Helvetica,sans-Serif" font-size="9.00">simulation::elements</text>
<text text-anchor="middle" x="299" y="-865.8" font-family="Helvetica,sans-Serif" font-size="9.00">::graph::IEdge&lt; IStation&lt;?&gt; &gt;</text>
<polyline fill="none" stroke="black" points="231.5,-859 366.5,-859 "/>
<text text-anchor="middle" x="299" y="-847.8" font-family="Helvetica,sans-Serif" font-size="9.00"> </text>
<polyline fill="none" stroke="black" points="231.5,-841 366.5,-841 "/>
<text text-anchor="start" x="239.5" y="-829.8" font-family="Helvetica,sans-Serif" font-size="9.00">+ from()</text>
<text text-anchor="start" x="239.5" y="-819.8" font-family="Helvetica,sans-Serif" font-size="9.00">+ to()</text>
</a>
</g>
</g>
<!-- Node15&#45;&gt;Node14 -->
<g id="edge8" class="edge"><title>Node15&#45;&gt;Node14</title>
<path fill="none" stroke="midnightblue" d="M302.335,-802.801C305.545,-753.51 310.339,-679.906 313.313,-634.259"/>
<polygon fill="none" stroke="midnightblue" points="298.832,-802.725 301.675,-812.932 305.818,-803.18 298.832,-802.725"/>
</g>
<!-- Node16&#45;&gt;Node14 -->
<g id="edge9" class="edge"><title>Node16&#45;&gt;Node14</title>
<path fill="none" stroke="midnightblue" d="M402.834,-783.451C381.064,-735.704 353.058,-674.278 334.825,-634.289"/>
<polygon fill="none" stroke="midnightblue" points="399.767,-785.16 407.1,-792.807 406.136,-782.256 399.767,-785.16"/>
</g>
<!-- Node18 -->
<g id="node11" class="node"><title>Node18</title>
<g id="a_node11"><a xlink:href="../../d7/d7a/interfacecom_1_1github_1_1aptd_1_1simulation_1_1elements_1_1graph_1_1network_1_1IStation.htm" target="_top" xlink:title="interface of a node, which is a train station ">
<polygon fill="none" stroke="black" points="389.5,-560 389.5,-624 618.5,-624 618.5,-560 389.5,-560"/>
<text text-anchor="start" x="397.5" y="-612.8" font-family="Helvetica,sans-Serif" font-size="9.00">com.github.aptd.simulation.elements.graph.network.</text>
<text text-anchor="middle" x="504" y="-602.8" font-family="Helvetica,sans-Serif" font-size="9.00">IStation&lt; T extends IStation&lt;?&gt;</text>
<polyline fill="none" stroke="black" points="389.5,-596 618.5,-596 "/>
<text text-anchor="middle" x="504" y="-584.8" font-family="Helvetica,sans-Serif" font-size="9.00"> </text>
<polyline fill="none" stroke="black" points="389.5,-578 618.5,-578 "/>
<text text-anchor="start" x="397.5" y="-566.8" font-family="Helvetica,sans-Serif" font-size="9.00">+ gps()</text>
</a>
</g>
</g>
<!-- Node16&#45;&gt;Node18 -->
<g id="edge14" class="edge"><title>Node16&#45;&gt;Node18</title>
<path fill="none" stroke="midnightblue" d="M453.776,-782.978C467.505,-731.047 485.46,-663.131 495.763,-624.158"/>
<polygon fill="none" stroke="midnightblue" points="450.35,-782.245 451.177,-792.807 457.117,-784.034 450.35,-782.245"/>
</g>
<!-- Node17 -->
<g id="node10" class="node"><title>Node17</title>
<g id="a_node10"><a xlink:href="../../d7/d7a/interfacecom_1_1github_1_1aptd_1_1simulation_1_1elements_1_1graph_1_1network_1_1IStation.htm" target="_top" xlink:title="{com.github.aptd.simulation.elements.graph.network.\lIStation\&lt;?\&gt;\n||+ gps()\l}">
<polygon fill="none" stroke="black" points="355.5,-298 355.5,-362 584.5,-362 584.5,-298 355.5,-298"/>
<text text-anchor="start" x="363.5" y="-350.8" font-family="Helvetica,sans-Serif" font-size="9.00">com.github.aptd.simulation.elements.graph.network.</text>
<text text-anchor="middle" x="470" y="-340.8" font-family="Helvetica,sans-Serif" font-size="9.00">IStation&lt;?&gt;</text>
<polyline fill="none" stroke="black" points="355.5,-334 584.5,-334 "/>
<text text-anchor="middle" x="470" y="-322.8" font-family="Helvetica,sans-Serif" font-size="9.00"> </text>
<polyline fill="none" stroke="black" points="355.5,-316 584.5,-316 "/>
<text text-anchor="start" x="363.5" y="-304.8" font-family="Helvetica,sans-Serif" font-size="9.00">+ gps()</text>
</a>
</g>
</g>
<!-- Node17&#45;&gt;Node8 -->
<g id="edge11" class="edge"><title>Node17&#45;&gt;Node8</title>
<path fill="none" stroke="#404040" d="M452.184,-297.764C428.32,-255.925 385.358,-180.602 354.054,-125.718"/>
<polygon fill="none" stroke="#404040" points="353.903,-125.453 347.456,-122.223 347.958,-115.03 354.405,-118.26 353.903,-125.453"/>
<text text-anchor="middle" x="383" y="-146.8" font-family="Helvetica,sans-Serif" font-size="9.00"> &#45;m_to</text>
<text text-anchor="middle" x="383" y="-136.8" font-family="Helvetica,sans-Serif" font-size="9.00">&#45;m_from</text>
</g>
<!-- Node18&#45;&gt;Node17 -->
<g id="edge12" class="edge"><title>Node18&#45;&gt;Node17</title>
<path fill="none" stroke="orange" d="M498.594,-549.658C491.772,-497.491 480.193,-408.945 474.072,-362.14"/>
<polygon fill="orange" stroke="orange" points="495.165,-550.434 499.933,-559.896 502.106,-549.527 495.165,-550.434"/>
<text text-anchor="middle" x="503.5" y="-508.8" font-family="Helvetica,sans-Serif" font-size="9.00"> &lt;?&gt;</text>
</g>
<!-- Node19 -->
<g id="node12" class="node"><title>Node19</title>
<g id="a_node12"><a xlink:href="../../de/d20/interfacecom_1_1github_1_1aptd_1_1simulation_1_1elements_1_1graph_1_1IVertex.htm" target="_top" xlink:title="interface of graph nodes ">
<polygon fill="none" stroke="black" points="503.5,-818 503.5,-892 604.5,-892 604.5,-818 503.5,-818"/>
<text text-anchor="start" x="511.5" y="-880.8" font-family="Helvetica,sans-Serif" font-size="9.00">com::github::aptd::</text>
<text text-anchor="start" x="511.5" y="-870.8" font-family="Helvetica,sans-Serif" font-size="9.00">simulation::elements</text>
<text text-anchor="middle" x="554" y="-860.8" font-family="Helvetica,sans-Serif" font-size="9.00">::graph::IVertex&lt; T &gt;</text>
<polyline fill="none" stroke="black" points="503.5,-854 604.5,-854 "/>
<text text-anchor="middle" x="554" y="-842.8" font-family="Helvetica,sans-Serif" font-size="9.00"> </text>
<polyline fill="none" stroke="black" points="503.5,-836 604.5,-836 "/>
<text text-anchor="middle" x="554" y="-824.8" font-family="Helvetica,sans-Serif" font-size="9.00"> </text>
</a>
</g>
</g>
<!-- Node19&#45;&gt;Node18 -->
<g id="edge13" class="edge"><title>Node19&#45;&gt;Node18</title>
<path fill="none" stroke="midnightblue" d="M545.161,-807.86C535.031,-754.983 518.707,-669.769 509.971,-624.167"/>
<polygon fill="none" stroke="midnightblue" points="541.781,-808.82 547.1,-817.983 548.656,-807.503 541.781,-808.82"/>
</g>
</g>
</svg>
