<?xml version="1.0" encoding="UTF-8" standalone="no"?>
<!DOCTYPE svg PUBLIC "-//W3C//DTD SVG 1.1//EN"
 "http://www.w3.org/Graphics/SVG/1.1/DTD/svg11.dtd">
<!-- Generated by graphviz version 2.36.0 (20140111.2315)
 -->
<!-- Title: com.github.aptd.simulation.elements.dispatcher.CDispatcher.CGenerator Pages: 1 -->
<svg width="220pt" height="514pt"
 viewBox="0.00 0.00 220.00 514.00" xmlns="http://www.w3.org/2000/svg" xmlns:xlink="http://www.w3.org/1999/xlink">
<g id="graph0" class="graph" transform="scale(1 1) rotate(0) translate(4 510)">
<title>com.github.aptd.simulation.elements.dispatcher.CDispatcher.CGenerator</title>
<!-- Node2 -->
<g id="node1" class="node"><title>Node2</title>
<polygon fill="#bfbfbf" stroke="black" points="-0.5,-1 -0.5,-75 212.5,-75 212.5,-1 -0.5,-1"/>
<text text-anchor="start" x="7.5" y="-63.8" font-family="Helvetica,sans-Serif" font-size="9.00">com.github.aptd.simulation.elements.dispatcher.</text>
<text text-anchor="middle" x="106" y="-53.8" font-family="Helvetica,sans-Serif" font-size="9.00">CDispatcher.CGenerator</text>
<polyline fill="none" stroke="black" points="-0.5,-47 212.5,-47 "/>
<text text-anchor="middle" x="106" y="-35.8" font-family="Helvetica,sans-Serif" font-size="9.00"> </text>
<polyline fill="none" stroke="black" points="-0.5,-29 212.5,-29 "/>
<text text-anchor="start" x="7.5" y="-17.8" font-family="Helvetica,sans-Serif" font-size="9.00">+ CGenerator()</text>
<text text-anchor="start" x="7.5" y="-7.8" font-family="Helvetica,sans-Serif" font-size="9.00"># generate()</text>
</g>
<!-- Node3 -->
<g id="node2" class="node"><title>Node3</title>
<g id="a_node2"><a xlink:href="../../d1/d9f/classcom_1_1github_1_1aptd_1_1simulation_1_1elements_1_1IBaseElement_1_1IBaseGenerator.htm" target="_top" xlink:title="base agent generator ">
<polygon fill="none" stroke="black" points="40,-115 40,-239 172,-239 172,-115 40,-115"/>
<text text-anchor="start" x="48" y="-227.8" font-family="Helvetica,sans-Serif" font-size="9.00">com::github::aptd::</text>
<text text-anchor="start" x="48" y="-217.8" font-family="Helvetica,sans-Serif" font-size="9.00">simulation::elements</text>
<text text-anchor="start" x="48" y="-207.8" font-family="Helvetica,sans-Serif" font-size="9.00">::IBaseElement&lt; IDispatcher</text>
<text text-anchor="middle" x="106" y="-197.8" font-family="Helvetica,sans-Serif" font-size="9.00">&lt;?&gt; &gt;::IBaseGenerator</text>
<polyline fill="none" stroke="black" points="40,-191 172,-191 "/>
<text text-anchor="start" x="48" y="-179.8" font-family="Helvetica,sans-Serif" font-size="9.00">&#45; m_factory</text>
<polyline fill="none" stroke="black" points="40,-173 172,-173 "/>
<text text-anchor="start" x="48" y="-161.8" font-family="Helvetica,sans-Serif" font-size="9.00">+ generatesingle()</text>
<text text-anchor="start" x="48" y="-151.8" font-family="Helvetica,sans-Serif" font-size="9.00">+ resetcount()</text>
<text text-anchor="start" x="48" y="-141.8" font-family="Helvetica,sans-Serif" font-size="9.00"># IBaseGenerator()</text>
<text text-anchor="start" x="48" y="-131.8" font-family="Helvetica,sans-Serif" font-size="9.00"># configuration()</text>
<text text-anchor="start" x="48" y="-121.8" font-family="Helvetica,sans-Serif" font-size="9.00"># generate()</text>
</a>
</g>
</g>
<!-- Node3&#45;&gt;Node2 -->
<g id="edge1" class="edge"><title>Node3&#45;&gt;Node2</title>
<path fill="none" stroke="midnightblue" d="M106,-104.523C106,-94.3286 106,-84.2225 106,-75.1099"/>
<polygon fill="none" stroke="midnightblue" points="102.5,-104.713 106,-114.713 109.5,-104.713 102.5,-104.713"/>
</g>
<!-- Node4 -->
<g id="node3" class="node"><title>Node4</title>
<g id="a_node3"><a xlink:href="../../db/d65/interfacecom_1_1github_1_1aptd_1_1simulation_1_1core_1_1time_1_1ITime.htm" target="_top" xlink:title="time interface ">
<polygon fill="none" stroke="black" points="22,-287 22,-391 190,-391 190,-287 22,-287"/>
<text text-anchor="start" x="30" y="-379.8" font-family="Helvetica,sans-Serif" font-size="9.00">com.github.aptd.simulation.core.time.</text>
<text text-anchor="middle" x="106" y="-369.8" font-family="Helvetica,sans-Serif" font-size="9.00">ITime</text>
<polyline fill="none" stroke="black" points="22,-363 190,-363 "/>
<text text-anchor="middle" x="106" y="-351.8" font-family="Helvetica,sans-Serif" font-size="9.00"> </text>
<polyline fill="none" stroke="black" points="22,-345 190,-345 "/>
<text text-anchor="start" x="30" y="-333.8" font-family="Helvetica,sans-Serif" font-size="9.00">+ active()</text>
<text text-anchor="start" x="30" y="-323.8" font-family="Helvetica,sans-Serif" font-size="9.00">+ addagent()</text>
<text text-anchor="start" x="30" y="-313.8" font-family="Helvetica,sans-Serif" font-size="9.00">+ current()</text>
<text text-anchor="start" x="30" y="-303.8" font-family="Helvetica,sans-Serif" font-size="9.00">+ raw()</text>
<text text-anchor="start" x="30" y="-293.8" font-family="Helvetica,sans-Serif" font-size="9.00">+ removeagent()</text>
</a>
</g>
</g>
<!-- Node4&#45;&gt;Node3 -->
<g id="edge2" class="edge"><title>Node4&#45;&gt;Node3</title>
<path fill="none" stroke="#404040" d="M106,-286.935C106,-275.668 106,-263.515 106,-251.556"/>
<polygon fill="none" stroke="#404040" points="106,-251.208 102,-245.208 106,-239.208 110,-245.208 106,-251.208"/>
<text text-anchor="middle" x="125" y="-260.8" font-family="Helvetica,sans-Serif" font-size="9.00"> #m_time</text>
</g>
<!-- Node5 -->
<g id="node4" class="node"><title>Node5</title>
<g id="a_node4"><a xlink:href="../../d4/d0d/interfacecom_1_1github_1_1aptd_1_1simulation_1_1elements_1_1IPerceiveable.htm" target="_top" xlink:title="any object which be perceived by an agent ">
<polygon fill="none" stroke="black" points="22,-431 22,-505 190,-505 190,-431 22,-431"/>
<text text-anchor="start" x="30" y="-493.8" font-family="Helvetica,sans-Serif" font-size="9.00">com.github.aptd.simulation.elements.</text>
<text text-anchor="middle" x="106" y="-483.8" font-family="Helvetica,sans-Serif" font-size="9.00">IPerceiveable</text>
<polyline fill="none" stroke="black" points="22,-477 190,-477 "/>
<text text-anchor="middle" x="106" y="-465.8" font-family="Helvetica,sans-Serif" font-size="9.00"> </text>
<polyline fill="none" stroke="black" points="22,-459 190,-459 "/>
<text text-anchor="start" x="30" y="-447.8" font-family="Helvetica,sans-Serif" font-size="9.00">+ literal()</text>
<text text-anchor="start" x="30" y="-437.8" font-family="Helvetica,sans-Serif" font-size="9.00">+ literal()</text>
</a>
</g>
</g>
<!-- Node5&#45;&gt;Node4 -->
<g id="edge3" class="edge"><title>Node5&#45;&gt;Node4</title>
<path fill="none" stroke="midnightblue" d="M106,-420.814C106,-411.227 106,-401.07 106,-391.313"/>
<polygon fill="none" stroke="midnightblue" points="102.5,-420.947 106,-430.947 109.5,-420.947 102.5,-420.947"/>
</g>
</g>
</svg>
