<?xml version="1.0" encoding="UTF-8" standalone="no"?>
<!DOCTYPE svg PUBLIC "-//W3C//DTD SVG 1.1//EN"
 "http://www.w3.org/Graphics/SVG/1.1/DTD/svg11.dtd">
<!-- Generated by graphviz version 2.36.0 (20140111.2315)
 -->
<!-- Title: com.github.aptd.simulation.factory.EFactory Pages: 1 -->
<svg width="164pt" height="286pt"
 viewBox="0.00 0.00 164.00 286.00" xmlns="http://www.w3.org/2000/svg" xmlns:xlink="http://www.w3.org/1999/xlink">
<g id="graph0" class="graph" transform="scale(1 1) rotate(0) translate(4 282)">
<title>com.github.aptd.simulation.factory.EFactory</title>
<!-- Node1 -->
<g id="node1" class="node"><title>Node1</title>
<polygon fill="#bfbfbf" stroke="black" points="-1,-1 -1,-85 157,-85 157,-1 -1,-1"/>
<text text-anchor="start" x="7" y="-73.8" font-family="Helvetica,sans-Serif" font-size="9.00">com.github.aptd.simulation.factory.</text>
<text text-anchor="middle" x="78" y="-63.8" font-family="Helvetica,sans-Serif" font-size="9.00">EFactory</text>
<polyline fill="none" stroke="black" points="-1,-57 157,-57 "/>
<text text-anchor="start" x="7" y="-45.8" font-family="Helvetica,sans-Serif" font-size="9.00">+ LOCAL</text>
<polyline fill="none" stroke="black" points="-1,-39 157,-39 "/>
<text text-anchor="start" x="7" y="-27.8" font-family="Helvetica,sans-Serif" font-size="9.00">+ EFactory()</text>
<text text-anchor="start" x="7" y="-17.8" font-family="Helvetica,sans-Serif" font-size="9.00">+ factory()</text>
<text text-anchor="start" x="7" y="-7.8" font-family="Helvetica,sans-Serif" font-size="9.00">+ from()</text>
</g>
<!-- Node2 -->
<g id="node2" class="node"><title>Node2</title>
<g id="a_node2"><a xlink:href="../../d5/dff/interfacecom_1_1github_1_1aptd_1_1simulation_1_1factory_1_1IFactory.htm" target="_top" xlink:title="factory to generate all simulation entities ">
<polygon fill="none" stroke="black" points="-1,-133 -1,-277 157,-277 157,-133 -1,-133"/>
<text text-anchor="start" x="7" y="-265.8" font-family="Helvetica,sans-Serif" font-size="9.00">com.github.aptd.simulation.factory.</text>
<text text-anchor="middle" x="78" y="-255.8" font-family="Helvetica,sans-Serif" font-size="9.00">IFactory</text>
<polyline fill="none" stroke="black" points="-1,-249 157,-249 "/>
<text text-anchor="middle" x="78" y="-237.8" font-family="Helvetica,sans-Serif" font-size="9.00"> </text>
<polyline fill="none" stroke="black" points="-1,-231 157,-231 "/>
<text text-anchor="start" x="7" y="-219.8" font-family="Helvetica,sans-Serif" font-size="9.00">+ door()</text>
<text text-anchor="start" x="7" y="-209.8" font-family="Helvetica,sans-Serif" font-size="9.00">+ network()</text>
<text text-anchor="start" x="7" y="-199.8" font-family="Helvetica,sans-Serif" font-size="9.00">+ passenger()</text>
<text text-anchor="start" x="7" y="-189.8" font-family="Helvetica,sans-Serif" font-size="9.00">+ passengersource()</text>
<text text-anchor="start" x="7" y="-179.8" font-family="Helvetica,sans-Serif" font-size="9.00">+ platform()</text>
<text text-anchor="start" x="7" y="-169.8" font-family="Helvetica,sans-Serif" font-size="9.00">+ station()</text>
<text text-anchor="start" x="7" y="-159.8" font-family="Helvetica,sans-Serif" font-size="9.00">+ train()</text>
<text text-anchor="start" x="7" y="-149.8" font-family="Helvetica,sans-Serif" font-size="9.00">+ transit()</text>
<text text-anchor="start" x="7" y="-139.8" font-family="Helvetica,sans-Serif" font-size="9.00">+ virtual()</text>
</a>
</g>
</g>
<!-- Node2&#45;&gt;Node1 -->
<g id="edge1" class="edge"><title>Node2&#45;&gt;Node1</title>
<path fill="none" stroke="#404040" d="M78,-132.89C78,-120.877 78,-108.593 78,-97.1398"/>
<polygon fill="none" stroke="#404040" points="78.0001,-97.0903 74,-91.0903 78,-85.0903 82,-91.0903 78.0001,-97.0903"/>
<text text-anchor="middle" x="101" y="-106.8" font-family="Helvetica,sans-Serif" font-size="9.00"> &#45;m_factory</text>
</g>
</g>
</svg>
