<?xml version="1.0" encoding="UTF-8" standalone="no"?>
<!DOCTYPE svg PUBLIC "-//W3C//DTD SVG 1.1//EN"
 "http://www.w3.org/Graphics/SVG/1.1/DTD/svg11.dtd">
<!-- Generated by graphviz version 2.36.0 (20140111.2315)
 -->
<!-- Title: com.github.aptd.simulation.elements.passenger.IPassengerSource&lt; T extends IPassengerSource&lt;?&gt; Pages: 1 -->
<svg width="240pt" height="728pt"
 viewBox="0.00 0.00 240.00 728.00" xmlns="http://www.w3.org/2000/svg" xmlns:xlink="http://www.w3.org/1999/xlink">
<g id="graph0" class="graph" transform="scale(1 1) rotate(0) translate(4 724)">
<title>com.github.aptd.simulation.elements.passenger.IPassengerSource&lt; T extends IPassengerSource&lt;?&gt;</title>
<!-- Node0 -->
<g id="node1" class="node"><title>Node0</title>
<polygon fill="#bfbfbf" stroke="black" points="-0.5,-377 -0.5,-441 232.5,-441 232.5,-377 -0.5,-377"/>
<text text-anchor="start" x="7.5" y="-429.8" font-family="Helvetica,sans-Serif" font-size="9.00">com.github.aptd.simulation.elements.passenger.</text>
<text text-anchor="middle" x="116" y="-419.8" font-family="Helvetica,sans-Serif" font-size="9.00">IPassengerSource&lt; T extends IPassengerSource&lt;?&gt;</text>
<polyline fill="none" stroke="black" points="-0.5,-413 232.5,-413 "/>
<text text-anchor="middle" x="116" y="-401.8" font-family="Helvetica,sans-Serif" font-size="9.00"> </text>
<polyline fill="none" stroke="black" points="-0.5,-395 232.5,-395 "/>
<text text-anchor="middle" x="116" y="-383.8" font-family="Helvetica,sans-Serif" font-size="9.00"> </text>
</g>
<!-- Node3 -->
<g id="node4" class="node"><title>Node3</title>
<g id="a_node4"><a xlink:href="../../dd/de2/interfacecom_1_1github_1_1aptd_1_1simulation_1_1elements_1_1passenger_1_1IPassengerSource.htm" target="_top" xlink:title="{com.github.aptd.simulation.elements.passenger.\lIPassengerSource\&lt; IPassengerSource\&lt;?\&gt; \&gt;\n||}">
<polygon fill="none" stroke="black" points="9,-265 9,-329 223,-329 223,-265 9,-265"/>
<text text-anchor="start" x="17" y="-317.8" font-family="Helvetica,sans-Serif" font-size="9.00">com.github.aptd.simulation.elements.passenger.</text>
<text text-anchor="middle" x="116" y="-307.8" font-family="Helvetica,sans-Serif" font-size="9.00">IPassengerSource&lt; IPassengerSource&lt;?&gt; &gt;</text>
<polyline fill="none" stroke="black" points="9,-301 223,-301 "/>
<text text-anchor="middle" x="116" y="-289.8" font-family="Helvetica,sans-Serif" font-size="9.00"> </text>
<polyline fill="none" stroke="black" points="9,-283 223,-283 "/>
<text text-anchor="middle" x="116" y="-271.8" font-family="Helvetica,sans-Serif" font-size="9.00"> </text>
</a>
</g>
</g>
<!-- Node0&#45;&gt;Node3 -->
<g id="edge3" class="edge"><title>Node0&#45;&gt;Node3</title>
<path fill="none" stroke="orange" d="M116,-366.667C116,-354.289 116,-340.925 116,-329.305"/>
<polygon fill="orange" stroke="orange" points="112.5,-366.773 116,-376.773 119.5,-366.773 112.5,-366.773"/>
<text text-anchor="middle" x="170.5" y="-350.8" font-family="Helvetica,sans-Serif" font-size="9.00"> &lt; IPassengerSource&lt;?&gt; &gt;</text>
</g>
<!-- Node1 -->
<g id="node2" class="node"><title>Node1</title>
<g id="a_node2"><a xlink:href="../../dd/dd7/interfacecom_1_1github_1_1aptd_1_1simulation_1_1elements_1_1IElement.htm" target="_top" xlink:title="any object interface ">
<polygon fill="none" stroke="black" points="65.5,-481 65.5,-605 166.5,-605 166.5,-481 65.5,-481"/>
<text text-anchor="start" x="73.5" y="-593.8" font-family="Helvetica,sans-Serif" font-size="9.00">com::github::aptd::</text>
<text text-anchor="start" x="73.5" y="-583.8" font-family="Helvetica,sans-Serif" font-size="9.00">simulation::elements</text>
<text text-anchor="middle" x="116" y="-573.8" font-family="Helvetica,sans-Serif" font-size="9.00">::IElement&lt; T &gt;</text>
<polyline fill="none" stroke="black" points="65.5,-567 166.5,-567 "/>
<text text-anchor="middle" x="116" y="-555.8" font-family="Helvetica,sans-Serif" font-size="9.00"> </text>
<polyline fill="none" stroke="black" points="65.5,-549 166.5,-549 "/>
<text text-anchor="start" x="73.5" y="-537.8" font-family="Helvetica,sans-Serif" font-size="9.00">+ environment()</text>
<text text-anchor="start" x="73.5" y="-527.8" font-family="Helvetica,sans-Serif" font-size="9.00">+ id()</text>
<text text-anchor="start" x="73.5" y="-517.8" font-family="Helvetica,sans-Serif" font-size="9.00">+ imminent()</text>
<text text-anchor="start" x="73.5" y="-507.8" font-family="Helvetica,sans-Serif" font-size="9.00">+ input()</text>
<text text-anchor="start" x="73.5" y="-497.8" font-family="Helvetica,sans-Serif" font-size="9.00">+ nextactivation()</text>
<text text-anchor="start" x="73.5" y="-487.8" font-family="Helvetica,sans-Serif" font-size="9.00">+ output()</text>
</a>
</g>
</g>
<!-- Node1&#45;&gt;Node0 -->
<g id="edge1" class="edge"><title>Node1&#45;&gt;Node0</title>
<path fill="none" stroke="midnightblue" d="M116,-470.323C116,-460.034 116,-449.93 116,-441.021"/>
<polygon fill="none" stroke="midnightblue" points="112.5,-470.637 116,-480.637 119.5,-470.637 112.5,-470.637"/>
</g>
<!-- Node2 -->
<g id="node3" class="node"><title>Node2</title>
<g id="a_node3"><a xlink:href="../../d4/d0d/interfacecom_1_1github_1_1aptd_1_1simulation_1_1elements_1_1IPerceiveable.htm" target="_top" xlink:title="any object which be perceived by an agent ">
<polygon fill="none" stroke="black" points="32,-645 32,-719 200,-719 200,-645 32,-645"/>
<text text-anchor="start" x="40" y="-707.8" font-family="Helvetica,sans-Serif" font-size="9.00">com.github.aptd.simulation.elements.</text>
<text text-anchor="middle" x="116" y="-697.8" font-family="Helvetica,sans-Serif" font-size="9.00">IPerceiveable</text>
<polyline fill="none" stroke="black" points="32,-691 200,-691 "/>
<text text-anchor="middle" x="116" y="-679.8" font-family="Helvetica,sans-Serif" font-size="9.00"> </text>
<polyline fill="none" stroke="black" points="32,-673 200,-673 "/>
<text text-anchor="start" x="40" y="-661.8" font-family="Helvetica,sans-Serif" font-size="9.00">+ literal()</text>
<text text-anchor="start" x="40" y="-651.8" font-family="Helvetica,sans-Serif" font-size="9.00">+ literal()</text>
</a>
</g>
</g>
<!-- Node2&#45;&gt;Node1 -->
<g id="edge2" class="edge"><title>Node2&#45;&gt;Node1</title>
<path fill="none" stroke="midnightblue" d="M116,-634.35C116,-624.963 116,-614.963 116,-605.166"/>
<polygon fill="none" stroke="midnightblue" points="112.5,-634.646 116,-644.646 119.5,-634.646 112.5,-634.646"/>
</g>
<!-- Node4 -->
<g id="node5" class="node"><title>Node4</title>
<g id="a_node5"><a xlink:href="../../d3/d24/classcom_1_1github_1_1aptd_1_1simulation_1_1elements_1_1passenger_1_1CPassengerSource.htm" target="_top" xlink:title="passenger source: an agent creating Passenger agents according to statistical distributions ...">
<polygon fill="none" stroke="black" points="9,-1 9,-225 223,-225 223,-1 9,-1"/>
<text text-anchor="start" x="17" y="-213.8" font-family="Helvetica,sans-Serif" font-size="9.00">com.github.aptd.simulation.elements.passenger.</text>
<text text-anchor="middle" x="116" y="-203.8" font-family="Helvetica,sans-Serif" font-size="9.00">CPassengerSource</text>
<polyline fill="none" stroke="black" points="9,-197 223,-197 "/>
<text text-anchor="start" x="17" y="-185.8" font-family="Helvetica,sans-Serif" font-size="9.00">&#45; m_distpassengerspeedatstation</text>
<text text-anchor="start" x="17" y="-175.8" font-family="Helvetica,sans-Serif" font-size="9.00">&#45; m_distribution</text>
<text text-anchor="start" x="17" y="-165.8" font-family="Helvetica,sans-Serif" font-size="9.00">&#45; m_experiment</text>
<text text-anchor="start" x="17" y="-155.8" font-family="Helvetica,sans-Serif" font-size="9.00">&#45; m_generator</text>
<text text-anchor="start" x="17" y="-145.8" font-family="Helvetica,sans-Serif" font-size="9.00">&#45; m_passengers</text>
<text text-anchor="start" x="17" y="-135.8" font-family="Helvetica,sans-Serif" font-size="9.00">&#45; m_passengersgenerated</text>
<text text-anchor="start" x="17" y="-125.8" font-family="Helvetica,sans-Serif" font-size="9.00">&#45; m_startmillis</text>
<text text-anchor="start" x="17" y="-115.8" font-family="Helvetica,sans-Serif" font-size="9.00">&#45; m_station</text>
<text text-anchor="start" x="17" y="-105.8" font-family="Helvetica,sans-Serif" font-size="9.00">&#45; FUNCTOR</text>
<text text-anchor="start" x="17" y="-95.8" font-family="Helvetica,sans-Serif" font-size="9.00">&#45; serialVersionUID</text>
<polyline fill="none" stroke="black" points="9,-89 223,-89 "/>
<text text-anchor="start" x="17" y="-77.8" font-family="Helvetica,sans-Serif" font-size="9.00"># determinenextstatechange()</text>
<text text-anchor="start" x="17" y="-67.8" font-family="Helvetica,sans-Serif" font-size="9.00"># individualliteral()</text>
<text text-anchor="start" x="17" y="-57.8" font-family="Helvetica,sans-Serif" font-size="9.00"># updatecontinuous()</text>
<text text-anchor="start" x="17" y="-47.8" font-family="Helvetica,sans-Serif" font-size="9.00"># updatestate()</text>
<text text-anchor="start" x="17" y="-37.8" font-family="Helvetica,sans-Serif" font-size="9.00"># writeState()</text>
<text text-anchor="start" x="17" y="-27.8" font-family="Helvetica,sans-Serif" font-size="9.00">&#45; CPassengerSource()</text>
<text text-anchor="start" x="17" y="-17.8" font-family="Helvetica,sans-Serif" font-size="9.00">&#45; generatepassenger()</text>
<text text-anchor="start" x="17" y="-7.8" font-family="Helvetica,sans-Serif" font-size="9.00">&#45; itinerary()</text>
</a>
</g>
</g>
<!-- Node3&#45;&gt;Node4 -->
<g id="edge4" class="edge"><title>Node3&#45;&gt;Node4</title>
<path fill="none" stroke="midnightblue" d="M116,-254.519C116,-245.434 116,-235.403 116,-225.006"/>
<polygon fill="none" stroke="midnightblue" points="112.5,-254.713 116,-264.713 119.5,-254.713 112.5,-254.713"/>
</g>
</g>
</svg>
