<?xml version="1.0" encoding="UTF-8" standalone="no"?>
<!DOCTYPE svg PUBLIC "-//W3C//DTD SVG 1.1//EN"
 "http://www.w3.org/Graphics/SVG/1.1/DTD/svg11.dtd">
<!-- Generated by graphviz version 2.36.0 (20140111.2315)
 -->
<!-- Title: com.github.aptd.simulation.core.experiment.local.CExperiment.CMessageSendAction.execute Pages: 1 -->
<!--zoomable 57 -->
<svg id="main" version="1.1" xmlns="http://www.w3.org/2000/svg" xmlns:xlink="http://www.w3.org/1999/xlink" xml:space="preserve" onload="init(evt)">
<style type="text/css"><![CDATA[
.edge:hover path { stroke: red; }
.edge:hover polygon { stroke: red; fill: red; }
]]></style>
<script type="text/javascript"><![CDATA[
var edges = document.getElementsByTagName('g');
if (edges && edges.length) {
  for (var i=0;i<edges.length;i++) {
    if (edges[i].id.substr(0,4)=='edge') {
      edges[i].setAttribute('class','edge');
    }
  }
}
]]></script>
        <defs>
                <circle id="rim" cx="0" cy="0" r="7"/>
                <circle id="rim2" cx="0" cy="0" r="3.5"/>
                <g id="zoomPlus">
                        <use xlink:href="#rim" fill="#404040">
                                <set attributeName="fill" to="#808080" begin="zoomplus.mouseover" end="zoomplus.mouseout"/>
                        </use>
                        <path d="M-4,0h8M0,-4v8" fill="none" stroke="white" stroke-width="1.5" pointer-events="none"/>
                </g>
                <g id="zoomMin">
                        <use xlink:href="#rim" fill="#404040">
                                <set attributeName="fill" to="#808080" begin="zoomminus.mouseover" end="zoomminus.mouseout"/>
                        </use>
                        <path d="M-4,0h8" fill="none" stroke="white" stroke-width="1.5" pointer-events="none"/>
                </g>
                <g id="dirArrow">
                        <path fill="none" stroke="white" stroke-width="1.5" d="M0,-3.0v7 M-2.5,-0.5L0,-3.0L2.5,-0.5"/>
                </g>
               <g id="resetDef">
                       <use xlink:href="#rim2" fill="#404040">
                               <set attributeName="fill" to="#808080" begin="reset.mouseover" end="reset.mouseout"/>
                       </use>
               </g>
        </defs>

<script type="text/javascript">
var viewWidth = 630;
var viewHeight = 57;
var sectionId = 'dynsection-1';
</script>
<script xlink:href="../../svgpan.js"/>
<svg id="graph" class="graph">
<g id="viewport">
<title>com.github.aptd.simulation.core.experiment.local.CExperiment.CMessageSendAction.execute</title>
<!-- Node0 -->
<g id="node1" class="node"><title>Node0</title>
<polygon fill="#bfbfbf" stroke="black" points="0,-21 0,-49 218,-49 218,-21 0,-21"/>
<text text-anchor="start" x="8" y="-37.8" font-family="Helvetica,sans-Serif" font-size="9.00">com.github.aptd.simulation.core.experiment.local.</text>
<text text-anchor="middle" x="109" y="-27.8" font-family="Helvetica,sans-Serif" font-size="9.00">CExperiment.CMessageSendAction.execute</text>
</g>
<!-- Node1 -->
<g id="node2" class="node"><title>Node1</title>
<g id="a_node2"><a xlink:href="../../df/d15/classcom_1_1github_1_1aptd_1_1simulation_1_1common_1_1CAgentTrigger.htm#ae72ba937c64e00d58bcf24eec970f321" target="_top" xlink:title="creates the sender structure of a message ">
<polygon fill="none" stroke="black" points="456,-21 456,-49 622,-49 622,-21 456,-21"/>
<text text-anchor="start" x="464" y="-37.8" font-family="Helvetica,sans-Serif" font-size="9.00">com.github.aptd.simulation.common.</text>
<text text-anchor="middle" x="539" y="-27.8" font-family="Helvetica,sans-Serif" font-size="9.00">CAgentTrigger.messagersender</text>
</a>
</g>
</g>
<!-- Node0&#45;&gt;Node1 -->
<g id="edge1" class="edge"><title>Node0&#45;&gt;Node1</title>
<path fill="none" stroke="midnightblue" d="M218.115,-36.6638C230.221,-36.8019 242.374,-36.9193 254,-37 327.776,-37.5123 346.225,-37.6252 420,-37 428.32,-36.9295 436.97,-36.831 445.636,-36.7153"/>
<polygon fill="midnightblue" stroke="midnightblue" points="445.847,-40.2127 455.796,-36.572 445.748,-33.2134 445.847,-40.2127"/>
</g>
<!-- Node2 -->
<g id="node3" class="node"><title>Node2</title>
<g id="a_node3"><a xlink:href="../../df/d15/classcom_1_1github_1_1aptd_1_1simulation_1_1common_1_1CAgentTrigger.htm#ada2dc4bcebe548e30907cfed9d74bb09" target="_top" xlink:title="create a message send trigger ">
<polygon fill="none" stroke="black" points="254,-0 254,-28 420,-28 420,-0 254,-0"/>
<text text-anchor="start" x="262" y="-16.8" font-family="Helvetica,sans-Serif" font-size="9.00">com.github.aptd.simulation.common.</text>
<text text-anchor="middle" x="337" y="-6.8" font-family="Helvetica,sans-Serif" font-size="9.00">CAgentTrigger.messagesend</text>
</a>
</g>
</g>
<!-- Node0&#45;&gt;Node2 -->
<g id="edge2" class="edge"><title>Node0&#45;&gt;Node2</title>
<path fill="none" stroke="midnightblue" d="M218.036,-24.9613C226.588,-24.1666 235.178,-23.3684 243.61,-22.5849"/>
<polygon fill="midnightblue" stroke="midnightblue" points="244.17,-26.048 253.803,-21.6378 243.522,-19.0781 244.17,-26.048"/>
</g>
<!-- Node2&#45;&gt;Node1 -->
<g id="edge3" class="edge"><title>Node2&#45;&gt;Node1</title>
<path fill="none" stroke="midnightblue" d="M420.213,-22.6324C428.654,-23.5187 437.27,-24.4233 445.809,-25.3199"/>
<polygon fill="midnightblue" stroke="midnightblue" points="445.472,-28.8037 455.783,-26.3672 446.203,-21.842 445.472,-28.8037"/>
</g>
</g>
</svg>
        <g id="navigator" transform="translate(0 0)" fill="#404254">
                <rect fill="#f2f5e9" fill-opacity="0.5" stroke="#606060" stroke-width=".5" x="0" y="0" width="60" height="60"/>
                <use id="zoomplus" xlink:href="#zoomPlus" x="17" y="9" onmousedown="handleZoom(evt,'in')"/>
                <use id="zoomminus" xlink:href="#zoomMin" x="42" y="9" onmousedown="handleZoom(evt,'out')"/>
                <use id="reset" xlink:href="#resetDef" x="30" y="36" onmousedown="handleReset()"/>
                <g id="arrowUp" xlink:href="#dirArrow" transform="translate(30 24)" onmousedown="handlePan(0,-1)">
                  <use xlink:href="#rim" fill="#404040">
                        <set attributeName="fill" to="#808080" begin="arrowUp.mouseover" end="arrowUp.mouseout"/>
                  </use>
                  <path fill="none" stroke="white" stroke-width="1.5" d="M0,-3.0v7 M-2.5,-0.5L0,-3.0L2.5,-0.5"/>
                </g>
                <g id="arrowRight" xlink:href="#dirArrow" transform="rotate(90) translate(36 -43)" onmousedown="handlePan(1,0)">
                  <use xlink:href="#rim" fill="#404040">
                        <set attributeName="fill" to="#808080" begin="arrowRight.mouseover" end="arrowRight.mouseout"/>
                  </use>
                  <path fill="none" stroke="white" stroke-width="1.5" d="M0,-3.0v7 M-2.5,-0.5L0,-3.0L2.5,-0.5"/>
                </g>
                <g id="arrowDown" xlink:href="#dirArrow" transform="rotate(180) translate(-30 -48)" onmousedown="handlePan(0,1)">
                  <use xlink:href="#rim" fill="#404040">
                        <set attributeName="fill" to="#808080" begin="arrowDown.mouseover" end="arrowDown.mouseout"/>
                  </use>
                  <path fill="none" stroke="white" stroke-width="1.5" d="M0,-3.0v7 M-2.5,-0.5L0,-3.0L2.5,-0.5"/>
                </g>
                <g id="arrowLeft" xlink:href="#dirArrow" transform="rotate(270) translate(-36 17)" onmousedown="handlePan(-1,0)">
                  <use xlink:href="#rim" fill="#404040">
                        <set attributeName="fill" to="#808080" begin="arrowLeft.mouseover" end="arrowLeft.mouseout"/>
                  </use>
                  <path fill="none" stroke="white" stroke-width="1.5" d="M0,-3.0v7 M-2.5,-0.5L0,-3.0L2.5,-0.5"/>
                </g>
        </g>
        <svg viewBox="0 0 15 15" width="100%" height="30px" preserveAspectRatio="xMaxYMin meet">
         <g id="arrow_out" transform="scale(0.3 0.3)">
          <a xlink:href="classcom_1_1github_1_1aptd_1_1simulation_1_1core_1_1experiment_1_1local_1_1CExperiment_1_1CMessageSendAction_a349328082ff13b06ac49c083075d01c3_cgraph_org.svg" target="_base">
           <rect id="button" ry="5" rx="5" y="6" x="6" height="38" width="38"
                fill="#f2f5e9" fill-opacity="0.5" stroke="#606060" stroke-width="1.0"/>
           <path id="arrow"
             d="M 11.500037,31.436501 C 11.940474,20.09759 22.043105,11.32322 32.158766,21.979434 L 37.068811,17.246167 C 37.068811,17.246167 37.088388,32 37.088388,32 L 22.160133,31.978069 C 22.160133,31.978069 26.997745,27.140456 26.997745,27.140456 C 18.528582,18.264221 13.291696,25.230495 11.500037,31.436501 z"
             style="fill:#404040;"/>
          </a>
         </g>
        </svg>
</svg>
