<?xml version="1.0" encoding="UTF-8" standalone="no"?>
<!DOCTYPE svg PUBLIC "-//W3C//DTD SVG 1.1//EN"
 "http://www.w3.org/Graphics/SVG/1.1/DTD/svg11.dtd">
<!-- Generated by graphviz version 2.36.0 (20140111.2315)
 -->
<!-- Title: com.github.aptd.simulation.core.experiment.local.CExperiment.CMessageSendAction.execute Pages: 1 -->
<svg width="630pt" height="57pt"
 viewBox="0.00 0.00 630.00 57.00" xmlns="http://www.w3.org/2000/svg" xmlns:xlink="http://www.w3.org/1999/xlink">
<g id="graph0" class="graph" transform="scale(1 1) rotate(0) translate(4 53)">
<title>com.github.aptd.simulation.core.experiment.local.CExperiment.CMessageSendAction.execute</title>
<!-- Node0 -->
<g id="node1" class="node"><title>Node0</title>
<polygon fill="#bfbfbf" stroke="black" points="0,-21 0,-49 218,-49 218,-21 0,-21"/>
<text text-anchor="start" x="8" y="-37.8" font-family="Helvetica,sans-Serif" font-size="9.00">com.github.aptd.simulation.core.experiment.local.</text>
<text text-anchor="middle" x="109" y="-27.8" font-family="Helvetica,sans-Serif" font-size="9.00">CExperiment.CMessageSendAction.execute</text>
</g>
<!-- Node1 -->
<g id="node2" class="node"><title>Node1</title>
<g id="a_node2"><a xlink:href="../../df/d15/classcom_1_1github_1_1aptd_1_1simulation_1_1common_1_1CAgentTrigger.htm#ae72ba937c64e00d58bcf24eec970f321" target="_top" xlink:title="creates the sender structure of a message ">
<polygon fill="none" stroke="black" points="456,-21 456,-49 622,-49 622,-21 456,-21"/>
<text text-anchor="start" x="464" y="-37.8" font-family="Helvetica,sans-Serif" font-size="9.00">com.github.aptd.simulation.common.</text>
<text text-anchor="middle" x="539" y="-27.8" font-family="Helvetica,sans-Serif" font-size="9.00">CAgentTrigger.messagersender</text>
</a>
</g>
</g>
<!-- Node0&#45;&gt;Node1 -->
<g id="edge1" class="edge"><title>Node0&#45;&gt;Node1</title>
<path fill="none" stroke="midnightblue" d="M218.115,-36.6638C230.221,-36.8019 242.374,-36.9193 254,-37 327.776,-37.5123 346.225,-37.6252 420,-37 428.32,-36.9295 436.97,-36.831 445.636,-36.7153"/>
<polygon fill="midnightblue" stroke="midnightblue" points="445.847,-40.2127 455.796,-36.572 445.748,-33.2134 445.847,-40.2127"/>
</g>
<!-- Node2 -->
<g id="node3" class="node"><title>Node2</title>
<g id="a_node3"><a xlink:href="../../df/d15/classcom_1_1github_1_1aptd_1_1simulation_1_1common_1_1CAgentTrigger.htm#ada2dc4bcebe548e30907cfed9d74bb09" target="_top" xlink:title="create a message send trigger ">
<polygon fill="none" stroke="black" points="254,-0 254,-28 420,-28 420,-0 254,-0"/>
<text text-anchor="start" x="262" y="-16.8" font-family="Helvetica,sans-Serif" font-size="9.00">com.github.aptd.simulation.common.</text>
<text text-anchor="middle" x="337" y="-6.8" font-family="Helvetica,sans-Serif" font-size="9.00">CAgentTrigger.messagesend</text>
</a>
</g>
</g>
<!-- Node0&#45;&gt;Node2 -->
<g id="edge2" class="edge"><title>Node0&#45;&gt;Node2</title>
<path fill="none" stroke="midnightblue" d="M218.036,-24.9613C226.588,-24.1666 235.178,-23.3684 243.61,-22.5849"/>
<polygon fill="midnightblue" stroke="midnightblue" points="244.17,-26.048 253.803,-21.6378 243.522,-19.0781 244.17,-26.048"/>
</g>
<!-- Node2&#45;&gt;Node1 -->
<g id="edge3" class="edge"><title>Node2&#45;&gt;Node1</title>
<path fill="none" stroke="midnightblue" d="M420.213,-22.6324C428.654,-23.5187 437.27,-24.4233 445.809,-25.3199"/>
<polygon fill="midnightblue" stroke="midnightblue" points="445.472,-28.8037 455.783,-26.3672 446.203,-21.842 445.472,-28.8037"/>
</g>
</g>
</svg>
