<?xml version="1.0" encoding="UTF-8" standalone="no"?>
<!DOCTYPE svg PUBLIC "-//W3C//DTD SVG 1.1//EN"
 "http://www.w3.org/Graphics/SVG/1.1/DTD/svg11.dtd">
<!-- Generated by graphviz version 2.36.0 (20140111.2315)
 -->
<!-- Title: com.github.aptd.simulation.core.messaging.local.CMessenger Pages: 1 -->
<svg width="476pt" height="286pt"
 viewBox="0.00 0.00 476.00 286.00" xmlns="http://www.w3.org/2000/svg" xmlns:xlink="http://www.w3.org/1999/xlink">
<g id="graph0" class="graph" transform="scale(1 1) rotate(0) translate(4 282)">
<title>com.github.aptd.simulation.core.messaging.local.CMessenger</title>
<!-- Node2 -->
<g id="node1" class="node"><title>Node2</title>
<polygon fill="#bfbfbf" stroke="black" points="51,-1 51,-85 269,-85 269,-1 51,-1"/>
<text text-anchor="start" x="59" y="-73.8" font-family="Helvetica,sans-Serif" font-size="9.00">com.github.aptd.simulation.core.messaging.local.</text>
<text text-anchor="middle" x="160" y="-63.8" font-family="Helvetica,sans-Serif" font-size="9.00">CMessenger</text>
<polyline fill="none" stroke="black" points="51,-57 269,-57 "/>
<text text-anchor="start" x="59" y="-45.8" font-family="Helvetica,sans-Serif" font-size="9.00">&#45; OUTPUT_ONLY_FROM_IMMINENT</text>
<polyline fill="none" stroke="black" points="51,-39 269,-39 "/>
<text text-anchor="start" x="59" y="-27.8" font-family="Helvetica,sans-Serif" font-size="9.00">+ call()</text>
<text text-anchor="start" x="59" y="-17.8" font-family="Helvetica,sans-Serif" font-size="9.00">+ experiment()</text>
<text text-anchor="start" x="59" y="-7.8" font-family="Helvetica,sans-Serif" font-size="9.00">&#45; optionalfilteredstream()</text>
</g>
<!-- Node3 -->
<g id="node2" class="node"><title>Node3</title>
<g id="a_node2"><a xlink:href="../../d4/d5c/interfacecom_1_1github_1_1aptd_1_1simulation_1_1core_1_1messaging_1_1IMessenger.htm" target="_top" xlink:title="messenger interface (the messenger is a callable unit called in the preprocessing step of each cycle)...">
<polygon fill="none" stroke="black" points="0,-173 0,-237 196,-237 196,-173 0,-173"/>
<text text-anchor="start" x="8" y="-225.8" font-family="Helvetica,sans-Serif" font-size="9.00">com.github.aptd.simulation.core.messaging.</text>
<text text-anchor="middle" x="98" y="-215.8" font-family="Helvetica,sans-Serif" font-size="9.00">IMessenger</text>
<polyline fill="none" stroke="black" points="0,-209 196,-209 "/>
<text text-anchor="middle" x="98" y="-197.8" font-family="Helvetica,sans-Serif" font-size="9.00"> </text>
<polyline fill="none" stroke="black" points="0,-191 196,-191 "/>
<text text-anchor="middle" x="98" y="-179.8" font-family="Helvetica,sans-Serif" font-size="9.00"> </text>
</a>
</g>
</g>
<!-- Node3&#45;&gt;Node2 -->
<g id="edge1" class="edge"><title>Node3&#45;&gt;Node2</title>
<path fill="none" stroke="midnightblue" d="M113.785,-163.265C123.059,-139.331 134.75,-109.161 144.053,-85.1544"/>
<polygon fill="none" stroke="midnightblue" points="110.451,-162.181 110.101,-172.771 116.978,-164.711 110.451,-162.181"/>
</g>
<!-- Node4 -->
<g id="node3" class="node"><title>Node4</title>
<g id="a_node3"><a xlink:href="../../de/d57/interfacecom_1_1github_1_1aptd_1_1simulation_1_1core_1_1experiment_1_1IExperiment.htm" target="_top" xlink:title="a single experiment run ">
<polygon fill="none" stroke="black" points="214.5,-133 214.5,-277 411.5,-277 411.5,-133 214.5,-133"/>
<text text-anchor="start" x="222.5" y="-265.8" font-family="Helvetica,sans-Serif" font-size="9.00">com.github.aptd.simulation.core.experiment.</text>
<text text-anchor="middle" x="313" y="-255.8" font-family="Helvetica,sans-Serif" font-size="9.00">IExperiment</text>
<polyline fill="none" stroke="black" points="214.5,-249 411.5,-249 "/>
<text text-anchor="middle" x="313" y="-237.8" font-family="Helvetica,sans-Serif" font-size="9.00"> </text>
<polyline fill="none" stroke="black" points="214.5,-231 411.5,-231 "/>
<text text-anchor="start" x="222.5" y="-219.8" font-family="Helvetica,sans-Serif" font-size="9.00">+ actions()</text>
<text text-anchor="start" x="222.5" y="-209.8" font-family="Helvetica,sans-Serif" font-size="9.00">+ addAgent()</text>
<text text-anchor="start" x="222.5" y="-199.8" font-family="Helvetica,sans-Serif" font-size="9.00">+ getAgent()</text>
<text text-anchor="start" x="222.5" y="-189.8" font-family="Helvetica,sans-Serif" font-size="9.00">+ objects()</text>
<text text-anchor="start" x="222.5" y="-179.8" font-family="Helvetica,sans-Serif" font-size="9.00">+ parallel()</text>
<text text-anchor="start" x="222.5" y="-169.8" font-family="Helvetica,sans-Serif" font-size="9.00">+ preprocess()</text>
<text text-anchor="start" x="222.5" y="-159.8" font-family="Helvetica,sans-Serif" font-size="9.00">+ simulationsteps()</text>
<text text-anchor="start" x="222.5" y="-149.8" font-family="Helvetica,sans-Serif" font-size="9.00">+ statistic()</text>
<text text-anchor="start" x="222.5" y="-139.8" font-family="Helvetica,sans-Serif" font-size="9.00">+ time()</text>
</a>
</g>
</g>
<!-- Node4&#45;&gt;Node2 -->
<g id="edge2" class="edge"><title>Node4&#45;&gt;Node2</title>
<path fill="none" stroke="#404040" d="M245.001,-132.89C232.413,-119.727 219.515,-106.238 207.692,-93.8739"/>
<polygon fill="none" stroke="#404040" points="207.586,-93.7632 200.548,-92.1913 199.293,-85.0903 206.33,-86.6623 207.586,-93.7632"/>
<text text-anchor="middle" x="254" y="-106.8" font-family="Helvetica,sans-Serif" font-size="9.00"> &#45;m_experiment</text>
</g>
<!-- Node4&#45;&gt;Node4 -->
<g id="edge3" class="edge"><title>Node4&#45;&gt;Node4</title>
<path fill="none" stroke="#404040" d="M411.588,-220.029C422.184,-217.135 429,-212.125 429,-205 429,-200.881 426.722,-197.469 422.752,-194.763"/>
<polygon fill="none" stroke="#404040" points="422.615,-194.704 415.523,-196.013 411.588,-189.971 418.679,-188.662 422.615,-194.704"/>
<text text-anchor="middle" x="448.5" y="-202.8" font-family="Helvetica,sans-Serif" font-size="9.00"> +EMPTY</text>
</g>
</g>
</svg>
