<?xml version="1.0" encoding="UTF-8" standalone="no"?>
<!DOCTYPE svg PUBLIC "-//W3C//DTD SVG 1.1//EN"
 "http://www.w3.org/Graphics/SVG/1.1/DTD/svg11.dtd">
<!-- Generated by graphviz version 2.36.0 (20140111.2315)
 -->
<!-- Title: com.github.aptd.simulation.ui.CNetworkProvider Pages: 1 -->
<svg width="146pt" height="176pt"
 viewBox="0.00 0.00 146.00 176.00" xmlns="http://www.w3.org/2000/svg" xmlns:xlink="http://www.w3.org/1999/xlink">
<g id="graph0" class="graph" transform="scale(1 1) rotate(0) translate(4 172)">
<title>com.github.aptd.simulation.ui.CNetworkProvider</title>
<!-- Node0 -->
<g id="node1" class="node"><title>Node0</title>
<polygon fill="#bfbfbf" stroke="black" points="0,-1 0,-65 138,-65 138,-1 0,-1"/>
<text text-anchor="start" x="8" y="-53.8" font-family="Helvetica,sans-Serif" font-size="9.00">com.github.aptd.simulation.ui.</text>
<text text-anchor="middle" x="69" y="-43.8" font-family="Helvetica,sans-Serif" font-size="9.00">CNetworkProvider</text>
<polyline fill="none" stroke="black" points="0,-37 138,-37 "/>
<text text-anchor="middle" x="69" y="-25.8" font-family="Helvetica,sans-Serif" font-size="9.00"> </text>
<polyline fill="none" stroke="black" points="0,-19 138,-19 "/>
<text text-anchor="middle" x="69" y="-7.8" font-family="Helvetica,sans-Serif" font-size="9.00"> </text>
</g>
<!-- Node1 -->
<g id="node2" class="node"><title>Node1</title>
<g id="a_node2"><a xlink:href="../../db/de6/interfacecom_1_1github_1_1aptd_1_1simulation_1_1ui_1_1IProvider.htm" target="_top" xlink:title="prover of all rest&#45;api components ">
<polygon fill="none" stroke="black" points="0,-103 0,-167 138,-167 138,-103 0,-103"/>
<text text-anchor="start" x="8" y="-155.8" font-family="Helvetica,sans-Serif" font-size="9.00">com.github.aptd.simulation.ui.</text>
<text text-anchor="middle" x="69" y="-145.8" font-family="Helvetica,sans-Serif" font-size="9.00">IProvider</text>
<polyline fill="none" stroke="black" points="0,-139 138,-139 "/>
<text text-anchor="middle" x="69" y="-127.8" font-family="Helvetica,sans-Serif" font-size="9.00"> </text>
<polyline fill="none" stroke="black" points="0,-121 138,-121 "/>
<text text-anchor="middle" x="69" y="-109.8" font-family="Helvetica,sans-Serif" font-size="9.00"> </text>
</a>
</g>
</g>
<!-- Node1&#45;&gt;Node0 -->
<g id="edge1" class="edge"><title>Node1&#45;&gt;Node0</title>
<path fill="none" stroke="midnightblue" d="M69,-92.7162C69,-83.4731 69,-73.8199 69,-65.0732"/>
<polygon fill="none" stroke="midnightblue" points="65.5001,-92.9075 69,-102.908 72.5001,-92.9076 65.5001,-92.9075"/>
</g>
</g>
</svg>
