<?xml version="1.0" encoding="UTF-8" standalone="no"?>
<!DOCTYPE svg PUBLIC "-//W3C//DTD SVG 1.1//EN"
 "http://www.w3.org/Graphics/SVG/1.1/DTD/svg11.dtd">
<!-- Generated by graphviz version 2.36.0 (20140111.2315)
 -->
<!-- Title: com.github.aptd.simulation.elements.graph.network.local.CTrack Pages: 1 -->
<svg width="448pt" height="948pt"
 viewBox="0.00 0.00 448.00 948.00" xmlns="http://www.w3.org/2000/svg" xmlns:xlink="http://www.w3.org/1999/xlink">
<g id="graph0" class="graph" transform="scale(1 1) rotate(0) translate(4 944)">
<title>com.github.aptd.simulation.elements.graph.network.local.CTrack</title>
<!-- Node0 -->
<g id="node1" class="node"><title>Node0</title>
<polygon fill="#bfbfbf" stroke="black" points="75.5,-1 75.5,-135 326.5,-135 326.5,-1 75.5,-1"/>
<text text-anchor="start" x="83.5" y="-123.8" font-family="Helvetica,sans-Serif" font-size="9.00">com.github.aptd.simulation.elements.graph.network.local.</text>
<text text-anchor="middle" x="201" y="-113.8" font-family="Helvetica,sans-Serif" font-size="9.00">CTrack</text>
<polyline fill="none" stroke="black" points="75.5,-107 326.5,-107 "/>
<text text-anchor="start" x="83.5" y="-95.8" font-family="Helvetica,sans-Serif" font-size="9.00">&#45; m_from</text>
<text text-anchor="start" x="83.5" y="-85.8" font-family="Helvetica,sans-Serif" font-size="9.00">&#45; m_maximumspeed</text>
<text text-anchor="start" x="83.5" y="-75.8" font-family="Helvetica,sans-Serif" font-size="9.00">&#45; m_to</text>
<text text-anchor="start" x="83.5" y="-65.8" font-family="Helvetica,sans-Serif" font-size="9.00">&#45; FUNCTOR</text>
<text text-anchor="start" x="83.5" y="-55.8" font-family="Helvetica,sans-Serif" font-size="9.00">&#45; serialVersionUID</text>
<polyline fill="none" stroke="black" points="75.5,-49 326.5,-49 "/>
<text text-anchor="start" x="83.5" y="-37.8" font-family="Helvetica,sans-Serif" font-size="9.00">+ from()</text>
<text text-anchor="start" x="83.5" y="-27.8" font-family="Helvetica,sans-Serif" font-size="9.00">+ to()</text>
<text text-anchor="start" x="83.5" y="-17.8" font-family="Helvetica,sans-Serif" font-size="9.00"># individualliteral()</text>
<text text-anchor="start" x="83.5" y="-7.8" font-family="Helvetica,sans-Serif" font-size="9.00">&#45; CTrack()</text>
</g>
<!-- Node1 -->
<g id="node2" class="node"><title>Node1</title>
<g id="a_node2"><a xlink:href="../../d6/df3/classcom_1_1github_1_1aptd_1_1simulation_1_1elements_1_1IBaseElement.htm" target="_top" xlink:title="base simulation element structure ">
<polygon fill="none" stroke="black" points="63,-175 63,-499 197,-499 197,-175 63,-175"/>
<text text-anchor="start" x="71" y="-487.8" font-family="Helvetica,sans-Serif" font-size="9.00">com::github::aptd::</text>
<text text-anchor="start" x="71" y="-477.8" font-family="Helvetica,sans-Serif" font-size="9.00">simulation::elements</text>
<text text-anchor="middle" x="130" y="-467.8" font-family="Helvetica,sans-Serif" font-size="9.00">::IBaseElement&lt; ITrack&lt;?&gt; &gt;</text>
<polyline fill="none" stroke="black" points="63,-461 197,-461 "/>
<text text-anchor="start" x="71" y="-449.8" font-family="Helvetica,sans-Serif" font-size="9.00"># m_id</text>
<text text-anchor="start" x="71" y="-439.8" font-family="Helvetica,sans-Serif" font-size="9.00"># m_input</text>
<text text-anchor="start" x="71" y="-429.8" font-family="Helvetica,sans-Serif" font-size="9.00"># m_nextactivation</text>
<text text-anchor="start" x="71" y="-419.8" font-family="Helvetica,sans-Serif" font-size="9.00"># m_time</text>
<text text-anchor="start" x="71" y="-409.8" font-family="Helvetica,sans-Serif" font-size="9.00">&#45; m_environment</text>
<text text-anchor="start" x="71" y="-399.8" font-family="Helvetica,sans-Serif" font-size="9.00">&#45; m_external</text>
<text text-anchor="start" x="71" y="-389.8" font-family="Helvetica,sans-Serif" font-size="9.00">&#45; m_functor</text>
<text text-anchor="start" x="71" y="-379.8" font-family="Helvetica,sans-Serif" font-size="9.00">&#45; m_timezone</text>
<text text-anchor="start" x="71" y="-369.8" font-family="Helvetica,sans-Serif" font-size="9.00">&#45; serialVersionUID</text>
<polyline fill="none" stroke="black" points="63,-363 197,-363 "/>
<text text-anchor="start" x="71" y="-351.8" font-family="Helvetica,sans-Serif" font-size="9.00">+ call()</text>
<text text-anchor="start" x="71" y="-341.8" font-family="Helvetica,sans-Serif" font-size="9.00">+ environment()</text>
<text text-anchor="start" x="71" y="-331.8" font-family="Helvetica,sans-Serif" font-size="9.00">+ equals()</text>
<text text-anchor="start" x="71" y="-321.8" font-family="Helvetica,sans-Serif" font-size="9.00">+ hashCode()</text>
<text text-anchor="start" x="71" y="-311.8" font-family="Helvetica,sans-Serif" font-size="9.00">+ id()</text>
<text text-anchor="start" x="71" y="-301.8" font-family="Helvetica,sans-Serif" font-size="9.00">+ imminent()</text>
<text text-anchor="start" x="71" y="-291.8" font-family="Helvetica,sans-Serif" font-size="9.00">+ input()</text>
<text text-anchor="start" x="71" y="-281.8" font-family="Helvetica,sans-Serif" font-size="9.00">+ literal()</text>
<text text-anchor="start" x="71" y="-271.8" font-family="Helvetica,sans-Serif" font-size="9.00">+ literal()</text>
<text text-anchor="start" x="71" y="-261.8" font-family="Helvetica,sans-Serif" font-size="9.00">+ nextactivation()</text>
<text text-anchor="start" x="71" y="-251.8" font-family="Helvetica,sans-Serif" font-size="9.00">+ output()</text>
<text text-anchor="start" x="71" y="-241.8" font-family="Helvetica,sans-Serif" font-size="9.00">+ toString()</text>
<text text-anchor="start" x="71" y="-231.8" font-family="Helvetica,sans-Serif" font-size="9.00"># IBaseElement()</text>
<text text-anchor="start" x="71" y="-221.8" font-family="Helvetica,sans-Serif" font-size="9.00"># individualliteral()</text>
<text text-anchor="start" x="71" y="-211.8" font-family="Helvetica,sans-Serif" font-size="9.00">&#45; currentTime()</text>
<text text-anchor="start" x="71" y="-201.8" font-family="Helvetica,sans-Serif" font-size="9.00">&#45; getNextActivation()</text>
<text text-anchor="start" x="71" y="-191.8" font-family="Helvetica,sans-Serif" font-size="9.00">&#45; maxTime()</text>
<text text-anchor="start" x="71" y="-181.8" font-family="Helvetica,sans-Serif" font-size="9.00">&#45; setNextActivation()</text>
</a>
</g>
</g>
<!-- Node1&#45;&gt;Node0 -->
<g id="edge1" class="edge"><title>Node1&#45;&gt;Node0</title>
<path fill="none" stroke="midnightblue" d="M175.411,-165.229C178.19,-154.78 180.88,-144.663 183.406,-135.162"/>
<polygon fill="none" stroke="midnightblue" points="172.024,-164.345 172.837,-174.909 178.789,-166.144 172.024,-164.345"/>
</g>
<!-- Node2 -->
<g id="node3" class="node"><title>Node2</title>
<g id="a_node3"><a xlink:href="../../dd/dd7/interfacecom_1_1github_1_1aptd_1_1simulation_1_1elements_1_1IElement.htm" target="_top" xlink:title="{com.github.aptd.simulation.elements.\lIElement\&lt; N \&gt;\n||+ environment()\l+ id()\l+ imminent()\l+ input()\l+ nextactivation()\l+ output()\l}">
<polygon fill="none" stroke="black" points="0,-539 0,-653 168,-653 168,-539 0,-539"/>
<text text-anchor="start" x="8" y="-641.8" font-family="Helvetica,sans-Serif" font-size="9.00">com.github.aptd.simulation.elements.</text>
<text text-anchor="middle" x="84" y="-631.8" font-family="Helvetica,sans-Serif" font-size="9.00">IElement&lt; N &gt;</text>
<polyline fill="none" stroke="black" points="0,-625 168,-625 "/>
<text text-anchor="middle" x="84" y="-613.8" font-family="Helvetica,sans-Serif" font-size="9.00"> </text>
<polyline fill="none" stroke="black" points="0,-607 168,-607 "/>
<text text-anchor="start" x="8" y="-595.8" font-family="Helvetica,sans-Serif" font-size="9.00">+ environment()</text>
<text text-anchor="start" x="8" y="-585.8" font-family="Helvetica,sans-Serif" font-size="9.00">+ id()</text>
<text text-anchor="start" x="8" y="-575.8" font-family="Helvetica,sans-Serif" font-size="9.00">+ imminent()</text>
<text text-anchor="start" x="8" y="-565.8" font-family="Helvetica,sans-Serif" font-size="9.00">+ input()</text>
<text text-anchor="start" x="8" y="-555.8" font-family="Helvetica,sans-Serif" font-size="9.00">+ nextactivation()</text>
<text text-anchor="start" x="8" y="-545.8" font-family="Helvetica,sans-Serif" font-size="9.00">+ output()</text>
</a>
</g>
</g>
<!-- Node2&#45;&gt;Node1 -->
<g id="edge2" class="edge"><title>Node2&#45;&gt;Node1</title>
<path fill="none" stroke="midnightblue" d="M95.8224,-528.949C97.5073,-519.535 99.2979,-509.531 101.142,-499.226"/>
<polygon fill="none" stroke="midnightblue" points="92.3548,-528.458 94.0381,-538.918 99.2453,-529.691 92.3548,-528.458"/>
</g>
<!-- Node3 -->
<g id="node4" class="node"><title>Node3</title>
<g id="a_node4"><a xlink:href="../../dd/dd7/interfacecom_1_1github_1_1aptd_1_1simulation_1_1elements_1_1IElement.htm" target="_top" xlink:title="any object interface ">
<polygon fill="none" stroke="black" points="0,-706 0,-820 168,-820 168,-706 0,-706"/>
<text text-anchor="start" x="8" y="-808.8" font-family="Helvetica,sans-Serif" font-size="9.00">com.github.aptd.simulation.elements.</text>
<text text-anchor="middle" x="84" y="-798.8" font-family="Helvetica,sans-Serif" font-size="9.00">IElement&lt; T extends IAgent&lt;?&gt;</text>
<polyline fill="none" stroke="black" points="0,-792 168,-792 "/>
<text text-anchor="middle" x="84" y="-780.8" font-family="Helvetica,sans-Serif" font-size="9.00"> </text>
<polyline fill="none" stroke="black" points="0,-774 168,-774 "/>
<text text-anchor="start" x="8" y="-762.8" font-family="Helvetica,sans-Serif" font-size="9.00">+ environment()</text>
<text text-anchor="start" x="8" y="-752.8" font-family="Helvetica,sans-Serif" font-size="9.00">+ id()</text>
<text text-anchor="start" x="8" y="-742.8" font-family="Helvetica,sans-Serif" font-size="9.00">+ imminent()</text>
<text text-anchor="start" x="8" y="-732.8" font-family="Helvetica,sans-Serif" font-size="9.00">+ input()</text>
<text text-anchor="start" x="8" y="-722.8" font-family="Helvetica,sans-Serif" font-size="9.00">+ nextactivation()</text>
<text text-anchor="start" x="8" y="-712.8" font-family="Helvetica,sans-Serif" font-size="9.00">+ output()</text>
</a>
</g>
</g>
<!-- Node3&#45;&gt;Node2 -->
<g id="edge3" class="edge"><title>Node3&#45;&gt;Node2</title>
<path fill="none" stroke="orange" d="M84,-695.558C84,-681.468 84,-666.728 84,-653.068"/>
<polygon fill="orange" stroke="orange" points="80.5001,-695.678 84,-705.678 87.5001,-695.678 80.5001,-695.678"/>
<text text-anchor="middle" x="96.5" y="-674.8" font-family="Helvetica,sans-Serif" font-size="9.00"> &lt; N &gt;</text>
</g>
<!-- Node4 -->
<g id="node5" class="node"><title>Node4</title>
<g id="a_node5"><a xlink:href="../../d4/d0d/interfacecom_1_1github_1_1aptd_1_1simulation_1_1elements_1_1IPerceiveable.htm" target="_top" xlink:title="any object which be perceived by an agent ">
<polygon fill="none" stroke="black" points="92,-865 92,-939 260,-939 260,-865 92,-865"/>
<text text-anchor="start" x="100" y="-927.8" font-family="Helvetica,sans-Serif" font-size="9.00">com.github.aptd.simulation.elements.</text>
<text text-anchor="middle" x="176" y="-917.8" font-family="Helvetica,sans-Serif" font-size="9.00">IPerceiveable</text>
<polyline fill="none" stroke="black" points="92,-911 260,-911 "/>
<text text-anchor="middle" x="176" y="-899.8" font-family="Helvetica,sans-Serif" font-size="9.00"> </text>
<polyline fill="none" stroke="black" points="92,-893 260,-893 "/>
<text text-anchor="start" x="100" y="-881.8" font-family="Helvetica,sans-Serif" font-size="9.00">+ literal()</text>
<text text-anchor="start" x="100" y="-871.8" font-family="Helvetica,sans-Serif" font-size="9.00">+ literal()</text>
</a>
</g>
</g>
<!-- Node4&#45;&gt;Node3 -->
<g id="edge4" class="edge"><title>Node4&#45;&gt;Node3</title>
<path fill="none" stroke="midnightblue" d="M145.842,-856.091C138.135,-844.613 129.751,-832.129 121.716,-820.165"/>
<polygon fill="none" stroke="midnightblue" points="143.107,-858.296 151.587,-864.646 148.918,-854.393 143.107,-858.296"/>
</g>
<!-- Node7 -->
<g id="node8" class="node"><title>Node7</title>
<g id="a_node8"><a xlink:href="../../dd/dd7/interfacecom_1_1github_1_1aptd_1_1simulation_1_1elements_1_1IElement.htm" target="_top" xlink:title="any object interface ">
<polygon fill="none" stroke="black" points="186.5,-701 186.5,-825 287.5,-825 287.5,-701 186.5,-701"/>
<text text-anchor="start" x="194.5" y="-813.8" font-family="Helvetica,sans-Serif" font-size="9.00">com::github::aptd::</text>
<text text-anchor="start" x="194.5" y="-803.8" font-family="Helvetica,sans-Serif" font-size="9.00">simulation::elements</text>
<text text-anchor="middle" x="237" y="-793.8" font-family="Helvetica,sans-Serif" font-size="9.00">::IElement&lt; T &gt;</text>
<polyline fill="none" stroke="black" points="186.5,-787 287.5,-787 "/>
<text text-anchor="middle" x="237" y="-775.8" font-family="Helvetica,sans-Serif" font-size="9.00"> </text>
<polyline fill="none" stroke="black" points="186.5,-769 287.5,-769 "/>
<text text-anchor="start" x="194.5" y="-757.8" font-family="Helvetica,sans-Serif" font-size="9.00">+ environment()</text>
<text text-anchor="start" x="194.5" y="-747.8" font-family="Helvetica,sans-Serif" font-size="9.00">+ id()</text>
<text text-anchor="start" x="194.5" y="-737.8" font-family="Helvetica,sans-Serif" font-size="9.00">+ imminent()</text>
<text text-anchor="start" x="194.5" y="-727.8" font-family="Helvetica,sans-Serif" font-size="9.00">+ input()</text>
<text text-anchor="start" x="194.5" y="-717.8" font-family="Helvetica,sans-Serif" font-size="9.00">+ nextactivation()</text>
<text text-anchor="start" x="194.5" y="-707.8" font-family="Helvetica,sans-Serif" font-size="9.00">+ output()</text>
</a>
</g>
</g>
<!-- Node4&#45;&gt;Node7 -->
<g id="edge8" class="edge"><title>Node4&#45;&gt;Node7</title>
<path fill="none" stroke="midnightblue" d="M196.367,-855.257C200.664,-845.608 205.262,-835.279 209.765,-825.166"/>
<polygon fill="none" stroke="midnightblue" points="193.057,-854.087 192.187,-864.646 199.452,-856.934 193.057,-854.087"/>
</g>
<!-- Node5 -->
<g id="node6" class="node"><title>Node5</title>
<g id="a_node6"><a xlink:href="../../d8/daf/interfacecom_1_1github_1_1aptd_1_1simulation_1_1elements_1_1graph_1_1network_1_1ITrack.htm" target="_top" xlink:title="interface of network edge ">
<polygon fill="none" stroke="black" points="185.5,-554 185.5,-638 296.5,-638 296.5,-554 185.5,-554"/>
<text text-anchor="start" x="193.5" y="-626.8" font-family="Helvetica,sans-Serif" font-size="9.00">com::github::aptd::</text>
<text text-anchor="start" x="193.5" y="-616.8" font-family="Helvetica,sans-Serif" font-size="9.00">simulation::elements</text>
<text text-anchor="start" x="193.5" y="-606.8" font-family="Helvetica,sans-Serif" font-size="9.00">::graph::network::ITrack</text>
<text text-anchor="middle" x="241" y="-596.8" font-family="Helvetica,sans-Serif" font-size="9.00">&lt; ITrack&lt;?&gt; &gt;</text>
<polyline fill="none" stroke="black" points="185.5,-590 296.5,-590 "/>
<text text-anchor="middle" x="241" y="-578.8" font-family="Helvetica,sans-Serif" font-size="9.00"> </text>
<polyline fill="none" stroke="black" points="185.5,-572 296.5,-572 "/>
<text text-anchor="middle" x="241" y="-560.8" font-family="Helvetica,sans-Serif" font-size="9.00"> </text>
</a>
</g>
</g>
<!-- Node5&#45;&gt;Node0 -->
<g id="edge5" class="edge"><title>Node5&#45;&gt;Node0</title>
<path fill="none" stroke="midnightblue" d="M237.098,-543.686C229.8,-447.724 214.097,-241.226 206.022,-135.036"/>
<polygon fill="none" stroke="midnightblue" points="233.613,-544.02 237.861,-553.726 240.593,-543.489 233.613,-544.02"/>
</g>
<!-- Node6 -->
<g id="node7" class="node"><title>Node6</title>
<g id="a_node7"><a xlink:href="../../d1/d9f/interfacecom_1_1github_1_1aptd_1_1simulation_1_1elements_1_1graph_1_1IEdge.htm" target="_top" xlink:title="interface of edges ">
<polygon fill="none" stroke="black" points="305.5,-721 305.5,-805 440.5,-805 440.5,-721 305.5,-721"/>
<text text-anchor="start" x="313.5" y="-793.8" font-family="Helvetica,sans-Serif" font-size="9.00">com::github::aptd::</text>
<text text-anchor="start" x="313.5" y="-783.8" font-family="Helvetica,sans-Serif" font-size="9.00">simulation::elements</text>
<text text-anchor="middle" x="373" y="-773.8" font-family="Helvetica,sans-Serif" font-size="9.00">::graph::IEdge&lt; IStation&lt;?&gt; &gt;</text>
<polyline fill="none" stroke="black" points="305.5,-767 440.5,-767 "/>
<text text-anchor="middle" x="373" y="-755.8" font-family="Helvetica,sans-Serif" font-size="9.00"> </text>
<polyline fill="none" stroke="black" points="305.5,-749 440.5,-749 "/>
<text text-anchor="start" x="313.5" y="-737.8" font-family="Helvetica,sans-Serif" font-size="9.00">+ from()</text>
<text text-anchor="start" x="313.5" y="-727.8" font-family="Helvetica,sans-Serif" font-size="9.00">+ to()</text>
</a>
</g>
</g>
<!-- Node6&#45;&gt;Node5 -->
<g id="edge6" class="edge"><title>Node6&#45;&gt;Node5</title>
<path fill="none" stroke="midnightblue" d="M333.729,-712.911C314.709,-689.136 292.124,-660.905 274.006,-638.257"/>
<polygon fill="none" stroke="midnightblue" points="331.051,-715.167 340.031,-720.789 336.517,-710.794 331.051,-715.167"/>
</g>
<!-- Node7&#45;&gt;Node5 -->
<g id="edge7" class="edge"><title>Node7&#45;&gt;Node5</title>
<path fill="none" stroke="midnightblue" d="M238.74,-690.24C239.169,-672.539 239.614,-654.166 239.995,-638.457"/>
<polygon fill="none" stroke="midnightblue" points="235.233,-690.478 238.489,-700.56 242.231,-690.648 235.233,-690.478"/>
</g>
</g>
</svg>
