<?xml version="1.0" encoding="UTF-8" standalone="no"?>
<!DOCTYPE svg PUBLIC "-//W3C//DTD SVG 1.1//EN"
 "http://www.w3.org/Graphics/SVG/1.1/DTD/svg11.dtd">
<!-- Generated by graphviz version 2.36.0 (20140111.2315)
 -->
<!-- Title: com.github.aptd.simulation.elements.IStatefulElement.writeState Pages: 1 -->
<svg width="416pt" height="150pt"
 viewBox="0.00 0.00 416.00 150.00" xmlns="http://www.w3.org/2000/svg" xmlns:xlink="http://www.w3.org/1999/xlink">
<g id="graph0" class="graph" transform="scale(1 1) rotate(0) translate(4 146)">
<title>com.github.aptd.simulation.elements.IStatefulElement.writeState</title>
<!-- Node43 -->
<g id="node1" class="node"><title>Node43</title>
<polygon fill="#bfbfbf" stroke="black" points="0,-57 0,-85 168,-85 168,-57 0,-57"/>
<text text-anchor="start" x="8" y="-73.8" font-family="Helvetica,sans-Serif" font-size="9.00">com.github.aptd.simulation.elements.</text>
<text text-anchor="middle" x="84" y="-63.8" font-family="Helvetica,sans-Serif" font-size="9.00">IStatefulElement.writeState</text>
</g>
<!-- Node44 -->
<g id="node2" class="node"><title>Node44</title>
<g id="a_node2"><a xlink:href="../../d8/d16/classcom_1_1github_1_1aptd_1_1simulation_1_1elements_1_1IStatefulElement.htm#a2fcf21f6cf0d87c9e575de108b972d52" target="_top" xlink:title="com.github.aptd.simulation.elements.\lIStatefulElement\&lt; IPassenger\l\&lt;?\&gt; \&gt;::continuousupdate">
<polygon fill="none" stroke="black" points="222,-104 222,-142 390,-142 390,-104 222,-104"/>
<text text-anchor="start" x="230" y="-130.8" font-family="Helvetica,sans-Serif" font-size="9.00">com.github.aptd.simulation.elements.</text>
<text text-anchor="start" x="230" y="-120.8" font-family="Helvetica,sans-Serif" font-size="9.00">IStatefulElement&lt; IPassenger</text>
<text text-anchor="middle" x="306" y="-110.8" font-family="Helvetica,sans-Serif" font-size="9.00">&lt;?&gt; &gt;::continuousupdate</text>
</a>
</g>
</g>
<!-- Node43&#45;&gt;Node44 -->
<g id="edge1" class="edge"><title>Node43&#45;&gt;Node44</title>
<path fill="none" stroke="midnightblue" d="M153.996,-87.3083C176.386,-92.6002 201.42,-98.5174 224.567,-103.989"/>
<polygon fill="midnightblue" stroke="midnightblue" points="154.782,-83.8976 144.245,-85.0034 153.172,-90.7099 154.782,-83.8976"/>
</g>
<!-- Node45 -->
<g id="node3" class="node"><title>Node45</title>
<g id="a_node3"><a xlink:href="../../d1/d9f/classcom_1_1github_1_1aptd_1_1simulation_1_1elements_1_1IBaseElement_1_1IBaseGenerator.htm#a4e8aa613331bf4107de46d5a73c81f0d" target="_top" xlink:title="com.github.aptd.simulation.elements.\lIBaseElement.IBaseGenerator.generatesingle">
<polygon fill="none" stroke="black" points="204,-57 204,-85 408,-85 408,-57 204,-57"/>
<text text-anchor="start" x="212" y="-73.8" font-family="Helvetica,sans-Serif" font-size="9.00">com.github.aptd.simulation.elements.</text>
<text text-anchor="middle" x="306" y="-63.8" font-family="Helvetica,sans-Serif" font-size="9.00">IBaseElement.IBaseGenerator.generatesingle</text>
</a>
</g>
</g>
<!-- Node43&#45;&gt;Node45 -->
<g id="edge2" class="edge"><title>Node43&#45;&gt;Node45</title>
<path fill="none" stroke="midnightblue" d="M178.396,-71C186.844,-71 195.425,-71 203.934,-71"/>
<polygon fill="midnightblue" stroke="midnightblue" points="178.173,-67.5001 168.173,-71 178.173,-74.5001 178.173,-67.5001"/>
</g>
<!-- Node46 -->
<g id="node4" class="node"><title>Node46</title>
<g id="a_node4"><a xlink:href="../../d8/d16/classcom_1_1github_1_1aptd_1_1simulation_1_1elements_1_1IStatefulElement.htm#a9dca31d9cf114db8091999d3cbc55173" target="_top" xlink:title="com.github.aptd.simulation.elements.\lIStatefulElement\&lt; IPassenger\l\&lt;?\&gt; \&gt;::transition">
<polygon fill="none" stroke="black" points="222,-0 222,-38 390,-38 390,-0 222,-0"/>
<text text-anchor="start" x="230" y="-26.8" font-family="Helvetica,sans-Serif" font-size="9.00">com.github.aptd.simulation.elements.</text>
<text text-anchor="start" x="230" y="-16.8" font-family="Helvetica,sans-Serif" font-size="9.00">IStatefulElement&lt; IPassenger</text>
<text text-anchor="middle" x="306" y="-6.8" font-family="Helvetica,sans-Serif" font-size="9.00">&lt;?&gt; &gt;::transition</text>
</a>
</g>
</g>
<!-- Node43&#45;&gt;Node46 -->
<g id="edge3" class="edge"><title>Node43&#45;&gt;Node46</title>
<path fill="none" stroke="midnightblue" d="M153.996,-54.6917C176.386,-49.3998 201.42,-43.4826 224.567,-38.0115"/>
<polygon fill="midnightblue" stroke="midnightblue" points="153.172,-51.2901 144.245,-56.9966 154.782,-58.1024 153.172,-51.2901"/>
</g>
</g>
</svg>
