<?xml version="1.0" encoding="UTF-8" standalone="no"?>
<!DOCTYPE svg PUBLIC "-//W3C//DTD SVG 1.1//EN"
 "http://www.w3.org/Graphics/SVG/1.1/DTD/svg11.dtd">
<!-- Generated by graphviz version 2.36.0 (20140111.2315)
 -->
<!-- Title: com.github.aptd.simulation.elements.IStatefulElement.output Pages: 1 -->
<svg width="938pt" height="387pt"
 viewBox="0.00 0.00 938.00 387.00" xmlns="http://www.w3.org/2000/svg" xmlns:xlink="http://www.w3.org/1999/xlink">
<g id="graph0" class="graph" transform="scale(1 1) rotate(0) translate(4 383)">
<title>com.github.aptd.simulation.elements.IStatefulElement.output</title>
<!-- Node19 -->
<g id="node1" class="node"><title>Node19</title>
<polygon fill="#bfbfbf" stroke="black" points="0,-171 0,-199 168,-199 168,-171 0,-171"/>
<text text-anchor="start" x="8" y="-187.8" font-family="Helvetica,sans-Serif" font-size="9.00">com.github.aptd.simulation.elements.</text>
<text text-anchor="middle" x="84" y="-177.8" font-family="Helvetica,sans-Serif" font-size="9.00">IStatefulElement.output</text>
</g>
<!-- Node20 -->
<g id="node2" class="node"><title>Node20</title>
<g id="a_node2"><a xlink:href="../../d1/db4/classcom_1_1github_1_1aptd_1_1simulation_1_1elements_1_1train_1_1CTrain.htm#af6c0e1b15fe6d78b01af63e295993495" target="_top" xlink:title="ctor ">
<polygon fill="none" stroke="black" points="236,-351 236,-379 424,-379 424,-351 236,-351"/>
<text text-anchor="start" x="244" y="-367.8" font-family="Helvetica,sans-Serif" font-size="9.00">com.github.aptd.simulation.elements.train.</text>
<text text-anchor="middle" x="330" y="-357.8" font-family="Helvetica,sans-Serif" font-size="9.00">CTrain.CTrain</text>
</a>
</g>
</g>
<!-- Node19&#45;&gt;Node20 -->
<g id="edge1" class="edge"><title>Node19&#45;&gt;Node20</title>
<path fill="none" stroke="midnightblue" d="M95.898,-208.446C113.423,-243.357 151.32,-308.381 204,-341 213.77,-347.049 224.728,-351.631 235.989,-355.093"/>
<polygon fill="midnightblue" stroke="midnightblue" points="99.0364,-206.897 91.4999,-199.45 92.7478,-209.971 99.0364,-206.897"/>
</g>
<!-- Node22 -->
<g id="node4" class="node"><title>Node22</title>
<g id="a_node4"><a xlink:href="../../d7/da9/classcom_1_1github_1_1aptd_1_1simulation_1_1elements_1_1passenger_1_1CPassenger.htm#ac0d392ed87804770180bc1348ab8c3ed" target="_top" xlink:title="com.github.aptd.simulation.elements.passenger.\lCPassenger.handledoormessage">
<polygon fill="none" stroke="black" points="223,-304 223,-332 437,-332 437,-304 223,-304"/>
<text text-anchor="start" x="231" y="-320.8" font-family="Helvetica,sans-Serif" font-size="9.00">com.github.aptd.simulation.elements.passenger.</text>
<text text-anchor="middle" x="330" y="-310.8" font-family="Helvetica,sans-Serif" font-size="9.00">CPassenger.handledoormessage</text>
</a>
</g>
</g>
<!-- Node19&#45;&gt;Node22 -->
<g id="edge3" class="edge"><title>Node19&#45;&gt;Node22</title>
<path fill="none" stroke="midnightblue" d="M103.666,-206.738C125.36,-230.583 163.405,-268.22 204,-289 216.097,-295.192 229.526,-300.08 242.966,-303.933"/>
<polygon fill="midnightblue" stroke="midnightblue" points="106.228,-204.352 96.9563,-199.224 101.007,-209.014 106.228,-204.352"/>
</g>
<!-- Node23 -->
<g id="node5" class="node"><title>Node23</title>
<g id="a_node5"><a xlink:href="../../d7/da9/classcom_1_1github_1_1aptd_1_1simulation_1_1elements_1_1passenger_1_1CPassenger.htm#af3a13d3db91533300eea67eb7c99e85e" target="_top" xlink:title="com.github.aptd.simulation.elements.passenger.\lCPassenger.updatestate">
<polygon fill="none" stroke="black" points="492,-261 492,-289 706,-289 706,-261 492,-261"/>
<text text-anchor="start" x="500" y="-277.8" font-family="Helvetica,sans-Serif" font-size="9.00">com.github.aptd.simulation.elements.passenger.</text>
<text text-anchor="middle" x="599" y="-267.8" font-family="Helvetica,sans-Serif" font-size="9.00">CPassenger.updatestate</text>
</a>
</g>
</g>
<!-- Node19&#45;&gt;Node23 -->
<g id="edge16" class="edge"><title>Node19&#45;&gt;Node23</title>
<path fill="none" stroke="midnightblue" d="M110.851,-205.215C133.865,-221.934 169.186,-244.565 204,-255 298.474,-283.318 411.329,-286.106 491.994,-283.126"/>
<polygon fill="midnightblue" stroke="midnightblue" points="112.776,-202.285 102.66,-199.135 108.604,-207.905 112.776,-202.285"/>
</g>
<!-- Node24 -->
<g id="node6" class="node"><title>Node24</title>
<g id="a_node6"><a xlink:href="../../d7/da9/classcom_1_1github_1_1aptd_1_1simulation_1_1elements_1_1passenger_1_1CPassenger.htm#a528e85aa14000f9f893aa84c3f95ada1" target="_top" xlink:title="com.github.aptd.simulation.elements.passenger.\lCPassenger.handleplatformmessages">
<polygon fill="none" stroke="black" points="223,-218 223,-246 437,-246 437,-218 223,-218"/>
<text text-anchor="start" x="231" y="-234.8" font-family="Helvetica,sans-Serif" font-size="9.00">com.github.aptd.simulation.elements.passenger.</text>
<text text-anchor="middle" x="330" y="-224.8" font-family="Helvetica,sans-Serif" font-size="9.00">CPassenger.handleplatformmessages</text>
</a>
</g>
</g>
<!-- Node19&#45;&gt;Node24 -->
<g id="edge5" class="edge"><title>Node19&#45;&gt;Node24</title>
<path fill="none" stroke="midnightblue" d="M167.192,-200.9C179.528,-203.282 192.098,-205.707 204,-208 220.817,-211.24 238.907,-214.717 255.959,-217.992"/>
<polygon fill="midnightblue" stroke="midnightblue" points="167.849,-197.462 157.367,-199.002 166.521,-204.335 167.849,-197.462"/>
</g>
<!-- Node25 -->
<g id="node7" class="node"><title>Node25</title>
<g id="a_node7"><a xlink:href="../../d1/d3a/classcom_1_1github_1_1aptd_1_1simulation_1_1elements_1_1train_1_1CDoor.htm#a70869cb9c55c168fc9f5f6045e13c3a2" target="_top" xlink:title="com.github.aptd.simulation.elements.train.\lCDoor.lockifrequested">
<polygon fill="none" stroke="black" points="236,-171 236,-199 424,-199 424,-171 236,-171"/>
<text text-anchor="start" x="244" y="-187.8" font-family="Helvetica,sans-Serif" font-size="9.00">com.github.aptd.simulation.elements.train.</text>
<text text-anchor="middle" x="330" y="-177.8" font-family="Helvetica,sans-Serif" font-size="9.00">CDoor.lockifrequested</text>
</a>
</g>
</g>
<!-- Node19&#45;&gt;Node25 -->
<g id="edge7" class="edge"><title>Node19&#45;&gt;Node25</title>
<path fill="none" stroke="midnightblue" d="M178.31,-185C197.091,-185 216.833,-185 235.616,-185"/>
<polygon fill="midnightblue" stroke="midnightblue" points="178.289,-181.5 168.289,-185 178.288,-188.5 178.289,-181.5"/>
</g>
<!-- Node28 -->
<g id="node10" class="node"><title>Node28</title>
<g id="a_node10"><a xlink:href="../../d1/d3a/classcom_1_1github_1_1aptd_1_1simulation_1_1elements_1_1train_1_1CDoor.htm#a477c2509454fd1af73c1b4fb79851b71" target="_top" xlink:title="com.github.aptd.simulation.elements.train.\lCDoor.nextpassengerifpossible">
<polygon fill="none" stroke="black" points="505,-128 505,-156 693,-156 693,-128 505,-128"/>
<text text-anchor="start" x="513" y="-144.8" font-family="Helvetica,sans-Serif" font-size="9.00">com.github.aptd.simulation.elements.train.</text>
<text text-anchor="middle" x="599" y="-134.8" font-family="Helvetica,sans-Serif" font-size="9.00">CDoor.nextpassengerifpossible</text>
</a>
</g>
</g>
<!-- Node19&#45;&gt;Node28 -->
<g id="edge10" class="edge"><title>Node19&#45;&gt;Node28</title>
<path fill="none" stroke="midnightblue" d="M158.838,-169.063C173.73,-166.32 189.319,-163.782 204,-162 306.497,-149.556 424.905,-144.832 504.943,-143.052"/>
<polygon fill="midnightblue" stroke="midnightblue" points="157.834,-165.691 148.659,-170.988 159.136,-172.569 157.834,-165.691"/>
</g>
<!-- Node29 -->
<g id="node11" class="node"><title>Node29</title>
<g id="a_node11"><a xlink:href="../../d1/d3a/classcom_1_1github_1_1aptd_1_1simulation_1_1elements_1_1train_1_1CDoor.htm#af33be7009842e74353ba6e51d1f87085" target="_top" xlink:title="com.github.aptd.simulation.elements.train.\lCDoor.timedstatechangeifnecessary">
<polygon fill="none" stroke="black" points="505,-81 505,-109 693,-109 693,-81 505,-81"/>
<text text-anchor="start" x="513" y="-97.8" font-family="Helvetica,sans-Serif" font-size="9.00">com.github.aptd.simulation.elements.train.</text>
<text text-anchor="middle" x="599" y="-87.8" font-family="Helvetica,sans-Serif" font-size="9.00">CDoor.timedstatechangeifnecessary</text>
</a>
</g>
</g>
<!-- Node19&#45;&gt;Node29 -->
<g id="edge12" class="edge"><title>Node19&#45;&gt;Node29</title>
<path fill="none" stroke="midnightblue" d="M124.969,-167.041C147.702,-157.555 176.952,-146.551 204,-140 305.206,-115.488 424.356,-104.232 504.918,-99.125"/>
<polygon fill="midnightblue" stroke="midnightblue" points="123.489,-163.867 115.651,-170.996 126.224,-170.31 123.489,-163.867"/>
</g>
<!-- Node30 -->
<g id="node12" class="node"><title>Node30</title>
<g id="a_node12"><a xlink:href="../../d2/d1c/classcom_1_1github_1_1aptd_1_1simulation_1_1elements_1_1graph_1_1network_1_1local_1_1CPlatform.htm#a5a3249dd413863a243be2b57c84cc057" target="_top" xlink:title="com.github.aptd.simulation.elements.graph.network.local.\lCPlatform.updatestate">
<polygon fill="none" stroke="black" points="204.5,-47 204.5,-75 455.5,-75 455.5,-47 204.5,-47"/>
<text text-anchor="start" x="212.5" y="-63.8" font-family="Helvetica,sans-Serif" font-size="9.00">com.github.aptd.simulation.elements.graph.network.local.</text>
<text text-anchor="middle" x="330" y="-53.8" font-family="Helvetica,sans-Serif" font-size="9.00">CPlatform.updatestate</text>
</a>
</g>
</g>
<!-- Node19&#45;&gt;Node30 -->
<g id="edge14" class="edge"><title>Node19&#45;&gt;Node30</title>
<path fill="none" stroke="midnightblue" d="M105.796,-163.492C128.08,-141.71 165.475,-108.65 204,-90 216.733,-83.8361 230.84,-78.9458 244.856,-75.0765"/>
<polygon fill="midnightblue" stroke="midnightblue" points="103.188,-161.15 98.5673,-170.684 108.125,-166.112 103.188,-161.15"/>
</g>
<!-- Node31 -->
<g id="node13" class="node"><title>Node31</title>
<g id="a_node13"><a xlink:href="../../d1/db4/classcom_1_1github_1_1aptd_1_1simulation_1_1elements_1_1train_1_1CTrain.htm#ad1f2cd7b0b567a6576f466cee933a53d" target="_top" xlink:title="com.github.aptd.simulation.elements.train.\lCTrain.updatestate">
<polygon fill="none" stroke="black" points="236,-0 236,-28 424,-28 424,-0 236,-0"/>
<text text-anchor="start" x="244" y="-16.8" font-family="Helvetica,sans-Serif" font-size="9.00">com.github.aptd.simulation.elements.train.</text>
<text text-anchor="middle" x="330" y="-6.8" font-family="Helvetica,sans-Serif" font-size="9.00">CTrain.updatestate</text>
</a>
</g>
</g>
<!-- Node19&#45;&gt;Node31 -->
<g id="edge15" class="edge"><title>Node19&#45;&gt;Node31</title>
<path fill="none" stroke="midnightblue" d="M96.7692,-161.976C114.979,-128.858 153.247,-68.4217 204,-38 213.761,-32.1491 224.654,-27.681 235.827,-24.2761"/>
<polygon fill="midnightblue" stroke="midnightblue" points="93.6094,-160.462 91.9701,-170.929 99.7791,-163.769 93.6094,-160.462"/>
</g>
<!-- Node21 -->
<g id="node3" class="node"><title>Node21</title>
<g id="a_node3"><a xlink:href="../../df/d99/classcom_1_1github_1_1aptd_1_1simulation_1_1elements_1_1train_1_1CTrain_1_1CGenerator.htm#abbca7d9bfd2c067e331f5509d807b869" target="_top" xlink:title="com.github.aptd.simulation.elements.train.\lCTrain.CGenerator.generate">
<polygon fill="none" stroke="black" points="505,-351 505,-379 693,-379 693,-351 505,-351"/>
<text text-anchor="start" x="513" y="-367.8" font-family="Helvetica,sans-Serif" font-size="9.00">com.github.aptd.simulation.elements.train.</text>
<text text-anchor="middle" x="599" y="-357.8" font-family="Helvetica,sans-Serif" font-size="9.00">CTrain.CGenerator.generate</text>
</a>
</g>
</g>
<!-- Node20&#45;&gt;Node21 -->
<g id="edge2" class="edge"><title>Node20&#45;&gt;Node21</title>
<path fill="none" stroke="midnightblue" d="M434.24,-365C457.501,-365 482.055,-365 504.873,-365"/>
<polygon fill="midnightblue" stroke="midnightblue" points="434.009,-361.5 424.009,-365 434.009,-368.5 434.009,-361.5"/>
</g>
<!-- Node22&#45;&gt;Node23 -->
<g id="edge4" class="edge"><title>Node22&#45;&gt;Node23</title>
<path fill="none" stroke="midnightblue" d="M427.961,-302.385C455.139,-298.008 484.505,-293.278 511.062,-289.001"/>
<polygon fill="midnightblue" stroke="midnightblue" points="427.373,-298.934 418.056,-303.98 428.486,-305.845 427.373,-298.934"/>
</g>
<!-- Node24&#45;&gt;Node23 -->
<g id="edge6" class="edge"><title>Node24&#45;&gt;Node23</title>
<path fill="none" stroke="midnightblue" d="M427.961,-247.615C455.139,-251.992 484.505,-256.722 511.062,-260.999"/>
<polygon fill="midnightblue" stroke="midnightblue" points="428.486,-244.155 418.056,-246.02 427.373,-251.066 428.486,-244.155"/>
</g>
<!-- Node26 -->
<g id="node8" class="node"><title>Node26</title>
<g id="a_node8"><a xlink:href="../../d1/d3a/classcom_1_1github_1_1aptd_1_1simulation_1_1elements_1_1train_1_1CDoor.htm#ac79a6b3684d7906047249e6bbfd5564d" target="_top" xlink:title="com.github.aptd.simulation.elements.train.\lCDoor.handletrainmessages">
<polygon fill="none" stroke="black" points="505,-175 505,-203 693,-203 693,-175 505,-175"/>
<text text-anchor="start" x="513" y="-191.8" font-family="Helvetica,sans-Serif" font-size="9.00">com.github.aptd.simulation.elements.train.</text>
<text text-anchor="middle" x="599" y="-181.8" font-family="Helvetica,sans-Serif" font-size="9.00">CDoor.handletrainmessages</text>
</a>
</g>
</g>
<!-- Node25&#45;&gt;Node26 -->
<g id="edge8" class="edge"><title>Node25&#45;&gt;Node26</title>
<path fill="none" stroke="midnightblue" d="M434.24,-186.547C457.501,-186.895 482.055,-187.263 504.873,-187.605"/>
<polygon fill="midnightblue" stroke="midnightblue" points="434.06,-183.044 424.009,-186.393 433.955,-190.043 434.06,-183.044"/>
</g>
<!-- Node27 -->
<g id="node9" class="node"><title>Node27</title>
<g id="a_node9"><a xlink:href="../../d1/d3a/classcom_1_1github_1_1aptd_1_1simulation_1_1elements_1_1train_1_1CDoor.htm#a340a49abfb1fb1f4103395e8acd90409" target="_top" xlink:title="com.github.aptd.simulation.elements.train.\lCDoor.updatestate">
<polygon fill="none" stroke="black" points="742,-128 742,-156 930,-156 930,-128 742,-128"/>
<text text-anchor="start" x="750" y="-144.8" font-family="Helvetica,sans-Serif" font-size="9.00">com.github.aptd.simulation.elements.train.</text>
<text text-anchor="middle" x="836" y="-134.8" font-family="Helvetica,sans-Serif" font-size="9.00">CDoor.updatestate</text>
</a>
</g>
</g>
<!-- Node26&#45;&gt;Node27 -->
<g id="edge9" class="edge"><title>Node26&#45;&gt;Node27</title>
<path fill="none" stroke="midnightblue" d="M680.16,-172.968C707.631,-167.474 738.142,-161.372 764.766,-156.047"/>
<polygon fill="midnightblue" stroke="midnightblue" points="679.309,-169.569 670.189,-174.962 680.682,-176.433 679.309,-169.569"/>
</g>
<!-- Node28&#45;&gt;Node27 -->
<g id="edge11" class="edge"><title>Node28&#45;&gt;Node27</title>
<path fill="none" stroke="midnightblue" d="M703.424,-142C716.229,-142 729.26,-142 741.897,-142"/>
<polygon fill="midnightblue" stroke="midnightblue" points="703.216,-138.5 693.216,-142 703.216,-145.5 703.216,-138.5"/>
</g>
<!-- Node29&#45;&gt;Node27 -->
<g id="edge13" class="edge"><title>Node29&#45;&gt;Node27</title>
<path fill="none" stroke="midnightblue" d="M680.16,-111.032C707.631,-116.526 738.142,-122.628 764.766,-127.953"/>
<polygon fill="midnightblue" stroke="midnightblue" points="680.682,-107.567 670.189,-109.038 679.309,-114.431 680.682,-107.567"/>
</g>
</g>
</svg>
