<?xml version="1.0" encoding="UTF-8" standalone="no"?>
<!DOCTYPE svg PUBLIC "-//W3C//DTD SVG 1.1//EN"
 "http://www.w3.org/Graphics/SVG/1.1/DTD/svg11.dtd">
<!-- Generated by graphviz version 2.36.0 (20140111.2315)
 -->
<!-- Title: com.github.aptd.simulation.elements.graph.IEdge&lt; T extends IVertex&lt;?&gt; Pages: 1 -->
<svg width="858pt" height="418pt"
 viewBox="0.00 0.00 858.00 418.00" xmlns="http://www.w3.org/2000/svg" xmlns:xlink="http://www.w3.org/1999/xlink">
<g id="graph0" class="graph" transform="scale(1 1) rotate(0) translate(4 414)">
<title>com.github.aptd.simulation.elements.graph.IEdge&lt; T extends IVertex&lt;?&gt;</title>
<!-- Node0 -->
<g id="node1" class="node"><title>Node0</title>
<polygon fill="#bfbfbf" stroke="black" points="402,-335 402,-409 596,-409 596,-335 402,-335"/>
<text text-anchor="start" x="410" y="-397.8" font-family="Helvetica,sans-Serif" font-size="9.00">com.github.aptd.simulation.elements.graph.</text>
<text text-anchor="middle" x="499" y="-387.8" font-family="Helvetica,sans-Serif" font-size="9.00">IEdge&lt; T extends IVertex&lt;?&gt;</text>
<polyline fill="none" stroke="black" points="402,-381 596,-381 "/>
<text text-anchor="middle" x="499" y="-369.8" font-family="Helvetica,sans-Serif" font-size="9.00"> </text>
<polyline fill="none" stroke="black" points="402,-363 596,-363 "/>
<text text-anchor="start" x="410" y="-351.8" font-family="Helvetica,sans-Serif" font-size="9.00">+ from()</text>
<text text-anchor="start" x="410" y="-341.8" font-family="Helvetica,sans-Serif" font-size="9.00">+ to()</text>
</g>
<!-- Node1 -->
<g id="node2" class="node"><title>Node1</title>
<g id="a_node2"><a xlink:href="../../d1/d8a/interfacecom_1_1github_1_1aptd_1_1simulation_1_1elements_1_1graph_1_1eventactivitynetwork_1_1IActivity.htm" target="_top" xlink:title="interface of an activity ">
<polygon fill="none" stroke="black" points="125,-203 125,-287 257,-287 257,-203 125,-203"/>
<text text-anchor="start" x="133" y="-275.8" font-family="Helvetica,sans-Serif" font-size="9.00">com::github::aptd::</text>
<text text-anchor="start" x="133" y="-265.8" font-family="Helvetica,sans-Serif" font-size="9.00">simulation::elements</text>
<text text-anchor="start" x="133" y="-255.8" font-family="Helvetica,sans-Serif" font-size="9.00">::graph::eventactivitynetwork</text>
<text text-anchor="middle" x="191" y="-245.8" font-family="Helvetica,sans-Serif" font-size="9.00">::IActivity&lt; INode &gt;</text>
<polyline fill="none" stroke="black" points="125,-239 257,-239 "/>
<text text-anchor="middle" x="191" y="-227.8" font-family="Helvetica,sans-Serif" font-size="9.00"> </text>
<polyline fill="none" stroke="black" points="125,-221 257,-221 "/>
<text text-anchor="start" x="133" y="-209.8" font-family="Helvetica,sans-Serif" font-size="9.00">+ event()</text>
</a>
</g>
</g>
<!-- Node0&#45;&gt;Node1 -->
<g id="edge1" class="edge"><title>Node0&#45;&gt;Node1</title>
<path fill="none" stroke="midnightblue" d="M400.376,-330.974C353.654,-312.012 299.088,-289.867 257.375,-272.938"/>
<polygon fill="none" stroke="midnightblue" points="399.331,-334.327 409.914,-334.845 401.964,-327.841 399.331,-334.327"/>
</g>
<!-- Node3 -->
<g id="node4" class="node"><title>Node3</title>
<g id="a_node4"><a xlink:href="../../d8/daf/interfacecom_1_1github_1_1aptd_1_1simulation_1_1elements_1_1graph_1_1network_1_1ITrack.htm" target="_top" xlink:title="interface of network edge ">
<polygon fill="none" stroke="black" points="316.5,-203 316.5,-287 427.5,-287 427.5,-203 316.5,-203"/>
<text text-anchor="start" x="324.5" y="-275.8" font-family="Helvetica,sans-Serif" font-size="9.00">com::github::aptd::</text>
<text text-anchor="start" x="324.5" y="-265.8" font-family="Helvetica,sans-Serif" font-size="9.00">simulation::elements</text>
<text text-anchor="start" x="324.5" y="-255.8" font-family="Helvetica,sans-Serif" font-size="9.00">::graph::network::ITrack</text>
<text text-anchor="middle" x="372" y="-245.8" font-family="Helvetica,sans-Serif" font-size="9.00">&lt; IStation&lt;?&gt; &gt;</text>
<polyline fill="none" stroke="black" points="316.5,-239 427.5,-239 "/>
<text text-anchor="middle" x="372" y="-227.8" font-family="Helvetica,sans-Serif" font-size="9.00"> </text>
<polyline fill="none" stroke="black" points="316.5,-221 427.5,-221 "/>
<text text-anchor="middle" x="372" y="-209.8" font-family="Helvetica,sans-Serif" font-size="9.00"> </text>
</a>
</g>
</g>
<!-- Node0&#45;&gt;Node3 -->
<g id="edge3" class="edge"><title>Node0&#45;&gt;Node3</title>
<path fill="none" stroke="midnightblue" d="M455.028,-327.721C441.736,-314.637 427.178,-300.309 414.016,-287.355"/>
<polygon fill="none" stroke="midnightblue" points="452.684,-330.325 462.266,-334.845 457.595,-325.336 452.684,-330.325"/>
</g>
<!-- Node6 -->
<g id="node7" class="node"><title>Node6</title>
<g id="a_node7"><a xlink:href="../../d1/d9f/interfacecom_1_1github_1_1aptd_1_1simulation_1_1elements_1_1graph_1_1IEdge.htm" target="_top" xlink:title="{com.github.aptd.simulation.elements.graph.\lIEdge\&lt; IStation\&lt;?\&gt; \&gt;\n||+ from()\l+ to()\l}">
<polygon fill="none" stroke="black" points="445,-208 445,-282 639,-282 639,-208 445,-208"/>
<text text-anchor="start" x="453" y="-270.8" font-family="Helvetica,sans-Serif" font-size="9.00">com.github.aptd.simulation.elements.graph.</text>
<text text-anchor="middle" x="542" y="-260.8" font-family="Helvetica,sans-Serif" font-size="9.00">IEdge&lt; IStation&lt;?&gt; &gt;</text>
<polyline fill="none" stroke="black" points="445,-254 639,-254 "/>
<text text-anchor="middle" x="542" y="-242.8" font-family="Helvetica,sans-Serif" font-size="9.00"> </text>
<polyline fill="none" stroke="black" points="445,-236 639,-236 "/>
<text text-anchor="start" x="453" y="-224.8" font-family="Helvetica,sans-Serif" font-size="9.00">+ from()</text>
<text text-anchor="start" x="453" y="-214.8" font-family="Helvetica,sans-Serif" font-size="9.00">+ to()</text>
</a>
</g>
</g>
<!-- Node0&#45;&gt;Node6 -->
<g id="edge6" class="edge"><title>Node0&#45;&gt;Node6</title>
<path fill="none" stroke="orange" d="M514.743,-325.237C519.636,-311.013 524.958,-295.54 529.591,-282.074"/>
<polygon fill="orange" stroke="orange" points="511.381,-324.25 511.437,-334.845 518,-326.527 511.381,-324.25"/>
<text text-anchor="middle" x="553" y="-308.8" font-family="Helvetica,sans-Serif" font-size="9.00"> &lt; IStation&lt;?&gt; &gt;</text>
</g>
<!-- Node7 -->
<g id="node8" class="node"><title>Node7</title>
<g id="a_node8"><a xlink:href="../../d1/d9f/interfacecom_1_1github_1_1aptd_1_1simulation_1_1elements_1_1graph_1_1IEdge.htm" target="_top" xlink:title="{com.github.aptd.simulation.elements.graph.\lIEdge\&lt; INode \&gt;\n||+ from()\l+ to()\l}">
<polygon fill="none" stroke="black" points="657,-208 657,-282 851,-282 851,-208 657,-208"/>
<text text-anchor="start" x="665" y="-270.8" font-family="Helvetica,sans-Serif" font-size="9.00">com.github.aptd.simulation.elements.graph.</text>
<text text-anchor="middle" x="754" y="-260.8" font-family="Helvetica,sans-Serif" font-size="9.00">IEdge&lt; INode &gt;</text>
<polyline fill="none" stroke="black" points="657,-254 851,-254 "/>
<text text-anchor="middle" x="754" y="-242.8" font-family="Helvetica,sans-Serif" font-size="9.00"> </text>
<polyline fill="none" stroke="black" points="657,-236 851,-236 "/>
<text text-anchor="start" x="665" y="-224.8" font-family="Helvetica,sans-Serif" font-size="9.00">+ from()</text>
<text text-anchor="start" x="665" y="-214.8" font-family="Helvetica,sans-Serif" font-size="9.00">+ to()</text>
</a>
</g>
</g>
<!-- Node0&#45;&gt;Node7 -->
<g id="edge7" class="edge"><title>Node0&#45;&gt;Node7</title>
<path fill="none" stroke="orange" d="M582.016,-330.306C613.727,-314.761 649.636,-297.159 680.409,-282.074"/>
<polygon fill="orange" stroke="orange" points="580.195,-327.3 572.757,-334.845 583.276,-333.586 580.195,-327.3"/>
<text text-anchor="middle" x="648.5" y="-308.8" font-family="Helvetica,sans-Serif" font-size="9.00"> &lt; INode &gt;</text>
</g>
<!-- Node2 -->
<g id="node3" class="node"><title>Node2</title>
<g id="a_node3"><a xlink:href="../../dd/d37/classcom_1_1github_1_1aptd_1_1simulation_1_1elements_1_1graph_1_1eventactivitynetwork_1_1local_1_1CActivity.htm" target="_top" xlink:title="activity ">
<polygon fill="none" stroke="black" points="-0.5,-11 -0.5,-145 300.5,-145 300.5,-11 -0.5,-11"/>
<text text-anchor="start" x="7.5" y="-133.8" font-family="Helvetica,sans-Serif" font-size="9.00">com.github.aptd.simulation.elements.graph.eventactivitynetwork.local.</text>
<text text-anchor="middle" x="150" y="-123.8" font-family="Helvetica,sans-Serif" font-size="9.00">CActivity</text>
<polyline fill="none" stroke="black" points="-0.5,-117 300.5,-117 "/>
<text text-anchor="start" x="7.5" y="-105.8" font-family="Helvetica,sans-Serif" font-size="9.00">&#45; m_event</text>
<text text-anchor="start" x="7.5" y="-95.8" font-family="Helvetica,sans-Serif" font-size="9.00">&#45; m_from</text>
<text text-anchor="start" x="7.5" y="-85.8" font-family="Helvetica,sans-Serif" font-size="9.00">&#45; m_to</text>
<polyline fill="none" stroke="black" points="-0.5,-79 300.5,-79 "/>
<text text-anchor="start" x="7.5" y="-67.8" font-family="Helvetica,sans-Serif" font-size="9.00">+ CActivity()</text>
<text text-anchor="start" x="7.5" y="-57.8" font-family="Helvetica,sans-Serif" font-size="9.00">+ equals()</text>
<text text-anchor="start" x="7.5" y="-47.8" font-family="Helvetica,sans-Serif" font-size="9.00">+ event()</text>
<text text-anchor="start" x="7.5" y="-37.8" font-family="Helvetica,sans-Serif" font-size="9.00">+ from()</text>
<text text-anchor="start" x="7.5" y="-27.8" font-family="Helvetica,sans-Serif" font-size="9.00">+ hashCode()</text>
<text text-anchor="start" x="7.5" y="-17.8" font-family="Helvetica,sans-Serif" font-size="9.00">+ to()</text>
</a>
</g>
</g>
<!-- Node1&#45;&gt;Node2 -->
<g id="edge2" class="edge"><title>Node1&#45;&gt;Node2</title>
<path fill="none" stroke="midnightblue" d="M178.346,-193.077C174.573,-177.889 170.381,-161.02 166.403,-145.014"/>
<polygon fill="none" stroke="midnightblue" points="174.951,-193.928 180.76,-202.789 181.745,-192.24 174.951,-193.928"/>
</g>
<!-- Node4 -->
<g id="node5" class="node"><title>Node4</title>
<g id="a_node5"><a xlink:href="../../d7/db3/classcom_1_1github_1_1aptd_1_1simulation_1_1elements_1_1graph_1_1network_1_1local_1_1CTrack.htm" target="_top" xlink:title="network edge class to link to nodestrack of the network ">
<polygon fill="none" stroke="black" points="319,-1 319,-155 425,-155 425,-1 319,-1"/>
<text text-anchor="start" x="327" y="-143.8" font-family="Helvetica,sans-Serif" font-size="9.00">com::github::aptd::</text>
<text text-anchor="start" x="327" y="-133.8" font-family="Helvetica,sans-Serif" font-size="9.00">simulation::elements</text>
<text text-anchor="start" x="327" y="-123.8" font-family="Helvetica,sans-Serif" font-size="9.00">::graph::network::local</text>
<text text-anchor="middle" x="372" y="-113.8" font-family="Helvetica,sans-Serif" font-size="9.00">::CTrack&lt; ITrack&lt;?&gt; &gt;</text>
<polyline fill="none" stroke="black" points="319,-107 425,-107 "/>
<text text-anchor="start" x="327" y="-95.8" font-family="Helvetica,sans-Serif" font-size="9.00">&#45; m_from</text>
<text text-anchor="start" x="327" y="-85.8" font-family="Helvetica,sans-Serif" font-size="9.00">&#45; m_maximumspeed</text>
<text text-anchor="start" x="327" y="-75.8" font-family="Helvetica,sans-Serif" font-size="9.00">&#45; m_to</text>
<text text-anchor="start" x="327" y="-65.8" font-family="Helvetica,sans-Serif" font-size="9.00">&#45; FUNCTOR</text>
<text text-anchor="start" x="327" y="-55.8" font-family="Helvetica,sans-Serif" font-size="9.00">&#45; serialVersionUID</text>
<polyline fill="none" stroke="black" points="319,-49 425,-49 "/>
<text text-anchor="start" x="327" y="-37.8" font-family="Helvetica,sans-Serif" font-size="9.00">+ from()</text>
<text text-anchor="start" x="327" y="-27.8" font-family="Helvetica,sans-Serif" font-size="9.00">+ to()</text>
<text text-anchor="start" x="327" y="-17.8" font-family="Helvetica,sans-Serif" font-size="9.00"># individualliteral()</text>
<text text-anchor="start" x="327" y="-7.8" font-family="Helvetica,sans-Serif" font-size="9.00">&#45; CTrack()</text>
</a>
</g>
</g>
<!-- Node3&#45;&gt;Node4 -->
<g id="edge4" class="edge"><title>Node3&#45;&gt;Node4</title>
<path fill="none" stroke="midnightblue" d="M372,-192.605C372,-180.684 372,-167.747 372,-155.018"/>
<polygon fill="none" stroke="midnightblue" points="368.5,-192.789 372,-202.789 375.5,-192.789 368.5,-192.789"/>
</g>
<!-- Node5 -->
<g id="node6" class="node"><title>Node5</title>
<g id="a_node6"><a xlink:href="../../d1/da7/namespacecom_1_1github_1_1aptd_1_1simulation_1_1elements_1_1graph_1_1network.htm#d8/daf/interfacecom_1_1github_1_1aptd_1_1simulation_1_1elements_1_1graph_1_1network_1_1ITrack" target="_top" xlink:title="{com.github.aptd.simulation.elements.graph.network.\lITrack\&lt; ITrack\&lt;?\&gt; \&gt;\n||}">
<polygon fill="none" stroke="black" points="443.5,-46 443.5,-110 672.5,-110 672.5,-46 443.5,-46"/>
<text text-anchor="start" x="451.5" y="-98.8" font-family="Helvetica,sans-Serif" font-size="9.00">com.github.aptd.simulation.elements.graph.network.</text>
<text text-anchor="middle" x="558" y="-88.8" font-family="Helvetica,sans-Serif" font-size="9.00">ITrack&lt; ITrack&lt;?&gt; &gt;</text>
<polyline fill="none" stroke="black" points="443.5,-82 672.5,-82 "/>
<text text-anchor="middle" x="558" y="-70.8" font-family="Helvetica,sans-Serif" font-size="9.00"> </text>
<polyline fill="none" stroke="black" points="443.5,-64 672.5,-64 "/>
<text text-anchor="middle" x="558" y="-52.8" font-family="Helvetica,sans-Serif" font-size="9.00"> </text>
</a>
</g>
</g>
<!-- Node3&#45;&gt;Node5 -->
<g id="edge5" class="edge"><title>Node3&#45;&gt;Node5</title>
<path fill="none" stroke="orange" d="M426.222,-195.9C457.411,-168.232 495.688,-134.276 522.937,-110.104"/>
<polygon fill="orange" stroke="orange" points="423.614,-193.535 418.456,-202.789 428.259,-198.771 423.614,-193.535"/>
<text text-anchor="middle" x="478" y="-176.8" font-family="Helvetica,sans-Serif" font-size="9.00"> &lt; ITrack&lt;?&gt; &gt;</text>
</g>
</g>
</svg>
