<?xml version="1.0" encoding="UTF-8" standalone="no"?>
<!DOCTYPE svg PUBLIC "-//W3C//DTD SVG 1.1//EN"
 "http://www.w3.org/Graphics/SVG/1.1/DTD/svg11.dtd">
<!-- Generated by graphviz version 2.36.0 (20140111.2315)
 -->
<!-- Title: com.github.aptd.simulation.core.time.local.CJumpTime Pages: 1 -->
<svg width="198pt" height="610pt"
 viewBox="0.00 0.00 198.00 610.00" xmlns="http://www.w3.org/2000/svg" xmlns:xlink="http://www.w3.org/1999/xlink">
<g id="graph0" class="graph" transform="scale(1 1) rotate(0) translate(4 606)">
<title>com.github.aptd.simulation.core.time.local.CJumpTime</title>
<!-- Node4 -->
<g id="node1" class="node"><title>Node4</title>
<polygon fill="#bfbfbf" stroke="black" points="0,-1 0,-135 190,-135 190,-1 0,-1"/>
<text text-anchor="start" x="8" y="-123.8" font-family="Helvetica,sans-Serif" font-size="9.00">com.github.aptd.simulation.core.time.local.</text>
<text text-anchor="middle" x="95" y="-113.8" font-family="Helvetica,sans-Serif" font-size="9.00">CJumpTime</text>
<polyline fill="none" stroke="black" points="0,-107 190,-107 "/>
<text text-anchor="start" x="8" y="-95.8" font-family="Helvetica,sans-Serif" font-size="9.00">&#45; m_active</text>
<text text-anchor="start" x="8" y="-85.8" font-family="Helvetica,sans-Serif" font-size="9.00">&#45; m_elements</text>
<text text-anchor="start" x="8" y="-75.8" font-family="Helvetica,sans-Serif" font-size="9.00">&#45; m_factory</text>
<polyline fill="none" stroke="black" points="0,-69 190,-69 "/>
<text text-anchor="start" x="8" y="-57.8" font-family="Helvetica,sans-Serif" font-size="9.00">+ CJumpTime()</text>
<text text-anchor="start" x="8" y="-47.8" font-family="Helvetica,sans-Serif" font-size="9.00">+ CJumpTime()</text>
<text text-anchor="start" x="8" y="-37.8" font-family="Helvetica,sans-Serif" font-size="9.00">+ active()</text>
<text text-anchor="start" x="8" y="-27.8" font-family="Helvetica,sans-Serif" font-size="9.00">+ addagent()</text>
<text text-anchor="start" x="8" y="-17.8" font-family="Helvetica,sans-Serif" font-size="9.00">+ call()</text>
<text text-anchor="start" x="8" y="-7.8" font-family="Helvetica,sans-Serif" font-size="9.00">+ removeagent()</text>
</g>
<!-- Node5 -->
<g id="node2" class="node"><title>Node5</title>
<g id="a_node2"><a xlink:href="../../df/dd8/classcom_1_1github_1_1aptd_1_1simulation_1_1core_1_1time_1_1IBaseTime.htm" target="_top" xlink:title="Base implementation of time mechanism with member variable and literal representation. ">
<polygon fill="none" stroke="black" points="11,-173 11,-347 179,-347 179,-173 11,-173"/>
<text text-anchor="start" x="19" y="-335.8" font-family="Helvetica,sans-Serif" font-size="9.00">com.github.aptd.simulation.core.time.</text>
<text text-anchor="middle" x="95" y="-325.8" font-family="Helvetica,sans-Serif" font-size="9.00">IBaseTime</text>
<polyline fill="none" stroke="black" points="11,-319 179,-319 "/>
<text text-anchor="start" x="19" y="-307.8" font-family="Helvetica,sans-Serif" font-size="9.00"># m_currenttime</text>
<text text-anchor="start" x="19" y="-297.8" font-family="Helvetica,sans-Serif" font-size="9.00"># m_stepcount</text>
<text text-anchor="start" x="19" y="-287.8" font-family="Helvetica,sans-Serif" font-size="9.00"># m_steplimit</text>
<text text-anchor="start" x="19" y="-277.8" font-family="Helvetica,sans-Serif" font-size="9.00">&#45; m_zone</text>
<polyline fill="none" stroke="black" points="11,-271 179,-271 "/>
<text text-anchor="start" x="19" y="-259.8" font-family="Helvetica,sans-Serif" font-size="9.00">+ active()</text>
<text text-anchor="start" x="19" y="-249.8" font-family="Helvetica,sans-Serif" font-size="9.00">+ addagent()</text>
<text text-anchor="start" x="19" y="-239.8" font-family="Helvetica,sans-Serif" font-size="9.00">+ call()</text>
<text text-anchor="start" x="19" y="-229.8" font-family="Helvetica,sans-Serif" font-size="9.00">+ current()</text>
<text text-anchor="start" x="19" y="-219.8" font-family="Helvetica,sans-Serif" font-size="9.00">+ literal()</text>
<text text-anchor="start" x="19" y="-209.8" font-family="Helvetica,sans-Serif" font-size="9.00">+ literal()</text>
<text text-anchor="start" x="19" y="-199.8" font-family="Helvetica,sans-Serif" font-size="9.00">+ raw()</text>
<text text-anchor="start" x="19" y="-189.8" font-family="Helvetica,sans-Serif" font-size="9.00">+ removeagent()</text>
<text text-anchor="start" x="19" y="-179.8" font-family="Helvetica,sans-Serif" font-size="9.00"># IBaseTime()</text>
</a>
</g>
</g>
<!-- Node5&#45;&gt;Node4 -->
<g id="edge1" class="edge"><title>Node5&#45;&gt;Node4</title>
<path fill="none" stroke="midnightblue" d="M95,-162.773C95,-153.436 95,-144.114 95,-135.169"/>
<polygon fill="none" stroke="midnightblue" points="91.5001,-162.895 95,-172.895 98.5001,-162.895 91.5001,-162.895"/>
</g>
<!-- Node6 -->
<g id="node3" class="node"><title>Node6</title>
<g id="a_node3"><a xlink:href="../../db/d65/interfacecom_1_1github_1_1aptd_1_1simulation_1_1core_1_1time_1_1ITime.htm" target="_top" xlink:title="time interface ">
<polygon fill="none" stroke="black" points="11,-385 11,-489 179,-489 179,-385 11,-385"/>
<text text-anchor="start" x="19" y="-477.8" font-family="Helvetica,sans-Serif" font-size="9.00">com.github.aptd.simulation.core.time.</text>
<text text-anchor="middle" x="95" y="-467.8" font-family="Helvetica,sans-Serif" font-size="9.00">ITime</text>
<polyline fill="none" stroke="black" points="11,-461 179,-461 "/>
<text text-anchor="middle" x="95" y="-449.8" font-family="Helvetica,sans-Serif" font-size="9.00"> </text>
<polyline fill="none" stroke="black" points="11,-443 179,-443 "/>
<text text-anchor="start" x="19" y="-431.8" font-family="Helvetica,sans-Serif" font-size="9.00">+ active()</text>
<text text-anchor="start" x="19" y="-421.8" font-family="Helvetica,sans-Serif" font-size="9.00">+ addagent()</text>
<text text-anchor="start" x="19" y="-411.8" font-family="Helvetica,sans-Serif" font-size="9.00">+ current()</text>
<text text-anchor="start" x="19" y="-401.8" font-family="Helvetica,sans-Serif" font-size="9.00">+ raw()</text>
<text text-anchor="start" x="19" y="-391.8" font-family="Helvetica,sans-Serif" font-size="9.00">+ removeagent()</text>
</a>
</g>
</g>
<!-- Node6&#45;&gt;Node5 -->
<g id="edge2" class="edge"><title>Node6&#45;&gt;Node5</title>
<path fill="none" stroke="midnightblue" d="M95,-374.633C95,-365.699 95,-356.365 95,-347.052"/>
<polygon fill="none" stroke="midnightblue" points="91.5001,-374.912 95,-384.912 98.5001,-374.912 91.5001,-374.912"/>
</g>
<!-- Node7 -->
<g id="node4" class="node"><title>Node7</title>
<g id="a_node4"><a xlink:href="../../d4/d0d/interfacecom_1_1github_1_1aptd_1_1simulation_1_1elements_1_1IPerceiveable.htm" target="_top" xlink:title="any object which be perceived by an agent ">
<polygon fill="none" stroke="black" points="11,-527 11,-601 179,-601 179,-527 11,-527"/>
<text text-anchor="start" x="19" y="-589.8" font-family="Helvetica,sans-Serif" font-size="9.00">com.github.aptd.simulation.elements.</text>
<text text-anchor="middle" x="95" y="-579.8" font-family="Helvetica,sans-Serif" font-size="9.00">IPerceiveable</text>
<polyline fill="none" stroke="black" points="11,-573 179,-573 "/>
<text text-anchor="middle" x="95" y="-561.8" font-family="Helvetica,sans-Serif" font-size="9.00"> </text>
<polyline fill="none" stroke="black" points="11,-555 179,-555 "/>
<text text-anchor="start" x="19" y="-543.8" font-family="Helvetica,sans-Serif" font-size="9.00">+ literal()</text>
<text text-anchor="start" x="19" y="-533.8" font-family="Helvetica,sans-Serif" font-size="9.00">+ literal()</text>
</a>
</g>
</g>
<!-- Node7&#45;&gt;Node6 -->
<g id="edge3" class="edge"><title>Node7&#45;&gt;Node6</title>
<path fill="none" stroke="midnightblue" d="M95,-516.68C95,-507.797 95,-498.446 95,-489.414"/>
<polygon fill="none" stroke="midnightblue" points="91.5001,-516.845 95,-526.845 98.5001,-516.845 91.5001,-516.845"/>
</g>
</g>
</svg>
