<?xml version="1.0" encoding="UTF-8" standalone="no"?>
<!DOCTYPE svg PUBLIC "-//W3C//DTD SVG 1.1//EN"
 "http://www.w3.org/Graphics/SVG/1.1/DTD/svg11.dtd">
<!-- Generated by graphviz version 2.36.0 (20140111.2315)
 -->
<!-- Title: com.github.aptd.simulation.elements.dispatcher.IDispatcher&lt; T extends IDispatcher&lt;?&gt; Pages: 1 -->
<svg width="220pt" height="588pt"
 viewBox="0.00 0.00 220.00 588.00" xmlns="http://www.w3.org/2000/svg" xmlns:xlink="http://www.w3.org/1999/xlink">
<g id="graph0" class="graph" transform="scale(1 1) rotate(0) translate(4 584)">
<title>com.github.aptd.simulation.elements.dispatcher.IDispatcher&lt; T extends IDispatcher&lt;?&gt;</title>
<!-- Node0 -->
<g id="node1" class="node"><title>Node0</title>
<polygon fill="#bfbfbf" stroke="black" points="-0.5,-237 -0.5,-301 212.5,-301 212.5,-237 -0.5,-237"/>
<text text-anchor="start" x="7.5" y="-289.8" font-family="Helvetica,sans-Serif" font-size="9.00">com.github.aptd.simulation.elements.dispatcher.</text>
<text text-anchor="middle" x="106" y="-279.8" font-family="Helvetica,sans-Serif" font-size="9.00">IDispatcher&lt; T extends IDispatcher&lt;?&gt;</text>
<polyline fill="none" stroke="black" points="-0.5,-273 212.5,-273 "/>
<text text-anchor="middle" x="106" y="-261.8" font-family="Helvetica,sans-Serif" font-size="9.00"> </text>
<polyline fill="none" stroke="black" points="-0.5,-255 212.5,-255 "/>
<text text-anchor="middle" x="106" y="-243.8" font-family="Helvetica,sans-Serif" font-size="9.00"> </text>
</g>
<!-- Node3 -->
<g id="node4" class="node"><title>Node3</title>
<g id="a_node4"><a xlink:href="../../d7/df1/interfacecom_1_1github_1_1aptd_1_1simulation_1_1elements_1_1dispatcher_1_1IDispatcher.htm" target="_top" xlink:title="{com.github.aptd.simulation.elements.dispatcher.\lIDispatcher\&lt; IDispatcher\&lt;?\&gt; \&gt;\n||}">
<polygon fill="none" stroke="black" points="-0.5,-125 -0.5,-189 212.5,-189 212.5,-125 -0.5,-125"/>
<text text-anchor="start" x="7.5" y="-177.8" font-family="Helvetica,sans-Serif" font-size="9.00">com.github.aptd.simulation.elements.dispatcher.</text>
<text text-anchor="middle" x="106" y="-167.8" font-family="Helvetica,sans-Serif" font-size="9.00">IDispatcher&lt; IDispatcher&lt;?&gt; &gt;</text>
<polyline fill="none" stroke="black" points="-0.5,-161 212.5,-161 "/>
<text text-anchor="middle" x="106" y="-149.8" font-family="Helvetica,sans-Serif" font-size="9.00"> </text>
<polyline fill="none" stroke="black" points="-0.5,-143 212.5,-143 "/>
<text text-anchor="middle" x="106" y="-131.8" font-family="Helvetica,sans-Serif" font-size="9.00"> </text>
</a>
</g>
</g>
<!-- Node0&#45;&gt;Node3 -->
<g id="edge3" class="edge"><title>Node0&#45;&gt;Node3</title>
<path fill="none" stroke="orange" d="M106,-226.667C106,-214.289 106,-200.925 106,-189.305"/>
<polygon fill="orange" stroke="orange" points="102.5,-226.773 106,-236.773 109.5,-226.773 102.5,-226.773"/>
<text text-anchor="middle" x="146" y="-210.8" font-family="Helvetica,sans-Serif" font-size="9.00"> &lt; IDispatcher&lt;?&gt; &gt;</text>
</g>
<!-- Node1 -->
<g id="node2" class="node"><title>Node1</title>
<g id="a_node2"><a xlink:href="../../dd/dd7/interfacecom_1_1github_1_1aptd_1_1simulation_1_1elements_1_1IElement.htm" target="_top" xlink:title="any object interface ">
<polygon fill="none" stroke="black" points="55.5,-341 55.5,-465 156.5,-465 156.5,-341 55.5,-341"/>
<text text-anchor="start" x="63.5" y="-453.8" font-family="Helvetica,sans-Serif" font-size="9.00">com::github::aptd::</text>
<text text-anchor="start" x="63.5" y="-443.8" font-family="Helvetica,sans-Serif" font-size="9.00">simulation::elements</text>
<text text-anchor="middle" x="106" y="-433.8" font-family="Helvetica,sans-Serif" font-size="9.00">::IElement&lt; T &gt;</text>
<polyline fill="none" stroke="black" points="55.5,-427 156.5,-427 "/>
<text text-anchor="middle" x="106" y="-415.8" font-family="Helvetica,sans-Serif" font-size="9.00"> </text>
<polyline fill="none" stroke="black" points="55.5,-409 156.5,-409 "/>
<text text-anchor="start" x="63.5" y="-397.8" font-family="Helvetica,sans-Serif" font-size="9.00">+ environment()</text>
<text text-anchor="start" x="63.5" y="-387.8" font-family="Helvetica,sans-Serif" font-size="9.00">+ id()</text>
<text text-anchor="start" x="63.5" y="-377.8" font-family="Helvetica,sans-Serif" font-size="9.00">+ imminent()</text>
<text text-anchor="start" x="63.5" y="-367.8" font-family="Helvetica,sans-Serif" font-size="9.00">+ input()</text>
<text text-anchor="start" x="63.5" y="-357.8" font-family="Helvetica,sans-Serif" font-size="9.00">+ nextactivation()</text>
<text text-anchor="start" x="63.5" y="-347.8" font-family="Helvetica,sans-Serif" font-size="9.00">+ output()</text>
</a>
</g>
</g>
<!-- Node1&#45;&gt;Node0 -->
<g id="edge1" class="edge"><title>Node1&#45;&gt;Node0</title>
<path fill="none" stroke="midnightblue" d="M106,-330.323C106,-320.034 106,-309.93 106,-301.021"/>
<polygon fill="none" stroke="midnightblue" points="102.5,-330.637 106,-340.637 109.5,-330.637 102.5,-330.637"/>
</g>
<!-- Node2 -->
<g id="node3" class="node"><title>Node2</title>
<g id="a_node3"><a xlink:href="../../d4/d0d/interfacecom_1_1github_1_1aptd_1_1simulation_1_1elements_1_1IPerceiveable.htm" target="_top" xlink:title="any object which be perceived by an agent ">
<polygon fill="none" stroke="black" points="22,-505 22,-579 190,-579 190,-505 22,-505"/>
<text text-anchor="start" x="30" y="-567.8" font-family="Helvetica,sans-Serif" font-size="9.00">com.github.aptd.simulation.elements.</text>
<text text-anchor="middle" x="106" y="-557.8" font-family="Helvetica,sans-Serif" font-size="9.00">IPerceiveable</text>
<polyline fill="none" stroke="black" points="22,-551 190,-551 "/>
<text text-anchor="middle" x="106" y="-539.8" font-family="Helvetica,sans-Serif" font-size="9.00"> </text>
<polyline fill="none" stroke="black" points="22,-533 190,-533 "/>
<text text-anchor="start" x="30" y="-521.8" font-family="Helvetica,sans-Serif" font-size="9.00">+ literal()</text>
<text text-anchor="start" x="30" y="-511.8" font-family="Helvetica,sans-Serif" font-size="9.00">+ literal()</text>
</a>
</g>
</g>
<!-- Node2&#45;&gt;Node1 -->
<g id="edge2" class="edge"><title>Node2&#45;&gt;Node1</title>
<path fill="none" stroke="midnightblue" d="M106,-494.35C106,-484.963 106,-474.963 106,-465.166"/>
<polygon fill="none" stroke="midnightblue" points="102.5,-494.646 106,-504.646 109.5,-494.646 102.5,-494.646"/>
</g>
<!-- Node4 -->
<g id="node5" class="node"><title>Node4</title>
<g id="a_node5"><a xlink:href="../../dc/d6c/classcom_1_1github_1_1aptd_1_1simulation_1_1elements_1_1dispatcher_1_1CDispatcher.htm" target="_top" xlink:title="dispatcher ">
<polygon fill="none" stroke="black" points="-0.5,-1 -0.5,-85 212.5,-85 212.5,-1 -0.5,-1"/>
<text text-anchor="start" x="7.5" y="-73.8" font-family="Helvetica,sans-Serif" font-size="9.00">com.github.aptd.simulation.elements.dispatcher.</text>
<text text-anchor="middle" x="106" y="-63.8" font-family="Helvetica,sans-Serif" font-size="9.00">CDispatcher</text>
<polyline fill="none" stroke="black" points="-0.5,-57 212.5,-57 "/>
<text text-anchor="start" x="7.5" y="-45.8" font-family="Helvetica,sans-Serif" font-size="9.00">&#45; FUNCTOR</text>
<text text-anchor="start" x="7.5" y="-35.8" font-family="Helvetica,sans-Serif" font-size="9.00">&#45; serialVersionUID</text>
<polyline fill="none" stroke="black" points="-0.5,-29 212.5,-29 "/>
<text text-anchor="start" x="7.5" y="-17.8" font-family="Helvetica,sans-Serif" font-size="9.00"># individualliteral()</text>
<text text-anchor="start" x="7.5" y="-7.8" font-family="Helvetica,sans-Serif" font-size="9.00">&#45; CDispatcher()</text>
</a>
</g>
</g>
<!-- Node3&#45;&gt;Node4 -->
<g id="edge4" class="edge"><title>Node3&#45;&gt;Node4</title>
<path fill="none" stroke="midnightblue" d="M106,-114.638C106,-104.991 106,-94.721 106,-85.0861"/>
<polygon fill="none" stroke="midnightblue" points="102.5,-114.802 106,-124.802 109.5,-114.802 102.5,-114.802"/>
</g>
</g>
</svg>
