<?xml version="1.0" encoding="UTF-8" standalone="no"?>
<!DOCTYPE svg PUBLIC "-//W3C//DTD SVG 1.1//EN"
 "http://www.w3.org/Graphics/SVG/1.1/DTD/svg11.dtd">
<!-- Generated by graphviz version 2.36.0 (20140111.2315)
 -->
<!-- Title: com.github.aptd.simulation.elements.dispatcher.CDispatcher.CGenerator.generate Pages: 1 -->
<svg width="472pt" height="83pt"
 viewBox="0.00 0.00 472.00 83.00" xmlns="http://www.w3.org/2000/svg" xmlns:xlink="http://www.w3.org/1999/xlink">
<g id="graph0" class="graph" transform="scale(1 1) rotate(0) translate(4 79)">
<title>com.github.aptd.simulation.elements.dispatcher.CDispatcher.CGenerator.generate</title>
<!-- Node2 -->
<g id="node1" class="node"><title>Node2</title>
<polygon fill="#bfbfbf" stroke="black" points="0.5,-23 0.5,-51 213.5,-51 213.5,-23 0.5,-23"/>
<text text-anchor="start" x="8.5" y="-39.8" font-family="Helvetica,sans-Serif" font-size="9.00">com.github.aptd.simulation.elements.dispatcher.</text>
<text text-anchor="middle" x="107" y="-29.8" font-family="Helvetica,sans-Serif" font-size="9.00">CDispatcher.CGenerator.generate</text>
</g>
<!-- Node3 -->
<g id="node2" class="node"><title>Node3</title>
<g id="a_node2"><a xlink:href="../../dc/d6c/classcom_1_1github_1_1aptd_1_1simulation_1_1elements_1_1dispatcher_1_1CDispatcher.htm#a2fc93b367654d7db6f972dae693ea181" target="_top" xlink:title="ctor ">
<polygon fill="none" stroke="black" points="250.5,-47 250.5,-75 463.5,-75 463.5,-47 250.5,-47"/>
<text text-anchor="start" x="258.5" y="-63.8" font-family="Helvetica,sans-Serif" font-size="9.00">com.github.aptd.simulation.elements.dispatcher.</text>
<text text-anchor="middle" x="357" y="-53.8" font-family="Helvetica,sans-Serif" font-size="9.00">CDispatcher.CDispatcher</text>
</a>
</g>
</g>
<!-- Node2&#45;&gt;Node3 -->
<g id="edge1" class="edge"><title>Node2&#45;&gt;Node3</title>
<path fill="none" stroke="midnightblue" d="M213.534,-47.213C222.346,-48.0658 231.286,-48.9309 240.169,-49.7906"/>
<polygon fill="midnightblue" stroke="midnightblue" points="239.875,-53.2783 250.165,-50.7579 240.549,-46.3109 239.875,-53.2783"/>
</g>
<!-- Node4 -->
<g id="node3" class="node"><title>Node4</title>
<g id="a_node3"><a xlink:href="../../d6/df3/classcom_1_1github_1_1aptd_1_1simulation_1_1elements_1_1IBaseElement.htm#afeec4942d2aaeefe84d338c59bd0b00d" target="_top" xlink:title="com.github.aptd.simulation.elements.\lIBaseElement.toString">
<polygon fill="none" stroke="black" points="273,-0 273,-28 441,-28 441,-0 273,-0"/>
<text text-anchor="start" x="281" y="-16.8" font-family="Helvetica,sans-Serif" font-size="9.00">com.github.aptd.simulation.elements.</text>
<text text-anchor="middle" x="357" y="-6.8" font-family="Helvetica,sans-Serif" font-size="9.00">IBaseElement.toString</text>
</a>
</g>
</g>
<!-- Node2&#45;&gt;Node4 -->
<g id="edge2" class="edge"><title>Node2&#45;&gt;Node4</title>
<path fill="none" stroke="midnightblue" d="M213.534,-27.2126C229.756,-25.7081 246.409,-24.1637 262.349,-22.6854"/>
<polygon fill="midnightblue" stroke="midnightblue" points="263.075,-26.1331 272.709,-21.7245 262.429,-19.163 263.075,-26.1331"/>
</g>
</g>
</svg>
