<?xml version="1.0" encoding="UTF-8" standalone="no"?>
<!DOCTYPE svg PUBLIC "-//W3C//DTD SVG 1.1//EN"
 "http://www.w3.org/Graphics/SVG/1.1/DTD/svg11.dtd">
<!-- Generated by graphviz version 2.36.0 (20140111.2315)
 -->
<!-- Title: com.github.aptd.simulation.core.experiment.IExperiment.objects Pages: 1 -->
<svg width="460pt" height="83pt"
 viewBox="0.00 0.00 460.00 83.00" xmlns="http://www.w3.org/2000/svg" xmlns:xlink="http://www.w3.org/1999/xlink">
<g id="graph0" class="graph" transform="scale(1 1) rotate(0) translate(4 79)">
<title>com.github.aptd.simulation.core.experiment.IExperiment.objects</title>
<!-- Node10 -->
<g id="node1" class="node"><title>Node10</title>
<polygon fill="#bfbfbf" stroke="black" points="0.5,-23 0.5,-51 197.5,-51 197.5,-23 0.5,-23"/>
<text text-anchor="start" x="8.5" y="-39.8" font-family="Helvetica,sans-Serif" font-size="9.00">com.github.aptd.simulation.core.experiment.</text>
<text text-anchor="middle" x="99" y="-29.8" font-family="Helvetica,sans-Serif" font-size="9.00">IExperiment.objects</text>
</g>
<!-- Node11 -->
<g id="node2" class="node"><title>Node11</title>
<g id="a_node2"><a xlink:href="../../d7/dff/classcom_1_1github_1_1aptd_1_1simulation_1_1core_1_1messaging_1_1local_1_1CMessenger.htm#a99ef8a4e15512a25f73ed7b0f34e4368" target="_top" xlink:title="asks agents for output messages and delivers them to the target agents ">
<polygon fill="none" stroke="black" points="234,-47 234,-75 452,-75 452,-47 234,-47"/>
<text text-anchor="start" x="242" y="-63.8" font-family="Helvetica,sans-Serif" font-size="9.00">com.github.aptd.simulation.core.messaging.local.</text>
<text text-anchor="middle" x="343" y="-53.8" font-family="Helvetica,sans-Serif" font-size="9.00">CMessenger.call</text>
</a>
</g>
</g>
<!-- Node10&#45;&gt;Node11 -->
<g id="edge1" class="edge"><title>Node10&#45;&gt;Node11</title>
<path fill="none" stroke="midnightblue" d="M207.869,-47.6977C216.548,-48.5585 225.318,-49.4283 233.998,-50.2891"/>
<polygon fill="midnightblue" stroke="midnightblue" points="208.03,-44.1966 197.733,-46.6925 207.339,-51.1624 208.03,-44.1966"/>
</g>
<!-- Node12 -->
<g id="node3" class="node"><title>Node12</title>
<g id="a_node3"><a xlink:href="../../d8/d22/classcom_1_1github_1_1aptd_1_1simulation_1_1core_1_1runtime_1_1local_1_1CRuntime.htm#ab946068ff54d30ff5762763784580083" target="_top" xlink:title="execute experiment ">
<polygon fill="none" stroke="black" points="241.5,-0 241.5,-28 444.5,-28 444.5,-0 241.5,-0"/>
<text text-anchor="start" x="249.5" y="-16.8" font-family="Helvetica,sans-Serif" font-size="9.00">com.github.aptd.simulation.core.runtime.local.</text>
<text text-anchor="middle" x="343" y="-6.8" font-family="Helvetica,sans-Serif" font-size="9.00">CRuntime.execute</text>
</a>
</g>
</g>
<!-- Node10&#45;&gt;Node12 -->
<g id="edge2" class="edge"><title>Node10&#45;&gt;Node12</title>
<path fill="none" stroke="midnightblue" d="M207.85,-26.7498C218.924,-25.6973 230.146,-24.6307 241.14,-23.5858"/>
<polygon fill="midnightblue" stroke="midnightblue" points="207.357,-23.2808 197.733,-27.7113 208.019,-30.2494 207.357,-23.2808"/>
</g>
</g>
</svg>
