<?xml version="1.0" encoding="UTF-8" standalone="no"?>
<!DOCTYPE svg PUBLIC "-//W3C//DTD SVG 1.1//EN"
 "http://www.w3.org/Graphics/SVG/1.1/DTD/svg11.dtd">
<!-- Generated by graphviz version 2.36.0 (20140111.2315)
 -->
<!-- Title: com.github.aptd.simulation.core.experiment.IExperiment.addAgent Pages: 1 -->
<svg width="706pt" height="36pt"
 viewBox="0.00 0.00 706.00 36.00" xmlns="http://www.w3.org/2000/svg" xmlns:xlink="http://www.w3.org/1999/xlink">
<g id="graph0" class="graph" transform="scale(1 1) rotate(0) translate(4 32)">
<title>com.github.aptd.simulation.core.experiment.IExperiment.addAgent</title>
<!-- Node3 -->
<g id="node1" class="node"><title>Node3</title>
<polygon fill="#bfbfbf" stroke="black" points="0.5,-0 0.5,-28 197.5,-28 197.5,-0 0.5,-0"/>
<text text-anchor="start" x="8.5" y="-16.8" font-family="Helvetica,sans-Serif" font-size="9.00">com.github.aptd.simulation.core.experiment.</text>
<text text-anchor="middle" x="99" y="-6.8" font-family="Helvetica,sans-Serif" font-size="9.00">IExperiment.addAgent</text>
</g>
<!-- Node4 -->
<g id="node2" class="node"><title>Node4</title>
<g id="a_node2"><a xlink:href="../../d3/d24/classcom_1_1github_1_1aptd_1_1simulation_1_1elements_1_1passenger_1_1CPassengerSource.htm#a9b715cf2c3aa560d7903122056f2846c" target="_top" xlink:title="com.github.aptd.simulation.elements.passenger.\lCPassengerSource.generatepassenger">
<polygon fill="none" stroke="black" points="234,-0 234,-28 448,-28 448,-0 234,-0"/>
<text text-anchor="start" x="242" y="-16.8" font-family="Helvetica,sans-Serif" font-size="9.00">com.github.aptd.simulation.elements.passenger.</text>
<text text-anchor="middle" x="341" y="-6.8" font-family="Helvetica,sans-Serif" font-size="9.00">CPassengerSource.generatepassenger</text>
</a>
</g>
</g>
<!-- Node3&#45;&gt;Node4 -->
<g id="edge1" class="edge"><title>Node3&#45;&gt;Node4</title>
<path fill="none" stroke="midnightblue" d="M207.753,-14C216.43,-14 225.193,-14 233.859,-14"/>
<polygon fill="midnightblue" stroke="midnightblue" points="207.617,-10.5001 197.617,-14 207.617,-17.5001 207.617,-10.5001"/>
</g>
<!-- Node5 -->
<g id="node3" class="node"><title>Node5</title>
<g id="a_node3"><a xlink:href="../../d3/d24/classcom_1_1github_1_1aptd_1_1simulation_1_1elements_1_1passenger_1_1CPassengerSource.htm#a0cfcd5b618729985ded35c5f34ff0f2c" target="_top" xlink:title="com.github.aptd.simulation.elements.passenger.\lCPassengerSource.updatestate">
<polygon fill="none" stroke="black" points="484,-0 484,-28 698,-28 698,-0 484,-0"/>
<text text-anchor="start" x="492" y="-16.8" font-family="Helvetica,sans-Serif" font-size="9.00">com.github.aptd.simulation.elements.passenger.</text>
<text text-anchor="middle" x="591" y="-6.8" font-family="Helvetica,sans-Serif" font-size="9.00">CPassengerSource.updatestate</text>
</a>
</g>
</g>
<!-- Node4&#45;&gt;Node5 -->
<g id="edge2" class="edge"><title>Node4&#45;&gt;Node5</title>
<path fill="none" stroke="midnightblue" d="M458.279,-14C466.847,-14 475.465,-14 483.967,-14"/>
<polygon fill="midnightblue" stroke="midnightblue" points="458.254,-10.5001 448.254,-14 458.254,-17.5001 458.254,-10.5001"/>
</g>
</g>
</svg>
