<?xml version="1.0" encoding="UTF-8" standalone="no"?>
<!DOCTYPE svg PUBLIC "-//W3C//DTD SVG 1.1//EN"
 "http://www.w3.org/Graphics/SVG/1.1/DTD/svg11.dtd">
<!-- Generated by graphviz version 2.36.0 (20140111.2315)
 -->
<!-- Title: com.github.aptd.simulation.elements.graph.network.ITrack&lt; T extends ITrack&lt;?&gt; Pages: 1 -->
<svg width="295pt" height="348pt"
 viewBox="0.00 0.00 295.00 348.00" xmlns="http://www.w3.org/2000/svg" xmlns:xlink="http://www.w3.org/1999/xlink">
<g id="graph0" class="graph" transform="scale(1 1) rotate(0) translate(4 344)">
<title>com.github.aptd.simulation.elements.graph.network.ITrack&lt; T extends ITrack&lt;?&gt;</title>
<!-- Node6 -->
<g id="node1" class="node"><title>Node6</title>
<polygon fill="#bfbfbf" stroke="black" points="20.5,-1 20.5,-65 249.5,-65 249.5,-1 20.5,-1"/>
<text text-anchor="start" x="28.5" y="-53.8" font-family="Helvetica,sans-Serif" font-size="9.00">com.github.aptd.simulation.elements.graph.network.</text>
<text text-anchor="middle" x="135" y="-43.8" font-family="Helvetica,sans-Serif" font-size="9.00">ITrack&lt; T extends ITrack&lt;?&gt;</text>
<polyline fill="none" stroke="black" points="20.5,-37 249.5,-37 "/>
<text text-anchor="middle" x="135" y="-25.8" font-family="Helvetica,sans-Serif" font-size="9.00"> </text>
<polyline fill="none" stroke="black" points="20.5,-19 249.5,-19 "/>
<text text-anchor="middle" x="135" y="-7.8" font-family="Helvetica,sans-Serif" font-size="9.00"> </text>
</g>
<!-- Node7 -->
<g id="node2" class="node"><title>Node7</title>
<g id="a_node2"><a xlink:href="../../d1/d9f/interfacecom_1_1github_1_1aptd_1_1simulation_1_1elements_1_1graph_1_1IEdge.htm" target="_top" xlink:title="interface of edges ">
<polygon fill="none" stroke="black" points="-0.5,-123 -0.5,-207 134.5,-207 134.5,-123 -0.5,-123"/>
<text text-anchor="start" x="7.5" y="-195.8" font-family="Helvetica,sans-Serif" font-size="9.00">com::github::aptd::</text>
<text text-anchor="start" x="7.5" y="-185.8" font-family="Helvetica,sans-Serif" font-size="9.00">simulation::elements</text>
<text text-anchor="middle" x="67" y="-175.8" font-family="Helvetica,sans-Serif" font-size="9.00">::graph::IEdge&lt; IStation&lt;?&gt; &gt;</text>
<polyline fill="none" stroke="black" points="-0.5,-169 134.5,-169 "/>
<text text-anchor="middle" x="67" y="-157.8" font-family="Helvetica,sans-Serif" font-size="9.00"> </text>
<polyline fill="none" stroke="black" points="-0.5,-151 134.5,-151 "/>
<text text-anchor="start" x="7.5" y="-139.8" font-family="Helvetica,sans-Serif" font-size="9.00">+ from()</text>
<text text-anchor="start" x="7.5" y="-129.8" font-family="Helvetica,sans-Serif" font-size="9.00">+ to()</text>
</a>
</g>
</g>
<!-- Node7&#45;&gt;Node6 -->
<g id="edge1" class="edge"><title>Node7&#45;&gt;Node6</title>
<path fill="none" stroke="midnightblue" d="M93.1766,-113.957C101.722,-97.6197 110.965,-79.9501 118.582,-65.3865"/>
<polygon fill="none" stroke="midnightblue" points="90.0493,-112.384 88.5156,-122.867 96.252,-115.628 90.0493,-112.384"/>
</g>
<!-- Node8 -->
<g id="node3" class="node"><title>Node8</title>
<g id="a_node3"><a xlink:href="../../dd/dd7/interfacecom_1_1github_1_1aptd_1_1simulation_1_1elements_1_1IElement.htm" target="_top" xlink:title="any object interface ">
<polygon fill="none" stroke="black" points="152.5,-103 152.5,-227 253.5,-227 253.5,-103 152.5,-103"/>
<text text-anchor="start" x="160.5" y="-215.8" font-family="Helvetica,sans-Serif" font-size="9.00">com::github::aptd::</text>
<text text-anchor="start" x="160.5" y="-205.8" font-family="Helvetica,sans-Serif" font-size="9.00">simulation::elements</text>
<text text-anchor="middle" x="203" y="-195.8" font-family="Helvetica,sans-Serif" font-size="9.00">::IElement&lt; T &gt;</text>
<polyline fill="none" stroke="black" points="152.5,-189 253.5,-189 "/>
<text text-anchor="middle" x="203" y="-177.8" font-family="Helvetica,sans-Serif" font-size="9.00"> </text>
<polyline fill="none" stroke="black" points="152.5,-171 253.5,-171 "/>
<text text-anchor="start" x="160.5" y="-159.8" font-family="Helvetica,sans-Serif" font-size="9.00">+ environment()</text>
<text text-anchor="start" x="160.5" y="-149.8" font-family="Helvetica,sans-Serif" font-size="9.00">+ id()</text>
<text text-anchor="start" x="160.5" y="-139.8" font-family="Helvetica,sans-Serif" font-size="9.00">+ imminent()</text>
<text text-anchor="start" x="160.5" y="-129.8" font-family="Helvetica,sans-Serif" font-size="9.00">+ input()</text>
<text text-anchor="start" x="160.5" y="-119.8" font-family="Helvetica,sans-Serif" font-size="9.00">+ nextactivation()</text>
<text text-anchor="start" x="160.5" y="-109.8" font-family="Helvetica,sans-Serif" font-size="9.00">+ output()</text>
</a>
</g>
</g>
<!-- Node8&#45;&gt;Node6 -->
<g id="edge2" class="edge"><title>Node8&#45;&gt;Node6</title>
<path fill="none" stroke="midnightblue" d="M166.352,-93.9369C161.083,-83.8636 155.899,-73.9535 151.311,-65.1822"/>
<polygon fill="none" stroke="midnightblue" points="163.255,-95.5679 170.991,-102.807 169.457,-92.3234 163.255,-95.5679"/>
</g>
<!-- Node9 -->
<g id="node4" class="node"><title>Node9</title>
<g id="a_node4"><a xlink:href="../../d4/d0d/interfacecom_1_1github_1_1aptd_1_1simulation_1_1elements_1_1IPerceiveable.htm" target="_top" xlink:title="any object which be perceived by an agent ">
<polygon fill="none" stroke="black" points="119,-265 119,-339 287,-339 287,-265 119,-265"/>
<text text-anchor="start" x="127" y="-327.8" font-family="Helvetica,sans-Serif" font-size="9.00">com.github.aptd.simulation.elements.</text>
<text text-anchor="middle" x="203" y="-317.8" font-family="Helvetica,sans-Serif" font-size="9.00">IPerceiveable</text>
<polyline fill="none" stroke="black" points="119,-311 287,-311 "/>
<text text-anchor="middle" x="203" y="-299.8" font-family="Helvetica,sans-Serif" font-size="9.00"> </text>
<polyline fill="none" stroke="black" points="119,-293 287,-293 "/>
<text text-anchor="start" x="127" y="-281.8" font-family="Helvetica,sans-Serif" font-size="9.00">+ literal()</text>
<text text-anchor="start" x="127" y="-271.8" font-family="Helvetica,sans-Serif" font-size="9.00">+ literal()</text>
</a>
</g>
</g>
<!-- Node9&#45;&gt;Node8 -->
<g id="edge3" class="edge"><title>Node9&#45;&gt;Node8</title>
<path fill="none" stroke="midnightblue" d="M203,-254.667C203,-245.767 203,-236.32 203,-227.037"/>
<polygon fill="none" stroke="midnightblue" points="199.5,-254.822 203,-264.822 206.5,-254.823 199.5,-254.822"/>
</g>
</g>
</svg>
