<?xml version="1.0" encoding="UTF-8" standalone="no"?>
<!DOCTYPE svg PUBLIC "-//W3C//DTD SVG 1.1//EN"
 "http://www.w3.org/Graphics/SVG/1.1/DTD/svg11.dtd">
<!-- Generated by graphviz version 2.36.0 (20140111.2315)
 -->
<!-- Title: com.github.aptd.simulation.elements.graph.TestCNetwork.main Pages: 1 -->
<svg width="694pt" height="83pt"
 viewBox="0.00 0.00 694.00 83.00" xmlns="http://www.w3.org/2000/svg" xmlns:xlink="http://www.w3.org/1999/xlink">
<g id="graph0" class="graph" transform="scale(1 1) rotate(0) translate(4 79)">
<title>com.github.aptd.simulation.elements.graph.TestCNetwork.main</title>
<!-- Node4 -->
<g id="node1" class="node"><title>Node4</title>
<polygon fill="#bfbfbf" stroke="black" points="0,-23 0,-51 194,-51 194,-23 0,-23"/>
<text text-anchor="start" x="8" y="-39.8" font-family="Helvetica,sans-Serif" font-size="9.00">com.github.aptd.simulation.elements.graph.</text>
<text text-anchor="middle" x="97" y="-29.8" font-family="Helvetica,sans-Serif" font-size="9.00">TestCNetwork.main</text>
</g>
<!-- Node5 -->
<g id="node2" class="node"><title>Node5</title>
<g id="a_node2"><a xlink:href="../../d4/dc9/classcom_1_1github_1_1aptd_1_1simulation_1_1IBaseTest.htm#ab3237f9bb8076564b27d826fc87f2eba" target="_top" xlink:title="invoke all test manually ">
<polygon fill="none" stroke="black" points="230,-23 230,-51 358,-51 358,-23 230,-23"/>
<text text-anchor="start" x="238" y="-39.8" font-family="Helvetica,sans-Serif" font-size="9.00">com.github.aptd.simulation.</text>
<text text-anchor="middle" x="294" y="-29.8" font-family="Helvetica,sans-Serif" font-size="9.00">IBaseTest.invoketest</text>
</a>
</g>
</g>
<!-- Node4&#45;&gt;Node5 -->
<g id="edge1" class="edge"><title>Node4&#45;&gt;Node5</title>
<path fill="none" stroke="midnightblue" d="M194.072,-37C202.683,-37 211.31,-37 219.683,-37"/>
<polygon fill="midnightblue" stroke="midnightblue" points="219.751,-40.5001 229.751,-37 219.751,-33.5001 219.751,-40.5001"/>
</g>
<!-- Node6 -->
<g id="node3" class="node"><title>Node6</title>
<g id="a_node3"><a xlink:href="../../d4/dc9/classcom_1_1github_1_1aptd_1_1simulation_1_1IBaseTest.htm#a31663408cbcf342515843efb5b5c3b4c" target="_top" xlink:title="reads the before annotated methods ">
<polygon fill="none" stroke="black" points="394,-47 394,-75 522,-75 522,-47 394,-47"/>
<text text-anchor="start" x="402" y="-63.8" font-family="Helvetica,sans-Serif" font-size="9.00">com.github.aptd.simulation.</text>
<text text-anchor="middle" x="458" y="-53.8" font-family="Helvetica,sans-Serif" font-size="9.00">IBaseTest.before</text>
</a>
</g>
</g>
<!-- Node5&#45;&gt;Node6 -->
<g id="edge2" class="edge"><title>Node5&#45;&gt;Node6</title>
<path fill="none" stroke="midnightblue" d="M358.097,-46.3477C366.526,-47.5965 375.227,-48.8855 383.81,-50.1571"/>
<polygon fill="midnightblue" stroke="midnightblue" points="383.403,-53.6349 393.808,-51.6383 384.429,-46.7105 383.403,-53.6349"/>
</g>
<!-- Node7 -->
<g id="node4" class="node"><title>Node7</title>
<g id="a_node4"><a xlink:href="../../d4/dc9/classcom_1_1github_1_1aptd_1_1simulation_1_1IBaseTest.htm#a09399600ba55ef5c7d750f436f7bd45a" target="_top" xlink:title="invoke method and read if possible the data&#45;provider ">
<polygon fill="none" stroke="black" points="394,-0 394,-28 522,-28 522,-0 394,-0"/>
<text text-anchor="start" x="402" y="-16.8" font-family="Helvetica,sans-Serif" font-size="9.00">com.github.aptd.simulation.</text>
<text text-anchor="middle" x="458" y="-6.8" font-family="Helvetica,sans-Serif" font-size="9.00">IBaseTest.invoke</text>
</a>
</g>
</g>
<!-- Node5&#45;&gt;Node7 -->
<g id="edge3" class="edge"><title>Node5&#45;&gt;Node7</title>
<path fill="none" stroke="midnightblue" d="M358.097,-28.0417C366.526,-26.8451 375.227,-25.6097 383.81,-24.3911"/>
<polygon fill="midnightblue" stroke="midnightblue" points="384.4,-27.8426 393.808,-22.9716 383.416,-20.9121 384.4,-27.8426"/>
</g>
<!-- Node8 -->
<g id="node5" class="node"><title>Node8</title>
<g id="a_node5"><a xlink:href="../../d4/dc9/classcom_1_1github_1_1aptd_1_1simulation_1_1IBaseTest.htm#aee91488ea8c53da930eec6984a1a8626" target="_top" xlink:title="invokes the method within the current object context ">
<polygon fill="none" stroke="black" points="558,-0 558,-28 686,-28 686,-0 558,-0"/>
<text text-anchor="start" x="566" y="-16.8" font-family="Helvetica,sans-Serif" font-size="9.00">com.github.aptd.simulation.</text>
<text text-anchor="middle" x="622" y="-6.8" font-family="Helvetica,sans-Serif" font-size="9.00">IBaseTest.execute</text>
</a>
</g>
</g>
<!-- Node7&#45;&gt;Node8 -->
<g id="edge4" class="edge"><title>Node7&#45;&gt;Node8</title>
<path fill="none" stroke="midnightblue" d="M522.097,-14C530.435,-14 539.038,-14 547.53,-14"/>
<polygon fill="midnightblue" stroke="midnightblue" points="547.808,-17.5001 557.808,-14 547.808,-10.5001 547.808,-17.5001"/>
</g>
</g>
</svg>
