<?xml version="1.0" encoding="UTF-8" standalone="no"?>
<!DOCTYPE svg PUBLIC "-//W3C//DTD SVG 1.1//EN"
 "http://www.w3.org/Graphics/SVG/1.1/DTD/svg11.dtd">
<!-- Generated by graphviz version 2.36.0 (20140111.2315)
 -->
<!-- Title: com.github.aptd.simulation.elements.graph.TestCNetwork.ininitialize Pages: 1 -->
<svg width="404pt" height="83pt"
 viewBox="0.00 0.00 404.00 83.00" xmlns="http://www.w3.org/2000/svg" xmlns:xlink="http://www.w3.org/1999/xlink">
<g id="graph0" class="graph" transform="scale(1 1) rotate(0) translate(4 79)">
<title>com.github.aptd.simulation.elements.graph.TestCNetwork.ininitialize</title>
<!-- Node0 -->
<g id="node1" class="node"><title>Node0</title>
<polygon fill="#bfbfbf" stroke="black" points="0,-23 0,-51 194,-51 194,-23 0,-23"/>
<text text-anchor="start" x="8" y="-39.8" font-family="Helvetica,sans-Serif" font-size="9.00">com.github.aptd.simulation.elements.graph.</text>
<text text-anchor="middle" x="97" y="-29.8" font-family="Helvetica,sans-Serif" font-size="9.00">TestCNetwork.ininitialize</text>
</g>
<!-- Node1 -->
<g id="node2" class="node"><title>Node1</title>
<g id="a_node2"><a xlink:href="../../da/d54/classcom_1_1github_1_1aptd_1_1simulation_1_1common_1_1CConfiguration.htm#a724044da439fad76c63c6d37497e8eba" target="_top" xlink:title="returns a set with all agent actions ">
<polygon fill="none" stroke="black" points="230,-47 230,-75 396,-75 396,-47 230,-47"/>
<text text-anchor="start" x="238" y="-63.8" font-family="Helvetica,sans-Serif" font-size="9.00">com.github.aptd.simulation.common.</text>
<text text-anchor="middle" x="313" y="-53.8" font-family="Helvetica,sans-Serif" font-size="9.00">CConfiguration.agentaction</text>
</a>
</g>
</g>
<!-- Node0&#45;&gt;Node1 -->
<g id="edge1" class="edge"><title>Node0&#45;&gt;Node1</title>
<path fill="none" stroke="midnightblue" d="M194.045,-47.7714C202.671,-48.7388 211.392,-49.7168 219.981,-50.6802"/>
<polygon fill="midnightblue" stroke="midnightblue" points="219.663,-54.1663 229.991,-51.8027 220.444,-47.2099 219.663,-54.1663"/>
</g>
<!-- Node2 -->
<g id="node3" class="node"><title>Node2</title>
<g id="a_node3"><a xlink:href="../../da/d54/classcom_1_1github_1_1aptd_1_1simulation_1_1common_1_1CConfiguration.htm#afcb3974c00e85d5556e888e440183445" target="_top" xlink:title="loads the configuration from a string ">
<polygon fill="none" stroke="black" points="230,-0 230,-28 396,-28 396,-0 230,-0"/>
<text text-anchor="start" x="238" y="-16.8" font-family="Helvetica,sans-Serif" font-size="9.00">com.github.aptd.simulation.common.</text>
<text text-anchor="middle" x="313" y="-6.8" font-family="Helvetica,sans-Serif" font-size="9.00">CConfiguration.loadstring</text>
</a>
</g>
</g>
<!-- Node0&#45;&gt;Node2 -->
<g id="edge2" class="edge"><title>Node0&#45;&gt;Node2</title>
<path fill="none" stroke="midnightblue" d="M194.045,-26.6774C202.671,-25.7504 211.392,-24.813 219.981,-23.8898"/>
<polygon fill="midnightblue" stroke="midnightblue" points="220.422,-27.3627 229.991,-22.814 219.674,-20.4028 220.422,-27.3627"/>
</g>
</g>
</svg>
