<?xml version="1.0" encoding="UTF-8" standalone="no"?>
<!DOCTYPE svg PUBLIC "-//W3C//DTD SVG 1.1//EN"
 "http://www.w3.org/Graphics/SVG/1.1/DTD/svg11.dtd">
<!-- Generated by graphviz version 2.36.0 (20140111.2315)
 -->
<!-- Title: com.github.aptd.simulation.elements.passenger.IPassenger&lt; T extends IPassenger&lt;?&gt; Pages: 1 -->
<svg width="220pt" height="788pt"
 viewBox="0.00 0.00 220.00 788.00" xmlns="http://www.w3.org/2000/svg" xmlns:xlink="http://www.w3.org/1999/xlink">
<g id="graph0" class="graph" transform="scale(1 1) rotate(0) translate(4 784)">
<title>com.github.aptd.simulation.elements.passenger.IPassenger&lt; T extends IPassenger&lt;?&gt;</title>
<!-- Node0 -->
<g id="node1" class="node"><title>Node0</title>
<polygon fill="#bfbfbf" stroke="black" points="-1,-437 -1,-501 213,-501 213,-437 -1,-437"/>
<text text-anchor="start" x="7" y="-489.8" font-family="Helvetica,sans-Serif" font-size="9.00">com.github.aptd.simulation.elements.passenger.</text>
<text text-anchor="middle" x="106" y="-479.8" font-family="Helvetica,sans-Serif" font-size="9.00">IPassenger&lt; T extends IPassenger&lt;?&gt;</text>
<polyline fill="none" stroke="black" points="-1,-473 213,-473 "/>
<text text-anchor="middle" x="106" y="-461.8" font-family="Helvetica,sans-Serif" font-size="9.00"> </text>
<polyline fill="none" stroke="black" points="-1,-455 213,-455 "/>
<text text-anchor="middle" x="106" y="-443.8" font-family="Helvetica,sans-Serif" font-size="9.00"> </text>
</g>
<!-- Node3 -->
<g id="node4" class="node"><title>Node3</title>
<g id="a_node4"><a xlink:href="../../da/d4e/interfacecom_1_1github_1_1aptd_1_1simulation_1_1elements_1_1passenger_1_1IPassenger.htm" target="_top" xlink:title="{com.github.aptd.simulation.elements.passenger.\lIPassenger\&lt; IPassenger\&lt;?\&gt; \&gt;\n||}">
<polygon fill="none" stroke="black" points="-1,-325 -1,-389 213,-389 213,-325 -1,-325"/>
<text text-anchor="start" x="7" y="-377.8" font-family="Helvetica,sans-Serif" font-size="9.00">com.github.aptd.simulation.elements.passenger.</text>
<text text-anchor="middle" x="106" y="-367.8" font-family="Helvetica,sans-Serif" font-size="9.00">IPassenger&lt; IPassenger&lt;?&gt; &gt;</text>
<polyline fill="none" stroke="black" points="-1,-361 213,-361 "/>
<text text-anchor="middle" x="106" y="-349.8" font-family="Helvetica,sans-Serif" font-size="9.00"> </text>
<polyline fill="none" stroke="black" points="-1,-343 213,-343 "/>
<text text-anchor="middle" x="106" y="-331.8" font-family="Helvetica,sans-Serif" font-size="9.00"> </text>
</a>
</g>
</g>
<!-- Node0&#45;&gt;Node3 -->
<g id="edge3" class="edge"><title>Node0&#45;&gt;Node3</title>
<path fill="none" stroke="orange" d="M106,-426.667C106,-414.289 106,-400.925 106,-389.305"/>
<polygon fill="orange" stroke="orange" points="102.5,-426.773 106,-436.773 109.5,-426.773 102.5,-426.773"/>
<text text-anchor="middle" x="146" y="-410.8" font-family="Helvetica,sans-Serif" font-size="9.00"> &lt; IPassenger&lt;?&gt; &gt;</text>
</g>
<!-- Node1 -->
<g id="node2" class="node"><title>Node1</title>
<g id="a_node2"><a xlink:href="../../dd/dd7/interfacecom_1_1github_1_1aptd_1_1simulation_1_1elements_1_1IElement.htm" target="_top" xlink:title="any object interface ">
<polygon fill="none" stroke="black" points="55.5,-541 55.5,-665 156.5,-665 156.5,-541 55.5,-541"/>
<text text-anchor="start" x="63.5" y="-653.8" font-family="Helvetica,sans-Serif" font-size="9.00">com::github::aptd::</text>
<text text-anchor="start" x="63.5" y="-643.8" font-family="Helvetica,sans-Serif" font-size="9.00">simulation::elements</text>
<text text-anchor="middle" x="106" y="-633.8" font-family="Helvetica,sans-Serif" font-size="9.00">::IElement&lt; T &gt;</text>
<polyline fill="none" stroke="black" points="55.5,-627 156.5,-627 "/>
<text text-anchor="middle" x="106" y="-615.8" font-family="Helvetica,sans-Serif" font-size="9.00"> </text>
<polyline fill="none" stroke="black" points="55.5,-609 156.5,-609 "/>
<text text-anchor="start" x="63.5" y="-597.8" font-family="Helvetica,sans-Serif" font-size="9.00">+ environment()</text>
<text text-anchor="start" x="63.5" y="-587.8" font-family="Helvetica,sans-Serif" font-size="9.00">+ id()</text>
<text text-anchor="start" x="63.5" y="-577.8" font-family="Helvetica,sans-Serif" font-size="9.00">+ imminent()</text>
<text text-anchor="start" x="63.5" y="-567.8" font-family="Helvetica,sans-Serif" font-size="9.00">+ input()</text>
<text text-anchor="start" x="63.5" y="-557.8" font-family="Helvetica,sans-Serif" font-size="9.00">+ nextactivation()</text>
<text text-anchor="start" x="63.5" y="-547.8" font-family="Helvetica,sans-Serif" font-size="9.00">+ output()</text>
</a>
</g>
</g>
<!-- Node1&#45;&gt;Node0 -->
<g id="edge1" class="edge"><title>Node1&#45;&gt;Node0</title>
<path fill="none" stroke="midnightblue" d="M106,-530.323C106,-520.034 106,-509.93 106,-501.021"/>
<polygon fill="none" stroke="midnightblue" points="102.5,-530.637 106,-540.637 109.5,-530.637 102.5,-530.637"/>
</g>
<!-- Node2 -->
<g id="node3" class="node"><title>Node2</title>
<g id="a_node3"><a xlink:href="../../d4/d0d/interfacecom_1_1github_1_1aptd_1_1simulation_1_1elements_1_1IPerceiveable.htm" target="_top" xlink:title="any object which be perceived by an agent ">
<polygon fill="none" stroke="black" points="22,-705 22,-779 190,-779 190,-705 22,-705"/>
<text text-anchor="start" x="30" y="-767.8" font-family="Helvetica,sans-Serif" font-size="9.00">com.github.aptd.simulation.elements.</text>
<text text-anchor="middle" x="106" y="-757.8" font-family="Helvetica,sans-Serif" font-size="9.00">IPerceiveable</text>
<polyline fill="none" stroke="black" points="22,-751 190,-751 "/>
<text text-anchor="middle" x="106" y="-739.8" font-family="Helvetica,sans-Serif" font-size="9.00"> </text>
<polyline fill="none" stroke="black" points="22,-733 190,-733 "/>
<text text-anchor="start" x="30" y="-721.8" font-family="Helvetica,sans-Serif" font-size="9.00">+ literal()</text>
<text text-anchor="start" x="30" y="-711.8" font-family="Helvetica,sans-Serif" font-size="9.00">+ literal()</text>
</a>
</g>
</g>
<!-- Node2&#45;&gt;Node1 -->
<g id="edge2" class="edge"><title>Node2&#45;&gt;Node1</title>
<path fill="none" stroke="midnightblue" d="M106,-694.35C106,-684.963 106,-674.963 106,-665.166"/>
<polygon fill="none" stroke="midnightblue" points="102.5,-694.646 106,-704.646 109.5,-694.646 102.5,-694.646"/>
</g>
<!-- Node4 -->
<g id="node5" class="node"><title>Node4</title>
<g id="a_node5"><a xlink:href="../../d7/da9/classcom_1_1github_1_1aptd_1_1simulation_1_1elements_1_1passenger_1_1CPassenger.htm" target="_top" xlink:title="passenger ">
<polygon fill="none" stroke="black" points="-1,-1 -1,-285 213,-285 213,-1 -1,-1"/>
<text text-anchor="start" x="7" y="-273.8" font-family="Helvetica,sans-Serif" font-size="9.00">com.github.aptd.simulation.elements.passenger.</text>
<text text-anchor="middle" x="106" y="-263.8" font-family="Helvetica,sans-Serif" font-size="9.00">CPassenger</text>
<polyline fill="none" stroke="black" points="-1,-257 213,-257 "/>
<text text-anchor="start" x="7" y="-245.8" font-family="Helvetica,sans-Serif" font-size="9.00">&#45; m_destination</text>
<text text-anchor="start" x="7" y="-235.8" font-family="Helvetica,sans-Serif" font-size="9.00">&#45; m_distancetonextplatform</text>
<text text-anchor="start" x="7" y="-225.8" font-family="Helvetica,sans-Serif" font-size="9.00">&#45; m_distancewalked</text>
<text text-anchor="start" x="7" y="-215.8" font-family="Helvetica,sans-Serif" font-size="9.00">&#45; m_door</text>
<text text-anchor="start" x="7" y="-205.8" font-family="Helvetica,sans-Serif" font-size="9.00">&#45; m_dooruse</text>
<text text-anchor="start" x="7" y="-195.8" font-family="Helvetica,sans-Serif" font-size="9.00">&#45; m_entranceduration</text>
<text text-anchor="start" x="7" y="-185.8" font-family="Helvetica,sans-Serif" font-size="9.00">&#45; m_exitduration</text>
<text text-anchor="start" x="7" y="-175.8" font-family="Helvetica,sans-Serif" font-size="9.00">&#45; m_itindex</text>
<text text-anchor="start" x="7" y="-165.8" font-family="Helvetica,sans-Serif" font-size="9.00">&#45; m_itinerary</text>
<text text-anchor="start" x="7" y="-155.8" font-family="Helvetica,sans-Serif" font-size="9.00">&#45; m_origin</text>
<text text-anchor="start" x="7" y="-145.8" font-family="Helvetica,sans-Serif" font-size="9.00">&#45; m_speedatstation</text>
<text text-anchor="start" x="7" y="-135.8" font-family="Helvetica,sans-Serif" font-size="9.00">&#45; m_state</text>
<text text-anchor="start" x="7" y="-125.8" font-family="Helvetica,sans-Serif" font-size="9.00">&#45; m_station</text>
<text text-anchor="start" x="7" y="-115.8" font-family="Helvetica,sans-Serif" font-size="9.00">&#45; m_train</text>
<text text-anchor="start" x="7" y="-105.8" font-family="Helvetica,sans-Serif" font-size="9.00">&#45; FUNCTOR</text>
<text text-anchor="start" x="7" y="-95.8" font-family="Helvetica,sans-Serif" font-size="9.00">&#45; serialVersionUID</text>
<polyline fill="none" stroke="black" points="-1,-89 213,-89 "/>
<text text-anchor="start" x="7" y="-77.8" font-family="Helvetica,sans-Serif" font-size="9.00"># determinenextstatechange()</text>
<text text-anchor="start" x="7" y="-67.8" font-family="Helvetica,sans-Serif" font-size="9.00"># individualliteral()</text>
<text text-anchor="start" x="7" y="-57.8" font-family="Helvetica,sans-Serif" font-size="9.00"># updatecontinuous()</text>
<text text-anchor="start" x="7" y="-47.8" font-family="Helvetica,sans-Serif" font-size="9.00"># updatestate()</text>
<text text-anchor="start" x="7" y="-37.8" font-family="Helvetica,sans-Serif" font-size="9.00"># writeState()</text>
<text text-anchor="start" x="7" y="-27.8" font-family="Helvetica,sans-Serif" font-size="9.00">&#45; CPassenger()</text>
<text text-anchor="start" x="7" y="-17.8" font-family="Helvetica,sans-Serif" font-size="9.00">&#45; handledoormessage()</text>
<text text-anchor="start" x="7" y="-7.8" font-family="Helvetica,sans-Serif" font-size="9.00">&#45; handleplatformmessages()</text>
</a>
</g>
</g>
<!-- Node3&#45;&gt;Node4 -->
<g id="edge4" class="edge"><title>Node3&#45;&gt;Node4</title>
<path fill="none" stroke="midnightblue" d="M106,-314.678C106,-305.709 106,-295.739 106,-285.251"/>
<polygon fill="none" stroke="midnightblue" points="102.5,-314.719 106,-324.719 109.5,-314.719 102.5,-314.719"/>
</g>
</g>
</svg>
