<?xml version="1.0" encoding="UTF-8" standalone="no"?>
<!DOCTYPE svg PUBLIC "-//W3C//DTD SVG 1.1//EN"
 "http://www.w3.org/Graphics/SVG/1.1/DTD/svg11.dtd">
<!-- Generated by graphviz version 2.36.0 (20140111.2315)
 -->
<!-- Title: com.github.aptd.simulation.elements.IBaseElement.IBaseGenerator.generatesingle Pages: 1 -->
<svg width="428pt" height="130pt"
 viewBox="0.00 0.00 428.00 130.00" xmlns="http://www.w3.org/2000/svg" xmlns:xlink="http://www.w3.org/1999/xlink">
<g id="graph0" class="graph" transform="scale(1 1) rotate(0) translate(4 126)">
<title>com.github.aptd.simulation.elements.IBaseElement.IBaseGenerator.generatesingle</title>
<!-- Node7 -->
<g id="node1" class="node"><title>Node7</title>
<polygon fill="#bfbfbf" stroke="black" points="0,-47 0,-75 204,-75 204,-47 0,-47"/>
<text text-anchor="start" x="8" y="-63.8" font-family="Helvetica,sans-Serif" font-size="9.00">com.github.aptd.simulation.elements.</text>
<text text-anchor="middle" x="102" y="-53.8" font-family="Helvetica,sans-Serif" font-size="9.00">IBaseElement.IBaseGenerator.generatesingle</text>
</g>
<!-- Node8 -->
<g id="node2" class="node"><title>Node8</title>
<g id="a_node2"><a xlink:href="../../d1/d9f/classcom_1_1github_1_1aptd_1_1simulation_1_1elements_1_1IBaseElement_1_1IBaseGenerator.htm#a45a8dd24224654d8d1e85729f0ef89d9" target="_top" xlink:title="generates the agent ">
<polygon fill="none" stroke="black" points="240.5,-94 240.5,-122 419.5,-122 419.5,-94 240.5,-94"/>
<text text-anchor="start" x="248.5" y="-110.8" font-family="Helvetica,sans-Serif" font-size="9.00">com.github.aptd.simulation.elements.</text>
<text text-anchor="middle" x="330" y="-100.8" font-family="Helvetica,sans-Serif" font-size="9.00">IBaseElement.IBaseGenerator.generate</text>
</a>
</g>
</g>
<!-- Node7&#45;&gt;Node8 -->
<g id="edge1" class="edge"><title>Node7&#45;&gt;Node8</title>
<path fill="none" stroke="midnightblue" d="M170.501,-75.0379C195.99,-80.3386 225.186,-86.4104 251.518,-91.8865"/>
<polygon fill="midnightblue" stroke="midnightblue" points="250.953,-95.3438 261.456,-93.9533 252.378,-88.4904 250.953,-95.3438"/>
</g>
<!-- Node9 -->
<g id="node3" class="node"><title>Node9</title>
<g id="a_node3"><a xlink:href="../../d6/dee/classcom_1_1github_1_1aptd_1_1simulation_1_1ui_1_1CHTTPServer.htm#a7dbd692090579214f9d60bc58c9ccaf9" target="_top" xlink:title="register agent if server is started ">
<polygon fill="none" stroke="black" points="261,-47 261,-75 399,-75 399,-47 261,-47"/>
<text text-anchor="start" x="269" y="-63.8" font-family="Helvetica,sans-Serif" font-size="9.00">com.github.aptd.simulation.ui.</text>
<text text-anchor="middle" x="330" y="-53.8" font-family="Helvetica,sans-Serif" font-size="9.00">CHTTPServer.register</text>
</a>
</g>
</g>
<!-- Node7&#45;&gt;Node9 -->
<g id="edge2" class="edge"><title>Node7&#45;&gt;Node9</title>
<path fill="none" stroke="midnightblue" d="M204.102,-61C219.667,-61 235.536,-61 250.511,-61"/>
<polygon fill="midnightblue" stroke="midnightblue" points="250.721,-64.5001 260.721,-61 250.721,-57.5001 250.721,-64.5001"/>
</g>
<!-- Node10 -->
<g id="node4" class="node"><title>Node10</title>
<g id="a_node4"><a xlink:href="../../d8/d16/classcom_1_1github_1_1aptd_1_1simulation_1_1elements_1_1IStatefulElement.htm#a5663d9e1e9e73e2d9fed9524c33fdc68" target="_top" xlink:title="every implementing class must provide this method that serializes the current state of the object int...">
<polygon fill="none" stroke="black" points="246,-0 246,-28 414,-28 414,-0 246,-0"/>
<text text-anchor="start" x="254" y="-16.8" font-family="Helvetica,sans-Serif" font-size="9.00">com.github.aptd.simulation.elements.</text>
<text text-anchor="middle" x="330" y="-6.8" font-family="Helvetica,sans-Serif" font-size="9.00">IStatefulElement.writeState</text>
</a>
</g>
</g>
<!-- Node7&#45;&gt;Node10 -->
<g id="edge3" class="edge"><title>Node7&#45;&gt;Node10</title>
<path fill="none" stroke="midnightblue" d="M170.501,-46.9621C195.99,-41.6614 225.186,-35.5896 251.518,-30.1135"/>
<polygon fill="midnightblue" stroke="midnightblue" points="252.378,-33.5096 261.456,-28.0467 250.953,-26.6562 252.378,-33.5096"/>
</g>
</g>
</svg>
