<?xml version="1.0" encoding="UTF-8" standalone="no"?>
<!DOCTYPE svg PUBLIC "-//W3C//DTD SVG 1.1//EN"
 "http://www.w3.org/Graphics/SVG/1.1/DTD/svg11.dtd">
<!-- Generated by graphviz version 2.36.0 (20140111.2315)
 -->
<!-- Title: com.github.aptd.simulation.IBaseTest.execute Pages: 1 -->
<svg width="694pt" height="83pt"
 viewBox="0.00 0.00 694.00 83.00" xmlns="http://www.w3.org/2000/svg" xmlns:xlink="http://www.w3.org/1999/xlink">
<g id="graph0" class="graph" transform="scale(1 1) rotate(0) translate(4 79)">
<title>com.github.aptd.simulation.IBaseTest.execute</title>
<!-- Node6 -->
<g id="node1" class="node"><title>Node6</title>
<polygon fill="#bfbfbf" stroke="black" points="0,-23 0,-51 128,-51 128,-23 0,-23"/>
<text text-anchor="start" x="8" y="-39.8" font-family="Helvetica,sans-Serif" font-size="9.00">com.github.aptd.simulation.</text>
<text text-anchor="middle" x="64" y="-29.8" font-family="Helvetica,sans-Serif" font-size="9.00">IBaseTest.execute</text>
</g>
<!-- Node7 -->
<g id="node2" class="node"><title>Node7</title>
<g id="a_node2"><a xlink:href="../../d4/dc9/classcom_1_1github_1_1aptd_1_1simulation_1_1IBaseTest.htm#a09399600ba55ef5c7d750f436f7bd45a" target="_top" xlink:title="invoke method and read if possible the data&#45;provider ">
<polygon fill="none" stroke="black" points="164,-23 164,-51 292,-51 292,-23 164,-23"/>
<text text-anchor="start" x="172" y="-39.8" font-family="Helvetica,sans-Serif" font-size="9.00">com.github.aptd.simulation.</text>
<text text-anchor="middle" x="228" y="-29.8" font-family="Helvetica,sans-Serif" font-size="9.00">IBaseTest.invoke</text>
</a>
</g>
</g>
<!-- Node6&#45;&gt;Node7 -->
<g id="edge1" class="edge"><title>Node6&#45;&gt;Node7</title>
<path fill="none" stroke="midnightblue" d="M138.374,-37C146.865,-37 155.469,-37 163.808,-37"/>
<polygon fill="midnightblue" stroke="midnightblue" points="138.097,-33.5001 128.097,-37 138.097,-40.5001 138.097,-33.5001"/>
</g>
<!-- Node8 -->
<g id="node3" class="node"><title>Node8</title>
<g id="a_node3"><a xlink:href="../../d4/dc9/classcom_1_1github_1_1aptd_1_1simulation_1_1IBaseTest.htm#ab3237f9bb8076564b27d826fc87f2eba" target="_top" xlink:title="invoke all test manually ">
<polygon fill="none" stroke="black" points="328,-23 328,-51 456,-51 456,-23 328,-23"/>
<text text-anchor="start" x="336" y="-39.8" font-family="Helvetica,sans-Serif" font-size="9.00">com.github.aptd.simulation.</text>
<text text-anchor="middle" x="392" y="-29.8" font-family="Helvetica,sans-Serif" font-size="9.00">IBaseTest.invoketest</text>
</a>
</g>
</g>
<!-- Node7&#45;&gt;Node8 -->
<g id="edge2" class="edge"><title>Node7&#45;&gt;Node8</title>
<path fill="none" stroke="midnightblue" d="M302.374,-37C310.865,-37 319.469,-37 327.808,-37"/>
<polygon fill="midnightblue" stroke="midnightblue" points="302.097,-33.5001 292.097,-37 302.097,-40.5001 302.097,-33.5001"/>
</g>
<!-- Node9 -->
<g id="node4" class="node"><title>Node9</title>
<g id="a_node4"><a xlink:href="../../d8/d50/classcom_1_1github_1_1aptd_1_1simulation_1_1TestCLanguageLabels.htm#ad1e888fc4407027acca6e955ea729768" target="_top" xlink:title="main method ">
<polygon fill="none" stroke="black" points="522.5,-47 522.5,-75 655.5,-75 655.5,-47 522.5,-47"/>
<text text-anchor="start" x="530.5" y="-63.8" font-family="Helvetica,sans-Serif" font-size="9.00">com.github.aptd.simulation.</text>
<text text-anchor="middle" x="589" y="-53.8" font-family="Helvetica,sans-Serif" font-size="9.00">TestCLanguageLabels.main</text>
</a>
</g>
</g>
<!-- Node8&#45;&gt;Node9 -->
<g id="edge3" class="edge"><title>Node8&#45;&gt;Node9</title>
<path fill="none" stroke="midnightblue" d="M466.169,-46.0054C484.663,-48.2816 504.405,-50.7114 522.494,-52.9377"/>
<polygon fill="midnightblue" stroke="midnightblue" points="466.394,-42.5068 456.042,-44.759 465.539,-49.4544 466.394,-42.5068"/>
</g>
<!-- Node10 -->
<g id="node5" class="node"><title>Node10</title>
<g id="a_node5"><a xlink:href="../../d4/d97/classcom_1_1github_1_1aptd_1_1simulation_1_1elements_1_1graph_1_1TestCNetwork.htm#a1df5c342365d05fd91ab302e6931ac0f" target="_top" xlink:title="main method to run test manual ">
<polygon fill="none" stroke="black" points="492,-0 492,-28 686,-28 686,-0 492,-0"/>
<text text-anchor="start" x="500" y="-16.8" font-family="Helvetica,sans-Serif" font-size="9.00">com.github.aptd.simulation.elements.graph.</text>
<text text-anchor="middle" x="589" y="-6.8" font-family="Helvetica,sans-Serif" font-size="9.00">TestCNetwork.main</text>
</a>
</g>
</g>
<!-- Node8&#45;&gt;Node10 -->
<g id="edge4" class="edge"><title>Node8&#45;&gt;Node10</title>
<path fill="none" stroke="midnightblue" d="M466.145,-28.3726C474.548,-27.3815 483.209,-26.36 491.855,-25.3402"/>
<polygon fill="midnightblue" stroke="midnightblue" points="465.563,-24.917 456.042,-29.5643 466.383,-31.8688 465.563,-24.917"/>
</g>
</g>
</svg>
