<?xml version="1.0" encoding="UTF-8" standalone="no"?>
<!DOCTYPE svg PUBLIC "-//W3C//DTD SVG 1.1//EN"
 "http://www.w3.org/Graphics/SVG/1.1/DTD/svg11.dtd">
<!-- Generated by graphviz version 2.36.0 (20140111.2315)
 -->
<!-- Title: com.github.aptd.simulation.IBaseTest.before Pages: 1 -->
<svg width="530pt" height="83pt"
 viewBox="0.00 0.00 530.00 83.00" xmlns="http://www.w3.org/2000/svg" xmlns:xlink="http://www.w3.org/1999/xlink">
<g id="graph0" class="graph" transform="scale(1 1) rotate(0) translate(4 79)">
<title>com.github.aptd.simulation.IBaseTest.before</title>
<!-- Node1 -->
<g id="node1" class="node"><title>Node1</title>
<polygon fill="#bfbfbf" stroke="black" points="0,-23 0,-51 128,-51 128,-23 0,-23"/>
<text text-anchor="start" x="8" y="-39.8" font-family="Helvetica,sans-Serif" font-size="9.00">com.github.aptd.simulation.</text>
<text text-anchor="middle" x="64" y="-29.8" font-family="Helvetica,sans-Serif" font-size="9.00">IBaseTest.before</text>
</g>
<!-- Node2 -->
<g id="node2" class="node"><title>Node2</title>
<g id="a_node2"><a xlink:href="../../d4/dc9/classcom_1_1github_1_1aptd_1_1simulation_1_1IBaseTest.htm#ab3237f9bb8076564b27d826fc87f2eba" target="_top" xlink:title="invoke all test manually ">
<polygon fill="none" stroke="black" points="164,-23 164,-51 292,-51 292,-23 164,-23"/>
<text text-anchor="start" x="172" y="-39.8" font-family="Helvetica,sans-Serif" font-size="9.00">com.github.aptd.simulation.</text>
<text text-anchor="middle" x="228" y="-29.8" font-family="Helvetica,sans-Serif" font-size="9.00">IBaseTest.invoketest</text>
</a>
</g>
</g>
<!-- Node1&#45;&gt;Node2 -->
<g id="edge1" class="edge"><title>Node1&#45;&gt;Node2</title>
<path fill="none" stroke="midnightblue" d="M138.374,-37C146.865,-37 155.469,-37 163.808,-37"/>
<polygon fill="midnightblue" stroke="midnightblue" points="138.097,-33.5001 128.097,-37 138.097,-40.5001 138.097,-33.5001"/>
</g>
<!-- Node3 -->
<g id="node3" class="node"><title>Node3</title>
<g id="a_node3"><a xlink:href="../../d8/d50/classcom_1_1github_1_1aptd_1_1simulation_1_1TestCLanguageLabels.htm#ad1e888fc4407027acca6e955ea729768" target="_top" xlink:title="main method ">
<polygon fill="none" stroke="black" points="358.5,-47 358.5,-75 491.5,-75 491.5,-47 358.5,-47"/>
<text text-anchor="start" x="366.5" y="-63.8" font-family="Helvetica,sans-Serif" font-size="9.00">com.github.aptd.simulation.</text>
<text text-anchor="middle" x="425" y="-53.8" font-family="Helvetica,sans-Serif" font-size="9.00">TestCLanguageLabels.main</text>
</a>
</g>
</g>
<!-- Node2&#45;&gt;Node3 -->
<g id="edge2" class="edge"><title>Node2&#45;&gt;Node3</title>
<path fill="none" stroke="midnightblue" d="M302.169,-46.0054C320.663,-48.2816 340.405,-50.7114 358.494,-52.9377"/>
<polygon fill="midnightblue" stroke="midnightblue" points="302.394,-42.5068 292.042,-44.759 301.539,-49.4544 302.394,-42.5068"/>
</g>
<!-- Node4 -->
<g id="node4" class="node"><title>Node4</title>
<g id="a_node4"><a xlink:href="../../d4/d97/classcom_1_1github_1_1aptd_1_1simulation_1_1elements_1_1graph_1_1TestCNetwork.htm#a1df5c342365d05fd91ab302e6931ac0f" target="_top" xlink:title="main method to run test manual ">
<polygon fill="none" stroke="black" points="328,-0 328,-28 522,-28 522,-0 328,-0"/>
<text text-anchor="start" x="336" y="-16.8" font-family="Helvetica,sans-Serif" font-size="9.00">com.github.aptd.simulation.elements.graph.</text>
<text text-anchor="middle" x="425" y="-6.8" font-family="Helvetica,sans-Serif" font-size="9.00">TestCNetwork.main</text>
</a>
</g>
</g>
<!-- Node2&#45;&gt;Node4 -->
<g id="edge3" class="edge"><title>Node2&#45;&gt;Node4</title>
<path fill="none" stroke="midnightblue" d="M302.145,-28.3726C310.548,-27.3815 319.209,-26.36 327.855,-25.3402"/>
<polygon fill="midnightblue" stroke="midnightblue" points="301.563,-24.917 292.042,-29.5643 302.383,-31.8688 301.563,-24.917"/>
</g>
</g>
</svg>
