<?xml version="1.0" encoding="UTF-8" standalone="no"?>
<!DOCTYPE svg PUBLIC "-//W3C//DTD SVG 1.1//EN"
 "http://www.w3.org/Graphics/SVG/1.1/DTD/svg11.dtd">
<!-- Generated by graphviz version 2.36.0 (20140111.2315)
 -->
<!-- Title: com.github.aptd.simulation.IBaseTest.invoketest Pages: 1 -->
<svg width="464pt" height="83pt"
 viewBox="0.00 0.00 464.00 83.00" xmlns="http://www.w3.org/2000/svg" xmlns:xlink="http://www.w3.org/1999/xlink">
<g id="graph0" class="graph" transform="scale(1 1) rotate(0) translate(4 79)">
<title>com.github.aptd.simulation.IBaseTest.invoketest</title>
<!-- Node17 -->
<g id="node1" class="node"><title>Node17</title>
<polygon fill="#bfbfbf" stroke="black" points="0,-23 0,-51 128,-51 128,-23 0,-23"/>
<text text-anchor="start" x="8" y="-39.8" font-family="Helvetica,sans-Serif" font-size="9.00">com.github.aptd.simulation.</text>
<text text-anchor="middle" x="64" y="-29.8" font-family="Helvetica,sans-Serif" font-size="9.00">IBaseTest.invoketest</text>
</g>
<!-- Node18 -->
<g id="node2" class="node"><title>Node18</title>
<g id="a_node2"><a xlink:href="../../d4/dc9/classcom_1_1github_1_1aptd_1_1simulation_1_1IBaseTest.htm#a31663408cbcf342515843efb5b5c3b4c" target="_top" xlink:title="reads the before annotated methods ">
<polygon fill="none" stroke="black" points="164,-47 164,-75 292,-75 292,-47 164,-47"/>
<text text-anchor="start" x="172" y="-63.8" font-family="Helvetica,sans-Serif" font-size="9.00">com.github.aptd.simulation.</text>
<text text-anchor="middle" x="228" y="-53.8" font-family="Helvetica,sans-Serif" font-size="9.00">IBaseTest.before</text>
</a>
</g>
</g>
<!-- Node17&#45;&gt;Node18 -->
<g id="edge1" class="edge"><title>Node17&#45;&gt;Node18</title>
<path fill="none" stroke="midnightblue" d="M128.097,-46.3477C136.526,-47.5965 145.227,-48.8855 153.81,-50.1571"/>
<polygon fill="midnightblue" stroke="midnightblue" points="153.403,-53.6349 163.808,-51.6383 154.429,-46.7105 153.403,-53.6349"/>
</g>
<!-- Node19 -->
<g id="node3" class="node"><title>Node19</title>
<g id="a_node3"><a xlink:href="../../d4/dc9/classcom_1_1github_1_1aptd_1_1simulation_1_1IBaseTest.htm#a09399600ba55ef5c7d750f436f7bd45a" target="_top" xlink:title="invoke method and read if possible the data&#45;provider ">
<polygon fill="none" stroke="black" points="164,-0 164,-28 292,-28 292,-0 164,-0"/>
<text text-anchor="start" x="172" y="-16.8" font-family="Helvetica,sans-Serif" font-size="9.00">com.github.aptd.simulation.</text>
<text text-anchor="middle" x="228" y="-6.8" font-family="Helvetica,sans-Serif" font-size="9.00">IBaseTest.invoke</text>
</a>
</g>
</g>
<!-- Node17&#45;&gt;Node19 -->
<g id="edge2" class="edge"><title>Node17&#45;&gt;Node19</title>
<path fill="none" stroke="midnightblue" d="M128.097,-28.0417C136.526,-26.8451 145.227,-25.6097 153.81,-24.3911"/>
<polygon fill="midnightblue" stroke="midnightblue" points="154.4,-27.8426 163.808,-22.9716 153.416,-20.9121 154.4,-27.8426"/>
</g>
<!-- Node20 -->
<g id="node4" class="node"><title>Node20</title>
<g id="a_node4"><a xlink:href="../../d4/dc9/classcom_1_1github_1_1aptd_1_1simulation_1_1IBaseTest.htm#aee91488ea8c53da930eec6984a1a8626" target="_top" xlink:title="invokes the method within the current object context ">
<polygon fill="none" stroke="black" points="328,-0 328,-28 456,-28 456,-0 328,-0"/>
<text text-anchor="start" x="336" y="-16.8" font-family="Helvetica,sans-Serif" font-size="9.00">com.github.aptd.simulation.</text>
<text text-anchor="middle" x="392" y="-6.8" font-family="Helvetica,sans-Serif" font-size="9.00">IBaseTest.execute</text>
</a>
</g>
</g>
<!-- Node19&#45;&gt;Node20 -->
<g id="edge3" class="edge"><title>Node19&#45;&gt;Node20</title>
<path fill="none" stroke="midnightblue" d="M292.097,-14C300.435,-14 309.038,-14 317.53,-14"/>
<polygon fill="midnightblue" stroke="midnightblue" points="317.808,-17.5001 327.808,-14 317.808,-10.5001 317.808,-17.5001"/>
</g>
</g>
</svg>
