<?xml version="1.0" encoding="UTF-8" standalone="no"?>
<!DOCTYPE svg PUBLIC "-//W3C//DTD SVG 1.1//EN"
 "http://www.w3.org/Graphics/SVG/1.1/DTD/svg11.dtd">
<!-- Generated by graphviz version 2.36.0 (20140111.2315)
 -->
<!-- Title: com.github.aptd.simulation.IBaseTest.invoketest Pages: 1 -->
<svg width="366pt" height="83pt"
 viewBox="0.00 0.00 366.00 83.00" xmlns="http://www.w3.org/2000/svg" xmlns:xlink="http://www.w3.org/1999/xlink">
<g id="graph0" class="graph" transform="scale(1 1) rotate(0) translate(4 79)">
<title>com.github.aptd.simulation.IBaseTest.invoketest</title>
<!-- Node21 -->
<g id="node1" class="node"><title>Node21</title>
<polygon fill="#bfbfbf" stroke="black" points="0,-23 0,-51 128,-51 128,-23 0,-23"/>
<text text-anchor="start" x="8" y="-39.8" font-family="Helvetica,sans-Serif" font-size="9.00">com.github.aptd.simulation.</text>
<text text-anchor="middle" x="64" y="-29.8" font-family="Helvetica,sans-Serif" font-size="9.00">IBaseTest.invoketest</text>
</g>
<!-- Node22 -->
<g id="node2" class="node"><title>Node22</title>
<g id="a_node2"><a xlink:href="../../d4/d97/classcom_1_1github_1_1aptd_1_1simulation_1_1elements_1_1graph_1_1TestCNetwork.htm#a1df5c342365d05fd91ab302e6931ac0f" target="_top" xlink:title="main method to run test manual ">
<polygon fill="none" stroke="black" points="164,-47 164,-75 358,-75 358,-47 164,-47"/>
<text text-anchor="start" x="172" y="-63.8" font-family="Helvetica,sans-Serif" font-size="9.00">com.github.aptd.simulation.elements.graph.</text>
<text text-anchor="middle" x="261" y="-53.8" font-family="Helvetica,sans-Serif" font-size="9.00">TestCNetwork.main</text>
</a>
</g>
</g>
<!-- Node21&#45;&gt;Node22 -->
<g id="edge1" class="edge"><title>Node21&#45;&gt;Node22</title>
<path fill="none" stroke="midnightblue" d="M138.145,-46.0025C146.548,-47.0367 155.209,-48.1026 163.855,-49.1668"/>
<polygon fill="midnightblue" stroke="midnightblue" points="138.394,-42.5068 128.042,-44.759 137.539,-49.4544 138.394,-42.5068"/>
</g>
<!-- Node23 -->
<g id="node3" class="node"><title>Node23</title>
<g id="a_node3"><a xlink:href="../../d8/d50/classcom_1_1github_1_1aptd_1_1simulation_1_1TestCLanguageLabels.htm#ad1e888fc4407027acca6e955ea729768" target="_top" xlink:title="main method ">
<polygon fill="none" stroke="black" points="194.5,-0 194.5,-28 327.5,-28 327.5,-0 194.5,-0"/>
<text text-anchor="start" x="202.5" y="-16.8" font-family="Helvetica,sans-Serif" font-size="9.00">com.github.aptd.simulation.</text>
<text text-anchor="middle" x="261" y="-6.8" font-family="Helvetica,sans-Serif" font-size="9.00">TestCLanguageLabels.main</text>
</a>
</g>
</g>
<!-- Node21&#45;&gt;Node23 -->
<g id="edge2" class="edge"><title>Node21&#45;&gt;Node23</title>
<path fill="none" stroke="midnightblue" d="M138.169,-28.3698C156.663,-26.1884 176.405,-23.8599 194.494,-21.7263"/>
<polygon fill="midnightblue" stroke="midnightblue" points="137.563,-24.917 128.042,-29.5643 138.383,-31.8688 137.563,-24.917"/>
</g>
</g>
</svg>
