<?xml version="1.0" encoding="UTF-8" standalone="no"?>
<!DOCTYPE svg PUBLIC "-//W3C//DTD SVG 1.1//EN"
 "http://www.w3.org/Graphics/SVG/1.1/DTD/svg11.dtd">
<!-- Generated by graphviz version 2.36.0 (20140111.2315)
 -->
<!-- Title: com.github.aptd.simulation.elements.graph.network.IPlatform.stationid Pages: 1 -->
<svg width="658pt" height="36pt"
 viewBox="0.00 0.00 658.00 36.00" xmlns="http://www.w3.org/2000/svg" xmlns:xlink="http://www.w3.org/1999/xlink">
<g id="graph0" class="graph" transform="scale(1 1) rotate(0) translate(4 32)">
<title>com.github.aptd.simulation.elements.graph.network.IPlatform.stationid</title>
<!-- Node1 -->
<g id="node1" class="node"><title>Node1</title>
<polygon fill="#bfbfbf" stroke="black" points="0.5,-0 0.5,-28 229.5,-28 229.5,-0 0.5,-0"/>
<text text-anchor="start" x="8.5" y="-16.8" font-family="Helvetica,sans-Serif" font-size="9.00">com.github.aptd.simulation.elements.graph.network.</text>
<text text-anchor="middle" x="115" y="-6.8" font-family="Helvetica,sans-Serif" font-size="9.00">IPlatform.stationid</text>
</g>
<!-- Node2 -->
<g id="node2" class="node"><title>Node2</title>
<g id="a_node2"><a xlink:href="../../d0/dfe/classcom_1_1github_1_1aptd_1_1simulation_1_1datamodel_1_1CXMLReader.htm#a2437d80acd49b6cf6ecb2fddf3cc8b39" target="_top" xlink:title="create the station list ">
<polygon fill="none" stroke="black" points="266,-0 266,-28 440,-28 440,-0 266,-0"/>
<text text-anchor="start" x="274" y="-16.8" font-family="Helvetica,sans-Serif" font-size="9.00">com.github.aptd.simulation.datamodel.</text>
<text text-anchor="middle" x="353" y="-6.8" font-family="Helvetica,sans-Serif" font-size="9.00">CXMLReader.station</text>
</a>
</g>
</g>
<!-- Node1&#45;&gt;Node2 -->
<g id="edge1" class="edge"><title>Node1&#45;&gt;Node2</title>
<path fill="none" stroke="midnightblue" d="M239.773,-14C248.511,-14 257.207,-14 265.668,-14"/>
<polygon fill="midnightblue" stroke="midnightblue" points="239.507,-10.5001 229.507,-14 239.507,-17.5001 239.507,-10.5001"/>
</g>
<!-- Node3 -->
<g id="node3" class="node"><title>Node3</title>
<g id="a_node3"><a xlink:href="../../d0/dfe/classcom_1_1github_1_1aptd_1_1simulation_1_1datamodel_1_1CXMLReader.htm#a9245292c78062330cc2b46caf7338fb7" target="_top" xlink:title="transfer the data&#45;model into an experiment based on given factory ">
<polygon fill="none" stroke="black" points="476,-0 476,-28 650,-28 650,-0 476,-0"/>
<text text-anchor="start" x="484" y="-16.8" font-family="Helvetica,sans-Serif" font-size="9.00">com.github.aptd.simulation.datamodel.</text>
<text text-anchor="middle" x="563" y="-6.8" font-family="Helvetica,sans-Serif" font-size="9.00">CXMLReader.get</text>
</a>
</g>
</g>
<!-- Node2&#45;&gt;Node3 -->
<g id="edge2" class="edge"><title>Node2&#45;&gt;Node3</title>
<path fill="none" stroke="midnightblue" d="M450.16,-14C458.768,-14 467.448,-14 475.962,-14"/>
<polygon fill="midnightblue" stroke="midnightblue" points="450.103,-10.5001 440.103,-14 450.103,-17.5001 450.103,-10.5001"/>
</g>
</g>
</svg>
