<?xml version="1.0" encoding="UTF-8" standalone="no"?>
<!DOCTYPE svg PUBLIC "-//W3C//DTD SVG 1.1//EN"
 "http://www.w3.org/Graphics/SVG/1.1/DTD/svg11.dtd">
<!-- Generated by graphviz version 2.36.0 (20140111.2315)
 -->
<!-- Title: com.github.aptd.simulation.TestCLanguageLabels.main Pages: 1 -->
<svg width="634pt" height="83pt"
 viewBox="0.00 0.00 634.00 83.00" xmlns="http://www.w3.org/2000/svg" xmlns:xlink="http://www.w3.org/1999/xlink">
<g id="graph0" class="graph" transform="scale(1 1) rotate(0) translate(4 79)">
<title>com.github.aptd.simulation.TestCLanguageLabels.main</title>
<!-- Node2 -->
<g id="node1" class="node"><title>Node2</title>
<polygon fill="#bfbfbf" stroke="black" points="0.5,-23 0.5,-51 133.5,-51 133.5,-23 0.5,-23"/>
<text text-anchor="start" x="8.5" y="-39.8" font-family="Helvetica,sans-Serif" font-size="9.00">com.github.aptd.simulation.</text>
<text text-anchor="middle" x="67" y="-29.8" font-family="Helvetica,sans-Serif" font-size="9.00">TestCLanguageLabels.main</text>
</g>
<!-- Node3 -->
<g id="node2" class="node"><title>Node3</title>
<g id="a_node2"><a xlink:href="../../d4/dc9/classcom_1_1github_1_1aptd_1_1simulation_1_1IBaseTest.htm#ab3237f9bb8076564b27d826fc87f2eba" target="_top" xlink:title="invoke all test manually ">
<polygon fill="none" stroke="black" points="170,-23 170,-51 298,-51 298,-23 170,-23"/>
<text text-anchor="start" x="178" y="-39.8" font-family="Helvetica,sans-Serif" font-size="9.00">com.github.aptd.simulation.</text>
<text text-anchor="middle" x="234" y="-29.8" font-family="Helvetica,sans-Serif" font-size="9.00">IBaseTest.invoketest</text>
</a>
</g>
</g>
<!-- Node2&#45;&gt;Node3 -->
<g id="edge1" class="edge"><title>Node2&#45;&gt;Node3</title>
<path fill="none" stroke="midnightblue" d="M133.686,-37C142.277,-37 151.122,-37 159.827,-37"/>
<polygon fill="midnightblue" stroke="midnightblue" points="159.958,-40.5001 169.958,-37 159.958,-33.5001 159.958,-40.5001"/>
</g>
<!-- Node4 -->
<g id="node3" class="node"><title>Node4</title>
<g id="a_node3"><a xlink:href="../../d4/dc9/classcom_1_1github_1_1aptd_1_1simulation_1_1IBaseTest.htm#a31663408cbcf342515843efb5b5c3b4c" target="_top" xlink:title="reads the before annotated methods ">
<polygon fill="none" stroke="black" points="334,-47 334,-75 462,-75 462,-47 334,-47"/>
<text text-anchor="start" x="342" y="-63.8" font-family="Helvetica,sans-Serif" font-size="9.00">com.github.aptd.simulation.</text>
<text text-anchor="middle" x="398" y="-53.8" font-family="Helvetica,sans-Serif" font-size="9.00">IBaseTest.before</text>
</a>
</g>
</g>
<!-- Node3&#45;&gt;Node4 -->
<g id="edge2" class="edge"><title>Node3&#45;&gt;Node4</title>
<path fill="none" stroke="midnightblue" d="M298.097,-46.3477C306.526,-47.5965 315.227,-48.8855 323.81,-50.1571"/>
<polygon fill="midnightblue" stroke="midnightblue" points="323.403,-53.6349 333.808,-51.6383 324.429,-46.7105 323.403,-53.6349"/>
</g>
<!-- Node5 -->
<g id="node4" class="node"><title>Node5</title>
<g id="a_node4"><a xlink:href="../../d4/dc9/classcom_1_1github_1_1aptd_1_1simulation_1_1IBaseTest.htm#a09399600ba55ef5c7d750f436f7bd45a" target="_top" xlink:title="invoke method and read if possible the data&#45;provider ">
<polygon fill="none" stroke="black" points="334,-0 334,-28 462,-28 462,-0 334,-0"/>
<text text-anchor="start" x="342" y="-16.8" font-family="Helvetica,sans-Serif" font-size="9.00">com.github.aptd.simulation.</text>
<text text-anchor="middle" x="398" y="-6.8" font-family="Helvetica,sans-Serif" font-size="9.00">IBaseTest.invoke</text>
</a>
</g>
</g>
<!-- Node3&#45;&gt;Node5 -->
<g id="edge3" class="edge"><title>Node3&#45;&gt;Node5</title>
<path fill="none" stroke="midnightblue" d="M298.097,-28.0417C306.526,-26.8451 315.227,-25.6097 323.81,-24.3911"/>
<polygon fill="midnightblue" stroke="midnightblue" points="324.4,-27.8426 333.808,-22.9716 323.416,-20.9121 324.4,-27.8426"/>
</g>
<!-- Node6 -->
<g id="node5" class="node"><title>Node6</title>
<g id="a_node5"><a xlink:href="../../d4/dc9/classcom_1_1github_1_1aptd_1_1simulation_1_1IBaseTest.htm#aee91488ea8c53da930eec6984a1a8626" target="_top" xlink:title="invokes the method within the current object context ">
<polygon fill="none" stroke="black" points="498,-0 498,-28 626,-28 626,-0 498,-0"/>
<text text-anchor="start" x="506" y="-16.8" font-family="Helvetica,sans-Serif" font-size="9.00">com.github.aptd.simulation.</text>
<text text-anchor="middle" x="562" y="-6.8" font-family="Helvetica,sans-Serif" font-size="9.00">IBaseTest.execute</text>
</a>
</g>
</g>
<!-- Node5&#45;&gt;Node6 -->
<g id="edge4" class="edge"><title>Node5&#45;&gt;Node6</title>
<path fill="none" stroke="midnightblue" d="M462.097,-14C470.435,-14 479.038,-14 487.53,-14"/>
<polygon fill="midnightblue" stroke="midnightblue" points="487.808,-17.5001 497.808,-14 487.808,-10.5001 487.808,-17.5001"/>
</g>
</g>
</svg>
