<?xml version="1.0" encoding="UTF-8" standalone="no"?>
<!DOCTYPE svg PUBLIC "-//W3C//DTD SVG 1.1//EN"
 "http://www.w3.org/Graphics/SVG/1.1/DTD/svg11.dtd">
<!-- Generated by graphviz version 2.36.0 (20140111.2315)
 -->
<!-- Title: com.github.aptd.simulation.elements.IBaseElement.toString Pages: 1 -->
<svg width="464pt" height="271pt"
 viewBox="0.00 0.00 464.00 271.00" xmlns="http://www.w3.org/2000/svg" xmlns:xlink="http://www.w3.org/1999/xlink">
<g id="graph0" class="graph" transform="scale(1 1) rotate(0) translate(4 267)">
<title>com.github.aptd.simulation.elements.IBaseElement.toString</title>
<!-- Node39 -->
<g id="node1" class="node"><title>Node39</title>
<polygon fill="#bfbfbf" stroke="black" points="0,-117 0,-145 168,-145 168,-117 0,-117"/>
<text text-anchor="start" x="8" y="-133.8" font-family="Helvetica,sans-Serif" font-size="9.00">com.github.aptd.simulation.elements.</text>
<text text-anchor="middle" x="84" y="-123.8" font-family="Helvetica,sans-Serif" font-size="9.00">IBaseElement.toString</text>
</g>
<!-- Node40 -->
<g id="node2" class="node"><title>Node40</title>
<g id="a_node2"><a xlink:href="../../d2/dd1/classcom_1_1github_1_1aptd_1_1simulation_1_1elements_1_1dispatcher_1_1CDispatcher_1_1CGenerator.htm#a66033008709c2e50d855a3cee6c7488b" target="_top" xlink:title="com.github.aptd.simulation.elements.dispatcher.\lCDispatcher.CGenerator.generate">
<polygon fill="none" stroke="black" points="223.5,-235 223.5,-263 436.5,-263 436.5,-235 223.5,-235"/>
<text text-anchor="start" x="231.5" y="-251.8" font-family="Helvetica,sans-Serif" font-size="9.00">com.github.aptd.simulation.elements.dispatcher.</text>
<text text-anchor="middle" x="330" y="-241.8" font-family="Helvetica,sans-Serif" font-size="9.00">CDispatcher.CGenerator.generate</text>
</a>
</g>
</g>
<!-- Node39&#45;&gt;Node40 -->
<g id="edge1" class="edge"><title>Node39&#45;&gt;Node40</title>
<path fill="none" stroke="midnightblue" d="M105.334,-152.212C127.493,-173.998 165.024,-207.166 204,-225 212.54,-228.908 221.69,-232.179 231.011,-234.918"/>
<polygon fill="midnightblue" stroke="midnightblue" points="107.701,-149.63 98.1592,-145.025 102.747,-154.575 107.701,-149.63"/>
</g>
<!-- Node41 -->
<g id="node3" class="node"><title>Node41</title>
<g id="a_node3"><a xlink:href="../../d1/da7/classcom_1_1github_1_1aptd_1_1simulation_1_1elements_1_1graph_1_1network_1_1local_1_1CVirtual_1_1CGenerator.htm#a99176a1217f24adef3067c924a80fe39" target="_top" xlink:title="com.github.aptd.simulation.elements.graph.network.local.\lCVirtual.CGenerator.generate">
<polygon fill="none" stroke="black" points="204.5,-188 204.5,-216 455.5,-216 455.5,-188 204.5,-188"/>
<text text-anchor="start" x="212.5" y="-204.8" font-family="Helvetica,sans-Serif" font-size="9.00">com.github.aptd.simulation.elements.graph.network.local.</text>
<text text-anchor="middle" x="330" y="-194.8" font-family="Helvetica,sans-Serif" font-size="9.00">CVirtual.CGenerator.generate</text>
</a>
</g>
</g>
<!-- Node39&#45;&gt;Node41 -->
<g id="edge2" class="edge"><title>Node39&#45;&gt;Node41</title>
<path fill="none" stroke="midnightblue" d="M125.578,-149.208C148.283,-158.839 177.311,-170.241 204,-178 216.944,-181.763 230.816,-185.095 244.44,-187.989"/>
<polygon fill="midnightblue" stroke="midnightblue" points="126.83,-145.936 116.26,-145.205 124.067,-152.368 126.83,-145.936"/>
</g>
<!-- Node42 -->
<g id="node4" class="node"><title>Node42</title>
<g id="a_node4"><a xlink:href="../../db/d43/classcom_1_1github_1_1aptd_1_1simulation_1_1elements_1_1graph_1_1network_1_1local_1_1CTransit_1_1CGenerator.htm#a66f83004b441e8c78e7cbaf47d9040d1" target="_top" xlink:title="com.github.aptd.simulation.elements.graph.network.local.\lCTransit.CGenerator.generate">
<polygon fill="none" stroke="black" points="204.5,-141 204.5,-169 455.5,-169 455.5,-141 204.5,-141"/>
<text text-anchor="start" x="212.5" y="-157.8" font-family="Helvetica,sans-Serif" font-size="9.00">com.github.aptd.simulation.elements.graph.network.local.</text>
<text text-anchor="middle" x="330" y="-147.8" font-family="Helvetica,sans-Serif" font-size="9.00">CTransit.CGenerator.generate</text>
</a>
</g>
</g>
<!-- Node39&#45;&gt;Node42 -->
<g id="edge3" class="edge"><title>Node39&#45;&gt;Node42</title>
<path fill="none" stroke="midnightblue" d="M178.464,-140.193C186.894,-141.022 195.516,-141.87 204.158,-142.72"/>
<polygon fill="midnightblue" stroke="midnightblue" points="178.583,-136.688 168.289,-139.192 177.898,-143.654 178.583,-136.688"/>
</g>
<!-- Node43 -->
<g id="node5" class="node"><title>Node43</title>
<g id="a_node5"><a xlink:href="../../df/dad/classcom_1_1github_1_1aptd_1_1simulation_1_1elements_1_1graph_1_1network_1_1local_1_1CStation_1_1CGenerator.htm#ab75330d033a0348f52edb4667dde58b2" target="_top" xlink:title="com.github.aptd.simulation.elements.graph.network.local.\lCStation.CGenerator.generate">
<polygon fill="none" stroke="black" points="204.5,-94 204.5,-122 455.5,-122 455.5,-94 204.5,-94"/>
<text text-anchor="start" x="212.5" y="-110.8" font-family="Helvetica,sans-Serif" font-size="9.00">com.github.aptd.simulation.elements.graph.network.local.</text>
<text text-anchor="middle" x="330" y="-100.8" font-family="Helvetica,sans-Serif" font-size="9.00">CStation.CGenerator.generate</text>
</a>
</g>
</g>
<!-- Node39&#45;&gt;Node43 -->
<g id="edge4" class="edge"><title>Node39&#45;&gt;Node43</title>
<path fill="none" stroke="midnightblue" d="M178.464,-122.19C186.894,-121.395 195.516,-120.582 204.158,-119.768"/>
<polygon fill="midnightblue" stroke="midnightblue" points="177.916,-118.726 168.289,-123.149 178.573,-125.695 177.916,-118.726"/>
</g>
<!-- Node44 -->
<g id="node6" class="node"><title>Node44</title>
<g id="a_node6"><a xlink:href="../../dd/d26/classcom_1_1github_1_1aptd_1_1simulation_1_1elements_1_1graph_1_1network_1_1local_1_1CTrack_1_1CGenerator.htm#a5f05e997414b5c3824d44cb5142ee40a" target="_top" xlink:title="com.github.aptd.simulation.elements.graph.network.local.\lCTrack.CGenerator.generate">
<polygon fill="none" stroke="black" points="204.5,-47 204.5,-75 455.5,-75 455.5,-47 204.5,-47"/>
<text text-anchor="start" x="212.5" y="-63.8" font-family="Helvetica,sans-Serif" font-size="9.00">com.github.aptd.simulation.elements.graph.network.local.</text>
<text text-anchor="middle" x="330" y="-53.8" font-family="Helvetica,sans-Serif" font-size="9.00">CTrack.CGenerator.generate</text>
</a>
</g>
</g>
<!-- Node39&#45;&gt;Node44 -->
<g id="edge5" class="edge"><title>Node39&#45;&gt;Node44</title>
<path fill="none" stroke="midnightblue" d="M126.094,-113.018C148.738,-103.645 177.545,-92.5864 204,-85 217.064,-81.2537 231.065,-77.9223 244.799,-75.0227"/>
<polygon fill="midnightblue" stroke="midnightblue" points="124.661,-109.823 116.791,-116.916 127.367,-116.279 124.661,-109.823"/>
</g>
<!-- Node45 -->
<g id="node7" class="node"><title>Node45</title>
<g id="a_node7"><a xlink:href="../../d9/d83/classcom_1_1github_1_1aptd_1_1simulation_1_1elements_1_1train_1_1CWagon_1_1CGenerator.htm#af5ebce540ecc5f818a451b8cf34385a7" target="_top" xlink:title="com.github.aptd.simulation.elements.train.\lCWagon.CGenerator.generate">
<polygon fill="none" stroke="black" points="236,-0 236,-28 424,-28 424,-0 236,-0"/>
<text text-anchor="start" x="244" y="-16.8" font-family="Helvetica,sans-Serif" font-size="9.00">com.github.aptd.simulation.elements.train.</text>
<text text-anchor="middle" x="330" y="-6.8" font-family="Helvetica,sans-Serif" font-size="9.00">CWagon.CGenerator.generate</text>
</a>
</g>
</g>
<!-- Node39&#45;&gt;Node45 -->
<g id="edge6" class="edge"><title>Node39&#45;&gt;Node45</title>
<path fill="none" stroke="midnightblue" d="M105.746,-109.664C127.988,-88.1113 165.35,-55.5636 204,-38 214.059,-33.4289 224.957,-29.7279 235.983,-26.7314"/>
<polygon fill="midnightblue" stroke="midnightblue" points="103.189,-107.27 98.5314,-116.786 108.107,-112.251 103.189,-107.27"/>
</g>
</g>
</svg>
