<?xml version="1.0" encoding="UTF-8" standalone="no"?>
<!DOCTYPE svg PUBLIC "-//W3C//DTD SVG 1.1//EN"
 "http://www.w3.org/Graphics/SVG/1.1/DTD/svg11.dtd">
<!-- Generated by graphviz version 2.36.0 (20140111.2315)
 -->
<!-- Title: com.github.aptd.simulation.elements.graph.eventactivitynetwork.local.CActivity Pages: 1 -->
<svg width="880pt" height="390pt"
 viewBox="0.00 0.00 880.00 390.00" xmlns="http://www.w3.org/2000/svg" xmlns:xlink="http://www.w3.org/1999/xlink">
<g id="graph0" class="graph" transform="scale(1 1) rotate(0) translate(4 386)">
<title>com.github.aptd.simulation.elements.graph.eventactivitynetwork.local.CActivity</title>
<!-- Node3 -->
<g id="node1" class="node"><title>Node3</title>
<polygon fill="#bfbfbf" stroke="black" points="285.5,-1 285.5,-115 586.5,-115 586.5,-1 285.5,-1"/>
<text text-anchor="start" x="293.5" y="-103.8" font-family="Helvetica,sans-Serif" font-size="9.00">com.github.aptd.simulation.elements.graph.eventactivitynetwork.local.</text>
<text text-anchor="middle" x="436" y="-93.8" font-family="Helvetica,sans-Serif" font-size="9.00">CActivity</text>
<polyline fill="none" stroke="black" points="285.5,-87 586.5,-87 "/>
<text text-anchor="middle" x="436" y="-75.8" font-family="Helvetica,sans-Serif" font-size="9.00"> </text>
<polyline fill="none" stroke="black" points="285.5,-69 586.5,-69 "/>
<text text-anchor="start" x="293.5" y="-57.8" font-family="Helvetica,sans-Serif" font-size="9.00">+ CActivity()</text>
<text text-anchor="start" x="293.5" y="-47.8" font-family="Helvetica,sans-Serif" font-size="9.00">+ equals()</text>
<text text-anchor="start" x="293.5" y="-37.8" font-family="Helvetica,sans-Serif" font-size="9.00">+ event()</text>
<text text-anchor="start" x="293.5" y="-27.8" font-family="Helvetica,sans-Serif" font-size="9.00">+ from()</text>
<text text-anchor="start" x="293.5" y="-17.8" font-family="Helvetica,sans-Serif" font-size="9.00">+ hashCode()</text>
<text text-anchor="start" x="293.5" y="-7.8" font-family="Helvetica,sans-Serif" font-size="9.00">+ to()</text>
</g>
<!-- Node4 -->
<g id="node2" class="node"><title>Node4</title>
<g id="a_node2"><a xlink:href="../../d1/d8a/interfacecom_1_1github_1_1aptd_1_1simulation_1_1elements_1_1graph_1_1eventactivitynetwork_1_1IActivity.htm" target="_top" xlink:title="interface of an activity ">
<polygon fill="none" stroke="black" points="-0.5,-183 -0.5,-247 278.5,-247 278.5,-183 -0.5,-183"/>
<text text-anchor="start" x="7.5" y="-235.8" font-family="Helvetica,sans-Serif" font-size="9.00">com.github.aptd.simulation.elements.graph.eventactivitynetwork.</text>
<text text-anchor="middle" x="139" y="-225.8" font-family="Helvetica,sans-Serif" font-size="9.00">IActivity</text>
<polyline fill="none" stroke="black" points="-0.5,-219 278.5,-219 "/>
<text text-anchor="middle" x="139" y="-207.8" font-family="Helvetica,sans-Serif" font-size="9.00"> </text>
<polyline fill="none" stroke="black" points="-0.5,-201 278.5,-201 "/>
<text text-anchor="start" x="7.5" y="-189.8" font-family="Helvetica,sans-Serif" font-size="9.00">+ event()</text>
</a>
</g>
</g>
<!-- Node4&#45;&gt;Node3 -->
<g id="edge1" class="edge"><title>Node4&#45;&gt;Node3</title>
<path fill="none" stroke="midnightblue" d="M207.666,-178.164C243.537,-159.444 288.251,-136.108 328.579,-115.061"/>
<polygon fill="none" stroke="midnightblue" points="205.991,-175.09 198.745,-182.82 209.23,-181.296 205.991,-175.09"/>
</g>
<!-- Node5 -->
<g id="node3" class="node"><title>Node5</title>
<g id="a_node3"><a xlink:href="../../d1/d9f/interfacecom_1_1github_1_1aptd_1_1simulation_1_1elements_1_1graph_1_1IEdge.htm" target="_top" xlink:title="interface of edges ">
<polygon fill="none" stroke="black" points="82.5,-297 82.5,-381 195.5,-381 195.5,-297 82.5,-297"/>
<text text-anchor="start" x="90.5" y="-369.8" font-family="Helvetica,sans-Serif" font-size="9.00">com::github::aptd::</text>
<text text-anchor="start" x="90.5" y="-359.8" font-family="Helvetica,sans-Serif" font-size="9.00">simulation::elements</text>
<text text-anchor="middle" x="139" y="-349.8" font-family="Helvetica,sans-Serif" font-size="9.00">::graph::IEdge&lt; INode &gt;</text>
<polyline fill="none" stroke="black" points="82.5,-343 195.5,-343 "/>
<text text-anchor="middle" x="139" y="-331.8" font-family="Helvetica,sans-Serif" font-size="9.00"> </text>
<polyline fill="none" stroke="black" points="82.5,-325 195.5,-325 "/>
<text text-anchor="start" x="90.5" y="-313.8" font-family="Helvetica,sans-Serif" font-size="9.00">+ from()</text>
<text text-anchor="start" x="90.5" y="-303.8" font-family="Helvetica,sans-Serif" font-size="9.00">+ to()</text>
</a>
</g>
</g>
<!-- Node5&#45;&gt;Node4 -->
<g id="edge2" class="edge"><title>Node5&#45;&gt;Node4</title>
<path fill="none" stroke="midnightblue" d="M139,-286.627C139,-273.24 139,-259.219 139,-247.23"/>
<polygon fill="none" stroke="midnightblue" points="135.5,-286.696 139,-296.696 142.5,-286.696 135.5,-286.696"/>
</g>
<!-- Node6 -->
<g id="node4" class="node"><title>Node6</title>
<g id="a_node4"><a xlink:href="../../d8/de3/enumcom_1_1github_1_1aptd_1_1simulation_1_1elements_1_1graph_1_1eventactivitynetwork_1_1EEvent.htm" target="_top" xlink:title="enum with activies ">
<polygon fill="none" stroke="black" points="296.5,-173 296.5,-257 575.5,-257 575.5,-173 296.5,-173"/>
<text text-anchor="start" x="304.5" y="-245.8" font-family="Helvetica,sans-Serif" font-size="9.00">com.github.aptd.simulation.elements.graph.eventactivitynetwork.</text>
<text text-anchor="middle" x="436" y="-235.8" font-family="Helvetica,sans-Serif" font-size="9.00">EEvent</text>
<polyline fill="none" stroke="black" points="296.5,-229 575.5,-229 "/>
<text text-anchor="start" x="304.5" y="-217.8" font-family="Helvetica,sans-Serif" font-size="9.00">+ DRIVE</text>
<text text-anchor="start" x="304.5" y="-207.8" font-family="Helvetica,sans-Serif" font-size="9.00">+ TRNSFER</text>
<text text-anchor="start" x="304.5" y="-197.8" font-family="Helvetica,sans-Serif" font-size="9.00">+ WAIT</text>
<polyline fill="none" stroke="black" points="296.5,-191 575.5,-191 "/>
<text text-anchor="middle" x="436" y="-179.8" font-family="Helvetica,sans-Serif" font-size="9.00"> </text>
</a>
</g>
</g>
<!-- Node6&#45;&gt;Node3 -->
<g id="edge3" class="edge"><title>Node6&#45;&gt;Node3</title>
<path fill="none" stroke="#404040" d="M436,-172.87C436,-158.928 436,-142.956 436,-127.472"/>
<polygon fill="none" stroke="#404040" points="436,-127.206 432,-121.206 436,-115.206 440,-121.206 436,-127.206"/>
<text text-anchor="middle" x="456.5" y="-141.8" font-family="Helvetica,sans-Serif" font-size="9.00"> &#45;m_event</text>
</g>
<!-- Node7 -->
<g id="node5" class="node"><title>Node7</title>
<g id="a_node5"><a xlink:href="../../d3/db3/interfacecom_1_1github_1_1aptd_1_1simulation_1_1elements_1_1graph_1_1eventactivitynetwork_1_1INode.htm" target="_top" xlink:title="interface of a node ">
<polygon fill="none" stroke="black" points="593.5,-183 593.5,-247 872.5,-247 872.5,-183 593.5,-183"/>
<text text-anchor="start" x="601.5" y="-235.8" font-family="Helvetica,sans-Serif" font-size="9.00">com.github.aptd.simulation.elements.graph.eventactivitynetwork.</text>
<text text-anchor="middle" x="733" y="-225.8" font-family="Helvetica,sans-Serif" font-size="9.00">INode</text>
<polyline fill="none" stroke="black" points="593.5,-219 872.5,-219 "/>
<text text-anchor="middle" x="733" y="-207.8" font-family="Helvetica,sans-Serif" font-size="9.00"> </text>
<polyline fill="none" stroke="black" points="593.5,-201 872.5,-201 "/>
<text text-anchor="start" x="601.5" y="-189.8" font-family="Helvetica,sans-Serif" font-size="9.00">+ station()</text>
</a>
</g>
</g>
<!-- Node7&#45;&gt;Node3 -->
<g id="edge4" class="edge"><title>Node7&#45;&gt;Node3</title>
<path fill="none" stroke="#404040" d="M673.255,-182.82C639.123,-165.007 595.111,-142.038 554.281,-120.729"/>
<polygon fill="none" stroke="#404040" points="554.059,-120.614 546.89,-121.384 543.421,-115.061 550.591,-114.291 554.059,-120.614"/>
<text text-anchor="middle" x="629" y="-146.8" font-family="Helvetica,sans-Serif" font-size="9.00"> &#45;m_to</text>
<text text-anchor="middle" x="629" y="-136.8" font-family="Helvetica,sans-Serif" font-size="9.00">&#45;m_from</text>
</g>
<!-- Node8 -->
<g id="node6" class="node"><title>Node8</title>
<g id="a_node6"><a xlink:href="../../de/d20/interfacecom_1_1github_1_1aptd_1_1simulation_1_1elements_1_1graph_1_1IVertex.htm" target="_top" xlink:title="interface of graph nodes ">
<polygon fill="none" stroke="black" points="674,-302 674,-376 792,-376 792,-302 674,-302"/>
<text text-anchor="start" x="682" y="-364.8" font-family="Helvetica,sans-Serif" font-size="9.00">com::github::aptd::</text>
<text text-anchor="start" x="682" y="-354.8" font-family="Helvetica,sans-Serif" font-size="9.00">simulation::elements</text>
<text text-anchor="middle" x="733" y="-344.8" font-family="Helvetica,sans-Serif" font-size="9.00">::graph::IVertex&lt; INode &gt;</text>
<polyline fill="none" stroke="black" points="674,-338 792,-338 "/>
<text text-anchor="middle" x="733" y="-326.8" font-family="Helvetica,sans-Serif" font-size="9.00"> </text>
<polyline fill="none" stroke="black" points="674,-320 792,-320 "/>
<text text-anchor="middle" x="733" y="-308.8" font-family="Helvetica,sans-Serif" font-size="9.00"> </text>
</a>
</g>
</g>
<!-- Node8&#45;&gt;Node7 -->
<g id="edge5" class="edge"><title>Node8&#45;&gt;Node7</title>
<path fill="none" stroke="midnightblue" d="M733,-291.717C733,-276.909 733,-260.87 733,-247.382"/>
<polygon fill="none" stroke="midnightblue" points="729.5,-291.726 733,-301.726 736.5,-291.726 729.5,-291.726"/>
</g>
</g>
</svg>
