<?xml version="1.0" encoding="UTF-8" standalone="no"?>
<!DOCTYPE svg PUBLIC "-//W3C//DTD SVG 1.1//EN"
 "http://www.w3.org/Graphics/SVG/1.1/DTD/svg11.dtd">
<!-- Generated by graphviz version 2.36.0 (20140111.2315)
 -->
<!-- Title: com.github.aptd.simulation.IBaseTest Pages: 1 -->
<svg width="348pt" height="256pt"
 viewBox="0.00 0.00 348.00 256.00" xmlns="http://www.w3.org/2000/svg" xmlns:xlink="http://www.w3.org/1999/xlink">
<g id="graph0" class="graph" transform="scale(1 1) rotate(0) translate(4 252)">
<title>com.github.aptd.simulation.IBaseTest</title>
<!-- Node0 -->
<g id="node1" class="node"><title>Node0</title>
<polygon fill="#bfbfbf" stroke="black" points="122,-153 122,-247 250,-247 250,-153 122,-153"/>
<text text-anchor="start" x="130" y="-235.8" font-family="Helvetica,sans-Serif" font-size="9.00">com.github.aptd.simulation.</text>
<text text-anchor="middle" x="186" y="-225.8" font-family="Helvetica,sans-Serif" font-size="9.00">IBaseTest</text>
<polyline fill="none" stroke="black" points="122,-219 250,-219 "/>
<text text-anchor="start" x="130" y="-207.8" font-family="Helvetica,sans-Serif" font-size="9.00"># PRINTENABLE</text>
<polyline fill="none" stroke="black" points="122,-201 250,-201 "/>
<text text-anchor="start" x="130" y="-189.8" font-family="Helvetica,sans-Serif" font-size="9.00"># invoketest()</text>
<text text-anchor="start" x="130" y="-179.8" font-family="Helvetica,sans-Serif" font-size="9.00">&#45; before()</text>
<text text-anchor="start" x="130" y="-169.8" font-family="Helvetica,sans-Serif" font-size="9.00">&#45; execute()</text>
<text text-anchor="start" x="130" y="-159.8" font-family="Helvetica,sans-Serif" font-size="9.00">&#45; invoke()</text>
</g>
<!-- Node1 -->
<g id="node2" class="node"><title>Node1</title>
<g id="a_node2"><a xlink:href="../../d4/d97/classcom_1_1github_1_1aptd_1_1simulation_1_1elements_1_1graph_1_1TestCNetwork.htm" target="_top" xlink:title="network test ">
<polygon fill="none" stroke="black" points="0,-11 0,-105 194,-105 194,-11 0,-11"/>
<text text-anchor="start" x="8" y="-93.8" font-family="Helvetica,sans-Serif" font-size="9.00">com.github.aptd.simulation.elements.graph.</text>
<text text-anchor="middle" x="97" y="-83.8" font-family="Helvetica,sans-Serif" font-size="9.00">TestCNetwork</text>
<polyline fill="none" stroke="black" points="0,-77 194,-77 "/>
<text text-anchor="start" x="8" y="-65.8" font-family="Helvetica,sans-Serif" font-size="9.00">&#45; m_station</text>
<text text-anchor="start" x="8" y="-55.8" font-family="Helvetica,sans-Serif" font-size="9.00">&#45; m_track</text>
<polyline fill="none" stroke="black" points="0,-49 194,-49 "/>
<text text-anchor="start" x="8" y="-37.8" font-family="Helvetica,sans-Serif" font-size="9.00">+ ininitialize()</text>
<text text-anchor="start" x="8" y="-27.8" font-family="Helvetica,sans-Serif" font-size="9.00">+ networkbuild()</text>
<text text-anchor="start" x="8" y="-17.8" font-family="Helvetica,sans-Serif" font-size="9.00">+ main()</text>
</a>
</g>
</g>
<!-- Node0&#45;&gt;Node1 -->
<g id="edge1" class="edge"><title>Node0&#45;&gt;Node1</title>
<path fill="none" stroke="midnightblue" d="M151.042,-144.01C142.874,-131.161 134.254,-117.603 126.358,-105.181"/>
<polygon fill="none" stroke="midnightblue" points="148.293,-146.209 156.611,-152.771 154.2,-142.454 148.293,-146.209"/>
</g>
<!-- Node2 -->
<g id="node3" class="node"><title>Node2</title>
<g id="a_node3"><a xlink:href="../../d8/d50/classcom_1_1github_1_1aptd_1_1simulation_1_1TestCLanguageLabels.htm" target="_top" xlink:title="test all resource strings ">
<polygon fill="none" stroke="black" points="212,-1 212,-115 340,-115 340,-1 212,-1"/>
<text text-anchor="start" x="220" y="-103.8" font-family="Helvetica,sans-Serif" font-size="9.00">com.github.aptd.simulation.</text>
<text text-anchor="middle" x="276" y="-93.8" font-family="Helvetica,sans-Serif" font-size="9.00">TestCLanguageLabels</text>
<polyline fill="none" stroke="black" points="212,-87 340,-87 "/>
<text text-anchor="start" x="220" y="-75.8" font-family="Helvetica,sans-Serif" font-size="9.00">&#45; CLASSSEPARATOR</text>
<text text-anchor="start" x="220" y="-65.8" font-family="Helvetica,sans-Serif" font-size="9.00">&#45; LANGUAGEPROPERY</text>
<text text-anchor="start" x="220" y="-55.8" font-family="Helvetica,sans-Serif" font-size="9.00">&#45; SEARCHPATH</text>
<polyline fill="none" stroke="black" points="212,-49 340,-49 "/>
<text text-anchor="start" x="220" y="-37.8" font-family="Helvetica,sans-Serif" font-size="9.00">+ testResourceString()</text>
<text text-anchor="start" x="220" y="-27.8" font-family="Helvetica,sans-Serif" font-size="9.00">+ testTranslation()</text>
<text text-anchor="start" x="220" y="-17.8" font-family="Helvetica,sans-Serif" font-size="9.00">+ main()</text>
<text text-anchor="start" x="220" y="-7.8" font-family="Helvetica,sans-Serif" font-size="9.00">~ [static initializer]()</text>
</a>
</g>
</g>
<!-- Node0&#45;&gt;Node2 -->
<g id="edge2" class="edge"><title>Node0&#45;&gt;Node2</title>
<path fill="none" stroke="midnightblue" d="M221.216,-144.219C227.294,-134.765 233.622,-124.921 239.727,-115.425"/>
<polygon fill="none" stroke="midnightblue" points="218.182,-142.466 215.719,-152.771 224.071,-146.252 218.182,-142.466"/>
</g>
</g>
</svg>
