<?xml version="1.0" encoding="UTF-8" standalone="no"?>
<!DOCTYPE svg PUBLIC "-//W3C//DTD SVG 1.1//EN"
 "http://www.w3.org/Graphics/SVG/1.1/DTD/svg11.dtd">
<!-- Generated by graphviz version 2.36.0 (20140111.2315)
 -->
<!-- Title: com.github.aptd.simulation.elements.grid.ILevel Pages: 1 -->
<svg width="216pt" height="176pt"
 viewBox="0.00 0.00 216.00 176.00" xmlns="http://www.w3.org/2000/svg" xmlns:xlink="http://www.w3.org/1999/xlink">
<g id="graph0" class="graph" transform="scale(1 1) rotate(0) translate(4 172)">
<title>com.github.aptd.simulation.elements.grid.ILevel</title>
<!-- Node0 -->
<g id="node1" class="node"><title>Node0</title>
<polygon fill="#bfbfbf" stroke="black" points="11,-103 11,-167 197,-167 197,-103 11,-103"/>
<text text-anchor="start" x="19" y="-155.8" font-family="Helvetica,sans-Serif" font-size="9.00">com.github.aptd.simulation.elements.grid.</text>
<text text-anchor="middle" x="104" y="-145.8" font-family="Helvetica,sans-Serif" font-size="9.00">ILevel</text>
<polyline fill="none" stroke="black" points="11,-139 197,-139 "/>
<text text-anchor="middle" x="104" y="-127.8" font-family="Helvetica,sans-Serif" font-size="9.00"> </text>
<polyline fill="none" stroke="black" points="11,-121 197,-121 "/>
<text text-anchor="middle" x="104" y="-109.8" font-family="Helvetica,sans-Serif" font-size="9.00"> </text>
</g>
<!-- Node1 -->
<g id="node2" class="node"><title>Node1</title>
<g id="a_node2"><a xlink:href="../../de/d41/classcom_1_1github_1_1aptd_1_1simulation_1_1elements_1_1grid_1_1local_1_1CLevel.htm" target="_top" xlink:title="level definition ">
<polygon fill="none" stroke="black" points="0,-1 0,-65 208,-65 208,-1 0,-1"/>
<text text-anchor="start" x="8" y="-53.8" font-family="Helvetica,sans-Serif" font-size="9.00">com.github.aptd.simulation.elements.grid.local.</text>
<text text-anchor="middle" x="104" y="-43.8" font-family="Helvetica,sans-Serif" font-size="9.00">CLevel</text>
<polyline fill="none" stroke="black" points="0,-37 208,-37 "/>
<text text-anchor="middle" x="104" y="-25.8" font-family="Helvetica,sans-Serif" font-size="9.00"> </text>
<polyline fill="none" stroke="black" points="0,-19 208,-19 "/>
<text text-anchor="middle" x="104" y="-7.8" font-family="Helvetica,sans-Serif" font-size="9.00"> </text>
</a>
</g>
</g>
<!-- Node0&#45;&gt;Node1 -->
<g id="edge1" class="edge"><title>Node0&#45;&gt;Node1</title>
<path fill="none" stroke="midnightblue" d="M104,-92.7162C104,-83.4731 104,-73.8199 104,-65.0732"/>
<polygon fill="none" stroke="midnightblue" points="100.5,-92.9075 104,-102.908 107.5,-92.9076 100.5,-92.9075"/>
</g>
</g>
</svg>
