<?xml version="1.0" encoding="UTF-8" standalone="no"?>
<!DOCTYPE svg PUBLIC "-//W3C//DTD SVG 1.1//EN"
 "http://www.w3.org/Graphics/SVG/1.1/DTD/svg11.dtd">
<!-- Generated by graphviz version 2.36.0 (20140111.2315)
 -->
<!-- Title: com.github.aptd.simulation.elements.graph.network.ITrack&lt; T extends ITrack&lt;?&gt; Pages: 1 -->
<!--zoomable 554 -->
<svg id="main" version="1.1" xmlns="http://www.w3.org/2000/svg" xmlns:xlink="http://www.w3.org/1999/xlink" xml:space="preserve" onload="init(evt)">
<style type="text/css"><![CDATA[
.edge:hover path { stroke: red; }
.edge:hover polygon { stroke: red; fill: red; }
]]></style>
<script type="text/javascript"><![CDATA[
var edges = document.getElementsByTagName('g');
if (edges && edges.length) {
  for (var i=0;i<edges.length;i++) {
    if (edges[i].id.substr(0,4)=='edge') {
      edges[i].setAttribute('class','edge');
    }
  }
}
]]></script>
        <defs>
                <circle id="rim" cx="0" cy="0" r="7"/>
                <circle id="rim2" cx="0" cy="0" r="3.5"/>
                <g id="zoomPlus">
                        <use xlink:href="#rim" fill="#404040">
                                <set attributeName="fill" to="#808080" begin="zoomplus.mouseover" end="zoomplus.mouseout"/>
                        </use>
                        <path d="M-4,0h8M0,-4v8" fill="none" stroke="white" stroke-width="1.5" pointer-events="none"/>
                </g>
                <g id="zoomMin">
                        <use xlink:href="#rim" fill="#404040">
                                <set attributeName="fill" to="#808080" begin="zoomminus.mouseover" end="zoomminus.mouseout"/>
                        </use>
                        <path d="M-4,0h8" fill="none" stroke="white" stroke-width="1.5" pointer-events="none"/>
                </g>
                <g id="dirArrow">
                        <path fill="none" stroke="white" stroke-width="1.5" d="M0,-3.0v7 M-2.5,-0.5L0,-3.0L2.5,-0.5"/>
                </g>
               <g id="resetDef">
                       <use xlink:href="#rim2" fill="#404040">
                               <set attributeName="fill" to="#808080" begin="reset.mouseover" end="reset.mouseout"/>
                       </use>
               </g>
        </defs>

<script type="text/javascript">
var viewWidth = 361;
var viewHeight = 554;
var sectionId = 'dynsection-0';
</script>
<script xlink:href="../../svgpan.js"/>
<svg id="graph" class="graph">
<g id="viewport">
<title>com.github.aptd.simulation.elements.graph.network.ITrack&lt; T extends ITrack&lt;?&gt;</title>
<!-- Node0 -->
<g id="node1" class="node"><title>Node0</title>
<polygon fill="#bfbfbf" stroke="black" points="31.5,-203 31.5,-267 260.5,-267 260.5,-203 31.5,-203"/>
<text text-anchor="start" x="39.5" y="-255.8" font-family="Helvetica,sans-Serif" font-size="9.00">com.github.aptd.simulation.elements.graph.network.</text>
<text text-anchor="middle" x="146" y="-245.8" font-family="Helvetica,sans-Serif" font-size="9.00">ITrack&lt; T extends ITrack&lt;?&gt;</text>
<polyline fill="none" stroke="black" points="31.5,-239 260.5,-239 "/>
<text text-anchor="middle" x="146" y="-227.8" font-family="Helvetica,sans-Serif" font-size="9.00"> </text>
<polyline fill="none" stroke="black" points="31.5,-221 260.5,-221 "/>
<text text-anchor="middle" x="146" y="-209.8" font-family="Helvetica,sans-Serif" font-size="9.00"> </text>
</g>
<!-- Node4 -->
<g id="node5" class="node"><title>Node4</title>
<g id="a_node5"><a xlink:href="../../d7/db3/classcom_1_1github_1_1aptd_1_1simulation_1_1elements_1_1graph_1_1network_1_1local_1_1CTrack.htm" target="_top" xlink:title="network edge class to link to nodestrack of the network ">
<polygon fill="none" stroke="black" points="0,-1 0,-155 106,-155 106,-1 0,-1"/>
<text text-anchor="start" x="8" y="-143.8" font-family="Helvetica,sans-Serif" font-size="9.00">com::github::aptd::</text>
<text text-anchor="start" x="8" y="-133.8" font-family="Helvetica,sans-Serif" font-size="9.00">simulation::elements</text>
<text text-anchor="start" x="8" y="-123.8" font-family="Helvetica,sans-Serif" font-size="9.00">::graph::network::local</text>
<text text-anchor="middle" x="53" y="-113.8" font-family="Helvetica,sans-Serif" font-size="9.00">::CTrack&lt; ITrack&lt;?&gt; &gt;</text>
<polyline fill="none" stroke="black" points="0,-107 106,-107 "/>
<text text-anchor="start" x="8" y="-95.8" font-family="Helvetica,sans-Serif" font-size="9.00">&#45; m_from</text>
<text text-anchor="start" x="8" y="-85.8" font-family="Helvetica,sans-Serif" font-size="9.00">&#45; m_maximumspeed</text>
<text text-anchor="start" x="8" y="-75.8" font-family="Helvetica,sans-Serif" font-size="9.00">&#45; m_to</text>
<text text-anchor="start" x="8" y="-65.8" font-family="Helvetica,sans-Serif" font-size="9.00">&#45; FUNCTOR</text>
<text text-anchor="start" x="8" y="-55.8" font-family="Helvetica,sans-Serif" font-size="9.00">&#45; serialVersionUID</text>
<polyline fill="none" stroke="black" points="0,-49 106,-49 "/>
<text text-anchor="start" x="8" y="-37.8" font-family="Helvetica,sans-Serif" font-size="9.00">+ from()</text>
<text text-anchor="start" x="8" y="-27.8" font-family="Helvetica,sans-Serif" font-size="9.00">+ to()</text>
<text text-anchor="start" x="8" y="-17.8" font-family="Helvetica,sans-Serif" font-size="9.00"># individualliteral()</text>
<text text-anchor="start" x="8" y="-7.8" font-family="Helvetica,sans-Serif" font-size="9.00">&#45; CTrack()</text>
</a>
</g>
</g>
<!-- Node0&#45;&gt;Node4 -->
<g id="edge4" class="edge"><title>Node0&#45;&gt;Node4</title>
<path fill="none" stroke="midnightblue" d="M121.923,-193.871C114.791,-181.984 106.734,-168.556 98.7082,-155.18"/>
<polygon fill="none" stroke="midnightblue" points="119.034,-195.859 127.18,-202.633 125.036,-192.258 119.034,-195.859"/>
</g>
<!-- Node5 -->
<g id="node6" class="node"><title>Node5</title>
<g id="a_node6"><a xlink:href="../../d1/da7/namespacecom_1_1github_1_1aptd_1_1simulation_1_1elements_1_1graph_1_1network.htm#d8/daf/interfacecom_1_1github_1_1aptd_1_1simulation_1_1elements_1_1graph_1_1network_1_1ITrack" target="_top" xlink:title="{com.github.aptd.simulation.elements.graph.network.\lITrack\&lt; ITrack\&lt;?\&gt; \&gt;\n||}">
<polygon fill="none" stroke="black" points="124.5,-46 124.5,-110 353.5,-110 353.5,-46 124.5,-46"/>
<text text-anchor="start" x="132.5" y="-98.8" font-family="Helvetica,sans-Serif" font-size="9.00">com.github.aptd.simulation.elements.graph.network.</text>
<text text-anchor="middle" x="239" y="-88.8" font-family="Helvetica,sans-Serif" font-size="9.00">ITrack&lt; ITrack&lt;?&gt; &gt;</text>
<polyline fill="none" stroke="black" points="124.5,-82 353.5,-82 "/>
<text text-anchor="middle" x="239" y="-70.8" font-family="Helvetica,sans-Serif" font-size="9.00"> </text>
<polyline fill="none" stroke="black" points="124.5,-64 353.5,-64 "/>
<text text-anchor="middle" x="239" y="-52.8" font-family="Helvetica,sans-Serif" font-size="9.00"> </text>
</a>
</g>
</g>
<!-- Node0&#45;&gt;Node5 -->
<g id="edge5" class="edge"><title>Node0&#45;&gt;Node5</title>
<path fill="none" stroke="orange" d="M170.16,-193.733C185.828,-167.62 205.935,-134.109 220.367,-110.055"/>
<polygon fill="orange" stroke="orange" points="166.964,-192.258 164.82,-202.633 172.966,-195.859 166.964,-192.258"/>
<text text-anchor="middle" x="210" y="-176.8" font-family="Helvetica,sans-Serif" font-size="9.00"> &lt; ITrack&lt;?&gt; &gt;</text>
</g>
<!-- Node1 -->
<g id="node2" class="node"><title>Node1</title>
<g id="a_node2"><a xlink:href="../../d1/d9f/interfacecom_1_1github_1_1aptd_1_1simulation_1_1elements_1_1graph_1_1IEdge.htm" target="_top" xlink:title="interface of edges ">
<polygon fill="none" stroke="black" points="38.5,-327 38.5,-411 173.5,-411 173.5,-327 38.5,-327"/>
<text text-anchor="start" x="46.5" y="-399.8" font-family="Helvetica,sans-Serif" font-size="9.00">com::github::aptd::</text>
<text text-anchor="start" x="46.5" y="-389.8" font-family="Helvetica,sans-Serif" font-size="9.00">simulation::elements</text>
<text text-anchor="middle" x="106" y="-379.8" font-family="Helvetica,sans-Serif" font-size="9.00">::graph::IEdge&lt; IStation&lt;?&gt; &gt;</text>
<polyline fill="none" stroke="black" points="38.5,-373 173.5,-373 "/>
<text text-anchor="middle" x="106" y="-361.8" font-family="Helvetica,sans-Serif" font-size="9.00"> </text>
<polyline fill="none" stroke="black" points="38.5,-355 173.5,-355 "/>
<text text-anchor="start" x="46.5" y="-343.8" font-family="Helvetica,sans-Serif" font-size="9.00">+ from()</text>
<text text-anchor="start" x="46.5" y="-333.8" font-family="Helvetica,sans-Serif" font-size="9.00">+ to()</text>
</a>
</g>
</g>
<!-- Node1&#45;&gt;Node0 -->
<g id="edge1" class="edge"><title>Node1&#45;&gt;Node0</title>
<path fill="none" stroke="midnightblue" d="M121.374,-317.264C126.465,-300.467 131.978,-282.274 136.494,-267.368"/>
<polygon fill="none" stroke="midnightblue" points="117.988,-316.373 118.437,-326.958 124.687,-318.403 117.988,-316.373"/>
</g>
<!-- Node2 -->
<g id="node3" class="node"><title>Node2</title>
<g id="a_node3"><a xlink:href="../../dd/dd7/interfacecom_1_1github_1_1aptd_1_1simulation_1_1elements_1_1IElement.htm" target="_top" xlink:title="any object interface ">
<polygon fill="none" stroke="black" points="191.5,-307 191.5,-431 292.5,-431 292.5,-307 191.5,-307"/>
<text text-anchor="start" x="199.5" y="-419.8" font-family="Helvetica,sans-Serif" font-size="9.00">com::github::aptd::</text>
<text text-anchor="start" x="199.5" y="-409.8" font-family="Helvetica,sans-Serif" font-size="9.00">simulation::elements</text>
<text text-anchor="middle" x="242" y="-399.8" font-family="Helvetica,sans-Serif" font-size="9.00">::IElement&lt; T &gt;</text>
<polyline fill="none" stroke="black" points="191.5,-393 292.5,-393 "/>
<text text-anchor="middle" x="242" y="-381.8" font-family="Helvetica,sans-Serif" font-size="9.00"> </text>
<polyline fill="none" stroke="black" points="191.5,-375 292.5,-375 "/>
<text text-anchor="start" x="199.5" y="-363.8" font-family="Helvetica,sans-Serif" font-size="9.00">+ environment()</text>
<text text-anchor="start" x="199.5" y="-353.8" font-family="Helvetica,sans-Serif" font-size="9.00">+ id()</text>
<text text-anchor="start" x="199.5" y="-343.8" font-family="Helvetica,sans-Serif" font-size="9.00">+ imminent()</text>
<text text-anchor="start" x="199.5" y="-333.8" font-family="Helvetica,sans-Serif" font-size="9.00">+ input()</text>
<text text-anchor="start" x="199.5" y="-323.8" font-family="Helvetica,sans-Serif" font-size="9.00">+ nextactivation()</text>
<text text-anchor="start" x="199.5" y="-313.8" font-family="Helvetica,sans-Serif" font-size="9.00">+ output()</text>
</a>
</g>
</g>
<!-- Node2&#45;&gt;Node0 -->
<g id="edge2" class="edge"><title>Node2&#45;&gt;Node0</title>
<path fill="none" stroke="midnightblue" d="M191.276,-298.255C183.31,-287.301 175.445,-276.486 168.561,-267.021"/>
<polygon fill="none" stroke="midnightblue" points="188.66,-300.608 197.373,-306.637 194.321,-296.491 188.66,-300.608"/>
</g>
<!-- Node3 -->
<g id="node4" class="node"><title>Node3</title>
<g id="a_node4"><a xlink:href="../../d4/d0d/interfacecom_1_1github_1_1aptd_1_1simulation_1_1elements_1_1IPerceiveable.htm" target="_top" xlink:title="any object which be perceived by an agent ">
<polygon fill="none" stroke="black" points="158,-471 158,-545 326,-545 326,-471 158,-471"/>
<text text-anchor="start" x="166" y="-533.8" font-family="Helvetica,sans-Serif" font-size="9.00">com.github.aptd.simulation.elements.</text>
<text text-anchor="middle" x="242" y="-523.8" font-family="Helvetica,sans-Serif" font-size="9.00">IPerceiveable</text>
<polyline fill="none" stroke="black" points="158,-517 326,-517 "/>
<text text-anchor="middle" x="242" y="-505.8" font-family="Helvetica,sans-Serif" font-size="9.00"> </text>
<polyline fill="none" stroke="black" points="158,-499 326,-499 "/>
<text text-anchor="start" x="166" y="-487.8" font-family="Helvetica,sans-Serif" font-size="9.00">+ literal()</text>
<text text-anchor="start" x="166" y="-477.8" font-family="Helvetica,sans-Serif" font-size="9.00">+ literal()</text>
</a>
</g>
</g>
<!-- Node3&#45;&gt;Node2 -->
<g id="edge3" class="edge"><title>Node3&#45;&gt;Node2</title>
<path fill="none" stroke="midnightblue" d="M242,-460.35C242,-450.963 242,-440.963 242,-431.166"/>
<polygon fill="none" stroke="midnightblue" points="238.5,-460.646 242,-470.646 245.5,-460.646 238.5,-460.646"/>
</g>
</g>
</svg>
        <g id="navigator" transform="translate(0 0)" fill="#404254">
                <rect fill="#f2f5e9" fill-opacity="0.5" stroke="#606060" stroke-width=".5" x="0" y="0" width="60" height="60"/>
                <use id="zoomplus" xlink:href="#zoomPlus" x="17" y="9" onmousedown="handleZoom(evt,'in')"/>
                <use id="zoomminus" xlink:href="#zoomMin" x="42" y="9" onmousedown="handleZoom(evt,'out')"/>
                <use id="reset" xlink:href="#resetDef" x="30" y="36" onmousedown="handleReset()"/>
                <g id="arrowUp" xlink:href="#dirArrow" transform="translate(30 24)" onmousedown="handlePan(0,-1)">
                  <use xlink:href="#rim" fill="#404040">
                        <set attributeName="fill" to="#808080" begin="arrowUp.mouseover" end="arrowUp.mouseout"/>
                  </use>
                  <path fill="none" stroke="white" stroke-width="1.5" d="M0,-3.0v7 M-2.5,-0.5L0,-3.0L2.5,-0.5"/>
                </g>
                <g id="arrowRight" xlink:href="#dirArrow" transform="rotate(90) translate(36 -43)" onmousedown="handlePan(1,0)">
                  <use xlink:href="#rim" fill="#404040">
                        <set attributeName="fill" to="#808080" begin="arrowRight.mouseover" end="arrowRight.mouseout"/>
                  </use>
                  <path fill="none" stroke="white" stroke-width="1.5" d="M0,-3.0v7 M-2.5,-0.5L0,-3.0L2.5,-0.5"/>
                </g>
                <g id="arrowDown" xlink:href="#dirArrow" transform="rotate(180) translate(-30 -48)" onmousedown="handlePan(0,1)">
                  <use xlink:href="#rim" fill="#404040">
                        <set attributeName="fill" to="#808080" begin="arrowDown.mouseover" end="arrowDown.mouseout"/>
                  </use>
                  <path fill="none" stroke="white" stroke-width="1.5" d="M0,-3.0v7 M-2.5,-0.5L0,-3.0L2.5,-0.5"/>
                </g>
                <g id="arrowLeft" xlink:href="#dirArrow" transform="rotate(270) translate(-36 17)" onmousedown="handlePan(-1,0)">
                  <use xlink:href="#rim" fill="#404040">
                        <set attributeName="fill" to="#808080" begin="arrowLeft.mouseover" end="arrowLeft.mouseout"/>
                  </use>
                  <path fill="none" stroke="white" stroke-width="1.5" d="M0,-3.0v7 M-2.5,-0.5L0,-3.0L2.5,-0.5"/>
                </g>
        </g>
        <svg viewBox="0 0 15 15" width="100%" height="30px" preserveAspectRatio="xMaxYMin meet">
         <g id="arrow_out" transform="scale(0.3 0.3)">
          <a xlink:href="interfacecom_1_1github_1_1aptd_1_1simulation_1_1elements_1_1graph_1_1network_1_1ITrack__inherit__graph_org.svg" target="_base">
           <rect id="button" ry="5" rx="5" y="6" x="6" height="38" width="38"
                fill="#f2f5e9" fill-opacity="0.5" stroke="#606060" stroke-width="1.0"/>
           <path id="arrow"
             d="M 11.500037,31.436501 C 11.940474,20.09759 22.043105,11.32322 32.158766,21.979434 L 37.068811,17.246167 C 37.068811,17.246167 37.088388,32 37.088388,32 L 22.160133,31.978069 C 22.160133,31.978069 26.997745,27.140456 26.997745,27.140456 C 18.528582,18.264221 13.291696,25.230495 11.500037,31.436501 z"
             style="fill:#404040;"/>
          </a>
         </g>
        </svg>
</svg>
