<?xml version="1.0" encoding="UTF-8" standalone="no"?>
<!DOCTYPE svg PUBLIC "-//W3C//DTD SVG 1.1//EN"
 "http://www.w3.org/Graphics/SVG/1.1/DTD/svg11.dtd">
<!-- Generated by graphviz version 2.36.0 (20140111.2315)
 -->
<!-- Title: com.github.aptd.simulation.elements.train.IDoor&lt; T extends IDoor&lt;?&gt; Pages: 1 -->
<svg width="402pt" height="818pt"
 viewBox="0.00 0.00 402.00 818.00" xmlns="http://www.w3.org/2000/svg" xmlns:xlink="http://www.w3.org/1999/xlink">
<g id="graph0" class="graph" transform="scale(1 1) rotate(0) translate(4 814)">
<title>com.github.aptd.simulation.elements.train.IDoor&lt; T extends IDoor&lt;?&gt;</title>
<!-- Node0 -->
<g id="node1" class="node"><title>Node0</title>
<polygon fill="#bfbfbf" stroke="black" points="21,-467 21,-531 209,-531 209,-467 21,-467"/>
<text text-anchor="start" x="29" y="-519.8" font-family="Helvetica,sans-Serif" font-size="9.00">com.github.aptd.simulation.elements.train.</text>
<text text-anchor="middle" x="115" y="-509.8" font-family="Helvetica,sans-Serif" font-size="9.00">IDoor&lt; T extends IDoor&lt;?&gt;</text>
<polyline fill="none" stroke="black" points="21,-503 209,-503 "/>
<text text-anchor="middle" x="115" y="-491.8" font-family="Helvetica,sans-Serif" font-size="9.00"> </text>
<polyline fill="none" stroke="black" points="21,-485 209,-485 "/>
<text text-anchor="middle" x="115" y="-473.8" font-family="Helvetica,sans-Serif" font-size="9.00"> </text>
</g>
<!-- Node3 -->
<g id="node4" class="node"><title>Node3</title>
<g id="a_node4"><a xlink:href="../../df/d94/namespacecom_1_1github_1_1aptd_1_1simulation_1_1elements_1_1train.htm#d2/d6c/interfacecom_1_1github_1_1aptd_1_1simulation_1_1elements_1_1train_1_1IDoor" target="_top" xlink:title="{com.github.aptd.simulation.elements.train.\lIDoor\&lt;?\&gt;\n||}">
<polygon fill="none" stroke="black" points="0,-355 0,-419 188,-419 188,-355 0,-355"/>
<text text-anchor="start" x="8" y="-407.8" font-family="Helvetica,sans-Serif" font-size="9.00">com.github.aptd.simulation.elements.train.</text>
<text text-anchor="middle" x="94" y="-397.8" font-family="Helvetica,sans-Serif" font-size="9.00">IDoor&lt;?&gt;</text>
<polyline fill="none" stroke="black" points="0,-391 188,-391 "/>
<text text-anchor="middle" x="94" y="-379.8" font-family="Helvetica,sans-Serif" font-size="9.00"> </text>
<polyline fill="none" stroke="black" points="0,-373 188,-373 "/>
<text text-anchor="middle" x="94" y="-361.8" font-family="Helvetica,sans-Serif" font-size="9.00"> </text>
</a>
</g>
</g>
<!-- Node0&#45;&gt;Node3 -->
<g id="edge3" class="edge"><title>Node0&#45;&gt;Node3</title>
<path fill="none" stroke="orange" d="M107.109,-456.667C104.746,-444.289 102.195,-430.925 99.9765,-419.305"/>
<polygon fill="orange" stroke="orange" points="103.725,-457.606 109.038,-466.773 110.601,-456.294 103.725,-457.606"/>
<text text-anchor="middle" x="115.5" y="-440.8" font-family="Helvetica,sans-Serif" font-size="9.00"> &lt;?&gt;</text>
</g>
<!-- Node4 -->
<g id="node5" class="node"><title>Node4</title>
<g id="a_node5"><a xlink:href="../../d2/d6c/interfacecom_1_1github_1_1aptd_1_1simulation_1_1elements_1_1train_1_1IDoor.htm" target="_top" xlink:title="{com.github.aptd.simulation.elements.train.\lIDoor\&lt; IDoor\&lt;?\&gt; \&gt;\n||}">
<polygon fill="none" stroke="black" points="206,-355 206,-419 394,-419 394,-355 206,-355"/>
<text text-anchor="start" x="214" y="-407.8" font-family="Helvetica,sans-Serif" font-size="9.00">com.github.aptd.simulation.elements.train.</text>
<text text-anchor="middle" x="300" y="-397.8" font-family="Helvetica,sans-Serif" font-size="9.00">IDoor&lt; IDoor&lt;?&gt; &gt;</text>
<polyline fill="none" stroke="black" points="206,-391 394,-391 "/>
<text text-anchor="middle" x="300" y="-379.8" font-family="Helvetica,sans-Serif" font-size="9.00"> </text>
<polyline fill="none" stroke="black" points="206,-373 394,-373 "/>
<text text-anchor="middle" x="300" y="-361.8" font-family="Helvetica,sans-Serif" font-size="9.00"> </text>
</a>
</g>
</g>
<!-- Node0&#45;&gt;Node4 -->
<g id="edge4" class="edge"><title>Node0&#45;&gt;Node4</title>
<path fill="none" stroke="orange" d="M176.223,-461.597C199.349,-447.846 225.432,-432.338 247.67,-419.115"/>
<polygon fill="orange" stroke="orange" points="174.325,-458.653 167.519,-466.773 177.903,-464.67 174.325,-458.653"/>
<text text-anchor="middle" x="242" y="-440.8" font-family="Helvetica,sans-Serif" font-size="9.00"> &lt; IDoor&lt;?&gt; &gt;</text>
</g>
<!-- Node1 -->
<g id="node2" class="node"><title>Node1</title>
<g id="a_node2"><a xlink:href="../../dd/dd7/interfacecom_1_1github_1_1aptd_1_1simulation_1_1elements_1_1IElement.htm" target="_top" xlink:title="any object interface ">
<polygon fill="none" stroke="black" points="64.5,-571 64.5,-695 165.5,-695 165.5,-571 64.5,-571"/>
<text text-anchor="start" x="72.5" y="-683.8" font-family="Helvetica,sans-Serif" font-size="9.00">com::github::aptd::</text>
<text text-anchor="start" x="72.5" y="-673.8" font-family="Helvetica,sans-Serif" font-size="9.00">simulation::elements</text>
<text text-anchor="middle" x="115" y="-663.8" font-family="Helvetica,sans-Serif" font-size="9.00">::IElement&lt; T &gt;</text>
<polyline fill="none" stroke="black" points="64.5,-657 165.5,-657 "/>
<text text-anchor="middle" x="115" y="-645.8" font-family="Helvetica,sans-Serif" font-size="9.00"> </text>
<polyline fill="none" stroke="black" points="64.5,-639 165.5,-639 "/>
<text text-anchor="start" x="72.5" y="-627.8" font-family="Helvetica,sans-Serif" font-size="9.00">+ environment()</text>
<text text-anchor="start" x="72.5" y="-617.8" font-family="Helvetica,sans-Serif" font-size="9.00">+ id()</text>
<text text-anchor="start" x="72.5" y="-607.8" font-family="Helvetica,sans-Serif" font-size="9.00">+ imminent()</text>
<text text-anchor="start" x="72.5" y="-597.8" font-family="Helvetica,sans-Serif" font-size="9.00">+ input()</text>
<text text-anchor="start" x="72.5" y="-587.8" font-family="Helvetica,sans-Serif" font-size="9.00">+ nextactivation()</text>
<text text-anchor="start" x="72.5" y="-577.8" font-family="Helvetica,sans-Serif" font-size="9.00">+ output()</text>
</a>
</g>
</g>
<!-- Node1&#45;&gt;Node0 -->
<g id="edge1" class="edge"><title>Node1&#45;&gt;Node0</title>
<path fill="none" stroke="midnightblue" d="M115,-560.323C115,-550.034 115,-539.93 115,-531.021"/>
<polygon fill="none" stroke="midnightblue" points="111.5,-560.637 115,-570.637 118.5,-560.637 111.5,-560.637"/>
</g>
<!-- Node2 -->
<g id="node3" class="node"><title>Node2</title>
<g id="a_node3"><a xlink:href="../../d4/d0d/interfacecom_1_1github_1_1aptd_1_1simulation_1_1elements_1_1IPerceiveable.htm" target="_top" xlink:title="any object which be perceived by an agent ">
<polygon fill="none" stroke="black" points="31,-735 31,-809 199,-809 199,-735 31,-735"/>
<text text-anchor="start" x="39" y="-797.8" font-family="Helvetica,sans-Serif" font-size="9.00">com.github.aptd.simulation.elements.</text>
<text text-anchor="middle" x="115" y="-787.8" font-family="Helvetica,sans-Serif" font-size="9.00">IPerceiveable</text>
<polyline fill="none" stroke="black" points="31,-781 199,-781 "/>
<text text-anchor="middle" x="115" y="-769.8" font-family="Helvetica,sans-Serif" font-size="9.00"> </text>
<polyline fill="none" stroke="black" points="31,-763 199,-763 "/>
<text text-anchor="start" x="39" y="-751.8" font-family="Helvetica,sans-Serif" font-size="9.00">+ literal()</text>
<text text-anchor="start" x="39" y="-741.8" font-family="Helvetica,sans-Serif" font-size="9.00">+ literal()</text>
</a>
</g>
</g>
<!-- Node2&#45;&gt;Node1 -->
<g id="edge2" class="edge"><title>Node2&#45;&gt;Node1</title>
<path fill="none" stroke="midnightblue" d="M115,-724.35C115,-714.963 115,-704.963 115,-695.166"/>
<polygon fill="none" stroke="midnightblue" points="111.5,-724.646 115,-734.646 118.5,-724.646 111.5,-724.646"/>
</g>
<!-- Node5 -->
<g id="node6" class="node"><title>Node5</title>
<g id="a_node6"><a xlink:href="../../d1/d3a/classcom_1_1github_1_1aptd_1_1simulation_1_1elements_1_1train_1_1CDoor.htm" target="_top" xlink:title="door class ">
<polygon fill="none" stroke="black" points="206,-1 206,-315 394,-315 394,-1 206,-1"/>
<text text-anchor="start" x="214" y="-303.8" font-family="Helvetica,sans-Serif" font-size="9.00">com.github.aptd.simulation.elements.train.</text>
<text text-anchor="middle" x="300" y="-293.8" font-family="Helvetica,sans-Serif" font-size="9.00">CDoor</text>
<polyline fill="none" stroke="black" points="206,-287 394,-287 "/>
<text text-anchor="start" x="214" y="-275.8" font-family="Helvetica,sans-Serif" font-size="9.00">&#45; m_closingspeed</text>
<text text-anchor="start" x="214" y="-265.8" font-family="Helvetica,sans-Serif" font-size="9.00">&#45; m_entryqueue</text>
<text text-anchor="start" x="214" y="-255.8" font-family="Helvetica,sans-Serif" font-size="9.00">&#45; m_exitqueue</text>
<text text-anchor="start" x="214" y="-245.8" font-family="Helvetica,sans-Serif" font-size="9.00">&#45; m_freetime</text>
<text text-anchor="start" x="214" y="-235.8" font-family="Helvetica,sans-Serif" font-size="9.00">&#45; m_minfreetimetoclose</text>
<text text-anchor="start" x="214" y="-225.8" font-family="Helvetica,sans-Serif" font-size="9.00">&#45; m_openingspeed</text>
<text text-anchor="start" x="214" y="-215.8" font-family="Helvetica,sans-Serif" font-size="9.00">&#45; m_openwidth</text>
<text text-anchor="start" x="214" y="-205.8" font-family="Helvetica,sans-Serif" font-size="9.00">&#45; m_platformid</text>
<text text-anchor="start" x="214" y="-195.8" font-family="Helvetica,sans-Serif" font-size="9.00">&#45; m_state</text>
<text text-anchor="start" x="214" y="-185.8" font-family="Helvetica,sans-Serif" font-size="9.00">&#45; m_stationid</text>
<text text-anchor="start" x="214" y="-175.8" font-family="Helvetica,sans-Serif" font-size="9.00">&#45; m_train</text>
<text text-anchor="start" x="214" y="-165.8" font-family="Helvetica,sans-Serif" font-size="9.00">&#45; m_width</text>
<text text-anchor="start" x="214" y="-155.8" font-family="Helvetica,sans-Serif" font-size="9.00">&#45; FUNCTOR</text>
<text text-anchor="start" x="214" y="-145.8" font-family="Helvetica,sans-Serif" font-size="9.00">&#45; serialVersionUID</text>
<polyline fill="none" stroke="black" points="206,-139 394,-139 "/>
<text text-anchor="start" x="214" y="-127.8" font-family="Helvetica,sans-Serif" font-size="9.00"># CDoor()</text>
<text text-anchor="start" x="214" y="-117.8" font-family="Helvetica,sans-Serif" font-size="9.00"># determinenextstatechange()</text>
<text text-anchor="start" x="214" y="-107.8" font-family="Helvetica,sans-Serif" font-size="9.00"># individualliteral()</text>
<text text-anchor="start" x="214" y="-97.8" font-family="Helvetica,sans-Serif" font-size="9.00"># updatecontinuous()</text>
<text text-anchor="start" x="214" y="-87.8" font-family="Helvetica,sans-Serif" font-size="9.00"># updatestate()</text>
<text text-anchor="start" x="214" y="-77.8" font-family="Helvetica,sans-Serif" font-size="9.00"># writeState()</text>
<text text-anchor="start" x="214" y="-67.8" font-family="Helvetica,sans-Serif" font-size="9.00">&#45; debugPrintState()</text>
<text text-anchor="start" x="214" y="-57.8" font-family="Helvetica,sans-Serif" font-size="9.00">&#45; handletrainmessages()</text>
<text text-anchor="start" x="214" y="-47.8" font-family="Helvetica,sans-Serif" font-size="9.00">&#45; lockifrequested()</text>
<text text-anchor="start" x="214" y="-37.8" font-family="Helvetica,sans-Serif" font-size="9.00">&#45; nextpassengerifpossible()</text>
<text text-anchor="start" x="214" y="-27.8" font-family="Helvetica,sans-Serif" font-size="9.00">&#45; passengerfinished()</text>
<text text-anchor="start" x="214" y="-17.8" font-family="Helvetica,sans-Serif" font-size="9.00">&#45; timedstatechangeifnecessary()</text>
<text text-anchor="start" x="214" y="-7.8" font-family="Helvetica,sans-Serif" font-size="9.00">&#45; unlockifrequested()</text>
</a>
</g>
</g>
<!-- Node4&#45;&gt;Node5 -->
<g id="edge5" class="edge"><title>Node4&#45;&gt;Node5</title>
<path fill="none" stroke="midnightblue" d="M300,-344.852C300,-335.85 300,-325.808 300,-315.181"/>
<polygon fill="none" stroke="midnightblue" points="296.5,-344.913 300,-354.913 303.5,-344.913 296.5,-344.913"/>
</g>
</g>
</svg>
