<?xml version="1.0" encoding="UTF-8" standalone="no"?>
<!DOCTYPE svg PUBLIC "-//W3C//DTD SVG 1.1//EN"
 "http://www.w3.org/Graphics/SVG/1.1/DTD/svg11.dtd">
<!-- Generated by graphviz version 2.36.0 (20140111.2315)
 -->
<!-- Title: com.github.aptd.simulation.core.experiment.IExperiment.CEmptyExperiment Pages: 1 -->
<svg width="261pt" height="338pt"
 viewBox="0.00 0.00 261.00 338.00" xmlns="http://www.w3.org/2000/svg" xmlns:xlink="http://www.w3.org/1999/xlink">
<g id="graph0" class="graph" transform="scale(1 1) rotate(0) translate(4 334)">
<title>com.github.aptd.simulation.core.experiment.IExperiment.CEmptyExperiment</title>
<!-- Node2 -->
<g id="node1" class="node"><title>Node2</title>
<polygon fill="#bfbfbf" stroke="black" points="-0.5,-1 -0.5,-145 196.5,-145 196.5,-1 -0.5,-1"/>
<text text-anchor="start" x="7.5" y="-133.8" font-family="Helvetica,sans-Serif" font-size="9.00">com.github.aptd.simulation.core.experiment.</text>
<text text-anchor="middle" x="98" y="-123.8" font-family="Helvetica,sans-Serif" font-size="9.00">IExperiment.CEmptyExperiment</text>
<polyline fill="none" stroke="black" points="-0.5,-117 196.5,-117 "/>
<text text-anchor="middle" x="98" y="-105.8" font-family="Helvetica,sans-Serif" font-size="9.00"> </text>
<polyline fill="none" stroke="black" points="-0.5,-99 196.5,-99 "/>
<text text-anchor="start" x="7.5" y="-87.8" font-family="Helvetica,sans-Serif" font-size="9.00">+ actions()</text>
<text text-anchor="start" x="7.5" y="-77.8" font-family="Helvetica,sans-Serif" font-size="9.00">+ addAgent()</text>
<text text-anchor="start" x="7.5" y="-67.8" font-family="Helvetica,sans-Serif" font-size="9.00">+ getAgent()</text>
<text text-anchor="start" x="7.5" y="-57.8" font-family="Helvetica,sans-Serif" font-size="9.00">+ objects()</text>
<text text-anchor="start" x="7.5" y="-47.8" font-family="Helvetica,sans-Serif" font-size="9.00">+ parallel()</text>
<text text-anchor="start" x="7.5" y="-37.8" font-family="Helvetica,sans-Serif" font-size="9.00">+ preprocess()</text>
<text text-anchor="start" x="7.5" y="-27.8" font-family="Helvetica,sans-Serif" font-size="9.00">+ simulationsteps()</text>
<text text-anchor="start" x="7.5" y="-17.8" font-family="Helvetica,sans-Serif" font-size="9.00">+ statistic()</text>
<text text-anchor="start" x="7.5" y="-7.8" font-family="Helvetica,sans-Serif" font-size="9.00">+ time()</text>
</g>
<!-- Node3 -->
<g id="node2" class="node"><title>Node3</title>
<g id="a_node2"><a xlink:href="../../de/d57/interfacecom_1_1github_1_1aptd_1_1simulation_1_1core_1_1experiment_1_1IExperiment.htm" target="_top" xlink:title="a single experiment run ">
<polygon fill="none" stroke="black" points="-0.5,-185 -0.5,-329 196.5,-329 196.5,-185 -0.5,-185"/>
<text text-anchor="start" x="7.5" y="-317.8" font-family="Helvetica,sans-Serif" font-size="9.00">com.github.aptd.simulation.core.experiment.</text>
<text text-anchor="middle" x="98" y="-307.8" font-family="Helvetica,sans-Serif" font-size="9.00">IExperiment</text>
<polyline fill="none" stroke="black" points="-0.5,-301 196.5,-301 "/>
<text text-anchor="middle" x="98" y="-289.8" font-family="Helvetica,sans-Serif" font-size="9.00"> </text>
<polyline fill="none" stroke="black" points="-0.5,-283 196.5,-283 "/>
<text text-anchor="start" x="7.5" y="-271.8" font-family="Helvetica,sans-Serif" font-size="9.00">+ actions()</text>
<text text-anchor="start" x="7.5" y="-261.8" font-family="Helvetica,sans-Serif" font-size="9.00">+ addAgent()</text>
<text text-anchor="start" x="7.5" y="-251.8" font-family="Helvetica,sans-Serif" font-size="9.00">+ getAgent()</text>
<text text-anchor="start" x="7.5" y="-241.8" font-family="Helvetica,sans-Serif" font-size="9.00">+ objects()</text>
<text text-anchor="start" x="7.5" y="-231.8" font-family="Helvetica,sans-Serif" font-size="9.00">+ parallel()</text>
<text text-anchor="start" x="7.5" y="-221.8" font-family="Helvetica,sans-Serif" font-size="9.00">+ preprocess()</text>
<text text-anchor="start" x="7.5" y="-211.8" font-family="Helvetica,sans-Serif" font-size="9.00">+ simulationsteps()</text>
<text text-anchor="start" x="7.5" y="-201.8" font-family="Helvetica,sans-Serif" font-size="9.00">+ statistic()</text>
<text text-anchor="start" x="7.5" y="-191.8" font-family="Helvetica,sans-Serif" font-size="9.00">+ time()</text>
</a>
</g>
</g>
<!-- Node3&#45;&gt;Node2 -->
<g id="edge1" class="edge"><title>Node3&#45;&gt;Node2</title>
<path fill="none" stroke="midnightblue" d="M98,-174.656C98,-164.8 98,-154.791 98,-145.098"/>
<polygon fill="none" stroke="midnightblue" points="94.5001,-174.852 98,-184.852 101.5,-174.852 94.5001,-174.852"/>
</g>
<!-- Node3&#45;&gt;Node3 -->
<g id="edge2" class="edge"><title>Node3&#45;&gt;Node3</title>
<path fill="none" stroke="#404040" d="M196.588,-271.403C207.184,-268.629 214,-263.828 214,-257 214,-253.052 211.722,-249.782 207.752,-247.19"/>
<polygon fill="none" stroke="#404040" points="207.685,-247.163 200.615,-248.579 196.588,-242.597 203.659,-241.181 207.685,-247.163"/>
<text text-anchor="middle" x="233.5" y="-254.8" font-family="Helvetica,sans-Serif" font-size="9.00"> +EMPTY</text>
</g>
</g>
</svg>
