<?xml version="1.0" encoding="UTF-8" standalone="no"?>
<!DOCTYPE svg PUBLIC "-//W3C//DTD SVG 1.1//EN"
 "http://www.w3.org/Graphics/SVG/1.1/DTD/svg11.dtd">
<!-- Generated by graphviz version 2.36.0 (20140111.2315)
 -->
<!-- Title: com.github.aptd.simulation.core.statistic.local.CStatistic.apply Pages: 1 -->
<svg width="422pt" height="83pt"
 viewBox="0.00 0.00 422.00 83.00" xmlns="http://www.w3.org/2000/svg" xmlns:xlink="http://www.w3.org/1999/xlink">
<g id="graph0" class="graph" transform="scale(1 1) rotate(0) translate(4 79)">
<title>com.github.aptd.simulation.core.statistic.local.CStatistic.apply</title>
<!-- Node2 -->
<g id="node1" class="node"><title>Node2</title>
<polygon fill="#bfbfbf" stroke="black" points="0.5,-23 0.5,-51 203.5,-51 203.5,-23 0.5,-23"/>
<text text-anchor="start" x="8.5" y="-39.8" font-family="Helvetica,sans-Serif" font-size="9.00">com.github.aptd.simulation.core.statistic.local.</text>
<text text-anchor="middle" x="102" y="-29.8" font-family="Helvetica,sans-Serif" font-size="9.00">CStatistic.apply</text>
</g>
<!-- Node3 -->
<g id="node2" class="node"><title>Node3</title>
<g id="a_node2"><a xlink:href="../../de/df0/interfacecom_1_1github_1_1aptd_1_1simulation_1_1core_1_1writer_1_1IWriter.htm#a15cd02b58c8bbda91cedb188c9199858" target="_top" xlink:title="add a new section to the out put ">
<polygon fill="none" stroke="black" points="240.5,-47 240.5,-75 413.5,-75 413.5,-47 240.5,-47"/>
<text text-anchor="start" x="248.5" y="-63.8" font-family="Helvetica,sans-Serif" font-size="9.00">com.github.aptd.simulation.core.writer.</text>
<text text-anchor="middle" x="327" y="-53.8" font-family="Helvetica,sans-Serif" font-size="9.00">IWriter.section</text>
</a>
</g>
</g>
<!-- Node2&#45;&gt;Node3 -->
<g id="edge1" class="edge"><title>Node2&#45;&gt;Node3</title>
<path fill="none" stroke="midnightblue" d="M203.735,-47.8415C212.529,-48.7879 221.413,-49.744 230.165,-50.686"/>
<polygon fill="midnightblue" stroke="midnightblue" points="230.049,-54.1936 240.367,-51.7839 230.799,-47.2338 230.049,-54.1936"/>
</g>
<!-- Node4 -->
<g id="node3" class="node"><title>Node4</title>
<g id="a_node3"><a xlink:href="../../de/df0/interfacecom_1_1github_1_1aptd_1_1simulation_1_1core_1_1writer_1_1IWriter.htm#a71fe0b6f90acd77564d08c0ecabcb1b8" target="_top" xlink:title="adds a single value ">
<polygon fill="none" stroke="black" points="240.5,-0 240.5,-28 413.5,-28 413.5,-0 240.5,-0"/>
<text text-anchor="start" x="248.5" y="-16.8" font-family="Helvetica,sans-Serif" font-size="9.00">com.github.aptd.simulation.core.writer.</text>
<text text-anchor="middle" x="327" y="-6.8" font-family="Helvetica,sans-Serif" font-size="9.00">IWriter.value</text>
</a>
</g>
</g>
<!-- Node2&#45;&gt;Node4 -->
<g id="edge2" class="edge"><title>Node2&#45;&gt;Node4</title>
<path fill="none" stroke="midnightblue" d="M203.735,-26.6103C212.529,-25.7033 221.413,-24.787 230.165,-23.8843"/>
<polygon fill="midnightblue" stroke="midnightblue" points="230.778,-27.3397 240.367,-22.8321 230.06,-20.3766 230.778,-27.3397"/>
</g>
</g>
</svg>
