<?xml version="1.0" encoding="UTF-8" standalone="no"?>
<!DOCTYPE svg PUBLIC "-//W3C//DTD SVG 1.1//EN"
 "http://www.w3.org/Graphics/SVG/1.1/DTD/svg11.dtd">
<!-- Generated by graphviz version 2.36.0 (20140111.2315)
 -->
<!-- Title: com.github.aptd.simulation.core.statistic.local.CStatistic.write Pages: 1 -->
<svg width="662pt" height="83pt"
 viewBox="0.00 0.00 662.00 83.00" xmlns="http://www.w3.org/2000/svg" xmlns:xlink="http://www.w3.org/1999/xlink">
<g id="graph0" class="graph" transform="scale(1 1) rotate(0) translate(4 79)">
<title>com.github.aptd.simulation.core.statistic.local.CStatistic.write</title>
<!-- Node7 -->
<g id="node1" class="node"><title>Node7</title>
<polygon fill="#bfbfbf" stroke="black" points="0.5,-23 0.5,-51 203.5,-51 203.5,-23 0.5,-23"/>
<text text-anchor="start" x="8.5" y="-39.8" font-family="Helvetica,sans-Serif" font-size="9.00">com.github.aptd.simulation.core.statistic.local.</text>
<text text-anchor="middle" x="102" y="-29.8" font-family="Helvetica,sans-Serif" font-size="9.00">CStatistic.write</text>
</g>
<!-- Node8 -->
<g id="node2" class="node"><title>Node8</title>
<g id="a_node2"><a xlink:href="../../de/d3a/classcom_1_1github_1_1aptd_1_1simulation_1_1core_1_1statistic_1_1local_1_1CStatistic.htm#a2b412f2fbd71f943d2b4b3d25d39c14c" target="_top" xlink:title="write data ">
<polygon fill="none" stroke="black" points="240.5,-23 240.5,-51 443.5,-51 443.5,-23 240.5,-23"/>
<text text-anchor="start" x="248.5" y="-39.8" font-family="Helvetica,sans-Serif" font-size="9.00">com.github.aptd.simulation.core.statistic.local.</text>
<text text-anchor="middle" x="342" y="-29.8" font-family="Helvetica,sans-Serif" font-size="9.00">CStatistic.apply</text>
</a>
</g>
</g>
<!-- Node7&#45;&gt;Node8 -->
<g id="edge1" class="edge"><title>Node7&#45;&gt;Node8</title>
<path fill="none" stroke="midnightblue" d="M203.588,-37C212.437,-37 221.426,-37 230.351,-37"/>
<polygon fill="midnightblue" stroke="midnightblue" points="230.39,-40.5001 240.39,-37 230.39,-33.5001 230.39,-40.5001"/>
</g>
<!-- Node9 -->
<g id="node3" class="node"><title>Node9</title>
<g id="a_node3"><a xlink:href="../../de/df0/interfacecom_1_1github_1_1aptd_1_1simulation_1_1core_1_1writer_1_1IWriter.htm#a15cd02b58c8bbda91cedb188c9199858" target="_top" xlink:title="add a new section to the out put ">
<polygon fill="none" stroke="black" points="480.5,-47 480.5,-75 653.5,-75 653.5,-47 480.5,-47"/>
<text text-anchor="start" x="488.5" y="-63.8" font-family="Helvetica,sans-Serif" font-size="9.00">com.github.aptd.simulation.core.writer.</text>
<text text-anchor="middle" x="567" y="-53.8" font-family="Helvetica,sans-Serif" font-size="9.00">IWriter.section</text>
</a>
</g>
</g>
<!-- Node8&#45;&gt;Node9 -->
<g id="edge2" class="edge"><title>Node8&#45;&gt;Node9</title>
<path fill="none" stroke="midnightblue" d="M443.735,-47.8415C452.529,-48.7879 461.413,-49.744 470.165,-50.686"/>
<polygon fill="midnightblue" stroke="midnightblue" points="470.049,-54.1936 480.367,-51.7839 470.799,-47.2338 470.049,-54.1936"/>
</g>
<!-- Node10 -->
<g id="node4" class="node"><title>Node10</title>
<g id="a_node4"><a xlink:href="../../de/df0/interfacecom_1_1github_1_1aptd_1_1simulation_1_1core_1_1writer_1_1IWriter.htm#a71fe0b6f90acd77564d08c0ecabcb1b8" target="_top" xlink:title="adds a single value ">
<polygon fill="none" stroke="black" points="480.5,-0 480.5,-28 653.5,-28 653.5,-0 480.5,-0"/>
<text text-anchor="start" x="488.5" y="-16.8" font-family="Helvetica,sans-Serif" font-size="9.00">com.github.aptd.simulation.core.writer.</text>
<text text-anchor="middle" x="567" y="-6.8" font-family="Helvetica,sans-Serif" font-size="9.00">IWriter.value</text>
</a>
</g>
</g>
<!-- Node8&#45;&gt;Node10 -->
<g id="edge3" class="edge"><title>Node8&#45;&gt;Node10</title>
<path fill="none" stroke="midnightblue" d="M443.735,-26.6103C452.529,-25.7033 461.413,-24.787 470.165,-23.8843"/>
<polygon fill="midnightblue" stroke="midnightblue" points="470.778,-27.3397 480.367,-22.8321 470.06,-20.3766 470.778,-27.3397"/>
</g>
</g>
</svg>
