<?xml version="1.0" encoding="UTF-8" standalone="no"?>
<!DOCTYPE svg PUBLIC "-//W3C//DTD SVG 1.1//EN"
 "http://www.w3.org/Graphics/SVG/1.1/DTD/svg11.dtd">
<!-- Generated by graphviz version 2.36.0 (20140111.2315)
 -->
<!-- Title: com.github.aptd.simulation.elements.graph.network.local.IBaseStation Pages: 1 -->
<!--zoomable 1042 -->
<svg id="main" version="1.1" xmlns="http://www.w3.org/2000/svg" xmlns:xlink="http://www.w3.org/1999/xlink" xml:space="preserve" onload="init(evt)">
<style type="text/css"><![CDATA[
.edge:hover path { stroke: red; }
.edge:hover polygon { stroke: red; fill: red; }
]]></style>
<script type="text/javascript"><![CDATA[
var edges = document.getElementsByTagName('g');
if (edges && edges.length) {
  for (var i=0;i<edges.length;i++) {
    if (edges[i].id.substr(0,4)=='edge') {
      edges[i].setAttribute('class','edge');
    }
  }
}
]]></script>
        <defs>
                <circle id="rim" cx="0" cy="0" r="7"/>
                <circle id="rim2" cx="0" cy="0" r="3.5"/>
                <g id="zoomPlus">
                        <use xlink:href="#rim" fill="#404040">
                                <set attributeName="fill" to="#808080" begin="zoomplus.mouseover" end="zoomplus.mouseout"/>
                        </use>
                        <path d="M-4,0h8M0,-4v8" fill="none" stroke="white" stroke-width="1.5" pointer-events="none"/>
                </g>
                <g id="zoomMin">
                        <use xlink:href="#rim" fill="#404040">
                                <set attributeName="fill" to="#808080" begin="zoomminus.mouseover" end="zoomminus.mouseout"/>
                        </use>
                        <path d="M-4,0h8" fill="none" stroke="white" stroke-width="1.5" pointer-events="none"/>
                </g>
                <g id="dirArrow">
                        <path fill="none" stroke="white" stroke-width="1.5" d="M0,-3.0v7 M-2.5,-0.5L0,-3.0L2.5,-0.5"/>
                </g>
               <g id="resetDef">
                       <use xlink:href="#rim2" fill="#404040">
                               <set attributeName="fill" to="#808080" begin="reset.mouseover" end="reset.mouseout"/>
                       </use>
               </g>
        </defs>

<script type="text/javascript">
var viewWidth = 796;
var viewHeight = 1042;
var sectionId = 'dynsection-0';
</script>
<script xlink:href="../../svgpan.js"/>
<svg id="graph" class="graph">
<g id="viewport">
<title>com.github.aptd.simulation.elements.graph.network.local.IBaseStation</title>
<!-- Node0 -->
<g id="node1" class="node"><title>Node0</title>
<polygon fill="#bfbfbf" stroke="black" points="268.5,-125 268.5,-229 519.5,-229 519.5,-125 268.5,-125"/>
<text text-anchor="start" x="276.5" y="-217.8" font-family="Helvetica,sans-Serif" font-size="9.00">com.github.aptd.simulation.elements.graph.network.local.</text>
<text text-anchor="middle" x="394" y="-207.8" font-family="Helvetica,sans-Serif" font-size="9.00">IBaseStation</text>
<polyline fill="none" stroke="black" points="268.5,-201 519.5,-201 "/>
<text text-anchor="start" x="276.5" y="-189.8" font-family="Helvetica,sans-Serif" font-size="9.00"># BASEFUNCTOR</text>
<text text-anchor="start" x="276.5" y="-179.8" font-family="Helvetica,sans-Serif" font-size="9.00">&#45; m_position</text>
<text text-anchor="start" x="276.5" y="-169.8" font-family="Helvetica,sans-Serif" font-size="9.00">&#45; serialVersionUID</text>
<polyline fill="none" stroke="black" points="268.5,-163 519.5,-163 "/>
<text text-anchor="start" x="276.5" y="-151.8" font-family="Helvetica,sans-Serif" font-size="9.00">+ gps()</text>
<text text-anchor="start" x="276.5" y="-141.8" font-family="Helvetica,sans-Serif" font-size="9.00"># IBaseStation()</text>
<text text-anchor="start" x="276.5" y="-131.8" font-family="Helvetica,sans-Serif" font-size="9.00"># individualliteral()</text>
</g>
<!-- Node8 -->
<g id="node9" class="node"><title>Node8</title>
<g id="a_node9"><a xlink:href="../../d6/d36/classcom_1_1github_1_1aptd_1_1simulation_1_1elements_1_1graph_1_1network_1_1local_1_1CStation.htm" target="_top" xlink:title="full station with different tracks and building ">
<polygon fill="none" stroke="black" points="-0.5,-1 -0.5,-85 250.5,-85 250.5,-1 -0.5,-1"/>
<text text-anchor="start" x="7.5" y="-73.8" font-family="Helvetica,sans-Serif" font-size="9.00">com.github.aptd.simulation.elements.graph.network.local.</text>
<text text-anchor="middle" x="125" y="-63.8" font-family="Helvetica,sans-Serif" font-size="9.00">CStation</text>
<polyline fill="none" stroke="black" points="-0.5,-57 250.5,-57 "/>
<text text-anchor="start" x="7.5" y="-45.8" font-family="Helvetica,sans-Serif" font-size="9.00">&#45; m_platformoccupation</text>
<text text-anchor="start" x="7.5" y="-35.8" font-family="Helvetica,sans-Serif" font-size="9.00">&#45; FUNCTOR</text>
<text text-anchor="start" x="7.5" y="-25.8" font-family="Helvetica,sans-Serif" font-size="9.00">&#45; serialVersionUID</text>
<polyline fill="none" stroke="black" points="-0.5,-19 250.5,-19 "/>
<text text-anchor="start" x="7.5" y="-7.8" font-family="Helvetica,sans-Serif" font-size="9.00">&#45; CStation()</text>
</a>
</g>
</g>
<!-- Node0&#45;&gt;Node8 -->
<g id="edge9" class="edge"><title>Node0&#45;&gt;Node8</title>
<path fill="none" stroke="midnightblue" d="M280.794,-120.449C256.641,-108.597 231.549,-96.2843 208.739,-85.0914"/>
<polygon fill="none" stroke="midnightblue" points="279.478,-123.702 289.998,-124.965 282.562,-117.418 279.478,-123.702"/>
</g>
<!-- Node9 -->
<g id="node10" class="node"><title>Node9</title>
<g id="a_node10"><a xlink:href="../../d8/d3b/classcom_1_1github_1_1aptd_1_1simulation_1_1elements_1_1graph_1_1network_1_1local_1_1CTransit.htm" target="_top" xlink:title="transit station class to define a station without details of tracks ">
<polygon fill="none" stroke="black" points="268.5,-6 268.5,-80 519.5,-80 519.5,-6 268.5,-6"/>
<text text-anchor="start" x="276.5" y="-68.8" font-family="Helvetica,sans-Serif" font-size="9.00">com.github.aptd.simulation.elements.graph.network.local.</text>
<text text-anchor="middle" x="394" y="-58.8" font-family="Helvetica,sans-Serif" font-size="9.00">CTransit</text>
<polyline fill="none" stroke="black" points="268.5,-52 519.5,-52 "/>
<text text-anchor="start" x="276.5" y="-40.8" font-family="Helvetica,sans-Serif" font-size="9.00">&#45; FUNCTOR</text>
<text text-anchor="start" x="276.5" y="-30.8" font-family="Helvetica,sans-Serif" font-size="9.00">&#45; serialVersionUID</text>
<polyline fill="none" stroke="black" points="268.5,-24 519.5,-24 "/>
<text text-anchor="start" x="276.5" y="-12.8" font-family="Helvetica,sans-Serif" font-size="9.00">&#45; CTransit()</text>
</a>
</g>
</g>
<!-- Node0&#45;&gt;Node9 -->
<g id="edge10" class="edge"><title>Node0&#45;&gt;Node9</title>
<path fill="none" stroke="midnightblue" d="M394,-114.679C394,-102.872 394,-90.8642 394,-80.1773"/>
<polygon fill="none" stroke="midnightblue" points="390.5,-114.965 394,-124.965 397.5,-114.965 390.5,-114.965"/>
</g>
<!-- Node10 -->
<g id="node11" class="node"><title>Node10</title>
<g id="a_node11"><a xlink:href="../../da/db4/classcom_1_1github_1_1aptd_1_1simulation_1_1elements_1_1graph_1_1network_1_1local_1_1CVirtual.htm" target="_top" xlink:title="virtual node ">
<polygon fill="none" stroke="black" points="537.5,-6 537.5,-80 788.5,-80 788.5,-6 537.5,-6"/>
<text text-anchor="start" x="545.5" y="-68.8" font-family="Helvetica,sans-Serif" font-size="9.00">com.github.aptd.simulation.elements.graph.network.local.</text>
<text text-anchor="middle" x="663" y="-58.8" font-family="Helvetica,sans-Serif" font-size="9.00">CVirtual</text>
<polyline fill="none" stroke="black" points="537.5,-52 788.5,-52 "/>
<text text-anchor="start" x="545.5" y="-40.8" font-family="Helvetica,sans-Serif" font-size="9.00">&#45; FUNCTOR</text>
<text text-anchor="start" x="545.5" y="-30.8" font-family="Helvetica,sans-Serif" font-size="9.00">&#45; serialVersionUID</text>
<polyline fill="none" stroke="black" points="537.5,-24 788.5,-24 "/>
<text text-anchor="start" x="545.5" y="-12.8" font-family="Helvetica,sans-Serif" font-size="9.00">&#45; CVirtual()</text>
</a>
</g>
</g>
<!-- Node0&#45;&gt;Node10 -->
<g id="edge11" class="edge"><title>Node0&#45;&gt;Node10</title>
<path fill="none" stroke="midnightblue" d="M506.982,-120.559C534.794,-106.911 563.867,-92.6454 589.275,-80.1773"/>
<polygon fill="none" stroke="midnightblue" points="505.438,-117.418 498.002,-124.965 508.522,-123.702 505.438,-117.418"/>
</g>
<!-- Node1 -->
<g id="node2" class="node"><title>Node1</title>
<g id="a_node2"><a xlink:href="../../d6/df3/classcom_1_1github_1_1aptd_1_1simulation_1_1elements_1_1IBaseElement.htm" target="_top" xlink:title="base simulation element structure ">
<polygon fill="none" stroke="black" points="251,-269 251,-593 391,-593 391,-269 251,-269"/>
<text text-anchor="start" x="259" y="-581.8" font-family="Helvetica,sans-Serif" font-size="9.00">com::github::aptd::</text>
<text text-anchor="start" x="259" y="-571.8" font-family="Helvetica,sans-Serif" font-size="9.00">simulation::elements</text>
<text text-anchor="middle" x="321" y="-561.8" font-family="Helvetica,sans-Serif" font-size="9.00">::IBaseElement&lt; IStation&lt;?&gt; &gt;</text>
<polyline fill="none" stroke="black" points="251,-555 391,-555 "/>
<text text-anchor="start" x="259" y="-543.8" font-family="Helvetica,sans-Serif" font-size="9.00"># m_id</text>
<text text-anchor="start" x="259" y="-533.8" font-family="Helvetica,sans-Serif" font-size="9.00"># m_input</text>
<text text-anchor="start" x="259" y="-523.8" font-family="Helvetica,sans-Serif" font-size="9.00"># m_nextactivation</text>
<text text-anchor="start" x="259" y="-513.8" font-family="Helvetica,sans-Serif" font-size="9.00"># m_time</text>
<text text-anchor="start" x="259" y="-503.8" font-family="Helvetica,sans-Serif" font-size="9.00">&#45; m_environment</text>
<text text-anchor="start" x="259" y="-493.8" font-family="Helvetica,sans-Serif" font-size="9.00">&#45; m_external</text>
<text text-anchor="start" x="259" y="-483.8" font-family="Helvetica,sans-Serif" font-size="9.00">&#45; m_functor</text>
<text text-anchor="start" x="259" y="-473.8" font-family="Helvetica,sans-Serif" font-size="9.00">&#45; m_timezone</text>
<text text-anchor="start" x="259" y="-463.8" font-family="Helvetica,sans-Serif" font-size="9.00">&#45; serialVersionUID</text>
<polyline fill="none" stroke="black" points="251,-457 391,-457 "/>
<text text-anchor="start" x="259" y="-445.8" font-family="Helvetica,sans-Serif" font-size="9.00">+ call()</text>
<text text-anchor="start" x="259" y="-435.8" font-family="Helvetica,sans-Serif" font-size="9.00">+ environment()</text>
<text text-anchor="start" x="259" y="-425.8" font-family="Helvetica,sans-Serif" font-size="9.00">+ equals()</text>
<text text-anchor="start" x="259" y="-415.8" font-family="Helvetica,sans-Serif" font-size="9.00">+ hashCode()</text>
<text text-anchor="start" x="259" y="-405.8" font-family="Helvetica,sans-Serif" font-size="9.00">+ id()</text>
<text text-anchor="start" x="259" y="-395.8" font-family="Helvetica,sans-Serif" font-size="9.00">+ imminent()</text>
<text text-anchor="start" x="259" y="-385.8" font-family="Helvetica,sans-Serif" font-size="9.00">+ input()</text>
<text text-anchor="start" x="259" y="-375.8" font-family="Helvetica,sans-Serif" font-size="9.00">+ literal()</text>
<text text-anchor="start" x="259" y="-365.8" font-family="Helvetica,sans-Serif" font-size="9.00">+ literal()</text>
<text text-anchor="start" x="259" y="-355.8" font-family="Helvetica,sans-Serif" font-size="9.00">+ nextactivation()</text>
<text text-anchor="start" x="259" y="-345.8" font-family="Helvetica,sans-Serif" font-size="9.00">+ output()</text>
<text text-anchor="start" x="259" y="-335.8" font-family="Helvetica,sans-Serif" font-size="9.00">+ toString()</text>
<text text-anchor="start" x="259" y="-325.8" font-family="Helvetica,sans-Serif" font-size="9.00"># IBaseElement()</text>
<text text-anchor="start" x="259" y="-315.8" font-family="Helvetica,sans-Serif" font-size="9.00"># individualliteral()</text>
<text text-anchor="start" x="259" y="-305.8" font-family="Helvetica,sans-Serif" font-size="9.00">&#45; currentTime()</text>
<text text-anchor="start" x="259" y="-295.8" font-family="Helvetica,sans-Serif" font-size="9.00">&#45; getNextActivation()</text>
<text text-anchor="start" x="259" y="-285.8" font-family="Helvetica,sans-Serif" font-size="9.00">&#45; maxTime()</text>
<text text-anchor="start" x="259" y="-275.8" font-family="Helvetica,sans-Serif" font-size="9.00">&#45; setNextActivation()</text>
</a>
</g>
</g>
<!-- Node1&#45;&gt;Node0 -->
<g id="edge1" class="edge"><title>Node1&#45;&gt;Node0</title>
<path fill="none" stroke="midnightblue" d="M370.481,-259.19C373.529,-248.668 376.438,-238.625 379.106,-229.414"/>
<polygon fill="none" stroke="midnightblue" points="367.066,-258.399 367.645,-268.978 373.79,-260.347 367.066,-258.399"/>
</g>
<!-- Node2 -->
<g id="node3" class="node"><title>Node2</title>
<g id="a_node3"><a xlink:href="../../dd/dd7/interfacecom_1_1github_1_1aptd_1_1simulation_1_1elements_1_1IElement.htm" target="_top" xlink:title="{com.github.aptd.simulation.elements.\lIElement\&lt; N \&gt;\n||+ environment()\l+ id()\l+ imminent()\l+ input()\l+ nextactivation()\l+ output()\l}">
<polygon fill="none" stroke="black" points="190,-633 190,-747 358,-747 358,-633 190,-633"/>
<text text-anchor="start" x="198" y="-735.8" font-family="Helvetica,sans-Serif" font-size="9.00">com.github.aptd.simulation.elements.</text>
<text text-anchor="middle" x="274" y="-725.8" font-family="Helvetica,sans-Serif" font-size="9.00">IElement&lt; N &gt;</text>
<polyline fill="none" stroke="black" points="190,-719 358,-719 "/>
<text text-anchor="middle" x="274" y="-707.8" font-family="Helvetica,sans-Serif" font-size="9.00"> </text>
<polyline fill="none" stroke="black" points="190,-701 358,-701 "/>
<text text-anchor="start" x="198" y="-689.8" font-family="Helvetica,sans-Serif" font-size="9.00">+ environment()</text>
<text text-anchor="start" x="198" y="-679.8" font-family="Helvetica,sans-Serif" font-size="9.00">+ id()</text>
<text text-anchor="start" x="198" y="-669.8" font-family="Helvetica,sans-Serif" font-size="9.00">+ imminent()</text>
<text text-anchor="start" x="198" y="-659.8" font-family="Helvetica,sans-Serif" font-size="9.00">+ input()</text>
<text text-anchor="start" x="198" y="-649.8" font-family="Helvetica,sans-Serif" font-size="9.00">+ nextactivation()</text>
<text text-anchor="start" x="198" y="-639.8" font-family="Helvetica,sans-Serif" font-size="9.00">+ output()</text>
</a>
</g>
</g>
<!-- Node2&#45;&gt;Node1 -->
<g id="edge2" class="edge"><title>Node2&#45;&gt;Node1</title>
<path fill="none" stroke="midnightblue" d="M286.079,-622.949C287.801,-613.535 289.631,-603.531 291.515,-593.226"/>
<polygon fill="none" stroke="midnightblue" points="282.612,-622.451 284.256,-632.918 289.498,-623.711 282.612,-622.451"/>
</g>
<!-- Node3 -->
<g id="node4" class="node"><title>Node3</title>
<g id="a_node4"><a xlink:href="../../dd/dd7/interfacecom_1_1github_1_1aptd_1_1simulation_1_1elements_1_1IElement.htm" target="_top" xlink:title="any object interface ">
<polygon fill="none" stroke="black" points="190,-800 190,-914 358,-914 358,-800 190,-800"/>
<text text-anchor="start" x="198" y="-902.8" font-family="Helvetica,sans-Serif" font-size="9.00">com.github.aptd.simulation.elements.</text>
<text text-anchor="middle" x="274" y="-892.8" font-family="Helvetica,sans-Serif" font-size="9.00">IElement&lt; T extends IAgent&lt;?&gt;</text>
<polyline fill="none" stroke="black" points="190,-886 358,-886 "/>
<text text-anchor="middle" x="274" y="-874.8" font-family="Helvetica,sans-Serif" font-size="9.00"> </text>
<polyline fill="none" stroke="black" points="190,-868 358,-868 "/>
<text text-anchor="start" x="198" y="-856.8" font-family="Helvetica,sans-Serif" font-size="9.00">+ environment()</text>
<text text-anchor="start" x="198" y="-846.8" font-family="Helvetica,sans-Serif" font-size="9.00">+ id()</text>
<text text-anchor="start" x="198" y="-836.8" font-family="Helvetica,sans-Serif" font-size="9.00">+ imminent()</text>
<text text-anchor="start" x="198" y="-826.8" font-family="Helvetica,sans-Serif" font-size="9.00">+ input()</text>
<text text-anchor="start" x="198" y="-816.8" font-family="Helvetica,sans-Serif" font-size="9.00">+ nextactivation()</text>
<text text-anchor="start" x="198" y="-806.8" font-family="Helvetica,sans-Serif" font-size="9.00">+ output()</text>
</a>
</g>
</g>
<!-- Node3&#45;&gt;Node2 -->
<g id="edge3" class="edge"><title>Node3&#45;&gt;Node2</title>
<path fill="none" stroke="orange" d="M274,-789.558C274,-775.468 274,-760.728 274,-747.068"/>
<polygon fill="orange" stroke="orange" points="270.5,-789.678 274,-799.678 277.5,-789.678 270.5,-789.678"/>
<text text-anchor="middle" x="286.5" y="-768.8" font-family="Helvetica,sans-Serif" font-size="9.00"> &lt; N &gt;</text>
</g>
<!-- Node4 -->
<g id="node5" class="node"><title>Node4</title>
<g id="a_node5"><a xlink:href="../../d4/d0d/interfacecom_1_1github_1_1aptd_1_1simulation_1_1elements_1_1IPerceiveable.htm" target="_top" xlink:title="any object which be perceived by an agent ">
<polygon fill="none" stroke="black" points="282,-959 282,-1033 450,-1033 450,-959 282,-959"/>
<text text-anchor="start" x="290" y="-1021.8" font-family="Helvetica,sans-Serif" font-size="9.00">com.github.aptd.simulation.elements.</text>
<text text-anchor="middle" x="366" y="-1011.8" font-family="Helvetica,sans-Serif" font-size="9.00">IPerceiveable</text>
<polyline fill="none" stroke="black" points="282,-1005 450,-1005 "/>
<text text-anchor="middle" x="366" y="-993.8" font-family="Helvetica,sans-Serif" font-size="9.00"> </text>
<polyline fill="none" stroke="black" points="282,-987 450,-987 "/>
<text text-anchor="start" x="290" y="-975.8" font-family="Helvetica,sans-Serif" font-size="9.00">+ literal()</text>
<text text-anchor="start" x="290" y="-965.8" font-family="Helvetica,sans-Serif" font-size="9.00">+ literal()</text>
</a>
</g>
</g>
<!-- Node4&#45;&gt;Node3 -->
<g id="edge4" class="edge"><title>Node4&#45;&gt;Node3</title>
<path fill="none" stroke="midnightblue" d="M335.842,-950.091C328.135,-938.613 319.751,-926.129 311.716,-914.165"/>
<polygon fill="none" stroke="midnightblue" points="333.107,-952.296 341.587,-958.646 338.918,-948.393 333.107,-952.296"/>
</g>
<!-- Node7 -->
<g id="node8" class="node"><title>Node7</title>
<g id="a_node8"><a xlink:href="../../dd/dd7/interfacecom_1_1github_1_1aptd_1_1simulation_1_1elements_1_1IElement.htm" target="_top" xlink:title="any object interface ">
<polygon fill="none" stroke="black" points="376.5,-795 376.5,-919 477.5,-919 477.5,-795 376.5,-795"/>
<text text-anchor="start" x="384.5" y="-907.8" font-family="Helvetica,sans-Serif" font-size="9.00">com::github::aptd::</text>
<text text-anchor="start" x="384.5" y="-897.8" font-family="Helvetica,sans-Serif" font-size="9.00">simulation::elements</text>
<text text-anchor="middle" x="427" y="-887.8" font-family="Helvetica,sans-Serif" font-size="9.00">::IElement&lt; T &gt;</text>
<polyline fill="none" stroke="black" points="376.5,-881 477.5,-881 "/>
<text text-anchor="middle" x="427" y="-869.8" font-family="Helvetica,sans-Serif" font-size="9.00"> </text>
<polyline fill="none" stroke="black" points="376.5,-863 477.5,-863 "/>
<text text-anchor="start" x="384.5" y="-851.8" font-family="Helvetica,sans-Serif" font-size="9.00">+ environment()</text>
<text text-anchor="start" x="384.5" y="-841.8" font-family="Helvetica,sans-Serif" font-size="9.00">+ id()</text>
<text text-anchor="start" x="384.5" y="-831.8" font-family="Helvetica,sans-Serif" font-size="9.00">+ imminent()</text>
<text text-anchor="start" x="384.5" y="-821.8" font-family="Helvetica,sans-Serif" font-size="9.00">+ input()</text>
<text text-anchor="start" x="384.5" y="-811.8" font-family="Helvetica,sans-Serif" font-size="9.00">+ nextactivation()</text>
<text text-anchor="start" x="384.5" y="-801.8" font-family="Helvetica,sans-Serif" font-size="9.00">+ output()</text>
</a>
</g>
</g>
<!-- Node4&#45;&gt;Node7 -->
<g id="edge8" class="edge"><title>Node4&#45;&gt;Node7</title>
<path fill="none" stroke="midnightblue" d="M386.367,-949.257C390.664,-939.608 395.262,-929.279 399.765,-919.166"/>
<polygon fill="none" stroke="midnightblue" points="383.057,-948.087 382.187,-958.646 389.452,-950.934 383.057,-948.087"/>
</g>
<!-- Node5 -->
<g id="node6" class="node"><title>Node5</title>
<g id="a_node6"><a xlink:href="../../d7/d7a/interfacecom_1_1github_1_1aptd_1_1simulation_1_1elements_1_1graph_1_1network_1_1IStation.htm" target="_top" xlink:title="interface of a node, which is a train station ">
<polygon fill="none" stroke="black" points="376.5,-648 376.5,-732 493.5,-732 493.5,-648 376.5,-648"/>
<text text-anchor="start" x="384.5" y="-720.8" font-family="Helvetica,sans-Serif" font-size="9.00">com::github::aptd::</text>
<text text-anchor="start" x="384.5" y="-710.8" font-family="Helvetica,sans-Serif" font-size="9.00">simulation::elements</text>
<text text-anchor="start" x="384.5" y="-700.8" font-family="Helvetica,sans-Serif" font-size="9.00">::graph::network::IStation</text>
<text text-anchor="middle" x="435" y="-690.8" font-family="Helvetica,sans-Serif" font-size="9.00">&lt; IStation&lt;?&gt; &gt;</text>
<polyline fill="none" stroke="black" points="376.5,-684 493.5,-684 "/>
<text text-anchor="middle" x="435" y="-672.8" font-family="Helvetica,sans-Serif" font-size="9.00"> </text>
<polyline fill="none" stroke="black" points="376.5,-666 493.5,-666 "/>
<text text-anchor="start" x="384.5" y="-654.8" font-family="Helvetica,sans-Serif" font-size="9.00">+ gps()</text>
</a>
</g>
</g>
<!-- Node5&#45;&gt;Node0 -->
<g id="edge5" class="edge"><title>Node5&#45;&gt;Node0</title>
<path fill="none" stroke="midnightblue" d="M430.856,-637.353C422.981,-539.205 405.942,-326.842 398.101,-229.111"/>
<polygon fill="none" stroke="midnightblue" points="427.391,-637.928 431.68,-647.616 434.368,-637.368 427.391,-637.928"/>
</g>
<!-- Node6 -->
<g id="node7" class="node"><title>Node6</title>
<g id="a_node7"><a xlink:href="../../de/d20/interfacecom_1_1github_1_1aptd_1_1simulation_1_1elements_1_1graph_1_1IVertex.htm" target="_top" xlink:title="interface of graph nodes ">
<polygon fill="none" stroke="black" points="495.5,-820 495.5,-894 596.5,-894 596.5,-820 495.5,-820"/>
<text text-anchor="start" x="503.5" y="-882.8" font-family="Helvetica,sans-Serif" font-size="9.00">com::github::aptd::</text>
<text text-anchor="start" x="503.5" y="-872.8" font-family="Helvetica,sans-Serif" font-size="9.00">simulation::elements</text>
<text text-anchor="middle" x="546" y="-862.8" font-family="Helvetica,sans-Serif" font-size="9.00">::graph::IVertex&lt; T &gt;</text>
<polyline fill="none" stroke="black" points="495.5,-856 596.5,-856 "/>
<text text-anchor="middle" x="546" y="-844.8" font-family="Helvetica,sans-Serif" font-size="9.00"> </text>
<polyline fill="none" stroke="black" points="495.5,-838 596.5,-838 "/>
<text text-anchor="middle" x="546" y="-826.8" font-family="Helvetica,sans-Serif" font-size="9.00"> </text>
</a>
</g>
</g>
<!-- Node6&#45;&gt;Node5 -->
<g id="edge6" class="edge"><title>Node6&#45;&gt;Node5</title>
<path fill="none" stroke="midnightblue" d="M515.939,-811.315C499.326,-786.62 478.832,-756.155 462.623,-732.061"/>
<polygon fill="none" stroke="midnightblue" points="513.155,-813.446 521.641,-819.79 518.963,-809.539 513.155,-813.446"/>
</g>
<!-- Node7&#45;&gt;Node5 -->
<g id="edge7" class="edge"><title>Node7&#45;&gt;Node5</title>
<path fill="none" stroke="midnightblue" d="M430.479,-784.24C431.338,-766.539 432.228,-748.166 432.99,-732.457"/>
<polygon fill="none" stroke="midnightblue" points="426.967,-784.402 429.979,-794.56 433.959,-784.741 426.967,-784.402"/>
</g>
</g>
</svg>
        <g id="navigator" transform="translate(0 0)" fill="#404254">
                <rect fill="#f2f5e9" fill-opacity="0.5" stroke="#606060" stroke-width=".5" x="0" y="0" width="60" height="60"/>
                <use id="zoomplus" xlink:href="#zoomPlus" x="17" y="9" onmousedown="handleZoom(evt,'in')"/>
                <use id="zoomminus" xlink:href="#zoomMin" x="42" y="9" onmousedown="handleZoom(evt,'out')"/>
                <use id="reset" xlink:href="#resetDef" x="30" y="36" onmousedown="handleReset()"/>
                <g id="arrowUp" xlink:href="#dirArrow" transform="translate(30 24)" onmousedown="handlePan(0,-1)">
                  <use xlink:href="#rim" fill="#404040">
                        <set attributeName="fill" to="#808080" begin="arrowUp.mouseover" end="arrowUp.mouseout"/>
                  </use>
                  <path fill="none" stroke="white" stroke-width="1.5" d="M0,-3.0v7 M-2.5,-0.5L0,-3.0L2.5,-0.5"/>
                </g>
                <g id="arrowRight" xlink:href="#dirArrow" transform="rotate(90) translate(36 -43)" onmousedown="handlePan(1,0)">
                  <use xlink:href="#rim" fill="#404040">
                        <set attributeName="fill" to="#808080" begin="arrowRight.mouseover" end="arrowRight.mouseout"/>
                  </use>
                  <path fill="none" stroke="white" stroke-width="1.5" d="M0,-3.0v7 M-2.5,-0.5L0,-3.0L2.5,-0.5"/>
                </g>
                <g id="arrowDown" xlink:href="#dirArrow" transform="rotate(180) translate(-30 -48)" onmousedown="handlePan(0,1)">
                  <use xlink:href="#rim" fill="#404040">
                        <set attributeName="fill" to="#808080" begin="arrowDown.mouseover" end="arrowDown.mouseout"/>
                  </use>
                  <path fill="none" stroke="white" stroke-width="1.5" d="M0,-3.0v7 M-2.5,-0.5L0,-3.0L2.5,-0.5"/>
                </g>
                <g id="arrowLeft" xlink:href="#dirArrow" transform="rotate(270) translate(-36 17)" onmousedown="handlePan(-1,0)">
                  <use xlink:href="#rim" fill="#404040">
                        <set attributeName="fill" to="#808080" begin="arrowLeft.mouseover" end="arrowLeft.mouseout"/>
                  </use>
                  <path fill="none" stroke="white" stroke-width="1.5" d="M0,-3.0v7 M-2.5,-0.5L0,-3.0L2.5,-0.5"/>
                </g>
        </g>
        <svg viewBox="0 0 15 15" width="100%" height="30px" preserveAspectRatio="xMaxYMin meet">
         <g id="arrow_out" transform="scale(0.3 0.3)">
          <a xlink:href="classcom_1_1github_1_1aptd_1_1simulation_1_1elements_1_1graph_1_1network_1_1local_1_1IBaseStation__inherit__graph_org.svg" target="_base">
           <rect id="button" ry="5" rx="5" y="6" x="6" height="38" width="38"
                fill="#f2f5e9" fill-opacity="0.5" stroke="#606060" stroke-width="1.0"/>
           <path id="arrow"
             d="M 11.500037,31.436501 C 11.940474,20.09759 22.043105,11.32322 32.158766,21.979434 L 37.068811,17.246167 C 37.068811,17.246167 37.088388,32 37.088388,32 L 22.160133,31.978069 C 22.160133,31.978069 26.997745,27.140456 26.997745,27.140456 C 18.528582,18.264221 13.291696,25.230495 11.500037,31.436501 z"
             style="fill:#404040;"/>
          </a>
         </g>
        </svg>
</svg>
