<?xml version="1.0" encoding="UTF-8" standalone="no"?>
<!DOCTYPE svg PUBLIC "-//W3C//DTD SVG 1.1//EN"
 "http://www.w3.org/Graphics/SVG/1.1/DTD/svg11.dtd">
<!-- Generated by graphviz version 2.36.0 (20140111.2315)
 -->
<!-- Title: com.github.aptd.simulation.elements.graph.network.IPlatform&lt; T extends IPlatform&lt;?&gt; Pages: 1 -->
<svg width="393pt" height="594pt"
 viewBox="0.00 0.00 393.00 594.00" xmlns="http://www.w3.org/2000/svg" xmlns:xlink="http://www.w3.org/1999/xlink">
<g id="graph0" class="graph" transform="scale(1 1) rotate(0) translate(4 590)">
<title>com.github.aptd.simulation.elements.graph.network.IPlatform&lt; T extends IPlatform&lt;?&gt;</title>
<!-- Node0 -->
<g id="node1" class="node"><title>Node0</title>
<polygon fill="#bfbfbf" stroke="black" points="55.5,-243 55.5,-307 284.5,-307 284.5,-243 55.5,-243"/>
<text text-anchor="start" x="63.5" y="-295.8" font-family="Helvetica,sans-Serif" font-size="9.00">com.github.aptd.simulation.elements.graph.network.</text>
<text text-anchor="middle" x="170" y="-285.8" font-family="Helvetica,sans-Serif" font-size="9.00">IPlatform&lt; T extends IPlatform&lt;?&gt;</text>
<polyline fill="none" stroke="black" points="55.5,-279 284.5,-279 "/>
<text text-anchor="middle" x="170" y="-267.8" font-family="Helvetica,sans-Serif" font-size="9.00"> </text>
<polyline fill="none" stroke="black" points="55.5,-261 284.5,-261 "/>
<text text-anchor="start" x="63.5" y="-249.8" font-family="Helvetica,sans-Serif" font-size="9.00">+ stationid()</text>
</g>
<!-- Node3 -->
<g id="node4" class="node"><title>Node3</title>
<g id="a_node4"><a xlink:href="../../d2/d1c/classcom_1_1github_1_1aptd_1_1simulation_1_1elements_1_1graph_1_1network_1_1local_1_1CPlatform.htm" target="_top" xlink:title="platform class ">
<polygon fill="none" stroke="black" points="-0.5,-1 -0.5,-195 138.5,-195 138.5,-1 -0.5,-1"/>
<text text-anchor="start" x="7.5" y="-183.8" font-family="Helvetica,sans-Serif" font-size="9.00">com::github::aptd::</text>
<text text-anchor="start" x="7.5" y="-173.8" font-family="Helvetica,sans-Serif" font-size="9.00">simulation::elements</text>
<text text-anchor="start" x="7.5" y="-163.8" font-family="Helvetica,sans-Serif" font-size="9.00">::graph::network::local</text>
<text text-anchor="middle" x="69" y="-153.8" font-family="Helvetica,sans-Serif" font-size="9.00">::CPlatform&lt; IPlatform&lt;?&gt; &gt;</text>
<polyline fill="none" stroke="black" points="-0.5,-147 138.5,-147 "/>
<text text-anchor="start" x="7.5" y="-135.8" font-family="Helvetica,sans-Serif" font-size="9.00">&#45; m_doors</text>
<text text-anchor="start" x="7.5" y="-125.8" font-family="Helvetica,sans-Serif" font-size="9.00">&#45; m_passengers</text>
<text text-anchor="start" x="7.5" y="-115.8" font-family="Helvetica,sans-Serif" font-size="9.00">&#45; m_stationid</text>
<text text-anchor="start" x="7.5" y="-105.8" font-family="Helvetica,sans-Serif" font-size="9.00">&#45; m_train</text>
<text text-anchor="start" x="7.5" y="-95.8" font-family="Helvetica,sans-Serif" font-size="9.00">&#45; FUNCTOR</text>
<text text-anchor="start" x="7.5" y="-85.8" font-family="Helvetica,sans-Serif" font-size="9.00">&#45; serialVersionUID</text>
<polyline fill="none" stroke="black" points="-0.5,-79 138.5,-79 "/>
<text text-anchor="start" x="7.5" y="-67.8" font-family="Helvetica,sans-Serif" font-size="9.00">+ stationid()</text>
<text text-anchor="start" x="7.5" y="-57.8" font-family="Helvetica,sans-Serif" font-size="9.00"># determinenextstatechange()</text>
<text text-anchor="start" x="7.5" y="-47.8" font-family="Helvetica,sans-Serif" font-size="9.00"># individualliteral()</text>
<text text-anchor="start" x="7.5" y="-37.8" font-family="Helvetica,sans-Serif" font-size="9.00"># updatecontinuous()</text>
<text text-anchor="start" x="7.5" y="-27.8" font-family="Helvetica,sans-Serif" font-size="9.00"># updatestate()</text>
<text text-anchor="start" x="7.5" y="-17.8" font-family="Helvetica,sans-Serif" font-size="9.00"># writeState()</text>
<text text-anchor="start" x="7.5" y="-7.8" font-family="Helvetica,sans-Serif" font-size="9.00">&#45; CPlatform()</text>
</a>
</g>
</g>
<!-- Node0&#45;&gt;Node3 -->
<g id="edge3" class="edge"><title>Node0&#45;&gt;Node3</title>
<path fill="none" stroke="midnightblue" d="M146.762,-233.736C140.037,-222.083 132.39,-208.835 124.58,-195.303"/>
<polygon fill="none" stroke="midnightblue" points="143.913,-235.802 151.943,-242.714 149.976,-232.303 143.913,-235.802"/>
</g>
<!-- Node4 -->
<g id="node5" class="node"><title>Node4</title>
<g id="a_node5"><a xlink:href="../../db/d3d/interfacecom_1_1github_1_1aptd_1_1simulation_1_1elements_1_1graph_1_1network_1_1IPlatform.htm" target="_top" xlink:title="{com.github.aptd.simulation.elements.graph.network.\lIPlatform\&lt; IPlatform\&lt;?\&gt; \&gt;\n||+ stationid()\l}">
<polygon fill="none" stroke="black" points="156.5,-66 156.5,-130 385.5,-130 385.5,-66 156.5,-66"/>
<text text-anchor="start" x="164.5" y="-118.8" font-family="Helvetica,sans-Serif" font-size="9.00">com.github.aptd.simulation.elements.graph.network.</text>
<text text-anchor="middle" x="271" y="-108.8" font-family="Helvetica,sans-Serif" font-size="9.00">IPlatform&lt; IPlatform&lt;?&gt; &gt;</text>
<polyline fill="none" stroke="black" points="156.5,-102 385.5,-102 "/>
<text text-anchor="middle" x="271" y="-90.8" font-family="Helvetica,sans-Serif" font-size="9.00"> </text>
<polyline fill="none" stroke="black" points="156.5,-84 385.5,-84 "/>
<text text-anchor="start" x="164.5" y="-72.8" font-family="Helvetica,sans-Serif" font-size="9.00">+ stationid()</text>
</a>
</g>
</g>
<!-- Node0&#45;&gt;Node4 -->
<g id="edge4" class="edge"><title>Node0&#45;&gt;Node4</title>
<path fill="none" stroke="orange" d="M193.238,-233.736C211.451,-202.179 236.419,-158.918 253.1,-130.016"/>
<polygon fill="orange" stroke="orange" points="190.024,-232.303 188.057,-242.714 196.087,-235.802 190.024,-232.303"/>
<text text-anchor="middle" x="237" y="-216.8" font-family="Helvetica,sans-Serif" font-size="9.00"> &lt; IPlatform&lt;?&gt; &gt;</text>
</g>
<!-- Node1 -->
<g id="node2" class="node"><title>Node1</title>
<g id="a_node2"><a xlink:href="../../dd/dd7/interfacecom_1_1github_1_1aptd_1_1simulation_1_1elements_1_1IElement.htm" target="_top" xlink:title="any object interface ">
<polygon fill="none" stroke="black" points="119.5,-347 119.5,-471 220.5,-471 220.5,-347 119.5,-347"/>
<text text-anchor="start" x="127.5" y="-459.8" font-family="Helvetica,sans-Serif" font-size="9.00">com::github::aptd::</text>
<text text-anchor="start" x="127.5" y="-449.8" font-family="Helvetica,sans-Serif" font-size="9.00">simulation::elements</text>
<text text-anchor="middle" x="170" y="-439.8" font-family="Helvetica,sans-Serif" font-size="9.00">::IElement&lt; T &gt;</text>
<polyline fill="none" stroke="black" points="119.5,-433 220.5,-433 "/>
<text text-anchor="middle" x="170" y="-421.8" font-family="Helvetica,sans-Serif" font-size="9.00"> </text>
<polyline fill="none" stroke="black" points="119.5,-415 220.5,-415 "/>
<text text-anchor="start" x="127.5" y="-403.8" font-family="Helvetica,sans-Serif" font-size="9.00">+ environment()</text>
<text text-anchor="start" x="127.5" y="-393.8" font-family="Helvetica,sans-Serif" font-size="9.00">+ id()</text>
<text text-anchor="start" x="127.5" y="-383.8" font-family="Helvetica,sans-Serif" font-size="9.00">+ imminent()</text>
<text text-anchor="start" x="127.5" y="-373.8" font-family="Helvetica,sans-Serif" font-size="9.00">+ input()</text>
<text text-anchor="start" x="127.5" y="-363.8" font-family="Helvetica,sans-Serif" font-size="9.00">+ nextactivation()</text>
<text text-anchor="start" x="127.5" y="-353.8" font-family="Helvetica,sans-Serif" font-size="9.00">+ output()</text>
</a>
</g>
</g>
<!-- Node1&#45;&gt;Node0 -->
<g id="edge1" class="edge"><title>Node1&#45;&gt;Node0</title>
<path fill="none" stroke="midnightblue" d="M170,-336.323C170,-326.034 170,-315.93 170,-307.021"/>
<polygon fill="none" stroke="midnightblue" points="166.5,-336.637 170,-346.637 173.5,-336.637 166.5,-336.637"/>
</g>
<!-- Node2 -->
<g id="node3" class="node"><title>Node2</title>
<g id="a_node3"><a xlink:href="../../d4/d0d/interfacecom_1_1github_1_1aptd_1_1simulation_1_1elements_1_1IPerceiveable.htm" target="_top" xlink:title="any object which be perceived by an agent ">
<polygon fill="none" stroke="black" points="86,-511 86,-585 254,-585 254,-511 86,-511"/>
<text text-anchor="start" x="94" y="-573.8" font-family="Helvetica,sans-Serif" font-size="9.00">com.github.aptd.simulation.elements.</text>
<text text-anchor="middle" x="170" y="-563.8" font-family="Helvetica,sans-Serif" font-size="9.00">IPerceiveable</text>
<polyline fill="none" stroke="black" points="86,-557 254,-557 "/>
<text text-anchor="middle" x="170" y="-545.8" font-family="Helvetica,sans-Serif" font-size="9.00"> </text>
<polyline fill="none" stroke="black" points="86,-539 254,-539 "/>
<text text-anchor="start" x="94" y="-527.8" font-family="Helvetica,sans-Serif" font-size="9.00">+ literal()</text>
<text text-anchor="start" x="94" y="-517.8" font-family="Helvetica,sans-Serif" font-size="9.00">+ literal()</text>
</a>
</g>
</g>
<!-- Node2&#45;&gt;Node1 -->
<g id="edge2" class="edge"><title>Node2&#45;&gt;Node1</title>
<path fill="none" stroke="midnightblue" d="M170,-500.35C170,-490.963 170,-480.963 170,-471.166"/>
<polygon fill="none" stroke="midnightblue" points="166.5,-500.646 170,-510.646 173.5,-500.646 166.5,-500.646"/>
</g>
</g>
</svg>
