<?xml version="1.0" encoding="UTF-8" standalone="no"?>
<!DOCTYPE svg PUBLIC "-//W3C//DTD SVG 1.1//EN"
 "http://www.w3.org/Graphics/SVG/1.1/DTD/svg11.dtd">
<!-- Generated by graphviz version 2.36.0 (20140111.2315)
 -->
<!-- Title: com.github.aptd.simulation.elements.IBaseElement&lt; N extends IElement&lt;?&gt; Pages: 1 -->
<svg width="294pt" height="840pt"
 viewBox="0.00 0.00 294.00 840.00" xmlns="http://www.w3.org/2000/svg" xmlns:xlink="http://www.w3.org/1999/xlink">
<g id="graph0" class="graph" transform="scale(1 1) rotate(0) translate(4 836)">
<title>com.github.aptd.simulation.elements.IBaseElement&lt; N extends IElement&lt;?&gt;</title>
<!-- Node27 -->
<g id="node1" class="node"><title>Node27</title>
<polygon fill="#bfbfbf" stroke="black" points="86,-1 86,-305 262,-305 262,-1 86,-1"/>
<text text-anchor="start" x="94" y="-293.8" font-family="Helvetica,sans-Serif" font-size="9.00">com.github.aptd.simulation.elements.</text>
<text text-anchor="middle" x="174" y="-283.8" font-family="Helvetica,sans-Serif" font-size="9.00">IBaseElement&lt; N extends IElement&lt;?&gt;</text>
<polyline fill="none" stroke="black" points="86,-277 262,-277 "/>
<text text-anchor="start" x="94" y="-265.8" font-family="Helvetica,sans-Serif" font-size="9.00"># m_id</text>
<text text-anchor="start" x="94" y="-255.8" font-family="Helvetica,sans-Serif" font-size="9.00"># m_input</text>
<text text-anchor="start" x="94" y="-245.8" font-family="Helvetica,sans-Serif" font-size="9.00"># m_nextactivation</text>
<text text-anchor="start" x="94" y="-235.8" font-family="Helvetica,sans-Serif" font-size="9.00">&#45; m_environment</text>
<text text-anchor="start" x="94" y="-225.8" font-family="Helvetica,sans-Serif" font-size="9.00">&#45; m_external</text>
<text text-anchor="start" x="94" y="-215.8" font-family="Helvetica,sans-Serif" font-size="9.00">&#45; m_functor</text>
<text text-anchor="start" x="94" y="-205.8" font-family="Helvetica,sans-Serif" font-size="9.00">&#45; m_timezone</text>
<text text-anchor="start" x="94" y="-195.8" font-family="Helvetica,sans-Serif" font-size="9.00">&#45; serialVersionUID</text>
<polyline fill="none" stroke="black" points="86,-189 262,-189 "/>
<text text-anchor="start" x="94" y="-177.8" font-family="Helvetica,sans-Serif" font-size="9.00">+ call()</text>
<text text-anchor="start" x="94" y="-167.8" font-family="Helvetica,sans-Serif" font-size="9.00">+ environment()</text>
<text text-anchor="start" x="94" y="-157.8" font-family="Helvetica,sans-Serif" font-size="9.00">+ equals()</text>
<text text-anchor="start" x="94" y="-147.8" font-family="Helvetica,sans-Serif" font-size="9.00">+ hashCode()</text>
<text text-anchor="start" x="94" y="-137.8" font-family="Helvetica,sans-Serif" font-size="9.00">+ id()</text>
<text text-anchor="start" x="94" y="-127.8" font-family="Helvetica,sans-Serif" font-size="9.00">+ imminent()</text>
<text text-anchor="start" x="94" y="-117.8" font-family="Helvetica,sans-Serif" font-size="9.00">+ input()</text>
<text text-anchor="start" x="94" y="-107.8" font-family="Helvetica,sans-Serif" font-size="9.00">+ literal()</text>
<text text-anchor="start" x="94" y="-97.8" font-family="Helvetica,sans-Serif" font-size="9.00">+ literal()</text>
<text text-anchor="start" x="94" y="-87.8" font-family="Helvetica,sans-Serif" font-size="9.00">+ nextactivation()</text>
<text text-anchor="start" x="94" y="-77.8" font-family="Helvetica,sans-Serif" font-size="9.00">+ output()</text>
<text text-anchor="start" x="94" y="-67.8" font-family="Helvetica,sans-Serif" font-size="9.00">+ toString()</text>
<text text-anchor="start" x="94" y="-57.8" font-family="Helvetica,sans-Serif" font-size="9.00"># IBaseElement()</text>
<text text-anchor="start" x="94" y="-47.8" font-family="Helvetica,sans-Serif" font-size="9.00"># individualliteral()</text>
<text text-anchor="start" x="94" y="-37.8" font-family="Helvetica,sans-Serif" font-size="9.00">&#45; currentTime()</text>
<text text-anchor="start" x="94" y="-27.8" font-family="Helvetica,sans-Serif" font-size="9.00">&#45; getNextActivation()</text>
<text text-anchor="start" x="94" y="-17.8" font-family="Helvetica,sans-Serif" font-size="9.00">&#45; maxTime()</text>
<text text-anchor="start" x="94" y="-7.8" font-family="Helvetica,sans-Serif" font-size="9.00">&#45; setNextActivation()</text>
</g>
<!-- Node28 -->
<g id="node2" class="node"><title>Node28</title>
<g id="a_node2"><a xlink:href="../../dd/dd7/interfacecom_1_1github_1_1aptd_1_1simulation_1_1elements_1_1IElement.htm" target="_top" xlink:title="{com.github.aptd.simulation.elements.\lIElement\&lt; N \&gt;\n||+ environment()\l+ id()\l+ imminent()\l+ input()\l+ nextactivation()\l+ output()\l}">
<polygon fill="none" stroke="black" points="0,-345 0,-459 168,-459 168,-345 0,-345"/>
<text text-anchor="start" x="8" y="-447.8" font-family="Helvetica,sans-Serif" font-size="9.00">com.github.aptd.simulation.elements.</text>
<text text-anchor="middle" x="84" y="-437.8" font-family="Helvetica,sans-Serif" font-size="9.00">IElement&lt; N &gt;</text>
<polyline fill="none" stroke="black" points="0,-431 168,-431 "/>
<text text-anchor="middle" x="84" y="-419.8" font-family="Helvetica,sans-Serif" font-size="9.00"> </text>
<polyline fill="none" stroke="black" points="0,-413 168,-413 "/>
<text text-anchor="start" x="8" y="-401.8" font-family="Helvetica,sans-Serif" font-size="9.00">+ environment()</text>
<text text-anchor="start" x="8" y="-391.8" font-family="Helvetica,sans-Serif" font-size="9.00">+ id()</text>
<text text-anchor="start" x="8" y="-381.8" font-family="Helvetica,sans-Serif" font-size="9.00">+ imminent()</text>
<text text-anchor="start" x="8" y="-371.8" font-family="Helvetica,sans-Serif" font-size="9.00">+ input()</text>
<text text-anchor="start" x="8" y="-361.8" font-family="Helvetica,sans-Serif" font-size="9.00">+ nextactivation()</text>
<text text-anchor="start" x="8" y="-351.8" font-family="Helvetica,sans-Serif" font-size="9.00">+ output()</text>
</a>
</g>
</g>
<!-- Node28&#45;&gt;Node27 -->
<g id="edge1" class="edge"><title>Node28&#45;&gt;Node27</title>
<path fill="none" stroke="midnightblue" d="M107.85,-335.544C111.356,-325.922 115.084,-315.691 118.915,-305.177"/>
<polygon fill="none" stroke="midnightblue" points="104.557,-334.358 104.422,-344.952 111.134,-336.754 104.557,-334.358"/>
</g>
<!-- Node29 -->
<g id="node3" class="node"><title>Node29</title>
<g id="a_node3"><a xlink:href="../../dd/dd7/interfacecom_1_1github_1_1aptd_1_1simulation_1_1elements_1_1IElement.htm" target="_top" xlink:title="any object interface ">
<polygon fill="none" stroke="black" points="4,-603 4,-717 172,-717 172,-603 4,-603"/>
<text text-anchor="start" x="12" y="-705.8" font-family="Helvetica,sans-Serif" font-size="9.00">com.github.aptd.simulation.elements.</text>
<text text-anchor="middle" x="88" y="-695.8" font-family="Helvetica,sans-Serif" font-size="9.00">IElement&lt; T extends IAgent&lt;?&gt;</text>
<polyline fill="none" stroke="black" points="4,-689 172,-689 "/>
<text text-anchor="middle" x="88" y="-677.8" font-family="Helvetica,sans-Serif" font-size="9.00"> </text>
<polyline fill="none" stroke="black" points="4,-671 172,-671 "/>
<text text-anchor="start" x="12" y="-659.8" font-family="Helvetica,sans-Serif" font-size="9.00">+ environment()</text>
<text text-anchor="start" x="12" y="-649.8" font-family="Helvetica,sans-Serif" font-size="9.00">+ id()</text>
<text text-anchor="start" x="12" y="-639.8" font-family="Helvetica,sans-Serif" font-size="9.00">+ imminent()</text>
<text text-anchor="start" x="12" y="-629.8" font-family="Helvetica,sans-Serif" font-size="9.00">+ input()</text>
<text text-anchor="start" x="12" y="-619.8" font-family="Helvetica,sans-Serif" font-size="9.00">+ nextactivation()</text>
<text text-anchor="start" x="12" y="-609.8" font-family="Helvetica,sans-Serif" font-size="9.00">+ output()</text>
</a>
</g>
</g>
<!-- Node29&#45;&gt;Node28 -->
<g id="edge2" class="edge"><title>Node29&#45;&gt;Node28</title>
<path fill="none" stroke="orange" d="M84.2755,-592.767C84.1695,-589.805 84.0765,-586.872 84,-584 82.8867,-542.221 82.9302,-494.999 83.229,-459.266"/>
<polygon fill="orange" stroke="orange" points="80.7841,-593.054 84.6814,-602.906 87.7785,-592.774 80.7841,-593.054"/>
<text text-anchor="middle" x="96.5" y="-528.8" font-family="Helvetica,sans-Serif" font-size="9.00"> &lt; N &gt;</text>
</g>
<!-- Node30 -->
<g id="node4" class="node"><title>Node30</title>
<g id="a_node4"><a xlink:href="../../d4/d0d/interfacecom_1_1github_1_1aptd_1_1simulation_1_1elements_1_1IPerceiveable.htm" target="_top" xlink:title="any object which be perceived by an agent ">
<polygon fill="none" stroke="black" points="82,-757 82,-831 250,-831 250,-757 82,-757"/>
<text text-anchor="start" x="90" y="-819.8" font-family="Helvetica,sans-Serif" font-size="9.00">com.github.aptd.simulation.elements.</text>
<text text-anchor="middle" x="166" y="-809.8" font-family="Helvetica,sans-Serif" font-size="9.00">IPerceiveable</text>
<polyline fill="none" stroke="black" points="82,-803 250,-803 "/>
<text text-anchor="middle" x="166" y="-791.8" font-family="Helvetica,sans-Serif" font-size="9.00"> </text>
<polyline fill="none" stroke="black" points="82,-785 250,-785 "/>
<text text-anchor="start" x="90" y="-773.8" font-family="Helvetica,sans-Serif" font-size="9.00">+ literal()</text>
<text text-anchor="start" x="90" y="-763.8" font-family="Helvetica,sans-Serif" font-size="9.00">+ literal()</text>
</a>
</g>
</g>
<!-- Node30&#45;&gt;Node29 -->
<g id="edge3" class="edge"><title>Node30&#45;&gt;Node29</title>
<path fill="none" stroke="midnightblue" d="M139.427,-748.03C133.552,-738.087 127.257,-727.434 121.157,-717.111"/>
<polygon fill="none" stroke="midnightblue" points="136.586,-750.102 144.686,-756.93 142.612,-746.541 136.586,-750.102"/>
</g>
<!-- Node31 -->
<g id="node5" class="node"><title>Node31</title>
<g id="a_node5"><a xlink:href="../../db/d65/interfacecom_1_1github_1_1aptd_1_1simulation_1_1core_1_1time_1_1ITime.htm" target="_top" xlink:title="time interface ">
<polygon fill="none" stroke="black" points="118,-479 118,-583 286,-583 286,-479 118,-479"/>
<text text-anchor="start" x="126" y="-571.8" font-family="Helvetica,sans-Serif" font-size="9.00">com.github.aptd.simulation.core.time.</text>
<text text-anchor="middle" x="202" y="-561.8" font-family="Helvetica,sans-Serif" font-size="9.00">ITime</text>
<polyline fill="none" stroke="black" points="118,-555 286,-555 "/>
<text text-anchor="middle" x="202" y="-543.8" font-family="Helvetica,sans-Serif" font-size="9.00"> </text>
<polyline fill="none" stroke="black" points="118,-537 286,-537 "/>
<text text-anchor="start" x="126" y="-525.8" font-family="Helvetica,sans-Serif" font-size="9.00">+ active()</text>
<text text-anchor="start" x="126" y="-515.8" font-family="Helvetica,sans-Serif" font-size="9.00">+ addagent()</text>
<text text-anchor="start" x="126" y="-505.8" font-family="Helvetica,sans-Serif" font-size="9.00">+ current()</text>
<text text-anchor="start" x="126" y="-495.8" font-family="Helvetica,sans-Serif" font-size="9.00">+ raw()</text>
<text text-anchor="start" x="126" y="-485.8" font-family="Helvetica,sans-Serif" font-size="9.00">+ removeagent()</text>
</a>
</g>
</g>
<!-- Node30&#45;&gt;Node31 -->
<g id="edge5" class="edge"><title>Node30&#45;&gt;Node31</title>
<path fill="none" stroke="midnightblue" d="M175.131,-746.767C176.865,-737.272 178.579,-727.328 180,-718 186.928,-672.513 192.918,-620.485 196.891,-583.043"/>
<polygon fill="none" stroke="midnightblue" points="171.645,-746.371 173.255,-756.843 178.526,-747.653 171.645,-746.371"/>
</g>
<!-- Node31&#45;&gt;Node27 -->
<g id="edge4" class="edge"><title>Node31&#45;&gt;Node27</title>
<path fill="none" stroke="#404040" d="M198.195,-478.9C195.082,-437.103 190.501,-375.589 186.161,-317.299"/>
<polygon fill="none" stroke="#404040" points="186.159,-317.271 181.724,-311.585 185.267,-305.305 189.702,-310.991 186.159,-317.271"/>
<text text-anchor="middle" x="216" y="-399.8" font-family="Helvetica,sans-Serif" font-size="9.00"> #m_time</text>
</g>
</g>
</svg>
