<?xml version="1.0" encoding="UTF-8" standalone="no"?>
<!DOCTYPE svg PUBLIC "-//W3C//DTD SVG 1.1//EN"
 "http://www.w3.org/Graphics/SVG/1.1/DTD/svg11.dtd">
<!-- Generated by graphviz version 2.36.0 (20140111.2315)
 -->
<!-- Title: com.github.aptd.simulation.elements.graph.network.local.CStation.CGenerator Pages: 1 -->
<svg width="258pt" height="514pt"
 viewBox="0.00 0.00 258.00 514.00" xmlns="http://www.w3.org/2000/svg" xmlns:xlink="http://www.w3.org/1999/xlink">
<g id="graph0" class="graph" transform="scale(1 1) rotate(0) translate(4 510)">
<title>com.github.aptd.simulation.elements.graph.network.local.CStation.CGenerator</title>
<!-- Node2 -->
<g id="node1" class="node"><title>Node2</title>
<polygon fill="#bfbfbf" stroke="black" points="-0.5,-1 -0.5,-75 250.5,-75 250.5,-1 -0.5,-1"/>
<text text-anchor="start" x="7.5" y="-63.8" font-family="Helvetica,sans-Serif" font-size="9.00">com.github.aptd.simulation.elements.graph.network.local.</text>
<text text-anchor="middle" x="125" y="-53.8" font-family="Helvetica,sans-Serif" font-size="9.00">CStation.CGenerator</text>
<polyline fill="none" stroke="black" points="-0.5,-47 250.5,-47 "/>
<text text-anchor="middle" x="125" y="-35.8" font-family="Helvetica,sans-Serif" font-size="9.00"> </text>
<polyline fill="none" stroke="black" points="-0.5,-29 250.5,-29 "/>
<text text-anchor="start" x="7.5" y="-17.8" font-family="Helvetica,sans-Serif" font-size="9.00">+ CGenerator()</text>
<text text-anchor="start" x="7.5" y="-7.8" font-family="Helvetica,sans-Serif" font-size="9.00"># generate()</text>
</g>
<!-- Node3 -->
<g id="node2" class="node"><title>Node3</title>
<g id="a_node2"><a xlink:href="../../d1/d9f/classcom_1_1github_1_1aptd_1_1simulation_1_1elements_1_1IBaseElement_1_1IBaseGenerator.htm" target="_top" xlink:title="base agent generator ">
<polygon fill="none" stroke="black" points="67,-115 67,-239 183,-239 183,-115 67,-115"/>
<text text-anchor="start" x="75" y="-227.8" font-family="Helvetica,sans-Serif" font-size="9.00">com::github::aptd::</text>
<text text-anchor="start" x="75" y="-217.8" font-family="Helvetica,sans-Serif" font-size="9.00">simulation::elements</text>
<text text-anchor="start" x="75" y="-207.8" font-family="Helvetica,sans-Serif" font-size="9.00">::IBaseElement&lt; IStation</text>
<text text-anchor="middle" x="125" y="-197.8" font-family="Helvetica,sans-Serif" font-size="9.00">&lt;?&gt; &gt;::IBaseGenerator</text>
<polyline fill="none" stroke="black" points="67,-191 183,-191 "/>
<text text-anchor="start" x="75" y="-179.8" font-family="Helvetica,sans-Serif" font-size="9.00">&#45; m_factory</text>
<polyline fill="none" stroke="black" points="67,-173 183,-173 "/>
<text text-anchor="start" x="75" y="-161.8" font-family="Helvetica,sans-Serif" font-size="9.00">+ generatesingle()</text>
<text text-anchor="start" x="75" y="-151.8" font-family="Helvetica,sans-Serif" font-size="9.00">+ resetcount()</text>
<text text-anchor="start" x="75" y="-141.8" font-family="Helvetica,sans-Serif" font-size="9.00"># IBaseGenerator()</text>
<text text-anchor="start" x="75" y="-131.8" font-family="Helvetica,sans-Serif" font-size="9.00"># configuration()</text>
<text text-anchor="start" x="75" y="-121.8" font-family="Helvetica,sans-Serif" font-size="9.00"># generate()</text>
</a>
</g>
</g>
<!-- Node3&#45;&gt;Node2 -->
<g id="edge1" class="edge"><title>Node3&#45;&gt;Node2</title>
<path fill="none" stroke="midnightblue" d="M125,-104.523C125,-94.3286 125,-84.2225 125,-75.1099"/>
<polygon fill="none" stroke="midnightblue" points="121.5,-104.713 125,-114.713 128.5,-104.713 121.5,-104.713"/>
</g>
<!-- Node4 -->
<g id="node3" class="node"><title>Node4</title>
<g id="a_node3"><a xlink:href="../../db/d65/interfacecom_1_1github_1_1aptd_1_1simulation_1_1core_1_1time_1_1ITime.htm" target="_top" xlink:title="time interface ">
<polygon fill="none" stroke="black" points="41,-287 41,-391 209,-391 209,-287 41,-287"/>
<text text-anchor="start" x="49" y="-379.8" font-family="Helvetica,sans-Serif" font-size="9.00">com.github.aptd.simulation.core.time.</text>
<text text-anchor="middle" x="125" y="-369.8" font-family="Helvetica,sans-Serif" font-size="9.00">ITime</text>
<polyline fill="none" stroke="black" points="41,-363 209,-363 "/>
<text text-anchor="middle" x="125" y="-351.8" font-family="Helvetica,sans-Serif" font-size="9.00"> </text>
<polyline fill="none" stroke="black" points="41,-345 209,-345 "/>
<text text-anchor="start" x="49" y="-333.8" font-family="Helvetica,sans-Serif" font-size="9.00">+ active()</text>
<text text-anchor="start" x="49" y="-323.8" font-family="Helvetica,sans-Serif" font-size="9.00">+ addagent()</text>
<text text-anchor="start" x="49" y="-313.8" font-family="Helvetica,sans-Serif" font-size="9.00">+ current()</text>
<text text-anchor="start" x="49" y="-303.8" font-family="Helvetica,sans-Serif" font-size="9.00">+ raw()</text>
<text text-anchor="start" x="49" y="-293.8" font-family="Helvetica,sans-Serif" font-size="9.00">+ removeagent()</text>
</a>
</g>
</g>
<!-- Node4&#45;&gt;Node3 -->
<g id="edge2" class="edge"><title>Node4&#45;&gt;Node3</title>
<path fill="none" stroke="#404040" d="M125,-286.935C125,-275.668 125,-263.515 125,-251.556"/>
<polygon fill="none" stroke="#404040" points="125,-251.208 121,-245.208 125,-239.208 129,-245.208 125,-251.208"/>
<text text-anchor="middle" x="144" y="-260.8" font-family="Helvetica,sans-Serif" font-size="9.00"> #m_time</text>
</g>
<!-- Node5 -->
<g id="node4" class="node"><title>Node5</title>
<g id="a_node4"><a xlink:href="../../d4/d0d/interfacecom_1_1github_1_1aptd_1_1simulation_1_1elements_1_1IPerceiveable.htm" target="_top" xlink:title="any object which be perceived by an agent ">
<polygon fill="none" stroke="black" points="41,-431 41,-505 209,-505 209,-431 41,-431"/>
<text text-anchor="start" x="49" y="-493.8" font-family="Helvetica,sans-Serif" font-size="9.00">com.github.aptd.simulation.elements.</text>
<text text-anchor="middle" x="125" y="-483.8" font-family="Helvetica,sans-Serif" font-size="9.00">IPerceiveable</text>
<polyline fill="none" stroke="black" points="41,-477 209,-477 "/>
<text text-anchor="middle" x="125" y="-465.8" font-family="Helvetica,sans-Serif" font-size="9.00"> </text>
<polyline fill="none" stroke="black" points="41,-459 209,-459 "/>
<text text-anchor="start" x="49" y="-447.8" font-family="Helvetica,sans-Serif" font-size="9.00">+ literal()</text>
<text text-anchor="start" x="49" y="-437.8" font-family="Helvetica,sans-Serif" font-size="9.00">+ literal()</text>
</a>
</g>
</g>
<!-- Node5&#45;&gt;Node4 -->
<g id="edge3" class="edge"><title>Node5&#45;&gt;Node4</title>
<path fill="none" stroke="midnightblue" d="M125,-420.814C125,-411.227 125,-401.07 125,-391.313"/>
<polygon fill="none" stroke="midnightblue" points="121.5,-420.947 125,-430.947 128.5,-420.947 121.5,-420.947"/>
</g>
</g>
</svg>
