<?xml version="1.0" encoding="UTF-8" standalone="no"?>
<!DOCTYPE svg PUBLIC "-//W3C//DTD SVG 1.1//EN"
 "http://www.w3.org/Graphics/SVG/1.1/DTD/svg11.dtd">
<!-- Generated by graphviz version 2.36.0 (20140111.2315)
 -->
<!-- Title: com.github.aptd.simulation.core.time.ITime.addagent Pages: 1 -->
<svg width="640pt" height="36pt"
 viewBox="0.00 0.00 640.00 36.00" xmlns="http://www.w3.org/2000/svg" xmlns:xlink="http://www.w3.org/1999/xlink">
<g id="graph0" class="graph" transform="scale(1 1) rotate(0) translate(4 32)">
<title>com.github.aptd.simulation.core.time.ITime.addagent</title>
<!-- Node4 -->
<g id="node1" class="node"><title>Node4</title>
<polygon fill="#bfbfbf" stroke="black" points="0,-0 0,-28 168,-28 168,-0 0,-0"/>
<text text-anchor="start" x="8" y="-16.8" font-family="Helvetica,sans-Serif" font-size="9.00">com.github.aptd.simulation.core.time.</text>
<text text-anchor="middle" x="84" y="-6.8" font-family="Helvetica,sans-Serif" font-size="9.00">ITime.addagent</text>
</g>
<!-- Node5 -->
<g id="node2" class="node"><title>Node5</title>
<g id="a_node2"><a xlink:href="../../d7/d17/classcom_1_1github_1_1aptd_1_1simulation_1_1core_1_1experiment_1_1local_1_1CExperiment.htm#ac3c7e4198ca4aa95e321436b85caa8a9" target="_top" xlink:title="add agent to the experiment ">
<polygon fill="none" stroke="black" points="204,-0 204,-28 422,-28 422,-0 204,-0"/>
<text text-anchor="start" x="212" y="-16.8" font-family="Helvetica,sans-Serif" font-size="9.00">com.github.aptd.simulation.core.experiment.local.</text>
<text text-anchor="middle" x="313" y="-6.8" font-family="Helvetica,sans-Serif" font-size="9.00">CExperiment.addAgent</text>
</a>
</g>
</g>
<!-- Node4&#45;&gt;Node5 -->
<g id="edge1" class="edge"><title>Node4&#45;&gt;Node5</title>
<path fill="none" stroke="midnightblue" d="M178.434,-14C186.867,-14 195.452,-14 203.995,-14"/>
<polygon fill="midnightblue" stroke="midnightblue" points="178.237,-10.5001 168.237,-14 178.237,-17.5001 178.237,-10.5001"/>
</g>
<!-- Node6 -->
<g id="node3" class="node"><title>Node6</title>
<g id="a_node3"><a xlink:href="../../d0/dfe/classcom_1_1github_1_1aptd_1_1simulation_1_1datamodel_1_1CXMLReader.htm#a9245292c78062330cc2b46caf7338fb7" target="_top" xlink:title="transfer the data&#45;model into an experiment based on given factory ">
<polygon fill="none" stroke="black" points="458,-0 458,-28 632,-28 632,-0 458,-0"/>
<text text-anchor="start" x="466" y="-16.8" font-family="Helvetica,sans-Serif" font-size="9.00">com.github.aptd.simulation.datamodel.</text>
<text text-anchor="middle" x="545" y="-6.8" font-family="Helvetica,sans-Serif" font-size="9.00">CXMLReader.get</text>
</a>
</g>
</g>
<!-- Node5&#45;&gt;Node6 -->
<g id="edge2" class="edge"><title>Node5&#45;&gt;Node6</title>
<path fill="none" stroke="midnightblue" d="M432.304,-14C440.856,-14 449.383,-14 457.697,-14"/>
<polygon fill="midnightblue" stroke="midnightblue" points="432.265,-10.5001 422.265,-14 432.265,-17.5001 432.265,-10.5001"/>
</g>
</g>
</svg>
