<?xml version="1.0" encoding="UTF-8" standalone="no"?>
<!DOCTYPE svg PUBLIC "-//W3C//DTD SVG 1.1//EN"
 "http://www.w3.org/Graphics/SVG/1.1/DTD/svg11.dtd">
<!-- Generated by graphviz version 2.36.0 (20140111.2315)
 -->
<!-- Title: com.github.aptd.simulation.core.time.ITime.current Pages: 1 -->
<svg width="912pt" height="756pt"
 viewBox="0.00 0.00 912.00 756.00" xmlns="http://www.w3.org/2000/svg" xmlns:xlink="http://www.w3.org/1999/xlink">
<g id="graph0" class="graph" transform="scale(1 1) rotate(0) translate(4 752)">
<title>com.github.aptd.simulation.core.time.ITime.current</title>
<!-- Node8 -->
<g id="node1" class="node"><title>Node8</title>
<polygon fill="#bfbfbf" stroke="black" points="0,-335 0,-363 168,-363 168,-335 0,-335"/>
<text text-anchor="start" x="8" y="-351.8" font-family="Helvetica,sans-Serif" font-size="9.00">com.github.aptd.simulation.core.time.</text>
<text text-anchor="middle" x="84" y="-341.8" font-family="Helvetica,sans-Serif" font-size="9.00">ITime.current</text>
</g>
<!-- Node9 -->
<g id="node2" class="node"><title>Node9</title>
<g id="a_node2"><a xlink:href="../../d8/d16/classcom_1_1github_1_1aptd_1_1simulation_1_1elements_1_1IStatefulElement.htm#a2fcf21f6cf0d87c9e575de108b972d52" target="_top" xlink:title="com.github.aptd.simulation.elements.\lIStatefulElement\&lt; IPassenger\l\&lt;?\&gt; \&gt;::continuousupdate">
<polygon fill="none" stroke="black" points="246,-710 246,-748 414,-748 414,-710 246,-710"/>
<text text-anchor="start" x="254" y="-736.8" font-family="Helvetica,sans-Serif" font-size="9.00">com.github.aptd.simulation.elements.</text>
<text text-anchor="start" x="254" y="-726.8" font-family="Helvetica,sans-Serif" font-size="9.00">IStatefulElement&lt; IPassenger</text>
<text text-anchor="middle" x="330" y="-716.8" font-family="Helvetica,sans-Serif" font-size="9.00">&lt;?&gt; &gt;::continuousupdate</text>
</a>
</g>
</g>
<!-- Node8&#45;&gt;Node9 -->
<g id="edge1" class="edge"><title>Node8&#45;&gt;Node9</title>
<path fill="none" stroke="midnightblue" d="M85.5966,-373.64C88.5472,-437.754 105.696,-610.967 204,-700 215.724,-710.618 230.559,-717.577 245.879,-722.09"/>
<polygon fill="midnightblue" stroke="midnightblue" points="89.0815,-373.173 85.2042,-363.313 82.0866,-373.439 89.0815,-373.173"/>
</g>
<!-- Node10 -->
<g id="node3" class="node"><title>Node10</title>
<g id="a_node3"><a xlink:href="../../d1/db4/classcom_1_1github_1_1aptd_1_1simulation_1_1elements_1_1train_1_1CTrain.htm#af6c0e1b15fe6d78b01af63e295993495" target="_top" xlink:title="ctor ">
<polygon fill="none" stroke="black" points="236,-663 236,-691 424,-691 424,-663 236,-663"/>
<text text-anchor="start" x="244" y="-679.8" font-family="Helvetica,sans-Serif" font-size="9.00">com.github.aptd.simulation.elements.train.</text>
<text text-anchor="middle" x="330" y="-669.8" font-family="Helvetica,sans-Serif" font-size="9.00">CTrain.CTrain</text>
</a>
</g>
</g>
<!-- Node8&#45;&gt;Node10 -->
<g id="edge2" class="edge"><title>Node8&#45;&gt;Node10</title>
<path fill="none" stroke="midnightblue" d="M86.821,-373.303C92.5605,-431.499 115.569,-579.465 204,-653 213.26,-660.7 224.243,-666.21 235.795,-670.112"/>
<polygon fill="midnightblue" stroke="midnightblue" points="90.2954,-372.86 85.9136,-363.213 83.3235,-373.487 90.2954,-372.86"/>
</g>
<!-- Node12 -->
<g id="node5" class="node"><title>Node12</title>
<g id="a_node5"><a xlink:href="../../d6/df3/classcom_1_1github_1_1aptd_1_1simulation_1_1elements_1_1IBaseElement.htm#aa8b1dd693eadd20ecd96dc3bd843cd1d" target="_top" xlink:title="com.github.aptd.simulation.elements.\lIBaseElement\&lt; IDispatcher\&lt;?\&gt;\l \&gt;::currentTime">
<polygon fill="none" stroke="black" points="246,-606 246,-644 414,-644 414,-606 246,-606"/>
<text text-anchor="start" x="254" y="-632.8" font-family="Helvetica,sans-Serif" font-size="9.00">com.github.aptd.simulation.elements.</text>
<text text-anchor="start" x="254" y="-622.8" font-family="Helvetica,sans-Serif" font-size="9.00">IBaseElement&lt; IDispatcher&lt;?&gt;</text>
<text text-anchor="middle" x="330" y="-612.8" font-family="Helvetica,sans-Serif" font-size="9.00"> &gt;::currentTime</text>
</a>
</g>
</g>
<!-- Node8&#45;&gt;Node12 -->
<g id="edge4" class="edge"><title>Node8&#45;&gt;Node12</title>
<path fill="none" stroke="midnightblue" d="M89.3759,-372.944C99.7709,-422.677 130.771,-537.398 204,-596 216.089,-605.674 230.827,-612.233 245.884,-616.655"/>
<polygon fill="midnightblue" stroke="midnightblue" points="92.7998,-372.216 87.4119,-363.094 85.9349,-373.585 92.7998,-372.216"/>
</g>
<!-- Node13 -->
<g id="node6" class="node"><title>Node13</title>
<g id="a_node6"><a xlink:href="../../d6/df3/classcom_1_1github_1_1aptd_1_1simulation_1_1elements_1_1IBaseElement.htm#a20115680d971b405116d6f675fa05a3a" target="_top" xlink:title="whether the element has a scheduled activation at the current time ">
<polygon fill="none" stroke="black" points="246,-549 246,-587 414,-587 414,-549 246,-549"/>
<text text-anchor="start" x="254" y="-575.8" font-family="Helvetica,sans-Serif" font-size="9.00">com.github.aptd.simulation.elements.</text>
<text text-anchor="start" x="254" y="-565.8" font-family="Helvetica,sans-Serif" font-size="9.00">IBaseElement&lt; IDispatcher&lt;?&gt;</text>
<text text-anchor="middle" x="330" y="-555.8" font-family="Helvetica,sans-Serif" font-size="9.00"> &gt;::imminent</text>
</a>
</g>
</g>
<!-- Node8&#45;&gt;Node13 -->
<g id="edge5" class="edge"><title>Node8&#45;&gt;Node13</title>
<path fill="none" stroke="midnightblue" d="M92.9792,-372.721C107.951,-413.444 144.244,-496.375 204,-539 216.333,-547.797 230.933,-553.967 245.727,-558.285"/>
<polygon fill="midnightblue" stroke="midnightblue" points="96.2051,-371.347 89.5528,-363.101 89.6108,-373.696 96.2051,-371.347"/>
</g>
<!-- Node14 -->
<g id="node7" class="node"><title>Node14</title>
<g id="a_node7"><a xlink:href="../../d6/df3/classcom_1_1github_1_1aptd_1_1simulation_1_1elements_1_1IBaseElement.htm#ab474c321d3e008c9cdaf39975229bea0" target="_top" xlink:title="store an incoming message to be processed ">
<polygon fill="none" stroke="black" points="246,-492 246,-530 414,-530 414,-492 246,-492"/>
<text text-anchor="start" x="254" y="-518.8" font-family="Helvetica,sans-Serif" font-size="9.00">com.github.aptd.simulation.elements.</text>
<text text-anchor="start" x="254" y="-508.8" font-family="Helvetica,sans-Serif" font-size="9.00">IBaseElement&lt; IDispatcher&lt;?&gt;</text>
<text text-anchor="middle" x="330" y="-498.8" font-family="Helvetica,sans-Serif" font-size="9.00"> &gt;::input</text>
</a>
</g>
</g>
<!-- Node8&#45;&gt;Node14 -->
<g id="edge6" class="edge"><title>Node8&#45;&gt;Node14</title>
<path fill="none" stroke="midnightblue" d="M98.9145,-371.806C118.507,-401.889 157.123,-454.254 204,-482 216.749,-489.546 231.309,-495.128 245.879,-499.258"/>
<polygon fill="midnightblue" stroke="midnightblue" points="101.781,-369.791 93.4568,-363.237 95.877,-373.552 101.781,-369.791"/>
</g>
<!-- Node15 -->
<g id="node8" class="node"><title>Node15</title>
<g id="a_node8"><a xlink:href="../../d8/d16/classcom_1_1github_1_1aptd_1_1simulation_1_1elements_1_1IStatefulElement.htm#a88185ad9a8f1261e994744808f513dbf" target="_top" xlink:title="ctor ">
<polygon fill="none" stroke="black" points="246,-435 246,-473 414,-473 414,-435 246,-435"/>
<text text-anchor="start" x="254" y="-461.8" font-family="Helvetica,sans-Serif" font-size="9.00">com.github.aptd.simulation.elements.</text>
<text text-anchor="start" x="254" y="-451.8" font-family="Helvetica,sans-Serif" font-size="9.00">IStatefulElement&lt; IPassenger</text>
<text text-anchor="middle" x="330" y="-441.8" font-family="Helvetica,sans-Serif" font-size="9.00">&lt;?&gt; &gt;::IStatefulElement</text>
</a>
</g>
</g>
<!-- Node8&#45;&gt;Node15 -->
<g id="edge7" class="edge"><title>Node8&#45;&gt;Node15</title>
<path fill="none" stroke="midnightblue" d="M111.126,-369.411C134.315,-386.586 169.738,-410.588 204,-425 217.142,-430.528 231.526,-435.105 245.709,-438.86"/>
<polygon fill="midnightblue" stroke="midnightblue" points="112.961,-366.411 102.866,-363.197 108.753,-372.005 112.961,-366.411"/>
</g>
<!-- Node16 -->
<g id="node9" class="node"><title>Node16</title>
<g id="a_node9"><a xlink:href="../../d6/df3/classcom_1_1github_1_1aptd_1_1simulation_1_1elements_1_1IBaseElement.htm#a90eb94d7447060407653bf9b70517084" target="_top" xlink:title="com.github.aptd.simulation.elements.\lIBaseElement\&lt; IDispatcher\&lt;?\&gt;\l \&gt;::setNextActivation">
<polygon fill="none" stroke="black" points="246,-378 246,-416 414,-416 414,-378 246,-378"/>
<text text-anchor="start" x="254" y="-404.8" font-family="Helvetica,sans-Serif" font-size="9.00">com.github.aptd.simulation.elements.</text>
<text text-anchor="start" x="254" y="-394.8" font-family="Helvetica,sans-Serif" font-size="9.00">IBaseElement&lt; IDispatcher&lt;?&gt;</text>
<text text-anchor="middle" x="330" y="-384.8" font-family="Helvetica,sans-Serif" font-size="9.00"> &gt;::setNextActivation</text>
</a>
</g>
</g>
<!-- Node8&#45;&gt;Node16 -->
<g id="edge8" class="edge"><title>Node8&#45;&gt;Node16</title>
<path fill="none" stroke="midnightblue" d="M166.238,-364.981C191.756,-370.001 219.962,-375.55 245.625,-380.598"/>
<polygon fill="midnightblue" stroke="midnightblue" points="166.718,-361.509 156.231,-363.013 165.367,-368.377 166.718,-361.509"/>
</g>
<!-- Node17 -->
<g id="node10" class="node"><title>Node17</title>
<g id="a_node10"><a xlink:href="../../d1/d3a/classcom_1_1github_1_1aptd_1_1simulation_1_1elements_1_1train_1_1CDoor.htm#af33be7009842e74353ba6e51d1f87085" target="_top" xlink:title="com.github.aptd.simulation.elements.train.\lCDoor.timedstatechangeifnecessary">
<polygon fill="none" stroke="black" points="492,-335 492,-363 680,-363 680,-335 492,-335"/>
<text text-anchor="start" x="500" y="-351.8" font-family="Helvetica,sans-Serif" font-size="9.00">com.github.aptd.simulation.elements.train.</text>
<text text-anchor="middle" x="586" y="-341.8" font-family="Helvetica,sans-Serif" font-size="9.00">CDoor.timedstatechangeifnecessary</text>
</a>
</g>
</g>
<!-- Node8&#45;&gt;Node17 -->
<g id="edge9" class="edge"><title>Node8&#45;&gt;Node17</title>
<path fill="none" stroke="midnightblue" d="M178.276,-349C267.841,-349 402.382,-349 491.891,-349"/>
<polygon fill="midnightblue" stroke="midnightblue" points="178.126,-345.5 168.126,-349 178.126,-352.5 178.126,-345.5"/>
</g>
<!-- Node19 -->
<g id="node12" class="node"><title>Node19</title>
<g id="a_node12"><a xlink:href="../../d0/dfe/classcom_1_1github_1_1aptd_1_1simulation_1_1datamodel_1_1CXMLReader.htm#aa11c2b9e49aa088d189a3cad2276107d" target="_top" xlink:title="create the train list ">
<polygon fill="none" stroke="black" points="243,-292 243,-320 417,-320 417,-292 243,-292"/>
<text text-anchor="start" x="251" y="-308.8" font-family="Helvetica,sans-Serif" font-size="9.00">com.github.aptd.simulation.datamodel.</text>
<text text-anchor="middle" x="330" y="-298.8" font-family="Helvetica,sans-Serif" font-size="9.00">CXMLReader.train</text>
</a>
</g>
</g>
<!-- Node8&#45;&gt;Node19 -->
<g id="edge11" class="edge"><title>Node8&#45;&gt;Node19</title>
<path fill="none" stroke="midnightblue" d="M174.59,-333.212C199.151,-328.883 225.601,-324.222 249.551,-320.001"/>
<polygon fill="midnightblue" stroke="midnightblue" points="173.798,-329.797 164.557,-334.98 175.013,-336.691 173.798,-329.797"/>
</g>
<!-- Node21 -->
<g id="node14" class="node"><title>Node21</title>
<g id="a_node14"><a xlink:href="../../d8/d16/classcom_1_1github_1_1aptd_1_1simulation_1_1elements_1_1IStatefulElement.htm#a9dca31d9cf114db8091999d3cbc55173" target="_top" xlink:title="com.github.aptd.simulation.elements.\lIStatefulElement\&lt; IPassenger\l\&lt;?\&gt; \&gt;::transition">
<polygon fill="none" stroke="black" points="246,-235 246,-273 414,-273 414,-235 246,-235"/>
<text text-anchor="start" x="254" y="-261.8" font-family="Helvetica,sans-Serif" font-size="9.00">com.github.aptd.simulation.elements.</text>
<text text-anchor="start" x="254" y="-251.8" font-family="Helvetica,sans-Serif" font-size="9.00">IStatefulElement&lt; IPassenger</text>
<text text-anchor="middle" x="330" y="-241.8" font-family="Helvetica,sans-Serif" font-size="9.00">&lt;?&gt; &gt;::transition</text>
</a>
</g>
</g>
<!-- Node8&#45;&gt;Node21 -->
<g id="edge13" class="edge"><title>Node8&#45;&gt;Node21</title>
<path fill="none" stroke="midnightblue" d="M114.79,-329.405C138.199,-314.779 172.076,-295.279 204,-283 217.307,-277.882 231.774,-273.51 245.988,-269.832"/>
<polygon fill="midnightblue" stroke="midnightblue" points="112.623,-326.634 106.049,-334.944 116.37,-332.547 112.623,-326.634"/>
</g>
<!-- Node22 -->
<g id="node15" class="node"><title>Node22</title>
<g id="a_node15"><a xlink:href="../../d1/d3a/classcom_1_1github_1_1aptd_1_1simulation_1_1elements_1_1train_1_1CDoor.htm#ae30d446185e51de92c6fdce1d44fd615" target="_top" xlink:title="com.github.aptd.simulation.elements.train.\lCDoor.unlockifrequested">
<polygon fill="none" stroke="black" points="236,-188 236,-216 424,-216 424,-188 236,-188"/>
<text text-anchor="start" x="244" y="-204.8" font-family="Helvetica,sans-Serif" font-size="9.00">com.github.aptd.simulation.elements.train.</text>
<text text-anchor="middle" x="330" y="-194.8" font-family="Helvetica,sans-Serif" font-size="9.00">CDoor.unlockifrequested</text>
</a>
</g>
</g>
<!-- Node8&#45;&gt;Node22 -->
<g id="edge14" class="edge"><title>Node8&#45;&gt;Node22</title>
<path fill="none" stroke="midnightblue" d="M100.07,-326.43C120.226,-298.166 158.722,-250.49 204,-226 213.913,-220.638 224.837,-216.461 235.976,-213.208"/>
<polygon fill="midnightblue" stroke="midnightblue" points="97.0339,-324.665 94.1853,-334.87 102.776,-328.669 97.0339,-324.665"/>
</g>
<!-- Node24 -->
<g id="node17" class="node"><title>Node24</title>
<g id="a_node17"><a xlink:href="../../d2/d1c/classcom_1_1github_1_1aptd_1_1simulation_1_1elements_1_1graph_1_1network_1_1local_1_1CPlatform.htm#a5a3249dd413863a243be2b57c84cc057" target="_top" xlink:title="com.github.aptd.simulation.elements.graph.network.local.\lCPlatform.updatestate">
<polygon fill="none" stroke="black" points="204.5,-141 204.5,-169 455.5,-169 455.5,-141 204.5,-141"/>
<text text-anchor="start" x="212.5" y="-157.8" font-family="Helvetica,sans-Serif" font-size="9.00">com.github.aptd.simulation.elements.graph.network.local.</text>
<text text-anchor="middle" x="330" y="-147.8" font-family="Helvetica,sans-Serif" font-size="9.00">CPlatform.updatestate</text>
</a>
</g>
</g>
<!-- Node8&#45;&gt;Node24 -->
<g id="edge17" class="edge"><title>Node8&#45;&gt;Node24</title>
<path fill="none" stroke="midnightblue" d="M94.571,-325.168C110.972,-287.599 148.173,-215.169 204,-179 210.027,-175.095 216.539,-171.795 223.315,-169.009"/>
<polygon fill="midnightblue" stroke="midnightblue" points="91.1767,-324.208 90.4982,-334.781 97.6221,-326.938 91.1767,-324.208"/>
</g>
<!-- Node25 -->
<g id="node18" class="node"><title>Node25</title>
<g id="a_node18"><a xlink:href="../../d3/d24/classcom_1_1github_1_1aptd_1_1simulation_1_1elements_1_1passenger_1_1CPassengerSource.htm#a0cfcd5b618729985ded35c5f34ff0f2c" target="_top" xlink:title="com.github.aptd.simulation.elements.passenger.\lCPassengerSource.updatestate">
<polygon fill="none" stroke="black" points="223,-94 223,-122 437,-122 437,-94 223,-94"/>
<text text-anchor="start" x="231" y="-110.8" font-family="Helvetica,sans-Serif" font-size="9.00">com.github.aptd.simulation.elements.passenger.</text>
<text text-anchor="middle" x="330" y="-100.8" font-family="Helvetica,sans-Serif" font-size="9.00">CPassengerSource.updatestate</text>
</a>
</g>
</g>
<!-- Node8&#45;&gt;Node25 -->
<g id="edge18" class="edge"><title>Node8&#45;&gt;Node25</title>
<path fill="none" stroke="midnightblue" d="M90.8896,-324.93C103.362,-279.391 136.958,-180.824 204,-132 209.805,-127.772 216.151,-124.231 222.807,-121.27"/>
<polygon fill="midnightblue" stroke="midnightblue" points="87.4506,-324.245 88.2909,-334.807 94.2202,-326.027 87.4506,-324.245"/>
</g>
<!-- Node26 -->
<g id="node19" class="node"><title>Node26</title>
<g id="a_node19"><a xlink:href="../../d1/db4/classcom_1_1github_1_1aptd_1_1simulation_1_1elements_1_1train_1_1CTrain.htm#ad1f2cd7b0b567a6576f466cee933a53d" target="_top" xlink:title="com.github.aptd.simulation.elements.train.\lCTrain.updatestate">
<polygon fill="none" stroke="black" points="236,-47 236,-75 424,-75 424,-47 236,-47"/>
<text text-anchor="start" x="244" y="-63.8" font-family="Helvetica,sans-Serif" font-size="9.00">com.github.aptd.simulation.elements.train.</text>
<text text-anchor="middle" x="330" y="-53.8" font-family="Helvetica,sans-Serif" font-size="9.00">CTrain.updatestate</text>
</a>
</g>
</g>
<!-- Node8&#45;&gt;Node26 -->
<g id="edge19" class="edge"><title>Node8&#45;&gt;Node26</title>
<path fill="none" stroke="midnightblue" d="M88.4137,-324.672C97.1718,-271.957 125.546,-146.965 204,-85 213.364,-77.6039 224.34,-72.2602 235.83,-68.4321"/>
<polygon fill="midnightblue" stroke="midnightblue" points="84.921,-324.354 86.8316,-334.775 91.8367,-325.437 84.921,-324.354"/>
</g>
<!-- Node27 -->
<g id="node20" class="node"><title>Node27</title>
<g id="a_node20"><a xlink:href="../../d7/da9/classcom_1_1github_1_1aptd_1_1simulation_1_1elements_1_1passenger_1_1CPassenger.htm#af3a13d3db91533300eea67eb7c99e85e" target="_top" xlink:title="com.github.aptd.simulation.elements.passenger.\lCPassenger.updatestate">
<polygon fill="none" stroke="black" points="223,-0 223,-28 437,-28 437,-0 223,-0"/>
<text text-anchor="start" x="231" y="-16.8" font-family="Helvetica,sans-Serif" font-size="9.00">com.github.aptd.simulation.elements.passenger.</text>
<text text-anchor="middle" x="330" y="-6.8" font-family="Helvetica,sans-Serif" font-size="9.00">CPassenger.updatestate</text>
</a>
</g>
</g>
<!-- Node8&#45;&gt;Node27 -->
<g id="edge20" class="edge"><title>Node8&#45;&gt;Node27</title>
<path fill="none" stroke="midnightblue" d="M86.5296,-324.444C91.6373,-264.947 113.376,-112.436 204,-37 209.681,-32.2709 216.016,-28.3856 222.736,-25.2043"/>
<polygon fill="midnightblue" stroke="midnightblue" points="83.0147,-324.504 85.7353,-334.743 89.994,-325.042 83.0147,-324.504"/>
</g>
<!-- Node11 -->
<g id="node4" class="node"><title>Node11</title>
<g id="a_node4"><a xlink:href="../../df/d99/classcom_1_1github_1_1aptd_1_1simulation_1_1elements_1_1train_1_1CTrain_1_1CGenerator.htm#abbca7d9bfd2c067e331f5509d807b869" target="_top" xlink:title="com.github.aptd.simulation.elements.train.\lCTrain.CGenerator.generate">
<polygon fill="none" stroke="black" points="492,-663 492,-691 680,-691 680,-663 492,-663"/>
<text text-anchor="start" x="500" y="-679.8" font-family="Helvetica,sans-Serif" font-size="9.00">com.github.aptd.simulation.elements.train.</text>
<text text-anchor="middle" x="586" y="-669.8" font-family="Helvetica,sans-Serif" font-size="9.00">CTrain.CGenerator.generate</text>
</a>
</g>
</g>
<!-- Node10&#45;&gt;Node11 -->
<g id="edge3" class="edge"><title>Node10&#45;&gt;Node11</title>
<path fill="none" stroke="midnightblue" d="M434.325,-677C453.37,-677 473.151,-677 491.873,-677"/>
<polygon fill="midnightblue" stroke="midnightblue" points="434.138,-673.5 424.138,-677 434.138,-680.5 434.138,-673.5"/>
</g>
<!-- Node18 -->
<g id="node11" class="node"><title>Node18</title>
<g id="a_node11"><a xlink:href="../../d1/d3a/classcom_1_1github_1_1aptd_1_1simulation_1_1elements_1_1train_1_1CDoor.htm#a340a49abfb1fb1f4103395e8acd90409" target="_top" xlink:title="com.github.aptd.simulation.elements.train.\lCDoor.updatestate">
<polygon fill="none" stroke="black" points="716,-287 716,-315 904,-315 904,-287 716,-287"/>
<text text-anchor="start" x="724" y="-303.8" font-family="Helvetica,sans-Serif" font-size="9.00">com.github.aptd.simulation.elements.train.</text>
<text text-anchor="middle" x="810" y="-293.8" font-family="Helvetica,sans-Serif" font-size="9.00">CDoor.updatestate</text>
</a>
</g>
</g>
<!-- Node17&#45;&gt;Node18 -->
<g id="edge10" class="edge"><title>Node17&#45;&gt;Node18</title>
<path fill="none" stroke="midnightblue" d="M661.864,-332.813C688.54,-327.045 718.342,-320.602 744.111,-315.03"/>
<polygon fill="midnightblue" stroke="midnightblue" points="660.843,-329.453 651.808,-334.987 662.322,-336.295 660.843,-329.453"/>
</g>
<!-- Node20 -->
<g id="node13" class="node"><title>Node20</title>
<g id="a_node13"><a xlink:href="../../d0/dfe/classcom_1_1github_1_1aptd_1_1simulation_1_1datamodel_1_1CXMLReader.htm#a9245292c78062330cc2b46caf7338fb7" target="_top" xlink:title="transfer the data&#45;model into an experiment based on given factory ">
<polygon fill="none" stroke="black" points="499,-288 499,-316 673,-316 673,-288 499,-288"/>
<text text-anchor="start" x="507" y="-304.8" font-family="Helvetica,sans-Serif" font-size="9.00">com.github.aptd.simulation.datamodel.</text>
<text text-anchor="middle" x="586" y="-294.8" font-family="Helvetica,sans-Serif" font-size="9.00">CXMLReader.get</text>
</a>
</g>
</g>
<!-- Node19&#45;&gt;Node20 -->
<g id="edge12" class="edge"><title>Node19&#45;&gt;Node20</title>
<path fill="none" stroke="midnightblue" d="M427.644,-304.478C451.079,-304.109 475.979,-303.717 498.892,-303.356"/>
<polygon fill="midnightblue" stroke="midnightblue" points="427.291,-300.983 417.347,-304.64 427.401,-307.982 427.291,-300.983"/>
</g>
<!-- Node23 -->
<g id="node16" class="node"><title>Node23</title>
<g id="a_node16"><a xlink:href="../../d1/d3a/classcom_1_1github_1_1aptd_1_1simulation_1_1elements_1_1train_1_1CDoor.htm#ac79a6b3684d7906047249e6bbfd5564d" target="_top" xlink:title="com.github.aptd.simulation.elements.train.\lCDoor.handletrainmessages">
<polygon fill="none" stroke="black" points="492,-214 492,-242 680,-242 680,-214 492,-214"/>
<text text-anchor="start" x="500" y="-230.8" font-family="Helvetica,sans-Serif" font-size="9.00">com.github.aptd.simulation.elements.train.</text>
<text text-anchor="middle" x="586" y="-220.8" font-family="Helvetica,sans-Serif" font-size="9.00">CDoor.handletrainmessages</text>
</a>
</g>
</g>
<!-- Node22&#45;&gt;Node23 -->
<g id="edge15" class="edge"><title>Node22&#45;&gt;Node23</title>
<path fill="none" stroke="midnightblue" d="M434.325,-212.577C453.37,-214.526 473.151,-216.551 491.873,-218.467"/>
<polygon fill="midnightblue" stroke="midnightblue" points="434.442,-209.07 424.138,-211.534 433.73,-216.034 434.442,-209.07"/>
</g>
<!-- Node23&#45;&gt;Node18 -->
<g id="edge16" class="edge"><title>Node23&#45;&gt;Node18</title>
<path fill="none" stroke="midnightblue" d="M639.341,-245.211C678.055,-257.941 730.126,-275.064 766.328,-286.968"/>
<polygon fill="midnightblue" stroke="midnightblue" points="640.397,-241.874 629.804,-242.075 638.21,-248.524 640.397,-241.874"/>
</g>
</g>
</svg>
