<?xml version="1.0" encoding="UTF-8" standalone="no"?>
<!DOCTYPE svg PUBLIC "-//W3C//DTD SVG 1.1//EN"
 "http://www.w3.org/Graphics/SVG/1.1/DTD/svg11.dtd">
<!-- Generated by graphviz version 2.36.0 (20140111.2315)
 -->
<!-- Title: com.github.aptd.simulation.elements.graph.TestCNetwork Pages: 1 -->
<svg width="322pt" height="380pt"
 viewBox="0.00 0.00 322.00 380.00" xmlns="http://www.w3.org/2000/svg" xmlns:xlink="http://www.w3.org/1999/xlink">
<g id="graph0" class="graph" transform="scale(1 1) rotate(0) translate(4 376)">
<title>com.github.aptd.simulation.elements.graph.TestCNetwork</title>
<!-- Node2 -->
<g id="node1" class="node"><title>Node2</title>
<polygon fill="#bfbfbf" stroke="black" points="16,-1 16,-85 210,-85 210,-1 16,-1"/>
<text text-anchor="start" x="24" y="-73.8" font-family="Helvetica,sans-Serif" font-size="9.00">com.github.aptd.simulation.elements.graph.</text>
<text text-anchor="middle" x="113" y="-63.8" font-family="Helvetica,sans-Serif" font-size="9.00">TestCNetwork</text>
<polyline fill="none" stroke="black" points="16,-57 210,-57 "/>
<text text-anchor="middle" x="113" y="-45.8" font-family="Helvetica,sans-Serif" font-size="9.00"> </text>
<polyline fill="none" stroke="black" points="16,-39 210,-39 "/>
<text text-anchor="start" x="24" y="-27.8" font-family="Helvetica,sans-Serif" font-size="9.00">+ ininitialize()</text>
<text text-anchor="start" x="24" y="-17.8" font-family="Helvetica,sans-Serif" font-size="9.00">+ networkbuild()</text>
<text text-anchor="start" x="24" y="-7.8" font-family="Helvetica,sans-Serif" font-size="9.00">+ main()</text>
</g>
<!-- Node3 -->
<g id="node2" class="node"><title>Node3</title>
<g id="a_node2"><a xlink:href="../../d4/dc9/classcom_1_1github_1_1aptd_1_1simulation_1_1IBaseTest.htm" target="_top" xlink:title="base test class with helpers ">
<polygon fill="none" stroke="black" points="0,-153 0,-247 128,-247 128,-153 0,-153"/>
<text text-anchor="start" x="8" y="-235.8" font-family="Helvetica,sans-Serif" font-size="9.00">com.github.aptd.simulation.</text>
<text text-anchor="middle" x="64" y="-225.8" font-family="Helvetica,sans-Serif" font-size="9.00">IBaseTest</text>
<polyline fill="none" stroke="black" points="0,-219 128,-219 "/>
<text text-anchor="start" x="8" y="-207.8" font-family="Helvetica,sans-Serif" font-size="9.00"># PRINTENABLE</text>
<polyline fill="none" stroke="black" points="0,-201 128,-201 "/>
<text text-anchor="start" x="8" y="-189.8" font-family="Helvetica,sans-Serif" font-size="9.00"># invoketest()</text>
<text text-anchor="start" x="8" y="-179.8" font-family="Helvetica,sans-Serif" font-size="9.00">&#45; before()</text>
<text text-anchor="start" x="8" y="-169.8" font-family="Helvetica,sans-Serif" font-size="9.00">&#45; execute()</text>
<text text-anchor="start" x="8" y="-159.8" font-family="Helvetica,sans-Serif" font-size="9.00">&#45; invoke()</text>
</a>
</g>
</g>
<!-- Node3&#45;&gt;Node2 -->
<g id="edge1" class="edge"><title>Node3&#45;&gt;Node2</title>
<path fill="none" stroke="midnightblue" d="M81.5858,-143.372C87.6581,-124.163 94.3475,-103.003 99.9873,-85.1628"/>
<polygon fill="none" stroke="midnightblue" points="78.2461,-142.325 78.5689,-152.915 84.9205,-144.435 78.2461,-142.325"/>
</g>
<!-- Node4 -->
<g id="node3" class="node"><title>Node4</title>
<g id="a_node3"><a xlink:href="../../dd/dd7/interfacecom_1_1github_1_1aptd_1_1simulation_1_1elements_1_1IElement.htm" target="_top" xlink:title="any object interface ">
<polygon fill="none" stroke="black" points="146,-143 146,-257 314,-257 314,-143 146,-143"/>
<text text-anchor="start" x="154" y="-245.8" font-family="Helvetica,sans-Serif" font-size="9.00">com.github.aptd.simulation.elements.</text>
<text text-anchor="middle" x="230" y="-235.8" font-family="Helvetica,sans-Serif" font-size="9.00">IElement&lt; T extends IAgent&lt;?&gt;</text>
<polyline fill="none" stroke="black" points="146,-229 314,-229 "/>
<text text-anchor="middle" x="230" y="-217.8" font-family="Helvetica,sans-Serif" font-size="9.00"> </text>
<polyline fill="none" stroke="black" points="146,-211 314,-211 "/>
<text text-anchor="start" x="154" y="-199.8" font-family="Helvetica,sans-Serif" font-size="9.00">+ environment()</text>
<text text-anchor="start" x="154" y="-189.8" font-family="Helvetica,sans-Serif" font-size="9.00">+ id()</text>
<text text-anchor="start" x="154" y="-179.8" font-family="Helvetica,sans-Serif" font-size="9.00">+ imminent()</text>
<text text-anchor="start" x="154" y="-169.8" font-family="Helvetica,sans-Serif" font-size="9.00">+ input()</text>
<text text-anchor="start" x="154" y="-159.8" font-family="Helvetica,sans-Serif" font-size="9.00">+ nextactivation()</text>
<text text-anchor="start" x="154" y="-149.8" font-family="Helvetica,sans-Serif" font-size="9.00">+ output()</text>
</a>
</g>
</g>
<!-- Node4&#45;&gt;Node2 -->
<g id="edge2" class="edge"><title>Node4&#45;&gt;Node2</title>
<path fill="none" stroke="#404040" d="M187.429,-142.603C175.638,-126.982 162.912,-110.122 151.375,-94.8383"/>
<polygon fill="none" stroke="#404040" points="151.216,-94.6286 144.409,-92.2496 143.987,-85.0509 150.794,-87.4298 151.216,-94.6286"/>
<text text-anchor="middle" x="192.5" y="-116.8" font-family="Helvetica,sans-Serif" font-size="9.00"> &#45;m_track</text>
<text text-anchor="middle" x="192.5" y="-106.8" font-family="Helvetica,sans-Serif" font-size="9.00">&#45;m_station</text>
</g>
<!-- Node5 -->
<g id="node4" class="node"><title>Node5</title>
<g id="a_node4"><a xlink:href="../../d4/d0d/interfacecom_1_1github_1_1aptd_1_1simulation_1_1elements_1_1IPerceiveable.htm" target="_top" xlink:title="any object which be perceived by an agent ">
<polygon fill="none" stroke="black" points="146,-297 146,-371 314,-371 314,-297 146,-297"/>
<text text-anchor="start" x="154" y="-359.8" font-family="Helvetica,sans-Serif" font-size="9.00">com.github.aptd.simulation.elements.</text>
<text text-anchor="middle" x="230" y="-349.8" font-family="Helvetica,sans-Serif" font-size="9.00">IPerceiveable</text>
<polyline fill="none" stroke="black" points="146,-343 314,-343 "/>
<text text-anchor="middle" x="230" y="-331.8" font-family="Helvetica,sans-Serif" font-size="9.00"> </text>
<polyline fill="none" stroke="black" points="146,-325 314,-325 "/>
<text text-anchor="start" x="154" y="-313.8" font-family="Helvetica,sans-Serif" font-size="9.00">+ literal()</text>
<text text-anchor="start" x="154" y="-303.8" font-family="Helvetica,sans-Serif" font-size="9.00">+ literal()</text>
</a>
</g>
</g>
<!-- Node5&#45;&gt;Node4 -->
<g id="edge3" class="edge"><title>Node5&#45;&gt;Node4</title>
<path fill="none" stroke="midnightblue" d="M230,-286.809C230,-277.218 230,-267.013 230,-257.111"/>
<polygon fill="none" stroke="midnightblue" points="226.5,-286.93 230,-296.93 233.5,-286.93 226.5,-286.93"/>
</g>
</g>
</svg>
