<?xml version="1.0" encoding="UTF-8" standalone="no"?>
<!DOCTYPE svg PUBLIC "-//W3C//DTD SVG 1.1//EN"
 "http://www.w3.org/Graphics/SVG/1.1/DTD/svg11.dtd">
<!-- Generated by graphviz version 2.36.0 (20140111.2315)
 -->
<!-- Title: com.github.aptd.simulation.elements.passenger.CPassengerSource Pages: 1 -->
<!--zoomable 1736 -->
<svg id="main" version="1.1" xmlns="http://www.w3.org/2000/svg" xmlns:xlink="http://www.w3.org/1999/xlink" xml:space="preserve" onload="init(evt)">
<style type="text/css"><![CDATA[
.edge:hover path { stroke: red; }
.edge:hover polygon { stroke: red; fill: red; }
]]></style>
<script type="text/javascript"><![CDATA[
var edges = document.getElementsByTagName('g');
if (edges && edges.length) {
  for (var i=0;i<edges.length;i++) {
    if (edges[i].id.substr(0,4)=='edge') {
      edges[i].setAttribute('class','edge');
    }
  }
}
]]></script>
        <defs>
                <circle id="rim" cx="0" cy="0" r="7"/>
                <circle id="rim2" cx="0" cy="0" r="3.5"/>
                <g id="zoomPlus">
                        <use xlink:href="#rim" fill="#404040">
                                <set attributeName="fill" to="#808080" begin="zoomplus.mouseover" end="zoomplus.mouseout"/>
                        </use>
                        <path d="M-4,0h8M0,-4v8" fill="none" stroke="white" stroke-width="1.5" pointer-events="none"/>
                </g>
                <g id="zoomMin">
                        <use xlink:href="#rim" fill="#404040">
                                <set attributeName="fill" to="#808080" begin="zoomminus.mouseover" end="zoomminus.mouseout"/>
                        </use>
                        <path d="M-4,0h8" fill="none" stroke="white" stroke-width="1.5" pointer-events="none"/>
                </g>
                <g id="dirArrow">
                        <path fill="none" stroke="white" stroke-width="1.5" d="M0,-3.0v7 M-2.5,-0.5L0,-3.0L2.5,-0.5"/>
                </g>
               <g id="resetDef">
                       <use xlink:href="#rim2" fill="#404040">
                               <set attributeName="fill" to="#808080" begin="reset.mouseover" end="reset.mouseout"/>
                       </use>
               </g>
        </defs>

<script type="text/javascript">
var viewWidth = 959;
var viewHeight = 1736;
var sectionId = 'dynsection-1';
</script>
<script xlink:href="../../svgpan.js"/>
<svg id="graph" class="graph">
<g id="viewport">
<title>com.github.aptd.simulation.elements.passenger.CPassengerSource</title>
<!-- Node10 -->
<g id="node1" class="node"><title>Node10</title>
<polygon fill="#bfbfbf" stroke="black" points="218,-1 218,-195 432,-195 432,-1 218,-1"/>
<text text-anchor="start" x="226" y="-183.8" font-family="Helvetica,sans-Serif" font-size="9.00">com.github.aptd.simulation.elements.passenger.</text>
<text text-anchor="middle" x="325" y="-173.8" font-family="Helvetica,sans-Serif" font-size="9.00">CPassengerSource</text>
<polyline fill="none" stroke="black" points="218,-167 432,-167 "/>
<text text-anchor="start" x="226" y="-155.8" font-family="Helvetica,sans-Serif" font-size="9.00">&#45; m_distpassengerspeedatstation</text>
<text text-anchor="start" x="226" y="-145.8" font-family="Helvetica,sans-Serif" font-size="9.00">&#45; m_distribution</text>
<text text-anchor="start" x="226" y="-135.8" font-family="Helvetica,sans-Serif" font-size="9.00">&#45; m_passengers</text>
<text text-anchor="start" x="226" y="-125.8" font-family="Helvetica,sans-Serif" font-size="9.00">&#45; m_passengersgenerated</text>
<text text-anchor="start" x="226" y="-115.8" font-family="Helvetica,sans-Serif" font-size="9.00">&#45; m_startmillis</text>
<text text-anchor="start" x="226" y="-105.8" font-family="Helvetica,sans-Serif" font-size="9.00">&#45; FUNCTOR</text>
<text text-anchor="start" x="226" y="-95.8" font-family="Helvetica,sans-Serif" font-size="9.00">&#45; serialVersionUID</text>
<polyline fill="none" stroke="black" points="218,-89 432,-89 "/>
<text text-anchor="start" x="226" y="-77.8" font-family="Helvetica,sans-Serif" font-size="9.00"># determinenextstatechange()</text>
<text text-anchor="start" x="226" y="-67.8" font-family="Helvetica,sans-Serif" font-size="9.00"># individualliteral()</text>
<text text-anchor="start" x="226" y="-57.8" font-family="Helvetica,sans-Serif" font-size="9.00"># updatecontinuous()</text>
<text text-anchor="start" x="226" y="-47.8" font-family="Helvetica,sans-Serif" font-size="9.00"># updatestate()</text>
<text text-anchor="start" x="226" y="-37.8" font-family="Helvetica,sans-Serif" font-size="9.00"># writeState()</text>
<text text-anchor="start" x="226" y="-27.8" font-family="Helvetica,sans-Serif" font-size="9.00">&#45; CPassengerSource()</text>
<text text-anchor="start" x="226" y="-17.8" font-family="Helvetica,sans-Serif" font-size="9.00">&#45; generatepassenger()</text>
<text text-anchor="start" x="226" y="-7.8" font-family="Helvetica,sans-Serif" font-size="9.00">&#45; itinerary()</text>
</g>
<!-- Node11 -->
<g id="node2" class="node"><title>Node11</title>
<g id="a_node2"><a xlink:href="../../d8/d16/classcom_1_1github_1_1aptd_1_1simulation_1_1elements_1_1IStatefulElement.htm" target="_top" xlink:title="stateful base element with internal transitions and output queueing ">
<polygon fill="none" stroke="black" points="47,-243 47,-487 189,-487 189,-243 47,-243"/>
<text text-anchor="start" x="55" y="-475.8" font-family="Helvetica,sans-Serif" font-size="9.00">com::github::aptd::</text>
<text text-anchor="start" x="55" y="-465.8" font-family="Helvetica,sans-Serif" font-size="9.00">simulation::elements</text>
<text text-anchor="start" x="55" y="-455.8" font-family="Helvetica,sans-Serif" font-size="9.00">::IStatefulElement&lt; IPassenger</text>
<text text-anchor="middle" x="118" y="-445.8" font-family="Helvetica,sans-Serif" font-size="9.00">Source&lt;?&gt; &gt;</text>
<polyline fill="none" stroke="black" points="47,-439 189,-439 "/>
<text text-anchor="start" x="55" y="-427.8" font-family="Helvetica,sans-Serif" font-size="9.00"># m_lastcontinuousupdate</text>
<text text-anchor="start" x="55" y="-417.8" font-family="Helvetica,sans-Serif" font-size="9.00"># m_laststatechange</text>
<text text-anchor="start" x="55" y="-407.8" font-family="Helvetica,sans-Serif" font-size="9.00"># m_nextstatechange</text>
<text text-anchor="start" x="55" y="-397.8" font-family="Helvetica,sans-Serif" font-size="9.00">&#45; m_factory</text>
<text text-anchor="start" x="55" y="-387.8" font-family="Helvetica,sans-Serif" font-size="9.00">&#45; m_output</text>
<text text-anchor="start" x="55" y="-377.8" font-family="Helvetica,sans-Serif" font-size="9.00">&#45; serialVersionUID</text>
<polyline fill="none" stroke="black" points="47,-371 189,-371 "/>
<text text-anchor="start" x="55" y="-359.8" font-family="Helvetica,sans-Serif" font-size="9.00">+ nextstatechange()</text>
<text text-anchor="start" x="55" y="-349.8" font-family="Helvetica,sans-Serif" font-size="9.00">+ output()</text>
<text text-anchor="start" x="55" y="-339.8" font-family="Helvetica,sans-Serif" font-size="9.00">+ getDefaultAsl()</text>
<text text-anchor="start" x="55" y="-329.8" font-family="Helvetica,sans-Serif" font-size="9.00"># IStatefulElement()</text>
<text text-anchor="start" x="55" y="-319.8" font-family="Helvetica,sans-Serif" font-size="9.00"># continuousupdate()</text>
<text text-anchor="start" x="55" y="-309.8" font-family="Helvetica,sans-Serif" font-size="9.00"># determinenextstatechange()</text>
<text text-anchor="start" x="55" y="-299.8" font-family="Helvetica,sans-Serif" font-size="9.00"># flushOutput()</text>
<text text-anchor="start" x="55" y="-289.8" font-family="Helvetica,sans-Serif" font-size="9.00"># output()</text>
<text text-anchor="start" x="55" y="-279.8" font-family="Helvetica,sans-Serif" font-size="9.00"># transition()</text>
<text text-anchor="start" x="55" y="-269.8" font-family="Helvetica,sans-Serif" font-size="9.00"># updatecontinuous()</text>
<text text-anchor="start" x="55" y="-259.8" font-family="Helvetica,sans-Serif" font-size="9.00"># updatestate()</text>
<text text-anchor="start" x="55" y="-249.8" font-family="Helvetica,sans-Serif" font-size="9.00"># writeState()</text>
</a>
</g>
</g>
<!-- Node11&#45;&gt;Node10 -->
<g id="edge1" class="edge"><title>Node11&#45;&gt;Node10</title>
<path fill="none" stroke="midnightblue" d="M195.411,-259.628C199.984,-253.646 204.538,-247.735 209,-242 220.876,-226.735 233.618,-210.699 246.152,-195.108"/>
<polygon fill="none" stroke="midnightblue" points="192.445,-257.746 189.168,-267.821 198.012,-261.989 192.445,-257.746"/>
</g>
<!-- Node12 -->
<g id="node3" class="node"><title>Node12</title>
<g id="a_node3"><a xlink:href="../../d6/df3/classcom_1_1github_1_1aptd_1_1simulation_1_1elements_1_1IBaseElement.htm" target="_top" xlink:title="{com.github.aptd.simulation.elements.\lIBaseElement\&lt; N \&gt;\n|# m_id\l# m_input\l# m_nextactivation\l# m_time\l&#45; m_environment\l&#45; m_external\l&#45; m_functor\l&#45; m_timezone\l&#45; serialVersionUID\l|+ call()\l+ environment()\l+ equals()\l+ hashCode()\l+ id()\l+ imminent()\l+ input()\l+ literal()\l+ literal()\l+ nextactivation()\l+ output()\l+ toString()\l# IBaseElement()\l# individualliteral()\l&#45; currentTime()\l&#45; getNextActivation()\l&#45; maxTime()\l&#45; setNextActivation()\l}">
<polygon fill="none" stroke="black" points="28,-535 28,-849 196,-849 196,-535 28,-535"/>
<text text-anchor="start" x="36" y="-837.8" font-family="Helvetica,sans-Serif" font-size="9.00">com.github.aptd.simulation.elements.</text>
<text text-anchor="middle" x="112" y="-827.8" font-family="Helvetica,sans-Serif" font-size="9.00">IBaseElement&lt; N &gt;</text>
<polyline fill="none" stroke="black" points="28,-821 196,-821 "/>
<text text-anchor="start" x="36" y="-809.8" font-family="Helvetica,sans-Serif" font-size="9.00"># m_id</text>
<text text-anchor="start" x="36" y="-799.8" font-family="Helvetica,sans-Serif" font-size="9.00"># m_input</text>
<text text-anchor="start" x="36" y="-789.8" font-family="Helvetica,sans-Serif" font-size="9.00"># m_nextactivation</text>
<text text-anchor="start" x="36" y="-779.8" font-family="Helvetica,sans-Serif" font-size="9.00"># m_time</text>
<text text-anchor="start" x="36" y="-769.8" font-family="Helvetica,sans-Serif" font-size="9.00">&#45; m_environment</text>
<text text-anchor="start" x="36" y="-759.8" font-family="Helvetica,sans-Serif" font-size="9.00">&#45; m_external</text>
<text text-anchor="start" x="36" y="-749.8" font-family="Helvetica,sans-Serif" font-size="9.00">&#45; m_functor</text>
<text text-anchor="start" x="36" y="-739.8" font-family="Helvetica,sans-Serif" font-size="9.00">&#45; m_timezone</text>
<text text-anchor="start" x="36" y="-729.8" font-family="Helvetica,sans-Serif" font-size="9.00">&#45; serialVersionUID</text>
<polyline fill="none" stroke="black" points="28,-723 196,-723 "/>
<text text-anchor="start" x="36" y="-711.8" font-family="Helvetica,sans-Serif" font-size="9.00">+ call()</text>
<text text-anchor="start" x="36" y="-701.8" font-family="Helvetica,sans-Serif" font-size="9.00">+ environment()</text>
<text text-anchor="start" x="36" y="-691.8" font-family="Helvetica,sans-Serif" font-size="9.00">+ equals()</text>
<text text-anchor="start" x="36" y="-681.8" font-family="Helvetica,sans-Serif" font-size="9.00">+ hashCode()</text>
<text text-anchor="start" x="36" y="-671.8" font-family="Helvetica,sans-Serif" font-size="9.00">+ id()</text>
<text text-anchor="start" x="36" y="-661.8" font-family="Helvetica,sans-Serif" font-size="9.00">+ imminent()</text>
<text text-anchor="start" x="36" y="-651.8" font-family="Helvetica,sans-Serif" font-size="9.00">+ input()</text>
<text text-anchor="start" x="36" y="-641.8" font-family="Helvetica,sans-Serif" font-size="9.00">+ literal()</text>
<text text-anchor="start" x="36" y="-631.8" font-family="Helvetica,sans-Serif" font-size="9.00">+ literal()</text>
<text text-anchor="start" x="36" y="-621.8" font-family="Helvetica,sans-Serif" font-size="9.00">+ nextactivation()</text>
<text text-anchor="start" x="36" y="-611.8" font-family="Helvetica,sans-Serif" font-size="9.00">+ output()</text>
<text text-anchor="start" x="36" y="-601.8" font-family="Helvetica,sans-Serif" font-size="9.00">+ toString()</text>
<text text-anchor="start" x="36" y="-591.8" font-family="Helvetica,sans-Serif" font-size="9.00"># IBaseElement()</text>
<text text-anchor="start" x="36" y="-581.8" font-family="Helvetica,sans-Serif" font-size="9.00"># individualliteral()</text>
<text text-anchor="start" x="36" y="-571.8" font-family="Helvetica,sans-Serif" font-size="9.00">&#45; currentTime()</text>
<text text-anchor="start" x="36" y="-561.8" font-family="Helvetica,sans-Serif" font-size="9.00">&#45; getNextActivation()</text>
<text text-anchor="start" x="36" y="-551.8" font-family="Helvetica,sans-Serif" font-size="9.00">&#45; maxTime()</text>
<text text-anchor="start" x="36" y="-541.8" font-family="Helvetica,sans-Serif" font-size="9.00">&#45; setNextActivation()</text>
</a>
</g>
</g>
<!-- Node12&#45;&gt;Node11 -->
<g id="edge2" class="edge"><title>Node12&#45;&gt;Node11</title>
<path fill="none" stroke="midnightblue" d="M115.072,-524.598C115.304,-512.018 115.536,-499.47 115.761,-487.254"/>
<polygon fill="none" stroke="midnightblue" points="111.571,-524.625 114.886,-534.688 118.57,-524.754 111.571,-524.625"/>
</g>
<!-- Node13 -->
<g id="node4" class="node"><title>Node13</title>
<g id="a_node4"><a xlink:href="../../d6/df3/classcom_1_1github_1_1aptd_1_1simulation_1_1elements_1_1IBaseElement.htm" target="_top" xlink:title="base simulation element structure ">
<polygon fill="none" stroke="black" points="28,-897 28,-1201 204,-1201 204,-897 28,-897"/>
<text text-anchor="start" x="36" y="-1189.8" font-family="Helvetica,sans-Serif" font-size="9.00">com.github.aptd.simulation.elements.</text>
<text text-anchor="middle" x="116" y="-1179.8" font-family="Helvetica,sans-Serif" font-size="9.00">IBaseElement&lt; N extends IElement&lt;?&gt;</text>
<polyline fill="none" stroke="black" points="28,-1173 204,-1173 "/>
<text text-anchor="start" x="36" y="-1161.8" font-family="Helvetica,sans-Serif" font-size="9.00"># m_id</text>
<text text-anchor="start" x="36" y="-1151.8" font-family="Helvetica,sans-Serif" font-size="9.00"># m_input</text>
<text text-anchor="start" x="36" y="-1141.8" font-family="Helvetica,sans-Serif" font-size="9.00"># m_nextactivation</text>
<text text-anchor="start" x="36" y="-1131.8" font-family="Helvetica,sans-Serif" font-size="9.00">&#45; m_environment</text>
<text text-anchor="start" x="36" y="-1121.8" font-family="Helvetica,sans-Serif" font-size="9.00">&#45; m_external</text>
<text text-anchor="start" x="36" y="-1111.8" font-family="Helvetica,sans-Serif" font-size="9.00">&#45; m_functor</text>
<text text-anchor="start" x="36" y="-1101.8" font-family="Helvetica,sans-Serif" font-size="9.00">&#45; m_timezone</text>
<text text-anchor="start" x="36" y="-1091.8" font-family="Helvetica,sans-Serif" font-size="9.00">&#45; serialVersionUID</text>
<polyline fill="none" stroke="black" points="28,-1085 204,-1085 "/>
<text text-anchor="start" x="36" y="-1073.8" font-family="Helvetica,sans-Serif" font-size="9.00">+ call()</text>
<text text-anchor="start" x="36" y="-1063.8" font-family="Helvetica,sans-Serif" font-size="9.00">+ environment()</text>
<text text-anchor="start" x="36" y="-1053.8" font-family="Helvetica,sans-Serif" font-size="9.00">+ equals()</text>
<text text-anchor="start" x="36" y="-1043.8" font-family="Helvetica,sans-Serif" font-size="9.00">+ hashCode()</text>
<text text-anchor="start" x="36" y="-1033.8" font-family="Helvetica,sans-Serif" font-size="9.00">+ id()</text>
<text text-anchor="start" x="36" y="-1023.8" font-family="Helvetica,sans-Serif" font-size="9.00">+ imminent()</text>
<text text-anchor="start" x="36" y="-1013.8" font-family="Helvetica,sans-Serif" font-size="9.00">+ input()</text>
<text text-anchor="start" x="36" y="-1003.8" font-family="Helvetica,sans-Serif" font-size="9.00">+ literal()</text>
<text text-anchor="start" x="36" y="-993.8" font-family="Helvetica,sans-Serif" font-size="9.00">+ literal()</text>
<text text-anchor="start" x="36" y="-983.8" font-family="Helvetica,sans-Serif" font-size="9.00">+ nextactivation()</text>
<text text-anchor="start" x="36" y="-973.8" font-family="Helvetica,sans-Serif" font-size="9.00">+ output()</text>
<text text-anchor="start" x="36" y="-963.8" font-family="Helvetica,sans-Serif" font-size="9.00">+ toString()</text>
<text text-anchor="start" x="36" y="-953.8" font-family="Helvetica,sans-Serif" font-size="9.00"># IBaseElement()</text>
<text text-anchor="start" x="36" y="-943.8" font-family="Helvetica,sans-Serif" font-size="9.00"># individualliteral()</text>
<text text-anchor="start" x="36" y="-933.8" font-family="Helvetica,sans-Serif" font-size="9.00">&#45; currentTime()</text>
<text text-anchor="start" x="36" y="-923.8" font-family="Helvetica,sans-Serif" font-size="9.00">&#45; getNextActivation()</text>
<text text-anchor="start" x="36" y="-913.8" font-family="Helvetica,sans-Serif" font-size="9.00">&#45; maxTime()</text>
<text text-anchor="start" x="36" y="-903.8" font-family="Helvetica,sans-Serif" font-size="9.00">&#45; setNextActivation()</text>
</a>
</g>
</g>
<!-- Node13&#45;&gt;Node12 -->
<g id="edge3" class="edge"><title>Node13&#45;&gt;Node12</title>
<path fill="none" stroke="orange" d="M114.184,-886.868C114.043,-874.283 113.9,-861.586 113.758,-849.035"/>
<polygon fill="orange" stroke="orange" points="110.685,-886.973 114.298,-896.933 117.685,-886.894 110.685,-886.973"/>
<text text-anchor="middle" x="126.5" y="-870.8" font-family="Helvetica,sans-Serif" font-size="9.00"> &lt; N &gt;</text>
</g>
<!-- Node14 -->
<g id="node5" class="node"><title>Node14</title>
<g id="a_node5"><a xlink:href="../../dd/dd7/interfacecom_1_1github_1_1aptd_1_1simulation_1_1elements_1_1IElement.htm" target="_top" xlink:title="{com.github.aptd.simulation.elements.\lIElement\&lt; N \&gt;\n||+ environment()\l+ id()\l+ imminent()\l+ input()\l+ nextactivation()\l+ output()\l}">
<polygon fill="none" stroke="black" points="28,-1241 28,-1355 196,-1355 196,-1241 28,-1241"/>
<text text-anchor="start" x="36" y="-1343.8" font-family="Helvetica,sans-Serif" font-size="9.00">com.github.aptd.simulation.elements.</text>
<text text-anchor="middle" x="112" y="-1333.8" font-family="Helvetica,sans-Serif" font-size="9.00">IElement&lt; N &gt;</text>
<polyline fill="none" stroke="black" points="28,-1327 196,-1327 "/>
<text text-anchor="middle" x="112" y="-1315.8" font-family="Helvetica,sans-Serif" font-size="9.00"> </text>
<polyline fill="none" stroke="black" points="28,-1309 196,-1309 "/>
<text text-anchor="start" x="36" y="-1297.8" font-family="Helvetica,sans-Serif" font-size="9.00">+ environment()</text>
<text text-anchor="start" x="36" y="-1287.8" font-family="Helvetica,sans-Serif" font-size="9.00">+ id()</text>
<text text-anchor="start" x="36" y="-1277.8" font-family="Helvetica,sans-Serif" font-size="9.00">+ imminent()</text>
<text text-anchor="start" x="36" y="-1267.8" font-family="Helvetica,sans-Serif" font-size="9.00">+ input()</text>
<text text-anchor="start" x="36" y="-1257.8" font-family="Helvetica,sans-Serif" font-size="9.00">+ nextactivation()</text>
<text text-anchor="start" x="36" y="-1247.8" font-family="Helvetica,sans-Serif" font-size="9.00">+ output()</text>
</a>
</g>
</g>
<!-- Node14&#45;&gt;Node13 -->
<g id="edge4" class="edge"><title>Node14&#45;&gt;Node13</title>
<path fill="none" stroke="midnightblue" d="M113.07,-1230.94C113.223,-1221.5 113.385,-1211.47 113.552,-1201.18"/>
<polygon fill="none" stroke="midnightblue" points="109.57,-1230.9 112.908,-1240.95 116.569,-1231.01 109.57,-1230.9"/>
</g>
<!-- Node15 -->
<g id="node6" class="node"><title>Node15</title>
<g id="a_node6"><a xlink:href="../../dd/dd7/interfacecom_1_1github_1_1aptd_1_1simulation_1_1elements_1_1IElement.htm" target="_top" xlink:title="any object interface ">
<polygon fill="none" stroke="black" points="28,-1499 28,-1613 196,-1613 196,-1499 28,-1499"/>
<text text-anchor="start" x="36" y="-1601.8" font-family="Helvetica,sans-Serif" font-size="9.00">com.github.aptd.simulation.elements.</text>
<text text-anchor="middle" x="112" y="-1591.8" font-family="Helvetica,sans-Serif" font-size="9.00">IElement&lt; T extends IAgent&lt;?&gt;</text>
<polyline fill="none" stroke="black" points="28,-1585 196,-1585 "/>
<text text-anchor="middle" x="112" y="-1573.8" font-family="Helvetica,sans-Serif" font-size="9.00"> </text>
<polyline fill="none" stroke="black" points="28,-1567 196,-1567 "/>
<text text-anchor="start" x="36" y="-1555.8" font-family="Helvetica,sans-Serif" font-size="9.00">+ environment()</text>
<text text-anchor="start" x="36" y="-1545.8" font-family="Helvetica,sans-Serif" font-size="9.00">+ id()</text>
<text text-anchor="start" x="36" y="-1535.8" font-family="Helvetica,sans-Serif" font-size="9.00">+ imminent()</text>
<text text-anchor="start" x="36" y="-1525.8" font-family="Helvetica,sans-Serif" font-size="9.00">+ input()</text>
<text text-anchor="start" x="36" y="-1515.8" font-family="Helvetica,sans-Serif" font-size="9.00">+ nextactivation()</text>
<text text-anchor="start" x="36" y="-1505.8" font-family="Helvetica,sans-Serif" font-size="9.00">+ output()</text>
</a>
</g>
</g>
<!-- Node15&#45;&gt;Node10 -->
<g id="edge13" class="edge"><title>Node15&#45;&gt;Node10</title>
<path fill="none" stroke="#404040" d="M71.2486,-1498.59C39.225,-1448.66 0,-1372.5 0,-1299 0,-1299 0,-1299 0,-364 0,-307.208 1.18644,-285.244 38,-242 81.7258,-190.636 148.358,-155.859 206.415,-133.473"/>
<polygon fill="none" stroke="#404040" points="206.668,-133.378 210.88,-127.525 217.903,-129.16 213.692,-135.014 206.668,-133.378"/>
<text text-anchor="middle" x="29" y="-870.8" font-family="Helvetica,sans-Serif" font-size="9.00"> &#45;m_generator</text>
</g>
<!-- Node15&#45;&gt;Node14 -->
<g id="edge5" class="edge"><title>Node15&#45;&gt;Node14</title>
<path fill="none" stroke="orange" d="M112,-1488.81C112,-1447.33 112,-1394.45 112,-1355.05"/>
<polygon fill="orange" stroke="orange" points="108.5,-1488.82 112,-1498.82 115.5,-1488.82 108.5,-1488.82"/>
<text text-anchor="middle" x="124.5" y="-1424.8" font-family="Helvetica,sans-Serif" font-size="9.00"> &lt; N &gt;</text>
</g>
<!-- Node16 -->
<g id="node7" class="node"><title>Node16</title>
<g id="a_node7"><a xlink:href="../../d4/d0d/interfacecom_1_1github_1_1aptd_1_1simulation_1_1elements_1_1IPerceiveable.htm" target="_top" xlink:title="any object which be perceived by an agent ">
<polygon fill="none" stroke="black" points="148,-1653 148,-1727 316,-1727 316,-1653 148,-1653"/>
<text text-anchor="start" x="156" y="-1715.8" font-family="Helvetica,sans-Serif" font-size="9.00">com.github.aptd.simulation.elements.</text>
<text text-anchor="middle" x="232" y="-1705.8" font-family="Helvetica,sans-Serif" font-size="9.00">IPerceiveable</text>
<polyline fill="none" stroke="black" points="148,-1699 316,-1699 "/>
<text text-anchor="middle" x="232" y="-1687.8" font-family="Helvetica,sans-Serif" font-size="9.00"> </text>
<polyline fill="none" stroke="black" points="148,-1681 316,-1681 "/>
<text text-anchor="start" x="156" y="-1669.8" font-family="Helvetica,sans-Serif" font-size="9.00">+ literal()</text>
<text text-anchor="start" x="156" y="-1659.8" font-family="Helvetica,sans-Serif" font-size="9.00">+ literal()</text>
</a>
</g>
</g>
<!-- Node16&#45;&gt;Node15 -->
<g id="edge6" class="edge"><title>Node16&#45;&gt;Node15</title>
<path fill="none" stroke="midnightblue" d="M192.221,-1645.24C182.871,-1634.96 172.778,-1623.86 163.01,-1613.11"/>
<polygon fill="none" stroke="midnightblue" points="189.893,-1647.89 199.209,-1652.93 195.073,-1643.18 189.893,-1647.89"/>
</g>
<!-- Node17 -->
<g id="node8" class="node"><title>Node17</title>
<g id="a_node8"><a xlink:href="../../db/d65/interfacecom_1_1github_1_1aptd_1_1simulation_1_1core_1_1time_1_1ITime.htm" target="_top" xlink:title="time interface ">
<polygon fill="none" stroke="black" points="148,-1375 148,-1479 316,-1479 316,-1375 148,-1375"/>
<text text-anchor="start" x="156" y="-1467.8" font-family="Helvetica,sans-Serif" font-size="9.00">com.github.aptd.simulation.core.time.</text>
<text text-anchor="middle" x="232" y="-1457.8" font-family="Helvetica,sans-Serif" font-size="9.00">ITime</text>
<polyline fill="none" stroke="black" points="148,-1451 316,-1451 "/>
<text text-anchor="middle" x="232" y="-1439.8" font-family="Helvetica,sans-Serif" font-size="9.00"> </text>
<polyline fill="none" stroke="black" points="148,-1433 316,-1433 "/>
<text text-anchor="start" x="156" y="-1421.8" font-family="Helvetica,sans-Serif" font-size="9.00">+ active()</text>
<text text-anchor="start" x="156" y="-1411.8" font-family="Helvetica,sans-Serif" font-size="9.00">+ addagent()</text>
<text text-anchor="start" x="156" y="-1401.8" font-family="Helvetica,sans-Serif" font-size="9.00">+ current()</text>
<text text-anchor="start" x="156" y="-1391.8" font-family="Helvetica,sans-Serif" font-size="9.00">+ raw()</text>
<text text-anchor="start" x="156" y="-1381.8" font-family="Helvetica,sans-Serif" font-size="9.00">+ removeagent()</text>
</a>
</g>
</g>
<!-- Node16&#45;&gt;Node17 -->
<g id="edge8" class="edge"><title>Node16&#45;&gt;Node17</title>
<path fill="none" stroke="midnightblue" d="M232,-1642.74C232,-1596.91 232,-1526.88 232,-1479.35"/>
<polygon fill="none" stroke="midnightblue" points="228.5,-1642.98 232,-1652.98 235.5,-1642.98 228.5,-1642.98"/>
</g>
<!-- Node20 -->
<g id="node11" class="node"><title>Node20</title>
<g id="a_node11"><a xlink:href="../../dd/dd7/interfacecom_1_1github_1_1aptd_1_1simulation_1_1elements_1_1IElement.htm" target="_top" xlink:title="any object interface ">
<polygon fill="none" stroke="black" points="280.5,-987 280.5,-1111 381.5,-1111 381.5,-987 280.5,-987"/>
<text text-anchor="start" x="288.5" y="-1099.8" font-family="Helvetica,sans-Serif" font-size="9.00">com::github::aptd::</text>
<text text-anchor="start" x="288.5" y="-1089.8" font-family="Helvetica,sans-Serif" font-size="9.00">simulation::elements</text>
<text text-anchor="middle" x="331" y="-1079.8" font-family="Helvetica,sans-Serif" font-size="9.00">::IElement&lt; T &gt;</text>
<polyline fill="none" stroke="black" points="280.5,-1073 381.5,-1073 "/>
<text text-anchor="middle" x="331" y="-1061.8" font-family="Helvetica,sans-Serif" font-size="9.00"> </text>
<polyline fill="none" stroke="black" points="280.5,-1055 381.5,-1055 "/>
<text text-anchor="start" x="288.5" y="-1043.8" font-family="Helvetica,sans-Serif" font-size="9.00">+ environment()</text>
<text text-anchor="start" x="288.5" y="-1033.8" font-family="Helvetica,sans-Serif" font-size="9.00">+ id()</text>
<text text-anchor="start" x="288.5" y="-1023.8" font-family="Helvetica,sans-Serif" font-size="9.00">+ imminent()</text>
<text text-anchor="start" x="288.5" y="-1013.8" font-family="Helvetica,sans-Serif" font-size="9.00">+ input()</text>
<text text-anchor="start" x="288.5" y="-1003.8" font-family="Helvetica,sans-Serif" font-size="9.00">+ nextactivation()</text>
<text text-anchor="start" x="288.5" y="-993.8" font-family="Helvetica,sans-Serif" font-size="9.00">+ output()</text>
</a>
</g>
</g>
<!-- Node16&#45;&gt;Node20 -->
<g id="edge12" class="edge"><title>Node16&#45;&gt;Node20</title>
<path fill="none" stroke="midnightblue" d="M255.811,-1643.89C276.298,-1602.54 304.471,-1538.95 317,-1480 344.405,-1351.05 340.676,-1195.51 335.717,-1111.34"/>
<polygon fill="none" stroke="midnightblue" points="252.657,-1642.37 251.305,-1652.88 258.915,-1645.51 252.657,-1642.37"/>
</g>
<!-- Node17&#45;&gt;Node13 -->
<g id="edge7" class="edge"><title>Node17&#45;&gt;Node13</title>
<path fill="none" stroke="#404040" d="M228.218,-1374.62C224.487,-1336.78 217.33,-1284.41 204,-1240 201.27,-1230.9 198.18,-1221.68 194.833,-1212.46"/>
<polygon fill="none" stroke="#404040" points="194.832,-1212.46 188.984,-1208.24 190.629,-1201.22 196.478,-1205.44 194.832,-1212.46"/>
<text text-anchor="middle" x="245" y="-1295.8" font-family="Helvetica,sans-Serif" font-size="9.00"> #m_time</text>
</g>
<!-- Node18 -->
<g id="node9" class="node"><title>Node18</title>
<g id="a_node9"><a xlink:href="../../dd/de2/interfacecom_1_1github_1_1aptd_1_1simulation_1_1elements_1_1passenger_1_1IPassengerSource.htm" target="_top" xlink:title="{com.github.aptd.simulation.elements.passenger.\lIPassengerSource\&lt; IPassengerSource\&lt;?\&gt; \&gt;\n||}">
<polygon fill="none" stroke="black" points="218,-333 218,-397 432,-397 432,-333 218,-333"/>
<text text-anchor="start" x="226" y="-385.8" font-family="Helvetica,sans-Serif" font-size="9.00">com.github.aptd.simulation.elements.passenger.</text>
<text text-anchor="middle" x="325" y="-375.8" font-family="Helvetica,sans-Serif" font-size="9.00">IPassengerSource&lt; IPassengerSource&lt;?&gt; &gt;</text>
<polyline fill="none" stroke="black" points="218,-369 432,-369 "/>
<text text-anchor="middle" x="325" y="-357.8" font-family="Helvetica,sans-Serif" font-size="9.00"> </text>
<polyline fill="none" stroke="black" points="218,-351 432,-351 "/>
<text text-anchor="middle" x="325" y="-339.8" font-family="Helvetica,sans-Serif" font-size="9.00"> </text>
</a>
</g>
</g>
<!-- Node18&#45;&gt;Node10 -->
<g id="edge9" class="edge"><title>Node18&#45;&gt;Node10</title>
<path fill="none" stroke="midnightblue" d="M325,-322.787C325,-288.761 325,-239.106 325,-195.209"/>
<polygon fill="none" stroke="midnightblue" points="321.5,-322.822 325,-332.822 328.5,-322.822 321.5,-322.822"/>
</g>
<!-- Node19 -->
<g id="node10" class="node"><title>Node19</title>
<g id="a_node10"><a xlink:href="../../dd/de2/interfacecom_1_1github_1_1aptd_1_1simulation_1_1elements_1_1passenger_1_1IPassengerSource.htm" target="_top" xlink:title="interface for a source of passengers (an agent generating Passenger agents) ">
<polygon fill="none" stroke="black" points="213.5,-660 213.5,-724 446.5,-724 446.5,-660 213.5,-660"/>
<text text-anchor="start" x="221.5" y="-712.8" font-family="Helvetica,sans-Serif" font-size="9.00">com.github.aptd.simulation.elements.passenger.</text>
<text text-anchor="middle" x="330" y="-702.8" font-family="Helvetica,sans-Serif" font-size="9.00">IPassengerSource&lt; T extends IPassengerSource&lt;?&gt;</text>
<polyline fill="none" stroke="black" points="213.5,-696 446.5,-696 "/>
<text text-anchor="middle" x="330" y="-684.8" font-family="Helvetica,sans-Serif" font-size="9.00"> </text>
<polyline fill="none" stroke="black" points="213.5,-678 446.5,-678 "/>
<text text-anchor="middle" x="330" y="-666.8" font-family="Helvetica,sans-Serif" font-size="9.00"> </text>
</a>
</g>
</g>
<!-- Node19&#45;&gt;Node18 -->
<g id="edge10" class="edge"><title>Node19&#45;&gt;Node18</title>
<path fill="none" stroke="orange" d="M329.366,-649.802C328.351,-583.837 326.384,-455.961 325.478,-397.068"/>
<polygon fill="orange" stroke="orange" points="325.867,-649.893 329.521,-659.838 332.866,-649.785 325.867,-649.893"/>
<text text-anchor="middle" x="382.5" y="-508.8" font-family="Helvetica,sans-Serif" font-size="9.00"> &lt; IPassengerSource&lt;?&gt; &gt;</text>
</g>
<!-- Node20&#45;&gt;Node19 -->
<g id="edge11" class="edge"><title>Node20&#45;&gt;Node19</title>
<path fill="none" stroke="midnightblue" d="M330.8,-976.859C330.583,-899.798 330.246,-780.366 330.088,-724.201"/>
<polygon fill="none" stroke="midnightblue" points="327.3,-976.983 330.828,-986.973 334.3,-976.963 327.3,-976.983"/>
</g>
<!-- Node23 -->
<g id="node14" class="node"><title>Node23</title>
<g id="a_node14"><a xlink:href="../../d7/d7a/interfacecom_1_1github_1_1aptd_1_1simulation_1_1elements_1_1graph_1_1network_1_1IStation.htm" target="_top" xlink:title="interface of a node, which is a train station ">
<polygon fill="none" stroke="black" points="464.5,-660 464.5,-724 693.5,-724 693.5,-660 464.5,-660"/>
<text text-anchor="start" x="472.5" y="-712.8" font-family="Helvetica,sans-Serif" font-size="9.00">com.github.aptd.simulation.elements.graph.network.</text>
<text text-anchor="middle" x="579" y="-702.8" font-family="Helvetica,sans-Serif" font-size="9.00">IStation&lt; T extends IStation&lt;?&gt;</text>
<polyline fill="none" stroke="black" points="464.5,-696 693.5,-696 "/>
<text text-anchor="middle" x="579" y="-684.8" font-family="Helvetica,sans-Serif" font-size="9.00"> </text>
<polyline fill="none" stroke="black" points="464.5,-678 693.5,-678 "/>
<text text-anchor="start" x="472.5" y="-666.8" font-family="Helvetica,sans-Serif" font-size="9.00">+ gps()</text>
</a>
</g>
</g>
<!-- Node20&#45;&gt;Node23 -->
<g id="edge19" class="edge"><title>Node20&#45;&gt;Node23</title>
<path fill="none" stroke="midnightblue" d="M379.386,-978.738C433.167,-901.752 517.647,-780.824 557.203,-724.201"/>
<polygon fill="none" stroke="midnightblue" points="376.49,-976.771 373.633,-986.973 382.229,-980.78 376.49,-976.771"/>
</g>
<!-- Node21 -->
<g id="node12" class="node"><title>Node21</title>
<g id="a_node12"><a xlink:href="../../de/d57/interfacecom_1_1github_1_1aptd_1_1simulation_1_1core_1_1experiment_1_1IExperiment.htm" target="_top" xlink:title="a single experiment run ">
<polygon fill="none" stroke="black" points="697.5,-293 697.5,-437 894.5,-437 894.5,-293 697.5,-293"/>
<text text-anchor="start" x="705.5" y="-425.8" font-family="Helvetica,sans-Serif" font-size="9.00">com.github.aptd.simulation.core.experiment.</text>
<text text-anchor="middle" x="796" y="-415.8" font-family="Helvetica,sans-Serif" font-size="9.00">IExperiment</text>
<polyline fill="none" stroke="black" points="697.5,-409 894.5,-409 "/>
<text text-anchor="middle" x="796" y="-397.8" font-family="Helvetica,sans-Serif" font-size="9.00"> </text>
<polyline fill="none" stroke="black" points="697.5,-391 894.5,-391 "/>
<text text-anchor="start" x="705.5" y="-379.8" font-family="Helvetica,sans-Serif" font-size="9.00">+ actions()</text>
<text text-anchor="start" x="705.5" y="-369.8" font-family="Helvetica,sans-Serif" font-size="9.00">+ addAgent()</text>
<text text-anchor="start" x="705.5" y="-359.8" font-family="Helvetica,sans-Serif" font-size="9.00">+ getAgent()</text>
<text text-anchor="start" x="705.5" y="-349.8" font-family="Helvetica,sans-Serif" font-size="9.00">+ objects()</text>
<text text-anchor="start" x="705.5" y="-339.8" font-family="Helvetica,sans-Serif" font-size="9.00">+ parallel()</text>
<text text-anchor="start" x="705.5" y="-329.8" font-family="Helvetica,sans-Serif" font-size="9.00">+ preprocess()</text>
<text text-anchor="start" x="705.5" y="-319.8" font-family="Helvetica,sans-Serif" font-size="9.00">+ simulationsteps()</text>
<text text-anchor="start" x="705.5" y="-309.8" font-family="Helvetica,sans-Serif" font-size="9.00">+ statistic()</text>
<text text-anchor="start" x="705.5" y="-299.8" font-family="Helvetica,sans-Serif" font-size="9.00">+ time()</text>
</a>
</g>
</g>
<!-- Node21&#45;&gt;Node10 -->
<g id="edge14" class="edge"><title>Node21&#45;&gt;Node10</title>
<path fill="none" stroke="#404040" d="M743.022,-292.828C726.875,-274.51 708.045,-256.032 688,-242 613.995,-190.196 518.58,-153.558 444.147,-130.343"/>
<polygon fill="none" stroke="#404040" points="443.859,-130.255 436.949,-132.317 432.388,-126.732 439.298,-124.67 443.859,-130.255"/>
<text text-anchor="middle" x="685" y="-216.8" font-family="Helvetica,sans-Serif" font-size="9.00"> &#45;m_experiment</text>
</g>
<!-- Node21&#45;&gt;Node21 -->
<g id="edge15" class="edge"><title>Node21&#45;&gt;Node21</title>
<path fill="none" stroke="#404040" d="M894.588,-387.857C905.184,-383.455 912,-375.836 912,-365 912,-358.397 909.469,-352.988 905.094,-348.774"/>
<polygon fill="none" stroke="#404040" points="904.736,-348.548 897.527,-348.728 894.588,-342.143 901.797,-341.963 904.736,-348.548"/>
<text text-anchor="middle" x="931.5" y="-362.8" font-family="Helvetica,sans-Serif" font-size="9.00"> +EMPTY</text>
</g>
<!-- Node22 -->
<g id="node13" class="node"><title>Node22</title>
<g id="a_node13"><a xlink:href="../../d7/d7a/interfacecom_1_1github_1_1aptd_1_1simulation_1_1elements_1_1graph_1_1network_1_1IStation.htm" target="_top" xlink:title="{com.github.aptd.simulation.elements.graph.network.\lIStation\&lt;?\&gt;\n||+ gps()\l}">
<polygon fill="none" stroke="black" points="450.5,-333 450.5,-397 679.5,-397 679.5,-333 450.5,-333"/>
<text text-anchor="start" x="458.5" y="-385.8" font-family="Helvetica,sans-Serif" font-size="9.00">com.github.aptd.simulation.elements.graph.network.</text>
<text text-anchor="middle" x="565" y="-375.8" font-family="Helvetica,sans-Serif" font-size="9.00">IStation&lt;?&gt;</text>
<polyline fill="none" stroke="black" points="450.5,-369 679.5,-369 "/>
<text text-anchor="middle" x="565" y="-357.8" font-family="Helvetica,sans-Serif" font-size="9.00"> </text>
<polyline fill="none" stroke="black" points="450.5,-351 679.5,-351 "/>
<text text-anchor="start" x="458.5" y="-339.8" font-family="Helvetica,sans-Serif" font-size="9.00">+ gps()</text>
</a>
</g>
</g>
<!-- Node22&#45;&gt;Node10 -->
<g id="edge16" class="edge"><title>Node22&#45;&gt;Node10</title>
<path fill="none" stroke="#404040" d="M536.763,-332.822C508.128,-301.204 462.202,-250.494 420.426,-204.367"/>
<polygon fill="none" stroke="#404040" points="420.188,-204.104 413.196,-202.342 412.133,-195.209 419.126,-196.972 420.188,-204.104"/>
<text text-anchor="middle" x="461" y="-216.8" font-family="Helvetica,sans-Serif" font-size="9.00"> &#45;m_station</text>
</g>
<!-- Node23&#45;&gt;Node22 -->
<g id="edge17" class="edge"><title>Node23&#45;&gt;Node22</title>
<path fill="none" stroke="orange" d="M577.225,-649.802C574.384,-583.837 568.875,-455.961 566.338,-397.068"/>
<polygon fill="orange" stroke="orange" points="573.73,-649.998 577.658,-659.838 580.724,-649.696 573.73,-649.998"/>
<text text-anchor="middle" x="581.5" y="-508.8" font-family="Helvetica,sans-Serif" font-size="9.00"> &lt;?&gt;</text>
</g>
<!-- Node24 -->
<g id="node15" class="node"><title>Node24</title>
<g id="a_node15"><a xlink:href="../../de/d20/interfacecom_1_1github_1_1aptd_1_1simulation_1_1elements_1_1graph_1_1IVertex.htm" target="_top" xlink:title="interface of graph nodes ">
<polygon fill="none" stroke="black" points="528.5,-1012 528.5,-1086 629.5,-1086 629.5,-1012 528.5,-1012"/>
<text text-anchor="start" x="536.5" y="-1074.8" font-family="Helvetica,sans-Serif" font-size="9.00">com::github::aptd::</text>
<text text-anchor="start" x="536.5" y="-1064.8" font-family="Helvetica,sans-Serif" font-size="9.00">simulation::elements</text>
<text text-anchor="middle" x="579" y="-1054.8" font-family="Helvetica,sans-Serif" font-size="9.00">::graph::IVertex&lt; T &gt;</text>
<polyline fill="none" stroke="black" points="528.5,-1048 629.5,-1048 "/>
<text text-anchor="middle" x="579" y="-1036.8" font-family="Helvetica,sans-Serif" font-size="9.00"> </text>
<polyline fill="none" stroke="black" points="528.5,-1030 629.5,-1030 "/>
<text text-anchor="middle" x="579" y="-1018.8" font-family="Helvetica,sans-Serif" font-size="9.00"> </text>
</a>
</g>
</g>
<!-- Node24&#45;&gt;Node23 -->
<g id="edge18" class="edge"><title>Node24&#45;&gt;Node23</title>
<path fill="none" stroke="midnightblue" d="M579,-1001.32C579,-927.72 579,-786.644 579,-724.134"/>
<polygon fill="none" stroke="midnightblue" points="575.5,-1001.68 579,-1011.68 582.5,-1001.68 575.5,-1001.68"/>
</g>
</g>
</svg>
        <g id="navigator" transform="translate(0 0)" fill="#404254">
                <rect fill="#f2f5e9" fill-opacity="0.5" stroke="#606060" stroke-width=".5" x="0" y="0" width="60" height="60"/>
                <use id="zoomplus" xlink:href="#zoomPlus" x="17" y="9" onmousedown="handleZoom(evt,'in')"/>
                <use id="zoomminus" xlink:href="#zoomMin" x="42" y="9" onmousedown="handleZoom(evt,'out')"/>
                <use id="reset" xlink:href="#resetDef" x="30" y="36" onmousedown="handleReset()"/>
                <g id="arrowUp" xlink:href="#dirArrow" transform="translate(30 24)" onmousedown="handlePan(0,-1)">
                  <use xlink:href="#rim" fill="#404040">
                        <set attributeName="fill" to="#808080" begin="arrowUp.mouseover" end="arrowUp.mouseout"/>
                  </use>
                  <path fill="none" stroke="white" stroke-width="1.5" d="M0,-3.0v7 M-2.5,-0.5L0,-3.0L2.5,-0.5"/>
                </g>
                <g id="arrowRight" xlink:href="#dirArrow" transform="rotate(90) translate(36 -43)" onmousedown="handlePan(1,0)">
                  <use xlink:href="#rim" fill="#404040">
                        <set attributeName="fill" to="#808080" begin="arrowRight.mouseover" end="arrowRight.mouseout"/>
                  </use>
                  <path fill="none" stroke="white" stroke-width="1.5" d="M0,-3.0v7 M-2.5,-0.5L0,-3.0L2.5,-0.5"/>
                </g>
                <g id="arrowDown" xlink:href="#dirArrow" transform="rotate(180) translate(-30 -48)" onmousedown="handlePan(0,1)">
                  <use xlink:href="#rim" fill="#404040">
                        <set attributeName="fill" to="#808080" begin="arrowDown.mouseover" end="arrowDown.mouseout"/>
                  </use>
                  <path fill="none" stroke="white" stroke-width="1.5" d="M0,-3.0v7 M-2.5,-0.5L0,-3.0L2.5,-0.5"/>
                </g>
                <g id="arrowLeft" xlink:href="#dirArrow" transform="rotate(270) translate(-36 17)" onmousedown="handlePan(-1,0)">
                  <use xlink:href="#rim" fill="#404040">
                        <set attributeName="fill" to="#808080" begin="arrowLeft.mouseover" end="arrowLeft.mouseout"/>
                  </use>
                  <path fill="none" stroke="white" stroke-width="1.5" d="M0,-3.0v7 M-2.5,-0.5L0,-3.0L2.5,-0.5"/>
                </g>
        </g>
        <svg viewBox="0 0 15 15" width="100%" height="30px" preserveAspectRatio="xMaxYMin meet">
         <g id="arrow_out" transform="scale(0.3 0.3)">
          <a xlink:href="classcom_1_1github_1_1aptd_1_1simulation_1_1elements_1_1passenger_1_1CPassengerSource__coll__graph_org.svg" target="_base">
           <rect id="button" ry="5" rx="5" y="6" x="6" height="38" width="38"
                fill="#f2f5e9" fill-opacity="0.5" stroke="#606060" stroke-width="1.0"/>
           <path id="arrow"
             d="M 11.500037,31.436501 C 11.940474,20.09759 22.043105,11.32322 32.158766,21.979434 L 37.068811,17.246167 C 37.068811,17.246167 37.088388,32 37.088388,32 L 22.160133,31.978069 C 22.160133,31.978069 26.997745,27.140456 26.997745,27.140456 C 18.528582,18.264221 13.291696,25.230495 11.500037,31.436501 z"
             style="fill:#404040;"/>
          </a>
         </g>
        </svg>
</svg>
